<svg width="45" height="45" xmlns="http://www.w3.org/2000/svg">
 <metadata id="metadata8">image/svg+xml</metadata>
 <defs>
  <clipPath clipPathUnits="userSpaceOnUse" id="clipPath16">
   <path d="m11.574677,24.425327l36,0l0,-36l-36,0l0,36z" id="path18"/>
  </clipPath>
 </defs>
 <g>
  <title>background</title>
  <rect fill="none" id="canvas_background" height="402" width="582" y="-1" x="-1"/>
 </g>
 <g>
  <title>Layer 1</title>
  <g id="g10" transform="matrix(0.726252868771553,0,0,-0.726252868771553,1.0213073054828214,27.16641058125873) ">
   <g id="g12">
    <g id="g14" clip-path="url(#clipPath16)">
     <g id="g20">
      <path fill="#292f33" fill-rule="nonzero" d="m42.574677,9.425327l-10,0l0,10c0,1.657 -1.343,3 -3,3c-1.657,0 -3,-1.343 -3,-3l0,-10l-10,0c-1.657,0 -3,-1.343 -3,-3c0,-1.657 1.343,-3 3,-3l10,0l0,-10c0,-1.657 1.343,-3 3,-3c1.657,0 3,1.343 3,3l0,10l10,0c1.657,0 3,1.343 3,3c0,1.657 -1.343,3 -3,3" id="path22"/>
     </g>
    </g>
   </g>
  </g>
 </g>
</svg>