<svg width="64" height="64" xmlns="http://www.w3.org/2000/svg">

 <g>
  <title>background</title>
  <rect fill="none" id="canvas_background" height="402" width="582" y="-1" x="-1"/>
 </g>
 <g>
  <title>Layer 1</title>
  <path id="svg_1" d="m62,52c0,5.523 -4.478,10 -10,10l-40,0c-5.522,0 -10,-4.477 -10,-10l0,-40c0,-5.523 4.478,-10 10,-10l40,0c5.522,0 10,4.477 10,10l0,40" fill="#d0d0d0"/>
  <path id="svg_2" d="m57,45.666c0,4.604 -3.731,8.334 -8.333,8.334l-33.334,0c-4.602,0 -8.333,-3.73 -8.333,-8.334l0,-33.332c0,-4.604 3.731,-8.334 8.333,-8.334l33.334,0c4.602,0 8.333,3.73 8.333,8.334l0,33.332z" fill="#fff"/>
  <path id="svg_4" d="m47.897238,48.220832l-11.649051,-32.96268c-0.102266,-0.286891 -0.359481,-0.478151 -0.650785,-0.478151l-7.239208,0c-0.291304,0 -0.548519,0.19126 -0.650785,0.478151l-11.649051,32.96268c-0.080573,0.227533 -0.052683,0.481447 0.077474,0.679302c0.130157,0.197856 0.340888,0.319866 0.570212,0.319866l7.635877,0c0.297502,0 0.564014,-0.20445 0.660082,-0.507828l1.766416,-5.665255l10.415659,0l1.769515,5.665255c0.092969,0.303378 0.359481,0.507828 0.660082,0.507828l7.635877,0c0.226225,0 0.440054,-0.118713 0.570211,-0.319866c0.127058,-0.197855 0.158048,-0.451769 0.077475,-0.679302zm-18.94714,-12.168097l3.0277,-9.701501l3.027699,9.704799l-6.055399,0l0,-0.003298z" fill="#9aa0a5"/>
 </g>
</svg>