<svg width="64" height="64" xmlns="http://www.w3.org/2000/svg">

 <g>
  <title>background</title>
  <rect fill="none" id="canvas_background" height="402" width="582" y="-1" x="-1"/>
 </g>
 <g>
  <title>Layer 1</title>
  <path id="svg_1" d="m62,52c0,5.523 -4.478,10 -10,10l-40,0c-5.522,0 -10,-4.477 -10,-10l0,-40c0,-5.523 4.478,-10 10,-10l40,0c5.522,0 10,4.477 10,10l0,40" fill="#d0d0d0"/>
  <path stroke="null" id="svg_2" d="m57,45.666c0,4.604 -3.731,8.334 -8.333,8.334l-33.334,0c-4.602,0 -8.333,-3.73 -8.333,-8.334l0,-33.332c0,-4.604 3.731,-8.334 8.333,-8.334l33.334,0c4.602,0 8.333,3.73 8.333,8.334l0,33.332z" fill="#fff"/>
  <path id="svg_4" d="m40.153912,31.353729c1.836773,-1.869693 2.971821,-4.382201 2.971821,-7.153908c0,-5.747318 -4.853866,-10.419822 -10.820143,-10.419822l-5.16754,0l-7.078689,0c-0.400986,0 -0.724361,0.345599 -0.724361,0.774143l0,5.194359l0,9.26552l0,5.194359l0,10.043119l0,5.194359c0,0.428543 0.323375,0.774143 0.724361,0.774143l7.078689,0l6.703573,0c5.969511,0 10.823377,-4.67596 10.823377,-10.423278c0,-3.473274 -1.785033,-6.549109 -4.511088,-8.442994zm-8.349555,-3.231354l-3.941947,0l-0.582076,0c-0.067909,0 -0.116415,-0.048384 -0.142285,-0.114048c-0.009701,-0.020736 -0.02587,-0.041472 -0.02587,-0.065664l0,-7.015668c0,-0.024192 0.016169,-0.044928 0.02587,-0.065664c0.02587,-0.062208 0.074376,-0.114048 0.142285,-0.114048l0.582076,0l3.941947,0c1.814136,0 3.291962,1.651965 3.291962,3.68409c0,2.035581 -1.477826,3.691002 -3.291962,3.691002zm0.274869,15.372262l-4.216816,0l-0.556206,0c-0.012935,0 -0.022636,-0.013824 -0.035571,-0.01728c-0.071143,-0.020736 -0.12935,-0.079488 -0.12935,-0.162432l0,-8.16997c0,-0.082944 0.058208,-0.141696 0.12935,-0.162432c0.012935,-0.003456 0.022636,-0.01728 0.035571,-0.01728l0.556206,0l4.213582,0c0.090545,0 0.18109,0.006912 0.268402,0.01728c1.888513,0.162432 3.382507,2.001021 3.382507,4.247417c0,2.239484 -1.487527,4.078073 -3.372806,4.247417c-0.087311,0.006912 -0.18109,0.01728 -0.274869,0.01728z" fill="#9aa0a5"/>
 </g>
</svg>