<svg width="64" height="64" xmlns="http://www.w3.org/2000/svg">
 <g>
  <title>background</title>
  <rect x="-1" y="-1" width="12.666572" height="12.666572" id="canvas_background" fill="none"/>
 </g>

 <g>
  <title>Layer 1</title>
  <path fill="#d0d0d0" d="m62,52c0,5.523 -4.478,10 -10,10l-40,0c-5.522,0 -10,-4.477 -10,-10l0,-40c0,-5.523 4.478,-10 10,-10l40,0c5.522,0 10,4.477 10,10l0,40" id="svg_1"/>
  <path fill="#fff" d="m57,45.666c0,4.604 -3.731,8.334 -8.333,8.334l-33.334,0c-4.602,0 -8.333,-3.73 -8.333,-8.334l0,-33.332c0,-4.604 3.731,-8.334 8.333,-8.334l33.334,0c4.602,0 8.333,3.73 8.333,8.334l0,33.332z" id="svg_2"/>
  <path stroke="null" fill="#9aa0a5" d="m44.804674,40.43245l-3.062149,-6.446697c-0.043396,-0.0928 -0.124764,-0.1595 -0.219693,-0.182699c-0.094929,-0.0232 -0.192571,0.0029 -0.268514,0.0667c-1.714152,1.452899 -4.659673,2.549098 -6.853897,2.549098c-4.239272,0 -7.201067,-3.068199 -7.201067,-7.461697s2.961795,-7.461697 7.201067,-7.461697c2.294577,0 4.648825,0.7888 6.140571,2.061899c0.073231,0.0638 0.173585,0.087 0.265802,0.0696c0.092217,-0.0203 0.173585,-0.0841 0.219693,-0.174l3.395757,-6.614897c0.075943,-0.147899 0.040684,-0.3335 -0.084081,-0.4379c-2.568516,-2.174999 -5.82866,-3.233498 -9.967579,-3.233498c-8.814865,0 -15.21039,6.643897 -15.21039,15.793393c0,9.152396 6.395524,15.793393 15.21039,15.793393c4.03314,0 7.518403,-1.3108 10.355433,-3.900498c0.113915,-0.1044 0.146462,-0.2784 0.078655,-0.4205l0.000001,0.000001z" id="svg_4"/>
 </g>
</svg>