<svg width="64" height="64" xmlns="http://www.w3.org/2000/svg">
 <g>
  <title>background</title>
  <rect x="-1" y="-1" width="66" height="66" id="canvas_background" fill="none"/>
 </g>

 <g>
  <title>Layer 1</title>
  <path fill="#d0d0d0" d="m62,52c0,5.523 -4.478,10 -10,10l-40,0c-5.522,0 -10,-4.477 -10,-10l0,-40c0,-5.523 4.478,-10 10,-10l40,0c5.522,0 10,4.477 10,10l0,40" id="svg_1"/>
  <path fill="#fff" d="m57,45.666c0,4.604 -3.731,8.334 -8.333,8.334l-33.334,0c-4.602,0 -8.333,-3.73 -8.333,-8.334l0,-33.332c0,-4.604 3.731,-8.334 8.333,-8.334l33.334,0c4.602,0 8.333,3.73 8.333,8.334l0,33.332z" id="svg_2"/>
  <path stroke="null" fill="#9aa0a5" d="m31.387175,13l-2.360303,0l-3.449479,0l-5.857948,0c-0.334515,0 -0.599444,0.295811 -0.599444,0.66261l0,29.864779c0,0.3668 0.267609,0.66261 0.599444,0.66261l5.857948,0l3.446799,0l2.360312,0c8.068395,0 13.495496,-6.268173 13.495496,-15.597956c0,-9.326827 -5.424422,-15.592043 -13.492825,-15.592043zm-0.345217,23.901287c-0.074928,0 -0.144506,-0.020706 -0.211403,-0.047326c-0.016061,0.002957 -0.029443,0.00887 -0.045495,0.00887c-0.021412,0.002957 -0.037464,0.011836 -0.058876,0.011836l-1.102548,0l-0.599444,0l-0.599444,0l-1.632415,0c-0.321125,0 -0.578032,-0.286931 -0.578032,-0.638947l0,-15.284396c0,-0.352016 0.256907,-0.638947 0.578032,-0.638947l1.632415,0l0.599444,0l0.599444,0l1.102548,0c0.021403,0 0.037464,0.00887 0.058876,0.011827c0.013381,0 0.029433,0.005923 0.045495,0.008879c0.066898,-0.026629 0.136475,-0.047335 0.211403,-0.047335c0.115072,0 0.230145,0.011836 0.345217,0.01775c0.200711,0.008879 0.401413,0.026629 0.599444,0.053249c3.508346,0.482167 5.804432,3.665058 5.804432,8.235298c0,4.57023 -2.298756,7.753121 -5.804432,8.235288c-0.198031,0.026629 -0.398733,0.044379 -0.599444,0.053249c-0.115072,0.00887 -0.230145,0.020706 -0.345217,0.020706z" id="svg_4"/>
 </g>
</svg>