<?xml version="1.0" encoding="UTF-8" standalone="no"?>
<!-- Created with Inkscape (http://www.inkscape.org/) -->

<svg
   xmlns:dc="http://purl.org/dc/elements/1.1/"
   xmlns:cc="http://creativecommons.org/ns#"
   xmlns:rdf="http://www.w3.org/1999/02/22-rdf-syntax-ns#"
   xmlns:svg="http://www.w3.org/2000/svg"
   xmlns="http://www.w3.org/2000/svg"
   xmlns:sodipodi="http://sodipodi.sourceforge.net/DTD/sodipodi-0.dtd"
   xmlns:inkscape="http://www.inkscape.org/namespaces/inkscape"
   width="1024"
   height="768"
   id="svg4066"
   version="1.1"
   inkscape:version="0.48.4 r9939"
   sodipodi:docname="halp.svg">
  <defs
     id="defs4068" />
  <sodipodi:namedview
     id="base"
     pagecolor="#ffffff"
     bordercolor="#666666"
     borderopacity="1.0"
     inkscape:pageopacity="0.0"
     inkscape:pageshadow="2"
     inkscape:zoom="0.35"
     inkscape:cx="-443.88692"
     inkscape:cy="149.5118"
     inkscape:document-units="px"
     inkscape:current-layer="layer1"
     showgrid="false"
     fit-margin-top="-0.1"
     fit-margin-left="0"
     fit-margin-right="0"
     fit-margin-bottom="0"
     inkscape:window-width="1895"
     inkscape:window-height="635"
     inkscape:window-x="25"
     inkscape:window-y="172"
     inkscape:window-maximized="0" />
  <metadata
     id="metadata4071">
    <rdf:RDF>
      <cc:Work
         rdf:about="">
        <dc:format>image/svg+xml</dc:format>
        <dc:type
           rdf:resource="http://purl.org/dc/dcmitype/StillImage" />
        <dc:title />
      </cc:Work>
    </rdf:RDF>
  </metadata>
  <g
     inkscape:label="Layer 1"
     inkscape:groupmode="layer"
     id="layer1"
     transform="translate(-196.02978,86.126026)">
    <path
       style="fill:#000000"
       d="m 815.05045,497.31709 -7.11683,-3.22135 0.36075,-34.8347 0.36074,-34.83469 22.54338,-12.1864 c 12.39885,-6.70252 22.89893,-12.55236 23.3335,-12.99964 0.43458,-0.4473 -2.41338,-2.01565 -6.32878,-3.48526 -31.15205,-11.6926 -101.90316,-40.26536 -102.71205,-41.48017 -0.55442,-0.83263 -0.85844,-13.96001 -0.67561,-29.17192 l 0.33243,-27.65806 5.40486,-3.05987 c 2.97268,-1.68294 6.70627,-3.06988 8.29688,-3.08211 2.43638,-0.0188 185.90356,68.59733 189.71411,70.95237 0.76247,0.47124 1.29332,13.4531 1.29332,31.62781 l 0,30.8285 -11.14753,6.709 c -6.13114,3.68996 -21.1803,12.80381 -33.44259,20.25302 -12.26228,7.44921 -34.84805,21.16655 -50.19059,30.48297 -15.34255,9.31641 -29.02361,17.2636 -30.40235,17.6604 -1.37876,0.39681 -5.70939,-0.72814 -9.62364,-2.4999 z m 6.44121,-34.38448 c 0,-27.96004 -0.15139,-29.76022 -2.6136,-31.07796 -1.43748,-0.76931 -3.26162,-1.39875 -4.05365,-1.39875 -0.97551,0 -1.44004,9.56762 -1.44004,29.6596 0,26.82176 0.22625,29.79139 2.36463,31.03687 5.64246,3.28643 5.74266,2.79401 5.74266,-28.21976 z m 35.29803,11.27429 c 44.45271,-27.05881 62.65115,-38.10477 75.50166,-45.82744 l 11.48533,-6.90224 0.36698,-25.91302 c 0.20184,-14.25215 -0.0561,-25.913 -0.57331,-25.913 -0.51715,0 -10.10703,4.94897 -21.31082,10.99772 -11.20379,6.04873 -25.23491,13.61693 -31.18026,16.8182 -5.94535,3.20127 -22.97067,12.40163 -37.83404,20.44525 l -27.02431,14.62473 -0.36365,30.03736 c -0.20001,16.52054 -0.12513,30.03736 0.16641,30.03736 0.29154,0 14.13624,-8.28221 30.76601,-18.40492 z m -20.59358,-52.04515 c 7.14751,-3.81863 28.19665,-15.17727 46.77587,-25.24145 18.57921,-10.06418 37.7895,-20.46889 42.68953,-23.1216 17.3556,-9.39573 19.97536,-6.92572 -25.43939,-23.98508 -22.12145,-8.30958 -62.90459,-23.67394 -90.62919,-34.14303 -37.2496,-14.06581 -50.99823,-18.70461 -52.66797,-17.77019 -2.92083,1.63458 -10.36689,-1.39699 86.18615,35.0898 64.90635,24.52772 81.74855,31.37629 81.74855,33.24157 0,1.70575 -13.88,9.80776 -50.67059,29.57731 -61.24887,32.91232 -56.61938,30.18003 -54.04862,31.89898 2.71594,1.81603 1.46867,2.24689 16.05566,-5.54631 z m 53.12469,-41.23593 c 14.78126,-7.91916 26.3922,-14.87404 25.80208,-15.4553 -1.34367,-1.3235 -161.58491,-62.02889 -163.7348,-62.02889 -1.15121,0 -1.47423,6.38252 -1.20421,23.79417 l 0.36897,23.79415 55.39984,22.00695 c 30.46992,12.10382 55.64582,22.07005 55.94647,22.14718 0.30064,0.0771 12.64039,-6.33909 27.42165,-14.25826 z M 538.64857,471.2311 c -2.62397,-0.50647 -2.58111,0.33762 -0.86987,-17.12892 2.10552,-21.49102 6.66395,-72.07586 7.4276,-82.42416 0.38391,-5.20218 1.00933,-12.34673 1.38984,-15.87678 0.97309,-9.02758 -1.17283,-8.45446 -13.84763,3.69826 -5.8031,5.56409 -11.18777,10.12444 -11.9659,10.13412 -0.77814,0.009 -3.79366,-2.4186 -6.70117,-5.39615 l -5.28637,-5.41374 7.27128,-7.36273 7.27127,-7.36274 -2.43158,-5.39228 c -2.6269,-5.82543 -2.10165,-9.59125 1.33778,-9.59125 1.18694,0 3.41959,-0.67515 4.96145,-1.50032 2.51607,-1.34657 1.29526,-2.28583 -11.91196,-9.16468 -18.89051,-9.83891 -29.31887,-16.99162 -37.42523,-25.66953 -28.09822,-30.07936 -5.38456,-58.95697 67.56352,-85.89868 11.86345,-4.38149 16.05137,-6.53568 16.34248,-8.40625 0.21529,-1.38331 -1.81691,-10.10223 -4.51601,-19.37538 -6.48162,-22.2686 -8.58163,-33.76504 -8.03739,-44.0007 1.36928,-25.75242 23.83491,-43.266577 49.3204,-38.450107 11.80157,2.23037 26.17713,10.055147 35.73086,19.448757 8.3452,8.20532 16.92923,21.06757 16.95386,25.40354 0.0135,2.31246 -6.22024,5.18263 -11.33648,5.21992 -1.56123,0.0108 -3.54833,0.4722 -4.41577,1.02404 -0.86743,0.55182 -3.14761,11.53136 -5.06706,24.39896 -4.10317,27.50697 -3.89096,24.5513 -1.76276,24.5513 2.90983,0 20.75651,9.02709 29.2508,14.79543 27.22209,18.48617 49.83496,45.57716 56.34872,67.50768 3.40292,11.45698 2.93159,23.76277 -1.22413,31.96036 -3.35042,6.60903 -11.2413,14.97174 -17.07097,18.09168 -2.43973,1.30571 -2.82197,2.76263 -2.82197,10.7558 0,10.71029 -0.0895,10.82253 -12.77484,16.02146 l -9.10814,3.73285 -0.44366,7.4098 c -0.24402,4.07538 -0.86199,14.40233 -1.37328,22.94877 -0.5113,8.54644 -1.10765,16.48951 -1.32522,17.65126 -0.21757,1.16175 -0.82646,8.18959 -1.35307,15.61744 l -0.95747,13.50519 14.48891,15.12034 c 9.53638,9.95198 14.22276,15.81396 13.71025,17.14954 -0.67542,1.76012 -8.44333,2.0345 -58.58556,2.0693 -31.79378,0.022 -66.06105,0.17409 -76.14949,0.33781 -10.08845,0.16372 -19.36117,0.10107 -20.60604,-0.13921 z m 73.12894,-52.21002 c 0.21995,-25.23995 0.64976,-46.14069 0.95515,-46.44607 0.30537,-0.30537 1.49352,-0.19518 2.64033,0.2449 1.8228,0.69947 2.0851,6.58471 2.0851,46.78387 l 0,45.98373 33.10478,0 c 18.20764,0 33.1048,-0.41824 33.1048,-0.92943 0,-0.5112 -5.48987,-6.52755 -12.1997,-13.36967 -11.85073,-12.08439 -12.17912,-12.58924 -11.48056,-17.64977 1.10108,-7.97646 3.2218,-34.50604 4.14288,-51.8265 0.4545,-8.54644 1.06495,-16.29904 1.35655,-17.228 0.74646,-2.37791 -2.22416,-2.10063 -8.73779,0.81561 -5.59374,2.50439 -5.59631,2.50422 -27.2731,-1.85782 -11.92336,-2.39934 -22.17482,-4.89453 -22.78101,-5.54486 -0.6062,-0.65033 -1.50307,-8.17496 -1.99305,-16.7214 -0.48997,-8.54644 -1.137,-17.97117 -1.43784,-20.94384 -0.30085,-2.97268 -0.92088,-11.48534 -1.37787,-18.91702 -0.45698,-7.43169 -1.11626,-16.10634 -1.46504,-19.27703 -0.49695,-4.51734 -0.14784,-5.95148 1.61327,-6.62729 1.23612,-0.47434 12.35667,2.31609 24.71237,6.20097 l 22.46487,7.0634 20.7133,-9.66022 c 11.3923,-5.31313 21.57709,-9.32875 22.63286,-8.92362 1.33849,0.51364 1.91958,2.99915 1.91958,8.21072 0,5.48769 0.50025,7.47409 1.88226,7.47409 1.03525,0 2.22387,0.89022 2.6414,1.97827 0.79109,2.06158 -3.00465,5.30577 -10.96621,9.37272 -4.1333,2.1114 -4.4718,2.10956 -5.29238,-0.0289 -0.57391,-1.49557 0.21279,-3.16673 2.27798,-4.83902 2.3428,-1.89708 3.22405,-4.10319 3.42437,-8.57243 0.14835,-3.30989 -0.1058,-6.02121 -0.56469,-6.02518 -0.45892,-0.004 -8.56588,3.4923 -18.01546,7.76949 l -17.18106,7.77674 -0.047,33.44259 c -0.0258,18.39342 0.30227,33.44259 0.72909,33.44259 0.42684,0 8.33146,-3.10649 17.56582,-6.90331 l 16.78982,-6.9033 0,-6.60885 c 0,-4.97372 -0.50146,-6.60885 -2.02682,-6.60885 -4.40584,0 -1.93032,-4.91325 3.90361,-7.74759 21.26815,-10.33287 26.72954,-29.51801 15.27126,-53.64588 -8.55003,-18.00395 -26.78674,-38.69506 -46.19918,-52.41694 -11.37714,-8.04205 -17.44226,-11.38062 -29.05115,-15.99133 -5.30324,-2.10629 -8.73334,-4.25263 -8.6578,-5.41748 0.0688,-1.06104 0.53665,-5.05253 1.03966,-8.86999 0.8829,-6.70072 0.79027,-6.972 -2.67754,-7.84236 -2.80066,-0.70293 -4.42555,-0.1031 -7.37502,2.72273 -3.05918,2.93088 -4.50972,3.43392 -7.58169,2.62929 -5.12158,-1.34149 -10.99489,-1.37092 -16.29748,-0.0816 -3.87073,0.94112 -4.39145,0.74014 -4.39145,-1.695 0,-2.12459 1.60101,-3.29452 6.93119,-5.06491 6.37203,-2.11645 7.29384,-2.12925 11.42647,-0.15853 4.46233,2.12794 4.51972,2.11243 7.83051,-2.11797 3.20621,-4.09681 3.53248,-4.2011 8.43523,-2.69641 2.80502,0.86089 5.23597,1.42929 5.40215,1.26312 0.16617,-0.16617 1.28208,-6.98695 2.47979,-15.15729 2.98505,-20.36287 2.61524,-19.58074 9.2697,-19.6051 8.71791,-0.0319 10.04158,-1.49635 6.26705,-6.93348 -18.71564,-26.95956 -46.24518,-39.060477 -66.83941,-29.38005 -6.55071,3.07919 -14.83836,11.41444 -17.05208,17.14998 -4.71592,12.21852 -3.72704,24.23684 4.32903,52.61262 3.51297,12.37371 5.31401,21.27426 5.04636,24.93859 l -0.41619,5.69792 -19.23731,7.02835 c -45.73653,16.70983 -72.17778,35.17015 -75.46378,52.6861 -1.36723,7.28794 2.76469,16.23038 11.50026,24.88924 9.0504,8.9709 17.87246,14.90281 36.44639,24.50636 13.92736,7.20106 17.17697,10.42963 14.89285,14.79646 -0.62695,1.19863 -2.97249,2.93838 -5.2123,3.86614 -3.41401,1.41414 -3.85278,2.09718 -2.71402,4.22498 2.66815,4.98548 12.22741,8.03699 18.10793,5.78042 3.05133,-1.17091 6.141,-7.64653 6.141,-12.87088 0,-2.54323 -1.50356,-6.55557 -3.57876,-9.55008 -3.99718,-5.76794 -3.64592,-6.92943 2.0467,-6.76758 2.65619,0.0755 5.1283,-1.15952 7.70562,-3.84967 l 3.79474,-3.96086 -7.25104,-6.49446 c -9.18962,-8.2308 -8.46602,-10.33026 3.23665,-9.39089 5.28737,0.42442 10.94037,2.00996 15.61898,4.38081 7.33448,3.71665 23.01723,17.41363 23.01723,20.10274 0,1.83168 -9.57548,11.67442 -11.35743,11.67442 -0.74276,0 -3.36167,-1.94935 -5.81983,-4.33188 l -4.46936,-4.33187 -7.47039,7.37211 c -12.25489,12.09367 -13.16133,15.21686 -16.64934,57.36709 -1.66047,20.06555 -3.2912,39.06702 -3.62384,42.22549 -0.33263,3.15846 -0.87809,8.32686 -1.21212,11.48533 -0.33403,3.15847 -1.01166,10.60704 -1.50584,16.55239 -0.49416,5.94535 -1.17522,11.27611 -1.51344,11.84614 -0.33822,0.57003 15.08454,0.87406 34.2728,0.6756 l 34.88776,-0.3608 0.39989,-45.89082 z M 683.25929,316.095 c -2.15477,-2.15476 -0.6084,-4.62815 4.91855,-7.86716 6.77442,-3.97007 8.41469,-4.21201 9.49365,-1.40026 1.09176,2.84506 -12.25332,11.42629 -14.4122,9.26742 z M 595.93855,148.23849 c -2.00367,-3.74388 1.5344,-8.17534 4.88802,-6.12231 3.09498,1.89473 3.94343,5.93371 1.56329,7.44207 -2.88548,1.82863 -4.9976,1.39655 -6.45131,-1.31976 z m 19.34211,-6.17235 c -1.34537,-3.50596 0.54032,-6.40367 3.86041,-5.93222 2.23319,0.31712 3.04627,1.3342 3.04627,3.81062 0,2.47641 -0.81308,3.4935 -3.04627,3.81062 -1.82723,0.25946 -3.37208,-0.41645 -3.86041,-1.68902 z m -85.92585,215.02624 7.06509,-7.15397 -4.84778,-1.75297 c -2.66629,-0.96415 -4.95428,-1.53582 -5.08444,-1.2704 -0.13012,0.26543 -2.62507,3.04196 -5.54429,6.17007 -5.19617,5.56802 -5.25562,5.74496 -2.83081,8.42435 1.36225,1.50528 2.8594,2.73688 3.32699,2.73688 0.46757,0 4.02943,-3.21929 7.91524,-7.15396 z m 119.18124,-28.57351 c 0,-18.16377 -0.53534,-33.35591 -1.18965,-33.76029 -1.18697,-0.73358 -39.31638,-12.9364 -40.42161,-12.9364 -0.57332,0 0.80788,25.83304 1.73386,32.42918 0.26082,1.85792 0.88564,10.55363 1.38846,19.32379 0.50285,8.77014 1.06436,16.96836 1.2478,18.21825 0.25988,1.7707 4.18466,3.06676 17.77392,5.86937 9.59222,1.97826 17.89643,3.66081 18.4538,3.73899 0.55738,0.0782 1.01342,-14.71912 1.01342,-32.88289 z m -80.77028,-15.91663 -3.02009,-3.02009 -4.72293,4.72294 c -4.4814,4.48141 -4.63829,4.94718 -3.06779,9.10795 l 1.65516,4.38501 6.08786,-6.08786 6.08786,-6.08786 -3.02007,-3.02009 z m 16.77655,-4.40105 c -8.08362,-7.19265 -17.3659,-12.33641 -24.51088,-13.58265 l -5.40487,-0.94271 2.70243,2.75409 c 1.48634,1.51475 8.16541,7.66 14.84239,13.65608 l 12.13994,10.90199 3.39904,-3.47177 3.39903,-3.47176 -6.56708,-5.84327 z m 127.51735,104.24117 c -27.23608,-11.6489 -38.62576,-17.15201 -38.94652,-18.81764 -0.30041,-1.55987 0.39852,-2.35407 2.07168,-2.35407 1.38877,0 17.3538,6.37882 35.47783,14.17516 41.01089,17.64145 37.86336,16.65817 37.86336,11.82836 0,-3.83503 -0.65065,-4.17543 -36.14502,-18.90964 -21.51523,-8.93128 -36.14502,-15.72778 -36.14502,-16.79176 0,-0.9831 0.91207,-1.69034 2.02682,-1.57165 1.11476,0.11864 17.76504,6.76108 37.00064,14.76085 l 34.97381,14.54507 19.41262,-9.74271 c 10.67694,-5.35849 19.41262,-10.22831 19.41262,-10.82183 0,-0.59351 -20.6736,-9.22028 -45.94133,-19.1706 -36.31983,-14.30257 -45.94134,-18.5941 -45.94134,-20.49142 0,-1.41029 0.97509,-2.37242 2.36463,-2.33318 1.30055,0.0367 24.25432,8.74244 51.00839,19.34607 l 48.64377,19.27932 0,8.5174 0,8.5174 -8.78291,4.97672 c -4.83059,2.73719 -15.77544,8.69934 -24.32188,13.24922 l -15.53898,8.27249 -38.49317,-16.46356 z m 75.6516,-10.37362 c 3.77138,-2.19571 6.24444,-4.66165 6.51225,-6.49348 0.23748,-1.62437 0.0301,-2.9534 -0.46069,-2.9534 -0.49086,0 -9.95788,4.62853 -21.03782,10.28561 -19.06463,9.73383 -20.14534,10.49889 -20.14534,14.26131 l 0,3.97571 14.52556,-7.76783 c 7.98907,-4.27232 17.26178,-9.36087 20.60604,-11.30792 z m 26.34871,-150.00015 c -42.35924,-8.47961 -64.59426,-53.52334 -45.9128,-93.01017 21.14327,-44.69033 85.1841,-49.33486 112.67194,-8.17148 9.83065,14.72151 13.4973,35.07531 9.4693,52.56473 -7.59247,32.96618 -42.66626,55.33551 -76.22844,48.61692 z m 31.64071,-7.91326 c 10.54652,-4.00736 17.85576,-8.76582 24.69366,-16.07609 17.92579,-19.16412 20.94626,-47.86372 7.45942,-70.87726 -4.2433,-7.24065 -16.29939,-18.76797 -23.43751,-22.40956 -7.18164,-3.66379 -20.4345,-7.00882 -27.7687,-7.00882 -24.99127,0 -49.15126,18.03044 -56.74161,42.34587 -10.27003,32.89977 9.98132,67.74411 44.15403,75.97107 8.94779,2.15415 23.14994,1.28103 31.64071,-1.94521 z m -21.957,-25.38988 c -1.73107,-1.73106 -0.88156,-5.57352 1.42817,-6.45985 2.72631,-1.04618 5.96706,2.59413 4.86534,5.46518 -0.75131,1.95785 -4.7054,2.58279 -6.29351,0.99467 z m 0.47478,-14.60881 c -0.8432,-1.01598 -1.34022,-5.03594 -1.1122,-8.99569 0.40433,-7.02185 0.50706,-7.18118 5.36738,-8.32474 6.75809,-1.59007 9.8468,-5.35776 9.8468,-12.0114 0,-4.27493 -0.80557,-6.13327 -3.76049,-8.67497 -6.9549,-5.98236 -17.192,-2.50187 -19.54983,6.64668 -0.74409,2.88713 -2.04789,4.44383 -3.95596,4.72326 -3.45376,0.5058 -4.45824,-2.75346 -2.62709,-8.52411 6.50384,-20.49598 37.36271,-15.69993 37.38141,5.80977 0.007,7.63571 -2.82554,12.81849 -9.0829,16.62132 -5.81014,3.53106 -7.1792,5.09769 -6.96589,7.97127 0.40682,5.4805 -2.71627,8.1625 -5.54123,4.75861 z m -98.18486,-64.71471 c -2.91236,-2.50512 -3.69468,-4.31307 -3.58227,-8.27869 0.19071,-6.72809 4.08095,-10.58612 10.67448,-10.58612 11.55617,0 15.44632,15.83435 5.05351,20.56964 -4.96494,2.26216 -8.03475,1.83127 -12.14572,-1.70483 z m 10.64799,-4.56445 c 3.26087,-3.69539 0.7806,-8.75042 -4.02238,-8.198 -4.60525,0.52966 -6.01196,6.0432 -2.24468,8.7979 3.13481,2.29223 3.76853,2.23157 6.26706,-0.5999 z m -62.22414,-6.41292 c -1.93809,-4.25364 -0.0995,-9.57576 3.72795,-10.79052 7.12089,-2.26008 12.87097,4.85373 8.86505,10.96755 -3.00674,4.58885 -10.46932,4.48394 -12.593,-0.17703 z m 7.85899,-3.38339 c 0,-0.74317 -0.60805,-1.35122 -1.35121,-1.35122 -0.74317,0 -1.35122,0.60805 -1.35122,1.35122 0,0.74316 0.60805,1.35121 1.35122,1.35121 0.74316,0 1.35121,-0.60805 1.35121,-1.35121 z"
       id="path4053"
       inkscape:connector-curvature="0" />
  </g>
</svg>
