<svg width="64" height="64" xmlns="http://www.w3.org/2000/svg">

 <g>
  <title>background</title>
  <rect fill="none" id="canvas_background" height="402" width="582" y="-1" x="-1"/>
 </g>
 <g>
  <title>Layer 1</title>
  <path stroke="null" id="svg_3" d="m32.001895,11.79895c3.766233,0 6.710536,1.366096 8.832909,4.103338c2.525131,3.237218 3.787697,8.608172 3.787697,16.112862c0,7.484489 -1.275191,12.864281 -3.812948,16.139376c-2.104697,2.698103 -5.040162,4.046523 -8.806395,4.046523c-3.783909,0 -6.83553,-1.479727 -9.151076,-4.439181c-2.315545,-2.960716 -3.474581,-8.235715 -3.474581,-15.828785c0,-7.449137 1.275191,-12.809991 3.812948,-16.085086c2.104697,-2.698103 5.040162,-4.049048 8.806395,-4.049048m0,6.287577c-0.902734,0 -1.706989,0.292915 -2.414025,0.877483s-1.25499,1.632497 -1.645123,3.143788c-0.511339,1.960764 -0.76764,5.262373 -0.76764,9.90609c0,4.641191 0.229787,7.831694 0.689361,9.567722c0.458311,1.736028 1.037829,2.892538 1.738553,3.467005c0.698199,0.576992 1.497403,0.863595 2.398875,0.863595s1.706989,-0.29039 2.414025,-0.874958c0.708299,-0.587093 1.25499,-1.635022 1.645123,-3.146314c0.511339,-1.943088 0.76764,-5.234597 0.76764,-9.875788c0,-4.643716 -0.229787,-7.831694 -0.689361,-9.570247c-0.458311,-1.733503 -1.037829,-2.895063 -1.738553,-3.479631c-0.696936,-0.584568 -1.49614,-0.878746 -2.398875,-0.878746" fill="#000000"/>
 </g>
</svg>