<?xml version="1.0" encoding="UTF-8" standalone="no"?>
<!-- Created with Inkscape (http://www.inkscape.org/) -->

<svg
   xmlns:dc="http://purl.org/dc/elements/1.1/"
   xmlns:cc="http://creativecommons.org/ns#"
   xmlns:rdf="http://www.w3.org/1999/02/22-rdf-syntax-ns#"
   xmlns:svg="http://www.w3.org/2000/svg"
   xmlns="http://www.w3.org/2000/svg"
   xmlns:sodipodi="http://sodipodi.sourceforge.net/DTD/sodipodi-0.dtd"
   xmlns:inkscape="http://www.inkscape.org/namespaces/inkscape"
   width="462.64987"
   height="287.69345"
   id="svg2"
   version="1.1"
   inkscape:version="0.48.4 r9939"
   sodipodi:docname="New document 1">
  <defs
     id="defs4">
    <clipPath
       clipPathUnits="userSpaceOnUse"
       id="clipPath3071">
      <rect
         style="fill:#060026;fill-opacity:1;stroke:#000000;stroke-width:3;stroke-miterlimit:4;stroke-opacity:1;stroke-dasharray:none"
         id="rect3073"
         width="462.64987"
         height="287.89346"
         x="130.30968"
         y="165.44824" />
    </clipPath>
  </defs>
  <sodipodi:namedview
     id="base"
     pagecolor="#ffffff"
     bordercolor="#666666"
     borderopacity="1.0"
     inkscape:pageopacity="0.0"
     inkscape:pageshadow="2"
     inkscape:zoom="0.98994949"
     inkscape:cx="14.224395"
     inkscape:cy="-93.158716"
     inkscape:document-units="px"
     inkscape:current-layer="layer1"
     showgrid="false"
     fit-margin-bottom="-0.2"
     fit-margin-top="0"
     fit-margin-left="0"
     fit-margin-right="0"
     inkscape:window-width="1920"
     inkscape:window-height="1056"
     inkscape:window-x="0"
     inkscape:window-y="24"
     inkscape:window-maximized="1" />
  <metadata
     id="metadata7">
    <rdf:RDF>
      <cc:Work
         rdf:about="">
        <dc:format>image/svg+xml</dc:format>
        <dc:type
           rdf:resource="http://purl.org/dc/dcmitype/StillImage" />
        <dc:title></dc:title>
      </cc:Work>
    </rdf:RDF>
  </metadata>
  <g
     inkscape:label="Layer 1"
     inkscape:groupmode="layer"
     id="layer1"
     transform="translate(-130.30968,-165.44824)">
    <path
       style="fill:#000000;fill-opacity:1"
       d="m -394.16301,473.90123 c -6.77195,-3.37179 -11.30814,-7.77671 -14.05867,-13.65175 -1.95579,-4.17754 -2.29655,-6.60962 -2.29891,-16.4085 -10e-4,-6.32722 0.0433,-30.63435 0.10024,-54.01589 0.0562,-23.38153 0.0535,-74.24904 -0.007,-113.0389 -0.0601,-38.78991 -0.0111,-77.80526 0.10916,-86.70081 l 0.21886,-16.17374 3.34958,-6.37704 c 3.60202,-6.85764 7.46499,-10.27775 15.29433,-13.54101 4.32361,-1.8021 6.82067,-1.96291 25.78564,-1.66077 l 20.99843,0.33453 -19.51352,0.26115 c -10.73242,0.1436 -21.5902,0.74875 -24.12841,1.34476 -6.69704,1.57256 -13.98043,7.18527 -17.47334,13.46522 -2.86528,5.15151 -2.95026,5.69252 -3.36392,21.41525 -0.23336,8.87162 -0.36881,30.98677 -0.30094,49.14479 0.0679,18.15797 0.14616,49.67082 0.1738,70.02853 0.0276,20.35771 0.0739,46.2428 0.10282,57.52239 0.0291,11.27962 -0.0402,35.81123 -0.15454,54.51464 -0.19945,32.7571 -0.12623,34.18246 1.97444,38.80374 2.71302,5.96677 9.49134,12.37388 15.40828,14.56448 3.93124,1.45543 8.82528,1.65751 39.16563,1.61752 38.87436,-0.0513 128.96317,-0.0852 187.2259,-0.0704 112.63557,0.0285 158.7948801,0.0859 199.56185,0.24785 24.75593,0.098 53.33911,0.15959 63.51822,0.13613 10.17909,-0.0233 39.66206,0.0587 65.51771,0.18264 25.85562,0.12414 65.24072,0.25311 87.52246,0.28744 87.07334,0.13379 161.23458,0.21651 198.06218,0.22084 21.1821,0.003 59.2175,0.10318 84.5231,0.22332 77.7434,0.37008 77.111,0.42717 84.8899,-7.65874 2.4544,-2.55116 5.0642,-5.49854 5.8,-6.54978 0.7358,-1.05121 0.2976,-0.0409 -0.9733,2.24427 -2.7489,4.94343 -8.8651,9.84328 -14.5856,11.68506 -4.3368,1.3962 -17.8937,1.57569 -106.6716,1.41232 -126.58368,-0.23304 -158.32039,-0.27232 -200.56223,-0.24632 -19.25688,0.0117 -46.26515,-0.0271 -60.01831,-0.086 -13.75317,-0.059 -33.109,-0.0887 -43.01298,-0.067 -16.28251,0.0361 -57.57294,-0.0582 -187.55303,-0.43071 -85.29944,-0.24406 -203.81811,-0.40512 -219.56743,-0.29822 -8.80459,0.0597 -27.48611,0.0645 -41.51449,0.0107 -14.02843,-0.0539 -47.11567,-0.0192 -73.52725,0.0771 -64.64132,0.23573 -63.92492,0.26405 -70.0169,-2.76917 z m 202.10474,-32.04433 c -0.33797,-0.35619 -0.55264,-3.00923 -0.47709,-5.89569 0.11901,-4.54148 0.51513,-5.52577 2.94237,-7.31011 l 2.80495,-2.06197 -9.51044,0.27391 c -5.23075,0.15069 -18.2857,0.16954 -29.01103,0.0419 l -19.50061,-0.23204 0.50504,-9.57782 0.50504,-9.57782 -9.96741,-1.53596 -9.96741,-1.53597 0.162,-6.18744 0.16201,-6.18745 10.50589,-3.00362 c 5.77822,-1.65199 10.75476,-3.60468 11.05894,-4.33927 0.3042,-0.73461 0.98163,-7.54581 1.50541,-15.13596 0.52376,-7.59014 1.23998,-15.96773 1.59159,-18.61692 0.59481,-4.48147 0.49766,-4.77576 -1.39562,-4.22898 -1.11917,0.32323 -4.89305,3.41229 -8.38639,6.86459 -3.49328,3.45227 -6.73389,6.26689 -7.20131,6.25464 -1.32915,-0.0351 -6.69435,-5.37767 -6.66145,-6.63374 0.0164,-0.61934 2.06498,-3.0218 4.55281,-5.33872 l 4.52332,-4.21259 -1.82521,-3.1775 c -2.56402,-4.46373 -2.28676,-5.44426 2.02271,-7.1535 l 3.79068,-1.50347 -8.36836,-4.17017 -8.36832,-4.1702 -6.13374,4.05936 c -22.02036,14.57318 -56.71669,40.62546 -69.10784,51.89066 -5.27804,4.7985 -5.86243,4.73059 -9.81561,-1.14061 l -1.87683,-2.78743 13.5619,-11.13769 c 7.45903,-6.12569 17.45444,-14.00809 22.212,-17.51642 4.75756,-3.5083 10.25795,-7.61206 12.22304,-9.11943 1.96515,-1.50738 9.43423,-6.75462 16.59797,-11.6606 l 13.02501,-8.91992 -4.41068,-3.55439 c -12.36685,-9.96589 -14.74213,-22.86759 -5.99476,-32.56131 1.98938,-2.2046 3.39376,-4.24367 3.12086,-4.53128 -1.63535,-1.72325 -42.15496,-6.50031 -58.84332,-6.93733 l -6.72093,-0.17601 0.131,-4.99828 0.13089,-4.99829 12.33516,0.323 c 12.80814,0.33538 36.17709,2.8738 54.92256,5.96587 l 10.85619,1.79074 9.72455,-4.60396 c 5.34849,-2.53218 14.63633,-6.43541 20.6397,-8.67387 l 10.91523,-4.06988 -0.57078,-4.01558 c -0.3139,-2.20858 -1.36751,-6.53729 -2.34138,-9.61942 -5.22853,-16.54771 -6.46782,-30.50385 -3.41074,-38.4101 3.32548,-8.60045 11.0284,-14.74118 20.57086,-16.39897 13.44789,-2.33629 30.86476,7.39148 40.91661,22.85303 3.88848,5.98114 3.64275,7.91833 -1.16998,9.22397 -2.14226,0.58114 -4.56867,1.03906 -5.39205,1.0175 -1.16318,-0.0303 -1.94751,2.79341 -3.5169,12.66222 -1.1109,6.98587 -2.31253,14.32114 -2.67024,16.30065 -0.58916,3.26309 -0.40415,3.66787 1.98602,4.33473 1.45002,0.40458 5.35839,2.14325 8.68523,3.86374 6.35545,3.28672 8.65798,3.80412 10.26738,2.30713 3.14246,-2.92301 53.76863,-25.16077 75.53124,-33.17746 19.04021,-7.01384 27.35688,-9.35694 28.21277,-7.94859 0.84544,1.39116 2.69238,8.0892 2.3214,8.41868 -0.12557,0.11153 -7.64522,2.78515 -16.71034,5.94144 -22.60436,7.87035 -35.57433,13.15143 -59.70737,24.31154 -11.34848,5.248 -21.06071,9.67185 -21.58274,9.83078 -0.52201,0.15895 2.69282,4.20048 7.1441,8.98118 10.55822,11.33964 13.84911,18.09242 13.59253,27.89145 l -0.18449,7.04632 10.39667,4.08197 c 22.71296,8.91756 37.16382,15.58579 56.10731,25.89024 l 8.15249,4.43461 -1.51057,2.69226 c -3.68885,6.57459 -3.45658,6.54141 -12.14155,1.73351 -13.76275,-7.61895 -42.51138,-20.71741 -59.21516,-26.97968 l -6.83633,-2.56296 -3.34628,3.65549 c -4.07167,4.44786 -3.27329,6.15823 2.95062,6.32123 2.37435,0.0624 4.56573,0.54004 4.8697,1.06191 1.01081,1.73556 -2.85321,8.92698 -6.37006,11.85537 -2.37902,1.98098 -4.98582,3.04886 -8.30133,3.40062 l -4.83326,0.5128 -1.61124,20.1107 c -0.88618,11.06086 -1.45465,20.28469 -1.2633,20.49735 0.34335,0.38153 37.19265,-0.59886 84.02379,-2.23542 l 24.03021,-0.83976 15.33572,6.47653 c 19.95932,8.4291 19.78943,8.30395 19.62825,14.459 -0.0964,3.69253 -0.57716,5.15774 -1.90252,5.80208 -0.97524,0.47413 -9.42942,0.99902 -18.787,1.16648 -19.70111,0.35255 -23.49703,0.53118 -24.1343,1.13597 -0.25514,0.24214 1.90187,0.76336 4.79338,1.15832 2.89147,0.39497 10.6359,1.60361 17.20983,2.68596 10.05151,1.65481 16.93203,1.98998 43.2596801,2.10698 l 31.3070999,0.13954 -0.46585,6.32832 -0.4658,6.32832 -16.20748,7.71302 L 1.8625901,442.406 -41.65151,442.375 c -23.93278,-0.0169 -63.31914,-0.0979 -87.5253,-0.17977 -24.20615,-0.0814 -48.11874,-0.046 -53.13906,0.0805 -5.02034,0.12638 -9.40443,-0.0614 -9.7424,-0.41787 z m 44.46517,-3.10111 c 18.9822,-0.0263 41.94174,-0.0902 51.02121,-0.14165 9.07944,-0.0516 28.43523,-0.0194 43.01285,0.071 14.57764,0.0909 32.47219,0.0558 39.76566,-0.0771 l 13.26085006,-0.24189 0.0796,-3.0365 0.0796,-3.03654 -22.76025006,0.0938 c -20.6294,0.085 -23.4993,0.31414 -30.65434,2.44715 l -7.89407,2.35328 -16.76465,-2.62646 c -16.03769,-2.51261 -18.17991,-2.61679 -49.40347,-2.40276 -17.95136,0.12306 -38.92356,0.0591 -46.60486,-0.14204 l -13.96597,-0.3657 -0.0919,3.49876 c -0.0863,3.28243 0.10933,3.50363 3.15748,3.57665 1.787,0.0432 18.77995,0.0562 37.76216,0.03 z m 165.00774,-7.68618 c 12.93152,-5.89126 14.4339,-6.83589 14.49354,-9.11318 0.0363,-1.39736 -0.34008,-2.55131 -0.83703,-2.5643 -0.49694,-0.008 -7.0976,2.79251 -14.66821,6.23454 -12.9471399,5.88648 -13.7691799,6.42939 -13.8401899,9.14082 -0.0417,1.58546 0.0373,2.88085 0.17471,2.87866 0.13761,-0.004 6.74232,-2.96163 14.6771799,-6.57654 z m -144.75947,-1.53247 c 8.53183,-0.1501 14.61681,-0.45154 13.52215,-0.66975 -1.09467,-0.21824 -12.83109,-2.14515 -26.08094,-4.28209 l -24.09062,-3.88522 -9.43838,4.55461 -9.43838,4.55462 20.00683,5.6e-4 c 11.00376,6e-4 26.98747,-0.12245 35.51934,-0.27257 z m 64.2318,0.44948 c -0.39799,-3.31322 -0.67166,-3.4213 -13.58578,-5.36536 -11.88125,-1.78863 -72.64371,-11.55062 -97.12483,-15.60395 -11.77797,-1.95003 -26.57062,-4.33507 -32.87251,-5.30001 -15.25988,-2.33668 -47.61903,-7.62508 -51.04911,-8.34295 -2.5356,-0.53073 -2.74231,-0.32943 -2.82292,2.74823 l -0.087,3.3209 12.20194,1.99569 c 6.71107,1.0976 22.064,3.57325 34.11768,5.50142 12.05366,1.92813 25.05286,4.03958 28.88707,4.69211 3.83425,0.65246 12.12678,2.00153 18.42782,2.99779 24.51172,3.87547 79.64024,12.8239 88.15564,14.30935 4.92918,0.85993 10.5697,1.66178 12.53445,1.78208 3.40728,0.20855 3.55592,0.082 3.21748,-2.7353 z m 17.26423,-1.10575 c 7.73518,-2.27279 14.64834,-4.11702 15.36254,-4.09827 0.81427,0.0211 1.33232,-1.25318 1.38897,-3.417 l 0.0903,-3.45099 -4.78694,1.34894 c -2.63283,0.74189 -9.65769,2.67463 -15.6108,4.295 l -10.82382,2.94607 -0.0918,3.24868 c -0.0511,1.78679 0.0207,3.2512 0.1579,3.25426 0.13744,0.002 6.57869,-1.85394 14.31385,-4.12669 z m 59.11509,-4.82729 c 6.60244,-3.19754 11.6075,-5.84649 11.12229,-5.88662 -4.74012,-0.39164 -31.1853099,-0.61822 -39.63849,-0.33993 l -10.76296,0.35475 -0.11064,4.22055 c -0.10243,3.92275 -0.378,4.32783 -3.90165,5.74159 -3.64948,1.46428 -3.13579,1.52488 13.74788,1.62209 l 17.5389701,0.10081 12.0044799,-5.81369 z m -218.75469,-0.8526 12.39912,0.32467 -0.21209,-3.75683 -0.21211,-3.75683 -22.86246,-3.84456 c -12.57426,-2.11451 -23.1815,-3.51763 -23.57155,-3.11811 -0.39004,0.39956 -0.97541,3.82253 -1.30087,7.60661 l -0.59166,6.88015 11.97626,-0.32989 c 6.58693,-0.18147 17.55585,-0.18376 24.37535,-0.005 z m 30.57981,-1.40202 c 4.22151,-1.47227 3.3949,-2.41202 -2.91425,-3.31305 -3.15181,-0.45007 -7.18606,-1.10738 -8.96482,-1.46169 -3.04251,-0.60511 -3.23882,-0.46879 -3.31134,2.30032 -0.0422,1.61899 0.1794,3.21394 0.49299,3.54433 0.81056,0.85419 11.38822,0.0842 14.69741,-1.06992 z m 130.35365,-2.25307 c 4.98964,-1.44844 8.40353,-2.88974 7.58646,-3.20293 -0.81709,-0.31317 -12.24553,-2.24174 -25.39656,-4.28564 -22.391,-3.47998 -24.8656,-3.68089 -38.93058,-3.16054 -8.26082,0.3056 -20.72127,0.71414 -27.68987,0.9078 l -12.67016,0.35212 -15.67308,-6.71156 c -8.62018,-3.69134 -16.33374,-7.268 -17.1412,-7.94803 -0.80748,-0.68005 -13.25972,-3.1928 -27.67166,-5.58387 l -26.20345,-4.34742 -13.29774,3.87773 -13.29775,3.87773 4.97845,0.88867 c 5.75431,1.0272 49.06616,8.04237 76.70109,12.4229 10.41039,1.65015 39.54705,6.36142 64.74814,10.46944 50.95903,8.30683 44.59665,8.06373 63.95792,2.4434 z m -57.6485,-14.18267 c 15.41686,-0.442 38.7634,-1.1815 51.88124,-1.64336 13.1178,-0.46185 25.1684,-0.80521 26.77913,-0.76304 2.5745,0.0673 2.93789,-0.27876 3.00556,-2.86328 0.0423,-1.61698 -0.25579,-3.12484 -0.6625,-3.35078 -0.40673,-0.22595 -5.69643,-0.21089 -11.75492,0.0334 -6.05845,0.24441 -16.42096,0.58633 -23.02778,0.75994 -17.77021,0.46687 -61.55849,1.82002 -73.33444,2.26621 l -10.26372,0.38889 -0.0706,2.69593 c -0.0957,3.64577 0.48587,4.04538 5.28644,3.6338 2.272,-0.19484 16.7447,-0.71583 32.16156,-1.15783 z m -41.04043,-5.55595 c -0.44426,-0.43605 -6.81719,-3.36154 -14.16206,-6.50112 -7.34492,-3.13957 -13.71999,-5.87862 -14.16689,-6.08682 -0.44686,-0.20817 -0.70614,1.08402 -0.5761,2.87152 0.23223,3.19316 0.48695,3.35633 14.58186,9.33917 l 14.34554,6.08925 0.39269,-2.45957 c 0.2155,-1.35284 0.0289,-2.81637 -0.41499,-3.25243 z m 32.2648,-3.13089 c 9.91137,-0.3037 26.35458,-0.78281 36.54041,-1.06462 10.18588,-0.28177 23.02459,-0.63722 28.53047,-0.78986 5.50588,-0.15265 12.04159,-0.47625 14.52377,-0.71911 l 4.51314,-0.44153 -12.36462,-5.33437 -12.36459,-5.33435 -14.012,0.27459 c -21.90129,0.4292 -96.01619,2.87507 -99.60534,3.28714 -0.81957,0.0942 4.29022,2.65195 11.35512,5.68411 11.5544,4.95901 13.44907,5.48674 18.85413,5.25166 3.30491,-0.14374 14.11819,-0.50983 24.02951,-0.81362 z m -65.08485,-9.46747 0.40847,-3.7406 5.4844,-0.16672 c 3.01644,-0.0918 5.79529,-0.6414 6.17529,-1.22169 1.8134,-2.76938 4.8336,-72.17648 3.20256,-73.59991 -1.15576,-1.00868 -5.06914,-2.37452 -21.70336,-7.57485 -27.96434,-8.74247 -30.19405,-9.29214 -32.94957,-8.12271 -4.59755,1.95108 -41.72063,24.67078 -44.99998,27.54041 -1.21717,1.06514 -0.26121,1.8462 5.99279,4.89641 4.09251,1.99603 7.74066,4.14367 8.10691,4.77252 1.16981,2.00855 -0.53426,4.84195 -3.62573,6.02863 -3.68305,1.41379 -3.75403,2.16997 -0.4604,4.90328 1.71796,1.42572 4.04227,2.17914 6.95805,2.25552 3.86687,0.10147 4.61967,-0.25883 6.44429,-3.08237 2.65225,-4.10427 2.72253,-7.73791 0.21481,-11.10368 -2.00768,-2.69466 -1.76685,-4.69237 0.55837,-4.63148 0.6894,0.018 2.56361,-1.26494 4.16493,-2.85105 l 2.91152,-2.88391 -4.53744,-4.28021 c -2.49562,-2.35412 -4.5255,-4.73693 -4.51089,-5.29514 0.0172,-0.63532 2.5727,-0.76564 6.83388,-0.34838 7.78892,0.76271 12.67715,3.34796 20.2613,10.71587 l 4.73842,4.6033 -3.46196,3.95326 c -1.90409,2.17428 -3.88741,3.9502 -4.40739,3.9465 -0.52,-0.001 -2.18117,-1.2543 -3.69155,-2.77913 l -2.74611,-2.7724 -5.1691,4.81592 c -6.58975,6.13947 -9.23958,11.63089 -9.45106,19.58599 -0.0887,3.36641 -0.78,12.13329 -1.53456,19.48201 -0.75453,7.34868 -1.16604,13.57817 -0.91446,13.84327 0.25156,0.26509 2.4545,-0.14064 4.89539,-0.90164 4.08799,-1.27449 5.68676,-1.16465 20.27468,1.39273 8.71019,1.52699 16.67308,2.80997 17.69532,2.85104 1.74375,0.0698 1.85978,-0.81861 1.87704,-14.37841 0.0131,-10.43783 0.36529,-14.78266 1.26712,-15.6394 1.87745,-1.78365 2.10304,-0.0889 2.11751,15.91152 0.007,7.83199 0.23062,14.46936 0.49658,14.74966 0.266,0.28029 2.91798,0.9792 5.89325,1.55309 2.97528,0.57394 5.71847,1.1042 6.09592,1.17842 0.37757,0.0737 0.87019,-1.54837 1.09476,-3.60566 z m -74.27267,-34.85453 c 4.15085,-4.27307 4.30039,-4.61531 2.59247,-5.93419 -2.71558,-2.09691 -3.65791,-1.81277 -8.00728,2.41411 -3.90045,3.79066 -3.94655,3.91488 -2.20431,5.94434 0.97865,1.14002 2.1022,2.08123 2.49679,2.0916 0.39461,0.007 2.69961,-2.02184 5.12233,-4.51586 z m 102.84296,-15.8122 c 2.26011,-0.95911 5.72264,-5.51908 5.77734,-7.60842 0.0153,-0.6024 -1.39789,-1.13269 -3.14148,-1.17834 -6.4411,-0.16862 -8.75711,-5.92805 -4.06548,-10.10987 1.40831,-1.25533 2.57398,-2.79287 2.59032,-3.4168 0.0166,-0.62394 -2.2007,-1.91262 -4.92671,-2.8637 l -4.95646,-1.72928 -0.38006,14.51438 -0.38007,14.51438 3.60547,-0.57912 c 1.98302,-0.31855 4.62771,-1.01298 5.87713,-1.54323 z m -79.35841,-8.04097 3.48757,-3.98218 -2.001,-2.10859 -2.00097,-2.10861 -3.06719,3.18649 c -2.6899,2.7945 -2.95303,3.5439 -2.139,6.09169 0.51052,1.59788 1.2218,2.90481 1.58063,2.90431 0.35886,-0.004 2.22181,-1.79293 4.13996,-3.98311 z m 15.05894,-1.87777 2.2969,-2.32011 -3.68899,-3.66751 c -4.21573,-4.19128 -11.98407,-8.63439 -17.08839,-9.77378 -3.28792,-0.73397 -3.40041,-0.67302 -2.02949,1.1004 1.30349,1.68615 17.50896,16.96265 18.00802,16.97575 0.11279,0.002 1.23868,-1.03867 2.50195,-2.31475 z M -256.4199,305.016 c 8.27317,-5.18142 17.92527,-11.0858 21.4491,-13.12087 4.24165,-2.44961 5.97129,-3.94994 5.11795,-4.43939 -1.3829,-0.79317 -27.42328,-6.73905 -39.36648,-8.98865 -7.03722,-1.32552 -7.34241,-1.2963 -10.53477,1.009 -3.76191,2.7166 -7.97877,9.97778 -8.08189,13.91655 -0.0386,1.46939 0.55195,4.27703 1.31206,6.23911 1.54502,3.98814 11.45383,14.71058 13.64745,14.76801 0.77788,0.0198 8.18334,-4.20232 16.45658,-9.38376 z m 116.50346,-6.61389 c 0.20994,-8.01662 -3.43578,-15.55912 -11.81244,-24.43841 -3.77506,-4.00164 -7.79411,-7.79964 -8.93112,-8.44006 -1.7815,-1.00337 -4.70949,0.20684 -21.17396,8.75163 -10.50862,5.4538 -18.46506,10.1305 -17.68098,10.39262 0.78408,0.26214 5.89242,1.80216 11.35191,3.42231 9.61289,2.85266 23.12306,7.29907 26.40218,8.68928 1.4131,0.59913 1.56534,-0.15871 1.28328,-6.38834 -0.26677,-5.89214 -0.0658,-7.06148 1.20684,-7.02816 2.08612,0.0544 2.6844,2.2112 2.5058,9.03227 l -0.15191,5.79799 7.18223,2.68164 c 10.02032,3.74128 9.65299,3.8338 9.8181,-2.47276 z m -60.70303,-26.22086 c 7.74168,-4.25136 17.20931,-9.21414 21.03915,-11.0284 3.82989,-1.81426 6.57879,-3.64656 6.10869,-4.07178 -0.82202,-0.74354 -10.8728,-5.48469 -14.45115,-6.81686 -1.37056,-0.51024 -1.70338,-1.8036 -1.58891,-6.17493 0.0796,-3.04122 -0.19179,-5.57028 -0.60309,-5.62017 -16.15997,-1.95931 -19.00152,-2.05035 -24.00041,-0.76875 -5.66225,1.4517 -7.33328,1.00983 -5.23749,-1.38497 2.78233,-3.17933 16.66372,-4.17737 26.84398,-1.92997 2.93186,0.64723 4.24568,0.59169 4.28788,-0.18133 0.33326,-6.09987 3.65643,-21.98263 4.73433,-22.62709 0.74225,-0.44372 2.73671,-0.77735 4.4322,-0.74139 1.69544,0.0368 3.37204,-0.20916 3.72564,-0.54474 2.40065,-2.27816 -9.72263,-15.75816 -18.75402,-20.85284 -5.8378,-3.29309 -7.1692,-3.63773 -14.9729,-3.87529 -7.80945,-0.23772 -9.00245,-0.007 -13.51844,2.61952 -6.08267,3.53709 -9.69038,9.58824 -10.65616,17.87327 -0.72548,6.22375 0.42072,12.9985 4.90355,28.98327 2.86276,10.20791 3.76094,15.82481 2.74983,17.19642 -0.37679,0.51118 -4.09263,2.12924 -8.25745,3.59577 -11.92178,4.19792 -29.47806,12.0625 -28.63191,12.82604 0.42265,0.38142 6.14084,1.81938 12.70705,3.1955 6.56624,1.37613 16.40887,3.69626 21.87252,5.15588 5.46368,1.4596 10.66689,2.70979 11.56265,2.77823 0.89577,0.0685 7.96281,-3.354 15.70446,-7.60535 z m -5.10581,-56.01968 c -1.87854,-1.23011 -0.71621,-4.55795 1.57108,-4.49806 1.26235,0.033 2.07565,0.8278 2.23282,2.18192 0.26959,2.32301 -1.83573,3.60494 -3.8039,2.31614 z m 11.79431,-5.01844 c -0.73855,-2.0863 0.85879,-3.93878 2.99188,-3.46976 2.64257,0.58101 2.34912,4.31475 -0.36386,4.62964 -1.17146,0.13594 -2.35409,-0.386 -2.62802,-1.15988 z m 820.43628,242.84752 c 0.054,-1.92429 0.2769,-2.70616 0.5029,-1.73738 0.2266,0.96874 0.1851,2.5432 -0.092,3.49879 -0.2772,0.95556 -0.4621,0.16294 -0.4117,-1.76141 z M 236.38538,441.65954 c -0.0216,-0.76271 -0.20262,-3.28709 -0.40049,-5.60966 -0.29596,-3.47346 0.01,-4.44017 1.7202,-5.44737 3.78046,-2.22559 2.22284,-2.81808 -6.63887,-2.52548 -4.81833,0.15902 -18.39469,0.29757 -30.16968,0.30788 l -21.40915,0.0186 0.94835,-10.42214 0.94834,-10.42217 -5.75467,-0.80938 c -11.96812,-1.68347 -11.37571,-1.24101 -10.86064,-8.11282 l 0.45417,-6.05915 9.32199,-2.62845 c 5.1271,-1.44564 9.34185,-3.17713 9.3662,-3.84773 0.0277,-0.67052 0.90231,-8.62438 1.95106,-17.67501 2.35404,-20.31668 2.3741,-20.94504 0.67078,-20.98964 -0.75816,-0.0196 -4.45582,3.05965 -8.21728,6.84336 l -6.8387,6.87944 -3.88127,-3.24284 c -2.13461,-1.78356 -3.87277,-3.56123 -3.86259,-3.95037 0.007,-0.38915 2.09486,-2.64123 4.63259,-5.00465 5.08317,-4.73398 5.32961,-5.31652 3.19904,-7.56169 -2.6944,-2.8393 -1.70596,-5.87219 2.35334,-7.221 l 3.69701,-1.22841 -10.80927,-5.91111 c -21.1864,-11.58588 -31.78645,-22.85097 -31.48635,-33.46177 0.17851,-6.31328 9.06783,-17.06548 19.61238,-23.72261 7.22494,-4.56133 30.22584,-14.75998 41.62734,-18.45769 2.08753,-0.67702 1.57385,-3.97241 -3.08966,-19.81878 -4.62997,-15.73219 -4.96519,-22.2603 -1.49872,-29.18106 3.40415,-6.79641 7.45126,-10.83432 14.14734,-14.11534 14.22068,-6.96799 32.29564,1.20383 40.04983,18.10666 1.80371,3.93188 3.50124,9.23561 3.77217,11.78602 l 0.49279,4.63713 -3.85643,0.80604 -3.8564,0.80607 -1.90692,11.80405 -1.90668,11.80406 3.52288,1.56719 c 21.34335,9.49484 38.66334,23.84472 44.69034,37.02676 5.0801,11.11121 3.26434,23.30946 -4.75661,31.95457 -3.96861,4.27737 -4.07944,4.56011 -2.32051,5.91835 1.016,0.78449 3.56063,1.47126 5.65479,1.52609 4.36351,0.11424 4.6217,0.98864 2.05263,6.95183 -2.08457,4.8387 -7.72113,8.67806 -13.71402,9.34139 l -4.47471,0.49531 -0.6964,13.11308 c -0.38302,7.2122 -1.09444,16.37558 -1.58088,20.36304 -0.85783,7.03063 -0.81751,7.25167 1.33245,7.30796 1.21936,0.0322 8.89925,-0.19541 17.06638,-0.50448 8.16718,-0.30939 32.19389,-1.08019 53.39272,-1.71289 l 38.54331,-1.15032 16.81411,7.32583 16.8138,7.32574 -0.1564,5.97479 -0.1562,5.97475 -8.5139,0.41792 c -4.6826,0.22987 -14.7799,0.58249 -22.43828,0.78361 -7.65841,0.20116 -13.2991,0.72661 -12.53486,1.16763 4.14095,2.39007 28.14614,5.19052 47.74694,5.57026 l 20.4631,0.39638 5.8726,-6.1913 c 4.5499,-4.79682 5.7949,-6.75661 5.5272,-8.70119 -0.9544,-6.93824 -2.7047,-28.29901 -3.4499,-42.10474 l -0.838,-15.52726 -3.4616,-0.27977 c -6.9867,-0.56471 -12.4513,-4.55932 -14.9633,-10.93844 -1.5768,-4.00368 -0.4474,-5.78166 3.6049,-5.67552 3.8016,0.0994 6.6324,-0.64847 6.6615,-1.75999 0.018,-0.39551 -1.8646,-2.8822 -4.1668,-5.52543 -8.4719,-9.72697 -9.4869,-22.3085 -2.8003,-34.71307 6.8651,-12.73514 25.9782,-28.19029 43.7242,-35.35563 4.009,-1.61883 4.2776,-1.95965 3.8156,-4.84649 -0.2733,-1.70783 -1.3519,-8.9701 -2.3974,-16.13832 l -1.9003,-13.03317 -4.4228,-0.97064 c -7.2924,-1.60044 -7.7576,-2.8164 -3.6078,-9.42523 7.5825,-12.07597 22.46,-22.23226 34.0281,-23.23029 5.9384,-0.51231 12.9988,1.58045 17.7316,5.25579 4.3724,3.39528 9.3327,10.70461 9.305,13.71149 0,1.41038 2.0043,3.23317 6.8401,6.18117 5.8182,3.54676 6.8486,4.5905 6.7926,6.88047 -0.099,4.06862 -2.8965,5.03188 -6.9337,2.38822 l -3.3219,-2.17529 -1.9145,2.35987 c -1.0532,1.29793 -1.9396,2.92415 -1.97,3.61377 -0.034,0.68963 -1.7755,6.80031 -3.8787,13.57928 -5.1791,16.69301 -5.1943,16.53003 1.7685,18.94258 7.136,2.47249 18.3896,7.26322 19.0307,8.10132 0.266,0.3478 1.7364,1.22286 3.2677,1.94463 1.5311,0.72174 5.96,3.49842 9.8418,6.17042 15.0926,10.38899 23.0729,21.59243 21.4743,30.14824 -1.822,9.75424 -10.9971,18.79011 -29.9427,29.49062 -11.9171,6.73089 -12.9057,7.87027 -10.6782,12.3079 0.5546,1.10505 2.0949,2.45512 3.4227,3.00014 5.9851,2.45672 -1.2044,7.60887 -9.085,6.51101 -2.5489,-0.35514 -4.6495,-0.36366 -4.6684,-0.0193 -0.016,0.34461 1.3964,18.10293 3.1449,39.46301 1.7482,21.36006 2.9677,39.03698 2.7094,39.28201 -0.2583,0.24505 -15.8994,0.47158 -34.7583,0.5034 l -34.2888,0.0579 -15.3899,7.3059 -15.3901,7.30582 -72.02308,-0.0609 c -39.61267,-0.0336 -83.16501,-0.037 -96.78295,-0.008 -20.75038,0.0449 -24.7665,-0.17085 -24.80071,-1.33325 z m 43.65149,-2.26936 c 12.65372,0.0223 48.21523,0.0491 79.02551,0.059 30.81043,0.01 58.83033,0.0878 62.26683,0.17348 l 6.2479,0.15556 0.09,-3.41162 0.09,-3.41162 -21.7558,-0.0568 c -19.23857,-0.0502 -22.66561,0.19733 -29.61769,2.13823 -9.28493,2.59224 -13.12052,2.59969 -27.42895,0.0534 -9.00984,-1.60335 -15.87477,-1.94116 -42.73981,-2.10312 -17.60325,-0.10676 -39.77333,-0.10811 -49.2668,-0.004 l -17.26086,0.18907 -0.0897,3.41666 -0.0897,3.41668 8.76161,-0.32831 c 4.81887,-0.18053 19.11467,-0.30978 31.7684,-0.28712 z m 169.04394,-9.0194 c 10.0379,-4.64777 10.8915,-5.26253 10.9605,-7.89389 0.04,-1.64282 -0.456,-2.8465 -1.176,-2.83689 -0.6882,0.009 -7.1787,2.90257 -14.4235,6.42978 -12.3501,6.01279 -13.1972,6.6106 -13.567,9.57749 l -0.3949,3.16434 3.8578,-1.70025 c 2.1216,-0.93516 8.7561,-3.96841 14.7432,-6.74055 z m -161.8086,0.12337 c 15.95401,0.0553 28.11653,-0.26413 27.02784,-0.71014 -1.08869,-0.44601 -12.79162,-2.51919 -26.0064,-4.60705 l -24.02696,-3.79608 -8.74099,4.0536 c -4.80763,2.22942 -8.7485,4.33958 -8.75769,4.68921 -0.006,0.34961 2.57391,0.55335 5.74013,0.4527 3.16624,-0.10065 18.81005,-0.13766 34.76407,-0.0822 z m 77.7127,0.14261 c -0.17435,-1.93023 -0.87845,-3.52417 -1.56491,-3.54216 -0.68636,-0.018 -13.07876,-1.93458 -27.53855,-4.25916 -14.45981,-2.32452 -32.7908,-5.25442 -40.73562,-6.51085 -7.94485,-1.25643 -39.53871,-6.34365 -70.20845,-11.30492 -30.66974,-4.96131 -56.10943,-9.02958 -56.5327,-9.04067 -0.42324,-0.008 -0.80457,1.32085 -0.84746,2.95978 -0.0598,2.28239 0.44545,3.10547 2.15868,3.51628 2.45843,0.58954 72.74698,12.14233 83.9177,13.79295 3.83644,0.5669 15.49152,2.43636 25.90013,4.15434 10.40859,1.71799 25.6486,4.2099 33.86665,5.53756 8.21806,1.32766 22.56207,3.65441 31.87556,5.17063 9.3135,1.51616 17.62933,2.81953 18.47973,2.89622 1.19159,0.10742 1.4734,-0.66512 1.22924,-3.37002 z m 29.5056,-4.25415 c 4.844,-1.30884 5.0928,-1.53768 4.7524,-4.3718 -0.1975,-1.64487 -0.6761,-2.99894 -1.0633,-3.0091 -0.3873,-0.007 -7.1695,1.83798 -15.07152,4.1069 -7.90216,2.26889 -14.55988,4.12025 -14.79499,4.11412 -0.23504,-0.004 -0.46751,1.52252 -0.51679,3.39709 l -0.0895,3.40831 10.83568,-3.1322 c 5.95962,-1.72269 13.13599,-3.75372 15.94749,-4.51334 z m 47.4896,-1.81306 12.6611,-5.98571 -8.4958,-0.27157 c -4.6726,-0.14939 -16.2633,-0.18046 -25.7569,-0.0695 l -17.2614,0.20255 -0.1073,3.59099 c -0.1421,4.63702 -0.9268,5.66588 -4.9046,6.42023 -1.7969,0.34092 -3.279,1.06673 -3.2933,1.61298 -0.024,0.64661 5.9967,0.90452 17.2368,0.73923 l 17.2623,-0.25397 12.6609,-5.98572 z m -224.19708,0.0596 9.20231,-0.41147 -0.28525,-3.8751 c -0.15699,-2.1313 -0.59493,-4.20135 -0.97332,-4.60013 -0.37839,-0.39875 -9.49132,-2.1977 -20.25089,-3.9976 -21.21356,-3.54873 -21.10055,-3.56015 -21.30026,2.15311 -0.0568,1.64907 -0.42791,4.6779 -0.82268,6.73077 l -0.7177,3.73248 12.97275,0.33971 c 7.13504,0.18686 17.11381,0.15414 22.17508,-0.0717 z m 35.13514,-1.84919 4.51529,-2.21273 -2.93954,-0.66015 c -1.61676,-0.36303 -6.52583,-1.23036 -10.90907,-1.92727 -4.3833,-0.6969 -9.20126,-1.5059 -10.70665,-1.79758 -2.64615,-0.51281 -2.74096,-0.38182 -2.85416,3.94304 l -0.1172,4.47345 9.24801,0.19695 c 7.68734,0.16368 10.00994,-0.17647 13.76328,-2.01574 z m 127.4415,-1.30702 c 7.14407,-2.04845 12.83454,-3.88227 12.64504,-4.07521 -0.1893,-0.19297 -11.10306,-2.06994 -24.2526,-4.17109 -25.70987,-4.1081 -29.27878,-4.24942 -66.58888,-2.63646 l -14.65661,0.63363 -16.6841,-7.12922 c -9.17618,-3.92113 -17.17201,-7.536 -17.7683,-8.03311 -1.14921,-0.95791 -46.62561,-9.09026 -51.55502,-9.21931 -3.66056,-0.0959 -26.86568,6.36689 -26.30671,7.32656 0.22822,0.39191 2.7829,1.04081 5.677,1.442 10.24436,1.42006 25.60421,3.89177 98.39863,15.83439 19.18358,3.14729 26.72608,4.3616 58.27437,9.38203 10.4102,1.65663 20.04754,3.2214 21.41629,3.47732 5.93341,1.10933 9.13259,0.68599 21.40089,-2.83153 z m 95.30984,-1.1924 c -0.8254,-10.37693 -0.068,-61.0921 0.922,-61.66831 0.5528,-0.32186 1.2674,-0.13462 1.5882,0.41604 0.3207,0.55069 0.4843,15.45955 0.3638,33.13073 -0.152,21.71399 0.1302,32.26689 0.8582,32.5534 0.5923,0.23316 11.4325,0.36238 24.0887,0.2871 l 23.0115,-0.13679 -0.16,-5.00591 c -0.1512,-4.73972 -1.8595,-25.45859 -4.2981,-52.13036 -2.313,-25.29955 -2.3056,-24.57227 -0.2549,-24.48326 1.0157,0.0443 2.7024,0.76351 3.7487,1.59865 1.9254,1.53714 7.6254,2.21324 8.8515,1.04988 0.367,-0.34826 -0.447,-1.72135 -1.8089,-3.05132 -2.079,-2.03047 -2.4076,-3.15578 -2.0505,-7.01887 0.4192,-4.5366 0.5149,-4.64618 6.8477,-7.85557 22.1476,-11.22334 34.1568,-22.44025 34.2624,-32.00276 0.1428,-13.10771 -20.9106,-30.23464 -50.9309,-41.42805 l -8.1731,-3.04737 0.1107,-4.11188 c 0.059,-2.26154 1.8222,-9.42128 3.9179,-15.9106 2.0954,-6.48928 3.8238,-12.32002 3.8402,-12.95724 0.024,-0.63712 -1.1049,-1.47532 -2.4928,-1.86252 -3.4666,-0.96723 -2.0361,-2.63331 2.1666,-2.52325 3.0027,0.0784 3.4483,-0.22751 3.5053,-2.40909 0.055,-1.98578 -0.4376,-2.5123 -2.384,-2.56329 -1.3472,-0.0356 -2.7931,-0.69062 -3.213,-1.4563 -0.42,-0.76571 -3.3005,-3.10153 -6.4013,-5.19071 -4.6137,-3.10853 -8.5622,-7.84313 -8.5008,-10.19308 0.028,-0.94513 10.9655,2.43462 13.4442,4.15318 1.4186,0.98354 2.8205,1.55944 3.1152,1.2798 0.9409,-0.89301 -3.6459,-6.81489 -7.6538,-9.88126 -9.4472,-7.22797 -24.7336,-4.42141 -37.1565,6.82193 -5.9583,5.39268 -11.904,13.54985 -10.7569,14.75848 0.3374,0.35555 2.725,0.94542 5.3058,1.31082 l 4.6919,0.66437 1.4205,10.54076 c 0.7812,5.79745 1.442,10.65393 1.468,10.79214 0.1779,0.94117 9.7986,0.22135 12.8517,-0.96163 6.9864,-2.70648 12.9318,-10.16281 14.5244,-18.21642 0.609,-3.07868 1.3958,-4.41313 2.732,-4.63437 1.6726,-0.27698 1.7917,0.14228 1.0965,3.86314 -1.582,8.46473 -8.718,17.96889 -16.1875,21.55885 -1.9499,0.93729 -5.933,1.96486 -8.8512,2.28347 l -5.3054,0.57928 0.4783,5.66532 0.4787,5.66536 -9.2745,4.22727 c -23.6685,10.78818 -41.0639,28.90553 -42.9133,44.69409 -0.8363,7.14008 1.0572,12.45283 7.0332,19.73096 2.221,2.70505 4.0161,5.76503 3.9889,6.80006 -0.062,2.44128 -3.8213,4.89755 -7.3507,4.80512 -3.9012,-0.1022 -3.649,2.4078 0.6727,6.70314 2.9984,2.97993 4.1427,3.48334 7.5385,3.31659 l 4.0034,-0.19664 0.073,-12.00213 c 0.052,-6.60107 0.084,-15.60323 0.079,-20.00481 -5e-4,-10.91675 1.2758,-21.74106 2.6082,-22.14095 0.7672,-0.23025 1.0651,8.52226 0.9859,28.95725 -0.1152,30.01309 0.8721,54.51638 3.1138,77.18644 l 1.2692,12.83593 -4.6735,5.18896 c -2.5704,2.85389 -4.6811,5.47779 -4.6905,5.83087 -6e-4,0.35299 4.9318,0.77151 10.9794,0.9299 l 10.9964,0.28797 -0.1176,4.49846 -0.1177,4.49848 6.5321,0.17102 6.5324,0.17102 -0.3791,-4.76155 z m 8.7522,-215.76147 c -1.4265,-1.50302 -0.5079,-4.34812 1.3876,-4.29849 2.3549,0.0618 3.2397,1.36042 2.3646,3.47286 -0.6689,1.61579 -2.5992,2.04052 -3.7522,0.82563 z M 329.92153,406.24776 c 19.8212,-0.55165 41.89446,-1.15036 49.0516,-1.33041 7.15712,-0.18012 14.14128,-0.43683 15.52028,-0.57059 1.379,-0.13374 5.1303,-0.20546 8.3364,-0.15941 l 5.8294,0.0836 -0.611,-3.26712 c -0.3361,-1.79688 -0.7458,-3.42436 -0.9101,-3.61661 -0.278,-0.32501 -16.5313,0.11597 -53.01403,1.43842 -14.06336,0.50982 -20.75254,0.71989 -44.55184,1.39919 -5.23072,0.14922 -12.10365,0.45719 -15.2732,0.68422 l -5.76275,0.41283 -0.0881,3.37564 c -0.0817,3.13327 0.10979,3.34614 2.67334,2.96443 1.51891,-0.22617 18.97906,-0.86259 38.8003,-1.41425 z m -44.20238,-3.06347 c -0.32233,-2.68384 -1.29956,-3.28357 -14.47262,-8.88188 -7.76986,-3.30203 -14.40881,-6.01108 -14.75328,-6.02009 -0.34462,-0.006 -0.65963,1.2525 -0.70023,2.80338 -0.07,2.68585 0.5719,3.1019 13.52529,8.76202 16.20568,7.08119 16.86688,7.2157 16.40084,3.33657 z m 55.44896,-6.20981 c 49.1387,-1.54094 59.942,-1.94162 60.2506,-2.23442 0.17,-0.16132 -5.5841,-2.78986 -12.78651,-5.84118 l -13.09568,-5.54781 -25.53066,0.8361 c -14.04185,0.45985 -28.4608,0.99637 -32.04217,1.19227 -3.58135,0.19591 -15.07025,0.57692 -25.53092,0.84665 -10.46063,0.26974 -21.70801,0.70219 -24.99411,0.9609 l -5.97466,0.47042 11.82842,5.19335 11.82848,5.19331 15.00846,-0.12666 c 8.25466,-0.0697 26.7221,-0.49401 41.03874,-0.94295 z m -88.78392,-9.04983 c 0.0718,-3.13604 0.25643,-3.27501 5.27343,-3.99178 l 5.19789,-0.74263 0.75751,-7.10416 c 1.76173,-16.52209 2.05279,-21.08573 2.60809,-40.89063 0.54076,-19.27485 0.71239,-20.78674 2.32415,-20.43096 1.53037,0.33778 1.72333,1.83102 1.59836,12.3694 l -0.1421,11.9852 3.32017,-0.25851 c 4.2783,-0.33303 8.37682,-2.3391 10.4208,-5.10042 2.33829,-3.15912 2.05074,-4.73118 -0.87958,-4.80789 -3.24617,-0.0847 -6.06184,-1.67295 -7.28423,-4.10812 -0.77058,-1.53504 0.005,-3.12144 4.06873,-8.33681 9.98651,-12.81237 9.71618,-23.08019 -0.96374,-36.6192 -7.86354,-9.96852 -22.72287,-20.69127 -37.62764,-27.15268 l -5.78977,-2.50993 0.78766,-5.6363 0.78763,-5.63631 -3.76689,-0.79144 c -2.07185,-0.43527 -5.60584,-1.92439 -7.85347,-3.30903 -4.46315,-2.74948 -12.05905,-11.23061 -12.00219,-13.40087 0.0662,-2.52847 2.86001,-1.30421 4.85987,2.12972 1.09376,1.8778 3.73307,4.69202 5.86533,6.25383 4.26851,3.12659 11.79839,6.27489 12.80087,5.35216 0.35087,-0.32299 1.16899,-3.58278 1.81796,-7.24396 l 1.17995,-6.65669 3.75152,-0.21226 c 2.0634,-0.11674 3.76079,-0.56448 3.77206,-0.99504 0.0542,-2.07364 -3.7502,-12.34599 -5.87439,-15.86152 -9.16511,-15.16754 -25.99889,-19.57116 -38.75333,-10.13769 -4.35786,3.22314 -8.38819,10.03632 -9.45524,15.98388 -0.747,4.16297 0.31355,9.55214 5.52257,28.06701 4.27887,15.20851 4.48398,14.66871 -7.17569,18.88772 -39.76102,14.38731 -57.78847,30.02459 -50.66786,43.95009 4.1204,8.05809 12.58395,14.94753 29.38396,23.91891 8.90007,4.75276 10.10405,5.70884 10.04465,7.97685 -0.051,1.94518 -0.80989,2.83509 -3.09609,3.63032 -3.91389,1.36138 -3.8827,3.13541 0.10059,5.70944 4.33417,2.80084 8.23514,2.74228 11.30371,-0.16968 2.92876,-2.77922 3.58738,-8.88365 1.30294,-12.07434 -1.8448,-2.57652 -1.80239,-4.48985 0.0984,-4.44007 0.83243,0.0213 2.86223,-1.38807 4.51057,-3.13302 l 2.997,-3.17262 -4.49522,-4.17973 c -5.7023,-5.30205 -5.02106,-7.0779 2.28381,-5.9541 2.80674,0.43146 7.32362,1.94136 10.03753,3.35466 6.19459,3.22588 14.2312,10.45521 14.17118,12.74773 -0.0553,2.11536 -5.20609,6.97543 -7.33347,6.91972 -0.8468,-0.0214 -2.33033,-0.96135 -3.2967,-2.08704 -0.96637,-1.12565 -2.26655,-2.06002 -2.88923,-2.07634 -1.79016,-0.0472 -10.40089,8.87185 -12.24571,12.68379 -0.92022,1.90159 -1.94372,5.70108 -2.27417,8.44337 -2.09711,17.39518 -3.74916,35.52496 -3.2823,36.01704 0.3016,0.31777 3.21263,-0.0951 6.46885,-0.91744 5.68807,-1.43644 6.55468,-1.38417 22.0654,1.33161 8.87956,1.55471 16.31472,2.66548 16.52255,2.46829 0.20784,-0.1972 0.32345,-6.80884 0.25687,-14.69252 -0.0885,-10.4752 0.20486,-14.52376 1.08933,-15.03891 0.66578,-0.38771 1.42552,-0.47829 1.68836,-0.20129 0.26295,0.27704 0.54315,6.96922 0.62292,14.87155 0.0797,7.90231 0.29542,14.90581 0.47947,15.56333 0.31906,1.14065 3.75835,1.87673 11.42679,2.44555 3.32398,0.24656 3.50799,0.0932 3.57947,-2.98921 z M 230.78244,212.98201 c -0.77635,-2.19304 1.3923,-4.17951 2.86663,-2.62585 1.24617,1.31311 0.37524,4.27849 -1.244,4.23608 -0.5844,-0.0151 -1.31447,-0.73991 -1.62263,-1.61023 z m -49.895,135.31432 c 0.006,-0.31251 -1.28291,-1.09721 -2.86903,-1.74386 -2.65418,-1.082 -3.17718,-0.89066 -6.56513,2.40189 -4.19227,4.07426 -4.34782,4.61226 -2.09301,7.23892 1.5758,1.83564 1.81121,1.73851 6.57327,-2.71253 2.71651,-2.53894 4.94571,-4.87195 4.9539,-5.18442 z m 18.91795,-18.69802 c 2.02739,-2.2467 3.69302,-4.34557 3.70134,-4.66418 0.006,-0.3186 -0.86981,-1.16468 -1.95144,-1.88019 -2.21432,-1.4648 -4.83144,-0.44359 -6.90802,2.69548 -1.2275,1.85566 -0.71374,7.87652 0.6752,7.91295 0.43827,0.007 2.45562,-1.81735 4.48292,-4.06406 z m 15.16703,-2.44579 c 1.8395,-1.92857 1.8069,-2.05521 -1.4332,-5.57819 -4.0469,-4.40016 -13.90207,-9.80656 -18.0753,-9.91582 l -3.06705,-0.0806 3.87067,3.35248 c 2.12896,1.84382 6.4616,5.78363 9.62813,8.75503 3.16659,2.97142 6.08081,5.41103 6.47598,5.42137 0.39527,0.007 1.5656,-0.86921 2.60077,-1.95456 z M 536.10731,213.33605 c 0.4167,-1.20265 0.3627,-2.34285 -0.1161,-2.53318 -0.4808,-0.1906 -3.9701,-2.43559 -7.7548,-4.9889 -3.7843,-2.55331 -8.8784,-5.7121 -11.32,-7.01945 -2.4418,-1.30742 -4.6572,-2.65331 -4.9235,-2.99092 -0.5846,-0.74123 -5.9509,-1.95652 -5.9665,-1.35128 -10e-4,0.2347 0.4345,1.31503 0.9794,2.40049 0.7248,1.44397 1.4551,1.75117 2.7209,1.14474 1.301,-0.62318 4.6972,1.13787 13.6882,7.09804 6.577,4.35979 11.7924,8.08643 11.5898,8.28142 -0.2025,0.19502 -1.882,-0.63674 -3.7322,-1.84832 -3.7067,-2.42719 -4.6158,-2.68682 -4.6512,-1.32834 -0.029,1.0372 5.7697,5.03709 7.5486,5.20859 0.6493,0.063 1.521,-0.87022 1.9377,-2.07289 z m -15.3622,-7.95641 c 0.03,-1.12481 -8.889,-6.62457 -10.1299,-6.24676 -0.5873,0.1789 1.1103,1.78783 3.7728,3.57536 5.0659,3.40097 6.3242,3.92962 6.3571,2.6714 z m 106.8955,240.63795 c 0.034,-1.37452 0.2776,-1.93087 0.5365,-1.23637 0.2594,0.69453 0.2303,1.81916 -0.064,2.49916 -0.2953,0.68 -0.5074,0.11175 -0.4714,-1.26278 z m -0.7236,-13.60689 c 0.078,-1.16331 0.3224,-1.39392 0.6202,-0.58817 0.2697,0.72919 0.2119,1.59048 -0.1296,1.91397 -0.3408,0.32344 -0.5619,-0.27317 -0.491,-1.32583 z m 0.7887,-18.40237 c 0.18,-6.87263 0.4134,-9.67995 0.5186,-6.23853 0.1051,3.44143 -0.05,9.06446 -0.3274,12.49568 -0.2851,3.43124 -0.371,0.61552 -0.191,-6.25716 z m 0.1657,-44.51099 c 0.1734,-6.59776 0.4038,-9.16244 0.5091,-5.69944 0.1057,3.46299 -0.042,8.8611 -0.3139,11.99587 -0.2801,3.13469 -0.366,0.30138 -0.1912,-6.29634 z m -0.6199,-26.1085 c 0.078,-1.16329 0.3221,-1.3939 0.6199,-0.58815 0.2699,0.72921 0.2122,1.59046 -0.129,1.91396 -0.3412,0.32346 -0.5621,-0.27315 -0.4914,-1.32581 z m 0.6543,-14.90463 c 0.1163,-4.3985 0.3385,-6.06882 0.4879,-3.71212 0.1495,2.35675 0.055,5.95542 -0.2197,7.99699 -0.2684,2.04161 -0.3906,0.11339 -0.2722,-4.28505 z m 0.3337,-13.99606 c 0.098,-3.29863 0.3105,-4.52292 0.4886,-2.71983 0.1758,1.80259 0.1045,4.50145 -0.1665,5.99769 -0.2691,1.49588 -0.4107,0.0211 -0.3188,-3.27736 z m 0.1505,-9.99955 c 0.058,-1.64896 0.3013,-2.19687 0.5297,-1.21752 0.2282,0.97926 0.1761,2.32839 -0.1156,2.99801 -0.2916,0.66962 -0.4782,-0.13158 -0.4141,-1.78047 z m 0.01,-30.01 c 0.287,-10.99628 0.5541,-15.62728 0.594,-10.29117 0.036,5.3361 -0.2002,14.33297 -0.5236,19.99315 -0.3266,5.66014 -0.3591,1.29423 -0.072,-9.70203 z m 0.1891,-45.51065 c 0.2808,-10.72128 0.5427,-15.10346 0.582,-9.73809 0.036,5.36534 -0.1856,14.13741 -0.5102,19.49331 -0.3202,5.35598 -0.3526,0.96611 -0.072,-9.75523 z m -0.6955,-24.60998 c 0.078,-1.16326 0.3218,-1.39389 0.6197,-0.58814 0.2695,0.72919 0.2118,1.59049 -0.1296,1.91393 -0.3409,0.32351 -0.5619,-0.2731 -0.4905,-1.3258 z m 0.6761,-14.40389 c 0.1654,-6.32283 0.3957,-8.90519 0.5112,-5.73859 0.1157,3.16663 -0.024,8.33984 -0.3007,11.49609 -0.2812,3.15621 -0.3758,0.56533 -0.2109,-5.7575 z m -968.22119,-37.99037 c 2.20332,-0.098 23.36218,-0.15846 47.01966,-0.13441 23.65744,0.0236 81.72896,-0.0375 129.04778,-0.13677 47.31881,-0.0993 117.54153,-0.0476 156.0504601,0.11478 38.5089699,0.16201 96.7993499,0.33762 129.5342099,0.38912 32.73486,0.0522 74.59287,0.29547 93.01772,0.54195 30.92088,0.41345 31.61277,0.45771 8.98807,0.57309 -13.48141,0.0687 -38.23961,0.0577 -55.01819,-0.0246 -16.77863,-0.0821 -35.91066,-0.0646 -42.51563,0.0401 -6.60504,0.10438 -34.28813,0.0515 -61.51805,-0.11759 -101.37548,-0.6293 -144.0851,-0.6607 -333.10771,-0.24499 -45.35409,0.0998 -84.06087,-0.44219 -71.49833,-1.00038 z m 967.29809,24.79358 c -0.038,-0.91883 -0.3095,-2.5015 -0.5993,-3.51688 -0.5,-1.74991 -0.4705,-1.75178 0.5681,-0.0354 0.6032,0.99592 0.8729,2.57849 0.6002,3.51692 -0.4475,1.53707 -0.5037,1.54058 -0.569,0.0354 z m -6.5295,-13.5641 c -6.7058,-7.39866 -9.1945,-8.1244 -32,-9.33258 l -20.4786,-1.08489 19.2283,0.30195 c 15.9273,0.25011 19.9539,0.60752 23.4535,2.08232 4.8522,2.04465 11.1543,6.93783 12.5715,9.76066 1.3039,2.59727 0.9409,2.37141 -2.7747,-1.72742 z M 259.28897,152.52921 c 5.3654,-0.0392 14.13739,0.19031 19.49335,0.51046 5.35596,0.32011 0.96611,0.35234 -9.7552,0.0716 -10.72138,-0.28074 -15.1035,-0.54267 -9.73815,-0.58203 z m 43.06336,0.12678 c 5.39396,-0.0391 13.94102,0.18574 18.99345,0.49938 5.0524,0.31348 0.63927,0.34536 -9.80712,0.0707 -10.44641,-0.27447 -14.58031,-0.53099 -9.18633,-0.56996 z m 36.91098,-0.0315 c 4.78783,-0.0574 12.88509,0.15344 17.99387,0.46919 5.10878,0.31571 1.19152,0.36283 -8.70513,0.10473 -9.89662,-0.25817 -14.07659,-0.51641 -9.28874,-0.57401 z m 39.56325,0.0344 c 5.09052,-0.0485 13.41255,0.16973 18.49365,0.48428 5.0809,0.3146 0.9161,0.3541 -9.25542,0.0877 -10.17156,-0.26634 -14.32873,-0.52375 -9.23823,-0.572 z m 31.76295,-0.0746 c 8.8902,-0.43687 36.335,0.14791 34.7135,0.73976 -0.9561,0.34896 -10.0591,0.36955 -20.2292,0.0458 -10.17,-0.32375 -16.6879,-0.67729 -14.4843,-0.78557 z m 44.7631,0.0802 c 4.2659,-0.076 11.2385,0.10701 15.4946,0.40572 4.2562,0.29899 0.766,0.36099 -7.7561,0.13786 -8.5219,-0.22316 -12.0044,-0.46777 -7.7385,-0.54356 z m 41.0125,0.0736 c 4.2654,-0.076 11.2382,0.10701 15.4943,0.40573 4.2563,0.29895 0.766,0.36099 -7.7563,0.13785 -8.522,-0.22318 -12.004,-0.46776 -7.738,-0.54356 z m 36.561,-0.0444 c 4.5669,-0.066 11.7641,0.12349 15.9942,0.42084 4.2301,0.2978 0.4935,0.35195 -8.3035,0.12033 -8.7968,-0.23136 -12.2579,-0.47529 -7.6909,-0.54149 z"
       id="path3066"
       inkscape:connector-curvature="0"
       clip-path="url(#clipPath3071)" />
  </g>
</svg>
