<?xml version="1.0" encoding="UTF-8" standalone="no"?>
<!-- Generator: Adobe Illustrator 16.0.0, SVG Export Plug-In . SVG Version: 6.00 Build 0)  -->

<svg
   xmlns:dc="http://purl.org/dc/elements/1.1/"
   xmlns:cc="http://creativecommons.org/ns#"
   xmlns:rdf="http://www.w3.org/1999/02/22-rdf-syntax-ns#"
   xmlns:svg="http://www.w3.org/2000/svg"
   xmlns="http://www.w3.org/2000/svg"
   xmlns:sodipodi="http://sodipodi.sourceforge.net/DTD/sodipodi-0.dtd"
   xmlns:inkscape="http://www.inkscape.org/namespaces/inkscape"
   version="1.1"
   id="レイヤー_1"
   x="0px"
   y="0px"
   width="400"
   height="400"
   viewBox="0 0 399.99999 400"
   enable-background="new 0 0 128 128"
   xml:space="preserve"
   inkscape:version="0.48.4 r9939"
   sodipodi:docname="Emoji_u1f44f.svg"><metadata
     id="metadata31"><rdf:RDF><cc:Work
         rdf:about=""><dc:format>image/svg+xml</dc:format><dc:type
           rdf:resource="http://purl.org/dc/dcmitype/StillImage" /></cc:Work></rdf:RDF></metadata><defs
     id="defs29" /><sodipodi:namedview
     pagecolor="#ffffff"
     bordercolor="#666666"
     borderopacity="1"
     objecttolerance="10"
     gridtolerance="10"
     guidetolerance="10"
     inkscape:pageopacity="0"
     inkscape:pageshadow="2"
     inkscape:window-width="1920"
     inkscape:window-height="1056"
     id="namedview27"
     showgrid="false"
     fit-margin-top="0"
     fit-margin-left="0"
     fit-margin-right="0"
     fit-margin-bottom="0"
     inkscape:zoom="0.921875"
     inkscape:cx="-154.02833"
     inkscape:cy="178.33854"
     inkscape:window-x="0"
     inkscape:window-y="24"
     inkscape:window-maximized="1"
     inkscape:current-layer="レイヤー_1" /><g
     id="g3"
     style="fill:#000000;fill-opacity:1;stroke:none"
     transform="matrix(3.1446833,0,0,3.1446833,-2.7045676,-0.99937285)"><g
       id="g15"
       style="fill:#000000;fill-opacity:1;stroke:none"><path
         d="m 97.07,26.16 c 0.51,-0.23 0.87,-0.81 1.17,-1.37 0.16,-0.3 0.31,-0.59 0.46,-0.82 0.92,-1.48 1.85,-2.95 2.76,-4.43 2.08,-3.36 4.13,-6.75 6.34,-10.01 1.43,-2.1 4.41,-5.23 0.62,-6.55 -0.32,-0.11 -0.65,-0.2 -1,-0.29 -2.78,-0.73 -5.52,-1.88 -8.41,-2.19 -0.9,-0.1 -1.86,0.72 -2.06,1.57 -0.76,3.38 -0.83,6.85 -0.89,10.3 -0.06,3.24 -0.38,6.4 -0.6,9.62 0,0.04 -0.01,0.08 -0.02,0.12 -0.06,0.91 -0.19,1.98 -0.03,2.86 0.15,0.71 0.89,1.55 1.66,1.19 z"
         id="path17"
         style="fill:#000000;fill-opacity:1;stroke:none"
         inkscape:connector-curvature="0" /><path
         d="m 126.74,38.97 c -0.17,-1.05 -0.33,-2.11 -0.6,-3.14 -0.28,-1.08 -0.97,-1.75 -1.54,-2.67 -0.39,-0.61 -0.54,-0.82 -1.3,-0.73 -0.64,0.08 -1.23,0.25 -1.81,0.49 -1.85,0.76 -3.45,2.16 -5.19,3.09 -2.24,1.2 -4.29,2.75 -6.57,3.88 -1.55,0.76 -3.16,1.78 -4.54,2.78 -1.05,0.76 -0.85,2.24 0.56,2.33 2.26,0.13 4.59,-0.07 6.85,-0.07 2.15,0 4.16,-0.36 6.28,-0.54 1.8,-0.15 3.57,-0.38 5.33,-0.71 0.63,-0.12 1.38,-0.11 1.95,-0.35 1.65,-0.69 0.8,-3.05 0.58,-4.36 z"
         id="path19"
         style="fill:#000000;fill-opacity:1;stroke:none"
         inkscape:connector-curvature="0" /><path
         d="m 32.65,89 -0.18,-0.12 c -0.53,-0.28 -1.55,-0.05 -2.11,0.04 -2.67,0.4 -5.25,1.04 -7.88,1.65 -4.76,1.1 -9.53,1.88 -14.14,3.57 -1.02,0.37 -1.43,1.24 -1.41,2.1 -0.06,0.29 -0.05,0.61 0.11,0.95 1.12,2.52 2.5,9 6.31,9 1.63,0 3.39,-1.85 4.58,-2.79 0.98,-0.79 2.05,-1.46 3,-2.29 1.02,-0.89 1.9,-1.91 2.95,-2.76 2.06,-1.65 4.14,-3.28 6.13,-5 0.59,-0.52 4.15,-3.23 2.64,-4.35 z"
         id="path21"
         style="fill:#000000;fill-opacity:1;stroke:none"
         inkscape:connector-curvature="0" /><path
         d="m 43.08,102.66 c -0.81,-0.08 -1.78,1.01 -2.28,1.52 -2.93,3.03 -5.38,6.48 -7.78,9.94 -1.1,1.6 -6.23,7.1 -4.07,9.1 2.33,2.16 5.67,3.23 8.72,3.86 1.15,0.24 3.47,0.98 4.28,-0.27 0.3,-0.46 0.25,-1.34 0.36,-1.88 0.13,-0.6 0.03,-1.23 0.13,-1.83 0.15,-0.75 0.21,-1.51 0.32,-2.27 0.22,-1.62 0.32,-3.24 0.53,-4.85 0.45,-3.36 0.68,-6.75 0.73,-10.15 0.02,-0.4 0.1,-1.18 0.02,-1.86 -0.08,-0.68 -0.32,-1.25 -0.96,-1.31 z"
         id="path23"
         style="fill:#000000;fill-opacity:1;stroke:none"
         inkscape:connector-curvature="0" /><path
         d="M 107.5,56.79 C 103.27,53.77 99.15,52.39 95.42,52.64 95.4,52.25 95.39,51.86 95.35,51.48 95.25,50.36 95.07,49.24 94.84,48.13 94.1,44.47 91.01,34.33 90.5,32.41 88.93,26.45 85.78,18.88 85.33,17.38 83.28,10.37 76.59,6.73 69.42,8.75 c -2.38,0.67 -4.41,2.1 -5.88,4.13 -2.68,3.68 -3.04,8.74 -2.19,12.11 0.16,0.63 0.57,1.87 1.08,3.34 C 62.99,29.95 61,28.62 58.28,27.4 57.32,26.83 54.4,25.02 53.3,24.34 50.96,22.82 33.72,12.38 30.22,10.36 25.5,7.65 20.51,7.81 16.53,10.79 c -1.4,1.05 -2.6,2.4 -3.58,4.04 -1.59,2.67 -1.96,5.67 -1.21,8.53 -3.69,1.15 -6.99,4.35 -8.18,8.19 -1.17,3.79 -0.16,7.46 1.93,10.36 -1.98,1.66 -3.48,3.98 -4.23,6.58 -1.41,4.96 1.07,9.69 4.9,12.61 -1.22,1.77 -2,3.84 -2.2,6.03 -0.66,6.98 4.95,11.65 10.44,13.03 2.48,0.62 16.94,2.54 23.53,3.2 0,0 1.36,0.15 3.53,0.6 0.36,3.92 1.94,8.49 5.18,13.14 4.6,6.6 12.29,15.74 22.83,21.76 l 0.34,0.2 c 2.47,1.45 9.01,5.33 20.05,5.33 1.42,0 2.9,-0.06 4.36,-0.2 7.16,-0.63 17.91,-6.26 23.73,-15.45 4.91,-7.73 5.18,-17.38 5.2,-18.54 0,-0.63 -0.06,-15.71 -8.35,-26.18 -2.54,-3.21 -4.87,-5.5 -7.3,-7.23 z M 71.22,15.17 c 3.15,-0.88 6.53,0.08 7.7,4.09 0.55,1.85 2.42,7.49 4.31,13.15 0.32,0.98 2.15,7.97 2.31,8.36 1.04,2.47 1.91,5.02 2.53,7.62 0.53,2.27 0.75,4.48 0.67,6.62 -5.28,-4.83 -9.27,-7.67 -9.38,-7.74 -2.38,-1.64 -4.67,-2.83 -6.44,-3.34 -1.04,-0.3 -2.05,-0.48 -3.03,-0.58 1.61,-2.21 3.34,-3.89 2.04,-8.36 -2.04,-5.45 -3.85,-10.53 -4.12,-11.6 -0.58,-2.36 -0.08,-7.24 3.41,-8.22 z M 9.91,33.52 c 0.92,-2.95 4.38,-5.1 7.94,-3.42 3.08,1.45 20.05,9.01 25.61,11.55 -0.22,0.38 -0.45,0.77 -0.66,1.15 -1.24,2.13 -2.26,4.39 -3.05,6.72 C 32.63,47.44 15.57,41.46 13.79,40.53 11.78,39.47 8.95,36.67 9.91,33.52 z M 7.66,50.33 c 0.85,-2.98 3.6,-5.42 7.35,-4.2 2.76,0.9 15.15,4.74 23.66,7.24 -0.5,2.2 -0.79,4.45 -0.9,6.7 -0.04,0.94 -0.07,1.88 -0.05,2.83 C 32.42,61.72 13.69,57.51 12.31,57 10.17,56.19 6.79,53.42 7.66,50.33 z m 8.36,23.36 c -2.22,-0.56 -5.74,-2.54 -5.42,-5.95 0.28,-3.08 3.05,-5.95 6.9,-5.15 2.29,0.47 11.56,2.45 20.56,4.01 0.21,1.12 1.02,4.63 2.51,3.38 0.53,-0.45 0.43,-1.44 0.47,-2.07 0.07,-0.97 0.15,-1.93 0.27,-2.89 0.31,-2.8 0.82,-5.57 1.49,-8.3 0.72,-2.97 1.6,-5.89 2.61,-8.77 1.05,-3 2.24,-5.82 3.72,-8.61 0.3,-0.58 1.17,-2.28 0.6,-2.88 -0.28,-0.3 -0.7,-0.26 -1.12,-0.07 -0.81,0.35 -1.71,1.25 -2.05,1.55 -0.27,0.25 -0.53,0.53 -0.8,0.8 C 39.01,35.55 23.07,27.1 21.45,25.95 19.58,24.61 16.7,21.54 18.66,18.27 c 1.58,-2.65 4.34,-4.35 8.22,-2.12 3.3,1.9 20.52,12.34 22.81,13.81 1.45,0.89 5.35,3.31 5.55,3.4 2.76,1.22 5.47,2.58 8.09,4.06 1.1,0.62 2.3,1.14 3.23,2.02 1.25,1.2 -0.15,2.59 -0.58,3.9 0,0.02 -0.01,0.03 -0.02,0.05 -3.17,0.52 -5.74,2.2 -7.27,4.85 -2.57,0.02 -4.94,1.01 -6.88,2.86 -1.03,0.99 -3.49,3.8 -3.2,7.98 -0.57,0.34 -1.16,0.78 -1.75,1.32 -3.77,3.49 -3.75,8.75 -1.94,13.14 -0.34,0.26 -0.65,0.55 -0.96,0.87 -0.72,0.76 -1.31,1.73 -1.74,2.87 C 39.94,76.84 38.6,76.7 38.6,76.7 31.4,76 17.75,74.12 16.02,73.69 z m 96.52,31.62 c -4.5,7.09 -13.23,12 -18.88,12.5 -12.46,1.1 -19.1,-3.42 -21.03,-4.52 -9.93,-5.67 -17.11,-14.64 -20.75,-19.86 -1.99,-2.88 -3.12,-5.5 -3.67,-7.73 -0.9,-3.58 -0.34,-6.11 0.38,-6.86 l 0,0 c 1.17,-1.22 1.95,-0.34 1.95,-0.34 h 0 c 0.2,0.36 0.44,0.76 0.66,1.15 1.3,2.23 3.02,4.87 5.11,7.56 2.05,2.64 4.44,5.3 7.18,7.61 0.34,0.29 0.76,0.42 1.17,0.42 0.51,0 1.03,-0.22 1.39,-0.65 0.65,-0.77 0.54,-1.91 -0.22,-2.55 -1.74,-1.47 -3.36,-3.11 -4.82,-4.81 -1.91,-2.21 -3.57,-4.5 -4.93,-6.61 -2.89,-4.43 -4.51,-7.99 -4.54,-8.06 0,0 -3,-5.01 -0.35,-7.46 1.36,-1.27 2.23,-0.84 2.67,-0.41 l 0.33,0.41 v 0 l 0,0 c 2.07,2.59 7.19,8.94 12.45,14.93 1.62,1.85 3.26,3.66 4.83,5.32 0.35,0.38 0.82,0.56 1.3,0.56 l 0.02,0 c 0.26,0 0.51,-0.08 0.76,-0.19 0.17,-0.08 0.34,-0.17 0.48,-0.3 0.73,-0.69 0.76,-1.84 0.08,-2.57 -1.1,-1.16 -2.24,-2.4 -3.37,-3.68 -6.36,-7.12 -12.9,-15.32 -14.34,-17.14 -1.38,-2.02 -2.33,-4.27 -0.2,-6.31 2.58,-2.46 5.46,0 5.46,0 0.1,0.1 9.33,9.07 17.2,18.63 0.68,0.84 1.37,1.68 2.02,2.52 0.36,0.45 0.9,0.69 1.43,0.69 0.39,0 0.79,-0.12 1.12,-0.39 0.78,-0.62 0.92,-1.76 0.29,-2.55 -0.74,-0.95 -1.5,-1.89 -2.27,-2.83 C 74.2,63.01 65.92,54.81 64.44,53.35 64.06,52.83 63.8,52.17 64.15,51.52 c 0.35,-0.65 0.93,-1.21 1.75,-1.56 0.36,-0.15 0.76,-0.26 1.21,-0.33 1.06,-0.16 2.37,-0.07 4.01,0.4 0.79,0.23 2.45,0.98 4.6,2.47 0.1,0.06 5.28,3.76 11.58,9.92 0.51,0.51 1.04,1.02 1.57,1.57 l 3.82,4.09 c 0.17,0.18 0.33,0.38 0.49,0.56 3.18,3.64 6.35,7.75 9.05,12.26 0.34,0.57 0.94,0.88 1.56,0.88 0.32,0 0.64,-0.08 0.92,-0.26 0.85,-0.52 1.14,-1.63 0.63,-2.49 -3.25,-5.41 -7.07,-10.22 -10.83,-14.35 -0.32,-0.36 -0.65,-0.75 -0.97,-1.1 l 0.02,0 c -1.59,-2.25 -0.45,-3.91 0.88,-4.35 0.31,-0.1 0.62,-0.14 0.93,-0.19 3.26,-0.48 6.85,1.8 8.42,2.93 1.91,1.35 3.79,3.22 5.97,5.98 6.98,8.84 6.97,22.21 6.97,22.21 0,0 -0.11,8.73 -4.19,15.15 z"
         id="path25"
         style="fill:#000000;fill-opacity:1;stroke:none"
         inkscape:connector-curvature="0" /></g></g></svg>