<svg width="153" height="69" xmlns="http://www.w3.org/2000/svg">
 <metadata id="metadata8">image/svg+xml</metadata>
 <defs>
  <clipPath id="clipPath20" clipPathUnits="userSpaceOnUse">
   <path id="path22" d="m43.218598,40.19999l36,0l0,-36l-36,0l0,36z"/>
  </clipPath>
 </defs>
 <g>
  <title>background</title>
  <rect x="-1" y="-1" width="155" height="71" id="canvas_background" fill="none"/>
 </g>
 <g>
  <title>Layer 1</title>
  <metadata id="svg_8">image/svg+xmlOpenclipart2011-12-20T04:30:04A pixel-art style arrow mouse cursor. Made up of individual squares, for easy manipulationhttps://openclipart.org/detail/166356/mouse-cursor---arrow-by-hellocatfoodhellocatfoodarrowcursormousepixel</metadata>
  <g transform="matrix(1.25,0,0,-1.25,0,45) " id="g10">
   <g id="g12">
    <path id="path14" d="m49.937298,30.21279l1.948,-21.013l18.5,0l2.146,21.719l-22.594,-0.706z" fill-rule="nonzero" fill="#ccd6dd"/>
   </g>
   <g id="g16">
    <g clip-path="url(#clipPath20)" id="g18">
     <g id="g24">
      <path id="path26" d="m71.801898,20.97079l-21.477,-0.146c0,0 1.06,-10.875 3.373,-10.875l15.021,0c2.362,0 3.083,11.021 3.083,11.021" fill-rule="nonzero" fill="#e27e00"/>
     </g>
     <g id="g28">
      <path id="path30" d="m61.202498,22.76249c-5.468,0 -9.901,-0.831 -9.901,-1.855c0,-0.028 0.015,-0.055 0.022,-0.082c0.15,-0.643 2.037,-1.199 4.808,-1.51l10.345,0.023c2.661,0.315 4.459,0.86 4.605,1.487c0.007,0.027 0.022,0.054 0.022,0.082c0,1.024 -4.433,1.855 -9.901,1.855" fill-rule="nonzero" fill="#ffb900"/>
     </g>
     <g id="g32">
      <path id="path34" d="m59.614898,19.07769l1.937,-0.961l5.473,0.92l-0.565,0.302c-1.524,-0.181 -3.323,-0.287 -5.257,-0.287c-0.542,0 -1.07,0.01 -1.588,0.026" fill-rule="nonzero" fill="#f4bd61"/>
     </g>
     <g id="g36">
      <path id="path38" d="m62.218598,21.90829l-6.203,-0.833l3.599,-1.998c0.518,-0.015 1.046,-0.026 1.588,-0.026c1.935,0 3.734,0.106 5.257,0.287l-4.241,2.57z" fill-rule="nonzero" fill="#f1f2f2"/>
     </g>
     <g id="g40">
      <path id="path42" d="m61.518098,12.43959l4.439,1.36l1.068,5.237l-5.473,-0.92l-0.034,-5.677z" fill-rule="nonzero" fill="#e9ab61"/>
     </g>
     <g id="g44">
      <path id="path46" d="m59.614898,19.07769c-1.251,0.038 -2.421,0.12 -3.467,0.238l0.464,-5.265l4.906,-1.611l0.034,5.677l-1.937,0.961z" fill-rule="nonzero" fill="#e4973e"/>
     </g>
     <g id="g48">
      <path id="path50" d="m56.015498,21.07499l0.132,-1.76c1.047,-0.117 2.216,-0.199 3.467,-0.237l-3.599,1.997z" fill-rule="nonzero" fill="#d1d3d4"/>
     </g>
     <g id="g52">
      <path id="path54" d="m73.306498,32.37039c-0.649,0.048 -1.217,-0.418 -1.276,-1.064l-1.478,-16.255c-0.57,-3.085 -1.957,-4.851 -6.334,-4.851l-6,0c-4.596,0 -5.896,1.947 -6.414,5.324l-1.435,15.782c-0.059,0.646 -0.624,1.119 -1.276,1.064c-0.646,-0.059 -1.122,-0.63 -1.063,-1.277l2.005,-22.049c0.255,-1.919 1.41,-3.019 3.165,-3.019l16,0c2.535,0 3.022,1.737 3.169,3.068l2,22c0.059,0.647 -0.417,1.218 -1.063,1.277" fill-rule="nonzero" fill="#8899a6"/>
     </g>
     <g id="g56">
      <path id="path58" d="m74.418598,31.20219c0,-1.85 -4.028,-3.35 -13.2,-3.35c-9.172,0 -13.2,1.5 -13.2,3.35c0,1.851 4.028,3.35 13.2,3.35c9.172,0 13.2,-1.499 13.2,-3.35" fill-rule="nonzero" fill="#ccd6dd"/>
     </g>
     <g id="g60">
      <path id="path62" d="m73.747898,31.09749c-0.286,0.471 -0.901,0.621 -1.374,0.336c-2.333,-1.416 -8.814,-1.603 -11.121,-1.546c-0.008,0 -0.015,-0.004 -0.022,-0.004c-0.008,0 -0.014,0.004 -0.022,0.004c-2.299,-0.057 -8.785,0.129 -11.121,1.546c-0.471,0.286 -1.087,0.136 -1.373,-0.336c-0.287,-0.472 -0.136,-1.087 0.336,-1.374c2.796,-1.695 9.322,-1.842 11.495,-1.842c0.371,0 0.608,0.004 0.685,0.006c0.078,-0.002 0.315,-0.006 0.685,-0.006c2.174,0 8.7,0.147 11.495,1.842c0.473,0.287 0.623,0.902 0.337,1.374" fill-rule="nonzero" fill="#ffffff"/>
     </g>
    </g>
   </g>
  </g>
  <g id="svg_13" stroke="null">
   <g id="svg_9" transform="matrix(0.030363938048293036,0,0,0.02985225207763329,-47.20333098627407,-42.420590478283884) " stroke="null">
    <path d="m4264.454054,2071.00046l0,850.0038l99.99801,0l0,-49.99816l-0.0572,0l0.0572,-0.0357l49.999,0l0,-49.99812l49.999,0l0,-49.99812l49.99901,0l0,99.99624l49.999,0l0.73359,0l-0.73359,100.03196l49.999,0l0,49.9981l99.99798,0l0,-49.9981l49.999,0l0,-99.99626l-49.999,0l-0.73359,-0.0357l0.73359,-99.99624l-49.99897,0l0,-49.99812l200.00788,0l0,-49.99812l0,-49.99812l-49.999,0l0,0.069l-0.012,-0.069l0,-49.99812l-49.999,0l0,-49.99811l-49.999,0l0,-49.99812l-49.99897,0l0,-49.99812l-49.99901,0l0,-49.99812l-49.999,0l0,-49.99812l-49.999,0l0,-49.99812l-49.99901,0l0,-49.99812l-49.999,0l0,-49.99812l-49.999,0l0,-49.99812l-49.99901,0l0,-49.99812l-49.999,0l0.0001,-0.00003l-0.00001,0z" id="svg_11" fill="#000000" stroke="null"/>
    <path d="m4314.453934,2170.99655l0,699.97461l49.99806,0l0,-49.99804l50,0l0,-49.99805l49.99804,0l0,-50l50,0l0,50l49.99805,0l0,99.99609l49.99805,0l0,100.03125l99.99804,0l0,-99.99609l-49.99804,0l0,-100.03125l-50,0l0,-99.99805l199.99609,0l0,-49.99804l-49.99805,0l0,-49.99805l-50,0l0,-49.99805l-49.99805,0l0,-49.99804l-50,0l0,-49.99805l-49.99805,0l0,-49.99805l-49.99805,0l0,-49.99805l-50,0l0,-49.99804l-49.99804,0l0,-49.99805l-50,0l0,-49.99805l-49.99805,0z" id="svg_10" fill="#ffffff" stroke="null"/>
   </g>
  </g>
  <g id="svg_2">
   <rect id="svg_1" height="16.999959" width="78.374811" y="50.437463" x="70.312543" stroke-width="1.5" stroke="#cccccc" fill="#fff"/>
   <text fill="#000000" stroke="#000" stroke-width="0" x="73.955598" y="63.208188" id="svg_14" font-size="11" font-family="Helvetica, Arial, sans-serif" text-anchor="start" xml:space="preserve">Tumbler Glass</text>
  </g>
 </g>
</svg>