<svg width="140" height="140" xmlns="http://www.w3.org/2000/svg">

 <g>
  <title>background</title>
  <rect fill="none" id="canvas_background" height="142" width="142" y="-1" x="-1"/>
 </g>
 <g>
  <title>Layer 1</title>
  <g stroke="null" id="svg_18">
   <path stroke="null" id="svg_15" d="m138.950523,114.300351c0,12.509691 -10.292015,22.650174 -22.983509,22.650174l-91.934034,0c-12.691493,0 -22.983509,-10.140483 -22.983509,-22.650174l0,-90.600698c0,-12.509691 10.292015,-22.650174 22.983509,-22.650174l91.934034,0c12.691493,0 22.983509,10.140483 22.983509,22.650174l0,90.600698" fill="#d0d0d0"/>
   <path stroke="null" id="svg_16" d="m127.458768,99.95373c0,10.42814 -8.575147,18.876655 -19.152158,18.876655l-76.613228,0c-10.577011,0 -19.152158,-8.448515 -19.152158,-18.876655l0,-75.497561c0,-10.42814 8.575147,-18.876655 19.152158,-18.876655l76.613228,0c10.577011,0 19.152158,8.448515 19.152158,18.876655l0,75.497561z" fill="#fff"/>
   <path stroke="null" id="svg_17" d="m83.790102,98.445229l-14.038327,0l0,-52.140701c-5.129919,4.724826 -11.174582,8.219748 -18.138585,10.484766l0,-12.554992c3.663571,-1.180074 7.644315,-3.424706 11.939933,-6.720307c4.297916,-3.2956 7.244402,-7.148395 8.844054,-11.547059l11.392925,0l0,72.480558" fill="#9aa0a5"/>
  </g>
  <rect id="svg_26" height="91" width="70" y="16" x="34.5" stroke-width="17.5" stroke="#ffffff" fill="#ffffff"/>
  <g fill="#9aa0a5" stroke="null" id="svg_25">
   <g stroke="null" transform="matrix(1.339103134577674,0,0,1.12576839026289,-123.80247189234797,-97.21543691902843) " id="svg_22" fill="#94989b">
    <ellipse stroke="null" id="svg_23" ry="8.154" rx="8.093" cy="172.362491" cx="140.929582"/>
    <path stroke="null" id="svg_24" d="m160.059582,122.987491c-4.215,-4.269 -9.375,-6.435 -15.334,-6.435c-6.01,0 -11.17,2.141 -15.324,6.35c-4.213,4.213 -6.35,9.369 -6.35,15.324c0,1.197 0.971,2.168 2.168,2.168l9.753,0c1.197,0 2.167,-0.971 2.167,-2.168c0,-2.072 0.722,-3.822 2.185,-5.326c1.521,-1.52 3.288,-2.26 5.401,-2.26c2.062,0 3.804,0.74 5.324,2.26c1.521,1.523 2.262,3.264 2.262,5.326c0,2.113 -0.74,3.879 -2.238,5.381c-1.525,1.482 -3.275,2.205 -5.347,2.205l-9.753,0c-1.197,0 -2.168,0.971 -2.168,2.168l0,9.752c0,1.197 0.971,2.168 2.168,2.168l9.752,0c5.955,0 11.09,-2.111 15.238,-6.264c4.27,-4.215 6.436,-9.4 6.436,-15.41c0,-5.959 -2.141,-11.09 -6.34,-15.239"/>
   </g>
  </g>
 </g>
</svg>