<?xml version="1.0" encoding="UTF-8" standalone="no"?>
<!-- Created with Inkscape (http://www.inkscape.org/) -->

<svg
   xmlns:dc="http://purl.org/dc/elements/1.1/"
   xmlns:cc="http://creativecommons.org/ns#"
   xmlns:rdf="http://www.w3.org/1999/02/22-rdf-syntax-ns#"
   xmlns:svg="http://www.w3.org/2000/svg"
   xmlns="http://www.w3.org/2000/svg"
   xmlns:sodipodi="http://sodipodi.sourceforge.net/DTD/sodipodi-0.dtd"
   xmlns:inkscape="http://www.inkscape.org/namespaces/inkscape"
   version="1.1"
   width="304.09427"
   height="219.56055"
   id="svg2"
   xml:space="preserve"
   inkscape:version="0.48.3.1 r9886"
   sodipodi:docname="Anchor_Icon.svg"
   inkscape:export-filename="/home/barney/Desktop/anchor_logo_3-1_ratio_240x80.png"
   inkscape:export-xdpi="30"
   inkscape:export-ydpi="30"><sodipodi:namedview
     pagecolor="#ffffff"
     bordercolor="#666666"
     borderopacity="1"
     objecttolerance="10"
     gridtolerance="10"
     guidetolerance="10"
     inkscape:pageopacity="0"
     inkscape:pageshadow="2"
     inkscape:window-width="1028"
     inkscape:window-height="681"
     id="namedview18"
     showgrid="false"
     fit-margin-top="0"
     fit-margin-left="0"
     fit-margin-right="0"
     fit-margin-bottom="0"
     inkscape:zoom="1.2198138"
     inkscape:cx="185.52164"
     inkscape:cy="109.78027"
     inkscape:window-x="233"
     inkscape:window-y="48"
     inkscape:window-maximized="0"
     inkscape:current-layer="g10"
     showguides="true"><sodipodi:guide
       position="371.36815,79.520332"
       orientation="0,304.09427"
       id="guide3852" /><sodipodi:guide
       position="304.09427,0"
       orientation="-219.56055,0"
       id="guide3854" /><sodipodi:guide
       position="304.09427,219.56055"
       orientation="0,-304.09427"
       id="guide3856" /><sodipodi:guide
       position="0,219.56055"
       orientation="219.56055,0"
       id="guide3858" /></sodipodi:namedview><metadata
     id="metadata8"><rdf:RDF><cc:Work
         rdf:about=""><dc:format>image/svg+xml</dc:format><dc:type
           rdf:resource="http://purl.org/dc/dcmitype/StillImage" /><dc:title></dc:title></cc:Work></rdf:RDF></metadata><defs
     id="defs6"><clipPath
       id="clipPath18"><path
         d="m 0,0 5312,0 0,1988.59 -5312,0 L 0,0 z"
         id="path20"
         inkscape:connector-curvature="0" /></clipPath><filter
       inkscape:collect="always"
       id="filter3810"
       color-interpolation-filters="sRGB"><feGaussianBlur
         inkscape:collect="always"
         stdDeviation="5.1959258"
         id="feGaussianBlur3812" /></filter><filter
       inkscape:collect="always"
       id="filter3816"
       x="-0.16783987"
       width="1.3356797"
       y="-0.13913675"
       height="1.2782735"
       color-interpolation-filters="sRGB"><feGaussianBlur
         inkscape:collect="always"
         stdDeviation="2.9309038"
         id="feGaussianBlur3818" /></filter><filter
       inkscape:collect="always"
       id="filter3820"
       color-interpolation-filters="sRGB"><feGaussianBlur
         inkscape:collect="always"
         stdDeviation="2.9309038"
         id="feGaussianBlur3822" /></filter><filter
       inkscape:collect="always"
       id="filter3824"
       x="-0.23236552"
       width="1.464731"
       y="-0.12642062"
       height="1.2528412"
       color-interpolation-filters="sRGB"><feGaussianBlur
         inkscape:collect="always"
         stdDeviation="2.9309038"
         id="feGaussianBlur3826" /></filter><filter
       inkscape:collect="always"
       id="filter3828"
       x="-0.13676639"
       width="1.2735327"
       y="-0.11037956"
       height="1.2207592"
       color-interpolation-filters="sRGB"><feGaussianBlur
         inkscape:collect="always"
         stdDeviation="2.9309038"
         id="feGaussianBlur3830" /></filter></defs><g
     transform="matrix(1.25,0,0,-1.25,68.000002,275.36646)"
     id="g10"><path
       d="m 4.0661678,94.7719 -22.3729998,0 0,46.5381 c 0,2.967 -1.18,4.458 -3.532,4.458 -2.1,0 -3.155,-1.521 -3.155,-4.554 l 0,-46.4421 -22.372,0 0,63.7271 36.214,0 c 10.1509998,0 15.2179998,-5.539 15.2179998,-16.603 l 0,-47.1241"
       id="path3000"
       style="fill:#2e3436;fill-opacity:1;fill-rule:nonzero;stroke:none;filter:url(#filter3828)"
       inkscape:connector-curvature="0"
       transform="matrix(0.76392361,0,0,0.76392361,0.127123,31.575933)" /><path
       d="m 53.117168,149.447 c 0,2.903 -2.445,4.36 -5.465,4.36 -3.005,0 -4.507,-1.457 -4.507,-4.36 l 0,-39.4591 c 0,-3.9231 1.647,-5.8867 4.954,-5.8867 3.307,0 4.961,2.0738 4.961,6.2117 l 0,11.1261 25.772,0 0.092,-1.871 c 0,-11.1008 -3.128,-19.016 -9.202,-23.7649 -5.047,-3.9453 -11.724,-5.914 -21.606,-5.914 -8.955,0 -16.257,1.7578 -21.912,5.2531 -6.998,4.3058 -10.502,10.975 -10.502,20.0198 l 0,27.574 c 0,9.044 3.504,15.71 10.502,20.016 5.669,3.508 12.978,5.255 21.94,5.255 9.467,0 16.879,-2.04 22.241,-6.127 5.558,-4.299 8.343,-10.466 8.343,-18.484 l 0,-12.054 -25.668,0 0.057,18.105"
       id="path3008"
       style="fill:#2e3436;fill-opacity:1;fill-rule:nonzero;stroke:none;filter:url(#filter3810)"
       inkscape:connector-curvature="0" /><path
       d="m 53.215168,85.3898 0,-33.7109 30.272,0 0,55.641 c -0.888,-3.0949 -3.963,-11.0418 -9.472,-15.0949 -7.25,-5.334 -13.416,-6.75 -20.8,-6.8352"
       id="path3010"
       style="fill:#2e3436;fill-opacity:1;fill-rule:nonzero;stroke:none;filter:url(#filter3824)"
       inkscape:connector-curvature="0" /><path
       d="m 103.28017,171.23 -19.038002,0 0,42.029 -30.84,0 0,-40.195 c 5.33,-0.094 15.524,-2.135 21.905,-8.517 2.129,-2.129 4.161,-4.818 5.215,-6.785 1.635,-2.858 2.64,-6.101 3.024,-9.717 0.21,3.75 2.287,5.63 5.013,5.63 3.219,0 5.191,-2.042 5.191,-6.14 l 0,-71.2522 30.484002,0 0,72.0682 c 0,15.249 -6.981,22.879 -20.954,22.879"
       id="path3012"
       style="fill:#2e3436;fill-opacity:1;fill-rule:nonzero;stroke:none;filter:url(#filter3820)"
       inkscape:connector-curvature="0" /><path
       inkscape:connector-curvature="0"
       style="fill:#333333;fill-opacity:1;fill-rule:nonzero;stroke:none"
       id="path64"
       d="m -0.181542,108.86354 -17.782007,0 0,36.98837 c 0,2.35817 -0.937862,3.54321 -2.807225,3.54321 -1.669076,0 -2.507587,-1.20889 -2.507587,-3.61951 l 0,-36.91207 -17.781213,0 0,50.65015 28.782801,0 c 8.0679912,0 12.095231,-4.40239 12.095231,-13.19603 l 0,-37.45412" /><path
       inkscape:connector-curvature="0"
       style="fill:#333333;fill-opacity:1;fill-rule:nonzero;stroke:none"
       id="path72"
       d="m 48.646948,155.847 c 0,2.903 -2.445,4.36 -5.465,4.36 -3.005,0 -4.507,-1.457 -4.507,-4.36 l 0,-39.4591 c 0,-3.9231 1.647,-5.8867 4.954,-5.8867 3.307,0 4.961,2.0738 4.961,6.2117 l 0,11.1261 25.772,0 0.092,-1.871 c 0,-11.1008 -3.128,-19.016 -9.202,-23.7649 -5.047,-3.9453 -11.724,-5.914 -21.606,-5.914 -8.955,0 -16.257,1.7578 -21.912,5.2531 -6.998,4.3058 -10.502,10.975 -10.502,20.0198 l 0,27.574 c 0,9.044 3.504,15.71 10.502,20.016 5.669,3.508 12.978,5.255 21.94,5.255 9.467,0 16.879,-2.04 22.241,-6.127 5.558,-4.299 8.343,-10.466 8.343,-18.484 l 0,-12.054 -25.668,0 0.057,18.105" /><path
       inkscape:connector-curvature="0"
       style="fill:#333333;fill-opacity:1;fill-rule:nonzero;stroke:none"
       id="path74"
       d="m 48.744948,91.7898 0,-33.7109 30.272,0 0,55.641 c -0.888,-3.0949 -3.963,-11.0418 -9.472,-15.0949 -7.25,-5.334 -13.416,-6.75 -20.8,-6.8352" /><path
       inkscape:connector-curvature="0"
       style="fill:#333333;fill-opacity:1;fill-rule:nonzero;stroke:none"
       id="path76"
       d="m 98.809948,177.63 -19.038,0 0,42.029 -30.84,0 0,-40.195 c 5.33,-0.094 15.524,-2.135 21.905,-8.517 2.129,-2.129 4.161,-4.818 5.215,-6.785 1.635,-2.858 2.64,-6.101 3.024,-9.717 0.21,3.75 2.287,5.63 5.013,5.63 3.219,0 5.191,-2.042 5.191,-6.14 l 0,-71.2522 30.484002,0 0,72.0682 c 0,15.249 -6.981,22.879 -20.954002,22.879" /><path
       d="m 175.72956,129.30149 -17.76,0 0,10.274 c 0,2.161 -1.071,3.238 -3.193,3.238 -2.129,0 -3.197,-1.085 -3.197,-3.255 l 0,-37.1688 -17.76,0 0,50.5558 20.957,0 c 5.789,0 10.511,-1.132 14.171,-3.392 4.526,-2.777 6.782,-7.088 6.782,-12.929 l 0,-7.323"
       id="path3004"
       style="fill:#2e3436;fill-opacity:1;fill-rule:nonzero;stroke:none;filter:url(#filter3816)"
       inkscape:connector-curvature="0" /><path
       inkscape:connector-curvature="0"
       style="fill:#333333;fill-opacity:1;fill-rule:nonzero;stroke:none"
       id="path68"
       d="m 171.25933,135.70149 -17.76,0 0,10.274 c 0,2.161 -1.071,3.238 -3.193,3.238 -2.129,0 -3.197,-1.085 -3.197,-3.255 l 0,-37.1688 -17.76,0 0,50.5558 20.957,0 c 5.789,0 10.511,-1.132 14.171,-3.392 4.526,-2.777 6.782,-7.088 6.782,-12.929 l 0,-7.323" /></g></svg>