<svg width="64" height="64" xmlns="http://www.w3.org/2000/svg">

 <g>
  <title>background</title>
  <rect fill="none" id="canvas_background" height="402" width="582" y="-1" x="-1"/>
 </g>
 <g>
  <title>Layer 1</title>
  <path id="svg_1" d="m62,52c0,5.523 -4.478,10 -10,10l-40,0c-5.522,0 -10,-4.477 -10,-10l0,-40c0,-5.523 4.478,-10 10,-10l40,0c5.522,0 10,4.477 10,10l0,40" fill="#d0d0d0"/>
  <path id="svg_2" d="m57,45.666c0,4.604 -3.731,8.334 -8.333,8.334l-33.334,0c-4.602,0 -8.333,-3.73 -8.333,-8.334l0,-33.332c0,-4.604 3.731,-8.334 8.333,-8.334l33.334,0c4.602,0 8.333,3.73 8.333,8.334l0,33.332z" fill="#fff"/>
  <g id="svg_11">
   <path id="svg_3" d="m41.276958,12.875044c2.983,0 5.315,1.082 6.996,3.25c2,2.564 3,6.818 3,12.762c0,5.928 -1.01,10.189 -3.02,12.783c-1.667,2.137 -3.992,3.205 -6.975,3.205c-2.997,0 -5.414,-1.172 -7.248,-3.516c-1.834,-2.345 -2.752,-6.523 -2.752,-12.537c0,-5.9 1.01,-10.146 3.02,-12.74c1.667,-2.137 3.992,-3.207 6.975,-3.207m0,4.98c-0.715,0 -1.352,0.232 -1.912,0.695s-0.994,1.293 -1.303,2.49c-0.405,1.553 -0.608,4.168 -0.608,7.846c0,3.676 0.182,6.203 0.546,7.578c0.363,1.375 0.822,2.291 1.377,2.746c0.553,0.457 1.186,0.684 1.9,0.684s1.352,-0.23 1.912,-0.693c0.561,-0.465 0.994,-1.295 1.303,-2.492c0.405,-1.539 0.608,-4.146 0.608,-7.822c0,-3.678 -0.182,-6.203 -0.546,-7.58c-0.363,-1.373 -0.822,-2.293 -1.377,-2.756c-0.552,-0.463 -1.185,-0.696 -1.9,-0.696" fill="#9aa0a5"/>
   <path stroke="null" id="svg_9" d="m25.374497,44.134002l-5.517903,0l0,-22.801003c-2.016365,2.066155 -4.39228,3.594476 -7.12955,4.584963l0,-5.490268c1.440003,-0.516044 3.004673,-1.497616 4.693108,-2.938774c1.689338,-1.441158 2.847484,-3.125976 3.476243,-5.049501l4.478102,0l0,31.695573" fill="#9aa0a5"/>
  </g>
 </g>
</svg>