<?xml version="1.0" encoding="UTF-8" standalone="no"?>
<!-- Created with Inkscape (http://www.inkscape.org/) -->

<svg
   xmlns:dc="http://purl.org/dc/elements/1.1/"
   xmlns:cc="http://creativecommons.org/ns#"
   xmlns:rdf="http://www.w3.org/1999/02/22-rdf-syntax-ns#"
   xmlns:svg="http://www.w3.org/2000/svg"
   xmlns="http://www.w3.org/2000/svg"
   xmlns:sodipodi="http://sodipodi.sourceforge.net/DTD/sodipodi-0.dtd"
   xmlns:inkscape="http://www.inkscape.org/namespaces/inkscape"
   width="800"
   height="400"
   id="svg3544"
   version="1.1"
   inkscape:version="0.48.4 r9939"
   sodipodi:docname="hatrack.svg">
  <defs
     id="defs3546" />
  <sodipodi:namedview
     id="base"
     pagecolor="#ffffff"
     bordercolor="#666666"
     borderopacity="1.0"
     inkscape:pageopacity="0.0"
     inkscape:pageshadow="2"
     inkscape:zoom="0.49497475"
     inkscape:cx="-0.60220293"
     inkscape:cy="295.46597"
     inkscape:document-units="px"
     inkscape:current-layer="layer1"
     showgrid="false"
     fit-margin-top="0"
     fit-margin-left="0"
     fit-margin-right="0"
     fit-margin-bottom="0"
     inkscape:window-width="1471"
     inkscape:window-height="802"
     inkscape:window-x="0"
     inkscape:window-y="250"
     inkscape:window-maximized="0" />
  <metadata
     id="metadata3549">
    <rdf:RDF>
      <cc:Work
         rdf:about="">
        <dc:format>image/svg+xml</dc:format>
        <dc:type
           rdf:resource="http://purl.org/dc/dcmitype/StillImage" />
        <dc:title />
      </cc:Work>
    </rdf:RDF>
  </metadata>
  <g
     inkscape:label="Layer 1"
     inkscape:groupmode="layer"
     id="layer1"
     transform="translate(-9.3140936,-160.9156)">
    <g
       id="g4023"
       transform="matrix(1.1092782,0,0,1.1092782,-242.75239,78.670319)"
       style="stroke-width:2.02757621;stroke-miterlimit:4;stroke-dasharray:none">
      <path
         style="fill:none;stroke:#211e1e;stroke-width:2.70446134;stroke-linecap:round;stroke-linejoin:round;stroke-miterlimit:4;stroke-opacity:1;stroke-dasharray:none"
         d="m 408.23012,242.10643 10.10743,-1.50391 m -43.37402,-4.15039 11.93847,-1.75294 m -44.79492,-3.833 11.92872,-1.72851 m -44.34082,-3.77443 11.90429,-1.7041 m 112.13867,18.23732 -0.4541,0.65917 -0.71289,1.34766 -0.57618,1.49902 -0.41503,1.64062 -0.24414,1.70411 -0.0781,1.7871 0.0927,1.81153 0.27344,1.78711 0.41504,1.74316 0.59081,1.68458 0.72755,1.54785 0.86425,1.43066 0.98145,1.24511 1.08399,1.03517 1.17675,0.83496 1.2207,0.5957 1.25977,0.32715 1.25488,0.0684 1.00586,-0.16113 m -0.42969,0.0927 14.15528,-2.20215 m -11.91406,-16.93848 0.36621,0.625 0.625,1.32813 0.50781,1.42577 0.34668,1.52344 0.18555,1.57227 0.0195,1.54297 -0.11713,1.52343 -0.29785,1.4209 -0.4248,1.29883 -0.56641,1.13281 -0.66894,0.94726 -0.76172,0.73732 -0.83008,0.53222 -0.88867,0.29785 -0.49804,0.0489 m -17.00196,-31.26465 1.13281,0.2295 2.1875,0.625 2.17285,0.85448 2.1338,1.1084 2.0996,1.34767 2.04102,1.56737 1.98242,1.792 1.91406,2.00683 1.82617,2.1875 1.72852,2.40235 0.78613,1.18652 m 11.94824,16.94824 0.18555,-0.0341 1.16699,-0.43945 1.08399,-0.6836 0.99121,-0.89843 0.88867,-1.1084 0.74707,-1.28907 0.61036,-1.47948 0.4541,-1.5918 0.28809,-1.7041 0.11225,-1.77735 -0.044,-1.80175 -0.22949,-1.79688 -0.39063,-1.77735 -0.55663,-1.68456 -0.70313,-1.5918 -0.72754,-1.2793 m -19.33106,-0.7959 -6.24511,0.93262 m 25.57617,-0.13672 -0.92286,-1.37206 -1.80175,-2.49024 -1.91406,-2.29981 -2.00684,-2.0996 -2.08496,-1.87989 -2.1582,-1.68458 -2.2168,-1.43066 -2.26074,-1.19629 -2.30469,-0.97167 -2.30957,-0.69336 -1.82129,-0.39063 m -16.66016,4.75098 2.63184,0.43945 m -5.40039,0.0244 0,3.32031 m 0,0 -0.0195,2.07519 -0.16114,3.93555 -0.33691,3.87695 -0.49316,3.81836 -0.64942,3.71583 -0.83008,3.63281 -0.95703,3.50585 -1.11816,3.37891 -1.26954,3.24219 -1.39649,3.08105 -1.5332,2.91993 -1.66015,2.72948 -1.77735,2.54884 -1.88965,2.34375 -2.01171,2.14844 -2.08496,1.91406 -2.18261,1.68456 -2.26075,1.47462 -1.09375,0.60058"
         id="path3395"
         inkscape:connector-curvature="0" />
      <path
         style="fill:none;stroke:#211e1e;stroke-width:2.70446134;stroke-linecap:round;stroke-linejoin:round;stroke-miterlimit:4;stroke-opacity:1;stroke-dasharray:none"
         d="m 293.15201,208.25876 125.06835,20.90333 m 19.81934,-4.22364 -131.34765,-22.37792"
         id="path3397"
         inkscape:connector-curvature="0" />
      <path
         style="fill:none;stroke:#211e1e;stroke-width:2.70446134;stroke-linecap:round;stroke-linejoin:round;stroke-miterlimit:4;stroke-opacity:1;stroke-dasharray:none"
         d="m 409.77797,286.90623 1.28907,-0.72266 2.35352,-1.53808 2.28515,-1.7627 2.19239,-1.99707 2.08984,-2.19238 1.96777,-2.42187 1.87013,-2.63184 1.74316,-2.80274 1.60156,-2.9834 1.47949,-3.16406 1.33789,-3.31055 1.17676,-3.44726 0.75195,-2.583 m 2.57325,-13.79884 0.23925,-2.55859 0.20507,-3.78419"
         id="path3399"
         inkscape:connector-curvature="0" />
      <path
         style="fill:none;stroke:#211e1e;stroke-width:2.70446134;stroke-linecap:round;stroke-linejoin:round;stroke-miterlimit:4;stroke-opacity:1;stroke-dasharray:none"
         d="m 394.87075,286.10057 -92.65136,49.13086 m 14.83398,0.66894 92.7246,-49.0039"
         id="path3401"
         inkscape:connector-curvature="0" />
      <path
         style="fill:none;stroke:#211e1e;stroke-width:2.70446134;stroke-linecap:round;stroke-linejoin:round;stroke-miterlimit:4;stroke-opacity:1;stroke-dasharray:none"
         d="m 297.30728,404.47947 0.32227,0.8545 0.69335,1.51855 0.83985,1.38672 0.94726,1.2207 1.03516,1.04004 1.12305,0.80566 1.17187,0.58105 1.20117,0.32228 1.20118,0.0684 0.71289,-0.11712 m -0.0684,0.0489 13.70605,-2.40235 m -3.80859,-24.89257 -13.70117,2.3291"
         id="path3403"
         inkscape:connector-curvature="0" />
      <path
         style="fill:none;stroke:#211e1e;stroke-width:2.70446134;stroke-linecap:round;stroke-linejoin:round;stroke-miterlimit:4;stroke-opacity:1;stroke-dasharray:none"
         d="m 303.0983,390.38279 0.83007,-0.0489 0.93262,0.18553 0.92285,0.42969 0.88867,0.6543 0.83008,0.86426 0.76172,1.0498 0.66895,1.22559 0.55175,1.34766 0.41504,1.44532 0.27832,1.51855 0.14161,1.52343 -0.0391,1.49903 -0.1709,1.44531 -0.32227,1.32324 -0.46387,1.20117 -0.5664,1.02539 -0.6543,0.82031 -0.7373,0.625 -0.81055,0.41504 -0.36621,0.0781"
         id="path3405"
         inkscape:connector-curvature="0" />
      <path
         style="fill:none;stroke:#211e1e;stroke-width:2.70446134;stroke-linecap:round;stroke-linejoin:round;stroke-miterlimit:4;stroke-opacity:1;stroke-dasharray:none"
         d="m 302.21939,335.23143 -0.87891,0.49316 -1.56738,1.11816 -1.47461,1.32813 -1.3623,1.54785 -1.26954,1.75292 -1.15234,1.92384 -0.95703,1.99706 -0.12695,0.27833 m 8.26172,41.89452 -0.0732,2.41212 m 18.15918,19.87792 0.92285,-0.15136 1.08398,-0.42969 1.02539,-0.66895 0.93262,-0.86425 0.83496,-1.08399 0.68848,-1.2793 0.5664,-1.43066 0.41504,-1.56737 0.25391,-1.66505 0.0928,-1.72852 -0.0781,-1.75292 -0.23438,-1.7627 -0.39062,-1.71875 -0.53223,-1.65039 -0.69336,-1.54785 -0.80566,-1.41601 -0.92285,-1.25 -1.02539,-1.08399 -1.1084,-0.8545 -1.16699,-0.62011 -1.19629,-0.37109 -1.20118,-0.11237 -0.8789,0.1025 m -22.81738,8.68652 3.76464,10.84473 m -6.79687,-29.02344 0.0244,1.55762 0.17089,2.96387 0.3125,2.97363 0.47364,2.94434 0.63476,2.90526 0.77149,2.85157 0.64453,1.98242"
         id="path3407"
         inkscape:connector-curvature="0" />
      <path
         style="fill:none;stroke:#211e1e;stroke-width:2.70446134;stroke-linecap:round;stroke-linejoin:round;stroke-miterlimit:4;stroke-opacity:1;stroke-dasharray:none"
         d="m 290.5104,186.22263 0,189.2334"
         id="path3409"
         inkscape:connector-curvature="0" />
      <path
         style="fill:none;stroke:#211e1e;stroke-width:2.70446134;stroke-linecap:round;stroke-linejoin:round;stroke-miterlimit:4;stroke-opacity:1;stroke-dasharray:none"
         d="m 306.76529,359.09862 0.0195,-1.36232 0.16601,-2.56347 0.30762,-2.49024 0.46387,-2.4121 0.61035,-2.29492 0.76172,-2.16798 0.87891,-2.00684 1.01074,-1.86035 1.12304,-1.66991 1.23047,-1.47461 1.31836,-1.26954 1.40625,-1.04004 0.99121,-0.58593 m -8.63769,50.37597 -0.0586,-0.20996 -0.625,-2.7539 -0.45899,-2.80761 -0.32226,-2.82715 -0.16602,-2.82228 -0.0195,-1.52344"
         id="path3411"
         inkscape:connector-curvature="0" />
      <path
         style="fill:none;stroke:#211e1e;stroke-width:2.70446134;stroke-linecap:round;stroke-linejoin:round;stroke-miterlimit:4;stroke-opacity:1;stroke-dasharray:none"
         d="m 306.76529,332.81932 0,-108.45704"
         id="path3413"
         inkscape:connector-curvature="0" />
      <path
         style="fill:none;stroke:#211e1e;stroke-width:2.70446134;stroke-linecap:round;stroke-linejoin:round;stroke-miterlimit:4;stroke-opacity:1;stroke-dasharray:none"
         d="m 306.76529,202.30661 0.083,-17.60253 m -0.083,188.62792 0,-14.23338 m 582.85643,-188.47169 10.08302,-1.49903"
         id="path3415"
         inkscape:connector-curvature="0" />
      <path
         style="fill:none;stroke:#211e1e;stroke-width:2.70446134;stroke-linecap:round;stroke-linejoin:round;stroke-miterlimit:4;stroke-opacity:1;stroke-dasharray:none"
         d="m 915.43716,170.07518 -0.46387,0.60057 -0.71289,1.23536 -0.0244,0.0586"
         id="path3417"
         inkscape:connector-curvature="0" />
      <path
         style="fill:none;stroke:#211e1e;stroke-width:2.70446134;stroke-linecap:round;stroke-linejoin:round;stroke-miterlimit:4;stroke-opacity:1;stroke-dasharray:none"
         d="m 916.70669,188.11716 0.16113,0.19532 1.08399,0.95702 1.15234,0.74219 1.20117,0.52735 1.24512,0.30274 1.25,0.0684 1.12793,-0.18554 m -0.4834,0.11712 11.60157,-1.77735 m -9.29688,-15.83007 0.37109,0.5664 0.62012,1.21094 0.50782,1.31836 0.34667,1.38184 0.18555,1.43066 0.0244,1.43066 -0.13673,1.38184 -0.27831,1.31836 -0.43945,1.19629 -0.57618,1.04004 -0.69336,0.89843 -0.78614,0.69337 -0.8496,0.4834 -0.92285,0.30273 -0.27832,0.01 m -17.1875,-28.48145 1.12792,0.18555 2.19239,0.55177 2.19239,0.76171 2.14355,0.99121 2.12402,1.22559 2.05567,1.40625 2.00683,1.63574 1.91407,1.81152 1.82128,1.99708 1.75293,2.18261 0.76172,1.06934 m 9.78515,15.72265 0.0684,-0.01 1.15235,-0.40039 1.08397,-0.625 0.99122,-0.82031 0.87891,-1.04004 0.76171,-1.18653 0.5957,-1.34766 0.46388,-1.47949 0.30273,-1.55761 0.11225,-1.62597 -0.0489,-1.66017 -0.20509,-1.66015 -0.39062,-1.61621 -0.55664,-1.54297 -0.68848,-1.45508 -0.78613,-1.25489"
         id="path3419"
         inkscape:connector-curvature="0" />
      <path
         style="fill:none;stroke:#211e1e;stroke-width:2.70446134;stroke-linecap:round;stroke-linejoin:round;stroke-miterlimit:4;stroke-opacity:1;stroke-dasharray:none"
         d="m 922.21939,168.86424 -6.31837,0.93261"
         id="path3421"
         inkscape:connector-curvature="0" />
      <path
         style="fill:none;stroke:#211e1e;stroke-width:2.70446134;stroke-linecap:round;stroke-linejoin:round;stroke-miterlimit:4;stroke-opacity:1;stroke-dasharray:none"
         d="m 939.27016,169.67478 -0.89844,-1.25977 -1.82128,-2.26073 -1.91894,-2.0752 -2.00684,-1.9043 -2.09961,-1.70898 -2.14355,-1.51367 -2.2168,-1.28907 -2.26074,-1.05957 -2.30469,-0.85449 -2.30957,-0.625 -1.8457,-0.33204 m -23.18848,36.73829 -1.26465,2.583 -1.54785,2.7002 -1.67968,2.53906 -1.77735,2.36329 -1.91895,2.18261 -2.00683,1.99708 -2.12402,1.7871 -2.1875,1.5918 -2.28517,1.38184 -1.05956,0.55663 M 917.444,154.79196 785.83755,136.43748 m 103.25195,75.67382 1.29395,-0.66894 2.35351,-1.44043 2.28516,-1.65039 2.1875,-1.8457 2.0996,-2.05566 1.98732,-2.26075 1.86523,-2.42188 1.75782,-2.60742 1.61132,-2.75879 1.47949,-2.91504 0.94239,-2.19237 m 4.66308,-17.23634 0.0928,-0.62011 0.39063,-3.64747 0.22949,-3.6914 0.0244,-1.5918 m -37.94921,48.70605 -93.24219,46.45021 m 12.67578,0.80077 93.25195,-46.35254 m -108.14453,113.79883 0.12695,0.15137 1.04004,0.92285 1.11816,0.72265 1.15235,0.50782 1.19629,0.29297 1.18164,0.044 0.16113,-0.0244 m 8.28125,-24.93652 -11.60645,1.958 m 3.83302,22.91993 11.60156,-2.0166 m -15.86914,-68.78906 -0.87891,0.47362 -1.56739,1.04005 -1.47949,1.24511 -1.38183,1.43067 -1.26953,1.62597 -1.14259,1.78711 -0.96678,1.8457 -0.12697,0.26857 m 8.30079,38.71093 0.13184,1.7041 m 16.333,18.6084 0.40527,-0.0684 1.09375,-0.39063 1.01563,-0.625 0.93262,-0.81543 0.82032,-1.00585 0.71288,-1.17677 0.55664,-1.32812 0.41504,-1.44043 0.25391,-1.53321 0.0927,-1.60156 -0.0732,-1.6162 -0.2246,-1.61621 -0.39551,-1.58204 -0.54199,-1.50879 -0.6836,-1.4209 -0.80566,-1.30371 -0.93261,-1.12793 -1.0254,-0.97167 -1.09863,-0.78125 -1.16211,-0.55665 -1.18164,-0.32226 -0.93262,-0.0927 m -24.96102,-182.88573 0,26.48925 m 0,39.16016 0,7.02636 m 14.04785,86.65528 0.0244,-1.24511 0.16113,-2.35352 0.32226,-2.30957 0.46388,-2.21191 0.62011,-2.13379 0.76172,-1.99708 0.88867,-1.87988 1.0254,-1.71875 1.13281,-1.55762 1.24511,-1.37207 1.33789,-1.20116 1.43066,-0.99122 0.98145,-0.52735 m -8.73535,46.49903 -0.044,-0.20019 -0.62011,-2.53419 -0.48829,-2.56347 -0.32226,-2.60743 -0.16113,-2.59277 -0.0244,-1.38671 m 0,0 0,-13.11524 m 0,-23.44238 0,-48.39844 m 0,-16.91406 0,-7.01172"
         id="path3423"
         inkscape:connector-curvature="0" />
      <path
         style="fill:none;stroke:#211e1e;stroke-width:2.70446134;stroke-linecap:round;stroke-linejoin:round;stroke-miterlimit:4;stroke-opacity:1;stroke-dasharray:none"
         d="m 785.44204,145.13376 0,-2.60253"
         id="path3425"
         inkscape:connector-curvature="0" />
      <path
         style="fill:none;stroke:#211e1e;stroke-width:2.70446134;stroke-linecap:round;stroke-linejoin:round;stroke-miterlimit:4;stroke-opacity:1;stroke-dasharray:none"
         d="m 785.44204,135.58299 0,-16.39161"
         id="path3427"
         inkscape:connector-curvature="0" />
      <path
         style="fill:none;stroke:#211e1e;stroke-width:2.70446134;stroke-linecap:round;stroke-linejoin:round;stroke-miterlimit:4;stroke-opacity:1;stroke-dasharray:none"
         d="m 461.18911,257.53612 464.02833,-70.72267 m -1.51857,-16.25489 -464.82421,69.43361 M 325.45181,404.90428 384.4899,394.6699 m 13.07129,-2.27051 73.00781,-12.65625"
         id="path3429"
         inkscape:connector-curvature="0" />
      <path
         style="fill:none;stroke:#211e1e;stroke-width:2.70446134;stroke-linecap:round;stroke-linejoin:round;stroke-miterlimit:4;stroke-opacity:1;stroke-dasharray:none"
         d="m 483.32779,377.53123 70.87402,-12.2998 m 12.46094,-2.16798 68.81835,-11.92382 m 12.15821,-2.11426 66.88476,-11.5918 m 11.87989,-2.06543 62.66113,-10.86426 m -2.67578,-15.74706 -62.63672,10.67871 m -11.92872,2.03125 -66.82616,11.39647 m -12.20215,2.08985 -68.78906,11.7334 m -12.50489,2.11914 -70.8252,12.08985"
         id="path3431"
         inkscape:connector-curvature="0" />
      <path
         style="fill:none;stroke:#211e1e;stroke-width:2.70446134;stroke-linecap:round;stroke-linejoin:round;stroke-miterlimit:4;stroke-opacity:1;stroke-dasharray:none"
         d="m 467.89321,363.06345 -72.97362,12.46094 m -13.10548,2.22656 -58.94531,10.04395"
         id="path3433"
         inkscape:connector-curvature="0" />
      <path
         style="fill:none;stroke:#211e1e;stroke-width:2.70446134;stroke-linecap:round;stroke-linejoin:round;stroke-miterlimit:4;stroke-opacity:1;stroke-dasharray:none"
         d="m 389.89029,232.2529 12.91992,-1.89452"
         id="path3435"
         inkscape:connector-curvature="0" />
      <path
         style="fill:none;stroke:#211e1e;stroke-width:2.70446134;stroke-linecap:round;stroke-linejoin:round;stroke-miterlimit:4;stroke-opacity:1;stroke-dasharray:none"
         d="m 856.43325,153.62498 -452.6123,65.41015"
         id="path3437"
         inkscape:connector-curvature="0" />
      <path
         style="fill:none;stroke:#211e1e;stroke-width:2.70446134;stroke-linecap:round;stroke-linejoin:round;stroke-miterlimit:4;stroke-opacity:1;stroke-dasharray:none"
         d="m 324.52896,221.25682 12.25098,-1.73829"
         id="path3439"
         inkscape:connector-curvature="0" />
      <path
         style="fill:none;stroke:#211e1e;stroke-width:2.70446134;stroke-linecap:round;stroke-linejoin:round;stroke-miterlimit:4;stroke-opacity:1;stroke-dasharray:none"
         d="M 790.77407,144.38669 339.05044,207.99998"
         id="path3441"
         inkscape:connector-curvature="0" />
      <path
         style="fill:none;stroke:#211e1e;stroke-width:2.70446134;stroke-linecap:round;stroke-linejoin:round;stroke-miterlimit:4;stroke-opacity:1;stroke-dasharray:none"
         d="m 356.9899,226.7158 12.58789,-1.81152"
         id="path3443"
         inkscape:connector-curvature="0" />
      <path
         style="fill:none;stroke:#211e1e;stroke-width:2.70446134;stroke-linecap:round;stroke-linejoin:round;stroke-miterlimit:4;stroke-opacity:1;stroke-dasharray:none"
         d="m 823.40591,148.97654 -451.88965,64.46289 m 81.86524,19.94141 437.94921,-64.87305 m -1.47949,-10.2002 -453.61328,66.33301"
         id="path3445"
         inkscape:connector-curvature="0" />
      <path
         style="fill:none;stroke:#211e1e;stroke-width:2.70446134;stroke-linecap:round;stroke-linejoin:round;stroke-miterlimit:4;stroke-opacity:1;stroke-dasharray:none"
         d="m 703.40102,357.61912 0.0244,0.97168 0.16114,1.8457 0.32226,1.82129 0.4834,1.77734 0.625,1.70411 0.76172,1.60644 0.89844,1.48926 1.01563,1.32324 1.10838,1.167 1.18653,0.96679 1.25977,0.77637 1.17675,0.49316 m 3.80372,0.33692 9.3457,-1.6748 m -3.18359,-10.44923 -0.0684,0.87403 -0.20996,1.61621 -0.38086,1.54785 -0.51758,1.40625 -0.63476,1.26952 -0.76172,1.1084 -0.86425,0.91798 -0.94727,0.74219 -1.01562,0.51757 -0.45899,0.12695 m -7.66114,-52.48535 -0.0928,0.01 -1.03515,0.39063 -0.97168,0.61523 -0.87402,0.80567 -0.77637,0.99121 -0.23925,0.43945 m 4.43847,17.22169 0.61523,0.24413 1.12794,0.27344 1.13281,0.0244 0.9082,-0.16113 m -0.40528,0.11713 9.3457,-1.64063 m -3.48143,-21.01562 -9.32129,1.59178"
         id="path3447"
         inkscape:connector-curvature="0" />
      <path
         style="fill:none;stroke:#211e1e;stroke-width:2.70446134;stroke-linecap:round;stroke-linejoin:round;stroke-miterlimit:4;stroke-opacity:1;stroke-dasharray:none"
         d="m 709.30922,321.21287 0.38087,-0.0879 0.93262,0 0.94726,0.22949 0.93262,0.45899 0.88867,0.65917 0.83008,0.86426 0.73731,1.01563 0.64941,1.17676 0.50781,1.27929 0.38085,1.37207 0.23927,1.40625 0.0732,1.4209 -0.0732,1.39649 -0.22949,1.31348 -0.36621,1.20117 -0.50782,1.08398 -0.61523,0.89843 -0.70313,0.73732 -0.78125,0.53222 -0.71777,0.27831"
         id="path3449"
         inkscape:connector-curvature="0" />
      <path
         style="fill:none;stroke:#211e1e;stroke-width:2.70446134;stroke-linecap:round;stroke-linejoin:round;stroke-miterlimit:4;stroke-opacity:1;stroke-dasharray:none"
         d="m 729.04556,370.56345 0.24414,-0.18555 0.99121,-1.01562 0.87403,-1.19629 0.7666,-1.37695 0.5957,-1.50879 0.46386,-1.63575 0.29786,-1.73338 0.1416,-1.70412 m -13.22266,8.83302 -0.62011,-0.47364 -1.03028,-0.9912 -0.94239,-1.167 -0.84472,-1.333 -0.7373,-1.45509 -0.60059,-1.56737 -0.47364,-1.64063 -0.32226,-1.70899 -0.1709,-1.7041 -0.0244,-0.98145 m 7.47558,-17.2705 0.71289,-0.13672 1.04004,-0.41504 0.95704,-0.64454 0.86425,-0.83495 0.75196,-1.01075 0.63476,-1.20117 0.46875,-1.31835 0.33691,-1.4502 0.16114,-1.49903 0,-1.57226 -0.16114,-1.56739 -0.32226,-1.5332 -0.4834,-1.48926 -0.625,-1.38182 -0.75195,-1.28419 -0.86426,-1.11816 -0.97656,-0.95703 -1.05469,-0.74707 -1.10351,-0.54199 -1.14258,-0.3125 -1.13281,-0.0684 -0.42481,0.0684 m -15.39063,21.6162 0,18.27149 m 11.03028,-1.60157 0,-15.94237 m -90.06837,31.51366 0.0195,0.98145 0.16602,1.87011 0.33203,1.84572 0.47363,1.79687 0.63476,1.73339 0.75684,1.63575 0.88867,1.49902 1.01563,1.3623 1.1084,1.17677 1.20117,0.99121 1.24512,0.78612 1.31836,0.55177 1.31347,0.32226 1.31348,0.0976 1.29395,-0.16602 0.0439,-0.0195 m -0.28808,0.0684 9.60937,-1.7334 m -3.47167,-10.542 -0.0586,0.87403 -0.21974,1.66504 -0.38085,1.54297 -0.50781,1.43066 -0.64454,1.29395 -0.75195,1.13282 -0.86426,0.91796 -0.93261,0.74219 -1.02539,0.52735 -0.48829,0.1416 m 15.77638,-12.23145 -9.59961,1.70898 m -13.78907,-42.74902 -0.1025,0.0195 -1.04981,0.39551 -0.96679,0.62011 -0.87891,0.81055 -0.76171,1.01563 -0.25391,0.43457 m 4.44336,17.48047 0.61035,0.24902 1.12792,0.27833 1.14259,0.0341 0.88866,-0.16112 m -0.38085,0.0927 9.60938,-1.66015 m -3.48145,-21.31837 -9.59961,1.63575"
         id="path3451"
         inkscape:connector-curvature="0" />
      <path
         style="fill:none;stroke:#211e1e;stroke-width:2.70446134;stroke-linecap:round;stroke-linejoin:round;stroke-miterlimit:4;stroke-opacity:1;stroke-dasharray:none"
         d="m 630.29067,334.67478 0.3711,-0.0879 0.92285,0 0.94238,0.23927 0.9375,0.46386 0.88867,0.66406 0.83008,0.87891 0.73731,1.04004 0.63476,1.18653 0.51758,1.3037 0.38086,1.38672 0.22949,1.43066 0.083,1.4502 -0.0684,1.41113 -0.23437,1.32325 -0.36621,1.23535 -0.50782,1.08399 -0.60058,0.92285 -0.71777,0.7373 -0.77148,0.53222 -0.72267,0.29785"
         id="path3453"
         inkscape:connector-curvature="0" />
      <path
         style="fill:none;stroke:#211e1e;stroke-width:2.70446134;stroke-linecap:round;stroke-linejoin:round;stroke-miterlimit:4;stroke-opacity:1;stroke-dasharray:none"
         d="m 647.08755,386.33005 1.18652,-0.38086 1.16212,-0.5957 1.09862,-0.83007 0.99121,-1.01563 0.87892,-1.22559 0.74706,-1.38183 0.61524,-1.5332 0.45898,-1.65039 0.29785,-1.75294 0.1416,-1.7334 m -13.38378,8.78906 -0.47364,-0.34178 -1.01074,-1.01563 -0.94726,-1.17676 -0.83985,-1.35254 -0.72754,-1.48437 -0.61035,-1.58204 -0.47364,-1.6748 -0.32226,-1.7041 -0.16114,-1.74316 -0.0292,-1.00587 m 7.45605,-17.48535 0.71289,-0.13672 1.04004,-0.42969 0.95704,-0.63476 0.86426,-0.85449 0.76171,-1.03516 0.625,-1.20116 0.4834,-1.3379 0.32226,-1.46484 0.16114,-1.5332 0,-1.58204 -0.16114,-1.58202 -0.32226,-1.56739 -0.4834,-1.49903 -0.61524,-1.43066 -0.74706,-1.29395 -0.87402,-1.12792 -0.97169,-0.98145 -1.05956,-0.77148 -1.1084,-0.542 -1.13282,-0.3125 -1.14257,-0.0684 -0.42481,0.0684 m -15.66407,21.92871 0,18.52539 m 11.32325,-1.65039 0,-16.17187 m -92.60253,32.18261 0.0195,0.9961 0.16113,1.88965 0.33692,1.87011 0.47362,1.8457 0.63478,1.75294 0.76171,1.65039 0.88867,1.5332 1.01074,1.37207 1.1084,1.21094 1.20118,1.00586 1.24511,0.7959 1.31347,0.56152 1.31837,0.33692 1.31347,0.0781 1.28906,-0.14649 0.0489,-0.0244 m -0.28809,0.0684 10.09278,-1.83594 m -3.96485,-10.58594 -0.0732,0.88868 -0.20509,1.68457 -0.37109,1.56738 -0.51757,1.45509 -0.63478,1.30371 -0.76171,1.12792 -0.85449,0.9375 -0.94727,0.74708 -1.01074,0.53222 -0.5127,0.14648 m 16.06446,-12.33886 -9.87305,1.75292 m -13.75489,-43.46679 -0.11712,0.0244 -1.05956,0.40039 -0.9668,0.61523 -0.87892,0.83008 -0.76171,1.01562 -0.24414,0.44923 m 4.4287,17.73925 0.61524,0.25391 1.12794,0.28809 1.14257,0.0489 0.88868,-0.16113 m -0.3711,0.0927 9.87792,-1.71875 m -3.47167,-21.63087 -9.87305,1.68458"
         id="path3455"
         inkscape:connector-curvature="0" />
      <path
         style="fill:none;stroke:#211e1e;stroke-width:2.70446134;stroke-linecap:round;stroke-linejoin:round;stroke-miterlimit:4;stroke-opacity:1;stroke-dasharray:none"
         d="m 549.02115,348.5322 0.35644,-0.0927 0.92773,0 0.94239,0.23927 0.92285,0.47362 0.88866,0.69336 0.82032,0.87892 0.73731,1.05956 0.64452,1.20117 0.52247,1.31348 0.37597,1.40625 0.23438,1.45507 0.0781,1.46485 -0.0781,1.43067 -0.21973,1.34766 -0.35644,1.24511 -0.50781,1.1084 -0.60059,0.93261 -0.70312,0.75195 -0.77149,0.542 -0.74219,0.28809"
         id="path3457"
         inkscape:connector-curvature="0" />
      <path
         style="fill:none;stroke:#211e1e;stroke-width:2.70446134;stroke-linecap:round;stroke-linejoin:round;stroke-miterlimit:4;stroke-opacity:1;stroke-dasharray:none"
         d="m 566.08169,400.90037 1.20117,-0.36622 1.16211,-0.625 1.09863,-0.83007 0.98145,-1.04004 0.88867,-1.2207 0.7373,-1.40625 0.625,-1.55762 0.45899,-1.68457 0.30274,-1.77735 0.12695,-1.74316 m -13.55469,8.75976 -0.27832,-0.2246 -1.01563,-1.01075 -0.94726,-1.22558 -0.83984,-1.35742 -0.72755,-1.50391 -0.61035,-1.61132 -0.47362,-1.68458 -0.32228,-1.75292 -0.16112,-1.75294 -0.0244,-1.04004 m 7.42675,-17.71972 0.71778,-0.12695 1.04003,-0.4248 0.9668,-0.64943 0.85449,-0.8496 0.76173,-1.06446 0.62011,-1.21094 0.48829,-1.37206 0.32226,-1.47461 0.1709,-1.54785 0,-1.60157 -0.16114,-1.60645 -0.32226,-1.59178 -0.47364,-1.52344 -0.62011,-1.44044 -0.7666,-1.31347 -0.85938,-1.16699 -0.97167,-0.99121 -1.04981,-0.78614 -1.11817,-0.55175 -1.14257,-0.32228 -1.14258,-0.0684 -0.44922,0.0684 m -15.91796,22.25098 0,18.78906 m 11.62597,-1.7041 0,-16.3916 m -95.23437,32.86133 0.0195,1.01562 0.16113,1.91895 0.32227,1.91406 0.48828,1.8457 0.62012,1.78712 0.76171,1.66992 0.89844,1.57226 1.00586,1.38184 1.1084,1.23535 1.18652,1.02539 1.26953,0.81055 1.28906,0.57617 1.34278,0.34668 1.31347,0.0928 1.28906,-0.16114 0.0341,-0.0146 m -0.2832,0.0586 10.16112,-1.82129 m -4.07226,-10.75195 -0.0489,0.89844 -0.2295,1.70898 -0.37109,1.5918 -0.50781,1.47461 -0.62989,1.31836 -0.75195,1.13769 -0.85449,0.95704 -0.94239,0.74218 -0.9961,0.54199 -0.52733,0.14649 m 16.23046,-12.32423 -10.15136,1.81153 m -13.61328,-44.33594 -0.13672,0.0244 -1.0498,0.4004 -0.97169,0.625 -0.87403,0.83007 -0.77636,1.04004 -0.23926,0.44922 m 4.42871,18.00782 0.60059,0.2539 1.15235,0.29785 1.13281,0.044 0.87403,-0.16114 m -0.36622,0.0927 10.1709,-1.75293 m -3.46192,-21.9629 -10.16113,1.72853"
         id="path3459"
         inkscape:connector-curvature="0" />
      <path
         style="fill:none;stroke:#211e1e;stroke-width:2.70446134;stroke-linecap:round;stroke-linejoin:round;stroke-miterlimit:4;stroke-opacity:1;stroke-dasharray:none"
         d="m 465.4274,362.7656 0.33202,-0.0927 0.91309,0.0146 0.94239,0.23926 0.92285,0.48339 0.88866,0.69336 0.82031,0.89844 0.73732,1.07422 0.64452,1.2207 0.50781,1.35254 0.39552,1.43066 0.22948,1.47462 0.083,1.47948 -0.083,1.4502 -0.21972,1.3623 -0.35644,1.26954 -0.50781,1.12793 -0.60059,0.94726 -0.69336,0.73731 -0.76173,0.55664 -0.76171,0.30761"
         id="path3461"
         inkscape:connector-curvature="0" />
      <path
         style="fill:none;stroke:#211e1e;stroke-width:2.70446134;stroke-linecap:round;stroke-linejoin:round;stroke-miterlimit:4;stroke-opacity:1;stroke-dasharray:none"
         d="m 482.70766,415.9199 1.24513,-0.39062 1.16211,-0.625 1.09862,-0.84961 0.98633,-1.04004 0.87891,-1.25976 0.7373,-1.41603 0.625,-1.58202 0.44923,-1.70899 0.3125,-1.79688 0.12695,-1.76757 m -13.71583,8.70117 -0.0927,-0.0684 -1.01562,-1.04004 -0.94728,-1.22071 -0.83984,-1.38671 -0.72753,-1.5332 -0.61035,-1.64063 -0.47364,-1.71875 -0.32226,-1.7627 -0.16114,-1.78711 -0.0244,-1.06445 m 7.41699,-17.94921 0.70313,-0.11238 1.04003,-0.43945 0.97169,-0.65917 0.84961,-0.86427 0.76172,-1.05957 0.625,-1.23535 0.4834,-1.37206 0.33691,-1.49903 0.15625,-1.5918 0.0146,-1.61621 -0.16113,-1.64063 -0.32227,-1.61132 -0.4834,-1.54785 -0.625,-1.4502 -0.7373,-1.34278 -0.87891,-1.17187 -0.96679,-1.01563 -1.06446,-0.7959 -1.10351,-0.5664 -1.15723,-0.32226 -1.12792,-0.0927 -0.46388,0.0684 m -16.1914,22.5879 0,19.05272 m 11.92383,-1.75292 0,-16.62109 m -97.9834,33.59375 0.0244,1.02539 0.16114,1.93847 0.32226,1.93848 0.48829,1.87988 0.62011,1.81153 0.76171,1.7041 0.88868,1.58202 1.00097,1.4209 1.1084,1.24512 1.18653,1.04981 1.25976,0.83007 1.31348,0.58594 1.31836,0.34668 1.31347,0.0927 1.29395,-0.15137 0.044,-0.01 m -0.29786,0.0586 10.47364,-1.87988 m 6.17676,-12.94433 -10.46387,1.86035 m -13.45703,-44.79493 -0.16114,0.0244 -1.03515,0.40038 -0.97168,0.63478 -0.8789,0.84472 -0.77149,1.0498 -0.23926,0.45899 m 4.4043,18.27149 0.61035,0.26855 1.14258,0.29785 1.14258,0.0586 0.85449,-0.16113 m -0.33692,0.0928 10.46387,-1.82129 m -3.44727,-22.29004 -10.46386,1.7871 m 17.66113,55.91309 0.0244,0 1.2207,-0.40528 1.17675,-0.62987 1.08399,-0.8545 0.99121,-1.06445 0.87892,-1.25488 0.76171,-1.44043 0.60059,-1.60644 0.45897,-1.72853 0.30273,-1.83593 0.13672,-1.77734 m -13.91113,8.58399 -0.88867,-0.92287 -0.93749,-1.24511 -0.83985,-1.40625 -0.72754,-1.54785 -0.61035,-1.66016 -0.47363,-1.75293 -0.32227,-1.78711 -0.16113,-1.81152 -0.0341,-1.08398 m 9.47753,-38.38867 -0.30761,-0.32715 -1.05958,-0.80567 -1.1084,-0.59082 -1.15233,-0.33203 -1.13282,-0.083 -0.47363,0.0733 m 7.48535,19.09179 0.625,-1.25 0.4834,-1.40625 0.32226,-1.52344 0.16602,-1.59178 0.01,-1.6504 -0.16113,-1.65039 -0.32227,-1.63574 -0.47363,-1.56739 -0.625,-1.48926 -0.7373,-1.3623 -0.87403,-1.20117 -0.66406,-0.69824 m -2.07031,20.19531 0.70312,-0.12695 1.04004,-0.43946 0.94239,-0.65429 0.8789,-0.86915 0.75683,-1.0791 m -23.96972,3.82813 0,19.34571 m 12.24121,-1.81153 0,-16.86523 m 16.59668,-163.54004 0.0927,-1.44044 0.27832,-1.37695 0.46386,-1.2207 0.62013,-1.04004 0.7373,-0.81543 0.86914,-0.54199 0.50781,-0.2002 m 2.36329,15.02442 -0.97169,-0.0244 -0.96679,-0.30273 -0.93262,-0.58593 -0.86914,-0.84473 -0.7373,-1.05957 -0.62013,-1.24512 -0.46386,-1.38672 -0.27832,-1.4502 -0.0927,-1.48925"
         id="path3463"
         inkscape:connector-curvature="0" />
      <path
         style="fill:none;stroke:#211e1e;stroke-width:2.70446134;stroke-linecap:round;stroke-linejoin:round;stroke-miterlimit:4;stroke-opacity:1;stroke-dasharray:none"
         d="m 408.60122,227.55564 0.50782,0.35645 0.86425,0.83496 0.74707,1.06933 0.625,1.24512 0.46386,1.37207 0.27344,1.4795 0.0927,1.47948 -0.0927,1.4502 -0.27344,1.37207 -0.46386,1.22558 -0.625,1.03517 -0.74707,0.82031 -0.86425,0.54199 -0.92285,0.26856"
         id="path3465"
         inkscape:connector-curvature="0" />
      <path
         style="fill:none;stroke:#211e1e;stroke-width:2.70446134;stroke-linecap:round;stroke-linejoin:round;stroke-miterlimit:4;stroke-opacity:1;stroke-dasharray:none"
         d="m 369.06998,228.12205 0.0879,-1.43067 0.29297,-1.3623 0.43456,-1.2207 0.625,-1.02539 0.73732,-0.81055 0.84472,-0.542 0.49316,-0.18554 m 1.38672,14.89258 -0.95703,-0.30761 -0.92285,-0.58107 -0.84472,-0.83007 -0.73732,-1.05958 -0.625,-1.24511 -0.43456,-1.3623 -0.29297,-1.45509 -0.0879,-1.4746"
         id="path3467"
         inkscape:connector-curvature="0" />
      <path
         style="fill:none;stroke:#211e1e;stroke-width:2.70446134;stroke-linecap:round;stroke-linejoin:round;stroke-miterlimit:4;stroke-opacity:1;stroke-dasharray:none"
         d="m 375.34439,221.999 0.49316,0.35644 0.85449,0.83009 0.73731,1.05956 0.625,1.23535 0.44921,1.37208 0.27833,1.45507 0.0927,1.47461 -0.0927,1.44532 -0.27833,1.35742 -0.44921,1.21094 -0.625,1.04004 -0.73731,0.80566 -0.85449,0.54199 -0.92285,0.26856 -0.94239,-0.0146"
         id="path3469"
         inkscape:connector-curvature="0" />
      <path
         style="fill:none;stroke:#211e1e;stroke-width:2.70446134;stroke-linecap:round;stroke-linejoin:round;stroke-miterlimit:4;stroke-opacity:1;stroke-dasharray:none"
         d="m 389.98306,232.05759 -0.60058,1.0254 -0.74708,0.80566 -0.84472,0.55664 -0.88868,0.2539"
         id="path3471"
         inkscape:connector-curvature="0" />
      <path
         style="fill:none;stroke:#211e1e;stroke-width:2.70446134;stroke-linecap:round;stroke-linejoin:round;stroke-miterlimit:4;stroke-opacity:1;stroke-dasharray:none"
         d="m 390.2565,224.499 0.18554,0.625 0.27832,1.44043 0.0928,1.4795 -0.0928,1.44042 -0.27832,1.35743 -0.45898,1.21581"
         id="path3473"
         inkscape:connector-curvature="0" />
      <path
         style="fill:none;stroke:#211e1e;stroke-width:2.70446134;stroke-linecap:round;stroke-linejoin:round;stroke-miterlimit:4;stroke-opacity:1;stroke-dasharray:none"
         d="m 336.3063,222.60935 0.0928,-1.43066 0.27832,-1.36231 0.44922,-1.20116 0.60059,-1.02541 0.7373,-0.79588 0.83008,-0.55177 0.4834,-0.18555 m 1.83105,14.81446 -0.46875,-0.005 -0.94726,-0.3125 -0.89844,-0.57618 -0.83008,-0.83007 -0.7373,-1.04982 -0.60059,-1.2207 -0.44922,-1.3623 -0.27832,-1.44043 -0.0928,-1.46484"
         id="path3475"
         inkscape:connector-curvature="0" />
      <path
         style="fill:none;stroke:#211e1e;stroke-width:2.70446134;stroke-linecap:round;stroke-linejoin:round;stroke-miterlimit:4;stroke-opacity:1;stroke-dasharray:none"
         d="m 342.50259,216.5156 0.49317,0.34668 0.84472,0.83008 0.73731,1.04004 0.60058,1.23535 0.43946,1.35743 0.27343,1.44531 0.0928,1.4746 -0.0928,1.43066 -0.27343,1.34767 -0.43946,1.21582 -0.60058,1.02539 -0.73731,0.7959 -0.84472,0.55175 -0.90821,0.26856 -0.47851,-0.01"
         id="path3477"
         inkscape:connector-curvature="0" />
      <path
         style="fill:none;stroke:#211e1e;stroke-width:2.70446134;stroke-linecap:round;stroke-linejoin:round;stroke-miterlimit:4;stroke-opacity:1;stroke-dasharray:none"
         d="m 357.10708,226.50584 -0.60058,1.02539 -0.74219,0.80077 -0.83984,0.55177 -0.88867,0.25391"
         id="path3479"
         inkscape:connector-curvature="0" />
      <path
         style="fill:none;stroke:#211e1e;stroke-width:2.70446134;stroke-linecap:round;stroke-linejoin:round;stroke-miterlimit:4;stroke-opacity:1;stroke-dasharray:none"
         d="m 357.37076,218.99607 0.17089,0.61523 0.27833,1.4502 0.0928,1.45508 -0.0928,1.43066 -0.27833,1.35743 -0.43457,1.20117"
         id="path3481"
         inkscape:connector-curvature="0" />
      <path
         style="fill:none;stroke:#211e1e;stroke-width:2.70446134;stroke-linecap:round;stroke-linejoin:round;stroke-miterlimit:4;stroke-opacity:1;stroke-dasharray:none"
         d="m 303.96255,217.16501 0.0928,-1.43066 0.26367,-1.33789 0.43946,-1.20117 0.60058,-1.02539 0.72266,-0.7959 0.82031,-0.55664 0.48828,-0.1709 m 1.34766,14.70703 -0.9375,-0.29785 -0.89844,-0.58105 -0.82031,-0.81544 -0.72266,-1.0498 -0.60058,-1.21093 -0.43946,-1.35254 -0.26367,-1.43066 -0.0928,-1.45021"
         id="path3483"
         inkscape:connector-curvature="0" />
      <path
         style="fill:none;stroke:#211e1e;stroke-width:2.70446134;stroke-linecap:round;stroke-linejoin:round;stroke-miterlimit:4;stroke-opacity:1;stroke-dasharray:none"
         d="m 310.0856,211.09568 0.48828,0.34668 0.83008,0.81543 0.71289,1.05469 0.60059,1.21093 0.43945,1.34765 0.27344,1.43068 0.0928,1.46484 -0.0928,1.43066 -0.27344,1.33789 -0.43945,1.21094 -0.60059,1.01562 -0.71289,0.7959 -0.83008,0.542 -0.90332,0.27831 -0.93262,-0.0244"
         id="path3485"
         inkscape:connector-curvature="0" />
      <path
         style="fill:none;stroke:#211e1e;stroke-width:2.70446134;stroke-linecap:round;stroke-linejoin:round;stroke-miterlimit:4;stroke-opacity:1;stroke-dasharray:none"
         d="m 324.68033,220.91013 -0.0488,0.12696 -0.58594,1.01563 -0.7373,0.7959 -0.83497,0.54198 -0.87402,0.26855"
         id="path3487"
         inkscape:connector-curvature="0" />
      <path
         style="fill:none;stroke:#211e1e;stroke-width:2.70446134;stroke-linecap:round;stroke-linejoin:round;stroke-miterlimit:4;stroke-opacity:1;stroke-dasharray:none"
         d="m 324.90005,213.5615 0.18067,0.625 0.26855,1.43066 0.0928,1.45508 -0.0928,1.43066 -0.26855,1.3379 -0.40039,1.06933 m -22.90039,168.94044 1.0498,-0.20508 1.09863,0.0684 1.08399,0.34668 1.05957,0.62012 1.01562,0.90332 0.91309,1.10351 0.7959,1.31348 m -15.99121,-190.4346 0.0195,0.3125 0.0488,0.29786 0.0928,0.27832 0.12695,0.25391 0.14648,0.22949 0.17578,0.16113 0.19532,0.11713 0.18554,0.0684 m 127.83691,24.38477 -0.1709,0.11225 -0.16114,0.16114 -0.1416,0.23437 -0.0879,0.2539 -0.0733,0.28809 -0.01,0.30761 m -2.17285,-1.00585 -0.12695,-0.26367 -0.15137,-0.21973 -0.18555,-0.1709 -0.20507,-0.12695 -0.20996,-0.0586 M 293.7719,208.4491 l -0.18554,0 -0.19532,0.0684 -0.17578,0.11713 -0.15136,0.16113 -0.12208,0.20508 -0.0928,0.25391 -0.0488,0.27831 -0.0195,0.29785 m 0.71289,135.96681 -0.29297,-0.27344 -0.23926,-0.39551 -0.15136,-0.45897 -0.0439,-0.50782 m 149.47264,-82.91016 -0.64452,0.044 -1.1084,-0.15625 -1.1084,-0.43945 -1.0498,-0.71777 -0.98145,-0.99122 -0.85449,-1.20117 -0.73731,-1.38184 -0.57616,-1.5332 -0.39063,-1.63086 -0.20996,-1.67969 -0.0244,-1.68456 0.18554,-1.61621 0.3711,-1.52344 0.52734,-1.37208 0.71777,-1.18652 m -12.20702,-17.23633 2.63184,0.61035 2.61718,0.9375 2.57324,1.24512 2.53906,1.56738 2.45605,1.87012 2.37794,2.16797 2.2705,2.44629 2.14356,2.7002 2.01172,2.92969 m -9.41407,0.76171 0.82032,-0.92285 0.93262,-0.69336 1.01563,-0.41504 1.07421,-0.13671 1.09375,0.14647 0.66895,0.23438 m -2.92969,8.93555 0.1025,-0.87403 0.28809,-0.76171 0.4541,-0.55176 0.56152,-0.27832 0.60059,0.0341 0.60059,0.32226 0.50781,0.59083 0.3662,0.78125 0.20996,0.91308 0,0.92285 -0.20996,0.83984 -0.3662,0.64941 -0.50781,0.41505 -0.60059,0.13672 -0.60059,-0.18555 -0.56152,-0.45898 -0.4541,-0.70312 -0.28809,-0.86915 -0.1025,-0.92285 m 1.45508,-9.40918 0.61035,-0.0343 0.53222,0.0343 m -6.17187,2.39746 0.0586,-0.0927 0.044,-0.13672 0.0341,-0.12695 0,-0.30274 -0.0244,-0.14647 -0.044,-0.14162 -0.0489,-0.12695 m -0.70313,-1.32323 0.70313,1.32323 M 293.28873,205.16794 424.1481,226.94529 m -3.15919,3.46191 0,3.32032 m 0,0 -0.0927,4.38476 -0.28809,4.33594 -0.4834,4.26758 -0.67871,4.16504 -0.85449,4.0625 -1.04005,3.93554 -1.2207,3.7793 -1.40625,3.62305 -1.55761,3.4375 -1.72364,3.24219 -1.86523,3.03222 -2.02148,2.81739 -2.14356,2.55859 -2.2705,2.3291 -2.37794,2.06543 -2.49022,1.80175 -2.56349,1.52344 m 0,0 -92.70019,49.07228 m 13.70606,-2.2168 92.7246,-48.98927 m -107.84667,100.53223 1.16211,-0.27831 0.71777,-0.0341 m 2.35352,21.80176 -0.57618,-0.083 -1.0498,-0.35643 -1.01563,-0.63478 -0.94726,-0.88866 -0.86426,-1.10353 -0.7373,-1.29393 -0.60059,-1.45508"
         id="path3489"
         inkscape:connector-curvature="0" />
      <path
         style="fill:none;stroke:#211e1e;stroke-width:2.70446134;stroke-linecap:round;stroke-linejoin:round;stroke-miterlimit:4;stroke-opacity:1;stroke-dasharray:none"
         d="m 300.23697,403.16112 -0.43946,-1.56739 -0.27832,-1.63574 -0.0928,-1.64062 0.0928,-1.61622 0.27832,-1.50878 0.45899,-1.38673 0.60058,-1.21094 0.75196,-0.99121 0.86426,-0.74706 0.96679,-0.48829"
         id="path3491"
         inkscape:connector-curvature="0" />
      <path
         style="fill:none;stroke:#211e1e;stroke-width:2.70446134;stroke-linecap:round;stroke-linejoin:round;stroke-miterlimit:4;stroke-opacity:1;stroke-dasharray:none"
         d="m 303.694,399.2158 0.0928,-0.87402 0.27832,-0.72754 0.4248,-0.51759 0.53223,-0.2539 0.57617,0.0439 0.56641,0.33692 0.4834,0.58594 0.34668,0.78613 0.19531,0.87891 0,0.89355 -0.19531,0.81055 -0.34668,0.63476 -0.4834,0.39063 -0.56641,0.1025 -0.57617,-0.18067 -0.53223,-0.47363 -0.4248,-0.70313 -0.27832,-0.83007 -0.0928,-0.90332 m -0.4834,-61.05468 -1.65039,1.03515 -1.54297,1.30371 -1.43066,1.57226 -1.30371,1.82129 -1.15235,2.03125 -0.99121,2.23634 -0.83496,2.40233 -0.6543,2.56837 -0.47363,2.69042 -0.28809,2.79298 -0.10253,2.85643 m 2.78808,30.98634 3.76465,10.86425 m -6.55273,-27.57812 0.0439,2.11913 0.13672,2.13868 0.22949,2.11914 0.30273,2.12402 0.39551,2.09961 0.47852,2.0752 0.5664,2.05567 0.63477,1.98242 m -2.78809,-47.54884 -0.11718,0.01 m 0.11718,-135.9668 0,135.95703 m 0,16.5625 0,14.27246 m 0,-171.44042 13.70117,-1.9043 m -13.70117,-15.94241 0,17.84668 m 13.70117,-19.7168 -13.70117,1.87012 m 9.83887,7.17286 -0.10254,-1.01563 -0.32714,-0.92286 -0.51758,-0.76171 -0.65918,-0.50293 -0.76172,-0.2588 -0.80567,0.0489 -0.80566,0.32227 -0.71777,0.57617 -0.60059,0.80566 -0.41504,0.96192 -0.21972,1.0498 0,1.05957 0.21972,0.9668 0.41504,0.85449 0.60059,0.64454 0.71777,0.37108 0.80566,0.11713 0.80567,-0.18555 0.76172,-0.45898 0.65918,-0.69336 0.51758,-0.89844 0.32714,-1.01562 0.10254,-1.06445 m 0,173.49609 -0.10254,-1.02539 -0.32714,-0.91309 -0.51758,-0.7373 -0.65918,-0.49805 -0.76172,-0.2295 -0.80567,0.0586 -0.80566,0.34668 -0.71777,0.61035 -0.60059,0.82031 -0.41504,0.9668 -0.21972,1.05959 0,1.0498 0.21972,0.98145 0.41504,0.83007 0.60059,0.625 0.71777,0.3711 0.80566,0.0684 0.80567,-0.20019 0.76172,-0.4834 0.65918,-0.72266 0.51758,-0.90332 0.32714,-1.01562 0.10254,-1.05958 m -12.08496,-181.02052 2.25098,0.36134"
         id="path3493"
         inkscape:connector-curvature="0" />
      <path
         style="fill:none;stroke:#211e1e;stroke-width:2.70446134;stroke-linecap:round;stroke-linejoin:round;stroke-miterlimit:4;stroke-opacity:1;stroke-dasharray:none"
         d="m 304.29947,184.25974 -13.63282,1.85547"
         id="path3495"
         inkscape:connector-curvature="0" />
      <path
         style="fill:none;stroke:#211e1e;stroke-width:2.70446134;stroke-linecap:round;stroke-linejoin:round;stroke-miterlimit:4;stroke-opacity:1;stroke-dasharray:none"
         d="m 299.89029,193.62986 -0.11719,-0.7129 -0.32227,-0.59081 -0.48339,-0.35645 -0.57618,-0.0684 -0.55664,0.2295 -0.48339,0.4834 -0.32227,0.66894 -0.11719,0.76172 0.11719,0.72754 0.32227,0.59081 0.48339,0.34669 0.55664,0.0684 0.57618,-0.23437 0.48339,-0.4834 0.32227,-0.66895 0.11719,-0.76172 m 0,173.49609 -0.11719,-0.72753 -0.32227,-0.56642 -0.48339,-0.34667 -0.57618,-0.044 -0.55664,0.2295 -0.48339,0.50781 -0.32227,0.67871 -0.11719,0.75195 0.11719,0.7373 0.32227,0.56642 0.48339,0.33691 0.55664,0.0538 0.57618,-0.23926 0.48339,-0.50782 0.32227,-0.66893 0.11719,-0.76173 m 584.65331,-208.03228 0.53224,-0.78613 0.7373,-0.7373 0.8789,-0.53223 0.62012,-0.20507 m 2.56348,0.3662 0.62011,0.38086 0.87891,0.76172 0.7373,0.97168 0.625,1.14257 0.45899,1.25489 0.30274,1.33789 0.0928,1.37207 -0.0928,1.33789 -0.30274,1.24511 -0.45899,1.14747 -0.625,0.95703 -0.7373,0.75684 -0.87891,0.51269 -0.92285,0.26367 -0.9668,-0.0146 -0.9912,-0.27343 -0.92286,-0.52247 -0.64453,-0.54198 m -0.18555,-10.39063 0.0195,-0.0146 0.74219,-0.5957 0.8496,-0.34669 0.90332,-0.0927 0.89844,0.20508 0.87891,0.46386 0.80567,0.69336 0.69335,0.91797 0.55176,1.08887 0.3711,1.19629 0.20507,1.24511 0,1.26954 -0.20507,1.20117 -0.3711,1.09375 -0.55176,0.9375 -0.69335,0.71289 -0.80567,0.47363 -0.87891,0.21973 -0.89844,-0.0684 -0.90332,-0.33691 -0.11225,-0.0537 m -36.15234,-14.73145 0.50781,-0.75195 0.7373,-0.76172 0.85449,-0.50782 0.62013,-0.20507 m 2.52928,0.34669 0.62013,0.39062 0.85449,0.75195 0.75195,0.95703 0.61036,1.12793 0.44921,1.25977 0.28809,1.32323 0.0928,1.36232 -0.0928,1.33788 -0.28809,1.24512 -0.16114,0.48829 m -7.08495,-8.56445 0.75195,-0.59571 0.83008,-0.34668 0.88867,-0.0684 0.89844,0.18066 0.85449,0.46388 0.81055,0.69335 0.66406,0.90821 0.55664,1.07421 0.3711,1.20118 0.20507,1.24511 0,1.25489 -0.20507,1.1914 -0.3711,1.08399 -0.21973,0.43457 m 10.87892,-8.5791 0.43945,1.20116 0.27343,1.3379 0.0928,1.34765 -0.0928,1.32813 -0.27343,1.24512 -0.18555,0.48339 m -33.31543,-11.58202 0.43945,1.17676 0.27833,1.33789 0.0879,1.33788 -0.0879,1.31348 -0.27833,1.25 -0.1416,0.38086 m -18.4082,-6.7627 0.49316,-0.74706 0.74219,-0.73731 0.83984,-0.50782 0.625,-0.20996 m 2.49024,0.34669 0.61035,0.38086 0.84472,0.74706 0.73731,0.94727 0.61035,1.13281 0.44922,1.24512 0.27832,1.32813 0.0928,1.34765 -0.0928,1.31347 -0.27832,1.24513 -0.12695,0.3955 m -7.02149,-8.41308 0.72266,-0.58593 0.82031,-0.34669 0.8789,-0.0927 0.88379,0.20996 0.8545,0.43458 0.78613,0.708 0.67871,0.89843 0.53222,1.06934 0.38087,1.18165 0.19531,1.24511 0,1.24512 -0.19531,1.20117 -0.38087,1.06934 -0.15136,0.3125 m -39.86329,-12.96386 0.46875,-0.74219 0.72755,-0.73731 0.83495,-0.50782 0.61037,-0.20507 m 2.46581,0.34667 0.61035,0.38087 0.83009,0.74707 0.74218,0.94726 0.5957,1.1084 0.43945,1.24512 0.27833,1.31347 0.0928,1.3379 -0.0928,1.31348 -0.27833,1.25 -0.0879,0.27343 m -6.98243,-8.25683 0.72754,-0.57618 0.80566,-0.34667 0.86427,-0.0927 0.8789,0.19531 0.84473,0.44921 0.78125,0.69336 0.66894,0.89844 0.53223,1.06445 0.3711,1.17676 0.18066,1.23047 0,1.23536 -0.18066,1.1914 -0.3711,1.06934 -0.11713,0.20996 m 10.76173,-8.23731 0.41503,1.17676 0.27833,1.31347 0.0928,1.33789 -0.0928,1.31349 -0.27833,1.23535 -0.0879,0.27831"
         id="path3497"
         inkscape:connector-curvature="0" />
      <path
         style="fill:none;stroke:#211e1e;stroke-width:2.70446134;stroke-linecap:round;stroke-linejoin:round;stroke-miterlimit:4;stroke-opacity:1;stroke-dasharray:none"
         d="m 906.3063,159.38669 -2.65136,-0.3662"
         id="path3499"
         inkscape:connector-curvature="0" />
      <path
         style="fill:none;stroke:#211e1e;stroke-width:2.70446134;stroke-linecap:round;stroke-linejoin:round;stroke-miterlimit:4;stroke-opacity:1;stroke-dasharray:none"
         d="m 902.6149,160.33396 0.0244,-0.27832 0.0439,-0.26368 0.0928,-0.24413 0.1416,-0.20508 0.16114,-0.15137 0.18555,-0.1025 0.20507,-0.0684 0.18555,0 m -130.18565,107.27538 0.0489,0.45899 0.15625,0.43945 0.23437,0.34667 0.29785,0.25392"
         id="path3501"
         inkscape:connector-curvature="0" />
      <path
         style="fill:none;stroke:#211e1e;stroke-width:2.70446134;stroke-linecap:round;stroke-linejoin:round;stroke-miterlimit:4;stroke-opacity:1;stroke-dasharray:none"
         d="m 900.48599,162.59959 0,-3.04688 m -1.05958,-1.61133 0.20996,0.0537 0.20509,0.10737 0.18554,0.16114 0.16114,0.20507 0.11225,0.24414 0.0928,0.26368 0.0733,0.27832 0.0195,0.29785 m -1.05968,-1.61134 -124.93164,-17.43163"
         id="path3503"
         inkscape:connector-curvature="0" />
      <path
         style="fill:none;stroke:#211e1e;stroke-width:2.70446134;stroke-linecap:round;stroke-linejoin:round;stroke-miterlimit:4;stroke-opacity:1;stroke-dasharray:none"
         d="m 773.68422,141.77439 0.0195,-0.27833 0.0489,-0.2539 0.1025,-0.24413 0.12696,-0.19532 0.15136,-0.16113 0.1709,-0.1025 0.18555,-0.0586 0.20995,0 m 152.73438,30.86426 -2.00683,-2.67578 -2.16797,-2.4463 -2.26074,-2.21678 -2.39746,-1.95802 -2.4707,-1.68457 -2.53906,-1.41113 -2.58302,-1.11816 -2.63183,-0.81544 -2.62695,-0.53222 m 11.34765,14.83399 -0.68848,-1.21094 M 905.74964,156.48631 774.13831,138.0537 m 0,0 11.60644,-1.61621 m 116.82129,26.31347 0,-3.05663 m -118.4375,100.66894 93.24218,-46.40626 m -92.74902,91.52344 -0.74706,0.044 -1.17677,0.26368 m 12.50489,-2.19726 0.27831,-0.0489 0.80568,-0.0341 m -22.65625,-21.53809 0.0928,-2.63184 0.28809,-2.56836 0.47363,-2.48046 0.66895,-2.37793 0.83008,-2.23634 1.01562,-2.06542 1.15234,-1.89454 1.31348,-1.67969 1.44531,-1.46972 1.55762,-1.2207 1.66015,-0.98145 m -7.68066,50.10255 -0.64941,-1.82618 -0.57618,-1.86523 -0.4834,-1.91895 -0.39062,-1.92383 -0.32714,-1.95312 -0.21974,-1.958 -0.122,-1.9629 -0.0489,-1.93848 m 0,0 0,-13.14941 m 0,-144.70215 0,-16.42578 m 0,0 11.60644,-1.58204 m -8.33008,8.98927 0.0928,-0.97169 0.27831,-0.93261 0.43947,-0.82032 0.56152,-0.62011 0.64941,-0.41992 0.67872,-0.16114 0.6787,0.0927 0.61523,0.3711 0.49317,0.60059 0.35645,0.77147 0.18555,0.91309 0,0.9668 -0.18555,0.97167 -0.35645,0.87403 -0.49317,0.72754 -0.61523,0.542 -0.6787,0.27831 -0.67872,0.0342 -0.64941,-0.24415 -0.56152,-0.48339 -0.43947,-0.69336 -0.27831,-0.8545 -0.0928,-0.94238 m 0,159.88282 0.0928,-0.97169 0.27831,-0.94726 0.43947,-0.81543 0.56152,-0.65918 0.64941,-0.43945 0.67872,-0.1709 0.6787,0.0781 0.61523,0.34669 0.49317,0.58105 0.35645,0.78125 0.18555,0.89844 0,0.97167 -0.18555,0.9668 -0.35645,0.88868 -0.49317,0.75195 -0.61523,0.55176 -0.6787,0.30274 -0.67872,0.0439 -0.64941,-0.20996 -0.56152,-0.46875 -0.43947,-0.68359 -0.27831,-0.8545 -0.0928,-0.94237"
         id="path3505"
         inkscape:connector-curvature="0" />
      <path
         style="fill:none;stroke:#211e1e;stroke-width:2.70446134;stroke-linecap:round;stroke-linejoin:round;stroke-miterlimit:4;stroke-opacity:1;stroke-dasharray:none"
         d="m 771.46744,120.55856 11.63085,-1.56737"
         id="path3507"
         inkscape:connector-curvature="0" />
      <path
         style="fill:none;stroke:#211e1e;stroke-width:2.70446134;stroke-linecap:round;stroke-linejoin:round;stroke-miterlimit:4;stroke-opacity:1;stroke-dasharray:none"
         d="m 777.06802,127.03318 0.21973,-0.44434 0.40527,-0.43945 0.48339,-0.20996 0.4834,0.0684 0.41504,0.33691 0.27832,0.54199 0.0928,0.66895 -0.0928,0.69336 -0.27832,0.62012 -0.41504,0.43945 -0.4834,0.20996 -0.48339,-0.0732 -0.40527,-0.33204 -0.27833,-0.54199 -0.0781,-0.47363 m 0.15136,158.71582 0.20509,-0.41503 0.40527,-0.45899 0.48339,-0.20996 0.4834,0.0489 0.41504,0.32226 0.27832,0.52734 0.0928,0.67384 -0.0928,0.68847 -0.27832,0.625 -0.41504,0.45898 -0.4834,0.20996 -0.48339,-0.044 -0.40527,-0.32715 -0.27833,-0.52735 -0.0781,-0.43945 m -57.46094,84.45313 -0.19531,0.15136 -1.18653,0.73731 -1.26952,0.4834 -1.32813,0.21973 -1.3379,-0.0342 -1.3623,-0.30273 -0.19531,-0.0684"
         id="path3509"
         inkscape:connector-curvature="0" />
      <path
         style="fill:none;stroke:#211e1e;stroke-width:2.70446134;stroke-linecap:round;stroke-linejoin:round;stroke-miterlimit:4;stroke-opacity:1;stroke-dasharray:none"
         d="m 722.59047,361.51072 9.34572,-1.66015"
         id="path3511"
         inkscape:connector-curvature="0" />
      <path
         style="fill:none;stroke:#211e1e;stroke-width:2.70446134;stroke-linecap:round;stroke-linejoin:round;stroke-miterlimit:4;stroke-opacity:1;stroke-dasharray:none"
         d="m 733.2106,360.31932 -9.3457,1.66015"
         id="path3513"
         inkscape:connector-curvature="0" />
      <path
         style="fill:none;stroke:#211e1e;stroke-width:2.70446134;stroke-linecap:round;stroke-linejoin:round;stroke-miterlimit:4;stroke-opacity:1;stroke-dasharray:none"
         d="m 725.57387,372.22362 0.57618,-0.13673 1.26954,-0.4834 1.20116,-0.74219 0.27344,-0.20507"
         id="path3515"
         inkscape:connector-curvature="0" />
      <path
         style="fill:none;stroke:#211e1e;stroke-width:2.70446134;stroke-linecap:round;stroke-linejoin:round;stroke-miterlimit:4;stroke-opacity:1;stroke-dasharray:none"
         d="m 654.43619,374.34763 -9.59962,1.70899 m -71.41601,12.70996 -9.87305,1.76757 m -84.69726,14.84375 0.10737,0.0341 0.12697,0.01 0.13671,0.0244 0.13672,0 0.16113,0.01 0.1416,-0.01 0.13672,0 0.11713,-0.0244 m 10.1709,-1.80664 -10.1709,1.80664 m -75.62989,13.47656 -10.44921,1.85546 m 51.93359,-177.33397 0.84961,1.54296 0.71777,1.68458 0.55177,1.80175 0.37108,1.86523 0.18555,1.91895 0.01,1.88965 -0.1709,1.8457 -0.37108,1.75293 -0.52735,1.61621 -0.70313,1.45508 -0.84472,1.26953 -0.98145,1.02539 -1.07422,0.78125 -1.17676,0.52246 -0.43456,0.11225 m -6.71388,-20.18553 -0.71777,1.17675 -0.53223,1.38183 -0.36621,1.51368 -0.18554,1.62597 0.0244,1.68458 0.20507,1.6748 0.39552,1.62597 0.57616,1.54298 0.73731,1.38671 0.85449,1.19629 0.98145,0.98145 1.0498,0.72754 1.10351,0.43945 1.1084,0.16113 0.27833,-0.0244 m -5.49317,-18.16895 2.08984,-0.30761 m -133.89169,144.23811 0.4834,0.044 1.2207,0.30274 1.20117,0.5664 1.15234,0.83985 1.07422,1.08397 0.98145,1.31349 0.86426,1.5039 0.72754,1.66016 0.5664,1.7871 0.40039,1.85548 0.21973,1.9043 0.0342,1.89452 -0.13672,1.83105 -0.33203,1.75781 -0.49805,1.61134 -0.66894,1.44043 -0.81055,1.23535 -0.93262,1.01562 -1.0498,0.76173 -1.11817,0.4834 -0.49804,0.11712 m -7.2168,-8.86231 0.5957,1.45507 0.75196,1.29395 0.85449,1.1084 0.95703,0.87403 1.01563,0.64941 1.03515,0.3418 1.04004,0.083 0.41504,-0.0489 m 617.90038,-218.32999 0.37109,-0.0928 1.15235,-0.49805 1.08397,-0.72754 0.9961,-0.9668 0.84962,-1.16699 0.69335,-1.34766 0.53222,-1.49901 0.36621,-1.61621 0.18555,-1.68458 0,-1.75292 -0.20996,-1.74317 -0.36621,-1.71875 -0.55664,-1.63575 -0.71289,-1.54785 -0.8545,-1.40625 m -144.52636,154.23341 0.71289,0.39062 1.08399,0.39063 1.1084,0.11712 1.08398,-0.1416 1.01563,-0.39062 0.94726,-0.64942 0.83008,-0.88378 0.71288,-1.08399 0.542,-1.25976 0.38087,-1.40625 0.20995,-1.49903 0.0195,-1.54785 -0.16114,-1.56739 -0.34179,-1.54785 -0.53224,-1.47461 -0.66893,-1.35254 -0.81055,-1.19628 -0.92285,-1.01563 -1.01563,-0.7959 -1.05957,-0.56641 -1.1084,-0.3125 -1.09375,-0.0439 -1.07422,0.21973"
         id="path3517"
         inkscape:connector-curvature="0" />
      <path
         style="fill:none;stroke:#211e1e;stroke-width:2.70446134;stroke-linecap:round;stroke-linejoin:round;stroke-miterlimit:4;stroke-opacity:1;stroke-dasharray:none"
         d="m 774.40689,310.80759 -0.47364,-1.3623 -0.61523,-2.00195 -0.51758,-2.05566 -0.4248,-2.06544 -0.33692,-2.08984 -0.2295,-2.09472 -0.15136,-2.1045 -0.0538,-2.09473 m 0,0 0,-84.72167 m 128.03223,-36.05958 0,-0.044 0.4834,-3.78417 0.27343,-3.84278 0.0927,-3.88671"
         id="path3519"
         inkscape:connector-curvature="0" />
      <path
         style="fill:none;stroke:#211e1e;stroke-width:2.70446134;stroke-linecap:round;stroke-linejoin:round;stroke-miterlimit:4;stroke-opacity:1;stroke-dasharray:none"
         d="m 922.84439,187.92185 -0.50782,0.0341 -1.1084,-0.12695 -0.85448,-0.27832 m -43.00294,26.40625 2.58301,-1.43067 2.51465,-1.68456 2.37793,-1.93847 2.28516,-2.16798 2.16796,-2.3877 2.00684,-2.61719 1.88965,-2.80761 1.70899,-3.00781 1.56737,-3.17383 0.73731,-1.66016 m 4.61425,-17.25585 0.3711,-3.05665 0.27832,-3.97949 0.0928,-4.03808 m -115.13672,165.71778 0.56153,-0.12695 1.14257,-0.45899 1.04004,-0.71289 0.94726,-0.94727 0.81544,-1.15723 0.66894,-1.33788 0.49805,-1.49903 0.33691,-1.61621 0.14649,-1.67969 -0.0341,-1.75781 -0.21973,-1.72851 -0.41504,-1.70899 -0.56153,-1.63574 -0.72753,-1.52344 -0.8789,-1.3623 -0.99122,-1.20117 -1.08398,-0.99121 -1.15723,-0.74708 -1.19629,-0.51757 -1.23535,-0.25879 -0.46387,-0.0195 m -10.9912,-38.75976 0,-56.80176 m 0,-16.94336 0,-7.02638 m 0,-39.14062 0,-5.24902 m -49.76563,220.41992 -0.16113,1.91407 -0.3418,1.82617 -0.51269,1.7041 -0.68849,1.57226 -0.83495,1.38184 -0.9668,1.20118 -0.88867,0.82031 m -14.58984,-14.63868 0.0927,1.86524 0.28809,1.87989 0.47363,1.82616 0.63477,1.74318 0.79101,1.61132 0.94727,1.45508 1.06445,1.26953 1.15234,1.05957 1.23536,0.80566 1.27929,0.56641 1.30371,0.28809 1.30372,0.0244 0.47363,-0.0684 m -6.67968,-52.76368 0.64452,-0.0733 1.15235,0.0976 1.15723,0.35645 1.12792,0.61035 1.05958,0.8545 0.98143,1.05956 0.86427,1.24513 0.74218,1.43066 0.60059,1.52344 0.41015,1.64062 0.25391,1.66015 0.0586,1.68458 -0.122,1.63573 -0.30274,1.54785 -0.47364,1.44044 -0.63476,1.27929 -0.78125,1.08887 -0.90331,0.88379 -1.01563,0.63476 -0.99121,0.3711 m -3.1836,-2.05566 0.95704,0.30273 1.06445,0.0684 0.49316,-0.044 m -3.11524,-17.37304 -0.39062,0.11225 -0.96679,0.46387 -0.625,0.4834 m -2.42187,16.84082 0,18.66699 m -60.04395,18.2959 -0.17579,1.9336 -0.33203,1.8457 -0.51757,1.7334 -0.6836,1.5918 -0.83008,1.40625 -0.9668,1.20116 -1.09862,0.99121 -1.17188,0.73732 -1.26953,0.48338 -0.32715,0.0928 m -11.60157,-16.34277 0.0927,1.89942 0.27344,1.89453 0.46386,1.8457 0.64454,1.77735 0.81055,1.63574 0.92285,1.4795 1.05956,1.28906 1.17677,1.07421 1.2207,0.83008 1.29395,0.56641 1.28906,0.29785 1.29395,0.0244 0.48339,-0.0684 m -6.68945,-53.50585 0.64453,-0.0684 1.16699,0.0928 1.15235,0.37109 1.11816,0.61035 1.07422,0.86426 0.98145,1.08399 0.87402,1.26953 0.74219,1.43066 0.57616,1.57227 0.42481,1.66015 0.24414,1.68458 0.0684,1.7041 -0.11713,1.65039 -0.3125,1.58203 -0.46875,1.45019 -0.63476,1.29395 -0.78614,1.1084 -0.9082,0.89844 -1.00586,0.64452 -1.00586,0.3711 m -3.16894,-2.09961 0.95702,0.29785 1.05958,0.0927 0.4834,-0.0586 m -3.10059,-17.62207 -0.38086,0.11225 -0.97168,0.47364 -0.62012,0.4834 m -2.42188,17.07519 0,18.93066 m -62.31445,18.80371 -0.16601,1.95802 -0.3418,1.87988 -0.50781,1.75293 -0.6836,1.60645 -0.83984,1.43066 -0.97167,1.20605 -1.08399,1.00586 -1.17188,0.75195 -1.26953,0.4834 -0.32715,0.083 m -11.60157,-16.60156 0.1025,1.93848 0.28808,1.91406 0.46387,1.87987 0.62988,1.78712 0.7959,1.66016 0.94727,1.51366 1.06445,1.31348 1.15234,1.09863 1.22071,0.83008 1.29394,0.58594 1.28906,0.3125 1.29395,0.0244 0.83984,-0.12695 m -7.03125,-54.22851 0.6543,-0.0684 1.15235,0.0879 1.15723,0.3711 1.11816,0.64941 1.07421,0.87403 0.9668,1.08398 0.87403,1.30372 0.74218,1.46483 0.57618,1.5918 0.4248,1.66015 0.24414,1.7334 0.0684,1.71875 -0.12695,1.66993 -0.29785,1.60156 -0.47364,1.47949 -0.63476,1.30371 -0.78614,1.13281 -0.91308,0.89844 -1.00098,0.64454 -1.01562,0.39062 m -3.14942,-2.14356 0.94727,0.3125 1.05957,0.0781 0.49805,-0.044 m -3.10547,-17.88087 -0.39063,0.11225 -0.9668,0.47364 -0.61522,0.4834 m -2.43165,17.31934 0,19.19434 m -64.66797,19.33105 -0.16113,1.9873 -0.34668,1.91406 -0.50781,1.77735 -0.6836,1.62597 -0.83008,1.44043 -0.9668,1.24512 -1.08397,0.99609 -1.19141,0.75684 -1.26953,0.49805 -0.29785,0.083 m -11.5918,-16.87988 0.0927,1.95313 0.28809,1.958 0.46386,1.9043 0.62989,1.82129 0.79589,1.69433 0.94727,1.52344 1.0498,1.33789 1.16699,1.1084 1.22071,0.8545 1.27929,0.60059 1.30371,0.32226 1.29395,0.0244 0.45899,-0.0732 m -6.65528,-55.09277 0.64453,-0.0684 1.15722,0.11713 1.15235,0.36621 1.11817,0.64941 1.06445,0.89844 0.97656,1.1084 0.86915,1.31348 0.73241,1.49902 0.59083,1.60644 0.42968,1.69434 0.22949,1.75293 0.0684,1.74317 -0.11713,1.7041 -0.29785,1.62597 -0.4834,1.48926 -0.625,1.32813 -0.78614,1.12792 -0.89843,0.92285 -1.01563,0.65919 -1.02539,0.38085 m -3.125,-2.19237 0.94239,0.32226 1.06445,0.0927 0.4834,-0.044 m -3.09082,-18.15918 -0.3955,0.11713 -0.9668,0.4834 -0.61035,0.49804 m -2.42188,17.56836 0,19.45801 m -67.14844,19.88769 -0.16113,2.01661 -0.34668,1.9287 -0.50781,1.81153 -0.69336,1.63575 -0.83008,1.47948 -0.95704,1.24512 -1.08397,1.01562 -1.18652,0.76173 -1.25,0.50781 -0.32228,0.0684"
         id="path3521"
         inkscape:connector-curvature="0" />
      <path
         style="fill:none;stroke:#211e1e;stroke-width:2.70446134;stroke-linecap:round;stroke-linejoin:round;stroke-miterlimit:4;stroke-opacity:1;stroke-dasharray:none"
         d="m 385.92056,431.35447 0.50782,-0.14648 0.55175,-0.16602 1.00586,-0.5371 0.93261,-0.75197 0.83009,-0.95702 0.7666,-1.167 0.62987,-1.33789 0.50781,-1.48925 0.3711,-1.61134 0.21973,-1.7334 0.0586,-0.92285"
         id="path3523"
         inkscape:connector-curvature="0" />
      <path
         style="fill:none;stroke:#211e1e;stroke-width:2.70446134;stroke-linecap:round;stroke-linejoin:round;stroke-miterlimit:4;stroke-opacity:1;stroke-dasharray:none"
         d="m 374.93911,416.08103 0.0927,1.98731 0.27833,1.98241 0.45897,1.92872 0.64454,1.84571 0.78613,1.71386 0.94727,1.5625 1.0498,1.34765 1.15235,1.12794 1.23535,0.8789 1.26953,0.61035 1.28906,0.32715 1.29395,0.0293 0.4834,-0.0684 m -6.65528,-55.91308 0.63477,-0.0586 1.15235,0.10738 1.15233,0.38085 1.13282,0.66895 1.06445,0.89843 0.9668,1.12793 0.86426,1.3379 0.72754,1.52344 0.5957,1.64062 0.41992,1.71875 0.23925,1.76269 0.0586,1.77735 -0.11225,1.7334 -0.30274,1.63574 -0.47363,1.52343 -0.62988,1.34767 -0.77637,1.14257 -0.91309,0.92285 -0.99121,0.66895 -1.0498,0.3955 m -3.11524,-2.24121 0.95704,0.33691 1.0498,0.1025 0.49805,-0.0586 0.39062,-0.1025 0.75195,-0.3125 0.76173,-0.56642 0.67871,-0.76171 0.61035,-0.95704 0.49804,-1.14257 0.35645,-1.26465 0.21972,-1.41113 0.0733,-1.46485 -0.083,-1.50878 -0.24414,-1.48927 -0.36621,-1.45507 -0.53222,-1.35743 -0.625,-1.25 -0.73732,-1.0791 -0.83007,-0.91308 -0.87403,-0.70313 -0.92773,-0.49804 -0.92285,-0.25391 -0.92285,0 -0.32227,0.0927 m -0.0341,-0.0244 -0.40527,0.11712 -0.9668,0.4834 -0.61035,0.49805 m -2.41211,17.80761 0,19.76074"
         id="path3525"
         inkscape:connector-curvature="0" />
      <path
         style="fill:none;stroke:#211e1e;stroke-width:2.70446134;stroke-linecap:round;stroke-linejoin:round;stroke-miterlimit:4;stroke-opacity:1;stroke-dasharray:none"
         d="m 304.24087,184.1865 2.25098,0.36133"
         id="path3527"
         inkscape:connector-curvature="0" />
      <path
         style="fill:none;stroke:#211e1e;stroke-width:2.70446134;stroke-linecap:round;stroke-linejoin:round;stroke-miterlimit:4;stroke-opacity:1;stroke-dasharray:none"
         d="m 392.42446,420.43162 1.32325,0.31738"
         id="path3529"
         inkscape:connector-curvature="0" />
      <path
         style="fill:none;stroke:#211e1e;stroke-width:2.70446134;stroke-linecap:round;stroke-linejoin:round;stroke-miterlimit:4;stroke-opacity:1;stroke-dasharray:none"
         d="m 402.90297,418.41013 1.53809,0.32227"
         id="path3531"
         inkscape:connector-curvature="0" />
      <path
         style="fill:none;stroke:#211e1e;stroke-width:2.70446134;stroke-linecap:round;stroke-linejoin:round;stroke-miterlimit:4;stroke-opacity:1;stroke-dasharray:none"
         d="m 379.27016,397.12107 0.60059,-1.47949 m 85.65919,-13.33984 0.60058,-1.4795"
         id="path3533"
         inkscape:connector-curvature="0" />
      <path
         style="fill:none;stroke:#211e1e;stroke-width:2.70446134;stroke-linecap:round;stroke-linejoin:round;stroke-miterlimit:4;stroke-opacity:1;stroke-dasharray:none"
         d="m 488.67935,403.37595 1.50879,0.1025"
         id="path3535"
         inkscape:connector-curvature="0" />
      <path
         style="fill:none;stroke:#211e1e;stroke-width:2.70446134;stroke-linecap:round;stroke-linejoin:round;stroke-miterlimit:4;stroke-opacity:1;stroke-dasharray:none"
         d="m 562.09731,390.27537 1.48926,0.14648 m -14.69726,-22.75391 0.60059,-1.47949"
         id="path3537"
         inkscape:connector-curvature="0" />
      <path
         style="fill:none;stroke:#211e1e;stroke-width:2.70446134;stroke-linecap:round;stroke-linejoin:round;stroke-miterlimit:4;stroke-opacity:1;stroke-dasharray:none"
         d="m 572.14615,388.4199 1.49414,0.1416"
         id="path3539"
         inkscape:connector-curvature="0" />
      <path
         style="fill:none;stroke:#211e1e;stroke-width:2.70446134;stroke-linecap:round;stroke-linejoin:round;stroke-miterlimit:4;stroke-opacity:1;stroke-dasharray:none"
         d="m 643.55727,375.70505 1.48927,0.1416"
         id="path3541"
         inkscape:connector-curvature="0" />
      <path
         style="fill:none;stroke:#211e1e;stroke-width:2.70446134;stroke-linecap:round;stroke-linejoin:round;stroke-miterlimit:4;stroke-opacity:1;stroke-dasharray:none"
         d="m 653.07387,374.02537 1.48927,0.1416"
         id="path3543"
         inkscape:connector-curvature="0" />
      <path
         style="fill:none;stroke:#211e1e;stroke-width:2.70446134;stroke-linecap:round;stroke-linejoin:round;stroke-miterlimit:4;stroke-opacity:1;stroke-dasharray:none"
         d="m 630.37856,353.51268 0.59571,-1.4795 m 78.33008,-12.11425 0.60059,-1.4795 m 12.73925,23.34961 1.48926,0.14649"
         id="path3545"
         inkscape:connector-curvature="0" />
      <path
         style="fill:none;stroke:#211e1e;stroke-width:2.70446134;stroke-linecap:round;stroke-linejoin:round;stroke-miterlimit:4;stroke-opacity:1;stroke-dasharray:none"
         d="m 731.83852,360.03123 1.49414,0.1416 m -326.92382,-84.23828 -1.88965,2.34375 -2.01172,2.14844 m -109.35546,-72.16798 125.06835,20.90333 m 19.81934,-4.22364 -131.34765,-22.37792 m 109.01366,80.32226 2.19239,-1.99707 2.08984,-2.19238 1.96777,-2.42187 1.87013,-2.63184 1.74316,-2.80274 m -30.69825,15.26368 -92.65136,49.13086 m -11.70899,-149.0088 0,189.2334 m 16.25489,-16.35741 0.0195,-1.36232 0.16601,-2.56347 m 0.78125,28.13965 -0.45898,-2.80761 -0.32227,-2.82715 m -0.18554,-44.8584 0,-108.45704 m 0,148.96972 0,-14.23338 m 154.42382,-101.5625 464.02833,-70.72267 m -1.51858,-16.25489 -464.82421,69.43361 M 325.45181,404.90428 384.4899,394.6699 m 13.07129,-2.27051 73.00781,-12.65625 m 12.75879,-2.21191 70.87402,-12.2998 m 12.46094,-2.16798 68.81835,-11.92382 m 12.15821,-2.11426 66.88476,-11.5918 m 11.87989,-2.06543 62.66113,-10.86426 m -2.67578,-15.74706 -62.63672,10.67871 m -11.92872,2.03125 -66.82616,11.39647 m -12.20215,2.08985 -68.78906,11.7334 m -12.50489,2.11914 -70.8252,12.08985 m -12.7832,2.16796 -72.97362,12.46094 m -13.10548,2.22656 -58.94531,10.04395 m 533.56445,-234.16992 -452.6123,65.41015 m 386.95312,-74.64844 -451.72363,63.61329 m 484.35547,-59.02344 -451.88965,64.46289 m 81.86524,19.94141 437.94921,-64.87305 m -1.47949,-10.2002 -453.61328,66.33301 m -119.32129,111.30372 92.72461,-48.98927"
         id="path3547"
         inkscape:connector-curvature="0" />
    </g>
  </g>
</svg>
