<svg width="45" height="45" xmlns="http://www.w3.org/2000/svg">
 <metadata id="metadata8">image/svg+xml</metadata>
 <defs>
  <clipPath clipPathUnits="userSpaceOnUse" id="clipPath16">
   <path d="m0,36l36,0l0,-36l-36,0l0,36z" id="path18"/>
  </clipPath>
 </defs>
 <g>
  <title>background</title>
  <rect fill="none" id="canvas_background" height="402" width="582" y="-1" x="-1"/>
 </g>
 <g>
  <title>Layer 1</title>
  <metadata transform="matrix(4.0008335547738625,0,0,4.0008335547738625,0,0) " id="svg_44">image/svg+xml</metadata>
  <defs>
   <clipPath clipPathUnits="userSpaceOnUse" id="svg_28">
    <path d="m22.850164,13.887444l36,0l0,-36l-36,0l0,36z" id="svg_43"/>
   </clipPath>
  </defs>
  <g id="svg_47">
   <g transform="matrix(1.25,0,0,-1.25,0,45) " id="g20">
    <path fill="#8899a6" fill-rule="nonzero" d="m33.447088,28.875788l-2.742,-2.743c0,0 -1.829,-0.914 -3.657,0.915c-1.83,1.828 -0.915,3.657 -0.915,3.657l2.743,2.743c0.915,0.914 -0.184,1.752 -1.009,1.752c-4.051,0 -7.334,-3.283 -7.334,-7.333c0,-0.57 0.072,-1.121 0.194,-1.654l-6.199,-6.199l5.485,-5.485l6.2,6.199c0.533,-0.123 1.084,-0.194 1.654,-0.194c4.05,0 7.333,3.283 7.333,7.333c0,0.83 -0.839,1.924 -1.753,1.009" id="path22"/>
   </g>
   <g transform="matrix(1.25,0,0,-1.25,0,45) " id="g24">
    <path fill="#8899a6" fill-rule="nonzero" d="m4.962687,3.362087c-0.819,0 -1.482,0.664 -1.482,1.482c0,0.819 0.663,1.483 1.482,1.483c0.819,0 1.482,-0.664 1.482,-1.483c0,-0.818 -0.663,-1.482 -1.482,-1.482m9.457,16.474l-12.188,-12.188c-1.496,-1.496 -1.496,-3.921 0,-5.417c1.496,-1.495 3.92,-1.495 5.417,0l12.187,12.188l-5.416,5.417z" id="path26"/>
   </g>
   <g stroke="null" id="svg_46">
    <g stroke="null" id="svg_25" transform="matrix(-1.148829748593711,0,0,1.148829748593711,69.06928067500851,27.86363965472306) ">
     <g stroke="null" id="svg_26">
      <g stroke="null" id="svg_27" clip-path="url(#svg_28)">
       <g stroke="null" id="svg_41">
        <path stroke="null" fill="#d99e82" fill-rule="nonzero" d="m58.071863,-19.710256c-0.647,2.101 -1.705,6.059 -2.325,7.566c-0.501,1.216 -0.969,2.438 -1.544,3.014c-0.575,0.575 -1.553,0.53 -2.143,-0.057c0,0 -2.468,-1.675 -3.353,-2.784c-1.109,-0.882 -2.785,-3.357 -2.785,-3.357c-0.59,-0.59 -0.635,-1.568 -0.06,-2.143c0.576,-0.575 1.798,-1.043 3.015,-1.544c1.506,-0.62 5.465,-1.675 7.566,-2.325c0.359,-0.11 1.739,1.271 1.629,1.63" id="svg_42"/>
       </g>
       <g stroke="null" id="svg_39">
        <path stroke="null" fill="#ea596e" fill-rule="nonzero" d="m36.492764,8.579344c1.151,-1.151 1.151,-3.016 0,-4.167l-4.167,-4.167c-1.151,-1.151 -3.017,-1.151 -4.167,0l-4.167,4.167c-1.151,1.151 -1.151,3.016 0,4.167l4.167,4.167c1.15,1.151 3.016,1.151 4.167,0l4.167,-4.167z" id="svg_40"/>
       </g>
       <g stroke="null" id="svg_37">
        <path stroke="null" fill="#ffcc4d" fill-rule="nonzero" d="m54.202665,-9.130156c0,0 -1.046,-1.047 -4.17,-4.17c-3.122,-3.124 -4.163,-4.165 -4.163,-4.165l-15.628,15.626l8.335,8.335l15.626,-15.626z" id="svg_38"/>
       </g>
       <g stroke="null" id="svg_35">
        <path stroke="null" fill="#292f33" fill-rule="nonzero" d="m54.928263,-20.875256c0,0 2.709,-1.489 3.441,-0.757c0.733,0.733 -0.764,3.435 -0.764,3.435c0,0 -2.568,-0.048 -2.677,-2.678" id="svg_36"/>
       </g>
       <g stroke="null" id="svg_33">
        <path stroke="null" fill="#ccd6dd" fill-rule="nonzero" d="m33.367764,11.704846l-8.334,-8.334l5.208,-5.209l8.335,8.334l-5.209,5.209z" id="svg_34"/>
       </g>
       <g stroke="null" id="svg_31">
        <path stroke="null" fill="#99aab5" fill-rule="nonzero" d="m35.451264,9.621344l-8.335,-8.334l-1.041,1.042l8.334,8.334l1.042,-1.042z" id="svg_32"/>
       </g>
       <g stroke="null" id="svg_29">
        <path stroke="null" fill="#99aab5" fill-rule="nonzero" d="m37.534264,7.537844l-8.334,-8.335l-1.042,1.042l8.334,8.335l1.042,-1.042z" id="svg_30"/>
       </g>
      </g>
     </g>
    </g>
   </g>
  </g>
 </g>
</svg>