<svg width="128" height="128" xmlns="http://www.w3.org/2000/svg">

 <g>
  <title>background</title>
  <rect fill="none" id="canvas_background" height="402" width="582" y="-1" x="-1"/>
 </g>
 <g>
  <title>Layer 1</title>
  <rect id="svg_2" height="112" width="112" y="8" x="8" stroke-width="1.5" fill="#007f00"/>
  <path id="svg_1" d="m64.01,15.06c-34.13,0 -55.46,24.1 -55.46,53.82c0,29.73 21.33,53.82 55.46,53.82c34.12,0 55.45,-24.1 55.45,-53.82c-0.01,-29.73 -21.33,-53.82 -55.45,-53.82zm0,81.78c-17.73,0 -28.82,-12.52 -28.82,-27.96c0,-15.44 11.08,-27.96 28.82,-27.96c17.73,0 28.81,12.52 28.81,27.96c-0.01,15.44 -11.09,27.96 -28.81,27.96z" fill="#40C0E7" clip-rule="evenodd" fill-rule="evenodd"/>
 </g>
</svg>