<svg width="64" height="64" xmlns="http://www.w3.org/2000/svg">

 <g>
  <title>background</title>
  <rect fill="none" id="canvas_background" height="402" width="582" y="-1" x="-1"/>
 </g>
 <g>
  <title>Layer 1</title>
  <path id="svg_1" d="m62,52c0,5.523 -4.478,10 -10,10l-40,0c-5.522,0 -10,-4.477 -10,-10l0,-40c0,-5.523 4.478,-10 10,-10l40,0c5.522,0 10,4.477 10,10l0,40" fill="#d0d0d0"/>
  <path id="svg_2" d="m57,45.666c0,4.604 -3.731,8.334 -8.333,8.334l-33.334,0c-4.602,0 -8.333,-3.73 -8.333,-8.334l0,-33.332c0,-4.604 3.731,-8.334 8.333,-8.334l33.334,0c4.602,0 8.333,3.73 8.333,8.334l0,33.332z" fill="#fff"/>
  <g id="svg_11">
   <path id="svg_3" d="m51.238584,44.625094l-6.108,0l0,-23.02c-2.232,2.086 -4.862,3.629 -7.892,4.629l0,-5.543c1.594,-0.521 3.326,-1.512 5.195,-2.967c1.87,-1.455 3.152,-3.156 3.848,-5.098l4.957,0l0,32" fill="#9aa0a5"/>
   <path stroke="null" id="svg_9" d="m30.773416,19.955163l-5.861597,0.680801c-0.143429,-1.267371 -0.516766,-2.204399 -1.121065,-2.805791c-0.60219,-0.60351 -1.385775,-0.905265 -2.347592,-0.905265c-1.279258,0 -2.360247,0.60351 -3.242967,1.809471c-0.883775,1.208078 -1.439561,3.720585 -1.670524,7.539638c1.509166,-1.874057 3.383232,-2.810026 5.624307,-2.810026c2.526878,0 4.693075,1.013261 6.494372,3.035549c1.803406,2.022287 2.704055,4.632203 2.704055,7.829746c0,3.395537 -0.947052,6.118743 -2.843265,8.170676s-4.32923,3.076841 -7.301159,3.076841c-3.184963,0 -5.810976,-1.302311 -7.864328,-3.904814c-2.054407,-2.601445 -3.08161,-6.867307 -3.08161,-12.800761c0,-6.081685 1.070443,-10.466131 3.210274,-13.150161c2.139831,-2.686148 4.919819,-4.028693 8.337854,-4.028693c2.398214,0 4.38407,0.705154 5.956514,2.115461c1.573498,1.412425 2.575391,3.462241 3.006732,6.144154m-13.720652,13.870138c0,2.067815 0.452433,3.662352 1.3573,4.786786c0.903812,1.125493 1.938398,1.68771 3.101648,1.68771c1.121065,0 2.053352,-0.461632 2.80108,-1.38172c0.745619,-0.920088 1.121065,-2.429921 1.121065,-4.526324c0,-2.158871 -0.402866,-3.736467 -1.207544,-4.742317c-0.805732,-1.000556 -1.809734,-1.503481 -3.015169,-1.503481c-1.164304,0 -2.148268,0.477514 -2.952946,1.434659s-1.205435,2.375923 -1.205435,4.245745" fill="#9aa0a5"/>
  </g>
  <ellipse ry="2.374403" rx="2.374403" id="svg_12" cy="32.508614" cx="37.68607" stroke-width="null" fill="#9aa0a5"/>
 </g>
</svg>