<svg width="720" height="320" xmlns="http://www.w3.org/2000/svg">
 <metadata id="metadata73">image/svg+xml</metadata>
 <defs>
  <clipPath id="clipPath3063">
   <rect fill="#ffffff" id="rect3065" y="-115.83732" x="124.38743" height="187.38884" width="160.46516"/>
  </clipPath>
 </defs>
 <g>
  <title>background</title>
  <rect fill="none" id="canvas_background" height="322" width="722" y="-1" x="-1"/>
 </g>
 <g>
  <title>Layer 1</title>

  <metadata transform="matrix(7.111152225129956,0,0,7.111152225129956,0,0) " id="svg_14">Created by potrace 1.12, written by Peter Selinger 2001-2015image/svg+xmlInstagram icon</metadata>
  <g stroke="null" id="svg_44">
   <g stroke="null" id="svg_42">
    <path stroke="null" fill="#452768" fill-rule="nonzero" id="path5" d="m95.819098,148.417335l-2.394287,0l0,17.684149l-10.165231,0l0,-59.797245l10.165231,0l0,35.278272l2.052246,-1.194141l7.086862,-17.000067l11.023326,0l-7.860948,16.910052l-3.672447,2.904356l4.014488,2.904346l8.713058,19.994427l-11.449386,0l-7.512912,-17.684149"/>
    <path stroke="null" fill="#452768" fill-rule="nonzero" id="path7" d="m118.549853,125.950619c1.710205,-1.026123 3.840465,-1.848214 6.402769,-2.478296c2.568311,-0.624076 5.472667,-0.936119 8.713058,-0.936119c4.842585,0 8.202989,1.248152 10.081222,3.756466c1.938229,2.502288 2.904346,6.066734 2.904346,10.67529c0,2.676311 -0.083977,5.328652 -0.252026,7.944957c-0.114017,2.562315 -0.204021,5.100617 -0.258032,7.602926c-0.060059,2.448287 -0.029977,4.842574 0.083977,7.176855c0.174013,2.274275 0.570065,4.440548 1.194141,6.492795l-8.281002,0l-1.626196,-5.214645l-0.342041,0c-0.912116,1.656215 -2.190266,3.018384 -3.840465,4.104513c-1.656205,1.080123 -3.732453,1.62019 -6.240758,1.62019c-3.360404,0 -6.006728,-1.110132 -7.944957,-3.330395c-1.932234,-2.280291 -2.904356,-5.298643 -2.904356,-9.055099c0,-5.12462 1.824222,-8.767058 5.472667,-10.933322c3.642439,-2.166274 8.569032,-3.07838 14.773786,-2.736339c0.28803,-3.300398 0.059953,-5.694685 -0.684082,-7.170871c-0.684082,-1.482171 -2.190266,-2.220264 -4.524547,-2.220264c-1.710216,0 -3.474421,0.198037 -5.298643,0.594078c-1.818227,0.402047 -3.444423,0.972112 -4.866588,1.710205l-2.562315,-7.602926m12.211471,32.031874c1.542188,0 2.796345,-0.372049 3.762462,-1.110121c0.966117,-0.79811 1.680197,-1.650209 2.136255,-2.562315l0,-7.086851c-1.314153,-0.174023 -2.562305,-0.204043 -3.762451,-0.090036c-1.194151,0.113985 -2.244277,0.372049 -3.156383,0.768091c-0.912116,0.402058 -1.656205,0.996125 -2.220274,1.794224c-0.516054,0.744099 -0.774086,1.710205 -0.774086,2.904356c0,1.770211 0.342041,3.108367 1.026123,4.014488c0.744088,0.912106 1.740203,1.368153 2.988354,1.368153"/>
    <path stroke="null" fill="#452768" fill-rule="nonzero" id="path9" d="m150.335697,123.388303l4.69857,0l0,-8.028965l10.165231,-3.162378l0,11.191343l8.286998,0l0,9.055099l-8.286998,0l0,18.620267c0,2.448287 0.228024,4.188501 0.684082,5.208618c0.510059,1.026123 1.392167,1.542198 2.646324,1.542198c0.85211,0 1.626196,-0.090036 2.304283,-0.258043c0.684071,-0.168028 1.42817,-0.42606 2.22627,-0.768091l1.278149,8.112985c-1.254157,0.630071 -2.70633,1.14014 -4.356529,1.536182c-1.650199,0.456048 -3.390412,0.684082 -5.208629,0.684082c-3.246397,0 -5.694695,-0.936108 -7.350889,-2.814342c-1.590193,-1.884218 -2.388292,-5.040611 -2.388292,-9.487144l0,-22.376713l-4.69857,0l0,-9.055099"/>
    <path stroke="null" fill="#452768" fill-rule="nonzero" id="path11" d="m179.379217,123.388303l10.165231,0l0,42.713181l-10.165231,0l0,-42.713181m-1.194151,-12.043454c0,-1.710205 0.540078,-3.102372 1.620201,-4.188501c1.086129,-1.14014 2.622311,-1.710205 4.614561,-1.710205c1.992229,0 3.588438,0.546062 4.782579,1.626196c1.194141,1.080123 1.794214,2.508304 1.794214,4.27251c0,1.764227 -0.600073,3.156393 -1.794214,4.182506c-1.194141,1.026123 -2.79035,1.536182 -4.782579,1.536182c-1.99225,0 -3.528432,-0.510059 -4.614561,-1.536182c-1.080123,-1.080123 -1.620201,-2.478296 -1.620201,-4.182506"/>
    <path stroke="null" fill="#452768" fill-rule="nonzero" id="path13" d="m226.586935,162.939085c-1.428181,1.254168 -3.360414,2.274285 -5.808702,3.072374c-2.448298,0.79811 -5.010613,1.200147 -7.686935,1.200147c-2.964363,0 -5.526678,-0.516054 -7.69293,-1.542177c-2.106268,-1.020117 -3.840465,-2.502309 -5.208639,-4.440548c-1.368153,-1.938229 -2.394287,-4.27251 -3.072374,-7.002832c-0.63006,-2.79035 -0.942114,-5.952728 -0.942114,-9.481149c0,-7.686935 1.506184,-13.357628 4.524547,-17.000056c3.07838,-3.702455 7.320892,-5.55067 12.727546,-5.55067c1.824222,0 3.588438,0.282024 5.298643,0.8521c1.710205,0.510059 3.216389,1.422175 4.530553,2.730333c1.362169,1.254157 2.448298,2.964363 3.240381,5.130615c0.858116,2.106257 1.284166,4.782568 1.284166,8.028976c0,1.248152 -0.083977,2.592313 -0.258032,4.014488c-0.113985,1.422164 -0.312033,2.958357 -0.594078,4.608555l-20.762507,0c0.113985,3.534427 0.858095,6.240758 2.22627,8.11897c1.362158,1.878233 3.558419,2.820347 6.576803,2.820347c1.818206,0 3.4744,-0.28803 4.950586,-0.858095c1.542188,-0.570075 2.70633,-1.164153 3.504419,-1.794224l3.162399,7.092847m-13.32763,-32.031864c-2.166253,0 -3.786454,0.882108 -4.866577,2.646324c-1.086129,1.710205 -1.710205,4.128495 -1.884239,7.260875l11.791427,0c0.168028,-3.246397 -0.174023,-5.694685 -1.026112,-7.344894c-0.85211,-1.710205 -2.190276,-2.562305 -4.014499,-2.562305"/>
    <path stroke="null" fill="#452768" fill-rule="nonzero" id="path15" d="m283.155769,124.756478l5.640684,0l-3.330406,23.318816c-0.684071,5.178631 0.143941,7.770944 2.478306,7.770944c1.134134,0 2.244277,-0.342041 3.330406,-1.026123c1.14014,-0.678087 2.136265,-1.734218 2.988354,-3.156383c0.912106,-1.422175 1.620201,-3.246397 2.136265,-5.466661c0.570065,-2.220264 0.85211,-4.872594 0.85211,-7.944967c0,-3.930469 -0.570086,-7.290873 -1.70422,-10.081222c-1.086129,-2.844339 -2.622311,-5.154618 -4.614561,-6.918823c-1.992229,-1.824222 -4.356518,-3.162399 -7.092847,-4.014488c-2.730343,-0.8521 -5.718698,-1.284155 -8.965095,-1.284155c-3.648434,0 -7.062859,0.744078 -10.255235,2.22627c-3.132369,1.422175 -5.862713,3.444402 -8.196994,6.060728c-2.28027,2.622322 -4.098497,5.754691 -5.466661,9.39714c-1.314153,3.642439 -1.968237,7.686924 -1.968237,12.133458c0,8.713069 2.166253,15.343862 6.492784,19.898417c4.326531,4.56055 10.393255,6.834836 18.194207,6.834836c1.482171,0 3.108378,-0.198037 4.872583,-0.594078c1.818227,-0.402047 3.444413,-0.972112 4.866588,-1.710205l2.478296,7.428892c-1.824222,0.972123 -3.816451,1.680197 -5.976719,2.136265c-2.166263,0.516064 -4.614561,0.768091 -7.350889,0.768091c-4.494549,0 -8.713048,-0.684082 -12.643537,-2.046251c-3.870462,-1.368175 -7.260875,-3.474421 -10.16522,-6.324766c-2.904356,-2.790339 -5.208629,-6.348769 -6.918834,-10.67529c-1.650209,-4.386538 -2.472301,-9.571164 -2.472301,-15.547883c0,-5.97673 0.936108,-11.33538 2.814342,-16.057952c1.938239,-4.728557 4.500533,-8.713048 7.69293,-11.959434c3.18638,-3.246387 6.858827,-5.724693 11.01732,-7.434909c4.158524,-1.704199 8.515032,-2.562305 13.069598,-2.562305c4.32651,0 8.371017,0.654074 12.127462,1.968237c3.816462,1.254147 7.092868,3.156383 9.82319,5.718687c2.790339,2.508304 4.9866,5.670693 6.576793,9.487144c1.596198,3.756466 2.394287,8.142993 2.394287,13.153596c0,3.756466 -0.570065,7.260896 -1.710205,10.507283c-1.080123,3.186391 -2.562315,5.946711 -4.440527,8.286998c-1.878233,2.274285 -4.098497,4.068488 -6.660812,5.376657c-2.508304,1.314164 -5.184626,1.968237 -8.028965,1.968237c-2.334281,0 -4.332537,-0.600084 -5.982725,-1.794224c-1.596209,-1.194151 -2.334291,-3.276384 -2.220274,-6.234762l-0.258043,0c-1.308147,2.160268 -2.904335,4.044507 -4.782568,5.634689c-1.824222,1.596198 -4.068488,2.394298 -6.74481,2.394298c-2.454304,0 -4.530553,-1.080145 -6.240758,-3.246397c-1.70421,-2.166263 -2.562315,-5.184626 -2.562315,-9.055089c0,-3.816473 0.456048,-7.404911 1.368164,-10.765315c0.966117,-3.360404 2.250283,-6.288763 3.846471,-8.797056c1.590193,-2.562315 3.444423,-4.584553 5.55067,-6.066745c2.106257,-1.476175 4.356529,-2.220264 6.750816,-2.220264c1.590193,0 2.958357,0.288041 4.098497,0.858095c1.14014,0.570086 2.190266,1.338177 3.162389,2.304283l2.130249,-2.646313m-4.524547,9.82319c-1.026123,-1.200147 -2.364279,-1.794214 -4.014488,-1.794214c-1.308147,0 -2.508294,0.48005 -3.588438,1.452173c-1.080123,0.912106 -2.022227,2.160257 -2.820326,3.756445c-0.79811,1.536182 -1.422186,3.330406 -1.878233,5.382663c-0.456058,1.99224 -0.684082,4.068488 -0.684082,6.234741c0,1.99225 0.312033,3.534449 0.942114,4.614572c0.684082,1.080134 1.710205,1.62019 3.072374,1.62019c1.254147,0 2.508304,-0.684071 3.762462,-2.04624c1.308147,-1.428181 2.388271,-2.99436 3.246387,-4.698581l1.962231,-14.521749"/>
    <path stroke="null" fill="#452768" fill-rule="nonzero" id="path17" d="m344.993259,166.101484c0,6.204743 -1.422175,10.759288 -4.27252,13.663655c-2.850345,2.964363 -6.804827,4.440527 -11.875436,4.440527c-3.528421,0 -6.288763,-0.282035 -8.287008,-0.852089c-1.992229,-0.510069 -3.528411,-1.080145 -4.608555,-1.710205l2.136265,-8.623065c1.248152,0.51008 2.586307,0.996125 4.014488,1.452194c1.476165,0.450052 3.216389,0.678065 5.208618,0.678065c2.904367,0 4.896596,-0.792083 5.982725,-2.388271c1.134134,-1.536192 1.70421,-3.900492 1.70421,-7.092868l0,-2.304272l-0.252026,0c-0.79811,1.14014 -1.884239,1.992229 -3.246397,2.562305c-1.314153,0.570065 -3.018363,0.8521 -5.130615,0.8521c-4.494549,0 -7.88495,-1.680207 -10.165242,-5.034605c-2.220264,-3.42041 -3.330406,-8.803073 -3.330406,-16.147956c0,-7.914959 1.542198,-13.753659 4.614572,-17.510114c3.132369,-3.762451 7.572918,-5.640684 13.327609,-5.640684c3.072374,0 5.832715,0.258032 8.286998,0.768091c2.448298,0.456058 4.410551,1.026123 5.892721,1.710205l0,41.176988m-15.805915,-8.034971c1.536192,0 2.736339,-0.366044 3.588438,-1.110142c0.912116,-0.738093 1.596188,-1.794203 2.052235,-3.156372l0,-21.356596c-0.63006,-0.28803 -1.338156,-0.516054 -2.136244,-0.684082c-0.738093,-0.174013 -1.626207,-0.258032 -2.646324,-0.258032c-2.112263,0 -3.762462,1.026134 -4.956602,3.07838c-1.14014,2.046251 -1.710205,5.580667 -1.710205,10.591281c0,8.599052 1.938239,12.895564 5.808702,12.895564"/>
    <path stroke="null" fill="#452768" fill-rule="nonzero" id="path19" d="m362.617391,152.2578c0,1.998246 0.204021,3.42041 0.600073,4.27252c0.396041,0.858095 1.056121,1.284166 1.962242,1.284166c0.516054,0 1.026112,-0.060059 1.542177,-0.174023c0.570086,-0.113985 1.194151,-0.312043 1.878233,-0.594078l0.936108,8.196983c-0.678076,0.456069 -1.848214,0.882108 -3.498424,1.284155c-1.650199,0.396052 -3.330395,0.594078 -5.0406,0.594078c-2.850356,0 -4.9866,-0.708085 -6.408786,-2.136255c-1.422175,-1.422186 -2.136255,-3.840465 -2.136255,-7.260885l0,-51.420222l10.165231,0l0,45.953561"/>
    <path stroke="null" fill="#452768" fill-rule="nonzero" id="path21" d="m373.05865,125.950619c1.70422,-1.026123 3.840465,-1.848214 6.40278,-2.478296c2.562315,-0.624076 5.46665,-0.936119 8.713058,-0.936119c4.842585,0 8.202989,1.248152 10.081222,3.756466c1.938218,2.502288 2.904346,6.066734 2.904346,10.67529c0,2.676311 -0.083977,5.328652 -0.258032,7.944957c-0.113985,2.562315 -0.198015,5.100617 -0.252026,7.602926c-0.060059,2.448287 -0.029977,4.842574 0.083977,7.176855c0.168007,2.274275 0.570065,4.440548 1.194141,6.492795l-8.287008,0l-1.620201,-5.214645l-0.34203,0c-0.912106,1.656215 -2.190276,3.018384 -3.846471,4.104513c-1.650199,1.080123 -3.726447,1.62019 -6.234752,1.62019c-3.360404,0 -6.006728,-1.110132 -7.944967,-3.330395c-1.932223,-2.280291 -2.904346,-5.298643 -2.904346,-9.055099c0,-5.12462 1.824222,-8.767058 5.466661,-10.933322c3.648445,-2.166274 8.575038,-3.07838 14.779782,-2.736339c0.288041,-3.300398 0.060059,-5.694685 -0.684082,-7.170871c-0.684071,-1.482171 -2.190255,-2.220264 -4.524536,-2.220264c-1.710205,0 -3.474432,0.198037 -5.298643,0.594078c-1.818216,0.402047 -3.444423,0.972112 -4.866598,1.710205l-2.562326,-7.602926m12.211482,32.031874c1.542188,0 2.790339,-0.372049 3.762462,-1.110121c0.966117,-0.79811 1.680197,-1.650209 2.136244,-2.562315l0,-7.086851c-1.314142,-0.174023 -2.562294,-0.204043 -3.76244,-0.090036c-1.194151,0.113985 -2.250283,0.372049 -3.156383,0.768091c-0.912116,0.402058 -1.656215,0.996125 -2.22627,1.794224c-0.510069,0.744099 -0.768101,1.710205 -0.768101,2.904356c0,1.770211 0.342052,3.108367 1.026134,4.014488c0.744078,0.912106 1.740203,1.368153 2.988354,1.368153"/>
    <path stroke="null" fill="#452768" fill-rule="nonzero" id="path23" d="m422.528642,154.736107c0,-1.194141 -0.402047,-2.190266 -1.200136,-2.988365c-0.738093,-0.8521 -1.70422,-1.620201 -2.904367,-2.304272c-1.194141,-0.744099 -2.478296,-1.482181 -3.840465,-2.220264c-1.314153,-0.744099 -2.562305,-1.656215 -3.762451,-2.736339c-1.194141,-1.080134 -2.190266,-2.394298 -2.988365,-3.930479c-0.738082,-1.536192 -1.110132,-3.474421 -1.110132,-5.808702c0,-3.98449 1.080134,-7.062849 3.246397,-9.223106c2.166253,-2.166274 5.352644,-3.246397 9.565158,-3.246397c2.508304,0 4.872583,0.282035 7.092868,0.852089c2.220264,0.516075 3.98448,1.170149 5.292637,1.968237l-2.388302,7.854953c-1.086129,-0.456048 -2.394276,-0.882087 -3.930469,-1.278149c-1.536182,-0.456048 -3.048371,-0.684082 -4.524557,-0.684082c-2.796334,0 -4.188501,1.164143 -4.188501,3.498424c0,1.08614 0.372049,1.998246 1.110142,2.736328c0.798089,0.684093 1.794214,1.368175 2.988354,2.052246c1.200147,0.684082 2.448298,1.392177 3.762462,2.136265c1.362158,0.738093 2.646324,1.674201 3.840465,2.814342c1.19413,1.086129 2.166263,2.424285 2.904335,4.014488c0.79811,1.596188 1.194162,3.55843 1.200147,5.898706c-0.006378,3.924484 -1.200147,7.086851 -3.588417,9.48116c-2.394298,2.388271 -5.952728,3.588417 -10.681306,3.588417c-2.334281,0 -4.638553,-0.28803 -6.918823,-0.858095c-2.220285,-0.570065 -4.014499,-1.308158 -5.382663,-2.220264l2.820347,-8.196994c1.194141,0.678087 2.562315,1.278149 4.098497,1.788208c1.596188,0.516064 3.246397,0.774097 4.956602,0.774097c1.308147,0 2.394276,-0.28803 3.246387,-0.858095c0.85211,-0.624076 1.284155,-1.590203 1.284155,-2.904356"/>
    <path stroke="null" fill="#452768" fill-rule="nonzero" id="path25" d="m459.223094,166.101484l0,-25.971146c0,-3.132369 -0.372049,-5.322635 -1.110142,-6.576793c-0.738093,-1.254157 -1.99225,-1.878233 -3.756456,-1.878233c-1.482181,0 -2.766326,0.456058 -3.846471,1.362169c-1.080123,0.912106 -1.848214,2.052246 -2.304272,3.42041l0,29.643593l-10.165242,0l0,-42.713181l8.112985,0l1.194151,4.956602l0.258043,0c1.026102,-1.656194 2.418279,-3.048361 4.188501,-4.188501c1.764216,-1.194141 4.068488,-1.794224 6.918823,-1.794224c1.70422,0 3.216389,0.258032 4.524557,0.768091c1.368164,0.516075 2.508304,1.368175 3.42041,2.562315c0.906111,1.14014 1.590203,2.70633 2.046251,4.698581c0.456058,1.938218 0.684082,4.356518 0.684082,7.260875l0,28.449442l-10.16522,0"/>
    <path stroke="null" fill="#452768" fill-rule="nonzero" id="path27" d="m473.078768,123.388303l4.698559,0l0,-8.028965l10.165231,-3.162378l0,11.191343l8.287008,0l0,9.055099l-8.287008,0l0,18.620267c0,2.448287 0.228034,4.188501 0.684082,5.208618c0.516064,1.026123 1.398172,1.542198 2.646324,1.542198c0.858105,0 1.626196,-0.090036 2.310278,-0.258043c0.684093,-0.168028 1.422164,-0.42606 2.220274,-0.768091l1.278149,8.112985c-1.248152,0.630071 -2.700335,1.14014 -4.356529,1.536182c-1.650199,0.456048 -3.384417,0.684082 -5.208639,0.684082c-3.246387,0 -5.694685,-0.936108 -7.344883,-2.814342c-1.596188,-1.884218 -2.394287,-5.040611 -2.394287,-9.487144l0,-22.376713l-4.698559,0l0,-9.055099"/>
    <path stroke="null" fill="#452768" fill-rule="nonzero" id="path29" d="m505.41668,160.544808c0,-2.106246 0.540056,-3.702455 1.626186,-4.782579c1.14014,-1.080123 2.616326,-1.620201 4.440548,-1.620201c1.992229,0 3.528421,0.540078 4.614551,1.620201c1.080134,1.080123 1.620201,2.676332 1.620201,4.782579c0,2.052246 -0.570065,3.648445 -1.710205,4.782579c-1.080145,1.14014 -2.586307,1.710205 -4.524547,1.710205c-1.878233,0 -3.360404,-0.570065 -4.440548,-1.710205c-1.086129,-1.134134 -1.626186,-2.730333 -1.626186,-4.782579"/>
    <path stroke="null" fill="#452768" fill-rule="nonzero" id="path31" d="m549.570022,163.791195c-1.422186,1.14014 -3.132391,1.99225 -5.12462,2.562315c-1.99225,0.570065 -3.98448,0.858095 -5.97673,0.858095c-2.904346,0 -5.352644,-0.516054 -7.344894,-1.542177c-1.938229,-1.080134 -3.534417,-2.586318 -4.788564,-4.524547c-1.248152,-1.99224 -2.160257,-4.356529 -2.730343,-7.092857c-0.516064,-2.790339 -0.768091,-5.892721 -0.768091,-9.307125c0,-7.464907 1.338177,-13.069587 4.014488,-16.832049c2.676322,-3.756445 6.60679,-5.634668 11.785432,-5.634668c2.562315,0 4.64457,0.228013 6.234752,0.684082c1.656205,0.456048 3.108378,1.026123 4.356529,1.704199l-2.388292,8.461032c-1.026134,-0.516064 -2.022238,-0.882108 -2.988365,-1.110142c-0.912106,-0.28803 -2.022248,-0.432045 -3.336412,-0.432045c-2.388271,0 -4.182495,1.056121 -5.376646,3.162378c-1.200147,2.052246 -1.794203,5.382652 -1.794203,9.997213c0,3.870473 0.594057,7.032851 1.794203,9.481149c1.248152,2.448287 3.216389,3.672436 5.892721,3.672436c1.422164,0 2.616316,-0.174023 3.588438,-0.510069c1.026123,-0.402047 1.962231,-0.888093 2.814331,-1.452162l2.136265,7.854942"/>
    <path stroke="null" fill="#452768" fill-rule="nonzero" id="path33" d="m551.532264,144.744899c0,-7.572918 1.482171,-13.213602 4.440527,-16.916047c2.964363,-3.702455 7.092857,-5.55067 12.385495,-5.55067c5.694706,0 9.937207,1.878223 12.727546,5.634668c2.79035,3.762462 4.188501,9.367142 4.188501,16.832049c0,7.626918 -1.482171,13.2976 -4.440527,17.000056c-2.964363,3.642428 -7.122866,5.46665 -12.47552,5.46665c-11.215356,0 -16.826022,-7.488909 -16.826022,-22.466706m10.507261,0c0,4.266514 0.480061,7.572907 1.452183,9.907188c0.966106,2.334281 2.592313,3.50443 4.866577,3.50443c2.166274,0 3.762462,-0.996115 4.782589,-2.99435c1.086129,-2.046261 1.626196,-5.520672 1.626196,-10.417268c0,-4.386527 -0.486067,-7.716933 -1.452173,-9.997213c-0.966127,-2.274285 -2.622311,-3.414404 -4.956613,-3.414404c-1.992229,0 -3.558419,1.026123 -4.698559,3.072363c-1.080123,1.99224 -1.620201,5.442669 -1.620201,10.339254"/>
    <path stroke="null" fill="#452768" fill-rule="nonzero" id="path35" d="m610.843431,166.101484l0,-24.861004c0,-3.588438 -0.288041,-6.066734 -0.858095,-7.428903c-0.570065,-1.428181 -1.680207,-2.136265 -3.330406,-2.136265c-1.368164,0 -2.502298,0.456058 -3.414404,1.362169c-0.858116,0.858105 -1.51219,1.908231 -1.968237,3.162389l0,29.901615l-10.165242,0l0,-42.713181l7.860959,0l1.278149,5.12463l0.258032,0c1.080123,-1.764216 2.418279,-3.216389 4.014488,-4.356529c1.650199,-1.194141 3.816451,-1.794224 6.492784,-1.794224c2.220264,0 4.014477,0.486067 5.382652,1.452194c1.422175,0.966106 2.532296,2.676311 3.330395,5.124609c1.080134,-2.046251 2.508315,-3.642439 4.27251,-4.782579c1.764227,-1.194141 3.840465,-1.794224 6.234773,-1.794224c1.878212,0 3.474421,0.258032 4.782568,0.768091c1.368164,0.456069 2.448298,1.284166 3.246397,2.478306c0.85211,1.194151 1.482171,2.850345 1.878233,4.956602c0.402047,2.046251 0.600063,4.668562 0.600063,7.854953l0,27.681351l-10.165231,0l0,-25.971146c0,-2.904356 -0.258022,-5.040611 -0.768091,-6.408786c-0.516054,-1.362147 -1.650188,-2.04624 -3.42041,-2.04624c-1.422175,0 -2.586307,0.42606 -3.498424,1.278149c-0.858116,0.79811 -1.482192,1.908231 -1.878233,3.330406l0,29.817617l-10.165231,0"/>
   </g>
   <path stroke="#000000" fill="none" stroke-width="2.140645" stroke-miterlimit="4" stroke-opacity="0.56621" id="path67" d="m233.511571,181.903436l0,15.973933l267.616194,0l0,-15.973933"/>
   <g stroke="null" id="svg_40">
    <g stroke="null" id="svg_16">
     <g stroke="null" fill="#000000" id="svg_10" transform="matrix(0.01037775927804158,0,0,-0.010362365833315547,469.08846951944025,349.86594206998745) ">
      <path stroke="null" fill="#4c4c4c" id="svg_13" d="m-11525.238621,12694.685471l-3,-508l-48,-3c-27,-2 -55,2 -63,9c-12,10 -14,90 -14,500c0,555 10,502 -90,471l-55,-18l-5,-479l-5,-480l-53,-3c-31,-2 -60,2 -68,9c-12,10 -14,82 -14,435c0,390 -1,424 -17,424c-9,0 -60,-44 -114,-98c-86,-87 -103,-111 -147,-203c-84,-172 -85,-176 -89,-571l-5,-348l671,0c369,0 671,4 671,8c0,13 119,107 191,150c87,53 188,95 295,123c131,34 340,33 475,-3c160,-43 317,-124 436,-225l62,-53l666,0l667,0l-4,353c-4,329 -6,357 -27,427c-42,142 -93,224 -215,346c-122,121 -203,172 -346,216l-75,23l-1197,3l-1198,3l-2,-508l-3,-508l-48,-3c-27,-2 -55,2 -63,9c-12,10 -14,91 -14,510l0,499l-75,0l-75,0l-2,-507zm2872,122c17,-9 39,-33 50,-55c18,-36 20,-59 20,-277c0,-344 11,-333 -329,-333c-258,0 -289,7 -322,72c-19,37 -20,55 -17,289l3,251l37,34l38,34l245,0c201,0 251,-3 275,-15z"/>
      <path stroke="null" fill="#4c4c4c" id="svg_12" d="m-10368.238621,11924.685471c-352,-49 -638,-331 -695,-686c-17,-103 -8,-270 20,-367c39,-137 92,-223 210,-340c117,-118 193,-167 312,-205c468,-148 948,112 1069,580c27,104 29,300 5,395c-44,171 -98,264 -231,395c-129,129 -240,187 -413,221c-69,13 -207,17 -277,7zm220,-248c78,-16 234,-90 280,-133c81,-75 147,-183 181,-298c25,-82 22,-218 -5,-304c-76,-241 -306,-413 -551,-413c-90,0 -159,18 -260,66c-195,92 -323,297 -323,517c-1,269 194,506 464,564c84,19 129,19 214,1z"/>
      <path stroke="null" fill="#4c4c4c" id="svg_11" d="m-12311.238621,10724.685471l3,-1008l23,-75c44,-143 95,-224 216,-346c124,-123 207,-174 352,-216l79,-23l1385,0l1385,0l79,23c159,46 270,115 389,242c83,88 151,206 189,330l23,75l3,1003l3,1002l-616,0c-536,0 -615,-2 -615,-15c0,-8 16,-40 36,-70c189,-297 208,-678 50,-994c-162,-322 -460,-529 -823,-571c-292,-34 -630,92 -840,314c-84,88 -131,158 -193,289c-73,151 -94,249 -94,427c0,117 4,162 22,234c26,105 74,219 125,299c20,32 37,64 37,72c0,13 -78,15 -610,15l-611,0l3,-1007z"/>
     </g>
    </g>
    <path stroke="null" fill="#4c4c4c" fill-rule="nonzero" id="svg_17" d="m406.921353,247.581369c-0.294025,0.06006 -0.42605,0.198037 -0.390047,0.420055c0.03593,0.228035 0.204022,0.300042 0.504053,0.228035c0.300042,-0.078024 0.432055,-0.210028 0.390056,-0.396042c-0.035929,-0.204032 -0.204021,-0.288041 -0.504063,-0.252048zm0,0"/>
    <path stroke="null" fill="#4c4c4c" fill-rule="nonzero" id="svg_18" d="m405.325155,247.809404c-0.294037,0 -0.444047,0.102048 -0.444047,0.306037c0,0.240036 0.156017,0.348048 0.474055,0.306048c0.300032,0 0.450053,-0.102048 0.450053,-0.306048c0,-0.240025 -0.162022,-0.348036 -0.480061,-0.306037zm0,0"/>
    <path stroke="null" fill="#4c4c4c" fill-rule="nonzero" id="svg_19" d="m403.140905,247.725395c-0.072071,0.204032 0.047941,0.342041 0.366044,0.420055c0.282024,0.10799 0.456048,0.054106 0.53405,-0.168018c0.054107,-0.210027 -0.066012,-0.354042 -0.366043,-0.450052c-0.282025,-0.072072 -0.456048,-0.012331 -0.534051,0.198015zm0,0"/>
    <path stroke="null" fill="#4c4c4c" fill-rule="nonzero" id="svg_20" d="m431.584324,215.363481c-1.578181,-1.572185 -3.480406,-2.364278 -5.70068,-2.364278l-26.883252,0c-2.220274,0 -4.12251,0.792093 -5.70069,2.364278c-1.572197,1.578192 -2.364279,3.480417 -2.364279,5.700702l0,26.883252c0,2.220264 0.792082,4.122489 2.364279,5.70068c1.57818,1.578202 3.480417,2.364289 5.70069,2.364289l6.270756,0c0.414048,0 0.720096,-0.01233 0.924117,-0.041882c0.210027,-0.029977 0.414048,-0.150085 0.61806,-0.366044c0.204042,-0.210027 0.306047,-0.522049 0.306047,-0.936098c0,-0.054107 0,-0.690088 -0.01233,-1.902246c-0.012331,-1.218132 -0.012331,-2.178254 -0.012331,-2.886339l-0.648078,0.113986c-0.408042,0.072071 -0.924107,0.10799 -1.554189,0.095989c-0.624075,-0.012331 -1.272154,-0.072072 -1.944235,-0.198037c-0.672081,-0.11997 -1.296156,-0.402047 -1.878234,-0.840088c-0.576071,-0.438062 -0.990119,-1.008126 -1.230144,-1.722217l-0.282024,-0.642083c-0.186036,-0.42605 -0.480061,-0.9061 -0.882109,-1.428159c-0.402058,-0.522071 -0.804105,-0.876124 -1.218153,-1.062138l-0.19202,-0.143941c-0.131961,-0.090036 -0.252026,-0.204022 -0.366044,-0.336035c-0.113985,-0.125965 -0.198036,-0.258032 -0.252026,-0.390057c-0.054107,-0.13196 -0.01233,-0.240025 0.137946,-0.324023c0.150085,-0.083976 0.420054,-0.125976 0.816096,-0.125976l0.558074,0.083976c0.372049,0.078024 0.834102,0.300032 1.38617,0.672081c0.552058,0.378056 1.002121,0.858117 1.356163,1.458179c0.432055,0.762095 0.94812,1.350178 1.554189,1.752226c0.606069,0.396041 1.218154,0.600062 1.836223,0.600062c0.61806,0 1.146125,-0.047941 1.596188,-0.137946c0.450053,-0.095988 0.870107,-0.23404 1.260143,-0.420054c0.168028,-1.254157 0.624075,-2.214279 1.37418,-2.88636c-1.068143,-0.113986 -2.022248,-0.282024 -2.874358,-0.504053c-0.846094,-0.222028 -1.722196,-0.588071 -2.628317,-1.092135c-0.906111,-0.504052 -1.656194,-1.128129 -2.256278,-1.878234c-0.600063,-0.744077 -1.086129,-1.728212 -1.47017,-2.940349c-0.384051,-1.212148 -0.576071,-2.61032 -0.576071,-4.200502c0,-2.256278 0.738093,-4.182516 2.214268,-5.766703c-0.690077,-1.698215 -0.624075,-3.606446 0.198037,-5.712693c0.540056,-0.168017 1.344161,-0.041882 2.406277,0.378035c1.062138,0.420054 1.842229,0.780113 2.340287,1.080144c0.492052,0.294037 0.888104,0.546063 1.188146,0.75609c1.734208,-0.486056 3.528421,-0.732097 5.376657,-0.732097c1.848214,0 3.642428,0.246042 5.376646,0.732097l1.062116,-0.672081c0.732109,-0.450052 1.590203,-0.8641 2.580323,-1.236149c0.990119,-0.372049 1.746209,-0.474055 2.268269,-0.306038c0.840109,2.106246 0.912106,4.014478 0.222028,5.712693c1.476175,1.584187 2.214268,3.510425 2.214268,5.766703c0,1.590182 -0.19202,2.99436 -0.576071,4.218498c-0.38404,1.218154 -0.876102,2.202267 -1.482171,2.94036c-0.606069,0.732097 -1.362169,1.356174 -2.26829,1.860226c-0.906099,0.504064 -1.782202,0.870107 -2.634312,1.092135c-0.846093,0.222029 -1.806215,0.390036 -2.868353,0.504053c0.972133,0.840109 1.452194,2.166274 1.452194,3.978495l0,6.690811c0,0.318038 0.047941,0.57607 0.143941,0.76809c0.090036,0.198015 0.240026,0.33004 0.444046,0.408043c0.210028,0.072071 0.390035,0.119981 0.552058,0.137945c0.156038,0.017965 0.384051,0.029977 0.684093,0.029977l6.270766,0c2.220263,0 4.122488,-0.786087 5.700669,-2.364289c1.578202,-1.578192 2.3643,-3.480417 2.3643,-5.70068l0,-26.883252c0,-2.220284 -0.786098,-4.122509 -2.3643,-5.700701l0.000797,-0.000138zm0,0"/>
    <path stroke="null" fill="#4c4c4c" fill-rule="nonzero" id="svg_21" d="m399.924516,244.304985c-0.13196,0.095989 -0.113985,0.246031 0.054107,0.450053c0.186025,0.186014 0.336036,0.216033 0.450053,0.083977c0.131961,-0.095989 0.10799,-0.240026 -0.060059,-0.450053c-0.186025,-0.168028 -0.336036,-0.192031 -0.444046,-0.083977l-0.000054,0zm0,0"/>
    <path stroke="null" fill="#4c4c4c" fill-rule="nonzero" id="svg_22" d="m399.000388,243.608902c-0.060059,0.13196 0.006378,0.240035 0.19202,0.336045c0.150095,0.090036 0.276039,0.072072 0.366043,-0.060059c0.054107,-0.125965 -0.006377,-0.240025 -0.198015,-0.336035c-0.186024,-0.054107 -0.306037,-0.035929 -0.360048,0.060059l0,-0.00001zm0,0"/>
    <path stroke="null" fill="#4c4c4c" fill-rule="nonzero" id="svg_23" d="m400.788617,245.397121c-0.168028,0.095988 -0.168028,0.264017 0,0.504052c0.168017,0.246031 0.33004,0.312043 0.480061,0.198027c0.168007,-0.131961 0.168007,-0.306037 0,-0.534072c-0.150085,-0.240026 -0.312043,-0.294025 -0.480061,-0.168007zm0,0"/>
    <path stroke="null" fill="#4c4c4c" fill-rule="nonzero" id="svg_24" d="m401.772731,246.657262c-0.168018,0.150085 -0.131961,0.33005 0.113985,0.534072c0.222028,0.222028 0.408043,0.252026 0.558064,0.083977c0.150085,-0.150085 0.10799,-0.324045 -0.113986,-0.534072c-0.222028,-0.222018 -0.408042,-0.252027 -0.558063,-0.083977zm0,0"/>
    <path stroke="null" fill="#4c4c4c" fill-rule="nonzero" id="svg_26" d="m330.699705,215.363479c-1.578202,-1.572185 -3.480438,-2.364278 -5.700702,-2.364278l-26.883252,0c-2.220264,0 -4.122489,0.792093 -5.700691,2.364278c-1.578191,1.578192 -2.364289,3.480417 -2.364289,5.700702l0,26.883252c0,2.220264 0.786099,4.122489 2.364289,5.70068c1.578202,1.578202 3.480427,2.364289 5.700691,2.364289l26.883252,0c2.220263,0 4.1225,-0.786087 5.694695,-2.364289c1.578192,-1.578191 2.370284,-3.480416 2.370284,-5.70068l0,-26.883252c0,-2.220285 -0.792093,-4.12251 -2.364278,-5.700702zm-7.746941,14.185714c0.017964,0.168028 0.029976,0.420055 0.029976,0.75609c0,1.56619 -0.228034,3.144392 -0.684081,4.716567c-0.462054,1.578202 -1.158148,3.09038 -2.100262,4.536559c-0.942103,1.452172 -2.070254,2.730332 -3.378411,3.840465c-1.302141,1.110131 -2.874337,1.998245 -4.704566,2.658325c-1.824222,0.666075 -3.786454,0.996114 -5.880699,0.996114c-3.246397,0 -6.252769,-0.882097 -9.0131,-2.634312c0.444046,0.054107 0.912106,0.083976 1.398173,0.083976c2.706319,0 5.142616,-0.840109 7.30888,-2.520305c-1.266148,-0.017964 -2.400282,-0.408042 -3.402413,-1.176133c-0.996115,-0.762106 -1.692208,-1.734218 -2.08825,-2.910352c0.486066,0.072072 0.85211,0.107991 1.092135,0.107991c0.414048,0 0.888104,-0.072072 1.42816,-0.222018c-1.362148,-0.264049 -2.508294,-0.93613 -3.444402,-2.028244c-0.930113,-1.092135 -1.398173,-2.340287 -1.398173,-3.73847l0,-0.060059c0.990119,0.468059 1.920233,0.71408 2.802341,0.732087c-1.698204,-1.14014 -2.550315,-2.772342 -2.550315,-4.902591c0,-1.04413 0.270034,-2.034239 0.810101,-2.970368c1.476176,1.812232 3.27039,3.258409 5.376657,4.344538c2.112253,1.080123 4.368531,1.686192 6.780814,1.818216c-0.095989,-0.354053 -0.143941,-0.804106 -0.143941,-1.344162c0,-1.626196 0.576071,-3.012378 1.722206,-4.158503c1.152142,-1.146135 2.538313,-1.722206 4.158503,-1.722206c1.722218,0 3.150387,0.61807 4.284533,1.848214c1.29014,-0.240025 2.544308,-0.720085 3.756445,-1.428171c-0.468059,1.440172 -1.338155,2.532307 -2.604315,3.276406c1.212149,-0.168029 2.340276,-0.486067 3.384406,-0.954127c-0.780091,1.194151 -1.764216,2.214268 -2.940349,3.054367l-0.000053,0.000106zm0,0"/>
   </g>
  </g>
 </g>
</svg>