<?xml version="1.0" encoding="UTF-8" standalone="no"?>
<!-- Created with Inkscape (http://www.inkscape.org/) -->

<svg
   xmlns:dc="http://purl.org/dc/elements/1.1/"
   xmlns:cc="http://creativecommons.org/ns#"
   xmlns:rdf="http://www.w3.org/1999/02/22-rdf-syntax-ns#"
   xmlns:svg="http://www.w3.org/2000/svg"
   xmlns="http://www.w3.org/2000/svg"
   version="1.1"
   width="500"
   height="200"
   viewBox="0 0 400 160"
   id="svg2">
  <metadata
     id="metadata73">
    <rdf:RDF>
      <cc:Work
         rdf:about="">
        <dc:format>image/svg+xml</dc:format>
        <dc:type
           rdf:resource="http://purl.org/dc/dcmitype/StillImage" />
        <dc:title></dc:title>
      </cc:Work>
    </rdf:RDF>
  </metadata>
  <defs
     id="defs71">
    <clipPath
       id="clipPath3063">
      <rect
         width="160.46516"
         height="187.38884"
         x="124.38743"
         y="-115.83732"
         id="rect3065"
         style="fill:#ffffff;fill-opacity:1;stroke:none" />
    </clipPath>
  </defs>
  <g
     transform="matrix(0.61149404,0,0,0.61149404,-20.137855,38.592815)"
     id="g3972">
    <path
       d="m 79.256461,59.91931 -2.525287,0 0,18.65169 -10.721392,0 0,-63.068888 10.721392,0 0,37.208428 2.164532,-1.25948 7.474596,-17.93018 11.626441,0 -8.291037,17.83524 -3.873371,3.06326 4.234126,3.06325 9.189768,21.08837 -12.07581,0 -7.923958,-18.65169"
       id="path5"
       style="fill:#000000;fill-opacity:1;fill-rule:nonzero;stroke:none" />
    <path
       d="m 103.23087,36.22339 c 1.80377,-1.08227 4.05058,-1.94933 6.75308,-2.61389 2.70882,-0.65822 5.77209,-0.98734 9.18977,-0.98734 5.10753,0 8.65179,1.31644 10.63278,3.962 2.04428,2.63919 3.06325,6.39865 3.06325,11.25935 0,2.82274 -0.0886,5.6202 -0.26581,8.37965 -0.12026,2.7025 -0.21519,5.37968 -0.27215,8.0189 -0.0634,2.58224 -0.0316,5.10752 0.0886,7.56951 0.18353,2.39871 0.60125,4.68351 1.25947,6.84803 l -8.73407,0 -1.71517,-5.49995 -0.36075,0 c -0.96202,1.74683 -2.3101,3.18353 -4.05059,4.32908 -1.74682,1.13922 -3.93666,1.70884 -6.5822,1.70884 -3.54426,0 -6.33537,-1.17087 -8.37965,-3.51261 -2.03795,-2.40505 -3.06326,-5.58854 -3.06326,-9.55052 0,-5.405 1.92403,-9.24673 5.77209,-11.53151 3.84173,-2.2848 9.03787,-3.24681 15.5821,-2.88605 0.30378,-3.48097 0.0632,-6.00626 -0.72151,-7.56321 -0.72151,-1.56326 -2.3101,-2.34174 -4.7721,-2.34174 -1.80378,0 -3.66451,0.20888 -5.58854,0.62658 -1.91771,0.42405 -3.63288,1.0253 -5.13285,1.80378 l -2.70251,-8.0189 m 12.87959,33.78441 c 1.62656,0 2.94934,-0.39241 3.96832,-1.17086 1.01897,-0.84177 1.77212,-1.74049 2.25313,-2.7025 l 0,-7.47459 c -1.38605,-0.18355 -2.70249,-0.21521 -3.9683,-0.095 -1.25949,0.12022 -2.36707,0.3924 -3.32908,0.81011 -0.96202,0.42406 -1.74682,1.05063 -2.34175,1.89239 -0.54429,0.78481 -0.81644,1.80377 -0.81644,3.06326 0,1.86706 0.36076,3.27843 1.08227,4.23413 0.7848,0.96201 1.83541,1.44301 3.15185,1.44301"
       id="path7"
       style="fill:#000000;fill-opacity:1;fill-rule:nonzero;stroke:none" />
    <path
       d="m 136.75579,33.52088 4.95564,0 0,-8.46824 10.72139,-3.3354 0,11.80364 8.7404,0 0,9.55053 -8.7404,0 0,19.63902 c 0,2.58224 0.2405,4.41767 0.72151,5.4936 0.53796,1.08226 1.46833,1.62657 2.79111,1.62657 0.89873,0 1.71517,-0.095 2.43035,-0.27216 0.7215,-0.17722 1.50631,-0.44937 2.34808,-0.81011 l 1.34808,8.55686 c -1.32278,0.66454 -2.8544,1.20252 -4.59489,1.62023 -1.74048,0.481 -3.57591,0.72151 -5.4936,0.72151 -3.42402,0 -6.00627,-0.98733 -7.75307,-2.96832 -1.6772,-1.98731 -2.51896,-5.3164 -2.51896,-10.00621 l 0,-23.60099 -4.95564,0 0,-9.55053"
       id="path9"
       style="fill:#000000;fill-opacity:1;fill-rule:nonzero;stroke:none" />
    <path
       d="m 167.38834,33.52088 10.7214,0 0,45.05012 -10.7214,0 0,-45.05012 m -1.25948,-12.70237 c 0,-1.803778 0.56962,-3.272114 1.70884,-4.417667 1.14556,-1.20252 2.76579,-1.803775 4.86704,-1.803775 2.10123,0 3.78477,0.575939 5.04424,1.715169 1.25948,1.13922 1.89238,2.64554 1.89238,4.506273 0,1.86075 -0.6329,3.32908 -1.89238,4.41134 -1.25947,1.08226 -2.94301,1.62023 -5.04424,1.62023 -2.10125,0 -3.72148,-0.53797 -4.86704,-1.62023 -1.13922,-1.13922 -1.70884,-2.61389 -1.70884,-4.41134"
       id="path11"
       style="fill:#000000;fill-opacity:1;fill-rule:nonzero;stroke:none" />
    <path
       d="m 217.1789,75.23558 c -1.50632,1.32278 -3.54427,2.39871 -6.12651,3.24047 -2.58225,0.84177 -5.28475,1.26581 -8.1075,1.26581 -3.12655,0 -5.82906,-0.54429 -8.11383,-1.62656 -2.22151,-1.07593 -4.05058,-2.63921 -5.49362,-4.6835 -1.443,-2.04427 -2.52528,-4.50626 -3.24047,-7.38597 -0.66453,-2.94301 -0.99365,-6.27841 -0.99365,-9.99988 0,-8.10751 1.58859,-14.08846 4.77209,-17.93017 3.2468,-3.90503 7.72143,-5.85436 13.4239,-5.85436 1.92403,0 3.78477,0.29745 5.58854,0.89872 1.80378,0.53797 3.39237,1.49999 4.77843,2.87972 1.4367,1.32277 2.58225,3.12655 3.41767,5.41132 0.90507,2.22149 1.35443,5.04423 1.35443,8.46826 0,1.31644 -0.0886,2.73414 -0.27215,4.23413 -0.12022,1.49997 -0.32911,3.12021 -0.62658,4.8607 l -21.89847,0 c 0.12022,3.7278 0.90504,6.5822 2.34807,8.56317 1.43668,1.981 3.75311,2.97466 6.93663,2.97466 1.91769,0 3.6645,-0.30379 5.22145,-0.90504 1.62656,-0.60127 2.8544,-1.22785 3.69615,-1.89239 l 3.33542,7.48091 m -14.05681,-33.7844 c -2.28478,0 -3.99362,0.93037 -5.13284,2.79111 -1.14555,1.80377 -1.80378,4.35437 -1.98733,7.65813 l 12.43656,0 c 0.17722,-3.42401 -0.18354,-6.00625 -1.08225,-7.74675 -0.89873,-1.80377 -2.31011,-2.70249 -4.23414,-2.70249"
       id="path13"
       style="fill:#000000;fill-opacity:1;fill-rule:nonzero;stroke:none" />
    <path
       d="m 276.84274,34.96391 5.9493,0 -3.51262,24.59465 c -0.72149,5.46196 0.15182,8.19611 2.6139,8.19611 1.19619,0 2.36707,-0.36076 3.51262,-1.08227 1.20252,-0.71519 2.25315,-1.8291 3.15186,-3.32907 0.96201,-1.49999 1.70884,-3.42402 2.25314,-5.76576 0.60126,-2.34174 0.89873,-5.13918 0.89873,-8.37965 0,-4.14552 -0.60127,-7.68978 -1.79746,-10.63279 -1.14555,-2.99996 -2.76578,-5.43664 -4.86703,-7.29737 -2.10123,-1.92403 -4.59488,-3.33542 -7.48091,-4.23413 -2.87973,-0.89872 -6.03158,-1.35441 -9.4556,-1.35441 -3.84805,0 -7.44928,0.78478 -10.81632,2.34807 -3.30375,1.49999 -6.18348,3.63285 -8.64547,6.39233 -2.40503,2.76579 -4.32274,6.06954 -5.76576,9.91127 -1.38605,3.84173 -2.07592,8.1075 -2.07592,12.79731 0,9.18978 2.28477,16.18336 6.84802,20.9871 4.56324,4.81007 10.96189,7.20879 19.18965,7.20879 1.56327,0 3.27845,-0.20887 5.13918,-0.62658 1.9177,-0.42405 3.63286,-1.0253 5.13284,-1.80378 l 2.61389,7.83535 c -1.92403,1.02531 -4.02525,1.77212 -6.30372,2.25314 -2.28478,0.5443 -4.86703,0.81012 -7.75307,0.81012 -4.74045,0 -9.18976,-0.72151 -13.33529,-2.15821 -4.08223,-1.44303 -7.65814,-3.66451 -10.72139,-6.67081 -3.06326,-2.943 -5.4936,-6.69612 -7.29737,-11.25936 -1.7405,-4.62653 -2.60757,-10.09482 -2.60757,-16.39854 0,-6.30373 0.98733,-11.95556 2.96832,-16.93652 2.04429,-4.98726 4.74677,-9.18976 8.11383,-12.61376 3.36071,-3.424 7.23409,-6.0379 11.6201,-7.841689 4.38605,-1.797439 8.98091,-2.702494 13.78467,-2.702494 4.56322,0 8.82901,0.68986 12.79098,2.075924 4.02527,1.322769 7.48093,3.329079 10.36064,6.031569 2.943,2.64554 5.25943,5.98095 6.93662,10.00621 1.68353,3.96199 2.52529,8.58851 2.52529,13.87326 0,3.96199 -0.60126,7.65815 -1.80378,11.08216 -1.13922,3.36072 -2.7025,6.27207 -4.68348,8.7404 -1.98099,2.39871 -4.32273,4.29108 -7.02524,5.67082 -2.64554,1.38607 -5.46829,2.07592 -8.46824,2.07592 -2.462,0 -4.56958,-0.63291 -6.31006,-1.89239 -1.68354,-1.25948 -2.462,-3.45564 -2.34175,-6.57588 l -0.27216,0 c -1.37972,2.27847 -3.06324,4.2658 -5.04423,5.94298 -1.92403,1.68353 -4.29109,2.52529 -7.11384,2.52529 -2.58858,0 -4.77843,-1.13924 -6.5822,-3.42401 -1.79745,-2.28478 -2.70251,-5.46829 -2.70251,-9.55051 0,-4.02528 0.481,-7.81005 1.44302,-11.35431 1.01898,-3.54426 2.3734,-6.63284 4.05692,-9.27837 1.6772,-2.7025 3.63288,-4.83538 5.85436,-6.39867 2.2215,-1.55694 4.59489,-2.34173 7.12017,-2.34173 1.6772,0 3.12022,0.3038 4.32274,0.90504 1.20252,0.60127 2.3101,1.41139 3.33541,2.43035 l 2.24679,-2.7911 m -4.77209,10.36064 c -1.08226,-1.26581 -2.49363,-1.89238 -4.23413,-1.89238 -1.37972,0 -2.64553,0.50632 -3.78477,1.53163 -1.13922,0.96201 -2.13287,2.27845 -2.97463,3.96197 -0.84178,1.62023 -1.5,3.51262 -1.981,5.67716 -0.48101,2.10124 -0.72151,4.29108 -0.72151,6.57586 0,2.10125 0.32911,3.72782 0.99366,4.86704 0.72151,1.13923 1.80378,1.70884 3.24047,1.70884 1.32277,0 2.64554,-0.7215 3.96832,-2.1582 1.37972,-1.50632 2.51894,-3.15819 3.424,-4.95565 l 2.06959,-15.31627"
       id="path15"
       style="fill:#000000;fill-opacity:1;fill-rule:nonzero;stroke:none" />
    <path
       d="m 342.0635,78.571 c 0,6.54422 -1.49998,11.34795 -4.50628,14.41122 -3.00629,3.12655 -7.17713,4.68348 -12.52516,4.68348 -3.72147,0 -6.63284,-0.29746 -8.74041,-0.89871 -2.10123,-0.53797 -3.72146,-1.13924 -4.8607,-1.80377 l 2.25314,-9.09485 c 1.31644,0.53798 2.72781,1.05062 4.23413,1.53164 1.55693,0.47468 3.39237,0.71517 5.4936,0.71517 3.06327,0 5.1645,-0.83542 6.31005,-2.51894 1.19618,-1.62024 1.79745,-4.1139 1.79745,-7.48094 l 0,-2.43034 -0.26581,0 c -0.84178,1.20252 -1.98734,2.10123 -3.42402,2.70249 -1.38605,0.60126 -3.1835,0.89872 -5.41132,0.89872 -4.74046,0 -8.31636,-1.77213 -10.72141,-5.31006 -2.34174,-3.60754 -3.51262,-9.2847 -3.51262,-17.03144 0,-8.34801 1.62658,-14.50616 4.86705,-18.46814 3.30375,-3.9683 7.98725,-5.94929 14.05679,-5.94929 3.24047,0 6.15184,0.27215 8.7404,0.81011 2.58225,0.48101 4.65186,1.08227 6.21512,1.80377 l 0,43.42988 m -16.67069,-8.47458 c 1.62024,0 2.88605,-0.38607 3.78477,-1.17088 0.96202,-0.77848 1.68352,-1.89237 2.16452,-3.32907 l 0,-22.52506 c -0.66453,-0.30379 -1.41137,-0.54429 -2.25312,-0.72151 -0.77848,-0.18354 -1.71518,-0.27215 -2.79111,-0.27215 -2.22783,0 -3.96832,1.08227 -5.22779,3.2468 -1.20252,2.15821 -1.80378,5.886 -1.80378,11.17076 0,9.06952 2.04429,13.60111 6.12651,13.60111"
       id="path17"
       style="fill:#000000;fill-opacity:1;fill-rule:nonzero;stroke:none" />
    <path
       d="m 360.65189,63.9699 c 0,2.10757 0.21519,3.60754 0.63291,4.50628 0.41771,0.90504 1.1139,1.35442 2.0696,1.35442 0.54429,0 1.08225,-0.0633 1.62655,-0.18354 0.60128,-0.12023 1.25949,-0.32912 1.981,-0.62658 l 0.98732,8.64545 c -0.71517,0.48102 -1.94933,0.93037 -3.68983,1.35442 -1.74048,0.41772 -3.51261,0.62658 -5.31638,0.62658 -3.00631,0 -5.25943,-0.74683 -6.75943,-2.25313 -1.49998,-1.5 -2.25313,-4.05059 -2.25313,-7.65815 l 0,-54.233538 10.72139,0 0,48.467788"
       id="path19"
       style="fill:#000000;fill-opacity:1;fill-rule:nonzero;stroke:none" />
    <path
       d="m 371.66442,36.22339 c 1.79746,-1.08227 4.05058,-1.94933 6.75309,-2.61389 2.7025,-0.65822 5.76574,-0.98734 9.18977,-0.98734 5.10753,0 8.65179,1.31644 10.63278,3.962 2.04427,2.63919 3.06325,6.39865 3.06325,11.25935 0,2.82274 -0.0886,5.6202 -0.27215,8.37965 -0.12022,2.7025 -0.20885,5.37968 -0.26581,8.0189 -0.0634,2.58224 -0.0316,5.10752 0.0886,7.56951 0.1772,2.39871 0.60125,4.68351 1.25947,6.84803 l -8.7404,0 -1.70885,-5.49995 -0.36074,0 c -0.96201,1.74683 -2.31012,3.18353 -4.05692,4.32908 -1.74049,1.13922 -3.93033,1.70884 -6.57587,1.70884 -3.54426,0 -6.33537,-1.17087 -8.37966,-3.51261 -2.03794,-2.40505 -3.06325,-5.58854 -3.06325,-9.55052 0,-5.405 1.92403,-9.24673 5.76576,-11.53151 3.84806,-2.2848 9.0442,-3.24681 15.58841,-2.88605 0.30381,-3.48097 0.0634,-6.00626 -0.7215,-7.56321 -0.7215,-1.56326 -2.31009,-2.34174 -4.77209,-2.34174 -1.80377,0 -3.66452,0.20888 -5.58854,0.62658 -1.9177,0.42405 -3.63288,1.0253 -5.13286,1.80378 l -2.70252,-8.0189 m 12.8796,33.78441 c 1.62656,0 2.943,-0.39241 3.96831,-1.17086 1.01898,-0.84177 1.77213,-1.74049 2.25313,-2.7025 l 0,-7.47459 c -1.38604,-0.18355 -2.70249,-0.21521 -3.96829,-0.095 -1.25949,0.12022 -2.37341,0.3924 -3.32908,0.81011 -0.96202,0.42406 -1.74683,1.05063 -2.34807,1.89239 -0.53798,0.78481 -0.81013,1.80377 -0.81013,3.06326 0,1.86706 0.36077,3.27843 1.08228,4.23413 0.78478,0.96201 1.83541,1.44301 3.15185,1.44301"
       id="path21"
       style="fill:#000000;fill-opacity:1;fill-rule:nonzero;stroke:none" />
    <path
       d="m 423.84102,66.5838 c 0,-1.25948 -0.42404,-2.3101 -1.26579,-3.15187 -0.77848,-0.89872 -1.79747,-1.70884 -3.06328,-2.43034 -1.25947,-0.78481 -2.61388,-1.56328 -4.05058,-2.34174 -1.38605,-0.78481 -2.7025,-1.74683 -3.9683,-2.88605 -1.25948,-1.13923 -2.3101,-2.5253 -3.15187,-4.14553 -0.77846,-1.62024 -1.17087,-3.66451 -1.17087,-6.12651 0,-4.20249 1.13923,-7.44927 3.42402,-9.72772 2.28477,-2.2848 5.64549,-3.42401 10.08848,-3.42401 2.64554,0 5.13918,0.29746 7.48094,0.8987 2.34174,0.54431 4.20248,1.23417 5.58221,2.07593 l -2.51897,8.28471 c -1.14556,-0.481 -2.52528,-0.93034 -4.14552,-1.34808 -1.62023,-0.481 -3.21515,-0.72151 -4.7721,-0.72151 -2.94933,0 -4.41767,1.22784 -4.41767,3.68983 0,1.14557 0.39241,2.10758 1.17089,2.88604 0.84175,0.72152 1.89237,1.44303 3.15185,2.16453 1.26581,0.72151 2.58225,1.46835 3.96831,2.25315 1.43669,0.77847 2.79111,1.7658 4.05059,2.96832 1.25946,1.14555 2.28478,2.55692 3.06324,4.23413 0.84177,1.68352 1.25949,3.75312 1.26581,6.22143 -0.007,4.13921 -1.26581,7.47459 -3.78475,9.9999 -2.5253,2.51894 -6.27842,3.78475 -11.26571,3.78475 -2.46199,0 -4.89233,-0.30379 -7.29736,-0.90505 -2.34177,-0.60125 -4.23414,-1.37973 -5.67716,-2.34173 l 2.97465,-8.64547 c 1.25948,0.71518 2.70251,1.34808 4.32274,1.88604 1.68351,0.5443 3.42401,0.81645 5.22779,0.81645 1.37971,0 2.52527,-0.30379 3.424,-0.90504 0.89873,-0.65822 1.35441,-1.67721 1.35441,-3.06326"
       id="path23"
       style="fill:#000000;fill-opacity:1;fill-rule:nonzero;stroke:none" />
    <path
       d="m 462.54311,78.571 0,-27.39209 c 0,-3.30375 -0.3924,-5.61385 -1.17088,-6.93662 -0.77848,-1.32278 -2.10125,-1.981 -3.96198,-1.981 -1.56327,0 -2.91768,0.48101 -4.05692,1.4367 -1.13922,0.96201 -1.94933,2.16453 -2.43034,3.60755 l 0,31.26546 -10.72141,0 0,-45.05012 8.55687,0 1.25948,5.22779 0.27216,0 c 1.08225,-1.74681 2.55059,-3.21514 4.41767,-4.41766 1.86074,-1.25947 4.29108,-1.89239 7.29736,-1.89239 1.79747,0 3.39237,0.27215 4.77211,0.81011 1.44302,0.54431 2.64554,1.44303 3.60755,2.70251 0.95568,1.20252 1.67721,2.8544 2.1582,4.95565 0.48101,2.04426 0.72151,4.59487 0.72151,7.65813 l 0,30.00598 -10.72138,0"
       id="path25"
       style="fill:#000000;fill-opacity:1;fill-rule:nonzero;stroke:none" />
    <path
       d="m 477.15686,33.52088 4.95563,0 0,-8.46824 10.72139,-3.3354 0,11.80364 8.74041,0 0,9.55053 -8.74041,0 0,19.63902 c 0,2.58224 0.24051,4.41767 0.72151,5.4936 0.5443,1.08226 1.47467,1.62657 2.79111,1.62657 0.90506,0 1.71517,-0.095 2.43668,-0.27216 0.72152,-0.17722 1.49998,-0.44937 2.34175,-0.81011 l 1.34808,8.55686 c -1.31644,0.66454 -2.84807,1.20252 -4.59488,1.62023 -1.74049,0.481 -3.56959,0.72151 -5.49362,0.72151 -3.424,0 -6.00625,-0.98733 -7.74674,-2.96832 -1.68352,-1.98731 -2.52528,-5.3164 -2.52528,-10.00621 l 0,-23.60099 -4.95563,0 0,-9.55053"
       id="path27"
       style="fill:#000000;fill-opacity:1;fill-rule:nonzero;stroke:none" />
    <path
       d="m 511.26405,72.71031 c 0,-2.22149 0.56961,-3.90503 1.71516,-5.04425 1.20252,-1.13922 2.75947,-1.70885 4.6835,-1.70885 2.10123,0 3.72147,0.56963 4.86703,1.70885 1.13923,1.13922 1.70884,2.82276 1.70884,5.04425 0,2.16452 -0.60125,3.84805 -1.80377,5.04424 -1.13925,1.20252 -2.72781,1.80377 -4.7721,1.80377 -1.98099,0 -3.54426,-0.60125 -4.6835,-1.80377 -1.14555,-1.19619 -1.71516,-2.87972 -1.71516,-5.04424"
       id="path29"
       style="fill:#000000;fill-opacity:1;fill-rule:nonzero;stroke:none" />
    <path
       d="m 557.83312,76.13431 c -1.49999,1.20252 -3.30377,2.10125 -5.405,2.7025 -2.10125,0.60126 -4.20248,0.90505 -6.30373,0.90505 -3.06325,0 -5.6455,-0.54429 -7.74675,-1.62656 -2.04427,-1.13923 -3.72779,-2.72782 -5.05055,-4.77209 -1.31644,-2.10124 -2.27845,-4.59488 -2.87973,-7.48092 -0.5443,-2.94301 -0.81011,-6.21513 -0.81011,-9.81634 0,-7.87333 1.41139,-13.78466 4.23413,-17.75297 2.82275,-3.96197 6.96826,-5.94295 12.43024,-5.94295 2.7025,0 4.89868,0.24048 6.57586,0.72151 1.74682,0.48099 3.27845,1.08226 4.59489,1.79743 l -2.51896,8.92396 c -1.08228,-0.5443 -2.13288,-0.93037 -3.15187,-1.17088 -0.96201,-0.30379 -2.13289,-0.45569 -3.51895,-0.45569 -2.51894,0 -4.41133,1.11391 -5.67082,3.3354 -1.26581,2.16453 -1.89236,5.67715 -1.89236,10.54419 0,4.08223 0.62655,7.41763 1.89236,9.99988 1.31644,2.58224 3.39237,3.87336 6.21513,3.87336 1.49997,0 2.75946,-0.18354 3.78477,-0.53797 1.08226,-0.42405 2.06959,-0.93668 2.96831,-1.53161 l 2.25314,8.2847"
       id="path31"
       style="fill:#000000;fill-opacity:1;fill-rule:nonzero;stroke:none" />
    <path
       d="m 559.90272,56.04595 c 0,-7.98725 1.56327,-13.93655 4.68348,-17.84157 3.12655,-3.90502 7.48093,-5.85435 13.06314,-5.85435 6.00627,0 10.48089,1.98098 13.42389,5.94295 2.94302,3.96831 4.41767,9.87964 4.41767,17.75297 0,8.0442 -1.56327,14.02514 -4.68348,17.93016 -3.12655,3.84172 -7.51257,5.76575 -13.15808,5.76575 -11.82898,0 -17.74662,-7.89865 -17.74662,-23.69591 m 11.08214,0 c 0,4.49994 0.50633,7.98724 1.53164,10.44923 1.01896,2.46199 2.73414,3.69616 5.13284,3.69616 2.28479,0 3.96831,-1.05061 5.04425,-3.15817 1.14556,-2.15822 1.71517,-5.82272 1.71517,-10.98722 0,-4.62653 -0.51266,-8.13915 -1.53162,-10.54419 -1.01899,-2.39871 -2.76579,-3.60121 -5.2278,-3.60121 -2.10123,0 -3.75311,1.08226 -4.95563,3.24046 -1.13922,2.10124 -1.70885,5.74045 -1.70885,10.90494"
       id="path33"
       style="fill:#000000;fill-opacity:1;fill-rule:nonzero;stroke:none" />
    <path
       d="m 622.45894,78.571 0,-26.22121 c 0,-3.78477 -0.3038,-6.39866 -0.90504,-7.83535 -0.60126,-1.50632 -1.77214,-2.25315 -3.51262,-2.25315 -1.44302,0 -2.63921,0.48101 -3.60122,1.4367 -0.90506,0.90505 -1.59492,2.01263 -2.07592,3.33541 l 0,31.5376 -10.72141,0 0,-45.05012 8.29105,0 1.34808,5.40501 0.27215,0 c 1.13922,-1.86074 2.55059,-3.39236 4.23413,-4.59488 1.74049,-1.25947 4.02526,-1.89239 6.84802,-1.89239 2.34174,0 4.23412,0.51266 5.67715,1.53165 1.49999,1.01896 2.67084,2.82273 3.51261,5.40498 1.13923,-2.1582 2.64555,-3.84172 4.50627,-5.04424 1.86075,-1.25947 4.05058,-1.89239 6.57589,-1.89239 1.98097,0 3.66451,0.27215 5.04423,0.81011 1.44302,0.48103 2.58225,1.35443 3.42402,2.6139 0.89873,1.25949 1.56326,3.0063 1.98099,5.22779 0.42405,2.15821 0.6329,4.92399 0.6329,8.28472 l 0,29.19586 -10.7214,0 0,-27.39209 c 0,-3.06326 -0.27214,-5.31639 -0.81011,-6.75942 -0.54429,-1.43668 -1.74048,-2.1582 -3.60755,-2.1582 -1.49999,0 -2.72781,0.44937 -3.68983,1.34808 -0.90507,0.84178 -1.56329,2.01264 -1.981,3.51262 l 0,31.44901 -10.72139,0"
       id="path35"
       style="fill:#000000;fill-opacity:1;fill-rule:nonzero;stroke:none" />
    <path
       d="m 364.35438,165.31047 c -0.31011,0.0633 -0.44936,0.20887 -0.41139,0.44304 0.0379,0.24051 0.21519,0.31645 0.53163,0.24051 0.31646,-0.0823 0.4557,-0.22152 0.4114,-0.41771 -0.0379,-0.2152 -0.21518,-0.3038 -0.53164,-0.26584 z m 0,0"
       id="path37"
       style="fill:#000000;fill-opacity:1;fill-rule:nonzero;stroke:none" />
    <path
       d="m 362.67085,165.55098 c -0.31012,0 -0.46834,0.10763 -0.46834,0.32278 0,0.25317 0.16455,0.36709 0.49999,0.32279 0.31645,0 0.47468,-0.10763 0.47468,-0.32279 0,-0.25316 -0.17089,-0.36708 -0.50633,-0.32278 z m 0,0"
       id="path39"
       style="fill:#000000;fill-opacity:1;fill-rule:nonzero;stroke:none" />
    <path
       d="m 360.3671,165.46238 c -0.076,0.21519 0.0506,0.36075 0.38607,0.44303 0.29745,0.1139 0.48099,0.0571 0.56327,-0.17721 0.0571,-0.22152 -0.0696,-0.37341 -0.38608,-0.47467 -0.29745,-0.076 -0.48099,-0.013 -0.56326,0.20885 z m 0,0"
       id="path41"
       style="fill:#000000;fill-opacity:1;fill-rule:nonzero;stroke:none" />
    <path
       d="m 390.86672,131.32987 c -1.66453,-1.6582 -3.67083,-2.49364 -6.01258,-2.49364 l -28.3541,0 c -2.34175,0 -4.34806,0.83544 -6.01258,2.49364 -1.65822,1.66454 -2.49364,3.67084 -2.49364,6.0126 l 0,28.35409 c 0,2.34174 0.83542,4.34804 2.49364,6.01258 1.66452,1.66455 3.67083,2.49365 6.01258,2.49365 l 6.61385,0 c 0.4367,0 0.75949,-0.013 0.97467,-0.0442 0.22152,-0.0316 0.43671,-0.15829 0.65188,-0.38607 0.21521,-0.22152 0.32279,-0.55061 0.32279,-0.98731 0,-0.0571 0,-0.72785 -0.013,-2.00633 -0.013,-1.28477 -0.013,-2.29743 -0.013,-3.04425 l -0.68354,0.12022 c -0.43036,0.076 -0.97466,0.1139 -1.63922,0.10124 -0.65822,-0.013 -1.34175,-0.076 -2.05061,-0.20887 -0.70885,-0.12653 -1.36707,-0.42405 -1.98099,-0.88605 -0.60759,-0.46203 -1.04429,-1.06329 -1.29745,-1.81645 l -0.29745,-0.67721 c -0.19622,-0.44936 -0.50633,-0.95567 -0.93037,-1.5063 -0.42406,-0.55063 -0.8481,-0.92405 -1.28481,-1.12024 l -0.20252,-0.15182 c -0.13918,-0.095 -0.26582,-0.21518 -0.38607,-0.35442 -0.12022,-0.13286 -0.20887,-0.27215 -0.26582,-0.4114 -0.0571,-0.13918 -0.013,-0.25316 0.1455,-0.34175 0.15829,-0.0886 0.44303,-0.13287 0.86074,-0.13287 l 0.58861,0.0886 c 0.3924,0.0823 0.87974,0.31645 1.46201,0.70886 0.58226,0.39873 1.05695,0.90506 1.43036,1.53795 0.4557,0.8038 1,1.42405 1.63922,1.8481 0.63923,0.41771 1.28481,0.63289 1.93669,0.63289 0.65188,0 1.20883,-0.0506 1.68352,-0.14549 0.47468,-0.10124 0.91771,-0.24685 1.32909,-0.44304 0.17722,-1.32277 0.65822,-2.33543 1.44936,-3.04428 -1.12658,-0.12022 -2.13289,-0.29745 -3.03162,-0.53163 -0.89238,-0.23417 -1.81642,-0.62024 -2.77212,-1.15189 -0.95568,-0.53163 -1.7468,-1.18985 -2.37972,-1.98099 -0.63289,-0.78479 -1.14555,-1.82277 -1.55061,-3.10122 -0.40506,-1.27847 -0.60758,-2.75314 -0.60758,-4.43033 0,-2.37972 0.77847,-4.41135 2.33541,-6.08221 -0.72783,-1.79113 -0.65822,-3.80376 0.20887,-6.02524 0.56961,-0.17721 1.41771,-0.0442 2.53793,0.39871 1.12025,0.44304 1.94303,0.8228 2.46833,1.13925 0.51898,0.31012 0.9367,0.57593 1.25315,0.79745 1.82909,-0.51265 3.72147,-0.77215 5.67083,-0.77215 1.94933,0 3.84171,0.2595 5.67081,0.77215 l 1.12023,-0.70885 c 0.77217,-0.47468 1.67721,-0.91138 2.7215,-1.30378 1.04429,-0.39241 1.84175,-0.49999 2.39237,-0.32278 0.88607,2.22148 0.96201,4.23411 0.23418,6.02524 1.55694,1.67086 2.33541,3.70249 2.33541,6.08221 0,1.67719 -0.20252,3.15819 -0.60759,4.44931 -0.40505,1.2848 -0.92403,2.32276 -1.56326,3.10123 -0.63923,0.77215 -1.4367,1.43037 -2.39239,1.962 -0.95568,0.53165 -1.87971,0.91772 -2.77844,1.15189 -0.89239,0.23418 -1.90504,0.41138 -3.02529,0.53163 1.02532,0.88608 1.53165,2.2848 1.53165,4.19617 l 0,7.05688 c 0,0.33544 0.0506,0.60759 0.15181,0.81011 0.095,0.20885 0.25316,0.3481 0.46834,0.43037 0.22152,0.076 0.41138,0.12655 0.58226,0.14549 0.16458,0.0189 0.40507,0.0316 0.72153,0.0316 l 6.61385,0 c 2.34174,0 4.34804,-0.82909 6.01257,-2.49364 1.66454,-1.66454 2.49365,-3.67084 2.49365,-6.01258 l 0,-28.3541 c 0,-2.34176 -0.82911,-4.34806 -2.49365,-6.0126 z m 0,0"
       id="path43"
       style="fill:#000000;fill-opacity:1;fill-rule:nonzero;stroke:none" />
    <path
       d="m 356.97473,161.85483 c -0.13918,0.10124 -0.12022,0.25949 0.0571,0.47467 0.1962,0.19619 0.35442,0.22786 0.47467,0.0886 0.13918,-0.10124 0.1139,-0.25315 -0.0633,-0.47467 -0.1962,-0.17722 -0.35442,-0.20254 -0.46834,-0.0886 z m 0,0"
       id="path45"
       style="fill:#000000;fill-opacity:1;fill-rule:nonzero;stroke:none" />
    <path
       d="m 356.00004,161.12066 c -0.0633,0.13918 0.007,0.25317 0.20253,0.35443 0.1583,0.095 0.29114,0.076 0.38607,-0.0633 0.0571,-0.13286 -0.007,-0.25316 -0.20885,-0.35442 -0.1962,-0.0571 -0.32278,-0.0379 -0.37975,0.0633 z m 0,0"
       id="path47"
       style="fill:#000000;fill-opacity:1;fill-rule:nonzero;stroke:none" />
    <path
       d="m 357.88611,163.00672 c -0.17722,0.10124 -0.17722,0.27846 0,0.53163 0.17721,0.25949 0.3481,0.32911 0.50632,0.20886 0.1772,-0.13918 0.1772,-0.32278 0,-0.5633 -0.15829,-0.25315 -0.32911,-0.31011 -0.50632,-0.17719 z m 0,0"
       id="path49"
       style="fill:#000000;fill-opacity:1;fill-rule:nonzero;stroke:none" />
    <path
       d="m 358.92406,164.3358 c -0.17721,0.1583 -0.13918,0.34811 0.12023,0.5633 0.23417,0.23417 0.43036,0.26581 0.58859,0.0886 0.1583,-0.1583 0.1139,-0.34178 -0.12022,-0.5633 -0.23418,-0.23416 -0.43037,-0.26581 -0.5886,-0.0886 z m 0,0"
       id="path51"
       style="fill:#000000;fill-opacity:1;fill-rule:nonzero;stroke:none" />
    <path
       d="m 446.77114,131.32987 c -1.66454,-1.6582 -3.66453,-2.49364 -6.0126,-2.49364 l -28.3541,0 c -2.34174,0 -4.3417,0.83544 -6.00625,2.49364 -1.66454,1.66454 -2.49998,3.67084 -2.49998,6.0126 l 0,28.35409 c 0,2.34174 0.83544,4.34804 2.49998,6.01258 1.66455,1.66455 3.66451,2.49365 6.00625,2.49365 l 28.3541,0 c 2.34807,0 4.34806,-0.8291 6.0126,-2.49365 1.66452,-1.66454 2.49363,-3.67084 2.49363,-6.01258 l 0,-28.35409 c 0,-2.34176 -0.82911,-4.34806 -2.49363,-6.0126 z m -24.08834,24.61997 c -1.22149,1.2215 -2.69616,1.83541 -4.43032,1.83541 -1.72783,0 -3.20882,-0.61391 -4.43033,-1.83541 -1.22149,-1.22152 -1.82908,-2.69617 -1.82908,-4.43032 0,-1.73418 0.60759,-3.20884 1.82908,-4.43035 1.22151,-1.2215 2.7025,-1.82909 4.43033,-1.82909 1.73416,0 3.20883,0.60759 4.43032,1.82909 1.22151,1.22151 1.83544,2.69617 1.83544,4.43035 0,1.73415 -0.61393,3.2088 -1.83544,4.43032 z m 16.65804,0 c -1.22149,1.2215 -2.69618,1.83541 -4.43033,1.83541 -1.72782,0 -3.20882,-0.61391 -4.43033,-1.83541 -1.22149,-1.22152 -1.82908,-2.69617 -1.82908,-4.43032 0,-1.73418 0.60759,-3.20884 1.82908,-4.43035 1.22151,-1.2215 2.69618,-1.82909 4.43033,-1.82909 1.73415,0 3.20884,0.60759 4.43033,1.82909 1.22151,1.22151 1.83543,2.69617 1.83543,4.43035 0,1.73415 -0.61392,3.2088 -1.83543,4.43032 z m 0,0"
       id="path53"
       style="fill:#e6e6e6;fill-opacity:1;fill-rule:nonzero;stroke:none" />
    <path
       d="m 432.75232,159.54473 c -2.34176,-0.46834 -4.51261,-2.17719 -5.56324,-4.38603 -0.27215,-0.57594 -0.56327,-1.3291 -0.64555,-1.68352 -0.20886,-0.89873 -0.17722,-2.8987 0.0568,-3.81009 0.7215,-2.7911 2.962,-5.08221 5.66449,-5.78474 1.77214,-0.462 4.15817,-0.24051 5.63284,0.50633 1.93669,0.99366 3.46832,2.79111 4.13287,4.87336 0.38607,1.18352 0.4367,3.25314 0.1139,4.44932 -0.46834,1.72149 -1.70885,3.47464 -3.24047,4.57589 -1.7025,1.2215 -3.99361,1.68986 -6.15181,1.25948 z m 0,0"
       id="path55"
       style="fill:#e6e6e6;fill-opacity:1;fill-rule:nonzero;stroke:none" />
    <path
       d="m 417.46768,157.70298 c -0.10124,-0.0252 -0.39873,-0.0886 -0.67088,-0.13918 -0.26581,-0.0506 -0.81011,-0.25317 -1.20252,-0.4367 -1.29745,-0.62658 -2.31642,-1.62656 -2.94299,-2.90503 -1.02532,-2.07593 -0.68987,-4.88602 0.79744,-6.63284 1.35442,-1.58226 2.83541,-2.26578 4.89237,-2.25313 2.11388,0.013 3.92399,1.01265 5.1455,2.82907 1.42403,2.1329 1.27846,5.15819 -0.34811,7.17713 -1.20884,1.50632 -2.73414,2.29112 -4.6012,2.36707 -0.48734,0.0189 -0.97467,0.013 -1.06961,-0.007 z m 0,0"
       id="path57"
       style="fill:#e6e6e6;fill-opacity:1;fill-rule:nonzero;stroke:none" />
    <path
       d="m 415.19555,159.27258 c -2.34174,-0.46834 -4.5126,-2.17719 -5.56321,-4.38603 -0.27215,-0.5696 -0.5633,-1.3291 -0.64557,-1.6772 -0.20887,-0.89871 -0.17722,-2.89869 0.0568,-3.81639 0.72152,-2.79112 2.96199,-5.08223 5.67082,-5.78476 1.76581,-0.45569 4.15185,-0.24049 5.62652,0.51266 1.93669,0.98732 3.46832,2.78478 4.1392,4.86704 0.37973,1.18351 0.43036,3.25944 0.10763,4.44931 -0.46834,1.72783 -1.70882,3.48097 -3.24047,4.57589 -1.7025,1.22149 -3.99361,1.69618 -6.15181,1.25948 z m 0,0"
       id="path59"
       style="fill:#e6e6e6;fill-opacity:1;fill-rule:nonzero;stroke:none" />
    <path
       d="m 424.72709,151.51952 c 0,3.79108 -2.97466,6.867 -6.64549,6.867 -3.67086,0 -6.65182,-3.07592 -6.65182,-6.867 0,-3.79111 2.98096,-6.86703 6.65182,-6.86703 3.67083,0 6.64549,3.07592 6.64549,6.86703 z m 0,0"
       id="path61"
       style="fill:#0057d4;fill-opacity:1;fill-rule:nonzero;stroke:none" />
    <path
       d="m 441.73323,151.4309 c 0,3.74046 -3.05693,6.77839 -6.83536,6.77839 -3.77846,0 -6.84171,-3.03793 -6.84171,-6.77839 0,-3.74047 3.06325,-6.77841 6.84171,-6.77841 3.77843,0 6.83536,3.03794 6.83536,6.77841 z m 0,0"
       id="path63"
       style="fill:#d91491;fill-opacity:1;fill-rule:nonzero;stroke:none" />
    <path
       d="m 334.96233,131.32987 c -1.66455,-1.6582 -3.67086,-2.49364 -6.0126,-2.49364 l -28.3541,0 c -2.34174,0 -4.34804,0.83544 -6.01259,2.49364 -1.66453,1.66454 -2.49364,3.67084 -2.49364,6.0126 l 0,28.35409 c 0,2.34174 0.82911,4.34804 2.49364,6.01258 1.66455,1.66455 3.67085,2.49365 6.01259,2.49365 l 28.3541,0 c 2.34174,0 4.34805,-0.8291 6.00626,-2.49365 1.66454,-1.66454 2.49997,-3.67084 2.49997,-6.01258 l 0,-28.35409 c 0,-2.34176 -0.83543,-4.34806 -2.49363,-6.0126 z m -8.1708,14.96185 c 0.0189,0.17722 0.0316,0.44303 0.0316,0.79745 0,1.65188 -0.24051,3.31643 -0.72151,4.97462 -0.48733,1.66455 -1.22151,3.25947 -2.21517,4.78477 -0.99365,1.53162 -2.18352,2.87971 -3.56325,4.05058 -1.37339,1.17087 -3.0316,2.10758 -4.96197,2.80377 -1.92403,0.70252 -3.99361,1.05061 -6.20244,1.05061 -3.42402,0 -6.59487,-0.93035 -9.50623,-2.77844 0.46834,0.0571 0.96201,0.0886 1.47467,0.0886 2.85439,0 5.42398,-0.88607 7.70877,-2.65819 -1.33542,-0.019 -2.53161,-0.43037 -3.58857,-1.24049 -1.05061,-0.8038 -1.78479,-1.8291 -2.2025,-3.06958 0.51266,0.076 0.89873,0.1139 1.15189,0.1139 0.4367,0 0.93669,-0.076 1.50629,-0.23417 -1.43667,-0.27849 -2.64553,-0.98734 -3.63285,-2.13921 -0.981,-1.15189 -1.47467,-2.46833 -1.47467,-3.94301 l 0,-0.0633 c 1.04429,0.49366 2.02529,0.75314 2.95566,0.77214 -1.79111,-1.20252 -2.68984,-2.92403 -2.68984,-5.17083 0,-1.10125 0.2848,-2.14553 0.85442,-3.13288 1.55694,1.91138 3.44932,3.43668 5.67082,4.58224 2.22782,1.13922 4.60755,1.77845 7.15181,1.91769 -0.10124,-0.37342 -0.15181,-0.8481 -0.15181,-1.4177 0,-1.71517 0.60758,-3.17719 1.81643,-4.38602 1.21518,-1.20885 2.67719,-1.81644 4.38602,-1.81644 1.81645,0 3.32275,0.65189 4.51895,1.94934 1.36073,-0.25316 2.68351,-0.75949 3.96197,-1.50631 -0.49367,1.51896 -1.41137,2.67085 -2.7468,3.45566 1.27846,-0.17722 2.46832,-0.51266 3.56957,-1.00632 -0.82277,1.25948 -1.86074,2.33541 -3.10122,3.22147 z m 0,0"
       id="path65"
       style="fill:#00abee;fill-opacity:0.94117599;fill-rule:nonzero;stroke:none" />
    <path
       d="m 229.63445,88.69611 0,24.19093 278.24989,0 0,-24.19093"
       id="path67"
       style="fill:none;stroke:#000000;stroke-width:8.50376129;stroke-linecap:butt;stroke-linejoin:miter;stroke-miterlimit:4;stroke-opacity:0.56620998;stroke-dasharray:none" />
  </g>
</svg>
