<?xml version="1.0" encoding="UTF-8" standalone="no"?>
<!-- Created with Inkscape (http://www.inkscape.org/) -->

<svg
   xmlns:dc="http://purl.org/dc/elements/1.1/"
   xmlns:cc="http://creativecommons.org/ns#"
   xmlns:rdf="http://www.w3.org/1999/02/22-rdf-syntax-ns#"
   xmlns:svg="http://www.w3.org/2000/svg"
   xmlns="http://www.w3.org/2000/svg"
   xmlns:sodipodi="http://sodipodi.sourceforge.net/DTD/sodipodi-0.dtd"
   xmlns:inkscape="http://www.inkscape.org/namespaces/inkscape"
   width="800"
   height="600"
   id="svg4552"
   version="1.1"
   inkscape:version="0.48.4 r9939"
   sodipodi:docname="help.svg">
  <defs
     id="defs4554" />
  <sodipodi:namedview
     id="base"
     pagecolor="#ffffff"
     bordercolor="#666666"
     borderopacity="1.0"
     inkscape:pageopacity="0.0"
     inkscape:pageshadow="2"
     inkscape:zoom="0.7"
     inkscape:cx="75.373548"
     inkscape:cy="307.01812"
     inkscape:document-units="px"
     inkscape:current-layer="layer1"
     showgrid="false"
     fit-margin-top="0"
     fit-margin-left="0"
     fit-margin-right="0"
     fit-margin-bottom="0"
     inkscape:window-width="1503"
     inkscape:window-height="791"
     inkscape:window-x="350"
     inkscape:window-y="235"
     inkscape:window-maximized="0" />
  <metadata
     id="metadata4557">
    <rdf:RDF>
      <cc:Work
         rdf:about="">
        <dc:format>image/svg+xml</dc:format>
        <dc:type
           rdf:resource="http://purl.org/dc/dcmitype/StillImage" />
        <dc:title />
      </cc:Work>
    </rdf:RDF>
  </metadata>
  <g
     inkscape:label="Layer 1"
     inkscape:groupmode="layer"
     id="layer1"
     transform="translate(-101.97883,-207.01922)">
    <path
       id="path4601"
       d="m 325.5166,229.62587 c 45.64607,-5.0806 90.33747,29.80376 97.83317,75.49332 6.435,32.20094 -6.541,67.04951 -31.4678,87.80123 -24.1843,20.96639 -60.00107,27.15613 -89.73637,15.81424 -40.8022,-14.49042 -67.4261,-60.93134 -58.41,-103.93748 6.8239,-39.75028 42.0042,-72.13011 81.781,-75.17131 z"
       inkscape:connector-curvature="0"
       style="fill:#000000;fill-opacity:1" />
    <path
       id="path4603"
       d="m 314.8741,240.00173 c 17.5372,-3.00542 36.6654,-3.47055 52.82357,5.15215 24.8561,11.34188 43.3832,36.13661 47.025,63.50741 6.2229,33.91832 -11.5971,70.59162 -41.6154,86.8352 -35.81667,20.60861 -87.04917,8.76582 -108.36957,-27.62125 -22.9468,-33.81099 -15.8046,-84.11601 15.8046,-109.87676 9.4404,-9.19516 21.8861,-14.45465 34.3318,-17.99675 z"
       inkscape:connector-curvature="0"
       style="fill:#ffffff" />
    <path
       id="path4605"
       d="m 616.57657,294.02775 c 18.2443,-17.96097 44.3733,-29.69642 70.1486,-25.76075 19.0222,4.043 33.5186,18.99855 41.0497,36.63751 2.4396,16.63716 2.1214,33.66788 -2.2275,49.98302 -3.359,19.14167 -13.7186,36.92375 -12.7286,56.78099 35.7461,28.37261 77.1139,64.93857 75.1339,115.20782 -7.2128,22.03975 -25.4571,37.31731 -45.8228,46.58402 4.9853,68.40912 13.7892,136.532 18.7746,204.94111 -70.9618,0.25045 -141.9589,-0.53669 -212.9207,-1.82472 0.035,-3.68522 0.035,-7.37044 0.035,-11.05566 13.5772,-14.56198 27.1543,-29.12396 39.7415,-44.54464 -5.7986,-36.27972 -6.6118,-73.06035 -10.0061,-109.55475 -5.0207,1.21648 -9.9707,2.46873 -14.9561,3.61366 -0.601,-10.55476 -1.3435,-21.18107 -3.8893,-31.48537 -22.4517,-7.29888 -47.4139,-21.25262 -51.9396,-46.90604 -3.8893,-24.1507 10.4657,-46.19046 24.1136,-64.65233 25.5985,-31.48537 56.8543,-57.67546 89.2768,-81.6115 -1.0608,-15.74268 -2.7579,-31.4138 -5.1268,-47.01337 -7.8493,-3.39899 -15.6632,-6.90531 -23.1236,-11.05566 2.475,-15.7069 13.86,-27.44236 24.4671,-38.28334 z"
       inkscape:connector-curvature="0"
       style="fill:#000000;fill-opacity:1" />
    <path
       sodipodi:nodetypes="ccccsccccccc"
       style="fill:#000000;fill-opacity:1"
       inkscape:connector-curvature="0"
       id="path4607"
       d="m 317.632,280.82536 c 13.5418,-11.66389 39.0343,-5.25948 42.57,13.45284 5.33887,15.34912 -5.0561,30.76979 -19.2697,35.88616 -0.8839,5.5815 -0.4966,11.55605 -1.4159,17.10177 -3.6091,-0.24788 -9.3263,1.73756 -9.4338,-0.65725 -1.1614,-25.85753 -0.4691,-18.58993 -1.0656,-25.28189 8.5918,-2.43296 21.4618,-4.7228 21.285,-16.24358 2.5811,-11.05566 -8.5564,-21.18107 -19.0575,-19.4279 -6.0439,1.0395 -8.3443,2.9016 -12.2689,8.83737 -2.2607,7.50951 -1.1668,8.62269 -1.8033,12.95193 -2.6871,-0.39357 -8.0967,-1.10914 -10.7839,-1.50271 1.5911,-9.01626 2.7225,-19.71413 11.2436,-25.11674 z" />
    <path
       sodipodi:nodetypes="cccccccccccccccccccccccccccccccccccccccccccccccccc"
       style="fill:#ffffff;stroke-width:3.5999999;stroke-miterlimit:4;stroke-dasharray:none"
       inkscape:connector-curvature="0"
       id="path4609"
       d="m 650.62557,281.36205 c 18.2089,-7.62089 42.3578,-8.51536 56.6775,7.29888 17.2896,15.59956 15.9107,42.11167 10.4303,62.86339 -3.9953,21.25262 -16.441,41.46766 -13.365,63.57897 24.2197,18.96278 47.5907,39.96495 64.0318,66.4055 9.0514,14.66931 14.3197,33.09541 8.4504,49.98301 -6.0461,14.34731 -18.81,24.36538 -32.2104,31.19914 -20.8607,11.37766 -44.2671,16.85182 -67.4614,20.96639 -2.5104,0.71558 -7.5311,2.21829 -10.0414,2.96964 0.2828,1.53849 0.8132,4.61547 1.096,6.15396 6.1168,-0.25045 12.269,-0.57246 18.3857,-0.89447 0.6718,2.8623 2.0508,8.51536 2.7225,11.34189 -13.7185,4.61546 -27.9675,7.40621 -42.2871,9.23093 -4.6671,-31.02024 -4.455,-62.5056 -8.0614,-93.63318 10.9253,-4.36502 21.9214,-8.47958 32.9175,-12.62992 1.6971,6.83375 2.7932,13.8464 3.7125,20.82327 -2.864,0.64402 -8.6272,1.93206 -11.5265,2.5403 -0.3182,1.96783 -0.9192,5.86772 -1.2375,7.79978 23.8308,-2.71919 51.0911,-9.1236 65.1279,-30.73401 -0.3182,-4.25768 -0.5657,-8.55114 -0.8486,-12.80882 -2.581,0.0358 -5.1621,0.10734 -7.7432,0.14312 0.5657,18.10408 -19.2696,28.30105 -33.9782,31.48536 -4.0307,-9.33827 -3.6064,-20.17925 -6.3996,-29.98265 -13.86,3.39899 -26.5533,10.62631 -40.59,13.16661 -13.5065,-1.71739 -21.9568,-16.52982 -35.4633,-17.96097 -15.8046,1.89627 -31.291,5.9035 -46.7421,9.76761 -0.495,3.82834 -0.9546,7.69245 -1.4496,11.52079 -3.1115,2.43296 -5.9754,5.11637 -8.8393,7.83556 8.4857,4.00723 17.1835,7.54933 26.0228,10.66209 0.389,-1.8605 1.1668,-5.5815 1.5557,-7.442 -3.2528,-1.8605 -6.5057,-3.75677 -9.7232,-5.65305 0.4597,-2.71919 1.379,-8.08602 1.8386,-10.76943 11.5264,-2.00361 22.9468,-4.47235 34.4025,-6.61908 1.2021,30.73401 -0.1768,61.53958 0.2475,92.27359 -9.5111,5.15215 -19.8,8.55114 -30.1243,11.52078 -0.7071,-7.54933 -1.5557,-15.59957 6.3997,-19.57102 -0.389,-1.10914 -1.1668,-3.29165 -1.5558,-4.36502 -20.6839,-5.93928 -43.0296,-13.77484 -55.2985,-32.95229 -10.5718,-19.03434 -0.9547,-41.28876 9.8646,-57.81858 25.8814,-38.3549 62.6882,-67.40731 99.7072,-94.06253 0.106,-4.54391 0.2121,-9.08782 0.2828,-13.66751 3.8186,-0.96603 7.2584,-3.9114 11.5972,-2.39718 5.3521,2.30198 7.2835,7.15576 10.7839,10.87676 10.6425,-6.33285 22.4164,-5.65305 33.4478,-0.93025 0.3183,-1.93205 0.9193,-5.79617 1.2375,-7.69244 -10.1475,-4.50814 -21.2496,-8.47959 -31.786,-2.64764 -6.5765,-9.55294 -17.1129,-8.47958 -27.225,-7.22732 -1.9093,-11.84279 -2.8993,-23.8287 -4.9147,-35.67149 -6.8593,-2.28984 -14.1782,-3.75677 -20.0828,-8.19335 9.0868,-21.00217 27.4725,-37.10264 48.015,-46.08312 z" />
    <path
       id="path4611"
       d="m 609.64657,503.54854 c 6.8593,3.36321 13.4004,7.29888 19.8354,11.37767 3.8539,31.16335 5.445,62.57716 7.2129,93.88363 -9.5818,-5.15215 -21.0729,-8.80159 -27.3665,-18.28298 -0.8485,-28.94507 -0.1414,-57.99747 0.3182,-86.97832 z"
       inkscape:connector-curvature="0"
       style="fill:#ffffff" />
    <path
       sodipodi:nodetypes="cccccccccccc"
       style="fill:#000000;fill-opacity:1"
       inkscape:connector-curvature="0"
       id="path4613"
       d="m 246.1045,745.62806 c 47.1311,-72.66679 94.8986,-144.86845 141.64067,-217.7857 15.2036,7.76401 30.3718,16.49404 42.57,28.65884 -15.3096,23.6498 -31.8568,46.51247 -45.4693,71.19986 45.8229,1.71738 91.7518,-0.14311 137.5747,1.64583 -0.1061,48.73075 -0.071,97.42573 -0.4597,146.15649 -47.7675,1.32382 -95.6764,0.46513 -143.4439,-0.53668 -3.0524,-2.17933 -3.9127,-10.37354 -1.0961,-60.21576 -0.4596,-24.8305 1.0607,-49.73257 -0.4243,-74.56307 -32.52847,44.25841 -59.25847,92.5956 -91.68097,136.92556 -12.6579,-8.08602 -24.9268,-16.78027 -37.6554,-24.79473 -0.3889,-1.6816 -1.1668,-5.00903 -1.5557,-6.69064 z" />
    <path
       id="path4615"
       d="m 390.92727,538.79068 c 9.5465,5.72462 18.8454,11.84279 27.7554,18.56921 -44.4086,69.41092 -89.59497,138.32094 -134.74607,207.19517 -10.395,-4.00723 -19.2696,-10.91254 -27.6139,-18.17564 44.6914,-69.30358 90.1607,-138.10626 134.60457,-207.58874 z"
       inkscape:connector-curvature="0"
       style="fill:#ffffff" />
    <path
       id="path4617"
       d="m 546.85237,542.18967 c 9.3696,1.68161 18.3857,4.86592 27.1896,8.4438 -0.5304,1.89628 -1.6264,5.72462 -2.1921,7.62089 -8.804,-4.043 -24.5733,-3.11275 -24.9975,-16.06469 z"
       inkscape:connector-curvature="0"
       style="fill:#2d2d2e" />
    <path
       id="path4619"
       d="m 665.40487,557.82502 c 9.4403,-2.03939 18.9867,-3.721 28.71,-3.82834 -2.5104,13.16661 -19.4111,8.90893 -28.9222,11.44923 0.071,-1.89628 0.1768,-5.72461 0.2122,-7.62089 z"
       inkscape:connector-curvature="0"
       style="fill:#2d2d2e" />
    <path
       id="path4621"
       d="m 695.63517,589.73973 c 12.4104,-4.54391 25.1036,-8.19335 37.8322,-11.55656 4.9853,49.66101 10.1828,99.32201 14.2135,149.05458 0.9193,13.98952 4.9147,28.22949 2.475,42.18323 -6.0107,3.18432 -13.471,1.03759 -20.0121,1.39538 -25.5279,-2.36141 -51.1618,-0.42935 -76.6897,-2.14673 -0.8839,-45.51067 -0.071,-91.02133 -0.7071,-136.532 -2.8993,-0.28623 -5.7986,-0.57246 -8.6979,-0.85869 -0.1414,45.83268 0.7425,91.66535 -0.3889,137.46224 -27.4371,0.6798 -54.945,-0.0358 -82.3821,-0.75135 0.106,-1.3596 0.3535,-4.07879 0.495,-5.43838 11.7032,-12.66571 23.5478,-25.22407 35.2157,-37.92556 -5.0207,-38.78424 -9.9,-77.74738 -9.9707,-116.96097 5.9753,-2.71919 11.986,-5.29527 18.1382,-7.58511 15.6278,8.87315 31.2203,26.94145 50.7021,20.03614 14.0368,-3.18432 28.109,-6.0824 42.075,-9.48139 -0.6364,-6.97687 -1.4143,-13.95374 -2.2982,-20.89483 z"
       inkscape:connector-curvature="0"
       style="fill:#ffffff" />
    <path
       id="path4623"
       d="m 385.19947,759.72492 c -0.1768,-41.07409 0.5303,-82.1124 1.0607,-123.15071 42.3932,-0.46513 84.7864,0 127.1797,0 0.6364,43.79328 0.99,87.72967 -0.6011,131.52296 -39.8829,0.14311 -79.7657,-0.0716 -119.6132,-0.50091 -5.1622,1.61005 -9.0868,-3.18431 -8.0261,-7.87134 z"
       inkscape:connector-curvature="0"
       style="fill:#ffffff" />
    <path
       transform="matrix(1.7009143,0,0,1.3588421,328.1271,298.63237)"
       d="m 6.9915254,45.974575 a 3.1779661,4.0254235 0 1 1 -6.35593222,0 3.1779661,4.0254235 0 1 1 6.35593222,0 z"
       sodipodi:ry="4.0254235"
       sodipodi:rx="3.1779661"
       sodipodi:cy="45.974575"
       sodipodi:cx="3.8135593"
       id="path4625"
       style="fill:#000000;fill-opacity:1;stroke:#000000;stroke-width:0;stroke-miterlimit:4;stroke-opacity:0.56621004;stroke-dasharray:none"
       sodipodi:type="arc" />
    <path
       transform="matrix(1.9837714,0,0,1.5848137,635.36267,250.35426)"
       d="m 6.9915254,45.974575 a 3.1779661,4.0254235 0 1 1 -6.35593222,0 3.1779661,4.0254235 0 1 1 6.35593222,0 z"
       sodipodi:ry="4.0254235"
       sodipodi:rx="3.1779661"
       sodipodi:cy="45.974575"
       sodipodi:cx="3.8135593"
       id="path4627"
       style="fill:#000000;fill-opacity:1;stroke:#000000;stroke-width:0;stroke-miterlimit:4;stroke-opacity:0.56621004;stroke-dasharray:none"
       sodipodi:type="arc" />
    <path
       transform="matrix(3.492343,0,0,2.7899952,465.90007,158.52493)"
       d="m 6.9915254,45.974575 a 3.1779661,4.0254235 0 1 1 -6.35593222,0 3.1779661,4.0254235 0 1 1 6.35593222,0 z"
       sodipodi:ry="4.0254235"
       sodipodi:rx="3.1779661"
       sodipodi:cy="45.974575"
       sodipodi:cx="3.8135593"
       id="path4631"
       style="fill:none;stroke:#000000;stroke-width:1.79402232;stroke-miterlimit:4;stroke-opacity:1;stroke-dasharray:none"
       sodipodi:type="arc" />
    <path
       transform="matrix(2.2208977,0,0,1.7751028,518.35201,206.86944)"
       d="m 6.9915254,45.974575 a 3.1779661,4.0254235 0 1 1 -6.35593222,0 3.1779661,4.0254235 0 1 1 6.35593222,0 z"
       sodipodi:ry="4.0254235"
       sodipodi:rx="3.1779661"
       sodipodi:cy="45.974575"
       sodipodi:cx="3.8135593"
       id="path4631-4"
       style="fill:none;stroke:#000000;stroke-width:2.51822186;stroke-miterlimit:4;stroke-opacity:1;stroke-dasharray:none"
       sodipodi:type="arc" />
    <path
       transform="matrix(1.2777616,0,0,1.0222733,558.36773,247.58614)"
       d="m 6.9915254,45.974575 a 3.1779661,4.0254235 0 1 1 -6.35593222,0 3.1779661,4.0254235 0 1 1 6.35593222,0 z"
       sodipodi:ry="4.0254235"
       sodipodi:rx="3.1779661"
       sodipodi:cy="45.974575"
       sodipodi:cx="3.8135593"
       id="path4631-4-6"
       style="fill:none;stroke:#000000;stroke-width:3.4998672;stroke-miterlimit:4;stroke-opacity:1;stroke-dasharray:none"
       sodipodi:type="arc" />
  </g>
</svg>
