<?xml version="1.0" encoding="UTF-8" standalone="no"?>
<!-- Created with Inkscape (http://www.inkscape.org/) -->

<svg
   xmlns:dc="http://purl.org/dc/elements/1.1/"
   xmlns:cc="http://creativecommons.org/ns#"
   xmlns:rdf="http://www.w3.org/1999/02/22-rdf-syntax-ns#"
   xmlns:svg="http://www.w3.org/2000/svg"
   xmlns="http://www.w3.org/2000/svg"
   xmlns:sodipodi="http://sodipodi.sourceforge.net/DTD/sodipodi-0.dtd"
   xmlns:inkscape="http://www.inkscape.org/namespaces/inkscape"
   width="316.46255"
   height="179.13361"
   id="svg15116"
   version="1.1"
   inkscape:version="0.48.4 r9939"
   sodipodi:docname="New document 3">
  <defs
     id="defs15118" />
  <sodipodi:namedview
     id="base"
     pagecolor="#ffffff"
     bordercolor="#666666"
     borderopacity="1.0"
     inkscape:pageopacity="0.0"
     inkscape:pageshadow="2"
     inkscape:zoom="0.35"
     inkscape:cx="33.945567"
     inkscape:cy="159.9187"
     inkscape:document-units="px"
     inkscape:current-layer="layer1"
     showgrid="false"
     fit-margin-top="0"
     fit-margin-left="0"
     fit-margin-right="0"
     fit-margin-bottom="0"
     inkscape:window-width="472"
     inkscape:window-height="383"
     inkscape:window-x="0"
     inkscape:window-y="669"
     inkscape:window-maximized="0" />
  <metadata
     id="metadata15121">
    <rdf:RDF>
      <cc:Work
         rdf:about="">
        <dc:format>image/svg+xml</dc:format>
        <dc:type
           rdf:resource="http://purl.org/dc/dcmitype/StillImage" />
        <dc:title></dc:title>
      </cc:Work>
    </rdf:RDF>
  </metadata>
  <g
     inkscape:label="Layer 1"
     inkscape:groupmode="layer"
     id="layer1"
     transform="translate(-341.05443,-513.14728)">
    <path
       inkscape:connector-curvature="0"
       id="path322"
       style="fill:#231f20;fill-opacity:1;fill-rule:nonzero;stroke:none"
       d="m 536.5906,661.80289 c 4.18937,-1.68391 6.23452,-6.46759 4.55062,-10.65113 -1.6839,-4.23598 -6.48507,-6.28696 -10.67443,-4.62054 0,0 -6.80553,2.72688 -6.80553,2.72688 0,0 -27.85724,11.15222 -27.85724,11.15222 -4.21267,1.68973 -6.25783,6.49089 -4.55062,10.69773 1.6606,4.18937 6.46176,6.24035 10.65113,4.57975 0,0 16.58848,-6.64821 16.58848,-6.64821 0,0 18.09759,-7.2367 18.09759,-7.2367 z m -70.96865,-15.41151 c 1.6839,4.18937 6.46759,6.25783 10.65112,4.57393 0,0 13.56446,-5.43627 13.56446,-5.43627 0,0 27.88637,-11.15222 27.88637,-11.15222 4.20684,-1.6839 6.25782,-6.46758 4.57392,-10.67443 -1.6839,-4.18936 -6.46759,-6.24035 -10.67443,-4.55644 0,0 -13.88492,5.55863 -13.88492,5.55863 0,0 -0.0233,-0.0699 -0.0233,-0.0699 -2.06846,3.72905 -3.43772,6.1879 -3.41442,6.14712 -2.98324,5.73342 -8.01165,9.98688 -14.19955,11.92133 -4.96431,1.59651 -10.17334,1.43336 -15.02695,-0.20416 -0.13424,1.29934 0.0233,2.61616 0.54771,3.8922 z m -18.8434,-18.54624 c 0,0 2.86671,-1.16533 2.86671,-1.16533 -1.77713,-5.86744 -1.41005,-12.40495 1.63729,-18.27239 0,0 0.0699,-0.0932 0.0699,-0.13984 0,0 -10.69774,4.28259 -10.69774,4.28259 -4.18936,1.68391 -6.25783,6.48507 -4.57392,10.69774 1.6839,4.20685 6.48507,6.28114 10.69774,4.59723 z m -76.97594,-6.64821 c 0,0 94.52582,-37.82664 94.52582,-37.82664 4.52731,-8.69337 9.05462,-17.43336 11.63,-22.39767 0,0 -112.27963,44.95265 -112.27963,44.95265 -5.05171,2.02767 -7.80772,7.10269 -6.12382,11.28623 1.6839,4.23598 7.17261,6.0131 12.24763,3.98543 z M 651.5505,603.55964 c 0,0 5.9665,14.85797 5.9665,14.85797 0,0 -24.46613,9.78878 -28.13109,11.26876 -7.32993,10.79096 -27.40276,23.19008 -35.62417,26.49379 0,0 -51.23377,20.504 -51.23377,20.504 0,0 -18.09177,7.24253 -18.09177,7.24253 0,0 -16.571,6.61908 -16.571,6.61908 -12.40495,4.96431 -26.53459,-1.08958 -31.4989,-13.49453 -1.27604,-3.16387 -1.80044,-6.42097 -1.70721,-9.62563 -10.12673,0.58849 -19.96212,-5.16824 -23.91842,-15.09104 -1.09541,-2.75601 -1.64311,-5.64603 -1.70721,-8.55935 -11.40276,2.56955 -23.32992,-3.36781 -27.81645,-14.56664 -1.41005,-3.52513 -1.84122,-7.16679 -1.59068,-10.69774 0,0 -43.88636,17.54989 -43.88636,17.54989 -13.26729,5.32556 -28.08448,-0.47779 -33.04296,-12.88274 -4.98762,-12.40495 1.7713,-26.83757 15.02112,-32.13983 0,0 146.75595,-58.72102 146.75595,-58.72102 0,0 0.0699,0.2037 0.0699,0.2037 1.45667,-0.72834 2.95994,-1.41005 4.55062,-2.04516 0,0 39.24252,-15.70866 39.24252,-15.70866 9.64894,-3.8689 20.45739,-0.0233 29.99562,3.36781 6.67152,2.37144 14.22286,5.05753 17.93444,3.57756 0,0 18.93663,-7.58048 18.93663,-7.58048 0,0 5.9665,14.8638 5.9665,14.8638 0,0 -18.95994,7.58048 -18.95994,7.58048 -9.31099,3.72906 -19.43772,0.13424 -29.24981,-3.35033 -6.87545,-2.43554 -14.63655,-5.18572 -18.68608,-3.57174 0,0 -39.21339,15.67953 -39.21339,15.67953 -15.61543,6.26365 -22.78804,19.00655 -22.78804,19.00655 0,0 -26.76183,51.46101 -26.76183,51.46101 -2.09759,4.03205 -0.5244,8.99053 3.50182,11.08813 1.95776,1.01966 4.16606,1.20612 6.25783,0.54188 2.09759,-0.65842 3.8048,-2.09177 4.9177,-4.23015 0,0 23.07938,-41.67807 23.07938,-41.67807 0,0 2.86671,-5.13911 2.86671,-5.13911 0,0 5.76256,1.18281 5.76256,1.18281 0.25031,0.0466 25.78295,5.14494 47.24834,-3.46103 21.0051,-8.39621 26.87836,-14.58994 26.92498,-14.63656 0,0 12.24763,10.3598 12.24763,10.3598 -1.20612,1.45666 -8.44865,9.25855 -33.21194,19.16386 -19.3911,7.76111 -40.48942,6.46176 -50.52292,5.18573 -1.34596,2.38893 -3.07647,5.52949 -4.96431,8.94391 11.33284,-2.41223 23.12599,3.53096 27.5659,14.63656 1.6606,4.18936 1.99855,8.55936 1.34013,12.70211 7.64457,1.63729 14.36271,6.93954 17.47997,14.72395 1.08958,2.68609 1.54989,5.46541 1.63729,8.19228 0,0 30.15876,-12.06117 30.15876,-12.06117 18.09177,-7.23671 29.90822,-22.82884 30.01893,-22.98616 0,0 1.39257,-1.84705 1.39257,-1.84705 0,0 2.09177,-0.81573 2.09177,-0.81573 0,0 30.24616,-12.10779 30.24616,-12.10779 z" />
  </g>
</svg>
