<?xml version="1.0" encoding="UTF-8" standalone="no"?>
<!-- Created with Inkscape (http://www.inkscape.org/) -->

<svg
   xmlns:dc="http://purl.org/dc/elements/1.1/"
   xmlns:cc="http://creativecommons.org/ns#"
   xmlns:rdf="http://www.w3.org/1999/02/22-rdf-syntax-ns#"
   xmlns:svg="http://www.w3.org/2000/svg"
   xmlns="http://www.w3.org/2000/svg"
   xmlns:sodipodi="http://sodipodi.sourceforge.net/DTD/sodipodi-0.dtd"
   xmlns:inkscape="http://www.inkscape.org/namespaces/inkscape"
   width="800"
   height="600"
   id="svg4708"
   version="1.1"
   inkscape:version="0.48.4 r9939"
   sodipodi:docname="yay.svg">
  <defs
     id="defs4710" />
  <sodipodi:namedview
     id="base"
     pagecolor="#ffffff"
     bordercolor="#666666"
     borderopacity="1.0"
     inkscape:pageopacity="0.0"
     inkscape:pageshadow="2"
     inkscape:zoom="0.35"
     inkscape:cx="-152.94552"
     inkscape:cy="266.20299"
     inkscape:document-units="px"
     inkscape:current-layer="layer1"
     showgrid="false"
     fit-margin-top="0"
     fit-margin-left="0"
     fit-margin-right="0"
     fit-margin-bottom="0"
     inkscape:window-width="714"
     inkscape:window-height="383"
     inkscape:window-x="801"
     inkscape:window-y="24"
     inkscape:window-maximized="0" />
  <metadata
     id="metadata4713">
    <rdf:RDF>
      <cc:Work
         rdf:about="">
        <dc:format>image/svg+xml</dc:format>
        <dc:type
           rdf:resource="http://purl.org/dc/dcmitype/StillImage" />
        <dc:title />
      </cc:Work>
    </rdf:RDF>
  </metadata>
  <g
     inkscape:label="Layer 1"
     inkscape:groupmode="layer"
     id="layer1"
     transform="translate(-187.94552,-198.56514)">
    <g
       transform="translate(1316.7728,-236.97791)"
       id="g4347">
      <path
         id="path4254"
         d="m -587.2866,517.66982 c 1.97464,-15.5785 3.40077,-31.23102 5.30228,-46.80952 5.55826,-2.84928 9.69038,-1.70217 12.46951,3.51534 0.80448,14.28338 -2.59629,28.30773 -4.13213,42.4061 -4.24182,2.55324 -9.06873,1.77617 -13.63966,0.88808 z"
         inkscape:connector-curvature="0"
         style="fill:#231f20" />
      <path
         id="path4256"
         d="m -608.23975,480.51823 c 0.54851,-7.95577 10.6777,-9.58392 13.85906,-2.18321 -5.99706,54.13623 -25.70692,108.97553 -64.57813,147.9033 -5.44855,4.51443 -13.85906,14.5424 -19.49045,4.88447 0.0731,-2.66426 0.25597,-7.91877 0.3291,-10.58302 -17.58894,-2.25722 -35.87267,-7.06769 -48.63472,-20.38898 -9.76351,-9.84295 -17.99119,-24.12633 -13.42025,-38.44671 4.79033,0.44404 11.84785,-1.18412 11.44561,6.03158 3.69331,24.90341 29.61964,38.2987 52.51087,38.55773 0.54851,-10.58302 1.353,-21.12904 2.59629,-31.60106 4.53437,-2.51624 9.06873,-5.03248 13.63966,-7.51172 -13.85906,-18.98284 -31.99652,-38.92776 -56.82583,-40.81495 -23.40317,0.85109 -43.66154,21.38807 -44.9414,44.99635 -1.353,24.71839 8.04484,48.6227 19.85613,69.82575 3.3642,3.92238 1.46269,8.69584 0.47537,13.13627 -9.47097,-0.18502 -17.88148,-4.95848 -25.78006,-9.69494 -46.55037,-28.27073 -77.85212,-78.89162 -87.9813,-132.25078 -0.73135,-7.40071 6.61871,-6.2166 11.40905,-5.95757 11.48218,49.43677 37.62791,97.50442 81.14319,124.92407 -9.28814,-23.86731 -18.3203,-50.87992 -9.65381,-76.30137 8.59335,-28.12272 39.67569,-48.43769 68.52742,-40.48192 25.34124,7.32671 44.28319,28.12272 58.32509,49.73281 3.47391,10.13898 -8.52022,14.4684 -15.02922,18.90883 -1.38957,9.28789 -2.41346,18.6128 -2.96197,27.9747 32.3622,-35.70845 48.85413,-83.25805 55.1803,-130.65963 z"
         inkscape:connector-curvature="0"
         style="fill:#231f20" />
      <path
         id="path4258"
         d="m -555.07067,486.3648 c -2.01121,-8.62184 14.07847,-8.69584 12.79861,-0.22202 5.15601,73.67412 -30.13158,145.38705 -82.05737,195.41588 24.57333,57.05952 20.55091,121.59375 12.79861,181.87258 -3.21794,30.89799 -11.29935,60.90789 -16.78447,91.39883 12.57921,12.4332 26.03603,24.16334 37.18911,37.96567 1.20672,7.14169 -6.69185,9.76896 -12.21353,8.73286 -65.74829,-0.037 -131.53315,-0.074 -197.28144,0 -4.71721,-0.074 -9.36127,-0.8141 -13.9322,-2.14622 0.18283,-3.95938 0.69478,-7.88176 1.5724,-11.73014 20.55091,-65.97737 38.32269,-133.24987 46.5138,-202.07652 1.64554,-23.7933 6.03363,-48.03065 1.27986,-71.74994 -63.73708,-24.05232 -111.89642,-79.89072 -136.76229,-142.87081 -6.03363,-16.13356 -12.79861,-32.45213 -13.9322,-49.80681 4.49779,-0.66607 9.06873,-1.59115 13.38369,0.51805 16.56506,80.40877 71.78192,155.41502 150.14598,182.68666 6.47244,50.7689 -1.97464,102.12987 -11.88442,151.89968 -8.37395,44.5153 -22.23302,87.62446 -33.27639,131.39969 26.10917,0.037 52.2549,0 78.36406,0.037 8.84933,-45.81043 16.27252,-91.95389 26.43828,-137.43128 3.62018,0.11101 7.27692,0.25902 10.8971,0.44404 1.20673,11.84114 -2.63286,23.31225 -4.38809,34.93138 -6.43588,34.00628 -12.76205,68.01257 -18.97852,102.05586 30.16816,-0.074 60.33631,0.074 90.50446,-0.074 -9.14186,-9.3619 -19.05164,-18.02074 -27.60843,-27.9007 -2.04777,-5.95757 1.27986,-12.02616 2.15748,-17.90973 14.37101,-60.53785 23.73228,-123.03689 19.63673,-185.38791 -3.36421,-33.89528 -10.16575,-70.3068 -34.00774,-95.95028 -3.91272,-5.14349 -13.67623,-9.43591 -9.39783,-17.16966 2.37688,-6.47562 10.53142,-1.92418 13.42025,1.70217 7.27693,6.62364 13.42026,14.43139 18.83224,22.68319 49.69518,-45.07035 79.35139,-113.52697 76.57226,-181.31752 z"
         inkscape:connector-curvature="0"
         style="fill:#231f20" />
      <path
         id="path4262"
         d="m -884.98228,515.15358 c 10.86053,-7.10469 13.74936,6.73465 15.5046,14.54241 1.97464,11.17508 11.51875,20.98102 8.33738,32.78516 -3.3642,-0.11101 -6.76498,-0.18501 -10.12918,-0.18501 -6.28961,-14.87544 -15.61431,-30.60196 -13.7128,-47.14256 z"
         inkscape:connector-curvature="0"
         style="fill:#231f20" />
      <path
         id="path4272"
         d="m -700.35318,562.74018 c 1.86494,-0.037 5.59482,-0.11101 7.45976,-0.14802 0.0731,3.33033 0.0731,6.69765 0.0366,10.06498 -1.86494,-0.037 -5.63139,-0.11101 -7.49633,-0.18502 0,-3.25632 0,-6.47563 0,-9.73194 z"
         inkscape:connector-curvature="0"
         style="fill:#221f20" />
    </g>
  </g>
</svg>
