<svg width="140" height="152" xmlns="http://www.w3.org/2000/svg">

 <g>
  <title>background</title>
  <rect fill="none" id="canvas_background" height="154" width="142" y="-1" x="-1"/>
 </g>
 <g>
  <title>Layer 1</title>
  <path stroke="null" id="svg_1" d="m103.980871,70.901657c1.180323,0 2.149531,-0.924135 2.149531,-2.070062l0,-15.451531c0,-1.145927 -0.969208,-2.070062 -2.149531,-2.070062l-45.955831,0l-5.565751,0l-15.449757,0c-1.189919,0 -2.149531,0.924135 -2.149531,2.070062l0,93.309875c0,1.145927 0.959612,2.070062 2.149531,2.070062l15.440161,0l5.575347,0l45.965427,0c1.180323,0 2.149531,-0.924135 2.149531,-2.070062l0,-15.451531c0,-1.145927 -0.969208,-2.070062 -2.149531,-2.070062l-43.815896,0l0,-20.377169l33.701583,0c1.180323,0 2.149531,-0.924135 2.149531,-2.070062l0,-15.451531c0,-1.145927 -0.969208,-2.070062 -2.149531,-2.070062l-33.701583,0l0,-18.297866l43.8063,0z" fill="#40C0E7"/>
 </g>
</svg>
