<svg width="64" height="64" xmlns="http://www.w3.org/2000/svg">
 <g>
  <title>background</title>
  <rect x="-1" y="-1" width="66" height="66" id="canvas_background" fill="none"/>
 </g>

 <g>
  <title>Layer 1</title>
  <path d="m41.9,38.4c-3.3,-3.3 -5.6,-5.6 -10.4,-10.4c-3.1,-3.1 -0.4,-11 -8.6,-19.2c-5.8,-5.8 -15.3,-9 -19.2,-5.1c-3.9,3.9 -0.7,13.4 5.1,19.2c8.2,8.2 16,5.5 19.2,8.6c4.8,4.8 7.1,7.1 10.4,10.4c4.3,4.3 4.6,5.8 11.3,14.8c3.3,4.5 6.5,7.3 10.4,3.4c4,-4 1.1,-7.1 -3.4,-10.4c-9,-6.7 -10.4,-7 -14.8,-11.3" fill="#d0d0d0" id="svg_1"/>
  <path d="m15.6,5.9c5.4,6.9 7.2,14.9 4.4,20.1c0.2,0 0.4,0.1 0.5,0.1c1.9,0 3.6,-0.5 4.8,-1.7c1.2,-1.2 2,-2.9 1.7,-4.8c-0.4,-2.8 -1.9,-6 -5.2,-9.3c-1.8,-1.9 -4,-3.4 -6.2,-4.4" fill="#fff" id="svg_2"/>
  <path d="m13.2,23.7c-6.9,-6.9 -9.2,-15.8 -5.5,-20.4c-1.3,0.1 -2.3,0.5 -3.1,1.3c-3.1,3.1 -0.6,11.7 5.1,17.4c2.3,2.3 4.6,3.7 6.7,4.6c0,0 0,-0.1 -0.1,-0.1c-1.1,-0.8 -2.1,-1.8 -3.1,-2.8" fill="#94989b" id="svg_3"/>
 </g>
</svg>