<?xml version="1.0" encoding="UTF-8" standalone="no"?>
<!-- Created with Inkscape (http://www.inkscape.org/) -->

<svg
   xmlns:dc="http://purl.org/dc/elements/1.1/"
   xmlns:cc="http://creativecommons.org/ns#"
   xmlns:rdf="http://www.w3.org/1999/02/22-rdf-syntax-ns#"
   xmlns:svg="http://www.w3.org/2000/svg"
   xmlns="http://www.w3.org/2000/svg"
   xmlns:sodipodi="http://sodipodi.sourceforge.net/DTD/sodipodi-0.dtd"
   xmlns:inkscape="http://www.inkscape.org/namespaces/inkscape"
   width="357.94043"
   height="298.92358"
   id="svg4066"
   version="1.1"
   inkscape:version="0.48.4 r9939"
   sodipodi:docname="New document 22">
  <defs
     id="defs4068" />
  <sodipodi:namedview
     id="base"
     pagecolor="#ffffff"
     bordercolor="#666666"
     borderopacity="1.0"
     inkscape:pageopacity="0.0"
     inkscape:pageshadow="2"
     inkscape:zoom="0.35"
     inkscape:cx="178.97022"
     inkscape:cy="149.5118"
     inkscape:document-units="px"
     inkscape:current-layer="layer1"
     showgrid="false"
     fit-margin-top="-0.1"
     fit-margin-left="0"
     fit-margin-right="0"
     fit-margin-bottom="0"
     inkscape:window-width="1297"
     inkscape:window-height="363"
     inkscape:window-x="623"
     inkscape:window-y="172"
     inkscape:window-maximized="0" />
  <metadata
     id="metadata4071">
    <rdf:RDF>
      <cc:Work
         rdf:about="">
        <dc:format>image/svg+xml</dc:format>
        <dc:type
           rdf:resource="http://purl.org/dc/dcmitype/StillImage" />
        <dc:title></dc:title>
      </cc:Work>
    </rdf:RDF>
  </metadata>
  <g
     inkscape:label="Layer 1"
     inkscape:groupmode="layer"
     id="layer1"
     transform="translate(-196.02978,-382.95039)">
    <path
       style="fill:#000000"
       d="m 454.20324,679.96492 -5.26698,-2.38404 0.26698,-25.78027 0.26698,-25.78026 16.68377,-9.01884 c 9.17607,-4.96036 16.94691,-9.28968 17.26853,-9.6207 0.32162,-0.33103 -1.78608,-1.49173 -4.68377,-2.57935 -23.05483,-8.65339 -75.41591,-29.79936 -76.01455,-30.69841 -0.41031,-0.61621 -0.63531,-10.33144 -0.5,-21.58939 l 0.24602,-20.46902 4,-2.26453 c 2.2,-1.2455 4.96314,-2.27194 6.14031,-2.28099 1.8031,-0.0139 137.58245,50.76712 140.40254,52.51003 0.56428,0.34875 0.95715,9.95629 0.95715,23.40693 l 0,22.81538 -8.25,4.96516 c -4.5375,2.73084 -15.675,9.47577 -24.75,14.98874 -9.075,5.51297 -25.79015,15.66482 -37.14477,22.55966 -11.35463,6.89484 -21.47963,12.77635 -22.5,13.07001 -1.02038,0.29367 -4.22537,-0.53888 -7.12221,-1.85011 z m 4.76698,-25.44707 c 0,-20.69251 -0.11204,-22.02478 -1.93426,-23 -1.06384,-0.56935 -2.41384,-1.03518 -3,-1.03518 -0.72195,0 -1.06574,7.08075 -1.06574,21.95031 0,19.85009 0.16744,22.04784 1.75,22.96959 4.17584,2.4322 4.25,2.06777 4.25,-20.88472 z m 26.12316,8.34381 c 32.89831,-20.02553 46.36651,-28.20036 55.87684,-33.91571 l 8.5,-5.10817 0.27159,-19.17756 c 0.14938,-10.54765 -0.0415,-19.17755 -0.42429,-19.17755 -0.38273,0 -7.47995,3.66261 -15.77159,8.13913 -8.29164,4.47651 -18.67571,10.07754 -23.07571,12.44672 -4.4,2.36918 -17,9.17813 -28,15.131 l -20,10.82339 -0.26913,22.22988 c -0.14802,12.22643 -0.0926,22.22988 0.12316,22.22988 0.21576,0 10.46187,-6.12945 22.76913,-13.62101 z M 469.8526,624.34438 c 5.28969,-2.82607 20.86762,-11.23231 34.61762,-18.68055 13.75,-7.44824 27.96704,-15.1485 31.59343,-17.1117 12.84443,-6.95354 14.78325,-5.12555 -18.82704,-17.75074 -16.37152,-6.14971 -46.55407,-17.52048 -67.07234,-25.26838 -27.56747,-10.40975 -37.74248,-13.8428 -38.97821,-13.15126 -2.16163,1.20971 -7.67227,-1.03388 63.78416,25.96906 48.03552,18.15233 60.5,23.22078 60.5,24.60123 0,1.26238 -10.27223,7.25847 -37.5,21.88941 -45.32872,24.35756 -41.90255,22.33546 -40,23.60761 2.01,1.344 1.08693,1.66287 11.88238,-4.10468 z m 39.31622,-30.51765 c 10.93923,-5.86077 19.53219,-11.0079 19.09546,-11.43807 -0.99442,-0.97949 -119.58484,-45.90599 -121.17592,-45.90599 -0.85198,0 -1.09104,4.72354 -0.89121,17.60945 l 0.27307,17.60944 41,16.28678 c 22.55,8.95773 41.18204,16.33348 41.40454,16.39056 0.2225,0.0571 9.35483,-4.6914 20.29406,-10.55217 z m -259.52351,66.83262 c -1.94193,-0.37483 -1.91021,0.24986 -0.64377,-12.67668 1.55824,-15.90495 4.93182,-53.34149 5.49698,-61 0.28412,-3.85 0.74698,-9.1375 1.02858,-11.75 0.72016,-6.68108 -0.86798,-6.25693 -10.24827,2.73699 -4.29473,4.11784 -8.27978,7.49284 -8.85566,7.5 -0.57588,0.007 -2.80759,-1.78994 -4.95936,-3.99355 l -3.91231,-4.00657 5.38129,-5.44897 5.38128,-5.44897 -1.79955,-3.99069 c -1.9441,-4.31125 -1.55538,-7.09824 0.99006,-7.09824 0.87842,0 2.53075,-0.49966 3.67184,-1.11035 1.86208,-0.99656 0.95859,-1.69168 -8.81574,-6.78254 -13.98038,-7.28153 -21.69814,-12.57506 -27.69745,-18.99736 -20.79477,-22.26096 -3.98497,-43.63254 50.00203,-63.57141 8.77983,-3.24263 11.8792,-4.83689 12.09465,-6.22125 0.15933,-1.02375 -1.34465,-7.4764 -3.34219,-14.33922 -4.79688,-16.48042 -6.35104,-24.98864 -5.94826,-32.56379 1.01337,-19.0587 17.6396,-32.02048 36.50076,-28.45594 8.73404,1.65064 19.37302,7.44156 26.44349,14.39353 6.17607,6.07255 12.52889,15.59157 12.54712,18.80051 0.01,1.71139 -4.60344,3.83553 -8.38984,3.86313 -1.15543,0.008 -2.62603,0.34946 -3.268,0.75786 -0.64196,0.40839 -2.32946,8.53407 -3.75,18.05705 -3.03665,20.3572 -2.8796,18.16978 -1.30457,18.16978 2.15349,0 15.36136,6.68072 21.64776,10.94972 20.14637,13.68114 36.88158,33.73049 41.70224,49.9607 2.51842,8.47902 2.1696,17.58622 -0.90594,23.65304 -2.47956,4.89118 -8.3194,11.0802 -12.63379,13.38919 -1.80558,0.96632 -2.08847,2.04455 -2.08847,7.96009 0,7.92641 -0.0662,8.00948 -9.45433,11.85707 l -6.7407,2.76259 -0.32834,5.4838 c -0.18059,3.01609 -0.63794,10.6588 -1.01633,16.9838 -0.3784,6.325 -0.81974,12.20346 -0.98076,13.06324 -0.16102,0.85978 -0.61164,6.06091 -1.00137,11.55807 l -0.7086,9.99484 10.72287,11.19018 c 7.05763,7.3652 10.5259,11.7035 10.1466,12.69193 -0.49986,1.30262 -6.24869,1.50568 -43.35767,1.53144 -23.52976,0.0163 -48.89008,0.12884 -56.35628,0.25 -7.4662,0.12117 -14.3287,0.0748 -15.25,-0.10302 z m 54.12085,-38.6393 c 0.16278,-18.67944 0.48087,-34.14754 0.70688,-34.37354 0.226,-0.226 1.10532,-0.14445 1.95404,0.18124 1.34901,0.51766 1.54313,4.87318 1.54313,34.62354 l 0,34.03138 24.5,0 c 13.47501,0 24.50001,-0.30953 24.50001,-0.68785 0,-0.37832 -4.06291,-4.83087 -9.02868,-9.89455 -8.77042,-8.94334 -9.01346,-9.31697 -8.49647,-13.06214 0.81488,-5.90317 2.38437,-25.53703 3.06604,-38.35546 0.33636,-6.325 0.78814,-12.0625 1.00395,-12.75 0.55243,-1.75983 -1.64605,-1.55462 -6.46662,0.60361 -4.13978,1.85344 -4.14168,1.85331 -20.18412,-1.37492 -8.82417,-1.77569 -16.41101,-3.62232 -16.85964,-4.10361 -0.44863,-0.48129 -1.11238,-6.05008 -1.475,-12.37508 -0.36262,-6.325 -0.84147,-13.3 -1.06411,-15.5 -0.22265,-2.2 -0.68152,-8.5 -1.01973,-14 -0.3382,-5.5 -0.82611,-11.91989 -1.08424,-14.26643 -0.36778,-3.34317 -0.10941,-4.40454 1.19394,-4.90469 0.91482,-0.35105 9.14486,1.71408 18.28899,4.58918 l 16.62568,5.22744 15.32938,-7.14928 c 8.43115,-3.93211 15.96865,-6.90397 16.75,-6.60414 0.99058,0.38013 1.42063,2.21959 1.42063,6.07654 0,4.0613 0.37022,5.53138 1.39301,5.53138 0.76616,0 1.64583,0.65883 1.95483,1.46407 0.58547,1.52572 -2.22366,3.92666 -8.11581,6.93651 -3.05895,1.56259 -3.30946,1.56123 -3.91675,-0.0214 -0.42474,-1.10683 0.15748,-2.34361 1.68587,-3.58123 1.73385,-1.40398 2.38604,-3.03667 2.53429,-6.34424 0.10979,-2.44956 -0.0783,-4.45614 -0.41791,-4.45908 -0.33964,-0.003 -6.33939,2.58456 -13.33278,5.75 l -12.71526,5.75537 -0.0348,24.75 c -0.0191,13.6125 0.2237,24.75 0.53958,24.75 0.31589,0 6.1659,-2.29903 13.00001,-5.10896 l 12.42572,-5.10896 0,-4.89104 c 0,-3.68092 -0.37112,-4.89104 -1.5,-4.89104 -3.26065,0 -1.42858,-3.63617 2.88896,-5.73379 15.74001,-7.64709 19.78185,-21.84552 11.30187,-39.70194 -6.32766,-13.32426 -19.82418,-28.63722 -34.19083,-38.79243 -8.41993,-5.95171 -12.90857,-8.4225 -21.50001,-11.83477 -3.92479,-1.55881 -6.46332,-3.14726 -6.40741,-4.00934 0.0509,-0.78525 0.39716,-3.73925 0.76942,-6.56445 0.65341,-4.95903 0.58486,-5.1598 -1.98158,-5.80393 -2.07269,-0.52022 -3.27523,-0.0763 -5.45806,2.01502 -2.26402,2.16907 -3.33753,2.54136 -5.61101,1.94587 -3.79035,-0.9928 -8.13704,-1.01458 -12.06135,-0.0604 -2.86463,0.6965 -3.25,0.54776 -3.25,-1.25443 0,-1.57235 1.18487,-2.43819 5.1296,-3.74841 4.71577,-1.56633 5.39798,-1.5758 8.45643,-0.11732 3.30246,1.57483 3.34493,1.56335 5.79516,-1.56746 2.37284,-3.03194 2.6143,-3.10912 6.2427,-1.99554 2.07592,0.63712 3.87501,1.05778 3.99799,0.9348 0.12298,-0.12298 0.94884,-5.17086 1.83523,-11.21752 2.20916,-15.07004 1.93547,-14.4912 6.86027,-14.50923 6.4519,-0.0236 7.43151,-1.10741 4.63808,-5.13129 -13.85096,-19.95208 -34.22487,-28.90766 -49.46613,-21.74342 -4.84801,2.27883 -10.98149,8.44753 -12.61981,12.69226 -3.49013,9.04261 -2.75828,17.93706 3.20381,38.93725 2.59986,9.15746 3.93276,15.74453 3.73468,18.45641 l -0.30801,4.21688 -14.23704,5.2015 c -33.84843,12.36652 -53.41692,26.02853 -55.84881,38.99163 -1.01185,5.39362 2.04608,12.01169 8.51105,18.41989 6.69797,6.63913 13.22695,11.02919 26.97304,18.13653 10.30728,5.32932 12.71223,7.7187 11.02181,10.95048 -0.46399,0.88707 -2.19986,2.17462 -3.85749,2.86123 -2.52662,1.04657 -2.85134,1.55207 -2.00857,3.1268 1.97463,3.68962 9.04919,5.94797 13.40121,4.27794 2.25821,-0.86656 4.5448,-5.659 4.5448,-9.52541 0,-1.88218 -1.11275,-4.85161 -2.64855,-7.06777 -2.95821,-4.2687 -2.69825,-5.12829 1.51471,-5.00851 1.96578,0.0559 3.79532,-0.85813 5.70273,-2.84904 l 2.80839,-2.93133 -5.36631,-4.80639 c -6.801,-6.0914 -6.26548,-7.64516 2.39536,-6.94995 3.91305,0.3141 8.09669,1.48752 11.55921,3.24212 5.42806,2.7506 17.03446,12.88738 17.03446,14.87752 0,1.35558 -7.08657,8.63994 -8.40534,8.63994 -0.5497,0 -2.48789,-1.44266 -4.30711,-3.20591 l -3.30766,-3.20591 -5.52864,5.45591 c -9.06953,8.95022 -9.74036,11.26161 -12.32175,42.45591 -1.22887,14.85 -2.43573,28.9125 -2.68191,31.25 -0.24617,2.3375 -0.64985,6.1625 -0.89706,8.5 -0.24721,2.3375 -0.7487,7.85 -1.11443,12.25 -0.36572,4.4 -0.86975,8.34516 -1.12006,8.76702 -0.25031,0.42187 11.16368,0.64687 25.36442,0.5 l 25.81953,-0.26702 0.29595,-33.96262 z m 52.90183,-76.17295 c -1.59469,-1.59468 -0.45026,-3.42517 3.64009,-5.82228 5.01358,-2.93815 6.2275,-3.1172 7.02601,-1.0363 0.80798,2.10556 -9.06837,8.45631 -10.6661,6.85858 z M 292.04415,421.62081 c -1.48286,-2.77075 1.13557,-6.05036 3.6175,-4.53096 2.29052,1.40224 2.91843,4.39138 1.15695,5.50768 -2.13547,1.35332 -3.69859,1.03355 -4.77445,-0.97672 z m 14.3146,-4.568 c -0.99567,-2.59467 0.39988,-4.73919 2.85699,-4.39028 1.65273,0.23469 2.25447,0.98741 2.25447,2.82014 0,1.83273 -0.60174,2.58545 -2.25447,2.82014 -1.35228,0.19202 -2.49559,-0.3082 -2.85699,-1.25 z m -63.59151,159.1354 5.22869,-5.29447 -3.58772,-1.29733 c -1.97325,-0.71354 -3.66653,-1.13662 -3.76286,-0.94019 -0.0963,0.19644 -1.94275,2.25128 -4.10319,4.56631 -3.84555,4.12075 -3.88955,4.2517 -2.09501,6.23465 1.00817,1.11402 2.11617,2.02549 2.46222,2.02549 0.34604,0 2.98208,-2.38251 5.85787,-5.29446 z m 88.20297,-21.14652 c 0,-13.44254 -0.39619,-24.68585 -0.88043,-24.98512 -0.87844,-0.54291 -29.09704,-9.5739 -29.91499,-9.5739 -0.4243,0 0.59789,19.11837 1.28318,24 0.19303,1.375 0.65544,7.81047 1.02757,14.30104 0.37214,6.49056 0.7877,12.55785 0.92346,13.48286 0.19233,1.31045 3.09696,2.26963 13.15402,4.34377 7.09896,1.46406 13.24469,2.70927 13.65719,2.76713 0.4125,0.0579 0.75,-10.89324 0.75,-24.33578 z m -59.77601,-11.77949 -2.23509,-2.23509 -3.49532,3.49533 c -3.31657,3.31657 -3.43268,3.66128 -2.27039,6.74056 l 1.22494,3.24523 4.50547,-4.50547 4.50547,-4.50547 -2.23508,-2.23509 z m 12.4159,-3.2571 c -5.98248,-5.3231 -12.85206,-9.12986 -18.13988,-10.05217 l -4,-0.69768 2,2.03823 c 1.1,1.12103 6.04301,5.66897 10.98447,10.10652 l 8.98446,8.06828 2.51554,-2.56937 2.51553,-2.56936 -4.86012,-4.32445 z m 94.37231,77.14621 c -20.15672,-8.62105 -28.58593,-12.69376 -28.82332,-13.92645 -0.22232,-1.15442 0.29494,-1.74219 1.5332,-1.74219 1.02779,0 12.8431,4.7208 26.25623,10.49067 30.35111,13.05599 28.0217,12.32829 28.0217,8.75387 0,-2.83821 -0.48153,-3.09013 -26.75,-13.99454 -15.92287,-6.60981 -26.75,-11.63973 -26.75,-12.42715 0,-0.72757 0.675,-1.25098 1.5,-1.16314 0.825,0.0878 13.14745,5.0037 27.38322,10.92413 l 25.88322,10.76443 14.36678,-7.21033 c 7.90173,-3.96568 14.36678,-7.56971 14.36678,-8.00896 0,-0.43924 -15.3,-6.82369 -34,-14.18767 -26.87937,-10.58496 -34,-13.76101 -34,-15.16517 0,-1.04372 0.72164,-1.75577 1.75,-1.72673 0.9625,0.0272 17.95,6.47006 37.75,14.31753 l 36,14.26813 0,6.30351 0,6.30351 -6.5,3.68314 c -3.575,2.02573 -11.675,6.43816 -18,9.80541 l -11.5,6.12226 -28.48781,-12.18426 z m 55.98781,-7.67725 c 2.7911,-1.62499 4.62135,-3.44997 4.81955,-4.80566 0.17575,-1.20215 0.0223,-2.18573 -0.34095,-2.18573 -0.36327,0 -7.36957,3.42545 -15.56955,7.61211 -14.10924,7.20376 -14.90905,7.76996 -14.90905,10.55443 l 0,2.94232 10.75,-5.74877 c 5.9125,-3.16183 12.775,-6.92774 15.25,-8.3687 z m 19.5,-111.01126 c -31.34898,-6.27554 -47.80455,-39.61125 -33.97888,-68.83444 15.64759,-33.07416 63.04256,-36.51146 83.38561,-6.0475 7.27541,10.89501 9.989,25.95834 7.00798,38.90181 -5.61899,24.39742 -31.5762,40.95239 -56.41471,35.98013 z m 23.41648,-5.8564 c 7.80521,-2.96574 13.21459,-6.48736 18.27514,-11.8975 13.26642,-14.18287 15.50179,-35.42271 5.52053,-52.45444 -3.14036,-5.35862 -12.06276,-13.88969 -17.3455,-16.58474 -5.31495,-2.71148 -15.12305,-5.18705 -20.5509,-5.18705 -18.4954,0 -36.37559,13.34387 -41.99301,31.33909 -7.60059,24.34828 7.38692,50.13568 32.67726,56.22424 6.62203,1.59423 17.13268,0.94806 23.41648,-1.4396 z M 460.63689,473.816 c -1.28112,-1.28111 -0.65242,-4.12482 1.05695,-4.78077 2.01767,-0.77425 4.41607,1.91985 3.60071,4.04464 -0.55602,1.44896 -3.48234,1.91146 -4.65766,0.73613 z m 0.35137,-10.8116 c -0.62403,-0.7519 -0.99186,-3.72697 -0.82311,-6.65748 0.29923,-5.19669 0.37526,-5.31461 3.97226,-6.16093 5.00149,-1.17677 7.28736,-3.96514 7.28736,-8.88933 0,-3.16376 -0.59618,-4.53907 -2.78304,-6.42012 -5.14714,-4.42739 -12.72336,-1.85157 -14.46833,4.91904 -0.55068,2.13669 -1.51559,3.28876 -2.9277,3.49556 -2.55604,0.37433 -3.29943,-2.03776 -1.94424,-6.30847 4.81332,-15.16855 27.65118,-11.61912 27.66502,4.29966 0.005,5.65099 -2.09111,9.48663 -6.72202,12.30101 -4.29994,2.61325 -5.31314,3.77267 -5.15528,5.89933 0.30108,4.05598 -2.01024,6.04086 -4.10092,3.52173 z m -72.66409,-47.8937 c -2.15537,-1.85397 -2.73434,-3.19199 -2.65115,-6.12684 0.14114,-4.97929 3.02021,-7.83452 7.89991,-7.83452 8.55242,0 11.43142,11.7186 3.73997,15.22306 -3.67442,1.67417 -5.94631,1.35528 -8.98873,-1.2617 z m 7.8803,-3.37803 c 2.41329,-2.73486 0.5777,-6.47596 -2.97686,-6.06713 -3.40823,0.39199 -4.4493,4.47242 -1.66123,6.5111 2.31999,1.69642 2.78899,1.65153 4.63809,-0.44397 z m -46.05049,-4.74604 c -1.43433,-3.14801 -0.0736,-7.08677 2.75896,-7.98578 5.26999,-1.67263 9.52548,3.59212 6.5608,8.1168 -2.22521,3.39609 -7.74808,3.31845 -9.31976,-0.13102 z m 5.81624,-2.50396 c 0,-0.55 -0.45,-1 -1,-1 -0.55,0 -1,0.45 -1,1 0,0.55 0.45,1 1,1 0.55,0 1,-0.45 1,-1 z"
       id="path4053"
       inkscape:connector-curvature="0" />
  </g>
</svg>
