<?xml version="1.0" encoding="UTF-8" standalone="no"?>
<!-- Created with Inkscape (http://www.inkscape.org/) -->

<svg
   xmlns:dc="http://purl.org/dc/elements/1.1/"
   xmlns:cc="http://creativecommons.org/ns#"
   xmlns:rdf="http://www.w3.org/1999/02/22-rdf-syntax-ns#"
   xmlns:svg="http://www.w3.org/2000/svg"
   xmlns="http://www.w3.org/2000/svg"
   xmlns:sodipodi="http://sodipodi.sourceforge.net/DTD/sodipodi-0.dtd"
   xmlns:inkscape="http://www.inkscape.org/namespaces/inkscape"
   width="644.32245"
   height="312.84375"
   id="svg2"
   version="1.1"
   inkscape:version="0.48.4 r9939"
   sodipodi:docname="About.svg">
  <defs
     id="defs4" />
  <sodipodi:namedview
     id="base"
     pagecolor="#ffffff"
     bordercolor="#666666"
     borderopacity="1.0"
     inkscape:pageopacity="0"
     inkscape:pageshadow="2"
     inkscape:zoom="1.4"
     inkscape:cx="365.24123"
     inkscape:cy="174.12285"
     inkscape:document-units="px"
     inkscape:current-layer="layer1"
     showgrid="true"
     fit-margin-top="10"
     fit-margin-left="10"
     fit-margin-right="10"
     fit-margin-bottom="10"
     inkscape:window-width="1746"
     inkscape:window-height="841"
     inkscape:window-x="1634"
     inkscape:window-y="172"
     inkscape:window-maximized="0" />
  <metadata
     id="metadata7">
    <rdf:RDF>
      <cc:Work
         rdf:about="">
        <dc:format>image/svg+xml</dc:format>
        <dc:type
           rdf:resource="http://purl.org/dc/dcmitype/StillImage" />
        <dc:title />
      </cc:Work>
    </rdf:RDF>
  </metadata>
  <g
     inkscape:label="Layer 1"
     inkscape:groupmode="layer"
     id="layer1"
     transform="translate(142.52736,56.11885)">
    <flowRoot
       xml:space="preserve"
       id="flowRoot3071"
       style="font-size:40px;font-style:normal;font-variant:normal;font-weight:normal;font-stretch:normal;line-height:125%;letter-spacing:0px;word-spacing:0px;fill:#000000;fill-opacity:1;stroke:none;font-family:PT Sans;-inkscape-font-specification:PT Sans"><flowRegion
         id="flowRegion3073"><rect
           id="rect3075"
           width="392.85715"
           height="204.28572"
           x="50"
           y="82.362183" /></flowRegion><flowPara
         id="flowPara3077" /></flowRoot>    <flowRoot
       xml:space="preserve"
       id="flowRoot3079"
       style="font-size:40px;font-style:normal;font-variant:normal;font-weight:normal;font-stretch:normal;line-height:125%;letter-spacing:0px;word-spacing:0px;fill:#000000;fill-opacity:1;stroke:none;font-family:PT Sans;-inkscape-font-specification:PT Sans"><flowRegion
         id="flowRegion3081"><rect
           id="rect3083"
           width="177.14285"
           height="174.28572"
           x="407.14285"
           y="141.6479" /></flowRegion><flowPara
         id="flowPara3085" /></flowRoot>    <g
       style="font-size:57.9234581px;font-style:normal;font-variant:normal;font-weight:normal;font-stretch:normal;line-height:125%;letter-spacing:0px;word-spacing:0px;fill:#e6e6e6;fill-opacity:1;stroke:none;font-family:PT Sans;-inkscape-font-specification:PT Sans"
       id="text2985">
      <path
         d="m -36.825495,116.98648 -1.946228,0 0,14.38818 -8.27147,0 0,-48.655699 8.27147,0 0,28.706869 1.668195,-0.97312 5.769176,-13.83212 8.966552,0 -6.39475,13.76261 -2.98885,2.36328 3.266882,2.36328 7.089832,16.2649 -9.314092,0 -6.116717,-14.38818"
         style="fill:#e6e6e6"
         id="path3032" />
      <path
         d="m -18.328725,98.705835 c 1.390159,-0.834065 3.127861,-1.505976 5.213112,-2.015737 2.085234,-0.509691 4.4485083,-0.764554 7.0898307,-0.764589 3.9387758,3.5e-5 6.67276019,1.019487 8.2019615,3.058358 1.5754929,2.038933 2.3632511,4.935103 2.363277,8.688523 -2.59e-5,2.17794 -0.069534,4.33269 -0.2085244,6.46425 -0.092703,2.08526 -0.1622113,4.14734 -0.2085245,6.18623 -0.046364,1.99257 -0.023195,3.9388 0.069508,5.83868 0.1389906,1.85356 0.4633616,3.61443 0.9731141,5.28262 l -6.7422904,0 -1.3206548,-4.23999 -0.2780326,0 c -0.7414377,1.34382 -1.7840589,2.45595 -3.1278667,3.33639 -1.3438379,0.88043 -3.0352012,1.32065 -5.0740951,1.32065 -2.733994,0 -4.888745,-0.9036 -6.464257,-2.71082 -1.57552,-1.85354 -2.363279,-4.3095 -2.363278,-7.36786 -10e-7,-4.17048 1.482838,-7.13615 4.448522,-8.89704 2.965672,-1.76086 6.9739715,-2.50228 12.0249096,-2.22426 0.2316759,-2.68763 0.046321,-4.63386 -0.5560652,-5.83869 -0.5560817,-1.20478 -1.7840578,-1.80718 -3.6839319,-1.80721 -1.3901749,3e-5 -2.8266755,0.16221 -4.3095055,0.48656 -1.482848,0.3244 -2.803501,0.78778 -3.961964,1.39016 l -2.085245,-6.186225 m 9.9396657,26.065555 c 1.2511324,1e-5 2.2705842,-0.30119 3.0583585,-0.90361 0.7877421,-0.64873 1.3669761,-1.34381 1.7377037,-2.08524 l 0,-5.76918 c -1.0658084,-0.139 -2.0852602,-0.16217 -3.0583585,-0.0695 -0.9731279,0.0927 -1.8303942,0.30121 -2.5718015,0.62557 -0.7414317,0.32438 -1.3438349,0.81094 -1.8072119,1.45967 -0.417059,0.60242 -0.625583,1.39017 -0.625573,2.36328 -10e-6,1.43651 0.278022,2.52547 0.834097,3.26688 0.602393,0.74143 1.4133208,1.11214 2.4327857,1.11213"
         style="fill:#e6e6e6"
         id="path3034" />
      <path
         d="m 7.5359099,96.62059 3.8229481,0 0,-6.533766 8.27147,-2.571801 0,9.105567 6.74229,0 0,7.36786 -6.74229,0 0,15.15278 c -1.3e-5,1.99258 0.185342,3.40591 0.556065,4.24 0.417035,0.8341 1.135286,1.25115 2.154753,1.25114 0.695065,1e-5 1.320638,-0.0695 1.87672,-0.20852 0.556047,-0.13901 1.158451,-0.34753 1.807211,-0.62557 l 1.042623,6.60327 c -1.019472,0.50973 -2.201109,0.92678 -3.544916,1.25115 -1.343839,0.37071 -2.75717,0.55606 -4.239997,0.55606 -2.641319,0 -4.633884,-0.76459 -5.977701,-2.29377 -1.29749,-1.52917 -1.946232,-4.10097 -1.946228,-7.7154 l 0,-18.21114 -3.8229481,0 0,-7.36786"
         style="fill:#e6e6e6"
         id="path3036" />
      <path
         d="m 31.169764,96.62059 8.27147,0 0,34.75407 -8.27147,0 0,-34.75407 M 30.19665,86.819941 c -3e-6,-1.390117 0.440215,-2.525415 1.320655,-3.405899 0.880431,-0.926726 2.131577,-1.390114 3.75344,-1.390163 1.621847,4.9e-5 2.919331,0.440267 3.892456,1.320655 0.973102,0.880484 1.459658,2.038952 1.459671,3.475407 -1.3e-5,1.436545 -0.486569,2.571844 -1.459671,3.4059 -0.973125,0.834138 -2.270609,1.251186 -3.892456,1.251146 -1.621863,4e-5 -2.873009,-0.417008 -3.75344,-1.251146 -0.88044,-0.880395 -1.320658,-2.015694 -1.320655,-3.4059"
         style="fill:#e6e6e6"
         id="path3038" />
      <path
         d="m 69.580619,128.80286 c -1.158494,1.01946 -2.734011,1.85355 -4.726554,2.5023 -1.992586,0.64874 -4.077829,0.97311 -6.255733,0.97311 -2.409629,0 -4.494871,-0.41705 -6.255733,-1.25115 -1.714542,-0.83409 -3.127873,-2.0389 -4.239997,-3.61442 -1.112135,-1.57551 -1.946232,-3.4754 -2.502294,-5.69967 -0.509728,-2.27059 -0.764591,-4.84238 -0.764589,-7.7154 -2e-6,-6.25571 1.227974,-10.86641 3.683931,-13.83212 2.502286,-3.01199 5.95452,-4.517998 10.356714,-4.518034 1.482824,3.6e-5 2.919324,0.231729 4.309506,0.695082 1.390141,0.417083 2.618117,1.158503 3.683932,2.22426 1.112105,1.019485 1.992541,2.409642 2.641309,4.170492 0.695055,1.71456 1.042595,3.89248 1.042622,6.53376 -2.7e-5,1.01948 -0.06953,2.10844 -0.208524,3.26689 -0.0927,1.15848 -0.25489,2.40963 -0.486557,3.75344 l -16.89048,0 c 0.09267,2.87301 0.695071,5.0741 1.807212,6.60327 1.112117,1.52919 2.896158,2.29378 5.352127,2.29377 1.482822,1e-5 2.826645,-0.23169 4.031473,-0.69508 1.251124,-0.46338 2.201068,-0.94994 2.849834,-1.45967 l 2.571801,5.76917 M 58.737348,102.73731 c -1.760887,3e-5 -3.08154,0.71828 -3.961964,2.15475 -0.880448,1.39019 -1.390174,3.35958 -1.52918,5.90819 l 9.592125,0 c 0.138996,-2.64128 -0.139036,-4.63385 -0.834098,-5.9777 -0.6951,-1.39013 -1.784059,-2.08521 -3.266883,-2.08524"
         style="fill:#e6e6e6"
         id="path3040" />
      <path
         d="m 111.61459,97.732721 4.58753,0 -2.71081,18.975729 c -0.55611,4.21683 0.1158,6.32524 2.01573,6.32524 0.92674,0 1.83034,-0.27803 2.71082,-0.8341 0.92673,-0.55606 1.73766,-1.41332 2.43279,-2.5718 0.74137,-1.15846 1.3206,-2.6413 1.7377,-4.44852 0.46334,-1.8072 0.69503,-3.96195 0.69508,-6.46426 -5e-5,-3.19735 -0.46344,-5.93134 -1.39016,-8.20196 -0.88049,-2.316909 -2.13163,-4.193627 -3.75344,-5.630163 -1.6219,-1.482803 -3.54496,-2.571763 -5.76918,-3.266883 -2.2243,-0.695041 -4.65708,-1.042582 -7.29835,-1.042623 -2.96571,4.1e-5 -5.746036,0.602444 -8.340981,1.807212 -2.548653,1.158507 -4.772912,2.803532 -6.672782,4.935079 -1.853566,2.131615 -3.336405,4.680248 -4.448522,7.645898 -1.065803,2.9657 -1.598698,6.25575 -1.598687,9.87016 -1.1e-5,7.08984 1.76086,12.4883 5.282619,16.19539 3.521727,3.7071 8.4568,5.56065 14.805233,5.56066 1.20478,-1e-5 2.52543,-0.1622 3.96197,-0.48656 1.4828,-0.32438 2.80345,-0.78776 3.96196,-1.39016 l 2.01574,6.0472 c -1.48288,0.78775 -3.10474,1.36699 -4.86557,1.73771 -1.76091,0.41704 -3.75347,0.62556 -5.9777,0.62557 -3.660792,-1e-5 -7.089857,-0.55608 -10.287209,-1.66819 -3.151053,-1.11214 -5.908207,-2.82668 -8.27147,-5.14361 -2.363286,-2.2706 -4.240004,-5.16677 -5.63016,-8.68852 -1.343829,-3.56807 -2.01574,-7.7849 -2.015736,-12.65048 -4e-6,-4.86555 0.764585,-9.22139 2.293769,-13.06753 1.57551,-3.846085 3.660752,-7.089795 6.255733,-9.731141 2.594956,-2.641268 5.583803,-4.657002 8.966551,-6.047209 3.382705,-1.390116 6.927622,-2.085197 10.634742,-2.085245 3.52172,4.8e-5 6.81176,0.532943 9.87016,1.598688 3.10465,1.019497 5.76913,2.571844 7.99344,4.657046 2.27055,2.038944 4.05459,4.610743 5.35213,7.715404 1.29743,3.058387 1.94617,6.626467 1.94622,10.704257 -5e-5,3.05838 -0.46344,5.90821 -1.39016,8.5495 -0.88049,2.59498 -2.0853,4.84241 -3.61442,6.74229 -1.52923,1.85356 -3.33644,3.31323 -5.42164,4.37901 -2.03895,1.0658 -4.21687,1.59869 -6.53376,1.59869 -1.89993,0 -3.52179,-0.48655 -4.86557,-1.45967 -1.29752,-0.97311 -1.89993,-2.66447 -1.80722,-5.07409 l -0.20852,0 c -1.06582,1.76087 -2.36331,3.29005 -3.89246,4.58753 -1.48287,1.29749 -3.313244,1.94623 -5.49114,1.94623 -1.992589,0 -3.683952,-0.88043 -5.074095,-2.64131 -1.390181,-1.76087 -2.085261,-4.21682 -2.085244,-7.36786 -1.7e-5,-3.10468 0.370692,-6.02402 1.11213,-8.75803 0.78774,-2.73396 1.830361,-5.12041 3.127867,-7.15934 1.297463,-2.08521 2.803471,-3.73024 4.518029,-4.935076 1.714503,-1.204775 3.544883,-1.807178 5.491143,-1.807212 1.29745,3.4e-5 2.40958,0.231727 3.33639,0.695081 0.92674,0.463421 1.78401,1.088993 2.5718,1.87672 l 1.73771,-2.154752 m -3.68393,7.993439 c -0.83414,-0.97309 -1.9231,-1.45965 -3.26689,-1.45967 -1.06582,2e-5 -2.03893,0.3939 -2.91934,1.18164 -0.88046,0.74144 -1.64505,1.76089 -2.293769,3.05835 -0.648768,1.25117 -1.158494,2.71084 -1.529179,4.37902 -0.370735,1.62187 -0.55609,3.31323 -0.556065,5.07409 -2.5e-5,1.62187 0.254838,2.87302 0.764589,3.75344 0.55604,0.88045 1.390137,1.32066 2.502294,1.32066 1.01942,0 2.03888,-0.55606 3.05836,-1.6682 1.06576,-1.15846 1.94619,-2.43277 2.64131,-3.82295 l 1.59869,-11.81638"
         style="fill:#e6e6e6"
         id="path3042" />
      <path
         d="m 161.92871,131.37466 c -3e-5,5.05092 -1.1585,8.75802 -3.47541,11.12131 -2.31696,2.4096 -5.5375,3.61441 -9.66163,3.61442 -2.87302,-1e-5 -5.12045,-0.23171 -6.74229,-0.69508 -1.62187,-0.41706 -2.87301,-0.88045 -3.75344,-1.39016 l 1.7377,-7.02033 c 1.01945,0.41705 2.10841,0.81093 3.26688,1.18164 1.2048,0.37071 2.61813,0.55606 4.24,0.55607 2.36326,-10e-6 3.98512,-0.64875 4.86557,-1.94623 0.92676,-1.25115 1.39014,-3.17421 1.39016,-5.76918 l 0,-1.87672 -0.20852,0 c -0.64876,0.92678 -1.5292,1.62186 -2.64131,2.08525 -1.06581,0.46339 -2.45597,0.69508 -4.17049,0.69508 -3.66077,0 -6.41793,-1.36699 -8.27147,-4.10098 -1.80721,-2.78032 -2.71082,-7.15933 -2.71082,-13.13704 0,-6.44107 1.25115,-11.19079 3.75344,-14.24917 2.54863,-3.058326 6.16305,-4.587504 10.84327,-4.587539 2.50228,3.5e-5 4.74971,0.208559 6.74229,0.625573 1.99255,0.370745 3.59123,0.834132 4.79607,1.390163 l 0,33.502923 M 149.0697,124.8409 c 1.25113,0 2.22424,-0.3012 2.91934,-0.90361 0.7414,-0.60239 1.29747,-1.45966 1.6682,-2.5718 l 0,-17.37704 c -0.50975,-0.23166 -1.08898,-0.41702 -1.73771,-0.55606 -0.60242,-0.13899 -1.32067,-0.2085 -2.15475,-0.20853 -1.71455,3e-5 -3.05837,0.83413 -4.03147,2.5023 -0.92679,1.66822 -1.39018,4.54122 -1.39017,8.61901 -1e-5,6.99716 1.57551,10.49573 4.72656,10.49573"
         style="fill:#e6e6e6"
         id="path3044" />
      <path
         d="m 176.27237,120.11434 c -1e-5,1.62187 0.16217,2.78034 0.48655,3.47541 0.32436,0.69509 0.85726,1.04263 1.59869,1.04262 0.41704,1e-5 0.83409,-0.0463 1.25115,-0.13901 0.46337,-0.0927 0.9731,-0.25486 1.52918,-0.48656 l 0.76459,6.67278 c -0.55608,0.37071 -1.50603,0.71825 -2.84984,1.04263 -1.34383,0.32437 -2.71083,0.48655 -4.10098,0.48655 -2.31694,0 -4.05464,-0.57923 -5.21311,-1.7377 -1.15847,-1.15847 -1.7377,-3.12786 -1.7377,-5.90819 l 0,-41.843909 8.27147,0 0,37.395379"
         style="fill:#e6e6e6"
         id="path3047" />
      <path
         d="m 184.76541,98.705835 c 1.39015,-0.834065 3.12786,-1.505976 5.21311,-2.015737 2.08523,-0.509691 4.4485,-0.764554 7.08983,-0.764589 3.93877,3.5e-5 6.67276,1.019487 8.20196,3.058358 1.57549,2.038933 2.36325,4.935103 2.36328,8.688523 -3e-5,2.17794 -0.0695,4.33269 -0.20853,6.46425 -0.0927,2.08526 -0.16221,4.14734 -0.20852,6.18623 -0.0464,1.99257 -0.0232,3.9388 0.0695,5.83868 0.13899,1.85356 0.46336,3.61443 0.97311,5.28262 l -6.74229,0 -1.32066,-4.23999 -0.27803,0 c -0.74144,1.34382 -1.78406,2.45595 -3.12787,3.33639 -1.34383,0.88043 -3.0352,1.32065 -5.07409,1.32065 -2.73399,0 -4.88875,-0.9036 -6.46426,-2.71082 -1.57552,-1.85354 -2.36328,-4.3095 -2.36327,-7.36786 -1e-5,-4.17048 1.48283,-7.13615 4.44852,-8.89704 2.96567,-1.76086 6.97397,-2.50228 12.02491,-2.22426 0.23167,-2.68763 0.0463,-4.63386 -0.55607,-5.83869 -0.55608,-1.20478 -1.78406,-1.80718 -3.68393,-1.80721 -1.39018,3e-5 -2.82668,0.16221 -4.30951,0.48656 -1.48284,0.3244 -2.8035,0.78778 -3.96196,1.39016 l -2.08524,-6.186225 m 9.93966,26.065555 c 1.25113,1e-5 2.27058,-0.30119 3.05836,-0.90361 0.78774,-0.64873 1.36697,-1.34381 1.7377,-2.08524 l 0,-5.76918 c -1.06581,-0.139 -2.08526,-0.16217 -3.05836,-0.0695 -0.97312,0.0927 -1.83039,0.30121 -2.5718,0.62557 -0.74143,0.32438 -1.34383,0.81094 -1.80721,1.45967 -0.41706,0.60242 -0.62558,1.39017 -0.62557,2.36328 -1e-5,1.43651 0.27802,2.52547 0.8341,3.26688 0.60239,0.74143 1.41332,1.11214 2.43278,1.11213"
         style="fill:#e6e6e6"
         id="path3049" />
      <path
         d="m 225.01821,122.13008 c -2e-5,-0.9731 -0.32439,-1.78403 -0.97312,-2.43278 -0.60241,-0.69507 -1.39017,-1.32065 -2.36327,-1.87672 -0.97313,-0.60239 -2.01575,-1.2048 -3.12787,-1.80722 -1.0658,-0.60238 -2.08525,-1.3438 -3.05836,-2.22426 -0.97312,-0.88042 -1.78404,-1.94621 -2.43278,-3.19737 -0.60241,-1.25113 -0.90361,-2.82664 -0.90361,-4.72656 0,-3.24368 0.88044,-5.74597 2.64131,-7.506876 1.76087,-1.760838 4.35584,-2.641274 7.78491,-2.64131 2.0389,3.6e-5 3.96195,0.23173 5.76918,0.695082 1.80719,0.417083 3.24369,0.949978 4.30951,1.598687 l -1.94623,6.394747 c -0.88046,-0.37068 -1.94625,-0.71822 -3.19738,-1.04262 -1.25116,-0.37068 -2.47914,-0.55604 -3.68393,-0.55606 -2.27061,2e-5 -3.40591,0.94997 -3.4059,2.84983 -1e-5,0.88046 0.30119,1.62188 0.90361,2.22426 0.64873,0.55609 1.45966,1.11215 2.43278,1.6682 0.9731,0.55608 1.99255,1.13532 3.05836,1.7377 1.11211,0.60242 2.15473,1.36701 3.12787,2.29377 0.97309,0.88045 1.76085,1.96941 2.36327,3.26688 0.64872,1.2975 0.9731,2.89619 0.97312,4.79606 -2e-5,3.19738 -0.97314,5.76918 -2.91934,7.71541 -1.94625,1.94623 -4.84242,2.91934 -8.68852,2.91934 -1.8999,0 -3.77662,-0.23169 -5.63016,-0.69508 -1.80722,-0.46339 -3.26689,-1.06579 -4.37902,-1.80721 l 2.29377,-6.67279 c 0.97311,0.55608 2.08524,1.04263 3.33639,1.45968 1.29748,0.41705 2.6413,0.62558 4.03148,0.62557 1.06578,1e-5 1.94621,-0.23169 2.64131,-0.69508 0.69506,-0.50972 1.0426,-1.29748 1.04262,-2.36328"
         style="fill:#e6e6e6"
         id="path3051" />
      <path
         d="m 254.87958,131.37466 0,-21.13047 c -2e-5,-2.54861 -0.30122,-4.33265 -0.9036,-5.35213 -0.60243,-1.01943 -1.62188,-1.52915 -3.05836,-1.52918 -1.20483,3e-5 -2.24745,0.37074 -3.12787,1.11213 -0.88045,0.74145 -1.50602,1.66822 -1.87672,2.78033 l 0,24.11932 -8.27147,0 0,-34.75407 6.60327,0 0.97312,4.03147 0.20852,0 c 0.83409,-1.343789 1.96939,-2.479088 3.4059,-3.405896 1.43649,-0.973079 3.31321,-1.459636 5.63016,-1.459672 1.39014,3.6e-5 2.61812,0.20856 3.68393,0.625574 1.11211,0.417083 2.03888,1.112164 2.78033,2.085244 0.74139,0.926807 1.29746,2.20112 1.6682,3.82295 0.37068,1.57554 0.55603,3.54494 0.55606,5.90819 l 0,23.14621 -8.27147,0"
         style="fill:#e6e6e6"
         id="path3053" />
      <path
         d="m 266.15511,96.62059 3.82295,0 0,-6.533766 8.27147,-2.571801 0,9.105567 6.74229,0 0,7.36786 -6.74229,0 0,15.15278 c -2e-5,1.99258 0.18534,3.40591 0.55606,4.24 0.41704,0.8341 1.13529,1.25115 2.15475,1.25114 0.69507,1e-5 1.32064,-0.0695 1.87672,-0.20852 0.55605,-0.13901 1.15845,-0.34753 1.80722,-0.62557 l 1.04262,6.60327 c -1.01947,0.50973 -2.20111,0.92678 -3.54492,1.25115 -1.34384,0.37071 -2.75717,0.55606 -4.24,0.55606 -2.64131,0 -4.63388,-0.76459 -5.9777,-2.29377 -1.29749,-1.52917 -1.94623,-4.10097 -1.94622,-7.7154 l 0,-18.21114 -3.82295,0 0,-7.36786"
         style="fill:#e6e6e6"
         id="path3055" />
      <path
         d="m 288.46829,126.85663 c 0,-1.71452 0.44021,-3.01201 1.32065,-3.89245 0.92677,-0.88043 2.13158,-1.32065 3.61443,-1.32066 1.62184,1e-5 2.87299,0.44023 3.75344,1.32066 0.88042,0.88044 1.32064,2.17793 1.32065,3.89245 -1e-5,1.6682 -0.4634,2.96569 -1.39016,3.89246 -0.88045,0.92678 -2.10842,1.39016 -3.68393,1.39016 -1.52919,0 -2.734,-0.46338 -3.61443,-1.39016 -0.88044,-0.92677 -1.32065,-2.22426 -1.32065,-3.89246"
         style="fill:#e6e6e6"
         id="path3057" />
      <path
         d="m 324.3964,129.49794 c -1.15849,0.92678 -2.54865,1.62186 -4.17049,2.08525 -1.62187,0.46339 -3.24373,0.69508 -4.86557,0.69508 -2.36329,0 -4.35585,-0.41705 -5.9777,-1.25115 -1.57552,-0.88043 -2.87301,-2.10841 -3.89245,-3.68393 -1.01946,-1.62185 -1.76088,-3.54491 -2.22426,-5.76917 -0.41705,-2.27059 -0.62558,-4.79605 -0.62558,-7.57639 0,-6.07036 1.08896,-10.63472 3.26689,-13.69311 2.17791,-3.058322 5.37528,-4.5875 9.59212,-4.587536 2.08523,3.6e-5 3.77659,0.185391 5.07409,0.556065 1.34381,0.370745 2.52545,0.834133 3.54492,1.390163 l -1.94623,6.881308 c -0.83412,-0.41702 -1.64504,-0.71822 -2.43278,-0.90361 -0.74144,-0.23166 -1.64505,-0.34751 -2.71082,-0.34754 -1.94624,3e-5 -3.40591,0.8573 -4.37901,2.5718 -0.97313,1.66822 -1.45969,4.37904 -1.45968,8.13246 -10e-6,3.15105 0.48655,5.72285 1.45968,7.7154 1.01944,1.99258 2.61812,2.98886 4.79606,2.98885 1.15845,1e-5 2.13156,-0.13901 2.91934,-0.41705 0.83408,-0.32436 1.59867,-0.71824 2.29377,-1.18164 l 1.7377,6.39475"
         style="fill:#e6e6e6"
         id="path3059" />
      <path
         d="m 325.99076,113.99763 c -1e-5,-6.16304 1.2048,-10.75057 3.61442,-13.76262 2.40961,-3.011982 5.76916,-4.51799 10.07868,-4.518026 4.63386,3.6e-5 8.08609,1.529214 10.35671,4.587536 2.27058,3.05839 3.40587,7.62275 3.4059,13.69311 -3e-5,6.2094 -1.20483,10.82011 -3.61442,13.83212 -2.40964,2.96568 -5.79237,4.44852 -10.14819,4.44852 -9.12874,0 -13.69311,-6.09354 -13.6931,-18.28064 m 8.5495,0 c -10e-6,3.47542 0.39387,6.16306 1.18164,8.06294 0.78774,1.8999 2.1084,2.84984 3.96196,2.84984 1.76086,0 3.05834,-0.81092 3.89246,-2.43279 0.88041,-1.66818 1.32063,-4.49485 1.32065,-8.47999 -2e-5,-3.56807 -0.3939,-6.27888 -1.18164,-8.13246 -0.78777,-1.85352 -2.1316,-2.78029 -4.03147,-2.78032 -1.62187,3e-5 -2.89618,0.83412 -3.82295,2.50229 -0.88044,1.62188 -1.32066,4.42537 -1.32065,8.41049"
         style="fill:#e6e6e6"
         id="path3061" />
      <path
         d="m 374.25113,131.37466 0,-20.22687 c -10e-6,-2.91932 -0.23171,-4.93505 -0.69508,-6.04721 -0.4634,-1.15844 -1.36701,-1.73767 -2.71081,-1.7377 -1.11215,3e-5 -2.03892,0.37074 -2.78033,1.11213 -0.69509,0.69511 -1.22799,1.55237 -1.59869,2.5718 l 0,24.32785 -8.27147,0 0,-34.75407 6.39475,0 1.04262,4.17049 0.20853,0 c 0.88042,-1.436471 1.96938,-2.618108 3.26688,-3.544916 1.34381,-0.973079 3.10468,-1.459636 5.28262,-1.459672 1.80719,3.6e-5 3.26686,0.393915 4.37901,1.181639 1.15845,0.787793 2.06205,2.177954 2.71082,4.170489 0.88041,-1.668164 2.03888,-2.965648 3.47541,-3.892456 1.43647,-0.973079 3.12783,-1.459636 5.07409,-1.459672 1.52915,3.6e-5 2.82663,0.20856 3.89246,0.625574 1.11209,0.370744 1.99253,1.042656 2.64131,2.015736 0.69504,0.973146 1.20477,2.316968 1.52918,4.031468 0.32433,1.66823 0.48651,3.79981 0.48656,6.39475 l 0,22.52064 -8.27147,0 0,-21.13047 c -4e-5,-2.36326 -0.20856,-4.10096 -0.62558,-5.21311 -0.41708,-1.11211 -1.34385,-1.66817 -2.78032,-1.6682 -1.1585,3e-5 -2.10845,0.34757 -2.84984,1.04262 -0.69511,0.64877 -1.20483,1.55238 -1.52918,2.71082 l 0,24.25834 -8.27147,0"
         style="fill:#e6e6e6"
         id="path3063" />
    </g>
    <g
       style="fill:#e6e6e6;fill-opacity:1"
       id="g2990"
       transform="matrix(0.29616496,0,0,0.29616496,-23.961362,165.08578)">
      <path
         style="fill:#e6e6e6;fill-opacity:1"
         id="path2992"
         d="m 162.18,41.592 c -5.595,-9.586 -13.185,-17.176 -22.771,-22.771 -9.589,-5.595 -20.056,-8.392 -31.408,-8.392 -11.352,0 -21.822,2.797 -31.408,8.392 -9.587,5.594 -17.177,13.184 -22.772,22.771 -5.596,9.587 -8.393,20.057 -8.393,31.408 0,11.352 2.798,21.82 8.392,31.408 5.595,9.585 13.185,17.176 22.772,22.771 9.587,5.594 20.056,8.391 31.408,8.391 11.352,0 21.822,-2.797 31.408,-8.391 9.586,-5.595 17.176,-13.186 22.771,-22.771 5.594,-9.588 8.391,-20.057 8.391,-31.408 0,-11.352 -2.797,-21.822 -8.39,-31.408 z m -6.192,51.654 c -2.771,6.436 -6.477,11.977 -11.121,16.62 -4.643,4.644 -10.184,8.351 -16.62,11.12 -6.437,2.771 -13.185,4.156 -20.246,4.156 -7.061,0 -13.809,-1.386 -20.246,-4.156 -6.436,-2.77 -11.977,-6.477 -16.621,-11.12 C 66.491,105.222 62.784,99.683 60.013,93.246 57.243,86.81 55.858,80.06 55.858,73 c 0,-7.061 1.385,-13.809 4.155,-20.246 2.77,-6.436 6.477,-11.976 11.121,-16.621 4.644,-4.643 10.185,-8.35 16.621,-11.121 6.436,-2.769 13.185,-4.154 20.246,-4.154 7.06,0 13.81,1.384 20.246,4.154 6.436,2.77 11.976,6.477 16.62,11.121 4.644,4.644 8.351,10.184 11.121,16.621 2.77,6.436 4.156,13.184 4.156,20.246 0.001,7.061 -1.386,13.811 -4.156,20.246 z"
         inkscape:connector-curvature="0" />
      <path
         style="fill:#e6e6e6;fill-opacity:1"
         id="path2994"
         d="m 134.479,81.066 c -1.357,-0.437 -2.688,-0.325 -3.992,0.326 -1.305,0.65 -2.174,1.684 -2.606,3.096 -1.356,4.346 -3.87,7.863 -7.537,10.551 -3.665,2.688 -7.78,4.033 -12.343,4.033 -4.562,0 -8.676,-1.346 -12.343,-4.033 -3.666,-2.689 -6.178,-6.205 -7.536,-10.551 -0.434,-1.412 -1.29,-2.445 -2.566,-3.096 -1.276,-0.651 -2.593,-0.763 -3.951,-0.326 -1.412,0.434 -2.444,1.289 -3.096,2.564 -0.652,1.276 -0.761,2.596 -0.326,3.952 2.009,6.573 5.757,11.868 11.243,15.888 5.486,4.02 11.678,6.028 18.576,6.028 6.897,0 13.091,-2.009 18.576,-6.028 5.483,-4.021 9.231,-9.314 11.241,-15.888 0.437,-1.356 0.328,-2.676 -0.325,-3.952 -0.654,-1.275 -1.659,-2.129 -3.015,-2.564 z"
         inkscape:connector-curvature="0" />
      <path
         style="fill:#e6e6e6;fill-opacity:1"
         id="path2996"
         d="m 87.143,62.572 c 2.878,0 5.336,-1.02 7.373,-3.056 2.037,-2.036 3.056,-4.494 3.056,-7.373 0,-2.879 -1.019,-5.336 -3.056,-7.373 -2.037,-2.037 -4.495,-3.056 -7.373,-3.056 -2.879,0 -5.337,1.019 -7.374,3.056 -2.036,2.037 -3.055,4.494 -3.055,7.373 0,2.879 1.018,5.337 3.055,7.373 2.038,2.037 4.495,3.056 7.374,3.056 z"
         inkscape:connector-curvature="0" />
      <path
         style="fill:#e6e6e6;fill-opacity:1"
         id="path2998"
         d="m 128.857,41.714 c -2.879,0 -5.338,1.019 -7.375,3.056 -2.035,2.037 -3.056,4.494 -3.056,7.373 0,2.879 1.021,5.337 3.056,7.373 2.037,2.037 4.496,3.056 7.375,3.056 2.877,0 5.336,-1.02 7.373,-3.056 2.037,-2.036 3.056,-4.494 3.056,-7.373 0,-2.879 -1.019,-5.336 -3.056,-7.373 -2.037,-2.037 -4.496,-3.056 -7.373,-3.056 z"
         inkscape:connector-curvature="0" />
    </g>
    <g
       style="fill:#e6e6e6;fill-opacity:1"
       id="g3012"
       transform="matrix(0.29616496,0,0,0.29616496,127.18538,163.96679)">
      <path
         style="fill:#e6e6e6;fill-opacity:1"
         id="path3014"
         d="m 90.565,111.048 c -0.87,0.163 -1.25,0.571 -1.141,1.222 0.108,0.652 0.597,0.869 1.466,0.652 0.87,-0.218 1.25,-0.598 1.141,-1.141 -0.108,-0.597 -0.597,-0.842 -1.466,-0.733 z"
         inkscape:connector-curvature="0" />
      <path
         style="fill:#e6e6e6;fill-opacity:1"
         id="path3016"
         d="m 85.921,111.7 c -0.869,0 -1.304,0.298 -1.304,0.896 0,0.706 0.462,1.004 1.385,0.896 0.869,0 1.304,-0.299 1.304,-0.896 0,-0.705 -0.462,-1.005 -1.385,-0.896 z"
         inkscape:connector-curvature="0" />
      <path
         style="fill:#e6e6e6;fill-opacity:1"
         id="path3018"
         d="m 79.566,111.454 c -0.217,0.598 0.136,1.005 1.059,1.223 0.815,0.325 1.331,0.162 1.548,-0.489 0.163,-0.597 -0.19,-1.031 -1.059,-1.304 -0.815,-0.217 -1.331,-0.029 -1.548,0.57 z"
         inkscape:connector-curvature="0" />
      <path
         style="fill:#e6e6e6;fill-opacity:1"
         id="path3020"
         d="m 163.686,17.313 c -4.59,-4.589 -10.115,-6.884 -16.58,-6.884 H 68.892 c -6.463,0 -11.99,2.295 -16.58,6.884 -4.589,4.59 -6.884,10.117 -6.884,16.58 v 78.215 c 0,6.464 2.295,11.99 6.884,16.579 4.59,4.59 10.117,6.885 16.58,6.885 h 18.25 c 1.194,0 2.091,-0.041 2.688,-0.121 0.597,-0.082 1.194,-0.436 1.792,-1.061 0.598,-0.624 0.896,-1.534 0.896,-2.729 0,-0.162 -0.014,-2.01 -0.041,-5.541 -0.028,-3.53 -0.041,-6.328 -0.041,-8.392 l -1.874,0.326 c -1.195,0.217 -2.702,0.312 -4.522,0.285 -1.819,-0.027 -3.707,-0.217 -5.662,-0.57 -1.956,-0.353 -3.775,-1.168 -5.459,-2.444 -1.683,-1.276 -2.878,-2.946 -3.584,-5.01 L 70.52,108.44 c -0.543,-1.248 -1.398,-2.634 -2.566,-4.154 -1.168,-1.521 -2.349,-2.553 -3.544,-3.096 l -0.57,-0.408 c -0.38,-0.271 -0.733,-0.598 -1.059,-0.978 -0.326,-0.38 -0.57,-0.761 -0.733,-1.141 -0.163,-0.38 -0.028,-0.693 0.407,-0.938 0.435,-0.244 1.222,-0.365 2.363,-0.365 l 1.629,0.244 c 1.086,0.217 2.43,0.868 4.033,1.955 1.602,1.086 2.919,2.498 3.951,4.236 1.25,2.227 2.756,3.924 4.522,5.092 1.765,1.168 3.544,1.752 5.336,1.752 1.792,0 3.34,-0.136 4.644,-0.406 1.303,-0.272 2.525,-0.68 3.666,-1.224 0.489,-3.639 1.82,-6.437 3.992,-8.392 -3.096,-0.326 -5.879,-0.815 -8.351,-1.467 -2.471,-0.652 -5.024,-1.711 -7.658,-3.178 -2.635,-1.467 -4.821,-3.285 -6.559,-5.459 -1.738,-2.173 -3.164,-5.025 -4.277,-8.555 -1.113,-3.531 -1.67,-7.605 -1.67,-12.221 0,-6.572 2.146,-12.167 6.437,-16.784 -2.01,-4.942 -1.82,-10.482 0.57,-16.62 1.575,-0.489 3.911,-0.122 7.007,1.1 3.096,1.223 5.363,2.269 6.803,3.137 1.44,0.868 2.594,1.602 3.463,2.2 5.052,-1.412 10.266,-2.118 15.643,-2.118 5.377,0 10.592,0.706 15.644,2.118 l 3.096,-1.955 c 2.119,-1.304 4.617,-2.499 7.496,-3.585 2.879,-1.086 5.078,-1.385 6.6,-0.896 2.443,6.138 2.661,11.678 0.65,16.62 4.291,4.617 6.438,10.212 6.438,16.784 0,4.617 -0.557,8.705 -1.67,12.262 -1.113,3.557 -2.552,6.409 -4.318,8.555 -1.765,2.146 -3.965,3.951 -6.599,5.418 -2.635,1.466 -5.187,2.526 -7.659,3.177 -2.472,0.653 -5.255,1.142 -8.351,1.468 2.823,2.444 4.235,6.3 4.235,11.569 v 19.472 c 0,0.924 0.135,1.67 0.407,2.241 0.272,0.57 0.706,0.963 1.304,1.181 0.599,0.218 1.127,0.353 1.59,0.407 0.462,0.055 1.127,0.082 1.996,0.082 h 18.25 c 6.463,0 11.99,-2.295 16.578,-6.885 4.59,-4.59 6.885,-10.117 6.885,-16.58 V 33.893 c -0.001,-6.463 -2.296,-11.991 -6.885,-16.58 z"
         inkscape:connector-curvature="0" />
      <path
         style="fill:#e6e6e6;fill-opacity:1"
         id="path3022"
         d="m 70.196,101.516 c -0.38,0.271 -0.326,0.705 0.163,1.303 0.544,0.543 0.978,0.625 1.304,0.244 0.38,-0.271 0.326,-0.705 -0.164,-1.304 -0.543,-0.488 -0.977,-0.57 -1.303,-0.243 z"
         inkscape:connector-curvature="0" />
      <path
         style="fill:#e6e6e6;fill-opacity:1"
         id="path3024"
         d="m 67.508,99.479 c -0.163,0.381 0.027,0.707 0.57,0.978 0.434,0.272 0.788,0.218 1.059,-0.163 0.163,-0.38 -0.027,-0.706 -0.57,-0.979 -0.543,-0.163 -0.896,-0.108 -1.059,0.164 z"
         inkscape:connector-curvature="0" />
      <path
         style="fill:#e6e6e6;fill-opacity:1"
         id="path3026"
         d="m 72.722,104.694 c -0.489,0.271 -0.489,0.76 0,1.466 0.489,0.706 0.95,0.896 1.385,0.57 0.489,-0.381 0.489,-0.896 0,-1.549 -0.434,-0.704 -0.896,-0.869 -1.385,-0.487 z"
         inkscape:connector-curvature="0" />
      <path
         style="fill:#e6e6e6;fill-opacity:1"
         id="path3028"
         d="m 75.574,108.359 c -0.489,0.435 -0.381,0.949 0.326,1.548 0.651,0.651 1.194,0.733 1.629,0.243 0.435,-0.434 0.326,-0.949 -0.326,-1.547 -0.651,-0.651 -1.194,-0.733 -1.629,-0.244 z"
         inkscape:connector-curvature="0" />
    </g>
    <path
       style="fill:#e6e6e6;fill-opacity:1"
       id="path3046"
       d="m 226.98571,174.3592 c -1.49593,0.64358 -2.99244,1.04547 -4.48779,1.20688 1.68904,-1.01348 2.83133,-2.44514 3.42663,-4.29498 -1.54478,0.91662 -3.19354,1.54392 -4.94684,1.88183 -1.54451,-1.64075 -3.44234,-2.46144 -5.69466,-2.46144 -2.15548,0 -3.9932,0.75999 -5.51371,2.28019 -1.5202,1.52022 -2.28016,3.35791 -2.28016,5.51341 0,0.57901 0.0645,1.17428 0.1931,1.78559 -3.18527,-0.16088 -6.17327,-0.96108 -8.96432,-2.40072 -2.79106,-1.43998 -5.15979,-3.35823 -7.10619,-5.75507 -0.70783,1.20627 -1.06176,2.5174 -1.06176,3.93305 0,1.33513 0.31365,2.57397 0.94121,3.71599 0.62728,1.14201 1.47194,2.06694 2.5337,2.77478 -1.25486,-0.0483 -2.42914,-0.37821 -3.52287,-0.9895 v 0.0967 c 0,1.88211 0.59115,3.53474 1.77344,4.9587 1.18227,1.42396 2.67437,2.32044 4.47593,2.69036 -0.67556,0.17675 -1.35939,0.26536 -2.05093,0.26536 -0.45048,0 -0.94123,-0.0403 -1.47194,-0.12012 0.49874,1.5602 1.41567,2.84288 2.75076,3.84834 1.33513,1.0058 2.84735,1.52409 4.53637,1.55667 -2.83103,2.21943 -6.05627,3.32949 -9.67572,3.32949 -0.69183,0 -1.31911,-0.0318 -1.88211,-0.0962 3.61942,2.33228 7.60876,3.4983 11.96831,3.4983 2.76678,0 5.36473,-0.43805 7.79329,-1.31467 2.42945,-0.87665 4.50438,-2.05096 6.22569,-3.52318 1.721,-1.47165 3.2051,-3.16485 4.45164,-5.07925 1.24658,-1.9141 2.17535,-3.91263 2.78692,-5.99585 0.61128,-2.08351 0.91692,-4.17031 0.91692,-6.26181 0,-0.45045 -0.007,-0.7881 -0.0241,-1.01347 1.52852,-1.10946 2.83162,-2.45284 3.90938,-4.02903 z"
       inkscape:connector-curvature="0" />
    <g
       style="fill:#e6e6e6;fill-opacity:1"
       id="g3056"
       transform="matrix(0.29616496,0,0,0.29616496,140.79861,8.5724211)">
      <path
         style="fill:#e6e6e6;fill-opacity:1"
         id="path3058"
         d="m 49.013,51.003 c 1.847,1.303 7.414,5.174 16.702,11.61 9.288,6.436 16.403,11.392 21.346,14.867 0.543,0.381 1.697,1.209 3.462,2.485 1.765,1.277 3.232,2.31 4.399,3.097 1.168,0.787 2.58,1.67 4.237,2.647 1.657,0.977 3.219,1.711 4.685,2.198 1.467,0.49 2.825,0.733 4.074,0.733 h 0.082 0.082 c 1.249,0 2.607,-0.243 4.074,-0.733 1.466,-0.487 3.029,-1.222 4.685,-2.198 1.656,-0.978 3.068,-1.86 4.236,-2.647 1.168,-0.787 2.634,-1.82 4.399,-3.097 1.765,-1.277 2.92,-2.104 3.463,-2.485 4.996,-3.476 17.707,-12.302 38.129,-26.479 3.965,-2.769 7.277,-6.11 9.939,-10.021 2.663,-3.909 3.993,-8.01 3.993,-12.301 0,-3.585 -1.291,-6.654 -3.871,-9.207 -2.58,-2.553 -5.636,-3.829 -9.165,-3.829 H 48.035 c -4.182,0 -7.4,1.412 -9.654,4.236 C 36.127,22.704 35,26.235 35,30.471 c 0,3.422 1.494,7.13 4.481,11.122 2.987,3.992 6.165,7.129 9.532,9.41 z"
         inkscape:connector-curvature="0" />
      <path
         style="fill:#e6e6e6;fill-opacity:1"
         id="path3060"
         d="m 172.852,59.72 c -17.814,12.057 -31.34,21.427 -40.572,28.108 -3.096,2.281 -5.608,4.061 -7.537,5.336 -1.928,1.277 -4.494,2.58 -7.699,3.911 -3.204,1.331 -6.191,1.996 -8.961,1.996 H 108 107.918 c -2.77,0 -5.758,-0.665 -8.962,-1.996 -3.204,-1.331 -5.771,-2.634 -7.699,-3.911 -1.928,-1.275 -4.44,-3.055 -7.536,-5.336 C 76.388,82.451 62.891,73.081 43.229,59.72 40.133,57.657 37.39,55.293 35,52.632 v 64.688 c 0,3.586 1.276,6.654 3.829,9.207 2.553,2.554 5.622,3.83 9.207,3.83 h 119.929 c 3.584,0 6.653,-1.276 9.206,-3.83 2.554,-2.554 3.829,-5.621 3.829,-9.207 V 52.632 c -2.336,2.606 -5.051,4.97 -8.148,7.088 z"
         inkscape:connector-curvature="0" />
    </g>
    <rect
       style="fill:#e6e6e6;fill-opacity:1"
       id="rect3089"
       width="447.73914"
       height="2.9244242"
       x="-48.670021"
       y="62.53067" />
    <rect
       style="fill:#e6e6e6;fill-opacity:1"
       id="rect3091"
       width="2.896173"
       height="14.222278"
       x="-51.155098"
       y="62.531864" />
    <a
       style="fill:#e6e6e6;fill-opacity:1"
       id="a3111"
       transform="matrix(1.4480865,0,0,1.4480865,-300.38368,-556.258)">
      <rect
         style="fill:#e6e6e6;fill-opacity:1"
         y="427.30685"
         x="482.27014"
         height="9.8214283"
         width="2"
         id="rect3091-9" />
    </a>
    <g
       style="fill:#e6e6e6;fill-opacity:1"
       id="g3125"
       transform="matrix(1.4071153,0,0,1.4480865,-288.61388,-562.92738)">
      <rect
         style="fill:#e6e6e6;fill-opacity:1"
         transform="scale(-1,-1)"
         y="-499.69632"
         x="-254.47484"
         height="2"
         width="84.053673"
         id="rect3089-7" />
      <rect
         style="fill:#e6e6e6;fill-opacity:1"
         transform="scale(-1,-1)"
         y="-499.74014"
         x="-256.1713"
         height="9.8214283"
         width="2"
         id="rect3091-95" />
      <a
         style="fill:#e6e6e6;fill-opacity:1"
         id="a3111-5"
         transform="matrix(-1,0,0,-1,653.27215,927.01104)">
        <rect
           style="fill:#e6e6e6;fill-opacity:1"
           id="rect3091-9-6"
           width="2"
           height="9.8214283"
           x="482.27014"
           y="427.30685" />
      </a>
    </g>
    <g
       id="g4000"
       transform="matrix(1.027441,0,0,1,-7.8963239,0)"
       style="fill:#e6e6e6">
      <g
         id="g3994"
         style="fill:#e6e6e6">
        <rect
           style="fill:#e6e6e6;fill-opacity:1"
           id="rect3089-7-7"
           width="205.62038"
           height="2.896173"
           x="-287.51477"
           y="-160.87955"
           transform="scale(-1,-1)" />
        <rect
           style="fill:#e6e6e6;fill-opacity:1"
           id="rect3091-95-4"
           width="2.896173"
           height="14.222278"
           x="-287.75595"
           y="-160.87955"
           transform="scale(-1,-1)" />
        <a
           style="fill:#e6e6e6;fill-opacity:1"
           transform="matrix(-1.4480865,0,0,-1.4480865,780.78237,779.65683)"
           id="a3111-5-3">
          <rect
             style="fill:#e6e6e6;fill-opacity:1"
             y="427.30685"
             x="482.27014"
             height="9.8214283"
             width="2"
             id="rect3091-9-6-7" />
        </a>
      </g>
    </g>
    <flowRoot
       xml:space="preserve"
       id="flowRoot3843"
       style="fill:black;stroke:none;stroke-opacity:1;stroke-width:1px;stroke-linejoin:miter;stroke-linecap:butt;fill-opacity:1;font-family:Sans;font-style:normal;font-weight:normal;font-size:40px;line-height:125%;letter-spacing:0px;word-spacing:0px"><flowRegion
         id="flowRegion3845"><rect
           id="rect3847"
           width="1188.5714"
           height="820"
           x="-117.14286"
           y="-251.44197" /></flowRegion><flowPara
         id="flowPara3849" /></flowRoot>  </g>
</svg>
