<?xml version="1.0" encoding="UTF-8" standalone="no"?>
<!-- Created with Inkscape (http://www.inkscape.org/) -->

<svg
   xmlns:dc="http://purl.org/dc/elements/1.1/"
   xmlns:cc="http://creativecommons.org/ns#"
   xmlns:rdf="http://www.w3.org/1999/02/22-rdf-syntax-ns#"
   xmlns:svg="http://www.w3.org/2000/svg"
   xmlns="http://www.w3.org/2000/svg"
   xmlns:sodipodi="http://sodipodi.sourceforge.net/DTD/sodipodi-0.dtd"
   xmlns:inkscape="http://www.inkscape.org/namespaces/inkscape"
   width="328.04092"
   height="488.57596"
   id="svg4427"
   version="1.1"
   inkscape:version="0.48.4 r9939"
   sodipodi:docname="handout.svg">
  <defs
     id="defs4429" />
  <sodipodi:namedview
     id="base"
     pagecolor="#ffffff"
     bordercolor="#666666"
     borderopacity="1.0"
     inkscape:pageopacity="0.0"
     inkscape:pageshadow="2"
     inkscape:zoom="0.7"
     inkscape:cx="267.55411"
     inkscape:cy="210.58789"
     inkscape:document-units="px"
     inkscape:current-layer="layer1"
     showgrid="false"
     fit-margin-top="0"
     fit-margin-left="0"
     fit-margin-right="0"
     fit-margin-bottom="0"
     inkscape:window-width="1163"
     inkscape:window-height="735"
     inkscape:window-x="19"
     inkscape:window-y="317"
     inkscape:window-maximized="0" />
  <metadata
     id="metadata4432">
    <rdf:RDF>
      <cc:Work
         rdf:about="">
        <dc:format>image/svg+xml</dc:format>
        <dc:type
           rdf:resource="http://purl.org/dc/dcmitype/StillImage" />
        <dc:title />
      </cc:Work>
    </rdf:RDF>
  </metadata>
  <g
     inkscape:label="Layer 1"
     inkscape:groupmode="layer"
     id="layer1"
     transform="translate(-319.53952,-126.38758)">
    <g
       transform="matrix(3.6967902,0,0,3.6967902,-1969.5442,-734.06913)"
       id="g4398">
      <path
         style="fill:#231f20"
         inkscape:connector-curvature="0"
         id="path4268"
         d="m 628.35,248.91 c 0.2,-8.99 8.76,-17 17.8,-16.08 7.92,1.14 14.03,7.2 18.47,13.45 1.41,2.81 -2.22,4.33 -4.01,5.66 -0.28,5.19 -0.76,10.37 -1.18,15.55 5.35,5.33 12.66,9.84 20.5,8.82 6.23,-0.85 11.04,-5.3 15.06,-9.78 2.2,-0.86 3.42,1.87 1.83,3.29 -4.64,5.55 -11.32,10.23 -18.82,10.12 -8.11,0.26 -15.56,-4.25 -21.06,-9.87 -2.34,-1.91 -0.57,-5.22 -0.61,-7.72 -7.99,-0.23 -17.17,-4.61 -18.55,-13.26 -1.01,-2.35 3.4,-3.76 3.48,-1.12 0.93,7.13 8.72,10.76 15.24,10.67 0.2,-3.05 0.1,-6.14 0.9,-9.11 1.23,-0.72 2.44,-1.5 3.63,-2.32 -3.85,-4.39 -8.05,-9.13 -13.97,-10.56 -7.41,-1.68 -14.81,4.96 -15.12,12.31 -0.52,7.66 3.09,14.76 6.85,21.19 -0.1,0.5 -0.31,1.5 -0.42,2.01 -4.92,0.81 -8.68,4.72 -11.8,8.35 -5.02,6.1 -5.11,15.63 0.32,21.51 7.37,8.47 19.8,9.47 30.18,7.52 2.08,-0.71 1.71,1.91 1.79,3.12 -7.21,1.63 -14.96,1.79 -22.11,-0.28 -1.23,-0.45 -2.46,-0.93 -3.66,-1.43 -7.82,-3.3 -14.19,-11.14 -13.87,-19.91 -0.09,-9.36 6.92,-17.14 14.75,-21.38 -2.88,-6.57 -6.25,-13.34 -5.62,-20.75 z" />
      <path
         style="fill:#221f20"
         inkscape:connector-curvature="0"
         id="path4274"
         d="m 649.34,246.53 c 0.55,0.01 1.66,0.03 2.21,0.03 0.08,0.56 0.24,1.68 0.32,2.24 -0.65,-0.01 -1.97,-0.02 -2.62,-0.03 0.02,-0.56 0.07,-1.68 0.09,-2.24 z" />
      <path
         style="fill:#000000"
         inkscape:connector-curvature="0"
         id="path4290"
         d="m 700.36,271.51 c 1.18,-1.1 3.25,0.05 3.19,1.67 -1.8,2.8 -4.09,5.33 -6.72,7.38 -1.54,1.24 -4.27,-1.03 -2.66,-2.56 2.05,-2.17 4.16,-4.3 6.19,-6.49 z" />
      <path
         style="fill:#000000"
         inkscape:connector-curvature="0"
         id="path4292"
         d="m 682.74,291.71 c 9.09,-1.23 16.73,-7.53 22.29,-14.5 2.03,-0.96 3.92,1.65 2.31,3.24 -6.28,7.89 -15.22,13.98 -25.28,15.66 2.7,1.13 6.81,0.31 8.58,2.84 l -0.51,1.07 c -5.6,1.8 -11.31,3.31 -16.99,4.83 1.42,12.5 1.05,26.01 -5.91,36.95 0.76,0.8 1.37,1.82 2.32,2.45 3.82,1.03 7.7,1.88 11.59,2.69 0.4,1.15 0.95,2.89 -0.54,3.53 -8.28,4.76 -16.21,10.21 -24.75,14.45 -2.54,-2.47 -5.01,-5.01 -7.14,-7.85 -6.3,1.96 -12.75,4.13 -19.45,3.66 -0.67,-2.19 -0.53,-4.48 -0.52,-6.73 0.07,-7.41 -0.08,-14.82 0.09,-22.23 1.85,-0.46 3.78,-0.56 5.69,-0.58 -1.77,-6.58 -2.02,-13.49 -1.43,-20.24 1.2,0.5 2.43,0.98 3.66,1.43 0.1,3.88 -0.24,7.78 0.25,11.64 1.93,13.52 9.74,25.37 18.72,35.31 0.88,1.22 2.24,0.17 3.19,-0.35 5.29,-3.1 10.42,-6.48 15.85,-9.33 -2.63,-0.75 -5.28,-1.39 -7.87,-2.23 -6.03,-6.98 -10.78,-15.34 -12.4,-24.48 -0.54,-2 2.84,-2.48 3.55,-0.95 1.39,5.76 3.6,11.33 6.81,16.33 5.42,-9.77 5.71,-21.34 4.39,-32.18 -2.07,0.52 -4.23,1.08 -6.34,0.41 -11.35,-2.42 -22.64,-5.11 -34.01,-7.39 -0.03,-3.3 4.04,-3.67 6.2,-5.31 -2.2,-0.07 -4.39,-0.11 -6.57,-0.16 -1.54,-2.23 1.4,-2.86 2.67,-3.76 5.14,-2.83 10.26,-5.68 15.35,-8.6 1.04,-0.58 2.14,-1.27 3.41,-1.11 10.7,0.17 21.4,0.42 32.1,0.51 2.31,0.13 4.84,-0.33 6.88,1.05 -1.44,2.64 -4.74,3.12 -7.1,4.66 2.6,0.49 5.93,-0.82 7.86,1.52 -1.95,1.88 -4.53,2.7 -6.95,3.75 z" />
      <path
         style="fill:#ffffff"
         inkscape:connector-curvature="0"
         id="path4296"
         d="m 649.55,282.84 c 10.79,-0.01 21.6,0.56 32.4,0.64 -4.82,2.34 -9.6,4.79 -14.38,7.22 -1.14,0.53 -2.29,1.24 -3.58,1.14 -9.75,-0.01 -19.5,-0.31 -29.24,-0.64 4.76,-3.07 9.77,-5.77 14.8,-8.36 z" />
      <path
         style="fill:#ffffff"
         inkscape:connector-curvature="0"
         id="path4302"
         d="m 676.3,289.33 c 1.95,-0.27 3.92,-0.19 5.89,-0.36 -3.74,2.64 -8.07,4.24 -12.05,6.44 -2.03,0.88 -3.91,2.49 -6.23,2.29 -9.38,-0.3 -18.77,-0.42 -28.15,-0.69 1.08,-1.39 2.67,-2.26 4.31,-2.81 8.6,-0.3 17.23,0.69 25.81,0.21 3.57,-1.49 6.82,-3.67 10.42,-5.08 z" />
      <path
         style="fill:#ffffff"
         inkscape:connector-curvature="0"
         id="path4310"
         d="m 666.1,300.28 c 2.4,-0.86 4.49,-2.41 6.91,-3.23 3.59,0.42 7.08,1.42 10.63,2.08 -5.85,1.81 -11.75,3.46 -17.65,5.1 -6.99,-0.56 -13.7,-3.4 -20.74,-3.79 -0.24,-0.25 -0.73,-0.77 -0.97,-1.02 7.24,0.48 14.53,1.07 21.82,0.86 z" />
      <path
         style="fill:#ffffff"
         inkscape:connector-curvature="0"
         id="path4352"
         d="m 632.57,335.13 c 0.82,0.02 2.47,0.06 3.29,0.08 2.25,6.65 6.21,12.5 9.89,18.38 -3.83,2.2 -8.76,2.66 -13.17,3.33 -0.02,-7.27 0,-14.53 -0.01,-21.79 z" />
    </g>
  </g>
</svg>
