<svg width="450" height="450" xmlns="http://www.w3.org/2000/svg">

 <metadata id="metadata3171">image/svg+xml</metadata>
 <g>
  <title>background</title>
  <rect fill="none" id="canvas_background" height="452" width="452" y="-1" x="-1"/>
 </g>
 <g>
  <title>Layer 1</title>
  <g id="layer1">
   <g transform="matrix(1.0947861,0,0,1.0947861,177.47263,-187.16253) " id="g4919">
    <path fill="#000000" id="path4601" d="m30.234468,195.140406c89.30606,-9.94014 176.7443,58.31074 191.40956,147.70188c12.59,63.00078 -12.7974,131.18164 -61.56642,171.78216c-47.31633,41.02053 -117.39145,53.13068 -175.56824,30.94039c-79.82908,-28.35034 -131.91845,-119.21151 -114.27854,-203.35256c13.35088,-77.77101 82.18076,-141.1218 160.00364,-147.07187z"/>
    <path fill="#ffffff" id="path4603" d="m9.412538,215.440656c34.31135,-5.88007 71.73546,-6.79008 103.34874,10.08014c48.63071,22.19026 84.87877,70.70088 92.00392,124.25156c12.17504,66.36084 -22.68961,138.11176 -81.42009,169.89214c-70.07493,40.32053 -170.31076,17.15024 -212.02391,-54.04067c-44.89516,-66.15085 -30.92152,-164.57208 30.92154,-214.97272c18.47004,-17.99022 42.81992,-28.28036 67.1698,-35.21045z"/>
    <path fill="#000000" id="path4607" d="m14.808338,295.311666c26.49438,-22.82028 76.37019,-10.29013 83.28775,26.32033c10.44545,30.0304 -9.89221,60.20077 -37.70096,70.2109c-1.72934,10.92013 -0.97159,22.60928 -2.7702,33.45942c-7.06116,-0.48498 -18.24681,3.39952 -18.45713,-1.2859c-2.27226,-50.58998 -0.91779,-36.371 -2.08483,-49.46375c16.80977,-4.76006 41.98978,-9.2401 41.64388,-31.78038c5.04989,-21.63029 -16.74051,-41.44055 -37.2858,-38.01049c-11.82483,2.03377 -16.32554,5.67695 -24.00397,17.29022c-4.42303,14.69228 -2.28283,16.8702 -3.52814,25.34031c-5.25729,-0.77001 -15.84111,-2.17001 -21.09858,-2.94003c3.11296,-17.64021 5.32654,-38.57049 21.99798,-49.14063z"/>
    <path fill="#000000" stroke="#000000" stroke-width="0" stroke-miterlimit="4" stroke-opacity="0.56621" d="m58.608446,452.377066c0,5.910457 -4.734923,10.701821 -10.575714,10.701821c-5.840791,0 -10.575714,-4.791363 -10.575714,-10.701821c0,-5.910457 4.734923,-10.701847 10.575714,-10.701847c5.840791,0 10.575714,4.791363 10.575714,10.701847z" id="path4625"/>
   </g>
  </g>
 </g>
</svg>