<svg width="128" height="128" xmlns="http://www.w3.org/2000/svg">

 <g>
  <title>background</title>
  <rect fill="none" id="canvas_background" height="402" width="582" y="-1" x="-1"/>
 </g>
 <g>
  <title>Layer 1</title>
  <g id="svg_1">
   <g id="svg_2">
    <g id="svg_3">
     <g id="svg_4">
      <path id="svg_5" d="m119.17,98.95c0,12.09 -24.69,21.9 -55.16,21.9c-30.47,0 -55.17,-9.81 -55.17,-21.9c0,-12.1 1.27,-73.24 55.17,-73.24c53.88,0.01 55.16,61.14 55.16,73.24" fill="#FCC21B"/>
     </g>
    </g>
   </g>
   <g id="svg_6">
    <path id="svg_7" d="m46.39,71.71c4.17,0 7.57,-4.05 7.57,-9.05c0,-5.01 -3.4,-9.07 -7.57,-9.07c-4.17,0 -7.57,4.05 -7.57,9.07c0.01,5 3.4,9.05 7.57,9.05z" fill="#2F2F2F"/>
    <path id="svg_8" d="m81.6,71.71c4.18,0 7.56,-4.05 7.56,-9.05c0,-5.01 -3.38,-9.07 -7.56,-9.07c-4.17,0 -7.57,4.05 -7.57,9.07c0,5 3.4,9.05 7.57,9.05z" fill="#2F2F2F"/>
   </g>
   <path stroke="null" id="svg_9" d="m91.85,82.39c-1.1,-0.66 -2.45,-0.43 -3.47,0.27c-1.32,0.91 -3.13,2.87 -4.6,4.27c-4.59,4.38 -11.83,7.55 -19.79,7.55l0,0c-7.94,0 -15.18,-3.17 -19.78,-7.55c-1.47,-1.4 -3.28,-3.36 -4.6,-4.27c-1.03,-0.71 -2.37,-0.93 -3.48,-0.27c-1.6,0.96 -1.05,3.18 -0.59,4.72c1.05,3.5 5.07,8.83 10.94,12.73c5.38,3.57 13.38,4.83 17.5,4.83l0,0c4.13,0 12.13,-1.27 17.51,-4.83c5.87,-3.9 9.89,-9.23 10.94,-12.73c0.48,-1.54 1.02,-3.77 -0.58,-4.72z" fill="#2F2F2F"/>
  </g>
 </g>
</svg>