<?xml version="1.0" encoding="UTF-8" standalone="no"?>
<!-- Created with Inkscape (http://www.inkscape.org/) -->

<svg
   xmlns:dc="http://purl.org/dc/elements/1.1/"
   xmlns:cc="http://creativecommons.org/ns#"
   xmlns:rdf="http://www.w3.org/1999/02/22-rdf-syntax-ns#"
   xmlns:svg="http://www.w3.org/2000/svg"
   xmlns="http://www.w3.org/2000/svg"
   xmlns:sodipodi="http://sodipodi.sourceforge.net/DTD/sodipodi-0.dtd"
   xmlns:inkscape="http://www.inkscape.org/namespaces/inkscape"
   width="1024"
   height="768"
   id="svg3996"
   version="1.1"
   inkscape:version="0.48.4 r9939"
   sodipodi:docname="call.svg">
  <defs
     id="defs3998">
    <clipPath
       clipPathUnits="userSpaceOnUse"
       id="clipPath3979">
      <rect
         style="fill:#000000;fill-opacity:1;stroke:#000000;stroke-width:3;stroke-miterlimit:4;stroke-opacity:1;stroke-dasharray:none"
         id="rect3981"
         width="1014.2857"
         height="560"
         x="131.42857"
         y="-407.63782" />
    </clipPath>
  </defs>
  <sodipodi:namedview
     id="base"
     pagecolor="#ffffff"
     bordercolor="#666666"
     borderopacity="1.0"
     inkscape:pageopacity="0.0"
     inkscape:pageshadow="2"
     inkscape:zoom="0.49497475"
     inkscape:cx="294.86782"
     inkscape:cy="347.53103"
     inkscape:document-units="px"
     inkscape:current-layer="layer1"
     showgrid="false"
     fit-margin-top="0"
     fit-margin-left="0"
     fit-margin-right="0"
     fit-margin-bottom="0"
     inkscape:window-width="1443"
     inkscape:window-height="705"
     inkscape:window-x="177"
     inkscape:window-y="183"
     inkscape:window-maximized="0" />
  <metadata
     id="metadata4001">
    <rdf:RDF>
      <cc:Work
         rdf:about="">
        <dc:format>image/svg+xml</dc:format>
        <dc:type
           rdf:resource="http://purl.org/dc/dcmitype/StillImage" />
        <dc:title />
      </cc:Work>
    </rdf:RDF>
  </metadata>
  <g
     inkscape:label="Layer 1"
     inkscape:groupmode="layer"
     id="layer1"
     transform="translate(132.14286,-44.36218)">
    <path
       transform="matrix(0.90620012,0,0,0.90620012,-198.81636,544.02759)"
       style="fill:#000000"
       d="m 952.95766,189.03628 c -0.1731,-0.14578 -90.7648,-0.55233 -201.3148,-0.90345 -110.55,-0.35111 -230.475,-0.85917 -266.5,-1.12901 -36.025,-0.26985 -139.75,-0.71954 -230.5,-0.99933 -176.521413,-0.54422 -335.318763,-1.20263 -482,-1.9985 -50.05,-0.27157 -161.65,-0.72473 -248,-1.00703 -250.727,-0.8197 -327.0425,-1.42066 -332.8117,-2.62077 -15.43345,-3.21047 -30.59263,-15.82112 -37.71347,-31.37315 -5.29574,-11.56598 -5.30327,-11.72104 -4.61854,-95.000003 0.34821,-42.35 0.87534,-154.849997 1.17141,-249.999997 0.61255,-196.86392 0.82309,-212.68758 2.93382,-220.49244 4.87336,-18.02025 18.9039,-33.17192 36.27225,-39.17063 l 6.76623,-2.33693 61.5,0.0222 c 100.15455,0.0362 492.69567,1.50803 529,1.98349 18.425,0.24131 112.25,0.6824 208.4999971,0.98021 96.2499999,0.29781 198.4000029,0.75428 227.0000029,1.01438 28.6,0.26009 138.175,0.70719 243.5,0.99354 105.325,0.28635 221.65,0.73929 258.5,1.00654 36.85,0.26724 142.375,0.73593 234.5,1.04151 180.56894,0.59897 203.70124,0.88291 210.84314,2.58802 20.2073,4.82445 37.1279,21.68516 41.7461,41.59839 1.401,6.04122 1.4998,33.74209 0.967,271.25002 -0.3264,145.4869171 -0.8333,268.23128 -1.1265,272.76523 -0.5267,8.14605 -2.5471,15.70718 -5.9704,22.34362 -7.0525,13.67211 -22.5996,25.63008 -37.476,28.82444 -4.0345,0.86633 -33.143,1.13875 -110.1685,1.03106 -57.5768,-0.0805 -104.82684,-0.26565 -105.00004,-0.41143 z M 1174.9227,183.313 c 18.1635,-7.78642 30.4918,-23.38049 33.0524,-41.80796 1.4916,-10.73468 2.6535,-538.50136 1.202,-546 -1.6269,-8.4048 -7.053,-18.8262 -13.3354,-25.61195 -5.8589,-6.32833 -13.3296,-10.95705 -23.4235,-14.51284 -7.3831,-2.60084 -4.9036,-2.56428 -224.77534,-3.31472 -95.15,-0.32475 -198.425,-0.80246 -229.5,-1.06158 -31.075,-0.25911 -138.175,-0.7076 -238,-0.99663 -99.825,-0.28903 -216.375,-0.73958 -259,-1.00121 -42.625,-0.26164 -141.400003,-0.71249 -219.5000029,-1.00191 -78.1000001,-0.28941 -176.4249971,-0.7384 -218.4999971,-0.99775 -96.89386,-0.59726 -353.6088,-1.55125 -486,-1.80606 l -101.5,-0.19535 -7.33844,3.22976 c -13.29263,5.85027 -21.93937,13.91172 -28.1219,26.21833 -3.9021,7.76731 -5.01466,14.08412 -5.5397,31.4528 -0.25104,8.30451 -0.69376,93.84911 -0.98382,190.09911 -0.29007,96.25 -0.81184,211.2249971 -1.1595,255.499997 -0.56614,72.099073 -0.46403,81.149603 0.97845,86.724673 5.01767,19.39295 20.63892,35.12357 38.95572,39.22845 5.87785,1.31725 79.28435,1.90568 317.70919,2.54675 106.975,0.28763 220.375,0.73941 252,1.00396 31.625,0.26455 130.85,0.70889 220.499997,0.98741 162.661503,0.50536 299.910003,1.07859 480.500003,2.00684 52.525,0.26999 183.025,0.77822 290,1.12941 106.975,0.35119 194.6307,0.74683 194.7903,0.8792 0.1597,0.13236 49.8847,0.18501 110.50004,0.11699 l 110.2097,-0.12368 z M 395.12886,138.68148 c -4.6828,-2.02204 -9.0703,-4.0405 -9.75,-4.48546 -0.9506,-0.6222 -1.236,-11.05549 -1.236,-45.181903 l 0,-44.37289 2.75,-1.88679 c 1.5125,-1.03773 6.35,-3.74409 10.75,-6.01414 23.2374,-11.98861 46.6331,-25.01919 46.3367,-25.80792 -0.1852,-0.49295 -9.5617,-4.5460699 -20.8367,-9.0069499 -57.0248,-22.5614601 -88.0077,-34.7926801 -102.5,-40.4642601 -8.8,-3.44388 -16.5679,-6.70247 -17.262,-7.24131 -0.9844,-0.76411 -1.2044,-9.14757 -1,-38.09726 l 0.262,-37.117557 8,-4.21569 c 4.4,-2.31864 8.6581,-4.23114 9.4625,-4.25 1.2993,-0.0305 65.2307,24.06721 179.5375,67.673107 20.9,7.97297 43.85,16.71531 51,19.42744 7.15,2.71212 14.0125,5.35664 15.25,5.8767 2.6582,1.1171 2.4568,-2.56725 2.4774,45.3315401 0.012,28.2657899 -0.2439,35.0755499 -1.3562,36.0744999 -0.7542,0.67727 -6.7712,4.42229 -13.3712,8.32225 -13.4476,7.94622 -33.6603,20.06491 -101.8718,61.077903 -25.7795,15.50024 -47.1545,28.14915 -47.5,28.10869 -0.3455,-0.0405 -4.4595,-1.72797 -9.1422,-3.75 z m 6.0642,-14.42644 c 0.028,-4.5375 0.2745,-22.01797 0.5488,-38.845503 l 0.4986,-30.59549 -4.6095,-1.76042 c -2.5353,-0.96823 -4.7986,-1.57138 -5.0297,-1.34035 -0.4673,0.46737 -0.7158,76.875633 -0.2514,77.318473 0.4788,0.45653 7.2293,3.30321 8.043,3.39172 0.4125,0.0449 0.7726,-3.63093 0.8002,-8.16843 z m 47.9542,-17.32373 c 21.7226,-13.103763 55.6956,-33.560983 75.4956,-45.460483 l 36,-21.63546 0.1684,-33.1651699 c 0.1152,-22.6722401 -0.1648,-33.1651601 -0.885,-33.1651601 -0.5794,0 -10.1052,4.88965 -21.1684,10.86589 -11.0633,5.9762401 -34.74,18.6382201 -52.615,28.13773 -17.875,9.49951 -34.75,18.4929 -37.5,19.98532 -16.4337,8.9185 -33.524,18.06999 -36.8604,19.73792 l -3.8605,1.92989 -0.4483,38.80116 c -0.367,31.763933 -0.2101,38.709773 0.8648,38.297263 0.7222,-0.27714 19.0862,-11.22515 40.8088,-24.3289 z m -6.0505,-78.099913 c 20.1004,-10.76894 39.6961,-21.2653899 43.5461,-23.3254499 3.85,-2.06006 14.425,-7.71831 23.5,-12.57389 9.075,-4.8555801 20.1,-10.7802501 24.5,-13.1659401 4.4,-2.3857 10.8125,-5.76699 14.25,-7.51398 3.4375,-1.747 6.25,-3.45014 6.25,-3.78476 0,-0.57718 -48.3049,-19.23877 -125.5,-48.48427 -19.25,-7.2929 -48.275,-18.30715 -64.5,-24.476097 -48.6497,-18.49726 -44.1057,-17.02644 -47.3504,-15.32635 -1.5545,0.81449 -2.6741,1.62403 -2.488,1.79898 0.1861,0.17494 20.8134,8.06611 45.8384,17.53593 47.8748,18.116497 104.6172,39.691797 146.5,55.703977 13.75,5.25676 25.7875,10.24123 26.75,11.0766 2.0463,1.77607 2.2775,4.53802 0.5,5.97336 -1.0199,0.82355 -41.5699,22.5581201 -85.75,45.96148 -15.6773,8.30465 -51.496,27.54549 -51.8663,27.86112 -0.7719,0.65794 6.4398,3.22531 7.8202,2.784 0.7997,-0.25564 17.8997,-9.27576 38,-20.04471 z m 26.094,-30.1147999 c 6.9013,-3.69136 22.294,-11.8838401 34.206,-18.2055201 11.912,-6.32168 21.3405,-11.78022 20.9521,-12.13007 -0.3883,-0.34986 -10.381,-4.33094 -22.206,-8.84684 -11.825,-4.5159 -24.2,-9.25696 -27.5,-10.53569 -8.0858,-3.13321 -42.8343,-16.33954 -71,-26.98394 -25.3994,-9.59893 -51.2318,-19.40484 -76.7358,-29.128687 -9.2046,-3.50945 -16.8962,-6.38081 -17.0922,-6.38081 -0.1961,0 -0.3851,13.980357 -0.4202,31.067467 -0.057,28.04527 0.097,31.12535 1.5922,31.66245 5.1126,1.83688 111.1117,43.7196001 128.656,50.83496014 7.15,2.89978996 13.9,5.29166996 15,5.31528996 1.1,0.0236 7.6466,-2.97726 14.5479,-6.66861 z m -710.5479,135.4913429 -10,-4.25888 -0.26024,-44.646623 -0.26024,-44.64663 2.76024,-1.90356 c 1.51813,-1.04696 14.23524,-7.9147 28.26024,-15.26164 14.025,-7.34695 26.76765,-14.1202099 28.317,-15.0516799 l 2.817,-1.6936 -18.317,-7.24475996 C -320.83863,-45.113623 -329.03822,-48.403613 -331.61943,-50.084213 l -2.26229,-1.47296 0.26229,-36.71889 0.26229,-36.718897 8,-4.18248 c 4.4,-2.30037 8.90492,-4.21287 10.01093,-4.25 2.08705,-0.0701 4.19334,0.70436 64.48907,23.71138 61.90842,23.622357 100.94988,38.432487 140,53.108117 20.624997,7.75118 39.074997,14.8858 40.999997,15.8547 l 3.5,1.76164 0.26146,39.08296014 c 0.24264,36.27080986 0.13471,39.19150986 -1.5,40.59152986 -0.9688,0.82971 -10.76146,6.90238 -21.76146,13.49481 -85.297847,51.120033 -139.324817,83.318213 -140.550007,83.762873 -0.79749,0.28944 -5.94999,-1.39025 -11.44999,-3.73263 z m 7.5,-44.594323 0,-38.89142 -4.02024,-1.60858 c -2.21113,-0.88472 -4.46113,-1.60858 -5,-1.60858 -0.62273,0 -0.97976,14.04436 -0.97976,38.54101 l 0,38.541003 4.25,1.88836 c 2.3375,1.03859 4.5875,1.92014 5,1.95899 0.4125,0.0389 0.75,-17.4305 0.75,-38.820783 z m 83.81444,-8.10858 76.090727,-45.5 0.0474,-33.3569899 c 0.0446,-31.3621901 -0.0572,-33.3178701 -1.70259,-32.7028301 -1.63942,0.61282 -61.269327,32.0151001 -91.249997,48.05405 -13.72164,7.34074 -24.03045,12.82108 -39.75,21.13176 -4.8125,2.54429 -11.5625,6.16631 -15,8.04894 l -6.25,3.42295 0,38.53439 c 0,21.193923 0.38783,38.384403 0.86185,38.201063 0.47404,-0.18333 35.10271,-20.80833 76.95261,-45.833333 z m -29.19452,-63.59656 c 28.53404,-15.1781099 62.45508,-33.21862 75.38008,-40.09001 12.924997,-6.8714 23.829407,-12.80485 24.232017,-13.18546 0.40261,-0.38061 -5.67239,-3.09886 -13.5,-6.04056 -18.789067,-7.06114 -92.103737,-34.8309 -111.732017,-42.32129 -32.52225,-12.41088 -50.14901,-19.121287 -69,-26.267877 -10.725,-4.06596 -24.225,-9.22058 -30,-11.45472 -9.08418,-3.51435 -10.87081,-3.90963 -13.25,-2.93148 -1.5125,0.62183 -2.74188,1.41351 -2.73196,1.75928 0.01,0.34577 6.87242,3.25335 15.25,6.46129 8.37758,3.20793 18.60696,7.12688 22.73196,8.70876 15.01005,5.75615 50.98603,19.416867 71,26.959957 11.275,4.24946 29.95,11.34972 41.5,15.77838 11.55,4.42865 28.2,10.75221 37,14.05235 29.4632,11.04917 32.524577,12.34536 33.511067,14.18863 0.53997,1.00894 0.72952,2.49175 0.42123,3.29515 -0.3083,0.80339 -29.669177,16.78746 -65.246417,35.5201501 -35.57723,18.7326899 -67.08236,35.3712799 -70.01139,36.9746499 l -5.3255,2.91522 3.8255,1.58554 c 2.10403,0.87205 3.87947,1.60873 3.94543,1.63707 0.066,0.0283 23.46596,-12.36692 52,-27.54503 z m 31.38008,-32.92414 c 35.53492,-18.58711 37.95274,-19.92848 37.20557,-20.64113 -0.38806,-0.37014 -15.78057,-6.36586 -34.20557,-13.32383 -18.425,-6.95797 -42.725,-16.18633 -54,-20.50748 -11.275,-4.32114 -36.025,-13.75675 -55,-20.96804 -18.975,-7.21128 -35.57239,-13.562717 -36.8831,-14.114317 -4.79303,-2.01711 -33.91413,-12.9245 -34.50647,-12.9245 -0.33574,0 -0.61043,13.87984 -0.61043,30.844077 l 0,30.84408 32.75,13.06924 c 18.0125,7.18808 49.4,19.6368 69.75,27.66383 20.35,8.0270401 38.35,15.20413014 40,15.94911014 2.74777,1.24062996 3.42038,1.12427996 8,-1.38378 2.75,-1.50605004 15.125,-8.03432004 27.5,-14.50726014 z m 1006,122.898533 c -15.9395,-3.12858 -28.4608,-8.999753 -35.8451,-16.807593 -4.1016,-4.3368 -6.3095,-5.717 -12.8055,-8.00495 -12.8224,-4.51616 -19.2637,-8.40964 -27.3494,-16.53164 -14.0937,-14.1569 -18.989,-29.03201 -20.5327,-62.3910599 -1.2301,-26.5817301 -2.5425,-39.6827001 -4.9106,-49.0177701 -1.3356,-5.26521 -2.872,-10.36589 -3.4143,-11.33483 -0.8788,-1.57039 -1.0411,-1.49175 -1.4946,0.72414 -0.2797,1.36723 -1.2492,9.01087 -2.1544,16.98587 -2.8301,24.93454 -7.9627,56.96217 -13.1409,82 -1.4218,6.875 -2.6453,12.99433 -2.7188,13.5985 -0.074,0.60418 10.6663,9.9512 23.8663,20.77116 23.1327,18.96174 26.2763,22.254013 23.7048,24.825573 -0.6047,0.60463 -28.9027,0.9149 -75.8347,0.83148 -101.5023,-0.18042 -109.3157,-0.32893 -110.436,-2.09915 -0.5167,-0.81647 -0.91,-33.330723 -0.9188,-75.956793 l -0.015,-74.52924 -7.7583,-1.22076 c -4.2674,-0.67143 -8.5925,-1.22077 -9.6115,-1.22077 -2.0546,0 -4.4452,-1.91748 -29.0753,-23.32068 -9.3804,-8.15138 -17.1797,-15.57638 -17.3319,-16.5 -0.1522,-0.92363 1.5353,-7.05824 3.75,-13.632477 2.2147,-6.57424 4.0267,-12.58488 4.0267,-13.35698 0,-0.77209 -4.1625,-5.78969 -9.25,-11.15022 -19.4301,-20.47279 -24.324,-38.74091 -15.3673,-57.36278 6.621,-13.76555 21.0438,-25.88328 45.1173,-37.90668 18.0684,-9.02414 49.4456,-19.99542 68.3567,-23.90146 6.1001,-1.25996 6.1536,-1.30075 5.6587,-4.32034 -0.2748,-1.67661 -1.4143,-10.24838 -2.5322,-19.04838 -3.0096,-23.69035 -2.5679,-22.20411 -6.8269,-22.97051 -6.867,-1.23569 -11.2283,-2.86688 -13.6392,-5.10124 -2.1816,-2.02185 -2.311,-2.59744 -1.3667,-6.08075 1.8487,-6.81987 8.6816,-19.67042 14.0093,-26.3475 10.9542,-13.72839 25.7099,-23.79368 40.3004,-27.49006 13.01,-3.29596 29.0338,-1.33951 42.5399,5.19394 9.2177,4.45901 20.5186,15.2274 24.0158,22.88414 2.0278,4.43989 2.8436,5.22756 6.404,6.18342 5.001,1.34261 12.0103,7.18541 14.4989,12.08601 2.1369,4.20779 4.3604,14.08068 3.8978,17.30626 -0.2691,1.87603 1.7105,3.41381 13.2227,10.27133 35.1441,20.93447 56.4283,39.77386 67.3035,59.57277 16.2982,29.67178 1.7979,57.54551 -38.2166,73.46323 -8.7078,3.46396 -30.2326,9.50933 -33.9828,9.54427 -4.0264,0.0375 -4.1613,0.71384 -5.6797,28.48469 -0.3307,6.05 -1.2456,18.552057 -2.0329,27.782357 l -1.4316,16.78235 2.6234,5.17707 c 6.7497,13.31981 9.7732,27.61788 10.8393,51.25822 1.3656,30.28066 2.1767,38.72276 4.6975,48.89304 3.7487,15.1246 11.3271,26.5051 22.5118,33.8062 5.4276,3.54301 18.0727,9.80076 19.8045,9.80076 0.189,0 0.3148,-1.9128 0.2794,-4.25067 -0.1198,-7.92416 4.6419,-13.353 15.245,-17.38108 6.5296,-2.48054 31.9405,-2.52425 41,-0.0705 8.6532,2.34367 14.8491,6.29354 17.2957,11.02587 3.9318,7.60521 -0.759,14.45071 -12.9411,18.88562 -6.9242,2.52073 -28.36,3.59696 -39.8546,2.00099 -3.85,-0.53455 -7.1351,-0.85288 -7.3003,-0.70741 -1.1286,0.994 13.5706,8.99219 20.6715,11.24787 7.6271,2.422843 10.138,2.735123 21.6288,2.690003 23.9957,-0.0942 43.3732,-7.297433 57.5895,-21.407753 9.942,-9.86784 13.1235,-16.26055 13.7166,-27.56081 0.8583,-16.35124 -3.9719,-24.91841 -27.0387,-47.9586399 -18.9974,-18.9754501 -25.1313,-27.3181801 -29.6062,-40.2674501 -4.0548,-11.73374 -2.2948,-26.73766 4.3759,-37.30486 1.3546,-2.14578 2.4629,-4.13536 2.4629,-4.42129 0,-0.28593 -6.7179,-0.51987 -14.9286,-0.51987 -12.305,0 -15.2077,-0.27911 -16.5168,-1.58821 -1.4233,-1.42335 -1.5783,-9.06734 -1.493,-73.640937 0.057,-43.08631 0.4789,-73.06223 1.0498,-74.56382 l 0.9547,-2.5111 121.717,0.71238 c 91.94544,0.53813 122.00554,1.00336 122.89684,1.90203 0.8717,0.87886 1.3655,20.32075 1.8901,74.41845 0.5967,61.537817 0.4899,73.494097 -0.6691,74.890667 -1.2766,1.53818 -9.0466,1.60768 -104.3901,0.93364 l -103.01084,-0.72824 -3.2617,5.40541 c -5.5967,9.27519 -7.5068,16.13774 -7.0335,25.26973 0.7594,14.65278 7.1131,24.81662 30.1775,48.2740101 24.4673,24.8841499 28.1177,31.3470199 28.1177,49.7805199 0,10.83056 -0.079,11.21401 -3.8917,18.92618 -10.9285,22.10477 -38.2065,36.880583 -70.1083,37.975833 -6.6,0.2266 -13.125,0.19118 -14.5,-0.0787 z M 675.38526,33.390427 c 0.2402,-57.95687 0.3761,-62.24242 2.0076,-63.27141 1.2763,-0.805 2.2237,-0.805 3.5,0 1.6315,1.02898 1.7674,5.31327 2.0076,63.24489 l 0.2575,62.14113 41.7068,0 c 35.1214,0 41.4755,-0.21372 40.2424,-1.35354 -0.8054,-0.74445 -10.1268,-8.42143 -20.7143,-17.05996 -10.5875,-8.63852 -19.25,-16.28332 -19.25,-16.98844 0,-0.70511 1.3805,-7.76563 3.0678,-15.69004 6.3741,-29.93604 12.3361,-68.49458 15.4891,-100.1734 l 1.6686,-16.76538 -3.2423,-5.3497 c -1.7832,-2.94234 -8.5766,-11.82292 -15.0964,-19.73462 -37.5116,-45.519897 -49.4666,-66.951217 -51.4287,-92.193817 -0.7702,-9.9086 1.2856,-21.21117 5.5288,-30.39695 l 2.8667,-6.20584 -2.1768,-0.69025 c -4.1001,-1.30011 -9.7492,-5.46872 -11.7673,-8.68348 -1.5924,-2.53649 -1.9453,-4.51152 -1.6729,-9.36292 0.2864,-5.10024 0.9788,-7.10248 4.0616,-11.74555 6.9316,-10.43973 17.777,-15.87499 27.0283,-13.54548 5.8205,1.46562 10.0643,-0.36719 13.9694,-6.03314 2.3525,-3.41323 2.1324,-6.27645 -0.6858,-8.92404 -8.6007,-8.07998 -3.7332,-29.89957 8.5967,-38.53571 l 2.2758,-1.59407 -2.3657,-4.45947 c -5.0056,-9.43563 -17.9208,-18.66527 -30.8201,-22.02511 -7.1458,-1.86125 -20.2113,-1.90292 -26.7968,-0.0855 -17.7461,4.89751 -33.3757,18.01911 -42.3999,35.59638 -5.9346,11.55933 -5.9342,11.55253 -0.6848,12.87436 2.4587,0.6191 5.9586,1.13253 7.7775,1.14095 5.5283,0.0256 5.9332,0.79637 7.6808,14.62011 l 1.6264,12.86461 4,0.33595 c 7.4364,0.62457 18.6134,-1.8042 27,-5.8671 10.0329,-4.86045 16.1016,-10.09633 22.0187,-18.99702 4.7089,-7.08311 7.0289,-8.42676 9.4705,-5.48482 1.8245,2.19835 0.6236,5.24379 -5.0107,12.70674 -8.6197,11.41744 -22.0099,20.4525 -35.0041,23.61915 -2.489,0.60658 -8.2782,1.41583 -12.8649,1.79834 l -8.3393,0.69548 0.5615,4.09664 c 0.3088,2.25315 0.8679,7.0876 1.2424,10.74322 0.7776,7.59015 0.4036,8.05214 -7.5741,9.35745 -15.307,2.5045 -50.9717,14.56851 -69.5,23.50921 -43.883,21.17537 -56.669,45.12986 -38.5491,72.22141 5.221,7.80611 18.4186,21.16039 27.0164,27.33734 4.1608,2.98923 5.0822,4.17217 4.8364,6.2095 -0.5205,4.31334 -3.0279,4.91205 -7.2106,1.72171 -2.132,-1.62617 -4.037,-2.42997 -4.5196,-1.90707 -0.4588,0.49713 -2.1526,5.193 -3.764,10.43526 l -2.9298,9.531397 17.8587,15.33675 c 9.8222,8.43522 18.0116,15.17109 18.1986,14.96861 0.3161,-0.34228 11.5704,-35.05166 20.7089,-63.868147 2.1802,-6.875 4.3839,-13.52183 4.8971,-14.77074 0.8421,-2.04952 -0.7313,-3.90048 -16.1514,-19 -9.3964,-9.20109 -17.4059,-16.85091 -17.799,-16.99958 -0.393,-0.14868 -1.5064,2.24163 -2.4742,5.3118 l -1.7596,5.58212 4.6243,4.07042 c 3.6218,3.18805 4.5584,4.6379 4.3206,6.6882 -0.693,5.97407 -6.0129,3.31285 -20.0939,-10.0518 -3.4321,-3.2575 -3.7343,-3.91613 -2.6912,-5.86513 0.9537,-1.78202 1.7916,-2.09549 4.4488,-1.6643 l 3.2737,0.53126 2.3795,-7.5137 c 2.3721,-7.49059 4.619,-10.15483 7.2622,-8.61082 0.7459,0.43575 10.4343,9.63031 21.5297,20.43235 l 20.1735,19.64009 22.707,0.61111 c 12.4889,0.33612 27.432,0.94808 33.207,1.35992 10.4289,0.74373 10.5021,0.76694 10.8097,3.42904 0.1703,1.47413 -0.8094,5.52413 -2.1771,9 -1.3677,3.47587 -9.2623,24.44843 -17.5437,46.605687 -8.2813,22.15725 -15.53,41.16975 -16.1081,42.25 -1.3201,2.46653 -3.0247,2.46503 -19.9808,-0.0177 -7.425,-1.08716 -14.0625,-1.98602 -14.75,-1.99746 -0.9885,-0.0165 -1.25,14.91994 -1.25,71.4051 l 0,71.42592 36.4924,0.10061 36.4924,0.10062 0.2576,-62.16767 z M 549.61936,-139.63278 c -8.8284,-8.47561 -10.5662,-12.06415 -6.4718,-13.36367 2.3153,-0.73483 4.6144,0.88444 13.7453,9.68088 6.2217,5.99376 7.3351,8.33547 5.05,10.62061 -2.1756,2.17561 -3.7595,1.28392 -12.3235,-6.93782 z m 109.7235,-161.06218 c -1.7932,-1.79324 -1.448,-6.26558 0.6287,-8.14501 3.8164,-3.45378 9.1713,-0.9919 9.1713,4.21644 0,3.56366 -1.6782,5.12857 -5.5,5.12857 -1.705,0 -3.64,-0.54 -4.3,-1.2 z m -18.8739,-6.19591 c -2.424,-2.08503 -2.6583,-2.7528 -1.8057,-5.14642 0.5388,-1.51277 1.7434,-3.22983 2.6768,-3.81568 2.6176,-1.64279 7.0841,0.37298 8.2646,3.72992 0.8763,2.49171 0.6591,3.12734 -1.7879,5.23218 -1.532,1.31775 -3.1852,2.39591 -3.6739,2.39591 -0.4887,0 -2.1419,-1.07816 -3.6739,-2.39591 z m 227.8123,389.037507 c 7.0027,-1.64827 11.8887,-4.43572 13.8263,-7.88778 1.3867,-2.47063 1.3211,-2.82113 -0.9898,-5.28725 -5.319,-5.67639 -19.8447,-9.01765 -35.4749,-8.16013 -17.8105,0.97715 -25.5619,5.09521 -25.6799,13.6428 -0.032,2.31702 0.3463,4.61711 0.8405,5.11132 3.2048,3.20481 37.0182,5.043 47.4778,2.58104 z m -219.6591,-177.41731 c 8.9356,-23.801647 15.9707,-43.435307 15.6336,-43.630367 -0.3371,-0.19506 -13.4848,-0.67886 -29.2172,-1.07511 -27.2722,-0.6869 -28.6387,-0.63426 -29.3414,1.13037 -3.1343,7.87107 -25.284,78.977467 -24.744,79.434687 0.3794,0.32112 11.0397,2.06219 23.6897,3.86903 12.65,1.80685 23.2065,3.47559 23.4588,3.70832 0.2524,0.23273 1.3173,0.29166 2.3664,0.13096 1.5346,-0.23505 5.0844,-8.75433 18.1541,-43.56789 z m 99.3707,-7.474287 c 0.6504,-10.5875 1.4692,-24.98027 1.8197,-31.98394 0.4939,-9.86795 0.9966,-13.03627 2.2338,-14.07727 0.8781,-0.73884 6.0965,-2.14986 11.5965,-3.1356 25.5265,-4.57499 49.3781,-15.65533 60.2245,-27.97754 14.9882,-17.02749 11.6066,-38.11353 -9.7787,-60.97442 -11.4868,-12.2794 -35.1891,-29.8746 -55.1143,-40.9135 l -6.6685,-3.69447 -1.7186,5.25337 c -0.9452,2.88935 -2.5569,6.92294 -3.5815,8.96353 -1.0246,2.04059 -1.8629,3.91177 -1.8629,4.15818 0,0.24641 2.0282,1.72683 4.5072,3.28984 4.9042,3.09215 6.3333,5.62421 4.453,7.88981 -1.7851,2.15083 -4.5129,1.77639 -9.0808,-1.2465 -3.4841,-2.30569 -4.2016,-2.47706 -4.929,-1.17727 -0.4683,0.83668 -2.831,4.21042 -5.2506,7.49719 l -4.3993,5.97595 6.0998,3.34182 c 23.204,12.71263 39.5997,26.84036 39.5997,34.12196 0,5.39942 -10.6618,10.86847 -12.393,6.35707 -1.1315,-2.94859 -0.6143,-4.35048 2.143,-5.80871 l 2.75,-1.45437 -5.1335,-4.96849 c -7.0259,-6.80006 -28.0496,-20.83994 -36.0856,-24.09838 -3.0236,-1.22603 -3.4579,-1.11611 -7.1528,1.81029 -6.3014,4.99076 -16.0624,9.07719 -23.2957,9.75264 -6.4595,0.60319 -6.4742,0.61175 -9.0247,5.2265 -4.4726,8.09269 -6.1477,14.87118 -6.2081,25.12231 -0.139,23.56455 10.0627,44.59615 38.805,80 6.921,8.525 15.3987,19.206637 18.8395,23.736967 3.4407,4.53034 6.5186,8.24284 6.8397,8.25 0.321,0.007 1.1158,-8.64947 1.7662,-19.236967 z m 262.15004,-5.75 0,-24 -13.00004,0 -13,0 0,23.33333 c 0,12.833337 0.3,23.633337 0.6667,23.999997 0.3666,0.36667 6.2166,0.66667 13,0.66667 l 12.33334,0 z m 89,-8.95225 0,-32.95226 -16.25,-0.29774 c -8.9375,-0.16376 -61.3625,-0.4533 -116.50004,-0.64342 l -100.25,-0.34568 0,33.09568 0,33.095667 40.5,0 40.5,0 0,-25.877557 c 0,-21.62734 0.2431,-26.0793 1.4801,-27.10589 1.143,-0.94862 8.8286,-1.06412 33.75,-0.50721 17.74844,0.39662 32.60744,0.92083 33.01994,1.16491 0.4125,0.24408 0.75,12.34223 0.75,26.88477 l 0,26.440977 41.5,0 41.5,0 z m -121.00004,7.95225 0,-24 -12.5,0 -12.5,0 0,24 0,23.999997 12.5,0 12.5,0 z m 120.15994,-78.72548 c -0.1965,-17.47599 -0.4516,-31.87575 -0.5669,-31.99948 -0.1153,-0.12372 -52.2602,-0.53231 -115.87754,-0.90797 l -115.668,-0.68301 -0.018,32.15245 -0.018,32.15245 86.2439,0.25552 c 47.4341,0.14054 99.74784,0.37905 116.25264,0.53004 l 30.0086,0.27452 -0.3574,-31.77452 z m -396.65994,-46.38615 c 4.1287,-1.1359 14.5,-6.85846 14.5,-8.00068 0,-0.35478 -1.3607,-1.20865 -3.0237,-1.89751 -3.7194,-1.5406 -5.1359,-3.82338 -3.8563,-6.21436 1.2251,-2.28909 3.6234,-2.24338 9.2691,0.17664 l 4.5549,1.95246 3.3586,-4.20246 c 5.6225,-7.03534 8.1436,-11.05352 7.1463,-11.39013 -0.5219,-0.17614 -2.4402,-1.2294 -4.263,-2.34057 -2.6486,-1.6146 -3.251,-2.56766 -3,-4.74603 0.4089,-3.54849 3.7035,-4.07854 8.3416,-1.342 l 3.4465,2.03345 1.1151,-2.08362 c 0.6133,-1.146 2.2112,-5.28986 3.5509,-9.20859 2.2589,-6.60725 2.3123,-7.19763 0.7357,-8.12497 -2.5154,-1.4795 -5.3757,-4.3679 -5.3757,-5.42857 0,-2.12629 3.333,-4.20466 5.7643,-3.59445 2.3908,0.60006 2.4525,0.4898 1.777,-3.17767 -0.9171,-4.97847 -4.3903,-11.14095 -7.6279,-13.53396 -1.4226,-1.0515 -4.4829,-2.16618 -6.8007,-2.47706 -3.6818,-0.49383 -4.5984,-0.20031 -7.255,2.32323 -4.9367,4.68932 -7.2432,10.07982 -7.3039,17.07026 -0.048,5.54203 0.2567,6.5061 2.9462,9.31566 2.567,2.68153 3,3.90409 3,8.46981 0,7.16409 -4.0151,12.87225 -11.9373,16.97081 -5.4964,2.84357 -5.8688,2.89886 -11.5796,1.71933 -7.1777,-1.48253 -10.7665,-0.30737 -16.4655,5.39165 -6.5571,6.5571 -8.6107,13.91639 -5.1232,18.35944 3.4462,4.39035 15.425,6.36809 24.1056,3.97989 z M -602.87044,97.989007 c -1.41808,-1.70867 -1.5245,-0.2678 4.98416,-67.48397 3.53501,-36.5067299 8.02914,-86.21574 8.02914,-88.80933 0,-1.61819 -5.43591,-0.009 -7.5,2.22024 -6.11003,6.59888 -25.50846,24.58909 -26.51385,24.58909 -1.79788,0 -14.98615,-13.10829 -14.98615,-14.89527 0,-0.86193 4.15764,-5.74216 9.23921,-10.84494 8.10691,-8.14076 9.08472,-9.49115 7.97863,-11.01879 -2.32316,-3.20854 -5.1737,-9.71981 -5.19588,-11.86856 -0.0283,-2.73821 1.21895,-3.60702 8.22804,-5.73166 3.1625,-0.95864 5.75,-2.05966 5.75,-2.44672 0,-0.38705 -6.34469,-3.85156 -14.09931,-7.6989 -26.44521,-13.120387 -46.43961,-27.020617 -56.83515,-39.512127 -25.68027,-30.85797 -9.74198,-60.5727 47.43446,-88.43499 14.91877,-7.26998 40.94612,-17.69009 57.85927,-23.16411 l 8.85928,-2.86734 -0.59839,-5.09134 c -0.32911,-2.80024 -1.97205,-9.77897 -3.65098,-15.5083 -6.85585,-23.39555 -10.09171,-35.88805 -11.62336,-44.87365 -2.89911,-17.00794 -0.30121,-34.67169 6.62405,-45.03849 6.79278,-10.1685 17.57946,-18.69776 28.53013,-22.55941 6.7624,-2.3847 22.99816,-2.85368 31.34471,-0.90542 11.84537,2.76496 26.06705,9.74861 35.77793,17.56896 14.1271,11.37683 32.05006,36.08969 30.0168,41.38829 -0.94669,2.46702 -8.86659,5.50585 -16.11317,6.18255 -6.10285,0.56989 -6.52627,0.76917 -6.52627,3.07149 0,1.35414 -0.66581,6.35156 -1.47958,11.1054 -0.81377,4.75383 -2.62934,16.51833 -4.03459,26.14333 -1.40525,9.625 -2.80019,18.7375 -3.09987,20.25 -0.34392,1.73581 -0.11601,2.75 0.618,2.75 2.411,0 16.73649,6.29 25.22973,11.07782 38.64882,21.7871 75.16234,61.61899 85.64367,93.42701 9.19,27.88914 2.13482,50.15819 -20.62736,65.108417 l -5.25,3.44821 -0.17051,6.71927 c -0.0938,3.6956 -0.24031,9.22278 -0.32562,12.28262 -0.0853,3.05984 -0.44468,6.03186 -0.79858,6.60448 -0.3539,0.57262 -6.88893,3.61318 -14.52229,6.7568 -13.11225,5.39998 -13.8527,5.85238 -13.40573,8.19058 0.59585,3.11699 -3.46156,64.31926 -5.26283,79.38479 -0.23015,1.925 -0.68717,6.425 -1.0156,10 l -0.59713,6.5 18.09058,19 c 9.94981,10.45 18.58809,19.99917 19.19616,21.22039 0.83446,1.67586 0.79427,2.5955 -0.16387,3.75 -1.12405,1.35439 -12.86873,1.52961 -102.52458,1.52961 -89.26036,0 -101.40416,-0.17959 -102.5133,-1.51603 z m 97.04104,-35.73397 c 0.0153,-16.0875 0.003,-42.53524 -0.0264,-58.7727599 -0.0586,-31.9287401 0.18489,-33.5095901 5.05469,-32.8222101 l 2.44397,0.34497 0.25781,60.25 0.2578,60.25 43.61956,0 43.61955,0 -4.28167,-4.75 c -2.35492,-2.6125 -8.37474,-9.03137 -13.37736,-14.26414 -5.00263,-5.23278 -10.36948,-10.92029 -11.92634,-12.6389 l -2.83065,-3.12476 2.17537,-24.3611 c 2.31742,-25.9518799 5.74064,-73.8611 5.27754,-73.8611 -0.15279,0 -4.3438,1.62738 -9.31334,3.61641 l -9.03553,3.61641 -28.22137,-5.70753 c -15.52175,-3.13913 -28.72033,-6.22902 -29.33016,-6.8664 -0.67241,-0.7028 -2.42206,-19.65624 -4.44569,-48.15889 -3.92307,-55.256097 -4.02169,-58.385477 -1.88313,-59.753577 1.15214,-0.73706 9.42217,1.48532 31.49519,8.46357 l 29.9328,9.46308 5.00481,-2.21815 c 2.75265,-1.21998 8.52517,-3.84642 12.82784,-5.83654 4.30267,-1.99011 7.97358,-3.61838 8.15758,-3.61838 0.184,0 4.76363,-2.07951 10.17697,-4.62113 17.20776,-8.07923 18.30004,-8.47192 20.41579,-7.3396 1.70297,0.9114 1.92663,2.18021 1.92663,10.92949 l 0,9.8984 2.75,0.31642 c 2.29883,0.26451 2.75,0.79475 2.75,3.23196 0,2.57659 -0.93005,3.4752 -8,7.72956 -9.15557,5.50938 -12.81421,5.9646 -13.31147,1.65625 -0.25614,-2.21931 0.40994,-3.15406 3.75,-5.26255 l 4.06147,-2.56389 0,-8.09444 c 0,-7.29797 -0.1722,-8.02842 -1.75,-7.42338 -0.9625,0.36908 -11.37,5.01198 -23.12778,10.31755 l -21.37777,9.64648 0.54198,42.370317 c 0.2981,23.30367 0.77212,42.60045 1.0534,42.88172 0.56368,0.56368 40.40643,-15.33873 42.41017,-16.92715 0.80867,-0.64104 1.25,-3.74765 1.25,-8.7989 0,-7.33585 -0.13606,-7.82733 -2.25,-8.12756 -1.7588,-0.24979 -2.25,-0.97047 -2.25,-3.30115 0,-2.70499 0.76822,-3.40077 8.28086,-7.5 10.56206,-5.76312 18.15425,-13.109877 22.34513,-21.622757 4.14465,-8.41897 5.03226,-19.6163 2.43191,-30.67881 -9.1067,-38.74218 -63.39038,-92.67372 -106.44016,-105.74969 -4.10149,-1.24578 -7.53647,-2.89475 -7.87662,-3.78118 -0.33177,-0.86457 0.0508,-6.20271 0.85015,-11.86253 l 1.45336,-10.29059 -4.52231,-1.56273 -4.52232,-1.56273 -5.16741,5.77945 -5.16741,5.77946 -6.83259,-3.29079 -6.83259,-3.29079 -6.81676,2.11845 c -8.87143,2.75697 -11.18324,2.44624 -11.18324,-1.50316 0,-2.8278 0.43051,-3.15425 7.5,-5.68728 9.41624,-3.37387 12.39543,-3.42004 17.89327,-0.27728 2.4163,1.38125 4.47009,2.38833 4.564,2.23796 1.95461,-3.13003 8.17392,-9.83896 9.51569,-10.26482 0.98814,-0.31362 4.15697,0.36014 7.04184,1.49725 2.88487,1.13711 5.41333,1.89937 5.61879,1.69391 0.20547,-0.20546 1.74541,-9.33446 3.4221,-20.28665 1.6767,-10.9522 3.46544,-20.92559 3.97498,-22.16309 0.81289,-1.9742 1.64924,-2.25 6.82289,-2.25 7.53818,0 12.14644,-0.92713 12.14644,-2.44373 0,-0.65655 -1.6875,-3.93778 -3.75,-7.29162 -14.01071,-22.78288 -40.06347,-39.78253 -62.87503,-41.02649 -14.9636,-0.81599 -24.46139,2.41841 -34.77132,11.84111 -17.91143,16.37003 -18.97347,38.44831 -4.08249,84.86867 5.78929,18.04721 8.0186,33.52928 5.16858,35.89459 -0.72064,0.59808 -7.13314,3.06955 -14.25,5.49217 -22.03174,7.4997 -39.28645,14.47069 -55.93974,22.59991 -64.79883,31.63126 -71.41686,61.88254 -21,95.99178 8.88382,6.0103 24.37111,14.66866 36.58505,20.45331 10.66844,5.052687 13.24828,7.315507 13.24828,11.620297 0,3.85839 -2.31332,6.31491 -8.42114,8.94243 -4.31033,1.85426 -4.81557,2.36959 -3.93546,4.01409 3.23215,6.03932 13.62201,10.79391 20.90014,9.56428 7.45208,-1.25902 12.45196,-7.77501 12.28662,-16.01228 -0.11455,-5.70708 -1.59496,-9.1808 -6.2926,-14.76529 -2.77455,-3.298347 -3.81639,-5.339577 -3.39806,-6.657617 0.92303,-2.90823 3.42093,-3.31439 6.95413,-1.13075 l 3.20147,1.97862 5.93579,-6.0279 5.93578,-6.02791 -3,-2.59299 c -12.81023,-11.07226 -15.90265,-14.42287 -14.85276,-16.0929 0.83355,-1.3259 2.87903,-1.75608 9.45816,-1.98911 11.78171,-0.41731 21.58942,2.99149 34.86222,12.11681 6.29882,4.33056 20.03238,18.04022 20.03238,19.99751 0,1.70432 -13.52248,15.683007 -15.17118,15.683007 -0.52953,0 -3.64672,-2.3625 -6.92709,-5.25 -3.28037,-2.8875 -6.37585,-5.25 -6.87885,-5.25 -1.78806,0 -21.84528,20.65625 -22.46856,23.1396 -0.34877,1.38962 -1.67372,4.17668 -2.94433,6.19349 -1.89262,3.00409 -2.43388,5.65523 -2.99446,14.66691 -0.37634,6.05 -1.11226,15.5 -1.63539,21 -0.52313,5.5 -1.65103,17.875 -2.50645,27.5000001 -2.10384,23.6721099 -8.31044,87.4747999 -9.02254,92.7499999 l -0.5737,4.25 45.06128,0 45.06127,0 0.0277,-29.25 z m 93.01209,-164.202007 c -2.08872,-2.51675 -0.28068,-4.91663 7.00502,-9.29799 7.67992,-4.61844 10.3324,-5.18521 11.82067,-2.52582 1.51901,2.71432 -0.28281,4.84728 -7.80683,9.24155 -7.52187,4.393 -9.19137,4.784247 -11.01886,2.58226 z m -111.76215,-213.79799 c -4.72721,-6.10934 0.95522,-13.44832 7.22961,-9.33718 2.74445,1.79823 3.48731,7.19258 1.29271,9.38718 -1.5761,1.5761 -7.29004,1.54257 -8.52232,-0.05 z m 25.23975,-8.37543 c -2.4915,-2.4915 -1.58635,-7.49435 1.68674,-9.32284 2.4952,-1.39392 2.92023,-1.3495 5.5,0.57478 3.44002,2.56596 3.94703,4.7307 1.85557,7.92266 -1.89762,2.89613 -6.54716,3.32055 -9.04231,0.8254 z m -114.04471,275.244927 9.63801,-8.88049 -5.77429,-2.34685 -5.7743,-2.34685 -3.03107,2.70909 c -1.66709,1.49 -5.39178,4.95017 -8.27709,7.68926 l -5.24602,4.98016 3.71052,3.79992 c 2.04079,2.08996 4.02681,3.6821 4.41338,3.53809 0.38656,-0.14401 5.03995,-4.25805 10.34086,-9.14233 z m 156.17842,-18.8695 c -0.3067,-13.3375 -0.57868,-32.586767 -0.60439,-42.776147 l -0.0468,-18.52616 -26.25,-8.26586 c -14.4375,-4.54623 -26.5635,-8.24696 -26.94667,-8.22385 -0.38316,0.0231 -0.48822,1.95452 -0.23345,4.29202 0.25476,2.3375 1.81075,23.11749 3.45776,46.177767 1.64701,23.06027 3.15199,42.0852 3.34442,42.27762 0.542,0.542 42.82561,9.09632 45.48233,9.20145 l 2.3544,0.0932 -0.55765,-24.25 z m -105.16766,-38.737107 -4.01365,-4.01365 -5.98492,5.93274 c -3.2917,3.26301 -5.97141,6.300677 -5.95491,6.750377 0.0165,0.4497 0.90145,3.15714 1.96656,6.01652 l 1.93657,5.19889 8.032,-7.93562 8.03199,-7.935607 z m 26.86648,7.140767 3.75585,-3.846347 -7.89539,-7.40365 c -4.34246,-4.07201 -10.77877,-9.1056 -14.30291,-11.18574 -7.09936,-4.19046 -18.42819,-8.04235 -22.18126,-7.54181 -2.0838,0.27791 0.21201,2.69202 16.1726,17.00599 10.23063,9.17516 19.07232,16.712657 19.6482,16.749997 0.57588,0.0374 2.73719,-1.66295 4.80291,-3.77844 z m 767.57724,114.68661 c -43.685,-18.7212699 -79.9897,-34.49913 -80.6772,-35.06192 -1.9888,-1.62805 -1.5165,-5.55898 0.7545,-6.27978 1.3787,-0.43757 23.4684,8.57484 70.75,28.8653701 37.81,16.2258699 72.458,31.0897699 76.9955,33.0308899 l 8.25,3.52931 -0.025,-5.21207 -0.025,-5.21207 -45.7249,-18.90205 c -25.1486,-10.39611986 -54.9498,-22.71856 -66.2248,-27.3832 -11.275,-4.66463 -21.124,-9.06132 -21.8867,-9.77041 -1.7356,-1.61358 -0.7519,-4.44434 1.5445,-4.44434 1.8574,0 7.798,2.41104 81.3422,33.0137501 26.675,11.0998099 49.92,20.6500199 51.6557,21.2226799 2.7852,0.919 3.9004,0.62772 9.5,-2.48127 3.4893,-1.93737 15.0904,-7.91028 25.7802,-13.2731299 l 19.4359,-9.75064 -9.4359,-3.7197 c -5.1898,-2.04584 -16.6359,-6.5379101 -25.4359,-9.9823801 -33.5435,-13.1295 -112.1969,-44.17893 -116.5,-45.98986 -5.3438,-2.24889 -6.9625,-4.28879 -5.3877,-6.78945 0.6061,-0.9625 1.7591,-1.87966 2.5621,-2.03813 0.8031,-0.15847 20.1048,7.10568 42.8929,16.14256 63.2731,25.09179 88.9702,35.24775 105.9327,41.86658 8.525,3.3264901 16.0476,6.4803601 16.717,7.0086001 1.7816,1.40611 0.5328,19.6769899 -1.5051,22.0203899 -0.837,0.9625 -1.8249,1.75 -2.1952,1.75 -0.3704,0 -9.6381,4.85974 -20.595,10.79942 -10.957,5.93967 -24.2295,13.11243 -29.4945,15.93946 l -9.5728,5.14006 -79.4272,-34.03867 z m 109.1362,9.06813 25.9366,-14.09161 0,-3.9083899 c 0,-2.14962 -0.2726,-3.9084 -0.6057,-3.9084 -0.3332,0 -12.2501,5.9625 -26.4821,13.2499999 l -25.8763,13.25 -0.018,4.75 c -0.01,2.6125 0.2355,4.75 0.5454,4.75 0.3099,0 12.2349,-6.34122 26.5,-14.0916 z m -693.0634,9.22012 c -13.475,-5.88372 -34.78721,-15.15024 -47.36048,-20.59227 -25.15828,-10.8891299 -27.75109,-12.40509986 -26.03739,-15.2235999 0.60617,-0.99696 1.95617,-1.93989 3,-2.09541 1.04383,-0.15552 14.49787,5.16913004 29.89787,11.83254 15.4,6.6634199 35.71162,15.4531599 45.13693,19.5327599 9.42532,4.0796 17.60961,7.41746 18.18732,7.41746 1.13572,0 1.36441,-7.0767 0.28513,-8.82302 -0.36201,-0.58574 -7.17221,-3.82874 -15.13379,-7.20668 -26.51485,-11.2497299 -39.3086,-16.6465299 -59.22559,-24.9831899 -17.75291,-7.4308401 -19.75,-8.5054201 -19.75,-10.6269401 0,-4.37046 -1.91275,-5.02196 53,18.05232014 17.875,7.51105996 35.16484,14.82589986 38.42187,16.25519986 4.3632,1.91473 6.34832,2.33241 7.54203,1.58692 0.89109,-0.55649 12.55243,-6.50275 25.91409,-13.2139099 13.36167,-6.71116 24.14183,-12.35421 23.95593,-12.54011 -0.1859,-0.1859 -18.11208,-7.3806801 -39.83596,-15.9884001 -72.73269,-28.81908 -77.48935,-30.77364 -79.48408,-32.66089 -1.56339,-1.47914 -1.75342,-2.24861 -0.89282,-3.6152 0.60132,-0.95485 1.86735,-1.88829 2.81341,-2.07431 1.52897,-0.30063 117.81191,45.29052 126.56553,49.62265 l 3.5,1.7321401 -0.33279,9.99171004 c -0.19412,5.82837996 -0.81913,10.48550986 -1.5,11.17679986 -0.64196,0.6518 -9.04221,5.42793 -18.66721,10.61364 -9.625,5.1857 -23.00658,12.41491 -29.73684,16.06491 -6.73026,3.65 -13.03026,6.59725 -14,6.54946 -0.96974,-0.0478 -12.78816,-4.90086 -26.26316,-10.78458 z m 55.62742,-13.06141 25.87258,-13.9328799 0.82665,-4.15713 c 0.45466,-2.28641996 0.6582,-4.32559 0.45231,-4.53147 -0.20589,-0.20589 -12.36394,5.77222 -27.01788,13.2846899 l -26.64354,13.65903 0.0372,4.80532 c 0.0205,2.64293 0.16386,4.80533 0.31865,4.80533 0.15479,0 11.92409,-6.2698 26.15401,-13.93289 z m 57.9115,-202.113777 c -60.66251,-9.50618 -92.27808,-75.19843 -61.19919,-127.1624 21.59355,-36.10446 67.72757,-50.70412 107.4645,-34.00844 18.59608,7.81325 35.64977,24.54969 43.94089,43.12348 4.56397,10.2242 6.39353,18.13842 6.95694,30.09403 1.17293,24.88942 -7.0315,46.23949 -24.36452,63.40288 -10.9366,10.82956 -23.88226,18.24703 -39.30613,22.5212 -8.57313,2.37573 -24.94966,3.36796 -33.49249,2.02925 z m 22.85711,-8.00215 c 16.5028,-2.29533 31.12976,-9.49197 43.43825,-21.37213 16.32343,-15.75539 23.99632,-35.27855 22.92143,-58.3221 -2.23994,-48.01975 -49.29763,-82.2668 -96.46435,-70.20359 -23.83011,6.09472 -43.25382,22.91679 -52.88729,45.8035 -5.14938,12.23364 -6.65426,29.1189 -3.82656,42.9353 3.2841,16.04643 9.32527,27.10543 21.42249,39.21614 11.54707,11.55994 24.89981,18.54028 41.0602,21.46482 9.36155,1.69416 14.82128,1.80141 24.33583,0.47806 z m -15.06349,-36.56641 c -1.53546,-2.34341 -1.56037,-2.88909 -0.23963,-5.25 2.83456,-5.06702 8.90709,-3.0889 8.90709,2.90147 0,5.10713 -5.82567,6.68565 -8.66746,2.34853 z m 0.0948,-18.85525 c -1.32106,-2.01619 -1.49447,-3.99298 -0.94301,-10.75 0.72096,-8.83328 1.84878,-10.77952 6.24664,-10.77952 3.80649,0 9.90719,-3.67847 12.16826,-7.33695 6.11904,-9.90081 -1.58395,-23.09041 -13.38111,-22.91206 -8.08517,0.12222 -13.83609,5.13165 -15.12181,13.17208 -0.82002,5.12815 -4.07817,7.85274 -7.31744,6.11914 -4.22319,-2.26018 -3.59348,-10.09855 1.45357,-18.09359 7.79331,-12.34541 26.12301,-14.92713 37.40671,-5.26871 14.99698,12.83686 10.43715,36.53612 -8.25509,42.90497 -3.03864,1.03532 -3.19805,1.35345 -3.49039,6.96541 -0.16848,3.23429 -0.78608,6.4586 -1.37245,7.16512 -1.76295,2.12424 -5.63151,1.50376 -7.39383,-1.18589 z m -122.92734,-79.9174 c -9.91987,-4.48751 -11.78231,-17.73419 -3.47872,-24.74246 8.17071,-6.89611 21.41796,-2.00278 23.41636,8.64965 0.82329,4.38851 -2.47225,11.86444 -6.43764,14.60376 -3.51546,2.4285 -9.87314,3.12976 -13.5,1.48905 z m 10.04545,-9.06667 c 2.92808,-2.92807 3.11149,-5.5126 0.61038,-8.60133 -3.7134,-4.58586 -12.15583,-1.66047 -12.15583,4.21212 0,2.56848 4.37288,6.84376 7,6.84376 1.15,0 3.19545,-1.10455 4.54545,-2.45455 z m -78.62237,-6.46853 c -4.9195,-4.9195 -3.83805,-12.51817 2.22805,-15.65507 7.78473,-4.02564 17.01395,3.75337 13.96559,11.77115 -2.75044,7.2342 -10.89093,9.18664 -16.19364,3.88392 z m 9.07692,-6.71529 c 0,-1.98249 -3.02038,-2.94669 -4.04372,-1.29089 -1.07634,1.74156 0.72574,3.98851 2.61683,3.26283 0.78479,-0.30115 1.42689,-1.18853 1.42689,-1.97194 z"
       id="path3900"
       inkscape:connector-curvature="0"
       clip-path="url(#clipPath3979)"
       sodipodi:nodetypes="cssssssssssscsssssssssscsssccsssssssssssscsssssssssssscscsscscsscsscscscsssscsscscscsccccsscsssssscscsssssssssscssccsscssscsssssccscsscccssscsscccscssscsssssscssscscsscssssscscssssssssscsssssscsscscssssssssscssssscsssscccsscscssscsssssssssssssscssscsccsssscscssssscssssscsssssscsscsscscscscsssscscccccscscssssccssscscsssssccssssssscsssssssccssssscscscscscscscscscscscscsscsscscscccccssssssssssscccsssssssssssssscsccsssssssscsssscscscsssscsssssssccsccccscsccccsscccccscssscccccccccccccccscccsscccsscsscscssscssssscssscssssssssssssssscsssssscssssssssssssssssscssssssscsssssccscccccssscssscssssscsssssscssssscssscscsssssssssscccccccsssscsscssssssssssssssssssssscccsssssssssssssscccccssssssssssssssscccsscssscscscsscccccccsssccccscsssscscscsscccsssssccscsssccssccssscccccsssccsccssssssssssssssssssssscsssscsccscsccsccssssssssssssssssssssscsssssssssssccssssssssssssssssss" />
  </g>
</svg>
