<?xml version="1.0" encoding="UTF-8" standalone="no"?>
<!-- Created with Inkscape (http://www.inkscape.org/) -->

<svg
   xmlns:dc="http://purl.org/dc/elements/1.1/"
   xmlns:cc="http://creativecommons.org/ns#"
   xmlns:rdf="http://www.w3.org/1999/02/22-rdf-syntax-ns#"
   xmlns:svg="http://www.w3.org/2000/svg"
   xmlns="http://www.w3.org/2000/svg"
   xmlns:sodipodi="http://sodipodi.sourceforge.net/DTD/sodipodi-0.dtd"
   xmlns:inkscape="http://www.inkscape.org/namespaces/inkscape"
   width="734.28571"
   height="554.28571"
   id="svg3939"
   version="1.1"
   inkscape:version="0.48.4 r9939"
   sodipodi:docname="New document 14">
  <defs
     id="defs3941">
    <clipPath
       clipPathUnits="userSpaceOnUse"
       id="clipPath3922">
      <rect
         style="fill:#000000;fill-opacity:1;stroke:#000000;stroke-width:3;stroke-miterlimit:4;stroke-opacity:1;stroke-dasharray:none"
         id="rect3924"
         width="734.28571"
         height="554.28571"
         x="-1671.4286"
         y="-687.63782" />
    </clipPath>
  </defs>
  <sodipodi:namedview
     id="base"
     pagecolor="#ffffff"
     bordercolor="#666666"
     borderopacity="1.0"
     inkscape:pageopacity="0.0"
     inkscape:pageshadow="2"
     inkscape:zoom="0.35"
     inkscape:cx="367.14289"
     inkscape:cy="277.14286"
     inkscape:document-units="px"
     inkscape:current-layer="layer1"
     showgrid="false"
     fit-margin-top="0"
     fit-margin-left="0"
     fit-margin-right="0"
     fit-margin-bottom="0"
     inkscape:window-width="1920"
     inkscape:window-height="1056"
     inkscape:window-x="0"
     inkscape:window-y="24"
     inkscape:window-maximized="1" />
  <metadata
     id="metadata3944">
    <rdf:RDF>
      <cc:Work
         rdf:about="">
        <dc:format>image/svg+xml</dc:format>
        <dc:type
           rdf:resource="http://purl.org/dc/dcmitype/StillImage" />
        <dc:title></dc:title>
      </cc:Work>
    </rdf:RDF>
  </metadata>
  <g
     inkscape:label="Layer 1"
     inkscape:groupmode="layer"
     id="layer1"
     transform="translate(-7.8571111,-255.21933)">
    <path
       transform="translate(1679.2857,942.85715)"
       style="fill:#000000"
       d="m 11.865731,-81.481914 c -0.1731,-0.14578 -90.7648,-0.55233 -201.314801,-0.90345 -110.55,-0.35111 -230.475,-0.85917 -266.5,-1.12901 -36.025,-0.26985 -139.75,-0.71954 -230.5,-0.99933 -176.5214,-0.54422 -335.31873,-1.20263 -482.00003,-1.9985 -50.05,-0.27157 -161.65,-0.72473 -248,-1.00703 -250.727,-0.8197 -327.0425,-1.42066 -332.8117,-2.62077 -15.4334,-3.21047 -30.5926,-15.821116 -37.7134,-31.373146 -5.2958,-11.56598 -5.3033,-11.72104 -4.6186,-95 0.3482,-42.35 0.8754,-154.85 1.1714,-250 0.6126,-196.86392 0.8231,-212.68758 2.9339,-220.49244 4.8733,-18.02025 18.9039,-33.17192 36.2722,-39.17063 l 6.7662,-2.33693 61.5,0.0222 c 100.1546,0.0362 492.6957,1.50803 529,1.98349 18.425,0.24131 112.25,0.6824 208.50004,0.98021 96.25,0.29781 198.39999,0.75428 226.99999,1.01438 28.6,0.26009 138.175,0.70719 243.5,0.99354 105.325,0.28635 221.65,0.73929 258.5,1.00654 36.85,0.26724 142.375001,0.73593 234.500001,1.04151 180.568899,0.59897 203.701199,0.88291 210.843099,2.58802 20.2073,4.82445 37.1279,21.68516 41.7461,41.59839 1.401,6.04122 1.4998,33.74209 0.967,271.25002 -0.3264,145.48692 -0.8333,268.23128 -1.1265,272.76523 -0.5267,8.14605 -2.5471,15.70718 -5.9704,22.34362 -7.0525,13.672106 -22.5996,25.630076 -37.476,28.824436 -4.0345,0.86633 -33.143,1.13875 -110.1685,1.03106 -57.576799,-0.0805 -104.826799,-0.26565 -104.999999,-0.41143 z m 221.964999,-5.72328 c 18.1635,-7.78642 30.4918,-23.380486 33.0524,-41.807956 1.4916,-10.73468 2.6535,-538.50136 1.202,-546 -1.6269,-8.4048 -7.053,-18.8262 -13.3354,-25.61195 -5.8589,-6.32833 -13.3296,-10.95705 -23.4235,-14.51284 -7.3831,-2.60084 -4.9036,-2.56428 -224.775299,-3.31472 -95.15,-0.32475 -198.425001,-0.80246 -229.500001,-1.06158 -31.075,-0.25911 -138.175,-0.7076 -238,-0.99663 -99.825,-0.28903 -216.375,-0.73958 -259,-1.00121 -42.625,-0.26164 -141.39999,-0.71249 -219.49999,-1.00191 -78.10004,-0.28941 -176.42504,-0.7384 -218.50004,-0.99775 -96.8938,-0.59726 -353.6088,-1.55125 -486,-1.80606 l -101.5,-0.19535 -7.3384,3.22976 c -13.2926,5.85027 -21.9394,13.91172 -28.1219,26.21833 -3.9021,7.76731 -5.0147,14.08412 -5.5397,31.4528 -0.251,8.30451 -0.6938,93.84911 -0.9838,190.09911 -0.2901,96.25 -0.8119,211.225 -1.1595,255.5 -0.5662,72.09907 -0.464,81.1496 0.9784,86.72467 5.0177,19.39295 20.639,35.123566 38.9558,39.228446 5.8778,1.31725 79.2843,1.90568 317.7091,2.54675 106.975,0.28763 220.375,0.73941 252,1.00396 31.625,0.26455 130.85,0.70889 220.50004,0.98741 162.6615,0.50536 299.90999,1.07859 480.49999,2.00684 52.525,0.26999 183.025,0.77822 290,1.12941 106.975001,0.35119 194.630701,0.74683 194.790301,0.8792 0.1597,0.13236 49.8847,0.18501 110.499999,0.11699 l 110.2097,-0.12368 6.2798,-2.69204 z m -779.7938,-44.631516 c -4.6828,-2.02204 -9.0703,-4.0405 -9.75,-4.48546 -0.9506,-0.6222 -1.236,-11.05549 -1.236,-45.1819 l 0,-44.37289 2.75,-1.88679 c 1.5125,-1.03773 6.35,-3.74409 10.75,-6.01414 23.2374,-11.98861 46.6331,-25.01919 46.3367,-25.80792 -0.1852,-0.49295 -9.5617,-4.54607 -20.8367,-9.00695 -57.0248,-22.56146 -88.0077,-34.79268 -102.5,-40.46426 -8.8,-3.44388 -16.5679,-6.70247 -17.262,-7.24131 -0.9844,-0.76411 -1.2044,-9.14757 -1,-38.09726 l 0.262,-37.11756 8,-4.21569 c 4.4,-2.31864 8.6581,-4.23114 9.4625,-4.25 1.2993,-0.0305 65.2307,24.06721 179.5375,67.67311 20.9,7.97297 43.85,16.71531 51,19.42744 7.15,2.71212 14.0125,5.35664 15.25,5.8767 2.6582,1.1171 2.4568,-2.56725 2.4774,45.33154 0.012,28.26579 -0.2439,35.07555 -1.3562,36.0745 -0.7542,0.67727 -6.7712,4.42229 -13.3712,8.32225 -13.4476,7.94622 -33.6603,20.06491 -101.8718,61.0779 -25.7795,15.50024 -47.1545,28.14915 -47.5,28.10869 -0.3455,-0.0405 -4.4595,-1.72797 -9.1422,-3.75 z m 6.0642,-14.42644 c 0.028,-4.5375 0.2745,-22.01797 0.5488,-38.8455 l 0.4986,-30.59549 -4.6095,-1.76042 c -2.5353,-0.96823 -4.7986,-1.57138 -5.0297,-1.34035 -0.4673,0.46737 -0.7158,76.87563 -0.2514,77.31847 0.4788,0.45653 7.2293,3.30321 8.043,3.39172 0.4125,0.0449 0.7726,-3.63093 0.8002,-8.16843 z m 47.9542,-17.32373 c 21.7226,-13.10376 55.6956,-33.56098 75.4956,-45.46048 l 36,-21.63546 0.1684,-33.16517 c 0.1152,-22.67224 -0.1648,-33.16516 -0.885,-33.16516 -0.5794,0 -10.1052,4.88965 -21.1684,10.86589 -11.0633,5.97624 -34.74,18.63822 -52.615,28.13773 -17.875,9.49951 -34.75,18.4929 -37.5,19.98532 -16.4337,8.9185 -33.524,18.06999 -36.8604,19.73792 l -3.8605,1.92989 -0.4483,38.80116 c -0.367,31.76393 -0.2101,38.70977 0.8648,38.29726 0.7222,-0.27714 19.0862,-11.22515 40.8088,-24.3289 z m -6.0505,-78.09991 c 20.1004,-10.76894 39.6961,-21.26539 43.5461,-23.32545 3.85,-2.06006 14.425,-7.71831 23.5,-12.57389 9.075,-4.85558 20.1,-10.78025 24.5,-13.16594 4.4,-2.3857 10.8125,-5.76699 14.25,-7.51398 3.4375,-1.747 6.25,-3.45014 6.25,-3.78476 0,-0.57718 -48.3049,-19.23877 -125.5,-48.48427 -19.25,-7.2929 -48.275,-18.30715 -64.5,-24.4761 -48.6497,-18.49726 -44.1057,-17.02644 -47.3504,-15.32635 -1.5545,0.81449 -2.6741,1.62403 -2.488,1.79898 0.1861,0.17494 20.8134,8.06611 45.8384,17.53593 47.8748,18.1165 104.6172,39.6918 146.5,55.70398 13.75,5.25676 25.7875,10.24123 26.75,11.0766 2.0463,1.77607 2.2775,4.53802 0.5,5.97336 -1.0199,0.82355 -41.5699,22.55812 -85.75,45.96148 -15.6773,8.30465 -51.496,27.54549 -51.8663,27.86112 -0.7719,0.65794 6.4398,3.22531 7.8202,2.784 0.7997,-0.25564 17.8997,-9.27576 38,-20.04471 z m 26.094,-30.1148 c 6.9013,-3.69136 22.294,-11.88384 34.206,-18.20552 11.912,-6.32168 21.3405,-11.78022 20.9521,-12.13007 -0.3883,-0.34986 -10.381,-4.33094 -22.206,-8.84684 -11.825,-4.5159 -24.2,-9.25696 -27.5,-10.53569 -8.0858,-3.13321 -42.8343,-16.33954 -71,-26.98394 -25.3994,-9.59893 -51.2318,-19.40484 -76.7358,-29.12869 -9.2046,-3.50945 -16.8962,-6.38081 -17.0922,-6.38081 -0.1961,0 -0.3851,13.98036 -0.4202,31.06747 -0.057,28.04527 0.097,31.12535 1.5922,31.66245 5.1126,1.83688 111.1117,43.7196 128.656,50.83496 7.15,2.89979 13.9,5.29167 15,5.31529 1.1,0.0236 7.6466,-2.97726 14.5479,-6.66861 z m -710.54793,135.49134 -10,-4.25888 -0.2602,-44.64662 -0.2602,-44.64663 2.7602,-1.90356 c 1.5181,-1.04696 14.2352,-7.9147 28.2602,-15.26164 14.025,-7.34695 26.7677,-14.12021 28.317,-15.05168 l 2.817,-1.6936 -18.317,-7.24476 c -112.7984,-44.61419 -120.998,-47.90418 -123.5792,-49.58478 l -2.2623,-1.47296 0.2623,-36.71889 0.2622,-36.7189 8,-4.18248 c 4.4,-2.30037 8.905,-4.21287 10.011,-4.25 2.087,-0.0701 4.1933,0.70436 64.489,23.71138 61.9085,23.62236 100.9499,38.43249 140,53.10812 20.625,7.75118 39.075,14.8858 41,15.8547 l 3.5,1.76164 0.2615,39.08296 c 0.2426,36.27081 0.1347,39.19151 -1.5,40.59153 -0.9688,0.82971 -10.7615,6.90238 -21.7615,13.49481 -85.2978,51.12003 -139.3248,83.31821 -140.55,83.76287 -0.7975,0.28944 -5.95,-1.39025 -11.45,-3.73263 z m 7.5,-44.59432 0,-38.89142 -4.0202,-1.60858 c -2.2111,-0.88472 -4.4611,-1.60858 -5,-1.60858 -0.6227,0 -0.9798,14.04436 -0.9798,38.54101 l 0,38.541 4.25,1.88836 c 2.3375,1.03859 4.5875,1.92014 5,1.95899 0.4125,0.0389 0.75,-17.4305 0.75,-38.82078 z m 83.8145,-8.10858 76.0907,-45.5 0.047,-33.35699 c 0.045,-31.36219 -0.057,-33.31787 -1.7026,-32.70283 -1.6394,0.61282 -61.2693,32.0151 -91.25,48.05405 -13.7216,7.34074 -24.0304,12.82108 -39.75,21.13176 -4.8125,2.54429 -11.5625,6.16631 -15,8.04894 l -6.25,3.42295 0,38.53439 c 0,21.19392 0.3879,38.3844 0.8619,38.20106 0.474,-0.18333 35.1027,-20.80833 76.9526,-45.83333 z m -29.1945,-63.59656 c 28.534,-15.17811 62.455,-33.21862 75.38,-40.09001 12.925,-6.8714 23.8295,-12.80485 24.2321,-13.18546 0.4026,-0.38061 -5.6724,-3.09886 -13.5,-6.04056 -18.7891,-7.06114 -92.1038,-34.8309 -111.7321,-42.32129 -32.5222,-12.41088 -50.149,-19.12129 -69,-26.26788 -10.725,-4.06596 -24.225,-9.22058 -30,-11.45472 -9.0841,-3.51435 -10.8708,-3.90963 -13.25,-2.93148 -1.5125,0.62183 -2.7418,1.41351 -2.7319,1.75928 0.01,0.34577 6.8724,3.25335 15.25,6.46129 8.3776,3.20793 18.6069,7.12688 22.7319,8.70876 15.0101,5.75615 50.9861,19.41687 71,26.95996 11.275,4.24946 29.95,11.34972 41.5,15.77838 11.55,4.42865 28.2,10.75221 37,14.05235 29.4632,11.04917 32.5246,12.34536 33.5111,14.18863 0.54,1.00894 0.7295,2.49175 0.4212,3.29515 -0.3083,0.80339 -29.6691,16.78746 -65.2464,35.52015 -35.5772,18.73269 -67.0823,35.37128 -70.0114,36.97465 l -5.3255,2.91522 3.8255,1.58554 c 2.1041,0.87205 3.8795,1.60873 3.9455,1.63707 0.066,0.0283 23.4659,-12.36692 52,-27.54503 z m 31.38,-32.92414 c 35.535,-18.58711 37.9528,-19.92848 37.2056,-20.64113 -0.388,-0.37014 -15.7806,-6.36586 -34.2056,-13.32383 -18.425,-6.95797 -42.725,-16.18633 -54,-20.50748 -11.275,-4.32114 -36.025,-13.75675 -55,-20.96804 -18.975,-7.21128 -35.5723,-13.56272 -36.8831,-14.11432 -4.793,-2.01711 -33.9141,-12.9245 -34.5064,-12.9245 -0.3358,0 -0.6105,13.87984 -0.6105,30.84408 l 0,30.84408 32.75,13.06924 c 18.0125,7.18808 49.4,19.6368 69.75,27.66383 20.35,8.02704 38.35,15.20413 40,15.94911 2.7478,1.24063 3.4204,1.12428 8,-1.38378 2.75,-1.50605 15.125,-8.03432 27.5,-14.50726 z m 1006.000031,122.89853 c -15.9395,-3.12858 -28.460801,-8.99975 -35.845101,-16.80759 -4.1016,-4.3368 -6.3095,-5.717 -12.8055,-8.00495 -12.8224,-4.51616 -19.2637,-8.40964 -27.3494,-16.53164 -14.0937,-14.1569 -18.989,-29.03201 -20.5327,-62.39106 -1.2301,-26.58173 -2.5425,-39.6827 -4.9106,-49.01777 -1.3356,-5.26521 -2.872,-10.36589 -3.4143,-11.33483 -0.8788,-1.57039 -1.0411,-1.49175 -1.4946,0.72414 -0.2797,1.36723 -1.2492,9.01087 -2.1544,16.98587 -2.8301,24.93454 -7.9627,56.96217 -13.1409,82 -1.4218,6.875 -2.6453,12.99433 -2.7188,13.5985 -0.074,0.60418 10.6663,9.9512 23.8663,20.77116 23.1327,18.96174 26.2763,22.25401 23.7048,24.82557 -0.6047,0.60463 -28.9027,0.9149 -75.8347,0.83148 -101.5023,-0.18042 -109.3157,-0.32893 -110.436,-2.09915 -0.5167,-0.81647 -0.91,-33.33072 -0.9188,-75.95679 l -0.015,-74.52924 -7.7583,-1.22076 c -4.2674,-0.67143 -8.5925,-1.22077 -9.6115,-1.22077 -2.0546,0 -4.4452,-1.91748 -29.0753,-23.32068 -9.3804,-8.15138 -17.1797,-15.57638 -17.3319,-16.5 -0.1522,-0.92363 1.5353,-7.05824 3.75,-13.63248 2.2147,-6.57424 4.0267,-12.58488 4.0267,-13.35698 0,-0.77209 -4.1625,-5.78969 -9.25,-11.15022 -19.4301,-20.47279 -24.324,-38.74091 -15.3673,-57.36278 6.621,-13.76555 21.0438,-25.88328 45.1173,-37.90668 18.0684,-9.02414 49.4456,-19.99542 68.3567,-23.90146 6.1001,-1.25996 6.1536,-1.30075 5.6587,-4.32034 -0.2748,-1.67661 -1.4143,-10.24838 -2.5322,-19.04838 -3.0096,-23.69035 -2.5679,-22.20411 -6.8269,-22.97051 -6.867,-1.23569 -11.2283,-2.86688 -13.6392,-5.10124 -2.1816,-2.02185 -2.311,-2.59744 -1.3667,-6.08075 1.8487,-6.81987 8.6816,-19.67042 14.0093,-26.3475 10.9542,-13.72839 25.7099,-23.79368 40.3004,-27.49006 13.01,-3.29596 29.0338,-1.33951 42.5399,5.19394 9.2177,4.45901 20.5186,15.2274 24.0158,22.88414 2.0278,4.43989 2.8436,5.22756 6.404,6.18342 5.001,1.34261 12.0103,7.18541 14.4989,12.08601 2.1369,4.20779 4.3604,14.08068 3.8978,17.30626 -0.2691,1.87603 1.7105,3.41381 13.2227,10.27133 35.1441,20.93447 56.4283,39.77386 67.3035,59.57277 16.298201,29.67178 1.7979,57.54551 -38.2166,73.46323 -8.7078,3.46396 -30.2326,9.50933 -33.9828,9.54427 -4.0264,0.0375 -4.1613,0.71384 -5.6797,28.48469 -0.3307,6.05 -1.2456,18.55206 -2.0329,27.78236 l -1.4316,16.78235 2.6234,5.17707 c 6.7497,13.31981 9.7732,27.61788 10.8393,51.25822 1.3656,30.28066 2.1767,38.72276 4.6975,48.89304 3.7487,15.1246 11.3271,26.5051 22.5118,33.8062 5.4276,3.54301 18.0727,9.80076 19.8045,9.80076 0.189,0 0.3148,-1.9128 0.2794,-4.25067 -0.1198,-7.92416 4.6419,-13.353 15.245,-17.38108 6.5296,-2.48054 31.940501,-2.52425 41.000001,-0.0705 8.6532,2.34367 14.8491,6.29354 17.2957,11.02587 3.9318,7.60521 -0.759,14.45071 -12.9411,18.88562 -6.9242,2.52073 -28.36,3.59696 -39.854601,2.00099 -3.85,-0.53455 -7.1351,-0.85288 -7.3003,-0.70741 -1.1286,0.994 13.5706,8.99219 20.671501,11.24787 7.6271,2.42284 10.138,2.73512 21.6288,2.69 23.9957,-0.0942 43.3732,-7.29743 57.5895,-21.40775 9.942,-9.86784 13.12350002,-16.26055 13.71660002,-27.56081 0.8583,-16.35124 -3.97190002,-24.91841 -27.03870002,-47.95864 -18.9974,-18.97545 -25.1313,-27.31818 -29.6062,-40.26745 -4.0548,-11.73374 -2.2948,-26.73766 4.3759,-37.30486 1.3546,-2.14578 2.4629,-4.13536 2.4629,-4.42129 0,-0.28593 -6.7179,-0.51987 -14.9286,-0.51987 -12.305,0 -15.2077,-0.27911 -16.5168,-1.58821 -1.4233,-1.42335 -1.5783,-9.06734 -1.493,-73.64094 0.057,-43.08631 0.4789,-73.06223 1.0498,-74.56382 l 0.9547,-2.5111 121.717,0.71238 c 91.945399,0.53813 122.005499,1.00336 122.896799,1.90203 0.8717,0.87886 1.3655,20.32075 1.8901,74.41845 0.5967,61.53782 0.4899,73.4941 -0.6691,74.89067 -1.2766,1.53818 -9.0466,1.60768 -104.390099,0.93364 l -103.0108,-0.72824 -3.2617,5.40541 c -5.5967,9.27519 -7.5068,16.13774 -7.0335,25.26973 0.7594,14.65278 7.1131,24.81662 30.1775,48.27401 24.4673,24.88415 28.1177,31.34702 28.1177,49.78052 0,10.83056 -0.079,11.21401 -3.8917,18.92618 -10.9285,22.10477 -38.2065,36.88058 -70.1083,37.97583 -6.6,0.2266 -13.125,0.19118 -14.5,-0.0787 z m -182.757601,-74.49244 c 0.2402,-57.95687 0.3761,-62.24242 2.0076,-63.27141 1.2763,-0.805 2.2237,-0.805 3.5,0 1.6315,1.02898 1.7674,5.31327 2.0076,63.24489 l 0.2575,62.14113 41.7068,0 c 35.1214,0 41.4755,-0.21372 40.2424,-1.35354 -0.8054,-0.74445 -10.1268,-8.42143 -20.7143,-17.05996 -10.5875,-8.63852 -19.25,-16.28332 -19.25,-16.98844 0,-0.70511 1.3805,-7.76563 3.0678,-15.69004 6.3741,-29.93604 12.3361,-68.49458 15.4891,-100.1734 l 1.6686,-16.76538 -3.2423,-5.3497 c -1.7832,-2.94234 -8.5766,-11.82292 -15.0964,-19.73462 -37.5116,-45.5199 -49.4666,-66.95122 -51.4287,-92.19382 -0.7702,-9.9086 1.2856,-21.21117 5.5288,-30.39695 l 2.8667,-6.20584 -2.1768,-0.69025 c -4.1001,-1.30011 -9.7492,-5.46872 -11.7673,-8.68348 -1.5924,-2.53649 -1.9453,-4.51152 -1.6729,-9.36292 0.2864,-5.10024 0.9788,-7.10248 4.0616,-11.74555 6.9316,-10.43973 17.777,-15.87499 27.0283,-13.54548 5.8205,1.46562 10.0643,-0.36719 13.9694,-6.03314 2.3525,-3.41323 2.1324,-6.27645 -0.6858,-8.92404 -8.6007,-8.07998 -3.7332,-29.89957 8.5967,-38.53571 l 2.2758,-1.59407 -2.3657,-4.45947 c -5.0056,-9.43563 -17.9208,-18.66527 -30.8201,-22.02511 -7.1458,-1.86125 -20.2113,-1.90292 -26.7968,-0.0855 -17.7461,4.89751 -33.3757,18.01911 -42.3999,35.59638 -5.9346,11.55933 -5.9342,11.55253 -0.6848,12.87436 2.4587,0.6191 5.9586,1.13253 7.7775,1.14095 5.5283,0.0256 5.9332,0.79637 7.6808,14.62011 l 1.6264,12.86461 4,0.33595 c 7.4364,0.62457 18.6134,-1.8042 27,-5.8671 10.0329,-4.86045 16.1016,-10.09633 22.0187,-18.99702 4.7089,-7.08311 7.0289,-8.42676 9.4705,-5.48482 1.8245,2.19835 0.6236,5.24379 -5.0107,12.70674 -8.6197,11.41744 -22.0099,20.4525 -35.0041,23.61915 -2.489,0.60658 -8.2782,1.41583 -12.8649,1.79834 l -8.3393,0.69548 0.5615,4.09664 c 0.3088,2.25315 0.8679,7.0876 1.2424,10.74322 0.7776,7.59015 0.4036,8.05214 -7.5741,9.35745 -15.307,2.5045 -50.9717,14.56851 -69.5,23.50921 -43.883,21.17537 -56.669,45.12986 -38.5491,72.22141 5.221,7.80611 18.4186,21.16039 27.0164,27.33734 4.1608,2.98923 5.0822,4.17217 4.8364,6.2095 -0.5205,4.31334 -3.0279,4.91205 -7.2106,1.72171 -2.132,-1.62617 -4.037,-2.42997 -4.5196,-1.90707 -0.4588,0.49713 -2.1526,5.193 -3.764,10.43526 l -2.9298,9.5314 17.8587,15.33675 c 9.8222,8.43522 18.0116,15.17109 18.1986,14.96861 0.3161,-0.34228 11.5704,-35.05166 20.7089,-63.86815 2.1802,-6.875 4.3839,-13.52183 4.8971,-14.77074 0.8421,-2.04952 -0.7313,-3.90048 -16.1514,-19 -9.3964,-9.20109 -17.4059,-16.85091 -17.799,-16.99958 -0.393,-0.14868 -1.5064,2.24163 -2.4742,5.3118 l -1.7596,5.58212 4.6243,4.07042 c 3.6218,3.18805 4.5584,4.6379 4.3206,6.6882 -0.693,5.97407 -6.0129,3.31285 -20.0939,-10.0518 -3.4321,-3.2575 -3.7343,-3.91613 -2.6912,-5.86513 0.9537,-1.78202 1.7916,-2.09549 4.4488,-1.6643 l 3.2737,0.53126 2.3795,-7.5137 c 2.3721,-7.49059 4.619,-10.15483 7.2622,-8.61082 0.7459,0.43575 10.4343,9.63031 21.5297,20.43235 l 20.1735,19.64009 22.707,0.61111 c 12.4889,0.33612 27.432,0.94808 33.207,1.35992 10.4289,0.74373 10.5021,0.76694 10.8097,3.42904 0.1703,1.47413 -0.8094,5.52413 -2.1771,9 -1.3677,3.47587 -9.2623,24.44843 -17.5437,46.60569 -8.2813,22.15725 -15.53,41.16975 -16.1081,42.25 -1.3201,2.46653 -3.0247,2.46503 -19.9808,-0.0177 -7.425,-1.08716 -14.0625,-1.98602 -14.75,-1.99746 -0.9885,-0.0165 -1.25,14.91994 -1.25,71.4051 l 0,71.42592 36.4924,0.10061 36.4924,0.10062 0.2576,-62.16767 z m -125.7659,-173.02321 c -8.8284,-8.47561 -10.5662,-12.06415 -6.4718,-13.36367 2.3153,-0.73483 4.6144,0.88444 13.7453,9.68088 6.2217,5.99376 7.3351,8.33547 5.05,10.62061 -2.1756,2.17561 -3.7595,1.28392 -12.3235,-6.93782 z m 109.7235,-161.06218 c -1.7932,-1.79324 -1.448,-6.26558 0.6287,-8.14501 3.8164,-3.45378 9.1713,-0.9919 9.1713,4.21644 0,3.56366 -1.6782,5.12857 -5.5,5.12857 -1.705,0 -3.64,-0.54 -4.3,-1.2 z m -18.8739,-6.19591 c -2.424,-2.08503 -2.6583,-2.7528 -1.8057,-5.14642 0.5388,-1.51277 1.7434,-3.22983 2.6768,-3.81568 2.6176,-1.64279 7.0841,0.37298 8.2646,3.72992 0.8763,2.49171 0.6591,3.12734 -1.7879,5.23218 -1.532,1.31775 -3.1852,2.39591 -3.6739,2.39591 -0.4887,0 -2.1419,-1.07816 -3.6739,-2.39591 z m 227.812301,389.03751 c 7.0027,-1.64827 11.8887,-4.43572 13.8263,-7.88778 1.3867,-2.47063 1.3211,-2.82113 -0.9898,-5.28725 -5.319,-5.67639 -19.8447,-9.01765 -35.4749,-8.16013 -17.810501,0.97715 -25.561901,5.09521 -25.679901,13.6428 -0.032,2.31702 0.3463,4.61711 0.8405,5.11132 3.2048,3.20481 37.018201,5.043 47.477801,2.58104 z M -292.46977,-365.78886 c 8.9356,-23.80165 15.9707,-43.43531 15.6336,-43.63037 -0.3371,-0.19506 -13.4848,-0.67886 -29.2172,-1.07511 -27.2722,-0.6869 -28.6387,-0.63426 -29.3414,1.13037 -3.1343,7.87107 -25.284,78.97747 -24.744,79.43469 0.3794,0.32112 11.0397,2.06219 23.6897,3.86903 12.65,1.80685 23.2065,3.47559 23.4588,3.70832 0.2524,0.23273 1.3173,0.29166 2.3664,0.13096 1.5346,-0.23505 5.0844,-8.75433 18.1541,-43.56789 z m 99.3707,-7.47429 c 0.6504,-10.5875 1.4692,-24.98027 1.8197,-31.98394 0.4939,-9.86795 0.9966,-13.03627 2.2338,-14.07727 0.8781,-0.73884 6.0965,-2.14986 11.5965,-3.1356 25.5265,-4.57499 49.3781,-15.65533 60.2245,-27.97754 14.9882,-17.02749 11.6066,-38.11353 -9.7787,-60.97442 -11.4868,-12.2794 -35.1891,-29.8746 -55.1143,-40.9135 l -6.6685,-3.69447 -1.7186,5.25337 c -0.9452,2.88935 -2.5569,6.92294 -3.5815,8.96353 -1.0246,2.04059 -1.8629,3.91177 -1.8629,4.15818 0,0.24641 2.0282,1.72683 4.5072,3.28984 4.9042,3.09215 6.3333,5.62421 4.453,7.88981 -1.7851,2.15083 -4.5129,1.77639 -9.0808,-1.2465 -3.4841,-2.30569 -4.2016,-2.47706 -4.929,-1.17727 -0.4683,0.83668 -2.831,4.21042 -5.2506,7.49719 l -4.3993,5.97595 6.0998,3.34182 c 23.204,12.71263 39.5997,26.84036 39.5997,34.12196 0,5.39942 -10.6618,10.86847 -12.393,6.35707 -1.1315,-2.94859 -0.6143,-4.35048 2.143,-5.80871 l 2.75,-1.45437 -5.1335,-4.96849 c -7.0259,-6.80006 -28.0496,-20.83994 -36.0856,-24.09838 -3.0236,-1.22603 -3.4579,-1.11611 -7.1528,1.81029 -6.3014,4.99076 -16.0624,9.07719 -23.2957,9.75264 -6.4595,0.60319 -6.4742,0.61175 -9.0247,5.2265 -4.4726,8.09269 -6.1477,14.87118 -6.2081,25.12231 -0.139,23.56455 10.0627,44.59615 38.805,80 6.921,8.525 15.3987,19.20664 18.8395,23.73697 3.4407,4.53034 6.5186,8.24284 6.8397,8.25 0.321,0.007 1.1158,-8.64947 1.7662,-19.23697 z m 262.150001,-5.75 0,-24 -13,0 -13,0 0,23.33333 c 0,12.83334 0.3,23.63334 0.6667,24 0.3666,0.36667 6.2166,0.66667 13,0.66667 l 12.3333,0 0,-24 z m 88.999999,-8.95225 0,-32.95226 -16.25,-0.29774 c -8.9375,-0.16376 -61.362499,-0.4533 -116.499999,-0.64342 l -100.25,-0.34568 0,33.09568 0,33.09567 40.5,0 40.5,0 0,-25.87756 c 0,-21.62734 0.2431,-26.0793 1.4801,-27.10589 1.143,-0.94862 8.8286,-1.06412 33.75,-0.50721 17.7484,0.39662 32.6074,0.92083 33.0199,1.16491 0.4125,0.24408 0.75,12.34223 0.75,26.88477 l 0,26.44098 41.499999,0 41.5,0 0,-32.95225 z m -120.999999,7.95225 0,-24 -12.5,0 -12.5,0 0,24 0,24 12.5,0 12.5,0 0,-24 z m 120.159899,-78.72548 c -0.1965,-17.47599 -0.4516,-31.87575 -0.5669,-31.99948 -0.1153,-0.12372 -52.2602,-0.53231 -115.877499,-0.90797 l -115.668,-0.68301 -0.018,32.15245 -0.018,32.15245 86.2439,0.25552 c 47.4341,0.14054 99.747799,0.37905 116.252599,0.53004 l 30.0086,0.27452 -0.3574,-31.77452 z m -80.646999,9.97548 c 3.7493,-9.02728 8.4594,-22.09258 8.4717,-23.5 0.014,-1.57251 1.2832,-1.75 12.5154,-1.75 10.111799,0 12.499999,0.27039 12.499999,1.41526 0,0.77839 2.1807,6.85339 4.8459,13.5 l 4.846,12.08474 -9.2764,0 c -8.8586,0 -9.2908,-0.10133 -9.5959,-2.25 -0.2774,-1.95266 -0.914299,-2.25 -4.819599,-2.25 -3.9053,0 -4.5422,0.29734 -4.8196,2.25 -0.2991,2.10606 -0.8017,2.25 -7.8569,2.25 -6.7888,0 -7.4653,-0.17383 -6.8106,-1.75 z m 20.9303,-10.5 c -0.7839,-2.55 -1.2749,-3.26992 -1.819,-2.66667 -0.2066,0.22917 -0.687,1.42917 -1.0674,2.66667 -0.5676,1.84667 -0.3089,2.25 1.4432,2.25 1.7521,0 2.0108,-0.40333 1.4432,-2.25 z m -132.6405,-3.74838 0.3027,-14.00162 8.9473,0 8.9473,0 0,14 0,14 -9.25,0.002 -9.25,0.002 0.3027,-14.00162 z m 27,0 0.3027,-14.00162 8.77960002,0 8.77949998,0 -0.4481,5.75 -0.4481,5.75 2.9561,-4.02087 c 1.6259,-2.21147 3.1763,-4.68123 3.4453,-5.48835 0.3811,-1.14321 2.4868,-1.47278 9.5293,-1.49141 l 9.0401,-0.0239 -2.5653,3.51227 c -1.4109,1.93175 -3.3782,4.44231 -4.3717,5.57904 -1.7659,2.02035 -1.6856,2.25052 3.5773,10.25 l 5.3838,8.18323 -10.1316,-10e-4 -10.1316,-10e-4 -2.9695,-5.24899 c -3.1405,-5.55115 -4.1284,-4.99655 -3.3271,1.86767 l 0.395,3.38335 -9.04919998,0.002 -9.04920002,0.002 0.3027,-14.00162 z m 48.8875,0.74852 c 0.1046,-7.28758 0.4421,-13.36264 0.75,-13.50014 0.3079,-0.1375 7.2385,-0.25 15.4014,-0.25 l 14.8416,0 0.068,4.48672 c 0.059,3.92581 -0.1451,4.37279 -1.6351,3.57536 -2.2667,-1.2131 -12.6901,-0.84357 -12.3526,0.43792 0.1449,0.55 2.7324,0.96335 5.75,0.91857 l 5.4866,-0.0814 0,3.90697 0,3.90696 -4.25,-0.16827 c -7.2069,-0.28533 -8.2789,-0.11165 -7.0285,1.1387 0.6948,0.69478 3.6245,0.96212 7.7,0.70261 l 6.5785,-0.41889 0,4.2974 0,4.29739 -15.75,1.4e-4 -15.75,1.3e-4 0.1902,-13.25013 z m -280.190201,-42.86177 c 4.1287,-1.1359 14.5,-6.85846 14.5,-8.00068 0,-0.35478 -1.3607,-1.20865 -3.0237,-1.89751 -3.7194,-1.5406 -5.1359,-3.82338 -3.8563,-6.21436 1.2251,-2.28909 3.6234,-2.24338 9.2691,0.17664 l 4.5549,1.95246 3.3586,-4.20246 c 5.6225,-7.03534 8.1436,-11.05352 7.1463,-11.39013 -0.5219,-0.17614 -2.4402,-1.2294 -4.263,-2.34057 -2.6486,-1.6146 -3.251,-2.56766 -3,-4.74603 0.4089,-3.54849 3.7035,-4.07854 8.3416,-1.342 l 3.4465,2.03345 1.1151,-2.08362 c 0.6133,-1.146 2.2112,-5.28986 3.5509,-9.20859 2.2589,-6.60725 2.3123,-7.19763 0.7357,-8.12497 -2.5154,-1.4795 -5.3757,-4.3679 -5.3757,-5.42857 0,-2.12629 3.333,-4.20466 5.7643,-3.59445 2.3908,0.60006 2.4525,0.4898 1.777,-3.17767 -0.9171,-4.97847 -4.3903,-11.14095 -7.6279,-13.53396 -1.4226,-1.0515 -4.4829,-2.16618 -6.8007,-2.47706 -3.6818,-0.49383 -4.5984,-0.20031 -7.255,2.32323 -4.9367,4.68932 -7.2432,10.07982 -7.3039,17.07026 -0.048,5.54203 0.2567,6.5061 2.9462,9.31566 2.567,2.68153 3,3.90409 3,8.46981 0,7.16409 -4.0151,12.87225 -11.9373,16.97081 -5.4964,2.84357 -5.8688,2.89886 -11.5796,1.71933 -7.1777,-1.48253 -10.7665,-0.30737 -16.4655,5.39165 -6.5571,6.5571 -8.6107,13.91639 -5.1232,18.35944 3.4462,4.39035 15.425,6.36809 24.1056,3.97989 z m -1304.51333,332.5956 c -1.418,-1.70867 -1.5245,-0.2678 4.9842,-67.48397 3.535,-36.50673 8.0291,-86.21574 8.0291,-88.80933 0,-1.61819 -5.4359,-0.009 -7.5,2.22024 -6.11,6.59888 -25.5084,24.58909 -26.5138,24.58909 -1.7979,0 -14.9862,-13.10829 -14.9862,-14.89527 0,-0.86193 4.1577,-5.74216 9.2393,-10.84494 8.1069,-8.14076 9.0847,-9.49115 7.9786,-11.01879 -2.3232,-3.20854 -5.1737,-9.71981 -5.1959,-11.86856 -0.028,-2.73821 1.219,-3.60702 8.228,-5.73166 3.1625,-0.95864 5.75,-2.05966 5.75,-2.44672 0,-0.38705 -6.3446,-3.85156 -14.0993,-7.6989 -26.4452,-13.12039 -46.4396,-27.02062 -56.8351,-39.51213 -25.6803,-30.85797 -9.742,-60.5727 47.4344,-88.43499 14.9188,-7.26998 40.9462,-17.69009 57.8593,-23.16411 l 8.8593,-2.86734 -0.5984,-5.09134 c -0.3291,-2.80024 -1.972,-9.77897 -3.651,-15.5083 -6.8558,-23.39555 -10.0917,-35.88805 -11.6233,-44.87365 -2.8991,-17.00794 -0.3012,-34.67169 6.624,-45.03849 6.7928,-10.1685 17.5795,-18.69776 28.5301,-22.55941 6.7624,-2.3847 22.9982,-2.85368 31.3448,-0.90542 11.8453,2.76496 26.067,9.74861 35.7779,17.56896 14.1271,11.37683 32.05,36.08969 30.0168,41.38829 -0.9467,2.46702 -8.8666,5.50585 -16.1132,6.18255 -6.1028,0.56989 -6.5263,0.76917 -6.5263,3.07149 0,1.35414 -0.6658,6.35156 -1.4795,11.1054 -0.8138,4.75383 -2.6294,16.51833 -4.0346,26.14333 -1.4053,9.625 -2.8002,18.7375 -3.0999,20.25 -0.3439,1.73581 -0.116,2.75 0.618,2.75 2.411,0 16.7365,6.29 25.2297,11.07782 38.6489,21.7871 75.1624,61.61899 85.6437,93.42701 9.19,27.88914 2.1348,50.15819 -20.6274,65.10842 l -5.25,3.44821 -0.1705,6.71927 c -0.094,3.6956 -0.2403,9.22278 -0.3256,12.28262 -0.085,3.05984 -0.4447,6.03186 -0.7986,6.60448 -0.3539,0.57262 -6.8889,3.61318 -14.5223,6.7568 -13.1122,5.39998 -13.8527,5.85238 -13.4057,8.19058 0.5959,3.11699 -3.4615,64.31926 -5.2628,79.38479 -0.2302,1.925 -0.6872,6.425 -1.0156,10 l -0.5971,6.5 18.0905,19 c 9.9498,10.45 18.5881,19.99917 19.1962,21.22039 0.8345,1.67586 0.7943,2.5955 -0.1639,3.75 -1.124,1.35439 -12.8687,1.52961 -102.5246,1.52961 -89.2603,0 -101.4041,-0.17959 -102.5133,-1.51603 z m 97.0411,-35.73397 c 0.015,-16.0875 0,-42.53524 -0.026,-58.77276 -0.059,-31.92874 0.1849,-33.50959 5.0547,-32.82221 l 2.4439,0.34497 0.2579,60.25 0.2578,60.25 43.6195,0 43.6196,0 -4.2817,-4.75 c -2.3549,-2.6125 -8.3747,-9.03137 -13.3774,-14.26414 -5.0026,-5.23278 -10.3694,-10.92029 -11.9263,-12.6389 l -2.8307,-3.12476 2.1754,-24.3611 c 2.3174,-25.95188 5.7407,-73.8611 5.2776,-73.8611 -0.1528,0 -4.3438,1.62738 -9.3134,3.61641 l -9.0355,3.61641 -28.2214,-5.70753 c -15.5217,-3.13913 -28.7203,-6.22902 -29.3301,-6.8664 -0.6725,-0.7028 -2.4221,-19.65624 -4.4457,-48.15889 -3.9231,-55.2561 -4.0217,-58.38548 -1.8832,-59.75358 1.1522,-0.73706 9.4222,1.48532 31.4952,8.46357 l 29.9328,9.46308 5.0048,-2.21815 c 2.7527,-1.21998 8.5252,-3.84642 12.8279,-5.83654 4.3026,-1.99011 7.9736,-3.61838 8.1576,-3.61838 0.184,0 4.7636,-2.07951 10.1769,-4.62113 17.2078,-8.07923 18.3001,-8.47192 20.4158,-7.3396 1.703,0.9114 1.9266,2.18021 1.9266,10.92949 l 0,9.8984 2.75,0.31642 c 2.2989,0.26451 2.75,0.79475 2.75,3.23196 0,2.57659 -0.93,3.4752 -8,7.72956 -9.1555,5.50938 -12.8142,5.9646 -13.3114,1.65625 -0.2562,-2.21931 0.4099,-3.15406 3.75,-5.26255 l 4.0614,-2.56389 0,-8.09444 c 0,-7.29797 -0.1722,-8.02842 -1.75,-7.42338 -0.9625,0.36908 -11.37,5.01198 -23.1277,10.31755 l -21.3778,9.64648 0.542,42.37032 c 0.2981,23.30367 0.7721,42.60045 1.0534,42.88172 0.5637,0.56368 40.4064,-15.33873 42.4101,-16.92715 0.8087,-0.64104 1.25,-3.74765 1.25,-8.7989 0,-7.33585 -0.136,-7.82733 -2.25,-8.12756 -1.7588,-0.24979 -2.25,-0.97047 -2.25,-3.30115 0,-2.70499 0.7683,-3.40077 8.2809,-7.5 10.5621,-5.76312 18.1543,-13.10988 22.3451,-21.62276 4.1447,-8.41897 5.0323,-19.6163 2.4319,-30.67881 -9.1067,-38.74218 -63.3903,-92.67372 -106.4401,-105.74969 -4.1015,-1.24578 -7.5365,-2.89475 -7.8766,-3.78118 -0.3318,-0.86457 0.051,-6.20271 0.8501,-11.86253 l 1.4534,-10.29059 -4.5223,-1.56273 -4.5224,-1.56273 -5.1674,5.77945 -5.1674,5.77946 -6.8326,-3.29079 -6.8326,-3.29079 -6.8167,2.11845 c -8.8714,2.75697 -11.1833,2.44624 -11.1833,-1.50316 0,-2.8278 0.4306,-3.15425 7.5,-5.68728 9.4163,-3.37387 12.3955,-3.42004 17.8933,-0.27728 2.4163,1.38125 4.4701,2.38833 4.564,2.23796 1.9546,-3.13003 8.1739,-9.83896 9.5157,-10.26482 0.9881,-0.31362 4.157,0.36014 7.0418,1.49725 2.8849,1.13711 5.4134,1.89937 5.6188,1.69391 0.2055,-0.20546 1.7454,-9.33446 3.4221,-20.28665 1.6767,-10.9522 3.4655,-20.92559 3.975,-22.16309 0.8129,-1.9742 1.6493,-2.25 6.8229,-2.25 7.5382,0 12.1464,-0.92713 12.1464,-2.44373 0,-0.65655 -1.6875,-3.93778 -3.75,-7.29162 -14.0107,-22.78288 -40.0634,-39.78253 -62.875,-41.02649 -14.9636,-0.81599 -24.4614,2.41841 -34.7713,11.84111 -17.9114,16.37003 -18.9735,38.44831 -4.0825,84.86867 5.7893,18.04721 8.0186,33.52928 5.1686,35.89459 -0.7207,0.59808 -7.1332,3.06955 -14.25,5.49217 -22.0318,7.4997 -39.2865,14.47069 -55.9398,22.59991 -64.7988,31.63126 -71.4168,61.88254 -21,95.99178 8.8839,6.0103 24.3712,14.66866 36.5851,20.45331 10.6684,5.05269 13.2483,7.31551 13.2483,11.6203 0,3.85839 -2.3133,6.31491 -8.4212,8.94243 -4.3103,1.85426 -4.8155,2.36959 -3.9354,4.01409 3.2321,6.03932 13.622,10.79391 20.9001,9.56428 7.4521,-1.25902 12.452,-7.77501 12.2866,-16.01228 -0.1145,-5.70708 -1.5949,-9.1808 -6.2926,-14.76529 -2.7745,-3.29835 -3.8164,-5.33958 -3.398,-6.65762 0.923,-2.90823 3.4209,-3.31439 6.9541,-1.13075 l 3.2015,1.97862 5.9358,-6.0279 5.9357,-6.02791 -3,-2.59299 c -12.8102,-11.07226 -15.9026,-14.42287 -14.8527,-16.0929 0.8335,-1.3259 2.879,-1.75608 9.4581,-1.98911 11.7818,-0.41731 21.5895,2.99149 34.8623,12.11681 6.2988,4.33056 20.0323,18.04022 20.0323,19.99751 0,1.70432 -13.5224,15.68301 -15.1711,15.68301 -0.5296,0 -3.6468,-2.3625 -6.9271,-5.25 -3.2804,-2.8875 -6.3759,-5.25 -6.8789,-5.25 -1.788,0 -21.8453,20.65625 -22.4685,23.1396 -0.3488,1.38962 -1.6738,4.17668 -2.9444,6.19349 -1.8926,3.00409 -2.4338,5.65523 -2.9944,14.66691 -0.3764,6.05 -1.1123,15.5 -1.6354,21 -0.5231,5.5 -1.651,17.875 -2.5065,27.5 -2.1038,23.67211 -8.3104,87.4748 -9.0225,92.75 l -0.5737,4.25 45.0613,0 45.0612,0 0.028,-29.25 z m 93.0121,-164.20201 c -2.0887,-2.51675 -0.2807,-4.91663 7.005,-9.29799 7.6799,-4.61844 10.3324,-5.18521 11.8207,-2.52582 1.519,2.71432 -0.2828,4.84728 -7.8069,9.24155 -7.5218,4.393 -9.1913,4.78425 -11.0188,2.58226 z m -111.7622,-213.79799 c -4.7272,-6.10934 0.9552,-13.44832 7.2296,-9.33718 2.7445,1.79823 3.4873,7.19258 1.2927,9.38718 -1.5761,1.5761 -7.29,1.54257 -8.5223,-0.05 z m 25.2398,-8.37543 c -2.4915,-2.4915 -1.5864,-7.49435 1.6867,-9.32284 2.4952,-1.39392 2.9202,-1.3495 5.5,0.57478 3.44,2.56596 3.947,4.7307 1.8556,7.92266 -1.8976,2.89613 -6.5472,3.32055 -9.0423,0.8254 z m -114.0447,275.24493 9.638,-8.88049 -5.7743,-2.34685 -5.7743,-2.34685 -3.0311,2.70909 c -1.6671,1.49 -5.3918,4.95017 -8.2771,7.68926 l -5.246,4.98016 3.7105,3.79992 c 2.0408,2.08996 4.0268,3.6821 4.4134,3.53809 0.3866,-0.14401 5.04,-4.25805 10.3409,-9.14233 z m 156.1784,-18.8695 c -0.3067,-13.3375 -0.5787,-32.58677 -0.6044,-42.77615 l -0.047,-18.52616 -26.25,-8.26586 c -14.4375,-4.54623 -26.5635,-8.24696 -26.9467,-8.22385 -0.3831,0.0231 -0.4882,1.95452 -0.2334,4.29202 0.2547,2.3375 1.8107,23.11749 3.4577,46.17777 1.647,23.06027 3.152,42.0852 3.3445,42.27762 0.542,0.542 42.8256,9.09632 45.4823,9.20145 l 2.3544,0.0932 -0.5577,-24.25 z m -105.1677,-38.73711 -4.0136,-4.01365 -5.9849,5.93274 c -3.2917,3.26301 -5.9715,6.30068 -5.955,6.75038 0.017,0.4497 0.9015,3.15714 1.9666,6.01652 l 1.9366,5.19889 8.032,-7.93562 8.032,-7.93561 -4.0137,-4.01365 z m 26.8665,7.14077 3.7559,-3.84635 -7.8954,-7.40365 c -4.3425,-4.07201 -10.7788,-9.1056 -14.3029,-11.18574 -7.0994,-4.19046 -18.4282,-8.04235 -22.1813,-7.54181 -2.0838,0.27791 0.212,2.69202 16.1726,17.00599 10.2306,9.17516 19.0723,16.71266 19.6482,16.75 0.5759,0.0374 2.7372,-1.66295 4.8029,-3.77844 z m 767.57723,114.68661 c -43.685,-18.72127 -79.9897,-34.49913 -80.6772,-35.06192 -1.9888,-1.62805 -1.5165,-5.55898 0.7545,-6.27978 1.3787,-0.43757 23.4684,8.57484 70.75,28.86537 37.81,16.22587 72.458,31.08977 76.9955,33.03089 l 8.25,3.52931 -0.025,-5.21207 -0.025,-5.21207 -45.7249,-18.90205 c -25.1486,-10.39612 -54.9498,-22.71856 -66.2248,-27.3832 -11.275,-4.66463 -21.124,-9.06132 -21.8867,-9.77041 -1.7356,-1.61358 -0.7519,-4.44434 1.5445,-4.44434 1.8574,0 7.798,2.41104 81.3422,33.01375 26.675,11.09981 49.92,20.65002 51.6557,21.22268 2.7852,0.919 3.9004,0.62772 9.5,-2.48127 3.4893,-1.93737 15.0904,-7.91028 25.7802,-13.27313 l 19.4359,-9.75064 -9.4359,-3.7197 c -5.1898,-2.04584 -16.6359,-6.53791 -25.4359,-9.98238 -33.5435,-13.1295 -112.1969,-44.17893 -116.5,-45.98986 -5.3438,-2.24889 -6.9625,-4.28879 -5.3877,-6.78945 0.6061,-0.9625 1.7591,-1.87966 2.5621,-2.03813 0.8031,-0.15847 20.1048,7.10568 42.8929,16.14256 63.2731,25.09179 88.9702,35.24775 105.9327,41.86658 8.525,3.32649 16.0476,6.48036 16.717,7.0086 1.7816,1.40611 0.5328,19.67699 -1.5051,22.02039 -0.837,0.9625 -1.8249,1.75 -2.1952,1.75 -0.3704,0 -9.6381,4.85974 -20.595,10.79942 -10.957,5.93967 -24.2295,13.11243 -29.4945,15.93946 l -9.5728,5.14006 -79.4272,-34.03867 z m 109.1362,9.06813 25.9366,-14.09161 0,-3.90839 c 0,-2.14962 -0.2726,-3.9084 -0.6057,-3.9084 -0.3332,0 -12.2501,5.9625 -26.4821,13.25 l -25.8763,13.25 -0.018,4.75 c -0.01,2.6125 0.2355,4.75 0.5454,4.75 0.3099,0 12.2349,-6.34122 26.5,-14.0916 z m -693.06343,9.22012 c -13.475,-5.88372 -34.7872,-15.15024 -47.3604,-20.59227 -25.1583,-10.88913 -27.7511,-12.4051 -26.0374,-15.2236 0.6061,-0.99696 1.9561,-1.93989 3,-2.09541 1.0438,-0.15552 14.4978,5.16913 29.8978,11.83254 15.4,6.66342 35.7117,15.45316 45.137,19.53276 9.4253,4.0796 17.6096,7.41746 18.1873,7.41746 1.1357,0 1.3644,-7.0767 0.2851,-8.82302 -0.362,-0.58574 -7.1722,-3.82874 -15.1338,-7.20668 -26.5148,-11.24973 -39.3086,-16.64653 -59.2256,-24.98319 -17.7529,-7.43084 -19.75,-8.50542 -19.75,-10.62694 0,-4.37046 -1.9127,-5.02196 53,18.05232 17.875,7.51106 35.1649,14.8259 38.4219,16.2552 4.3632,1.91473 6.3483,2.33241 7.542,1.58692 0.8911,-0.55649 12.5525,-6.50275 25.9141,-13.21391 13.3617,-6.71116 24.1419,-12.35421 23.956,-12.54011 -0.1859,-0.1859 -18.1121,-7.38068 -39.836,-15.9884 -72.7327,-28.81908 -77.4893,-30.77364 -79.4841,-32.66089 -1.5634,-1.47914 -1.7534,-2.24861 -0.8928,-3.6152 0.6013,-0.95485 1.8674,-1.88829 2.8134,-2.07431 1.529,-0.30063 117.8119,45.29052 126.5655,49.62265 l 3.5,1.73214 -0.3327,9.99171 c -0.1942,5.82838 -0.8192,10.48551 -1.5,11.1768 -0.642,0.6518 -9.0423,5.42793 -18.6673,10.61364 -9.625,5.1857 -23.0065,12.41491 -29.7368,16.06491 -6.7303,3.65 -13.0303,6.59725 -14,6.54946 -0.9697,-0.0478 -12.7882,-4.90086 -26.2632,-10.78458 z m 55.6275,-13.06141 25.8725,-13.93288 0.8267,-4.15713 c 0.4547,-2.28642 0.6582,-4.32559 0.4523,-4.53147 -0.2059,-0.20589 -12.3639,5.77222 -27.0179,13.28469 l -26.6435,13.65903 0.037,4.80532 c 0.021,2.64293 0.1638,4.80533 0.3186,4.80533 0.1548,0 11.9241,-6.2698 26.154,-13.93289 z m 57.9115,-202.11378 c -60.6625,-9.50618 -92.2781,-75.19843 -61.1992,-127.1624 21.5935,-36.10446 67.7275,-50.70412 107.4645,-34.00844 18.5961,7.81325 35.6497,24.54969 43.9409,43.12348 4.5639,10.2242 6.3935,18.13842 6.9569,30.09403 1.1729,24.88942 -7.0315,46.23949 -24.3645,63.40288 -10.9366,10.82956 -23.8823,18.24703 -39.3061,22.5212 -8.5732,2.37573 -24.9497,3.36796 -33.4925,2.02925 z m 22.8571,-8.00215 c 16.5028,-2.29533 31.1297,-9.49197 43.4382,-21.37213 16.3235,-15.75539 23.9963,-35.27855 22.9215,-58.3221 -2.24,-48.01975 -49.2977,-82.2668 -96.4644,-70.20359 -23.8301,6.09472 -43.2538,22.91679 -52.8873,45.8035 -5.1494,12.23364 -6.6542,29.1189 -3.8265,42.9353 3.2841,16.04643 9.3252,27.10543 21.4224,39.21614 11.5471,11.55994 24.8999,18.54028 41.0602,21.46482 9.3616,1.69416 14.8213,1.80141 24.3359,0.47806 z m -15.0635,-36.56641 c -1.5355,-2.34341 -1.5604,-2.88909 -0.2396,-5.25 2.8345,-5.06702 8.907,-3.0889 8.907,2.90147 0,5.10713 -5.8256,6.68565 -8.6674,2.34853 z m 0.095,-18.85525 c -1.3211,-2.01619 -1.4945,-3.99298 -0.943,-10.75 0.7209,-8.83328 1.8488,-10.77952 6.2466,-10.77952 3.8065,0 9.9072,-3.67847 12.1683,-7.33695 6.119,-9.90081 -1.584,-23.09041 -13.3811,-22.91206 -8.0852,0.12222 -13.8361,5.13165 -15.1218,13.17208 -0.8201,5.12815 -4.0782,7.85274 -7.3175,6.11914 -4.2232,-2.26018 -3.5935,-10.09855 1.4536,-18.09359 7.7933,-12.34541 26.123,-14.92713 37.4067,-5.26871 14.997,12.83686 10.4371,36.53612 -8.2551,42.90497 -3.0386,1.03532 -3.198,1.35345 -3.4904,6.96541 -0.1685,3.23429 -0.7861,6.4586 -1.3724,7.16512 -1.763,2.12424 -5.6315,1.50376 -7.3939,-1.18589 z m -122.9274,-79.9174 c -9.9198,-4.48751 -11.7823,-17.73419 -3.4787,-24.74246 8.1707,-6.89611 21.418,-2.00278 23.4164,8.64965 0.8233,4.38851 -2.4723,11.86444 -6.4377,14.60376 -3.5154,2.4285 -9.8731,3.12976 -13.5,1.48905 z m 10.0455,-9.06667 c 2.9281,-2.92807 3.1115,-5.5126 0.6104,-8.60133 -3.7134,-4.58586 -12.1559,-1.66047 -12.1559,4.21212 0,2.56848 4.3729,6.84376 7,6.84376 1.15,0 3.1955,-1.10455 4.5455,-2.45455 z m -78.6224,-6.46853 c -4.9195,-4.9195 -3.838,-12.51817 2.2281,-15.65507 7.7847,-4.02564 17.0139,3.75337 13.9656,11.77115 -2.7505,7.2342 -10.891,9.18664 -16.1937,3.88392 z m 9.0769,-6.71529 c 0,-1.98249 -3.0203,-2.94669 -4.0437,-1.29089 -1.0763,1.74156 0.7258,3.98851 2.6169,3.26283 0.7847,-0.30115 1.4268,-1.18853 1.4268,-1.97194 z"
       id="path3900-9"
       inkscape:connector-curvature="0"
       clip-path="url(#clipPath3922)" />
  </g>
</svg>
