<?xml version="1.0" encoding="UTF-8" standalone="no"?>
<!-- Created with Inkscape (http://www.inkscape.org/) -->

<svg
   xmlns:dc="http://purl.org/dc/elements/1.1/"
   xmlns:cc="http://creativecommons.org/ns#"
   xmlns:rdf="http://www.w3.org/1999/02/22-rdf-syntax-ns#"
   xmlns:svg="http://www.w3.org/2000/svg"
   xmlns="http://www.w3.org/2000/svg"
   xmlns:sodipodi="http://sodipodi.sourceforge.net/DTD/sodipodi-0.dtd"
   xmlns:inkscape="http://www.inkscape.org/namespaces/inkscape"
   width="1024"
   height="768"
   id="svg4066"
   version="1.1"
   inkscape:version="0.48.4 r9939"
   sodipodi:docname="halp.svg">
  <defs
     id="defs4068" />
  <sodipodi:namedview
     id="base"
     pagecolor="#ffffff"
     bordercolor="#666666"
     borderopacity="1.0"
     inkscape:pageopacity="0.0"
     inkscape:pageshadow="2"
     inkscape:zoom="0.35"
     inkscape:cx="-783.88692"
     inkscape:cy="149.5118"
     inkscape:document-units="px"
     inkscape:current-layer="layer1"
     showgrid="false"
     fit-margin-top="-0.1"
     fit-margin-left="0"
     fit-margin-right="0"
     fit-margin-bottom="0"
     inkscape:window-width="1895"
     inkscape:window-height="635"
     inkscape:window-x="25"
     inkscape:window-y="172"
     inkscape:window-maximized="0" />
  <metadata
     id="metadata4071">
    <rdf:RDF>
      <cc:Work
         rdf:about="">
        <dc:format>image/svg+xml</dc:format>
        <dc:type
           rdf:resource="http://purl.org/dc/dcmitype/StillImage" />
        <dc:title />
      </cc:Work>
    </rdf:RDF>
  </metadata>
  <g
     inkscape:label="Layer 1"
     inkscape:groupmode="layer"
     id="layer1"
     transform="translate(-196.02978,86.126026)">
    <path
       style="fill:#000000"
       d="m 844.56485,552.31998 -9.07952,-4.10974 0.46024,-44.44149 0.46022,-44.44148 28.76045,-15.5472 c 15.81823,-8.55095 29.21405,-16.01408 29.76846,-16.58471 0.55443,-0.57066 -3.07894,-2.57153 -8.07414,-4.44643 -39.74324,-14.91721 -130.00625,-51.36984 -131.03822,-52.91967 -0.70732,-1.06225 -1.09518,-17.80993 -0.86193,-37.21702 l 0.42411,-35.28566 6.89542,-3.90373 c 3.79249,-2.14707 8.55574,-3.9165 10.58502,-3.9321 3.10829,-0.024 237.17244,87.51526 242.03394,90.51978 0.9727,0.6012 1.65,17.16322 1.65,40.3502 l 0,39.33045 -14.2219,8.55923 c -7.82196,4.70758 -27.02141,16.33487 -42.66543,25.83844 -15.644,9.50357 -44.45852,27.00391 -64.03227,38.88964 -19.57375,11.88571 -37.0278,22.02459 -38.78678,22.53082 -1.75899,0.50625 -7.28394,-0.92895 -12.27767,-3.18933 z m 8.21759,-43.86711 c 0,-35.67092 -0.19315,-37.96756 -3.33439,-39.64871 -1.83391,-0.98147 -4.16112,-1.7845 -5.17157,-1.7845 -1.24454,0 -1.83718,12.2062 -1.83718,37.83919 0,34.21873 0.28864,38.00733 3.01675,39.59629 7.19855,4.19277 7.32639,3.56455 7.32639,-36.00227 z m 45.0326,14.38354 c 56.71198,-34.52115 79.92923,-48.61339 96.32368,-58.46584 l 14.65278,-8.80575 0.4682,-33.05938 c 0.2575,-18.18264 -0.072,-33.05934 -0.7314,-33.05934 -0.6598,0 -12.8944,6.31381 -27.188,14.03069 -14.29359,7.71687 -32.19425,17.37224 -39.77922,21.45637 -7.58497,4.08412 -29.30558,15.82178 -48.268,26.08369 l -34.47714,18.65797 -0.46394,38.32113 c -0.25517,21.07661 -0.15963,38.32113 0.21231,38.32113 0.37194,0 18.03476,-10.56629 39.25073,-23.48067 z m -26.27293,-66.39828 c 9.11867,-4.87174 35.97279,-19.36289 59.67583,-32.2026 23.70303,-12.8397 48.21118,-26.11385 54.46255,-29.49813 22.14201,-11.9869 25.48421,-8.83571 -32.45512,-30.59974 -28.22216,-10.60121 -80.25257,-30.20279 -115.62312,-43.55907 -47.52239,-17.94491 -65.06264,-23.86301 -67.19287,-22.6709 -3.72634,2.08537 -13.22589,-1.78225 109.95477,44.76695 82.80637,31.29203 104.29335,40.02932 104.29335,42.40901 0,2.17616 -17.70785,12.51257 -64.64464,37.73421 -78.14023,41.98895 -72.234,38.50315 -68.95427,40.69615 3.46494,2.31686 1.8737,2.86655 20.48352,-7.07588 z m 67.77554,-52.60807 c 18.85767,-10.10313 33.67071,-18.97604 32.91784,-19.7176 -1.71423,-1.6885 -206.14717,-79.13536 -208.88996,-79.13536 -1.4687,0 -1.8808,8.1427 -1.53631,30.35618 l 0.47072,30.35616 70.67814,28.07607 c 38.87299,15.44184 70.99195,28.15658 71.37552,28.25498 0.38355,0.0984 16.12638,-8.08729 34.98405,-18.19043 z M 491.93622,519.03994 c -3.34762,-0.64615 -3.29294,0.43073 -1.10977,-21.85277 2.68619,-27.41787 8.50175,-91.95311 9.476,-105.15529 0.48979,-6.63685 1.28769,-15.75174 1.77314,-20.25532 1.24145,-11.51722 -1.49628,-10.78605 -17.66656,4.71818 -7.4035,7.09857 -14.27316,12.91658 -15.26589,12.92893 -0.99274,0.0115 -4.83988,-3.08561 -8.54923,-6.88431 l -6.74426,-6.90676 9.27657,-9.39324 9.27656,-9.39325 -3.10217,-6.87938 c -3.35135,-7.43198 -2.68125,-12.23635 1.70672,-12.23635 1.51427,0 4.36265,-0.86134 6.32973,-1.91408 3.20996,-1.71793 1.65247,-2.91622 -15.19707,-11.69213 -24.10018,-12.55231 -37.4045,-21.67761 -47.74645,-32.74874 -35.84721,-38.37471 -6.86952,-75.21626 86.19635,-109.58802 15.13518,-5.58982 20.47805,-8.3381 20.84945,-10.72454 0.27466,-1.7648 -2.31799,-12.88825 -5.76145,-24.71877 -8.26914,-28.40988 -10.94829,-43.07684 -10.25396,-56.135313 1.7469,-32.85449 30.40816,-55.198738 62.92209,-49.053971 15.05624,2.845467 33.39632,12.828181 45.5848,24.812381 10.64666,10.4682 21.59802,26.87763 21.62944,32.40939 0.0172,2.950193 -7.93567,6.611913 -14.46288,6.659483 -1.99179,0.0138 -4.5269,0.60242 -5.63356,1.30645 -1.10665,0.704 -4.01567,14.71151 -6.46447,31.12776 -5.23475,35.09291 -4.96402,31.32212 -2.2489,31.32212 3.71231,0 26.48079,11.5166 37.31766,18.87575 34.72946,23.58433 63.57856,58.14653 71.8887,86.1251 4.34138,14.61661 3.74007,30.31612 -1.56172,40.77446 -4.27441,8.43169 -14.34146,19.10069 -21.77885,23.08105 -3.11256,1.6658 -3.60022,3.52451 -3.60022,13.72206 0,13.664 -0.11418,13.80719 -16.29791,20.4399 l -11.62001,4.7623 -0.56601,9.45329 c -0.31132,5.1993 -1.09971,18.37424 -1.75201,29.27764 -0.6523,10.90339 -1.41312,21.03702 -1.69069,22.51916 -0.27757,1.48214 -1.05438,10.44814 -1.72622,19.92446 l -1.22152,17.22968 18.48469,19.29026 c 12.16635,12.69656 18.14515,20.17517 17.4913,21.87908 -0.86169,2.24553 -10.77185,2.59558 -74.74243,2.63998 -40.56194,0.0281 -84.27952,0.2221 -97.15017,0.43097 -12.87067,0.20887 -24.70064,0.12894 -26.28882,-0.1776 z m 93.29661,-66.60862 c 0.28061,-32.20068 0.82895,-58.86548 1.21856,-59.25508 0.38959,-0.38958 1.90541,-0.249 3.36849,0.31244 2.32549,0.89237 2.66013,8.40066 2.66013,59.68604 l 0,58.66523 42.23449,0 c 23.22899,0 42.23452,-0.53359 42.23452,-1.18575 0,-0.65218 -7.00388,-8.32774 -15.56416,-17.05679 -15.11895,-15.41705 -15.5379,-16.06113 -14.64669,-22.51727 1.40474,-10.17622 4.11031,-44.02219 5.28541,-66.11933 0.57984,-10.9034 1.35864,-20.79403 1.73066,-21.97918 0.95232,-3.03369 -2.83754,-2.67995 -11.14752,1.04054 -7.13639,3.19506 -7.13967,3.19484 -34.79454,-2.37017 -15.21161,-3.06104 -28.29024,-6.24436 -29.06361,-7.07404 -0.77337,-0.82968 -1.91759,-10.42947 -2.54269,-21.33286 -0.6251,-10.9034 -1.45057,-22.9273 -1.83437,-26.71978 -0.38382,-3.7925 -1.17485,-14.6528 -1.75787,-24.134 -0.583,-9.48122 -1.4241,-20.54819 -1.86907,-24.5933 -0.634,-5.76314 -0.18861,-7.59279 2.05818,-8.45498 1.57702,-0.60515 15.76442,2.95483 31.52761,7.91109 l 28.66028,9.01136 26.42566,-12.32434 c 14.5341,-6.77839 27.52767,-11.90145 28.87461,-11.38459 1.70762,0.65529 2.44896,3.82626 2.44896,10.47509 0,7.0011 0.63821,9.53531 2.40136,9.53531 1.32075,0 2.83717,1.13573 3.36985,2.52384 1.00926,2.63013 -3.83328,6.76901 -13.9905,11.95755 -5.27319,2.69369 -5.70504,2.69134 -6.75192,-0.0369 -0.73219,-1.90802 0.27147,-4.04006 2.9062,-6.17353 2.98891,-2.42026 4.11319,-5.23478 4.36875,-10.93656 0.18927,-4.2227 -0.13497,-7.68175 -0.72042,-7.68682 -0.58548,-0.005 -10.9282,4.45542 -22.9838,9.91218 l -21.9193,9.92143 -0.06,42.66546 c -0.0329,23.466 0.38563,42.66547 0.93016,42.66547 0.54456,0 10.62913,-3.96321 22.41017,-8.80712 l 21.42015,-8.80711 0,-8.43145 c 0,-6.34539 -0.63975,-8.43146 -2.58578,-8.43146 -5.62089,0 -2.46267,-6.26823 4.98016,-9.88424 27.13353,-13.18249 34.10107,-37.65855 19.4828,-68.44046 -10.90798,-22.96912 -34.17405,-49.36648 -58.9401,-66.87261 -14.51475,-10.2599 -22.25252,-14.51919 -37.06294,-20.40145 -6.76578,-2.68717 -11.14184,-5.42543 -11.04547,-6.91153 0.0878,-1.35366 0.68465,-6.44593 1.32638,-11.31618 1.12639,-8.54866 1.00821,-8.89475 -3.41596,-10.00514 -3.57303,-0.89679 -5.64604,-0.13153 -9.40892,3.47361 -3.90285,3.73917 -5.75342,4.38094 -9.67258,3.3544 -6.53402,-1.71145 -14.02709,-1.74899 -20.79204,-0.1041 -4.93821,1.20066 -5.60254,0.94426 -5.60254,-2.16245 0,-2.71052 2.04255,-4.20309 8.84269,-6.46173 8.12933,-2.70012 9.30536,-2.71645 14.57769,-0.20225 5.69297,2.71479 5.76618,2.69501 9.99003,-2.70206 4.09043,-5.22664 4.50668,-5.35969 10.76152,-3.44004 3.57859,1.09831 6.67996,1.82347 6.89196,1.61147 0.212,-0.212 1.63566,-8.91383 3.16368,-19.3374 3.80827,-25.978593 3.33647,-24.980763 11.82612,-25.011843 11.12215,-0.0407 12.81087,-1.90902 7.99539,-8.84561 -23.87708,-34.39453 -58.99879,-49.832671 -85.27254,-37.48255 -8.35728,3.92837 -18.93052,14.56234 -21.75474,21.87964 -6.01649,15.58817 -4.75489,30.920933 5.5229,67.122253 4.48178,15.78616 6.77952,27.14132 6.43805,31.81621 l -0.53096,7.26931 -24.54262,8.96664 c -58.34986,21.31811 -92.08314,44.86946 -96.27536,67.216 -1.74429,9.29782 3.52714,20.70643 14.67183,31.75325 11.54634,11.44492 22.80137,19.01274 46.49766,31.26478 17.76828,9.18699 21.91407,13.30594 19.00003,18.87706 -0.79985,1.5292 -3.79225,3.74874 -6.64976,4.93236 -4.35553,1.80413 -4.91531,2.67554 -3.4625,5.39015 3.40398,6.36039 15.59952,10.25345 23.10178,7.37456 3.89283,-1.49383 7.83458,-9.75531 7.83458,-16.42044 0,-3.24461 -1.91822,-8.36348 -4.56572,-12.18382 -5.09953,-7.35864 -4.6514,-8.84045 2.61114,-8.63396 3.38873,0.0963 6.5426,-1.4793 9.8307,-4.91134 l 4.84126,-5.0532 -9.25075,-8.28552 c -11.72395,-10.50071 -10.8008,-13.17916 4.12926,-11.98073 6.74554,0.54147 13.95753,2.56427 19.92642,5.58896 9.3572,4.74164 29.36498,22.216 29.36498,25.64672 0,2.33683 -12.21623,14.89402 -14.48961,14.89402 -0.9476,0 -4.28876,-2.48695 -7.42484,-5.52654 l -5.70193,-5.52652 -9.53059,9.40521 c -15.63457,15.42889 -16.79099,19.4134 -21.24093,73.18792 -2.1184,25.59927 -4.19886,49.84101 -4.62323,53.87053 -0.42437,4.02951 -1.12026,10.62326 -1.54641,14.65278 -0.42615,4.02952 -1.29065,13.53228 -1.92112,21.11725 -0.63044,7.58497 -1.49932,14.38586 -1.93082,15.1131 -0.43149,0.72723 19.24459,1.11511 43.72463,0.86192 l 44.50919,-0.46031 0.51017,-58.54669 z m 91.19519,-131.31128 c -2.74902,-2.749 -0.77619,-5.90451 6.275,-10.03678 8.64268,-5.06495 10.73531,-5.37361 12.11183,-1.78643 1.39285,3.62968 -15.63257,14.57746 -18.38683,11.82321 z M 565.02576,106.97167 c -2.55624,-4.77637 1.95756,-10.429953 6.23605,-7.810733 3.94852,2.417263 5.03096,7.570123 1.99442,9.494463 -3.68124,2.33293 -6.37585,1.78169 -8.23047,-1.68373 z m 24.67632,-7.874573 c -1.71639,-4.47284 0.68934,-8.16969 4.92505,-7.56822 2.84906,0.40457 3.88638,1.70215 3.88638,4.86152 0,3.15936 -1.03732,4.456943 -3.88638,4.861523 -2.33115,0.33101 -4.30204,-0.5313 -4.92505,-2.154823 z M 480.0794,373.42378 l 9.01352,-9.12691 -6.18471,-2.23641 c -3.40161,-1.23005 -6.32058,-1.95937 -6.48664,-1.62075 -0.16601,0.33863 -3.34902,3.88087 -7.07331,7.87166 -6.62918,7.10358 -6.70502,7.32932 -3.6115,10.74764 1.73794,1.92041 3.64798,3.49166 4.24452,3.49166 0.59652,0 5.14068,-4.10711 10.09812,-9.12689 z M 632.12872,336.9702 c 0,-23.17302 -0.68297,-42.55488 -1.51773,-43.07078 -1.51432,-0.93589 -50.15914,-16.50403 -51.56918,-16.50403 -0.73143,0 1.03068,32.95733 2.21203,41.37257 0.33275,2.3703 1.12989,13.46413 1.77137,24.65295 0.64153,11.18879 1.3579,21.64793 1.59193,23.24252 0.33155,2.25903 5.33871,3.91252 22.67565,7.48804 12.23758,2.52383 22.83195,4.6704 23.54303,4.77014 0.7111,0.0998 1.2929,-18.7784 1.2929,-41.95141 z m -103.04529,-20.30616 -3.85298,-3.85298 -6.02543,6.02545 c -5.71729,5.7173 -5.91745,6.31152 -3.91383,11.61976 l 2.11162,5.59432 7.76679,-7.76679 7.76678,-7.76678 -3.85295,-3.85298 z m 21.40322,-5.61478 c -10.31294,-9.17626 -22.1551,-15.73857 -31.27054,-17.3285 l -6.89544,-1.2027 3.44771,3.51362 c 1.89625,1.93249 10.41729,9.77249 18.93566,17.42219 l 15.48792,13.90856 4.33644,-4.42922 4.33642,-4.42921 -8.37817,-7.45474 z M 713.17104,444.0383 c -34.74731,-14.86146 -49.27807,-21.88223 -49.68729,-24.00721 -0.38325,-1.99005 0.50843,-3.00328 2.64302,-3.00328 1.77176,0 22.13967,8.13799 45.26199,18.08442 52.32096,22.50665 48.3054,21.2522 48.3054,15.09041 0,-4.89266 -0.83009,-5.32694 -46.11318,-24.12458 -27.44875,-11.39437 -46.11317,-20.06523 -46.11317,-21.42263 0,-1.25423 1.1636,-2.15651 2.58578,-2.00509 1.42219,0.15136 22.66432,8.62567 47.20476,18.83163 l 44.61897,18.55635 24.76628,-12.42958 c 13.62145,-6.83627 24.76627,-13.0491 24.76627,-13.8063 0,-0.75719 -26.37501,-11.76307 -58.61113,-24.45751 -46.3362,-18.24697 -58.61115,-23.72203 -58.61115,-26.14259 0,-1.79923 1.244,-3.0267 3.01675,-2.97663 1.65922,0.0468 30.94323,11.15345 65.0756,24.68137 l 62.05886,24.59622 0,10.86634 0,10.86635 -11.20508,6.34921 c -6.16278,3.49206 -20.12602,11.09847 -31.02942,16.90313 l -19.82436,10.55389 -49.1089,-21.00392 z m 96.51497,-13.23448 c 4.81146,-2.80125 7.96655,-5.94725 8.30821,-8.28427 0.30298,-2.07234 0.0384,-3.76789 -0.58774,-3.76789 -0.62623,0 -12.70408,5.905 -26.83967,13.1222 -24.32232,12.41825 -25.70107,13.3943 -25.70107,18.19433 l 0,5.07214 18.53145,-9.91006 c 10.19231,-5.45055 22.02227,-11.94244 26.28882,-14.42645 z M 843.30123,239.43628 C 789.26006,228.61814 760.89301,171.15215 784.72649,120.77555 811.7007,63.760417 893.40286,57.835007 928.47136,110.35052 c 12.54177,18.78144 17.21962,44.74846 12.08077,67.06115 -9.68634,42.05767 -54.43286,70.59607 -97.2509,62.02461 z m 40.36666,-10.0956 c 13.45506,-5.11252 22.78006,-11.18328 31.50373,-20.50959 22.86941,-24.44924 26.72287,-61.06369 9.5166,-90.42395 -5.41353,-9.2375 -20.79447,-23.943853 -29.90116,-28.589733 -9.16221,-4.67419 -26.06998,-8.94172 -35.42682,-8.94172 -31.88342,0 -62.70631,23.002913 -72.38994,54.024113 -13.10232,41.97294 12.73399,86.42674 56.33093,96.92255 11.41543,2.74822 29.53428,1.63431 40.36666,-2.48167 z m -28.01235,-32.39196 c -2.20847,-2.20845 -1.12468,-7.1106 1.82203,-8.24136 3.47818,-1.3347 7.61267,3.30955 6.20711,6.97238 -0.9585,2.49779 -6.00306,3.29508 -8.02914,1.26898 z m 0.60571,-18.63766 c -1.07574,-1.29617 -1.70983,-6.42476 -1.41892,-11.47654 0.51583,-8.95835 0.64689,-9.16162 6.84761,-10.62056 8.62185,-2.02858 12.56237,-6.83533 12.56237,-15.32393 0,-5.45388 -1.02773,-7.82472 -4.79757,-11.06737 -8.87294,-7.63219 -21.93325,-3.19184 -24.94133,8.47971 -0.94929,3.68335 -2.61266,5.66936 -5.04694,6.02586 -4.40625,0.64529 -5.68774,-3.51282 -3.35159,-10.87491 8.29748,-26.14841 47.66668,-20.0297 47.69054,7.412 0.009,9.7415 -3.60478,16.3536 -11.58781,21.20519 -7.41247,4.50486 -9.15909,6.50354 -8.88696,10.1696 0.51902,6.99193 -3.46536,10.41357 -7.0694,6.07095 z M 730.99874,95.749177 c -3.71554,-3.19599 -4.71361,-5.50254 -4.57019,-10.56181 0.2433,-8.58358 5.2064,-13.50558 13.61831,-13.50558 14.74316,0 19.70614,20.20118 6.44718,26.24238 -6.33419,2.886023 -10.2506,2.336303 -15.4953,-2.17499 z m 13.58452,-5.82325 c 4.16016,-4.71451 0.99588,-11.16363 -5.13168,-10.45886 -5.8753,0.67573 -7.66995,7.70981 -2.86373,11.2242 3.99934,2.92439 4.80783,2.847 7.99541,-0.76534 z m -79.38446,-8.18149 c -2.47258,-5.42672 -0.12694,-12.21658 4.75605,-13.76635 9.08471,-2.88337 16.42056,6.1923 11.30988,13.9922 -3.83595,5.85438 -13.35658,5.72054 -16.06593,-0.22585 z m 10.02636,-4.31647 c 0,-0.94812 -0.77574,-1.72386 -1.72385,-1.72386 -0.94812,0 -1.72386,0.77574 -1.72386,1.72386 0,0.94811 0.77574,1.72385 1.72386,1.72385 0.94811,0 1.72385,-0.77574 1.72385,-1.72385 z"
       id="path4053"
       inkscape:connector-curvature="0" />
  </g>
</svg>
