<?xml version="1.0" encoding="UTF-8" standalone="no"?>
<!-- Created with Inkscape (http://www.inkscape.org/) -->

<svg
   xmlns:dc="http://purl.org/dc/elements/1.1/"
   xmlns:cc="http://creativecommons.org/ns#"
   xmlns:rdf="http://www.w3.org/1999/02/22-rdf-syntax-ns#"
   xmlns:svg="http://www.w3.org/2000/svg"
   xmlns="http://www.w3.org/2000/svg"
   xmlns:sodipodi="http://sodipodi.sourceforge.net/DTD/sodipodi-0.dtd"
   xmlns:inkscape="http://www.inkscape.org/namespaces/inkscape"
   version="1.1"
   width="720.0025"
   height="240"
   id="svg2"
   xml:space="preserve"
   inkscape:version="0.48.4 r9939"
   sodipodi:docname="anchor_engineering.svg"
   inkscape:export-filename="/home/barney/Desktop/anchor_logo_3-1_ratio_240x80.png"
   inkscape:export-xdpi="30"
   inkscape:export-ydpi="30"><sodipodi:namedview
     pagecolor="#ffffff"
     bordercolor="#666666"
     borderopacity="1"
     objecttolerance="10"
     gridtolerance="10"
     guidetolerance="10"
     inkscape:pageopacity="1"
     inkscape:pageshadow="2"
     inkscape:window-width="1600"
     inkscape:window-height="876"
     id="namedview18"
     showgrid="false"
     fit-margin-top="19.01"
     fit-margin-left="28"
     fit-margin-right="27.99"
     fit-margin-bottom="19.01"
     inkscape:zoom="1.4142136"
     inkscape:cx="282.34711"
     inkscape:cy="47.016977"
     inkscape:window-x="2560"
     inkscape:window-y="1035"
     inkscape:window-maximized="1"
     inkscape:current-layer="svg2" /><metadata
     id="metadata8"><rdf:RDF><cc:Work
         rdf:about=""><dc:format>image/svg+xml</dc:format><dc:type
           rdf:resource="http://purl.org/dc/dcmitype/StillImage" /><dc:title /></cc:Work></rdf:RDF></metadata><defs
     id="defs6"><clipPath
       id="clipPath18"><path
         d="m 0,0 5312,0 0,1988.59 -5312,0 L 0,0 z"
         id="path20"
         inkscape:connector-curvature="0" /></clipPath></defs><rect
     style="fill:#000000;fill-opacity:1;stroke:none"
     id="rect3025"
     width="747.41187"
     height="277.89294"
     x="-9.8994951"
     y="-14.558434" /><g
     transform="matrix(1.25,0,0,-1.25,28,267.58862)"
     id="g10"><g
       id="g3908"><path
         d="M 95.8801,147.475 0,112.05 95.3574,77.4078 c -2.7097,9.4203 -5.2367,23.0762 -5.1512,36.0622 0.0754,12.526 3.0208,24.739 5.6739,34.005"
         id="path60"
         style="fill:#356895;fill-opacity:1;fill-rule:nonzero;stroke:none"
         inkscape:connector-curvature="0" /><path
         d="m 122.085,101.015 0,7.63 c 0,2.205 -1.085,3.309 -3.254,3.309 -2.173,0 -3.261,-1.104 -3.261,-3.309 l 0,-7.63 c 0,-2.2041 1.088,-3.3138 3.261,-3.3138 2.169,0 3.254,1.1097 3.254,3.3138 z m 16.083,-13.7509 -19.337,0 c -5.911,0 -10.723,1.1597 -14.456,3.4679 -4.6191,2.8461 -6.9195,7.2508 -6.9195,13.229 l 0,0.58 c 0,5.97 2.3004,10.379 6.9195,13.225 3.733,2.309 8.545,3.471 14.456,3.471 -0.612,0 0.235,-0.1 2.545,-0.289 l 0,7.21 c 0,2.019 -1.021,3.023 -3.056,3.023 -1.837,0 -2.75,-1.004 -2.75,-3.023 l 0,-4.334 -18.1145,-0.115 c 0,5.458 1.5894,9.2 4.7815,11.569 3.185,2.369 8.246,3.552 15.17,3.552 6.917,0 11.974,-1.01 15.161,-3.024 3.731,-2.36 5.6,-6.306 5.6,-11.836 l 0,-36.7059"
         id="path62"
         style="fill:#356895;fill-opacity:1;fill-rule:nonzero;stroke:none"
         inkscape:connector-curvature="0" /><path
         d="m 198.478,80.3719 -22.373,0 0,46.5381 c 0,2.967 -1.18,4.458 -3.532,4.458 -2.1,0 -3.155,-1.521 -3.155,-4.554 l 0,-46.4421 -22.372,0 0,63.7271 36.214,0 c 10.151,0 15.218,-5.539 15.218,-16.603 l 0,-47.1241"
         id="path64"
         style="fill:#356895;fill-opacity:1;fill-rule:nonzero;stroke:none"
         inkscape:connector-curvature="0" /><path
         d="m 360.731,97.1922 0,31.7308 c 0,2.781 -1.374,4.176 -4.142,4.176 -2.76,0 -4.142,-1.395 -4.142,-4.176 l 0,-31.7308 c 0,-2.7813 1.382,-4.1703 4.142,-4.1703 2.768,0 4.142,1.389 4.142,4.1703 z m 22.817,3.7388 c 0,-7.529 -2.905,-13.081 -8.73,-16.656 -4.704,-2.9211 -10.782,-4.373 -18.229,-4.373 -7.447,0 -13.525,1.4519 -18.225,4.373 -5.828,3.575 -8.737,9.127 -8.737,16.656 l 0,22.946 c 0,7.525 2.909,13.078 8.737,16.656 4.7,2.913 10.778,4.373 18.225,4.373 7.447,0 13.525,-1.46 18.229,-4.373 5.825,-3.578 8.73,-9.131 8.73,-16.656 l 0,-22.946"
         id="path66"
         style="fill:#356895;fill-opacity:1;fill-rule:nonzero;stroke:none"
         inkscape:connector-curvature="0" /><path
         d="m 434.057,114.047 -17.76,0 0,10.274 c 0,2.161 -1.071,3.238 -3.193,3.238 -2.129,0 -3.197,-1.085 -3.197,-3.255 l 0,-37.1688 -17.76,0 0,50.5558 20.957,0 c 5.789,0 10.511,-1.132 14.171,-3.392 4.526,-2.777 6.782,-7.088 6.782,-12.929 l 0,-7.323"
         id="path68"
         style="fill:#356895;fill-opacity:1;fill-rule:nonzero;stroke:none"
         inkscape:connector-curvature="0" /><path
         d="m 435.639,77.4078 95.571,35.0162 -96.31,34.9 c 2.707,-9.417 5.977,-22.339 5.89,-35.326 -0.08,-12.521 -2.498,-25.3218 -5.151,-34.5902"
         id="path70"
         style="fill:#356895;fill-opacity:1;fill-rule:nonzero;stroke:none"
         inkscape:connector-curvature="0" /><path
         d="m 247.529,135.047 c 0,2.903 -2.445,4.36 -5.465,4.36 -3.005,0 -4.507,-1.457 -4.507,-4.36 l 0,-39.4591 c 0,-3.9231 1.647,-5.8867 4.954,-5.8867 3.307,0 4.961,2.0738 4.961,6.2117 l 0,11.1261 25.772,0 0.092,-1.871 c 0,-11.1008 -3.128,-19.016 -9.202,-23.7649 -5.047,-3.9453 -11.724,-5.914 -21.606,-5.914 -8.955,0 -16.257,1.7578 -21.912,5.2531 -6.998,4.3058 -10.502,10.975 -10.502,20.0198 l 0,27.574 c 0,9.044 3.504,15.71 10.502,20.016 5.669,3.508 12.978,5.255 21.94,5.255 9.467,0 16.879,-2.04 22.241,-6.127 5.558,-4.299 8.343,-10.466 8.343,-18.484 l 0,-12.054 -25.668,0 0.057,18.105"
         id="path72"
         style="fill:#356895;fill-opacity:1;fill-rule:nonzero;stroke:none"
         inkscape:connector-curvature="0" /><path
         d="m 247.627,70.9898 0,-33.7109 30.272,0 0,55.641 c -0.888,-3.0949 -3.963,-11.0418 -9.472,-15.0949 -7.25,-5.334 -13.416,-6.75 -20.8,-6.8352"
         id="path74"
         style="fill:#356895;fill-opacity:1;fill-rule:nonzero;stroke:none"
         inkscape:connector-curvature="0" /><path
         d="m 297.692,156.83 -19.038,0 0,42.029 -30.84,0 0,-40.195 c 5.33,-0.094 15.524,-2.135 21.905,-8.517 2.129,-2.129 4.161,-4.818 5.215,-6.785 1.635,-2.858 2.64,-6.101 3.024,-9.717 0.21,3.75 2.287,5.63 5.013,5.63 3.219,0 5.191,-2.042 5.191,-6.14 l 0,-71.2522 30.484,0 0,72.0682 c 0,15.249 -6.981,22.879 -20.954,22.879"
         id="path76"
         style="fill:#356895;fill-opacity:1;fill-rule:nonzero;stroke:none"
         inkscape:connector-curvature="0" /></g></g><g
     style="font-size:40px;font-style:normal;font-weight:normal;line-height:125%;letter-spacing:0px;word-spacing:0px;fill:#356895;fill-opacity:1;stroke:none;font-family:Sans"
     id="text4626"><path
       d="m 476.08863,189.69769 12.6,0 0,4.176 -8.064,0 0,6.192 7.308,0 0,4.176 -7.308,0 0,6.48 8.208,0 0,4.176 -12.744,0 0,-25.2"
       style="font-size:36px;font-variant:normal;font-weight:bold;font-stretch:condensed;fill:#356895;font-family:PT Sans Narrow;-inkscape-font-specification:PT Sans Narrow Bold Condensed"
       id="path3532" /><path
       d="m 497.10138,202.51369 -1.656,-4.428 -0.18,0 0.576,4.356 0,12.456 -4.284,0 0,-25.38 3.492,0 7.236,12.672 1.548,4.356 0.216,0 -0.576,-4.284 0,-12.564 4.284,0 0,25.38 -3.492,0 -7.164,-12.564"
       style="font-size:36px;font-variant:normal;font-weight:bold;font-stretch:condensed;fill:#356895;font-family:PT Sans Narrow;-inkscape-font-specification:PT Sans Narrow Bold Condensed"
       id="path3534" /><path
       d="m 518.59563,201.86569 7.776,0 0,11.16 c -0.88802,0.84 -1.93202,1.452 -3.132,1.836 -1.17601,0.36 -2.35201,0.54 -3.528,0.54 -1.41601,0 -2.70001,-0.252 -3.852,-0.756 -1.15201,-0.504 -2.13601,-1.284 -2.952,-2.34 -0.792,-1.08 -1.416,-2.436 -1.872,-4.068 -0.432,-1.65599 -0.648,-3.63599 -0.648,-5.94 0,-2.39999 0.264,-4.42798 0.792,-6.084 0.528,-1.65598 1.22399,-2.99998 2.088,-4.032 0.88799,-1.05598 1.90799,-1.81198 3.06,-2.268 1.17599,-0.47997 2.41199,-0.71997 3.708,-0.72 1.15199,3e-5 2.19599,0.10803 3.132,0.324 0.95998,0.19203 1.75198,0.42002 2.376,0.684 l -0.936,3.924 c -0.48002,-0.21598 -1.04402,-0.39598 -1.692,-0.54 -0.62402,-0.14398 -1.39201,-0.21598 -2.304,-0.216 -0.84001,2e-5 -1.60801,0.16802 -2.304,0.504 -0.67201,0.33602 -1.24801,0.86402 -1.728,1.584 -0.45601,0.72002 -0.81601,1.65602 -1.08,2.808 -0.24001,1.12802 -0.36001,2.48401 -0.36,4.068 -10e-6,3.04801 0.45599,5.29201 1.368,6.732 0.93599,1.44 2.15999,2.16 3.672,2.16 0.47999,0 0.93599,-0.072 1.368,-0.216 0.45599,-0.144 0.85198,-0.372 1.188,-0.684 l 0,-5.148 -4.14,-0.576 0,-2.736"
       style="font-size:36px;font-variant:normal;font-weight:bold;font-stretch:condensed;fill:#356895;font-family:PT Sans Narrow;-inkscape-font-specification:PT Sans Narrow Bold Condensed"
       id="path3536" /><path
       d="m 529.42994,189.69769 4.536,0 0,25.2 -4.536,0 0,-25.2"
       style="font-size:36px;font-variant:normal;font-weight:bold;font-stretch:condensed;fill:#356895;font-family:PT Sans Narrow;-inkscape-font-specification:PT Sans Narrow Bold Condensed"
       id="path3538" /><path
       d="m 543.15607,202.51369 -1.656,-4.428 -0.18,0 0.576,4.356 0,12.456 -4.284,0 0,-25.38 3.492,0 7.236,12.672 1.548,4.356 0.216,0 -0.576,-4.284 0,-12.564 4.284,0 0,25.38 -3.492,0 -7.164,-12.564"
       style="font-size:36px;font-variant:normal;font-weight:bold;font-stretch:condensed;fill:#356895;font-family:PT Sans Narrow;-inkscape-font-specification:PT Sans Narrow Bold Condensed"
       id="path3540" /><path
       d="m 557.01832,189.69769 12.6,0 0,4.176 -8.064,0 0,6.192 7.308,0 0,4.176 -7.308,0 0,6.48 8.208,0 0,4.176 -12.744,0 0,-25.2"
       style="font-size:36px;font-variant:normal;font-weight:bold;font-stretch:condensed;fill:#356895;font-family:PT Sans Narrow;-inkscape-font-specification:PT Sans Narrow Bold Condensed"
       id="path3542" /><path
       d="m 572.48707,189.69769 12.6,0 0,4.176 -8.064,0 0,6.192 7.308,0 0,4.176 -7.308,0 0,6.48 8.208,0 0,4.176 -12.744,0 0,-25.2"
       style="font-size:36px;font-variant:normal;font-weight:bold;font-stretch:condensed;fill:#356895;font-family:PT Sans Narrow;-inkscape-font-specification:PT Sans Narrow Bold Condensed"
       id="path3544" /><path
       d="m 587.95582,189.94969 c 0.98399,-0.21598 2.03999,-0.37197 3.168,-0.468 1.12799,-0.096 2.09999,-0.14397 2.916,-0.144 1.03199,3e-5 2.03999,0.10803 3.024,0.324 0.98398,0.19202 1.84798,0.56402 2.592,1.116 0.76798,0.52802 1.37998,1.26002 1.836,2.196 0.47998,0.91202 0.71998,2.07602 0.72,3.492 -2e-5,2.04002 -0.38402,3.70801 -1.152,5.004 -0.74402,1.27201 -1.77602,2.14801 -3.096,2.628 l 1.44,1.152 4.644,9.648 -5.22,0 -4.392,-9.936 -1.944,-0.468 0,10.404 -4.536,0 0,-24.948 m 4.536,11.448 1.548,0 c 1.12799,10e-6 1.97999,-0.33599 2.556,-1.008 0.57598,-0.69598 0.86398,-1.76398 0.864,-3.204 -2e-5,-1.07998 -0.24002,-1.95598 -0.72,-2.628 -0.48001,-0.69598 -1.23601,-1.04398 -2.268,-1.044 -0.38401,2e-5 -0.75601,0.012 -1.116,0.036 -0.36001,0.024 -0.64801,0.072 -0.864,0.144 l 0,7.704"
       style="font-size:36px;font-variant:normal;font-weight:bold;font-stretch:condensed;fill:#356895;font-family:PT Sans Narrow;-inkscape-font-specification:PT Sans Narrow Bold Condensed"
       id="path3546" /><path
       d="m 606.49244,189.69769 4.536,0 0,25.2 -4.536,0 0,-25.2"
       style="font-size:36px;font-variant:normal;font-weight:bold;font-stretch:condensed;fill:#356895;font-family:PT Sans Narrow;-inkscape-font-specification:PT Sans Narrow Bold Condensed"
       id="path3548" /><path
       d="m 620.21857,202.51369 -1.656,-4.428 -0.18,0 0.576,4.356 0,12.456 -4.284,0 0,-25.38 3.492,0 7.236,12.672 1.548,4.356 0.216,0 -0.576,-4.284 0,-12.564 4.284,0 0,25.38 -3.492,0 -7.164,-12.564"
       style="font-size:36px;font-variant:normal;font-weight:bold;font-stretch:condensed;fill:#356895;font-family:PT Sans Narrow;-inkscape-font-specification:PT Sans Narrow Bold Condensed"
       id="path3550" /><path
       d="m 641.71282,201.86569 7.776,0 0,11.16 c -0.88802,0.84 -1.93202,1.452 -3.132,1.836 -1.17602,0.36 -2.35202,0.54 -3.528,0.54 -1.41601,0 -2.70001,-0.252 -3.852,-0.756 -1.15201,-0.504 -2.13601,-1.284 -2.952,-2.34 -0.79201,-1.08 -1.41601,-2.436 -1.872,-4.068 -0.43201,-1.65599 -0.64801,-3.63599 -0.648,-5.94 -10e-6,-2.39999 0.26399,-4.42798 0.792,-6.084 0.52799,-1.65598 1.22399,-2.99998 2.088,-4.032 0.88799,-1.05598 1.90799,-1.81198 3.06,-2.268 1.17599,-0.47997 2.41199,-0.71997 3.708,-0.72 1.15198,3e-5 2.19598,0.10803 3.132,0.324 0.95998,0.19203 1.75198,0.42002 2.376,0.684 l -0.936,3.924 c -0.48002,-0.21598 -1.04402,-0.39598 -1.692,-0.54 -0.62402,-0.14398 -1.39202,-0.21598 -2.304,-0.216 -0.84001,2e-5 -1.60801,0.16802 -2.304,0.504 -0.67201,0.33602 -1.24801,0.86402 -1.728,1.584 -0.45601,0.72002 -0.81601,1.65602 -1.08,2.808 -0.24001,1.12802 -0.36001,2.48401 -0.36,4.068 -10e-6,3.04801 0.45599,5.29201 1.368,6.732 0.93599,1.44 2.15999,2.16 3.672,2.16 0.47998,0 0.93598,-0.072 1.368,-0.216 0.45598,-0.144 0.85198,-0.372 1.188,-0.684 l 0,-5.148 -4.14,-0.576 0,-2.736"
       style="font-size:36px;font-variant:normal;font-weight:bold;font-stretch:condensed;fill:#356895;font-family:PT Sans Narrow;-inkscape-font-specification:PT Sans Narrow Bold Condensed"
       id="path3552" /></g></svg>