<?xml version="1.0" encoding="UTF-8" standalone="no"?>
<svg
   xmlns:dc="http://purl.org/dc/elements/1.1/"
   xmlns:cc="http://creativecommons.org/ns#"
   xmlns:rdf="http://www.w3.org/1999/02/22-rdf-syntax-ns#"
   xmlns:svg="http://www.w3.org/2000/svg"
   xmlns="http://www.w3.org/2000/svg"
   xmlns:sodipodi="http://sodipodi.sourceforge.net/DTD/sodipodi-0.dtd"
   xmlns:inkscape="http://www.inkscape.org/namespaces/inkscape"
   width="97.917"
   height="33.619999"
   id="svg2"
   version="1.1"
   inkscape:version="0.91 r13725"
   sodipodi:docname="divio-logo.svg">
  <metadata
     id="metadata10">
    <rdf:RDF>
      <cc:Work
         rdf:about="">
        <dc:format>image/svg+xml</dc:format>
        <dc:type
           rdf:resource="http://purl.org/dc/dcmitype/StillImage" />
        <dc:title></dc:title>
      </cc:Work>
    </rdf:RDF>
  </metadata>
  <defs
     id="defs8" />
  <sodipodi:namedview
     pagecolor="#ffffff"
     bordercolor="#666666"
     borderopacity="1"
     objecttolerance="10"
     gridtolerance="10"
     guidetolerance="10"
     inkscape:pageopacity="0"
     inkscape:pageshadow="2"
     inkscape:window-width="1547"
     inkscape:window-height="662"
     id="namedview6"
     showgrid="false"
     showguides="false"
     fit-margin-top="10"
     fit-margin-left="10"
     fit-margin-right="10"
     fit-margin-bottom="10"
     inkscape:zoom="9.44"
     inkscape:cx="58.802475"
     inkscape:cy="21.023173"
     inkscape:window-x="0"
     inkscape:window-y="0"
     inkscape:window-maximized="0"
     inkscape:current-layer="svg2" />
  <path
     d="m 32.264,23.613 3.299,0 0,-13.613 -3.3,0 z M 47.992,23.614 39.762,10 l 3.759,0 5.754,9.886 5.433,-9.886 3.44,0 -7.874,13.613 -2.282,0 m 14.324,0 3.3,0 0,-13.613 -3.3,0 z m 22.268,-3.674 c 0,0.608 -0.636,1.1 -1.42,1.1 l -8.075,0 c -0.784,0 -1.42,-0.492 -1.42,-1.1 l 0,-6.326 c 0,-0.606 0.636,-1.099 1.42,-1.099 l 8.075,0 c 0.784,0 1.42,0.493 1.42,1.1 l 0,6.325 z m 2.366,-9.062 c -0.492,-0.43 -1.198,-0.872 -2.567,-0.872 l -10.51,0 c -1.373,0 -2.078,0.443 -2.57,0.872 -0.493,0.428 -0.967,1.06 -0.967,2.346 l 0,7.18 c 0,1.264 0.474,1.892 0.968,2.331 0.491,0.44 1.196,0.886 2.57,0.886 l 10.509,0 c 1.35,0 2.048,-0.446 2.552,-0.886 0.506,-0.44 0.982,-1.067 0.982,-2.331 l 0,-7.18 c 0,-1.286 -0.473,-1.918 -0.967,-2.346 z m -62.702,9.062 c 0,0.608 -0.636,1.1 -1.42,1.1 l -9.494,0 0,-7.426 0.004,-1.099 9.491,0 c 0.784,0 1.42,0.493 1.42,1.1 l 0,6.325 z M 10,10.003 l 0,13.616 14.047,0 c 1.35,0 2.049,-0.446 2.552,-0.886 0.506,-0.44 0.983,-1.067 0.983,-2.331 l 0,-7.179 c 0,-1.286 -0.474,-1.918 -0.968,-2.346 -0.492,-0.43 -1.197,-0.872 -2.567,-0.872 l -14.047,0 z"
     id="path4"
     inkscape:connector-curvature="0"
     style="fill:#1c416a;fill-opacity:1" />
</svg>
