<svg width="47.5" height="47.5" xmlns="http://www.w3.org/2000/svg">
 <metadata id="metadata8">image/svg+xml</metadata>
 <defs>
  <clipPath clipPathUnits="userSpaceOnUse" id="clipPath16">
   <path d="m0,38l38,0l0,-38l-38,0l0,38z" id="path18"/>
  </clipPath>
  <clipPath clipPathUnits="userSpaceOnUse" id="clipPath36">
   <path d="m0,38l38,0l0,-38l-38,0l0,38z" id="path38"/>
  </clipPath>
 </defs>
 <g>
  <title>background</title>
  <rect fill="none" id="canvas_background" height="402" width="582" y="-1" x="-1"/>
 </g>
 <g>
  <title>Layer 1</title>
  <g transform="matrix(1.25,0,0,-1.25,0,47.5) " id="g20">
   <path fill="#8899a6" fill-rule="nonzero" d="m20,16.7451c0,0 11.458,11.041 12.583,12.005c1.125,0.964 -0.708,2.25 -2.957,2.25l-10.124,0l-1.125,0l-1.125,0l-10.123,0c-1.125,0 -4.483,-0.73 -2.796,-2.417c1.204,-1.203 12.667,-11.838 12.667,-11.838l0,-10.123c0,0 -4.584,-2.34 -5.498,-2.883c-0.984,-0.562 -0.33,-1.462 0.063,-1.617c0.657,-0.258 2.254,-1.102 6.781,-1.102c4.64,0 6.202,0.914 6.764,1.102c0.217,0.072 1.347,0.932 0.011,1.723c-2.378,1.408 -5.121,2.777 -5.121,2.777l0,10.123z" id="path22"/>
  </g>
  <g transform="matrix(1.25,0,0,-1.25,0,47.5) " id="g24">
   <path fill="#ccd6dd" fill-rule="nonzero" d="m33,29.5576c0,-1.621 -6.547,-2.935 -14.623,-2.935c-8.076,0 -14.623,1.314 -14.623,2.935c0,1.622 6.547,2.935 14.623,2.935c8.076,0 14.623,-1.313 14.623,-2.935" id="path26"/>
  </g>
  <g transform="matrix(1.25,0,0,-1.25,0,47.5) " id="g28">
   <path fill="#7f3f00" fill-rule="nonzero" d="m5.4585,29.4665c1.265,-1.232 8.537,-7.235 11.699,-9.835c0.9,-0.742 2.134,-0.623 2.801,-0.123c0.667,0.5 11.167,9.583 11.167,9.583l-25.667,0.375z" id="path30"/>
  </g>
  <g transform="matrix(0.9220165759325027,0,0,-0.8521774411201477,1.2148506327737891,34.55381979935828) " id="svg_5">
   <path fill="#ccd6dd" fill-rule="nonzero" d="m37.880606,29.117551c0,-1.621 -6.547,-2.935 -14.623,-2.935c-8.076,0 -14.623,1.314 -14.623,2.935c0,1.622 6.547,2.935 14.623,2.935c8.076,0 14.623,-1.313 14.623,-2.935" id="svg_4"/>
  </g>
  <g transform="rotate(15.402806282043457 29.910877227783214,13.24649906158448) matrix(0.9023033827543259,0,0,-0.8594215661287308,6.112750687037192,39.59984792398927) " id="g40">
   <path fill="#662113" fill-rule="nonzero" d="m21.53886,22.454054c-0.237,0.125 -0.05,0.8 0.249,1.328l7.448,14.518c0.3,0.529 0.97,0.715 1.498,0.416c0.529,-0.299 0.714,-0.969 0.416,-1.498l-8.668,-13.885c-0.15,-0.264 -0.673,-1.02 -0.943,-0.879" id="path42"/>
  </g>
  <g transform="matrix(1.187925636768341,0,0,-1.187925636768341,1.0765619821654582,45.79081339066147) " id="g44">
   <path fill="#bf0000" fill-rule="nonzero" d="m21.240233,25.266119c1.133,-0.639 1.996,-2.636 1.2,-4.046c-0.797,-1.411 -2.954,-1.699 -4.087,-1.058c-1.132,0.639 -2.065,2.514 -1.199,4.045c0.865,1.532 2.953,1.699 4.086,1.059" id="path46"/>
  </g>
  <g transform="matrix(0.35193145473725984,0,0,-0.6132583973557537,6.137310009507178,26.86081052077771) " id="svg_7">
   <path fill="#ccd6dd" fill-rule="nonzero" d="m27.82568,26.235366c0,-1.621 -6.547,-2.935 -14.623,-2.935c-8.076,0 -14.623,1.314 -14.623,2.935c0,1.622 6.547,2.935 14.623,2.935c8.076,0 14.623,-1.313 14.623,-2.935" id="svg_6"/>
  </g>
  <g transform="matrix(0.16190525351536036,0,0,-0.5206479946704592,21.593523104977102,24.149892442869135) " id="svg_9">
   <path fill="#ccd6dd" fill-rule="nonzero" d="m110.760861,26.23537c0,-1.621 -6.547,-2.935 -14.623,-2.935c-8.076,0 -14.623,1.314 -14.623,2.935c0,1.622 6.547,2.935 14.623,2.935c8.076,0 14.623,-1.313 14.623,-2.935" id="svg_8"/>
  </g>
  <g transform="matrix(1.25,0,0,-1.25,0,47.5) " id="g48">
   <path fill="#ffffff" fill-rule="nonzero" d="m17.7969,26.2388c-3.775,0 -7.361,0.49 -10.737,1.471l-0.129,0.037c-0.53,0.154 -0.836,0.708 -0.683,1.239c0.153,0.53 0.705,0.836 1.238,0.683l0.132,-0.038c6.533,-1.899 13.943,-1.855 22.018,0.132c0.543,0.13 1.079,-0.196 1.21,-0.732c0.132,-0.537 -0.195,-1.079 -0.732,-1.21c-4.288,-1.055 -8.403,-1.582 -12.317,-1.582" id="path50"/>
  </g>
 </g>
</svg>