<svg width="140" height="152" xmlns="http://www.w3.org/2000/svg">
 <g>
  <title>background</title>
  <rect x="-1" y="-1" width="142" height="154" id="canvas_background" fill="none"/>
 </g>

 <g>
  <title>Layer 1</title>
  <path fill="#40C0E7" d="m103.98087,70.90166c1.18032,0 2.14953,-0.92414 2.14953,-2.07007l0,-15.45153c0,-1.14592 -0.96921,-2.07006 -2.14953,-2.07006l-45.95583,0l-5.56575,0l-15.44976,0c-1.18992,0 -2.14953,0.92414 -2.14953,2.07006l0,93.30988c0,1.14593 0.95961,2.07006 2.14953,2.07006l15.44016,0l5.57535,0l45.96543,0c1.18032,0 2.14953,-0.92413 2.14953,-2.07006l0,-15.45153c0,-1.14593 -0.96921,-2.07006 -2.14953,-2.07006l-43.8159,0l0,-20.37717l33.70158,0c1.18033,0 2.14953,-0.92414 2.14953,-2.07007l0,-15.45153c0,-1.14592 -0.9692,-2.07006 -2.14953,-2.07006l-33.70158,0l0,-18.29786l43.8063,0z" id="svg_1" stroke="null"/>
  <rect stroke="#000000" id="svg_2" height="19.000001" width="71.000006" y="21" x="34.5" stroke-opacity="0" stroke-width="9" fill="#40C0E7"/>
 </g>
</svg>