<svg width="140" height="140" xmlns="http://www.w3.org/2000/svg">
 <g>
  <title>background</title>
  <rect x="-1" y="-1" width="142" height="142" id="canvas_background" fill="none"/>
 </g>

 <g>
  <title>Layer 1</title>
  <g id="svg_18" stroke="null">
   <path fill="#d0d0d0" d="m138.95052,114.30035c0,12.50969 -10.29201,22.65017 -22.98351,22.65017l-91.93403,0c-12.69149,0 -22.98351,-10.14048 -22.98351,-22.65017l0,-90.6007c0,-12.50969 10.29202,-22.65017 22.98351,-22.65017l91.93403,0c12.6915,0 22.98351,10.14048 22.98351,22.65017l0,90.6007" id="svg_15" stroke="null"/>
   <path fill="#fff" d="m127.45877,99.95373c0,10.42814 -8.57515,18.87665 -19.15216,18.87665l-76.61323,0c-10.57701,0 -19.15216,-8.44851 -19.15216,-18.87665l0,-75.49756c0,-10.42814 8.57515,-18.87666 19.15216,-18.87666l76.61323,0c10.57701,0 19.15216,8.44852 19.15216,18.87666l0,75.49756z" id="svg_16" stroke="null"/>
   <path fill="#9aa0a5" d="m83.7901,98.44523l-14.03832,0l0,-52.1407c-5.12992,4.72482 -11.17459,8.21975 -18.13859,10.48476l0,-12.55499c3.66357,-1.18007 7.64432,-3.4247 11.93993,-6.7203c4.29792,-3.2956 7.24441,-7.1484 8.84406,-11.54706l11.39292,0l0,72.48055" id="svg_17" stroke="null"/>
  </g>
  <rect fill="#ffffff" stroke="#ffffff" stroke-width="17.5" x="34.5" y="16" width="70" height="91" id="svg_26"/>
  <text font-weight="bold" stroke="null" xml:space="preserve" text-anchor="start" font-family="Oswald, sans-serif" font-size="101" id="svg_1" y="100" x="39.165509" stroke-width="0" fill="#94989b">?</text>
 </g>
</svg>
