<?xml version="1.0" encoding="UTF-8" standalone="no"?>
<!-- Created with Inkscape (http://www.inkscape.org/) -->

<svg
   xmlns:dc="http://purl.org/dc/elements/1.1/"
   xmlns:cc="http://creativecommons.org/ns#"
   xmlns:rdf="http://www.w3.org/1999/02/22-rdf-syntax-ns#"
   xmlns:svg="http://www.w3.org/2000/svg"
   xmlns="http://www.w3.org/2000/svg"
   xmlns:sodipodi="http://sodipodi.sourceforge.net/DTD/sodipodi-0.dtd"
   xmlns:inkscape="http://www.inkscape.org/namespaces/inkscape"
   width="800"
   height="500"
   id="svg3197"
   version="1.1"
   inkscape:version="0.48.4 r9939"
   sodipodi:docname="datasources_white.svg">
  <defs
     id="defs3199" />
  <sodipodi:namedview
     id="base"
     pagecolor="#ffffff"
     bordercolor="#666666"
     borderopacity="1.0"
     inkscape:pageopacity="0.0"
     inkscape:pageshadow="2"
     inkscape:zoom="0.7"
     inkscape:cx="316.49337"
     inkscape:cy="161.09177"
     inkscape:document-units="px"
     inkscape:current-layer="layer2"
     showgrid="false"
     fit-margin-top="50"
     fit-margin-left="50"
     fit-margin-right="50"
     fit-margin-bottom="50"
     inkscape:window-width="1417"
     inkscape:window-height="865"
     inkscape:window-x="2518"
     inkscape:window-y="329"
     inkscape:window-maximized="0" />
  <metadata
     id="metadata3202">
    <rdf:RDF>
      <cc:Work
         rdf:about="">
        <dc:format>image/svg+xml</dc:format>
        <dc:type
           rdf:resource="http://purl.org/dc/dcmitype/StillImage" />
        <dc:title />
      </cc:Work>
    </rdf:RDF>
  </metadata>
  <g
     inkscape:groupmode="layer"
     id="layer2"
     inkscape:label="background"
     transform="translate(0,263.8987)"
     sodipodi:insensitive="true">
    <rect
       style="fill:#000000;fill-opacity:1;stroke:none"
       id="rect6346"
       width="802.85712"
       height="505"
       x="0.71428543"
       y="-261.75583" />
  </g>
  <g
     inkscape:label="Layer 1"
     inkscape:groupmode="layer"
     id="layer1"
     transform="translate(-67.020513,-95.033703)">
    <g
       id="g4021"
       transform="matrix(1.8422861,0,0,1.8422861,-95.707613,-545.21139)">
      <g
         transform="matrix(0.98999447,0,0,1.0920199,4.2895651,-45.967024)"
         id="g3942">
        <path
           inkscape:connector-curvature="0"
           style="fill:none;stroke:#ffffff;stroke-width:2;stroke-miterlimit:4;stroke-opacity:1;stroke-dasharray:none"
           d="m 426.43241,463.71396 0,54.25588 c 0,7.80445 15.31534,14.12055 34.20855,14.12055 18.89321,0 34.20856,-6.3161 34.20856,-14.12055 l 0,-54.25588 -68.41711,0 z"
           id="path4908-8-5" />
        <path
           transform="matrix(1.0006159,0,0,0.97593484,156.79769,-33.219862)"
           style="fill:#000000;fill-opacity:1;stroke:#ffffff;stroke-width:2.02388525;stroke-miterlimit:4;stroke-opacity:1"
           d="m 337.85912,509.20197 c 0,7.9969 -15.30655,14.47967 -34.18813,14.47967 -18.88158,0 -34.18813,-6.48277 -34.18813,-14.47967 0,-7.99691 15.30655,-14.47968 34.18813,-14.47968 18.88158,0 34.18813,6.48277 34.18813,14.47968 z"
           id="path4910-6-2"
           inkscape:connector-curvature="0" />
      </g>
      <g
         style="font-size:40px;font-style:normal;font-variant:normal;font-weight:bold;font-stretch:condensed;line-height:125%;letter-spacing:0px;word-spacing:0px;fill:#ffffff;fill-opacity:1;stroke:none;font-family:PT Sans Narrow;-inkscape-font-specification:PT Sans Narrow Bold Condensed"
         id="text3220">
        <path
           d="m 433.72642,422.7154 c -1e-5,0.61601 0.007,1.232 0.022,1.848 0.0147,0.616 0.0733,1.298 0.176,2.046 l -1.848,0 -0.352,-1.276 -0.088,0 c -0.49868,1.02667 -1.37134,1.54 -2.618,1.54 -1.11467,0 -1.99467,-0.44 -2.64,-1.32 -0.63067,-0.88 -0.946,-2.30999 -0.946,-4.29 0,-1.93599 0.34466,-3.40266 1.034,-4.4 0.68933,-1.01199 1.71599,-1.51799 3.08,-1.518 0.35199,1e-5 0.64532,0.022 0.88,0.066 0.23466,0.044 0.46199,0.11735 0.682,0.22 l 0,-4.444 2.618,0 0,11.528 m -4.092,1.76 c 0.39599,0 0.71132,-0.0953 0.946,-0.286 0.23466,-0.20533 0.41066,-0.49866 0.528,-0.88 l 0,-5.192 c -0.14668,-0.13199 -0.31534,-0.22732 -0.506,-0.286 -0.17601,-0.0587 -0.41068,-0.088 -0.704,-0.088 -0.58668,10e-6 -1.02667,0.26401 -1.32,0.792 -0.29334,0.52801 -0.44001,1.46668 -0.44,2.816 -10e-6,1.01201 0.11733,1.78934 0.352,2.332 0.24933,0.528 0.63066,0.792 1.144,0.792"
           style="font-size:22px;fill:#ffffff"
           id="path6440"
           inkscape:connector-curvature="0" />
        <path
           d="m 435.64729,416.2474 c 0.44,-0.26399 0.99,-0.47665 1.65,-0.638 0.66,-0.16132 1.408,-0.24199 2.244,-0.242 1.24666,1e-5 2.11199,0.32268 2.596,0.968 0.49866,0.64535 0.74799,1.56201 0.748,2.75 -10e-6,0.68934 -0.022,1.37134 -0.066,2.046 -0.0293,0.66001 -0.0513,1.31267 -0.066,1.958 -0.0147,0.63067 -0.007,1.24667 0.022,1.848 0.044,0.58667 0.14666,1.144 0.308,1.672 l -2.134,0 -0.418,-1.342 -0.088,0 c -0.23467,0.42534 -0.56467,0.77734 -0.99,1.056 -0.42534,0.27867 -0.96067,0.418 -1.606,0.418 -0.86533,0 -1.54733,-0.286 -2.046,-0.858 -0.49867,-0.58666 -0.748,-1.364 -0.748,-2.332 0,-1.31999 0.46933,-2.25866 1.408,-2.816 0.93866,-0.55732 2.20733,-0.79199 3.806,-0.704 0.0733,-0.85066 0.0147,-1.46666 -0.176,-1.848 -0.176,-0.38132 -0.56467,-0.57199 -1.166,-0.572 -0.44,10e-6 -0.89467,0.0513 -1.364,0.154 -0.46933,0.10268 -0.88733,0.24934 -1.254,0.44 l -0.66,-1.958 m 3.146,8.25 c 0.396,0 0.71866,-0.0953 0.968,-0.286 0.24933,-0.20533 0.43266,-0.42533 0.55,-0.66 l 0,-1.826 c -0.33734,-0.044 -0.66,-0.0513 -0.968,-0.022 -0.308,0.0293 -0.57934,0.0953 -0.814,0.198 -0.23467,0.10267 -0.42534,0.25667 -0.572,0.462 -0.132,0.19067 -0.198,0.44001 -0.198,0.748 0,0.45467 0.088,0.79934 0.264,1.034 0.19066,0.23467 0.44733,0.352 0.77,0.352"
           style="font-size:22px;fill:#ffffff"
           id="path6442"
           inkscape:connector-curvature="0" />
        <path
           d="m 443.8337,415.5874 1.21,0 0,-2.068 2.618,-0.814 0,2.882 2.134,0 0,2.332 -2.134,0 0,4.796 c -10e-6,0.63067 0.0587,1.07801 0.176,1.342 0.13199,0.264 0.35933,0.396 0.682,0.396 0.21999,0 0.41799,-0.022 0.594,-0.066 0.17599,-0.044 0.36666,-0.11 0.572,-0.198 l 0.33,2.09 c -0.32268,0.16134 -0.69668,0.29334 -1.122,0.396 -0.42534,0.11734 -0.87267,0.176 -1.342,0.176 -0.83601,0 -1.46667,-0.242 -1.892,-0.726 -0.41067,-0.484 -0.616,-1.298 -0.616,-2.442 l 0,-5.764 -1.21,0 0,-2.332"
           style="font-size:22px;fill:#ffffff"
           id="path6444"
           inkscape:connector-curvature="0" />
        <path
           d="m 451.11604,416.2474 c 0.44,-0.26399 0.99,-0.47665 1.65,-0.638 0.66,-0.16132 1.408,-0.24199 2.244,-0.242 1.24666,1e-5 2.11199,0.32268 2.596,0.968 0.49866,0.64535 0.74799,1.56201 0.748,2.75 -10e-6,0.68934 -0.022,1.37134 -0.066,2.046 -0.0293,0.66001 -0.0513,1.31267 -0.066,1.958 -0.0147,0.63067 -0.007,1.24667 0.022,1.848 0.044,0.58667 0.14666,1.144 0.308,1.672 l -2.134,0 -0.418,-1.342 -0.088,0 c -0.23467,0.42534 -0.56467,0.77734 -0.99,1.056 -0.42534,0.27867 -0.96067,0.418 -1.606,0.418 -0.86533,0 -1.54733,-0.286 -2.046,-0.858 -0.49867,-0.58666 -0.748,-1.364 -0.748,-2.332 0,-1.31999 0.46933,-2.25866 1.408,-2.816 0.93866,-0.55732 2.20733,-0.79199 3.806,-0.704 0.0733,-0.85066 0.0147,-1.46666 -0.176,-1.848 -0.176,-0.38132 -0.56467,-0.57199 -1.166,-0.572 -0.44,10e-6 -0.89467,0.0513 -1.364,0.154 -0.46933,0.10268 -0.88733,0.24934 -1.254,0.44 l -0.66,-1.958 m 3.146,8.25 c 0.396,0 0.71866,-0.0953 0.968,-0.286 0.24933,-0.20533 0.43266,-0.42533 0.55,-0.66 l 0,-1.826 c -0.33734,-0.044 -0.66,-0.0513 -0.968,-0.022 -0.308,0.0293 -0.57934,0.0953 -0.814,0.198 -0.23467,0.10267 -0.42534,0.25667 -0.572,0.462 -0.132,0.19067 -0.198,0.44001 -0.198,0.748 0,0.45467 0.088,0.79934 0.264,1.034 0.19066,0.23467 0.44733,0.352 0.77,0.352"
           style="font-size:22px;fill:#ffffff"
           id="path6446"
           inkscape:connector-curvature="0" />
        <path
           d="m 460.16045,411.1874 2.618,0 0,5.104 0.066,0 c 0.52799,-0.64532 1.28333,-0.96799 2.266,-0.968 1.04132,1e-5 1.84799,0.43268 2.42,1.298 0.58665,0.86534 0.87999,2.25868 0.88,4.18 -1e-5,2.08267 -0.41068,3.61534 -1.232,4.598 -0.82134,0.968 -1.94334,1.452 -3.366,1.452 -0.77734,0 -1.49601,-0.0733 -2.156,-0.22 -0.64534,-0.14666 -1.144,-0.308 -1.496,-0.484 l 0,-14.96 m 2.618,13.024 c 0.30799,0.16134 0.71133,0.242 1.21,0.242 0.55733,0 0.98266,-0.264 1.276,-0.792 0.29332,-0.54266 0.43999,-1.44466 0.44,-2.706 -1e-5,-1.11466 -0.11734,-1.92866 -0.352,-2.442 -0.23468,-0.52799 -0.60134,-0.79199 -1.1,-0.792 -0.73334,10e-6 -1.22467,0.38134 -1.474,1.144 l 0,5.346"
           style="font-size:22px;fill:#ffffff"
           id="path6448"
           inkscape:connector-curvature="0" />
        <path
           d="m 469.93635,416.2474 c 0.44,-0.26399 0.99,-0.47665 1.65,-0.638 0.66,-0.16132 1.408,-0.24199 2.244,-0.242 1.24666,1e-5 2.112,0.32268 2.596,0.968 0.49866,0.64535 0.748,1.56201 0.748,2.75 0,0.68934 -0.022,1.37134 -0.066,2.046 -0.0293,0.66001 -0.0513,1.31267 -0.066,1.958 -0.0147,0.63067 -0.007,1.24667 0.022,1.848 0.044,0.58667 0.14666,1.144 0.308,1.672 l -2.134,0 -0.418,-1.342 -0.088,0 c -0.23467,0.42534 -0.56467,0.77734 -0.99,1.056 -0.42533,0.27867 -0.96067,0.418 -1.606,0.418 -0.86533,0 -1.54733,-0.286 -2.046,-0.858 -0.49866,-0.58666 -0.748,-1.364 -0.748,-2.332 0,-1.31999 0.46934,-2.25866 1.408,-2.816 0.93867,-0.55732 2.20733,-0.79199 3.806,-0.704 0.0733,-0.85066 0.0147,-1.46666 -0.176,-1.848 -0.176,-0.38132 -0.56467,-0.57199 -1.166,-0.572 -0.44,10e-6 -0.89467,0.0513 -1.364,0.154 -0.46933,0.10268 -0.88733,0.24934 -1.254,0.44 l -0.66,-1.958 m 3.146,8.25 c 0.396,0 0.71867,-0.0953 0.968,-0.286 0.24933,-0.20533 0.43266,-0.42533 0.55,-0.66 l 0,-1.826 c -0.33734,-0.044 -0.66,-0.0513 -0.968,-0.022 -0.308,0.0293 -0.57933,0.0953 -0.814,0.198 -0.23467,0.10267 -0.42533,0.25667 -0.572,0.462 -0.132,0.19067 -0.198,0.44001 -0.198,0.748 0,0.45467 0.088,0.79934 0.264,1.034 0.19067,0.23467 0.44733,0.352 0.77,0.352"
           style="font-size:22px;fill:#ffffff"
           id="path6450"
           inkscape:connector-curvature="0" />
        <path
           d="m 482.67676,423.6614 c -10e-6,-0.30799 -0.10267,-0.56466 -0.308,-0.77 -0.19067,-0.21999 -0.44,-0.41799 -0.748,-0.594 -0.308,-0.19066 -0.638,-0.38133 -0.99,-0.572 -0.33734,-0.19066 -0.66,-0.42533 -0.968,-0.704 -0.308,-0.27866 -0.56467,-0.61599 -0.77,-1.012 -0.19067,-0.39599 -0.286,-0.89466 -0.286,-1.496 0,-1.02666 0.27867,-1.81865 0.836,-2.376 0.55733,-0.55732 1.37866,-0.83599 2.464,-0.836 0.64533,10e-6 1.25399,0.0734 1.826,0.22 0.57199,0.13201 1.02666,0.30068 1.364,0.506 l -0.616,2.024 c -0.27867,-0.11732 -0.61601,-0.22732 -1.012,-0.33 -0.39601,-0.11732 -0.78467,-0.17599 -1.166,-0.176 -0.71867,1e-5 -1.078,0.30068 -1.078,0.902 0,0.27868 0.0953,0.51334 0.286,0.704 0.20533,0.17601 0.462,0.35201 0.77,0.528 0.30799,0.17601 0.63066,0.35934 0.968,0.55 0.35199,0.19068 0.68199,0.43267 0.99,0.726 0.30799,0.27867 0.55733,0.62334 0.748,1.034 0.20533,0.41067 0.30799,0.91667 0.308,1.518 -10e-6,1.012 -0.30801,1.826 -0.924,2.442 -0.61601,0.616 -1.53267,0.924 -2.75,0.924 -0.60134,0 -1.19534,-0.0733 -1.782,-0.22 -0.572,-0.14666 -1.034,-0.33733 -1.386,-0.572 l 0.726,-2.112 c 0.308,0.176 0.66,0.33 1.056,0.462 0.41066,0.132 0.836,0.198 1.276,0.198 0.33733,0 0.616,-0.0733 0.836,-0.22 0.21999,-0.16133 0.32999,-0.41066 0.33,-0.748"
           style="font-size:22px;fill:#ffffff"
           id="path6452"
           inkscape:connector-curvature="0" />
        <path
           d="m 494.10817,425.7734 c -0.36668,0.32267 -0.86535,0.58667 -1.496,0.792 -0.63068,0.20534 -1.29068,0.308 -1.98,0.308 -0.76268,0 -1.42267,-0.132 -1.98,-0.396 -0.54267,-0.264 -0.99001,-0.64533 -1.342,-1.144 -0.35201,-0.49866 -0.61601,-1.1 -0.792,-1.804 -0.16134,-0.71866 -0.242,-1.53266 -0.242,-2.442 0,-1.97999 0.38866,-3.43932 1.166,-4.378 0.79199,-0.95332 1.88466,-1.42999 3.278,-1.43 0.46932,10e-6 0.92399,0.0734 1.364,0.22 0.43999,0.13201 0.82866,0.36668 1.166,0.704 0.35199,0.32268 0.63065,0.76268 0.836,1.32 0.21999,0.54268 0.32999,1.23201 0.33,2.068 -1e-5,0.32268 -0.022,0.66734 -0.066,1.034 -0.0293,0.36667 -0.0807,0.76267 -0.154,1.188 l -5.346,0 c 0.0293,0.90934 0.21999,1.60601 0.572,2.09 0.35199,0.484 0.91666,0.726 1.694,0.726 0.46932,0 0.89466,-0.0733 1.276,-0.22 0.39599,-0.14666 0.69666,-0.30066 0.902,-0.462 l 0.814,1.826 m -3.432,-8.25 c -0.55734,1e-5 -0.97534,0.22734 -1.254,0.682 -0.27867,0.44001 -0.44001,1.06334 -0.484,1.87 l 3.036,0 c 0.044,-0.83599 -0.044,-1.46666 -0.264,-1.892 -0.22001,-0.43999 -0.56468,-0.65999 -1.034,-0.66"
           style="font-size:22px;fill:#ffffff"
           id="path6454"
           inkscape:connector-curvature="0" />
      </g>
    </g>
    <g
       id="g4028"
       transform="matrix(1.8422861,0,0,1.8422861,-84.678859,-545.21139)">
      <g
         transform="translate(0,-0.06005096)"
         id="g4014">
        <path
           style="fill:none;stroke:#ffffff;stroke-width:2.1959939;stroke-miterlimit:4;stroke-opacity:1"
           d="m 267.51031,436.20203 85.9898,0 0,107.804 -85.9898,0 z"
           id="rect4129"
           inkscape:connector-curvature="0" />
        <g
           style="font-size:40px;font-style:normal;font-variant:normal;font-weight:bold;font-stretch:condensed;line-height:125%;letter-spacing:0px;word-spacing:0px;fill:#ffffff;fill-opacity:1;stroke:none;font-family:PT Sans Narrow;-inkscape-font-specification:PT Sans Narrow Bold Condensed"
           id="text4114">
          <path
             d="m 284.65849,462.35123 c -10e-6,0.504 0.006,1.008 0.018,1.512 0.012,0.504 0.06,1.062 0.144,1.674 l -1.512,0 -0.288,-1.044 -0.072,0 c -0.40801,0.84 -1.12201,1.26 -2.142,1.26 -0.91201,0 -1.63201,-0.36 -2.16,-1.08 -0.51601,-0.72 -0.77401,-1.89 -0.774,-3.51 -1e-5,-1.584 0.28199,-2.784 0.846,-3.6 0.56399,-0.828 1.40399,-1.24199 2.52,-1.242 0.28799,10e-6 0.52799,0.018 0.72,0.054 0.19199,0.036 0.37799,0.096 0.558,0.18 l 0,-3.636 2.142,0 0,9.432 m -3.348,1.44 c 0.32399,0 0.58199,-0.078 0.774,-0.234 0.19199,-0.168 0.33599,-0.408 0.432,-0.72 l 0,-4.248 c -0.12001,-0.108 -0.25801,-0.186 -0.414,-0.234 -0.14401,-0.048 -0.33601,-0.072 -0.576,-0.072 -0.48001,0 -0.84001,0.216 -1.08,0.648 -0.24001,0.432 -0.36001,1.2 -0.36,2.304 -1e-5,0.828 0.096,1.464 0.288,1.908 0.20399,0.432 0.51599,0.648 0.936,0.648"
             style="font-size:18px;fill:#ffffff"
             id="path6377"
             inkscape:connector-curvature="0" />
          <path
             d="m 286.23011,457.05923 c 0.36,-0.216 0.81,-0.39 1.35,-0.522 0.54,-0.13199 1.152,-0.19799 1.836,-0.198 1.02,1e-5 1.72799,0.264 2.124,0.792 0.40799,0.528 0.61199,1.278 0.612,2.25 -10e-6,0.564 -0.018,1.122 -0.054,1.674 -0.024,0.54 -0.042,1.074 -0.054,1.602 -0.012,0.516 -0.006,1.02 0.018,1.512 0.036,0.48 0.11999,0.936 0.252,1.368 l -1.746,0 -0.342,-1.098 -0.072,0 c -0.192,0.348 -0.462,0.636 -0.81,0.864 -0.348,0.228 -0.786,0.342 -1.314,0.342 -0.708,0 -1.266,-0.234 -1.674,-0.702 -0.408,-0.48 -0.612,-1.116 -0.612,-1.908 0,-1.08 0.384,-1.848 1.152,-2.304 0.768,-0.456 1.806,-0.648 3.114,-0.576 0.06,-0.696 0.012,-1.2 -0.144,-1.512 -0.144,-0.312 -0.462,-0.468 -0.954,-0.468 -0.36,0 -0.732,0.042 -1.116,0.126 -0.384,0.084 -0.726,0.204 -1.026,0.36 l -0.54,-1.602 m 2.574,6.75 c 0.324,0 0.588,-0.078 0.792,-0.234 0.204,-0.168 0.354,-0.348 0.45,-0.54 l 0,-1.494 c -0.276,-0.036 -0.54,-0.042 -0.792,-0.018 -0.252,0.024 -0.474,0.078 -0.666,0.162 -0.192,0.084 -0.348,0.21 -0.468,0.378 -0.108,0.156 -0.162,0.36 -0.162,0.612 0,0.372 0.072,0.654 0.216,0.846 0.156,0.192 0.366,0.288 0.63,0.288"
             style="font-size:18px;fill:#ffffff"
             id="path6379"
             inkscape:connector-curvature="0" />
          <path
             d="m 292.92808,456.51923 0.99,0 0,-1.692 2.142,-0.666 0,2.358 1.746,0 0,1.908 -1.746,0 0,3.924 c 0,0.516 0.048,0.882 0.144,1.098 0.108,0.216 0.294,0.324 0.558,0.324 0.18,0 0.34199,-0.018 0.486,-0.054 0.14399,-0.036 0.29999,-0.09 0.468,-0.162 l 0.27,1.71 c -0.26401,0.132 -0.57001,0.24 -0.918,0.324 -0.348,0.096 -0.714,0.144 -1.098,0.144 -0.684,0 -1.2,-0.198 -1.548,-0.594 -0.336,-0.396 -0.504,-1.062 -0.504,-1.998 l 0,-4.716 -0.99,0 0,-1.908"
             style="font-size:18px;fill:#ffffff"
             id="path6381"
             inkscape:connector-curvature="0" />
          <path
             d="m 298.88636,457.05923 c 0.36,-0.216 0.81,-0.39 1.35,-0.522 0.54,-0.13199 1.152,-0.19799 1.836,-0.198 1.02,1e-5 1.72799,0.264 2.124,0.792 0.40799,0.528 0.61199,1.278 0.612,2.25 -10e-6,0.564 -0.018,1.122 -0.054,1.674 -0.024,0.54 -0.042,1.074 -0.054,1.602 -0.012,0.516 -0.006,1.02 0.018,1.512 0.036,0.48 0.11999,0.936 0.252,1.368 l -1.746,0 -0.342,-1.098 -0.072,0 c -0.192,0.348 -0.462,0.636 -0.81,0.864 -0.348,0.228 -0.786,0.342 -1.314,0.342 -0.708,0 -1.266,-0.234 -1.674,-0.702 -0.408,-0.48 -0.612,-1.116 -0.612,-1.908 0,-1.08 0.384,-1.848 1.152,-2.304 0.768,-0.456 1.806,-0.648 3.114,-0.576 0.06,-0.696 0.012,-1.2 -0.144,-1.512 -0.144,-0.312 -0.462,-0.468 -0.954,-0.468 -0.36,0 -0.732,0.042 -1.116,0.126 -0.384,0.084 -0.726,0.204 -1.026,0.36 l -0.54,-1.602 m 2.574,6.75 c 0.324,0 0.588,-0.078 0.792,-0.234 0.204,-0.168 0.354,-0.348 0.45,-0.54 l 0,-1.494 c -0.276,-0.036 -0.54,-0.042 -0.792,-0.018 -0.252,0.024 -0.474,0.078 -0.666,0.162 -0.192,0.084 -0.348,0.21 -0.468,0.378 -0.108,0.156 -0.162,0.36 -0.162,0.612 0,0.372 0.072,0.654 0.216,0.846 0.156,0.192 0.366,0.288 0.63,0.288"
             style="font-size:18px;fill:#ffffff"
             id="path6383"
             inkscape:connector-curvature="0" />
          <path
             d="m 306.10633,464.34923 c 0,-0.408 0.12,-0.726 0.36,-0.954 0.24,-0.24 0.54,-0.36 0.9,-0.36 0.456,0 0.804,0.162 1.044,0.486 0.252,0.324 0.378,0.774 0.378,1.35 0,0.528 -0.078,0.984 -0.234,1.368 -0.144,0.38399 -0.324,0.70199 -0.54,0.954 -0.216,0.26399 -0.45,0.47399 -0.702,0.63 -0.24,0.15599 -0.45,0.26999 -0.63,0.342 l -0.666,-0.864 c 0.276,-0.14401 0.522,-0.37801 0.738,-0.702 0.216,-0.312 0.336,-0.63 0.36,-0.954 -0.252,0.012 -0.486,-0.084 -0.702,-0.288 -0.204,-0.216 -0.306,-0.552 -0.306,-1.008"
             style="font-size:18px;fill:#ffffff"
             id="path6385"
             inkscape:connector-curvature="0" />
          <path
             d="m 312.57311,461.21723 0.216,1.422 0.072,0 0.198,-1.44 1.116,-4.68 2.304,0 -3.024,9.09 -1.44,0 -3.186,-9.09 2.502,0 1.242,4.698"
             style="font-size:18px;fill:#ffffff"
             id="path6387"
             inkscape:connector-curvature="0" />
          <path
             d="m 317.02699,457.05923 c 0.35999,-0.216 0.80999,-0.39 1.35,-0.522 0.53999,-0.13199 1.15199,-0.19799 1.836,-0.198 1.01999,1e-5 1.72799,0.264 2.124,0.792 0.40799,0.528 0.61199,1.278 0.612,2.25 -10e-6,0.564 -0.018,1.122 -0.054,1.674 -0.024,0.54 -0.042,1.074 -0.054,1.602 -0.012,0.516 -0.006,1.02 0.018,1.512 0.036,0.48 0.11999,0.936 0.252,1.368 l -1.746,0 -0.342,-1.098 -0.072,0 c -0.19201,0.348 -0.46201,0.636 -0.81,0.864 -0.34801,0.228 -0.78601,0.342 -1.314,0.342 -0.70801,0 -1.26601,-0.234 -1.674,-0.702 -0.40801,-0.48 -0.612,-1.116 -0.612,-1.908 0,-1.08 0.38399,-1.848 1.152,-2.304 0.76799,-0.456 1.80599,-0.648 3.114,-0.576 0.06,-0.696 0.012,-1.2 -0.144,-1.512 -0.14401,-0.312 -0.46201,-0.468 -0.954,-0.468 -0.36001,0 -0.73201,0.042 -1.116,0.126 -0.38401,0.084 -0.72601,0.204 -1.026,0.36 l -0.54,-1.602 m 2.574,6.75 c 0.32399,0 0.58799,-0.078 0.792,-0.234 0.20399,-0.168 0.35399,-0.348 0.45,-0.54 l 0,-1.494 c -0.27601,-0.036 -0.54001,-0.042 -0.792,-0.018 -0.25201,0.024 -0.47401,0.078 -0.666,0.162 -0.19201,0.084 -0.34801,0.21 -0.468,0.378 -0.10801,0.156 -0.16201,0.36 -0.162,0.612 -1e-5,0.372 0.072,0.654 0.216,0.846 0.15599,0.192 0.36599,0.288 0.63,0.288"
             style="font-size:18px;fill:#ffffff"
             id="path6389"
             inkscape:connector-curvature="0" />
          <path
             d="m 326.60495,462.60323 c 0,0.42 0.042,0.72 0.126,0.9 0.084,0.18 0.222,0.27 0.414,0.27 0.108,0 0.216,-0.012 0.324,-0.036 0.12,-0.024 0.252,-0.066 0.396,-0.126 l 0.198,1.728 c -0.144,0.096 -0.39,0.186 -0.738,0.27 -0.348,0.084 -0.702,0.126 -1.062,0.126 -0.6,0 -1.05,-0.15 -1.35,-0.45 -0.3,-0.3 -0.45,-0.81 -0.45,-1.53 l 0,-10.836 2.142,0 0,9.684"
             style="font-size:18px;fill:#ffffff"
             id="path6391"
             inkscape:connector-curvature="0" />
          <path
             d="m 330.85633,456.51923 0,5.382 c 0,0.708 0.066,1.2 0.198,1.476 0.132,0.276 0.372,0.414 0.72,0.414 0.336,0 0.61799,-0.12 0.846,-0.36 0.22799,-0.252 0.38999,-0.552 0.486,-0.9 l 0,-6.012 2.142,0 0,6.264 c -1e-5,0.492 0.018,0.978 0.054,1.458 0.036,0.468 0.10199,0.894 0.198,1.278 l -1.62,0 -0.378,-1.224 -0.054,0 c -0.22801,0.42 -0.54001,0.768 -0.936,1.044 -0.38401,0.276 -0.864,0.414 -1.44,0.414 -0.372,0 -0.702,-0.054 -0.99,-0.162 -0.288,-0.096 -0.534,-0.27 -0.738,-0.522 -0.204,-0.252 -0.36,-0.594 -0.468,-1.026 -0.108,-0.444 -0.162,-1.002 -0.162,-1.674 l 0,-5.85 2.142,0"
             style="font-size:18px;fill:#ffffff"
             id="path6393"
             inkscape:connector-curvature="0" />
          <path
             d="m 342.88595,464.85323 c -0.3,0.264 -0.708,0.48 -1.224,0.648 -0.516,0.168 -1.056,0.252 -1.62,0.252 -0.624,0 -1.164,-0.108 -1.62,-0.324 -0.444,-0.216 -0.81,-0.528 -1.098,-0.936 -0.288,-0.408 -0.504,-0.9 -0.648,-1.476 -0.132,-0.588 -0.198,-1.254 -0.198,-1.998 0,-1.62 0.318,-2.814 0.954,-3.582 0.648,-0.78 1.542,-1.16999 2.682,-1.17 0.384,1e-5 0.756,0.06 1.116,0.18 0.36,0.10801 0.678,0.3 0.954,0.576 0.288,0.264 0.516,0.624 0.684,1.08 0.18,0.444 0.27,1.008 0.27,1.692 0,0.264 -0.018,0.546 -0.054,0.846 -0.024,0.3 -0.066,0.624 -0.126,0.972 l -4.374,0 c 0.024,0.744 0.18,1.314 0.468,1.71 0.288,0.396 0.75,0.594 1.386,0.594 0.384,0 0.732,-0.06 1.044,-0.18 0.324,-0.12 0.57,-0.246 0.738,-0.378 l 0.666,1.494 m -2.808,-6.75 c -0.456,0 -0.798,0.186 -1.026,0.558 -0.228,0.36 -0.36,0.87 -0.396,1.53 l 2.484,0 c 0.036,-0.684 -0.036,-1.2 -0.216,-1.548 -0.18,-0.36 -0.462,-0.54 -0.846,-0.54"
             style="font-size:18px;fill:#ffffff"
             id="path6395"
             inkscape:connector-curvature="0" />
          <path
             d="m 284.65849,484.85123 c -10e-6,0.504 0.006,1.008 0.018,1.512 0.012,0.504 0.06,1.062 0.144,1.674 l -1.512,0 -0.288,-1.044 -0.072,0 c -0.40801,0.84 -1.12201,1.26 -2.142,1.26 -0.91201,0 -1.63201,-0.36 -2.16,-1.08 -0.51601,-0.72 -0.77401,-1.89 -0.774,-3.51 -1e-5,-1.584 0.28199,-2.784 0.846,-3.6 0.56399,-0.828 1.40399,-1.24199 2.52,-1.242 0.28799,10e-6 0.52799,0.018 0.72,0.054 0.19199,0.036 0.37799,0.096 0.558,0.18 l 0,-3.636 2.142,0 0,9.432 m -3.348,1.44 c 0.32399,0 0.58199,-0.078 0.774,-0.234 0.19199,-0.168 0.33599,-0.408 0.432,-0.72 l 0,-4.248 c -0.12001,-0.108 -0.25801,-0.186 -0.414,-0.234 -0.14401,-0.048 -0.33601,-0.072 -0.576,-0.072 -0.48001,0 -0.84001,0.216 -1.08,0.648 -0.24001,0.432 -0.36001,1.2 -0.36,2.304 -1e-5,0.828 0.096,1.464 0.288,1.908 0.20399,0.432 0.51599,0.648 0.936,0.648"
             style="font-size:18px;fill:#ffffff"
             id="path6397"
             inkscape:connector-curvature="0" />
          <path
             d="m 286.23011,479.55923 c 0.36,-0.216 0.81,-0.39 1.35,-0.522 0.54,-0.13199 1.152,-0.19799 1.836,-0.198 1.02,1e-5 1.72799,0.264 2.124,0.792 0.40799,0.528 0.61199,1.278 0.612,2.25 -10e-6,0.564 -0.018,1.122 -0.054,1.674 -0.024,0.54 -0.042,1.074 -0.054,1.602 -0.012,0.516 -0.006,1.02 0.018,1.512 0.036,0.48 0.11999,0.936 0.252,1.368 l -1.746,0 -0.342,-1.098 -0.072,0 c -0.192,0.348 -0.462,0.636 -0.81,0.864 -0.348,0.228 -0.786,0.342 -1.314,0.342 -0.708,0 -1.266,-0.234 -1.674,-0.702 -0.408,-0.48 -0.612,-1.116 -0.612,-1.908 0,-1.08 0.384,-1.848 1.152,-2.304 0.768,-0.456 1.806,-0.648 3.114,-0.576 0.06,-0.696 0.012,-1.2 -0.144,-1.512 -0.144,-0.312 -0.462,-0.468 -0.954,-0.468 -0.36,0 -0.732,0.042 -1.116,0.126 -0.384,0.084 -0.726,0.204 -1.026,0.36 l -0.54,-1.602 m 2.574,6.75 c 0.324,0 0.588,-0.078 0.792,-0.234 0.204,-0.168 0.354,-0.348 0.45,-0.54 l 0,-1.494 c -0.276,-0.036 -0.54,-0.042 -0.792,-0.018 -0.252,0.024 -0.474,0.078 -0.666,0.162 -0.192,0.084 -0.348,0.21 -0.468,0.378 -0.108,0.156 -0.162,0.36 -0.162,0.612 0,0.372 0.072,0.654 0.216,0.846 0.156,0.192 0.366,0.288 0.63,0.288"
             style="font-size:18px;fill:#ffffff"
             id="path6399"
             inkscape:connector-curvature="0" />
          <path
             d="m 292.92808,479.01923 0.99,0 0,-1.692 2.142,-0.666 0,2.358 1.746,0 0,1.908 -1.746,0 0,3.924 c 0,0.516 0.048,0.882 0.144,1.098 0.108,0.216 0.294,0.324 0.558,0.324 0.18,0 0.34199,-0.018 0.486,-0.054 0.14399,-0.036 0.29999,-0.09 0.468,-0.162 l 0.27,1.71 c -0.26401,0.132 -0.57001,0.24 -0.918,0.324 -0.348,0.096 -0.714,0.144 -1.098,0.144 -0.684,0 -1.2,-0.198 -1.548,-0.594 -0.336,-0.396 -0.504,-1.062 -0.504,-1.998 l 0,-4.716 -0.99,0 0,-1.908"
             style="font-size:18px;fill:#ffffff"
             id="path6401"
             inkscape:connector-curvature="0" />
          <path
             d="m 298.88636,479.55923 c 0.36,-0.216 0.81,-0.39 1.35,-0.522 0.54,-0.13199 1.152,-0.19799 1.836,-0.198 1.02,1e-5 1.72799,0.264 2.124,0.792 0.40799,0.528 0.61199,1.278 0.612,2.25 -10e-6,0.564 -0.018,1.122 -0.054,1.674 -0.024,0.54 -0.042,1.074 -0.054,1.602 -0.012,0.516 -0.006,1.02 0.018,1.512 0.036,0.48 0.11999,0.936 0.252,1.368 l -1.746,0 -0.342,-1.098 -0.072,0 c -0.192,0.348 -0.462,0.636 -0.81,0.864 -0.348,0.228 -0.786,0.342 -1.314,0.342 -0.708,0 -1.266,-0.234 -1.674,-0.702 -0.408,-0.48 -0.612,-1.116 -0.612,-1.908 0,-1.08 0.384,-1.848 1.152,-2.304 0.768,-0.456 1.806,-0.648 3.114,-0.576 0.06,-0.696 0.012,-1.2 -0.144,-1.512 -0.144,-0.312 -0.462,-0.468 -0.954,-0.468 -0.36,0 -0.732,0.042 -1.116,0.126 -0.384,0.084 -0.726,0.204 -1.026,0.36 l -0.54,-1.602 m 2.574,6.75 c 0.324,0 0.588,-0.078 0.792,-0.234 0.204,-0.168 0.354,-0.348 0.45,-0.54 l 0,-1.494 c -0.276,-0.036 -0.54,-0.042 -0.792,-0.018 -0.252,0.024 -0.474,0.078 -0.666,0.162 -0.192,0.084 -0.348,0.21 -0.468,0.378 -0.108,0.156 -0.162,0.36 -0.162,0.612 0,0.372 0.072,0.654 0.216,0.846 0.156,0.192 0.366,0.288 0.63,0.288"
             style="font-size:18px;fill:#ffffff"
             id="path6403"
             inkscape:connector-curvature="0" />
          <path
             d="m 306.10633,486.84923 c 0,-0.408 0.12,-0.726 0.36,-0.954 0.24,-0.24 0.54,-0.36 0.9,-0.36 0.456,0 0.804,0.162 1.044,0.486 0.252,0.324 0.378,0.774 0.378,1.35 0,0.528 -0.078,0.984 -0.234,1.368 -0.144,0.38399 -0.324,0.70199 -0.54,0.954 -0.216,0.26399 -0.45,0.47399 -0.702,0.63 -0.24,0.15599 -0.45,0.26999 -0.63,0.342 l -0.666,-0.864 c 0.276,-0.14401 0.522,-0.37801 0.738,-0.702 0.216,-0.312 0.336,-0.63 0.36,-0.954 -0.252,0.012 -0.486,-0.084 -0.702,-0.288 -0.204,-0.216 -0.306,-0.552 -0.306,-1.008"
             style="font-size:18px;fill:#ffffff"
             id="path6405"
             inkscape:connector-curvature="0" />
          <path
             d="m 312.57311,483.71723 0.216,1.422 0.072,0 0.198,-1.44 1.116,-4.68 2.304,0 -3.024,9.09 -1.44,0 -3.186,-9.09 2.502,0 1.242,4.698"
             style="font-size:18px;fill:#ffffff"
             id="path6407"
             inkscape:connector-curvature="0" />
          <path
             d="m 317.02699,479.55923 c 0.35999,-0.216 0.80999,-0.39 1.35,-0.522 0.53999,-0.13199 1.15199,-0.19799 1.836,-0.198 1.01999,1e-5 1.72799,0.264 2.124,0.792 0.40799,0.528 0.61199,1.278 0.612,2.25 -10e-6,0.564 -0.018,1.122 -0.054,1.674 -0.024,0.54 -0.042,1.074 -0.054,1.602 -0.012,0.516 -0.006,1.02 0.018,1.512 0.036,0.48 0.11999,0.936 0.252,1.368 l -1.746,0 -0.342,-1.098 -0.072,0 c -0.19201,0.348 -0.46201,0.636 -0.81,0.864 -0.34801,0.228 -0.78601,0.342 -1.314,0.342 -0.70801,0 -1.26601,-0.234 -1.674,-0.702 -0.40801,-0.48 -0.612,-1.116 -0.612,-1.908 0,-1.08 0.38399,-1.848 1.152,-2.304 0.76799,-0.456 1.80599,-0.648 3.114,-0.576 0.06,-0.696 0.012,-1.2 -0.144,-1.512 -0.14401,-0.312 -0.46201,-0.468 -0.954,-0.468 -0.36001,0 -0.73201,0.042 -1.116,0.126 -0.38401,0.084 -0.72601,0.204 -1.026,0.36 l -0.54,-1.602 m 2.574,6.75 c 0.32399,0 0.58799,-0.078 0.792,-0.234 0.20399,-0.168 0.35399,-0.348 0.45,-0.54 l 0,-1.494 c -0.27601,-0.036 -0.54001,-0.042 -0.792,-0.018 -0.25201,0.024 -0.47401,0.078 -0.666,0.162 -0.19201,0.084 -0.34801,0.21 -0.468,0.378 -0.10801,0.156 -0.16201,0.36 -0.162,0.612 -1e-5,0.372 0.072,0.654 0.216,0.846 0.15599,0.192 0.36599,0.288 0.63,0.288"
             style="font-size:18px;fill:#ffffff"
             id="path6409"
             inkscape:connector-curvature="0" />
          <path
             d="m 326.60495,485.10323 c 0,0.42 0.042,0.72 0.126,0.9 0.084,0.18 0.222,0.27 0.414,0.27 0.108,0 0.216,-0.012 0.324,-0.036 0.12,-0.024 0.252,-0.066 0.396,-0.126 l 0.198,1.728 c -0.144,0.096 -0.39,0.186 -0.738,0.27 -0.348,0.084 -0.702,0.126 -1.062,0.126 -0.6,0 -1.05,-0.15 -1.35,-0.45 -0.3,-0.3 -0.45,-0.81 -0.45,-1.53 l 0,-10.836 2.142,0 0,9.684"
             style="font-size:18px;fill:#ffffff"
             id="path6411"
             inkscape:connector-curvature="0" />
          <path
             d="m 330.85633,479.01923 0,5.382 c 0,0.708 0.066,1.2 0.198,1.476 0.132,0.276 0.372,0.414 0.72,0.414 0.336,0 0.61799,-0.12 0.846,-0.36 0.22799,-0.252 0.38999,-0.552 0.486,-0.9 l 0,-6.012 2.142,0 0,6.264 c -1e-5,0.492 0.018,0.978 0.054,1.458 0.036,0.468 0.10199,0.894 0.198,1.278 l -1.62,0 -0.378,-1.224 -0.054,0 c -0.22801,0.42 -0.54001,0.768 -0.936,1.044 -0.38401,0.276 -0.864,0.414 -1.44,0.414 -0.372,0 -0.702,-0.054 -0.99,-0.162 -0.288,-0.096 -0.534,-0.27 -0.738,-0.522 -0.204,-0.252 -0.36,-0.594 -0.468,-1.026 -0.108,-0.444 -0.162,-1.002 -0.162,-1.674 l 0,-5.85 2.142,0"
             style="font-size:18px;fill:#ffffff"
             id="path6413"
             inkscape:connector-curvature="0" />
          <path
             d="m 342.88595,487.35323 c -0.3,0.264 -0.708,0.48 -1.224,0.648 -0.516,0.168 -1.056,0.252 -1.62,0.252 -0.624,0 -1.164,-0.108 -1.62,-0.324 -0.444,-0.216 -0.81,-0.528 -1.098,-0.936 -0.288,-0.408 -0.504,-0.9 -0.648,-1.476 -0.132,-0.588 -0.198,-1.254 -0.198,-1.998 0,-1.62 0.318,-2.814 0.954,-3.582 0.648,-0.78 1.542,-1.16999 2.682,-1.17 0.384,1e-5 0.756,0.06 1.116,0.18 0.36,0.10801 0.678,0.3 0.954,0.576 0.288,0.264 0.516,0.624 0.684,1.08 0.18,0.444 0.27,1.008 0.27,1.692 0,0.264 -0.018,0.546 -0.054,0.846 -0.024,0.3 -0.066,0.624 -0.126,0.972 l -4.374,0 c 0.024,0.744 0.18,1.314 0.468,1.71 0.288,0.396 0.75,0.594 1.386,0.594 0.384,0 0.732,-0.06 1.044,-0.18 0.324,-0.12 0.57,-0.246 0.738,-0.378 l 0.666,1.494 m -2.808,-6.75 c -0.456,0 -0.798,0.186 -1.026,0.558 -0.228,0.36 -0.36,0.87 -0.396,1.53 l 2.484,0 c 0.036,-0.684 -0.036,-1.2 -0.216,-1.548 -0.18,-0.36 -0.462,-0.54 -0.846,-0.54"
             style="font-size:18px;fill:#ffffff"
             id="path6415"
             inkscape:connector-curvature="0" />
          <path
             d="m 278.03449,509.34923 c -1e-5,-0.444 0.11399,-0.78 0.342,-1.008 0.23999,-0.228 0.55199,-0.342 0.936,-0.342 0.41999,0 0.74399,0.114 0.972,0.342 0.22799,0.228 0.34199,0.564 0.342,1.008 -10e-6,0.432 -0.12001,0.768 -0.36,1.008 -0.22801,0.24 -0.54601,0.36 -0.954,0.36 -0.39601,0 -0.70801,-0.12 -0.936,-0.36 -0.22801,-0.24 -0.34201,-0.576 -0.342,-1.008"
             style="font-size:18px;fill:#ffffff"
             id="path6417"
             inkscape:connector-curvature="0" />
          <path
             d="m 282.11261,509.34923 c 0,-0.444 0.114,-0.78 0.342,-1.008 0.24,-0.228 0.552,-0.342 0.936,-0.342 0.42,0 0.744,0.114 0.972,0.342 0.228,0.228 0.342,0.564 0.342,1.008 0,0.432 -0.12,0.768 -0.36,1.008 -0.228,0.24 -0.546,0.36 -0.954,0.36 -0.396,0 -0.708,-0.12 -0.936,-0.36 -0.228,-0.24 -0.342,-0.576 -0.342,-1.008"
             style="font-size:18px;fill:#ffffff"
             id="path6419"
             inkscape:connector-curvature="0" />
          <path
             d="m 286.19074,509.34923 c -1e-5,-0.444 0.11399,-0.78 0.342,-1.008 0.23999,-0.228 0.55199,-0.342 0.936,-0.342 0.41999,0 0.74399,0.114 0.972,0.342 0.22799,0.228 0.34199,0.564 0.342,1.008 -10e-6,0.432 -0.12001,0.768 -0.36,1.008 -0.22801,0.24 -0.54601,0.36 -0.954,0.36 -0.39601,0 -0.70801,-0.12 -0.936,-0.36 -0.22801,-0.24 -0.34201,-0.576 -0.342,-1.008"
             style="font-size:18px;fill:#ffffff"
             id="path6421"
             inkscape:connector-curvature="0" />
        </g>
      </g>
      <g
         style="font-size:40px;font-style:normal;font-variant:normal;font-weight:bold;font-stretch:condensed;line-height:125%;letter-spacing:0px;word-spacing:0px;fill:#ffffff;fill-opacity:1;stroke:none;font-family:PT Sans Narrow;-inkscape-font-specification:PT Sans Narrow Bold Condensed"
         id="text4133">
        <path
           d="m 275.30032,415.69739 0,11 -2.618,0 0,-8.668 -2.464,0 0,8.668 -2.618,0 0,-8.668 -1.188,0 0,-2.332 1.188,0 0,-0.616 c 0,-1.39332 0.30067,-2.40532 0.902,-3.036 0.616,-0.64532 1.51067,-0.96799 2.684,-0.968 0.85067,1e-5 1.61333,0.0734 2.288,0.22 0.67466,0.13201 1.22466,0.30801 1.65,0.528 l -0.682,2.156 c -0.352,-0.17599 -0.75534,-0.31532 -1.21,-0.418 -0.44,-0.10266 -0.91667,-0.15399 -1.43,-0.154 -0.33733,1e-5 -0.60867,0.0513 -0.814,0.154 -0.20533,0.10268 -0.36667,0.25668 -0.484,0.462 -0.11733,0.19068 -0.198,0.43268 -0.242,0.726 -0.0293,0.27868 -0.044,0.59401 -0.044,0.946 l 5.082,0"
           style="font-size:22px;fill:#ffffff"
           id="path6424"
           inkscape:connector-curvature="0" />
        <path
           d="m 279.96295,423.13339 c 0,0.51333 0.0513,0.88 0.154,1.1 0.10266,0.22 0.27133,0.33 0.506,0.33 0.132,0 0.264,-0.0147 0.396,-0.044 0.14666,-0.0293 0.30799,-0.0807 0.484,-0.154 l 0.242,2.112 c -0.17601,0.11733 -0.47667,0.22733 -0.902,0.33 -0.42534,0.10266 -0.858,0.154 -1.298,0.154 -0.73334,0 -1.28334,-0.18334 -1.65,-0.55 -0.36667,-0.36667 -0.55,-0.99 -0.55,-1.87 l 0,-13.244 2.618,0 0,11.836"
           style="font-size:22px;fill:#ffffff"
           id="path6426"
           inkscape:connector-curvature="0" />
        <path
           d="m 290.06507,425.88339 c -0.36667,0.32266 -0.86534,0.58666 -1.496,0.792 -0.63067,0.20533 -1.29067,0.308 -1.98,0.308 -0.76267,0 -1.42267,-0.132 -1.98,-0.396 -0.54266,-0.264 -0.99,-0.64533 -1.342,-1.144 -0.352,-0.49867 -0.616,-1.1 -0.792,-1.804 -0.16133,-0.71867 -0.242,-1.53266 -0.242,-2.442 0,-1.97999 0.38867,-3.43933 1.166,-4.378 0.792,-0.95332 1.88467,-1.42999 3.278,-1.43 0.46933,1e-5 0.924,0.0733 1.364,0.22 0.44,0.13201 0.82866,0.36668 1.166,0.704 0.352,0.32267 0.63066,0.76267 0.836,1.32 0.22,0.54267 0.33,1.23201 0.33,2.068 0,0.32267 -0.022,0.66734 -0.066,1.034 -0.0293,0.36667 -0.0807,0.76267 -0.154,1.188 l -5.346,0 c 0.0293,0.90933 0.22,1.606 0.572,2.09 0.352,0.484 0.91667,0.726 1.694,0.726 0.46933,0 0.89467,-0.0733 1.276,-0.22 0.396,-0.14667 0.69666,-0.30067 0.902,-0.462 l 0.814,1.826 m -3.432,-8.25 c -0.55733,10e-6 -0.97533,0.22734 -1.254,0.682 -0.27867,0.44001 -0.44,1.06334 -0.484,1.87 l 3.036,0 c 0.044,-0.83599 -0.044,-1.46666 -0.264,-1.892 -0.22,-0.43999 -0.56467,-0.65999 -1.034,-0.66"
           style="font-size:22px;fill:#ffffff"
           id="path6428"
           inkscape:connector-curvature="0" />
        <path
           d="m 291.84123,425.26739 c 0,-0.54267 0.13933,-0.95333 0.418,-1.232 0.29333,-0.27867 0.67467,-0.418 1.144,-0.418 0.51333,0 0.90933,0.13933 1.188,0.418 0.27866,0.27867 0.418,0.68933 0.418,1.232 0,0.528 -0.14667,0.93866 -0.44,1.232 -0.27867,0.29333 -0.66733,0.44 -1.166,0.44 -0.484,0 -0.86533,-0.14667 -1.144,-0.44 -0.27867,-0.29334 -0.418,-0.704 -0.418,-1.232"
           style="font-size:22px;fill:#ffffff"
           id="path6430"
           inkscape:connector-curvature="0" />
        <path
           d="m 303.21282,426.10339 c -0.36667,0.29333 -0.80667,0.51333 -1.32,0.66 -0.51333,0.14666 -1.02667,0.22 -1.54,0.22 -0.748,0 -1.37866,-0.132 -1.892,-0.396 -0.49866,-0.27867 -0.90933,-0.66733 -1.232,-1.166 -0.32266,-0.51333 -0.55733,-1.122 -0.704,-1.826 -0.132,-0.71867 -0.198,-1.518 -0.198,-2.398 0,-1.92133 0.34467,-3.36599 1.034,-4.334 0.68934,-0.96799 1.70133,-1.45199 3.036,-1.452 0.66,1e-5 1.19533,0.0587 1.606,0.176 0.42533,0.11734 0.79933,0.26401 1.122,0.44 l -0.616,2.178 c -0.264,-0.13199 -0.52067,-0.22733 -0.77,-0.286 -0.23467,-0.0733 -0.52067,-0.10999 -0.858,-0.11 -0.616,10e-6 -1.078,0.27134 -1.386,0.814 -0.308,0.52801 -0.462,1.386 -0.462,2.574 0,0.99734 0.154,1.81133 0.462,2.442 0.32267,0.63067 0.82867,0.946 1.518,0.946 0.36667,0 0.67467,-0.044 0.924,-0.132 0.264,-0.10267 0.506,-0.22733 0.726,-0.374 l 0.55,2.024"
           style="font-size:22px;fill:#ffffff"
           id="path6432"
           inkscape:connector-curvature="0" />
        <path
           d="m 308.11023,423.77139 c 0,-0.308 -0.10267,-0.56467 -0.308,-0.77 -0.19067,-0.22 -0.44,-0.418 -0.748,-0.594 -0.308,-0.19066 -0.638,-0.38133 -0.99,-0.572 -0.33733,-0.19066 -0.66,-0.42533 -0.968,-0.704 -0.308,-0.27866 -0.56467,-0.616 -0.77,-1.012 -0.19067,-0.396 -0.286,-0.89466 -0.286,-1.496 0,-1.02666 0.27867,-1.81866 0.836,-2.376 0.55733,-0.55732 1.37867,-0.83599 2.464,-0.836 0.64533,1e-5 1.254,0.0733 1.826,0.22 0.57199,0.13201 1.02666,0.30068 1.364,0.506 l -0.616,2.024 c -0.27867,-0.11733 -0.616,-0.22733 -1.012,-0.33 -0.396,-0.11733 -0.78467,-0.17599 -1.166,-0.176 -0.71867,10e-6 -1.078,0.30067 -1.078,0.902 0,0.27867 0.0953,0.51334 0.286,0.704 0.20533,0.176 0.462,0.352 0.77,0.528 0.308,0.176 0.63066,0.35934 0.968,0.55 0.352,0.19067 0.682,0.43267 0.99,0.726 0.30799,0.27867 0.55733,0.62334 0.748,1.034 0.20533,0.41067 0.30799,0.91667 0.308,1.518 -10e-6,1.012 -0.30801,1.826 -0.924,2.442 -0.616,0.616 -1.53267,0.924 -2.75,0.924 -0.60134,0 -1.19533,-0.0733 -1.782,-0.22 -0.572,-0.14667 -1.034,-0.33734 -1.386,-0.572 l 0.726,-2.112 c 0.308,0.176 0.66,0.33 1.056,0.462 0.41067,0.132 0.836,0.198 1.276,0.198 0.33733,0 0.616,-0.0733 0.836,-0.22 0.22,-0.16133 0.33,-0.41067 0.33,-0.748"
           style="font-size:22px;fill:#ffffff"
           id="path6434"
           inkscape:connector-curvature="0" />
        <path
           d="m 315.44964,421.43939 0.264,1.738 0.088,0 0.242,-1.76 1.364,-5.72 2.816,0 -3.696,11.11 -1.76,0 -3.894,-11.11 3.058,0 1.518,5.742"
           style="font-size:22px;fill:#ffffff"
           id="path6436"
           inkscape:connector-curvature="0" />
      </g>
    </g>
    <g
       id="g4038"
       transform="matrix(1.8422861,0,0,1.8422861,-95.707613,-545.21139)">
      <g
         id="g4002">
        <path
           style="fill:none;stroke:#ffffff;stroke-width:2;stroke-miterlimit:4;stroke-opacity:1"
           d="m 138.3909,462.05426 0.50508,0 0,63.13453 -0.50508,0 z"
           id="rect4001"
           inkscape:connector-curvature="0" />
        <path
           style="fill:#000000;fill-opacity:1;stroke:#ffffff;stroke-width:2;stroke-miterlimit:4;stroke-opacity:1"
           d="m 130.58511,480.51248 16.62169,0 0,25.71306 -16.62169,0 z"
           id="rect3229"
           inkscape:connector-curvature="0" />
        <path
           style="fill:none;stroke:#ffffff;stroke-width:2;stroke-miterlimit:4;stroke-opacity:1"
           d="m 167.12256,444.57144 0.62052,0 0,48.60277 -0.62052,0 z"
           id="rect4001-9"
           inkscape:connector-curvature="0" />
        <path
           style="fill:#000000;fill-opacity:1;stroke:#ffffff;stroke-width:2;stroke-miterlimit:4;stroke-opacity:1"
           d="m 158.96356,463.18152 17.44354,0 0,14.91815 -17.44354,0 z"
           id="rect3229-2"
           inkscape:connector-curvature="0" />
        <path
           style="fill:none;stroke:#ffffff;stroke-width:2;stroke-miterlimit:4;stroke-opacity:1"
           d="m 191.36621,475.63361 0.62052,0 0,48.60276 -0.62052,0 z"
           id="rect4001-9-5"
           inkscape:connector-curvature="0" />
        <path
           style="fill:#000000;fill-opacity:1;stroke:#ffffff;stroke-width:3;stroke-miterlimit:4;stroke-opacity:1"
           d="m 183.20721,493.73862 17.44354,0 0,14.91815 -17.44354,0 z"
           id="rect3229-2-3"
           inkscape:connector-curvature="0" />
        <path
           style="fill:none;stroke:#ffffff;stroke-width:2.0037179;stroke-miterlimit:4;stroke-opacity:1"
           d="m 118.02237,436.04584 0.33098,0 0,107.99627 -0.33098,0 z"
           id="rect4001-99"
           inkscape:connector-curvature="0" />
        <path
           transform="matrix(0,1,-1,0,0,0)"
           style="fill:none;stroke:#ffffff;stroke-width:2;stroke-miterlimit:4;stroke-opacity:1"
           d="m 543.70929,-224.9263 0.3347,0 0,106.40072 -0.3347,0 z"
           id="rect4001-99-0"
           inkscape:connector-curvature="0" />
        <path
           style="fill:none;stroke:#ffffff;stroke-width:2;stroke-miterlimit:4;stroke-opacity:1"
           d="m 213.58957,447.85443 0.62052,0 0,48.60277 -0.62052,0 z"
           id="rect4001-9-5-0"
           inkscape:connector-curvature="0" />
        <path
           style="fill:#000000;fill-opacity:1;stroke:#ffffff;stroke-width:2;stroke-miterlimit:4;stroke-opacity:1"
           d="m 205.43057,465.95944 17.44354,0 0,14.91815 -17.44354,0 z"
           id="rect3229-2-3-6"
           inkscape:connector-curvature="0" />
      </g>
      <g
         style="font-size:40px;font-style:normal;font-variant:normal;font-weight:bold;font-stretch:condensed;line-height:125%;letter-spacing:0px;word-spacing:0px;fill:#ffffff;fill-opacity:1;stroke:none;font-family:PT Sans Narrow;-inkscape-font-specification:PT Sans Narrow Bold Condensed"
         id="text4144">
        <path
           d="m 118.56051,413.5524 2.618,0 0,11.462 c 0,1.33466 -0.23467,2.354 -0.704,3.058 -0.45467,0.70399 -1.188,1.05599 -2.2,1.056 -0.41066,-10e-6 -0.82866,-0.0513 -1.254,-0.154 l 0,-2.332 c 0.63067,0.0587 1.04134,-0.12467 1.232,-0.55 0.20534,-0.41067 0.308,-1.02667 0.308,-1.848 l 0,-10.692 m -0.33,-3.102 c 0,-0.43999 0.13934,-0.79932 0.418,-1.078 0.27867,-0.29332 0.67467,-0.43999 1.188,-0.44 0.51333,1e-5 0.924,0.13935 1.232,0.418 0.308,0.27868 0.462,0.64535 0.462,1.1 0,0.45468 -0.154,0.81401 -0.462,1.078 -0.308,0.26401 -0.71867,0.39601 -1.232,0.396 -0.51333,1e-5 -0.90933,-0.13199 -1.188,-0.396 -0.27866,-0.27865 -0.418,-0.63799 -0.418,-1.078"
           style="font-size:22px;fill:#ffffff"
           id="path6359"
           inkscape:connector-curvature="0" />
        <path
           d="m 126.95592,421.6264 c -1e-5,-0.308 -0.10267,-0.56466 -0.308,-0.77 -0.19067,-0.22 -0.44,-0.418 -0.748,-0.594 -0.308,-0.19066 -0.638,-0.38133 -0.99,-0.572 -0.33734,-0.19066 -0.66,-0.42533 -0.968,-0.704 -0.308,-0.27866 -0.56467,-0.616 -0.77,-1.012 -0.19067,-0.39599 -0.286,-0.89466 -0.286,-1.496 0,-1.02666 0.27866,-1.81866 0.836,-2.376 0.55733,-0.55732 1.37866,-0.83599 2.464,-0.836 0.64533,1e-5 1.25399,0.0733 1.826,0.22 0.57199,0.13201 1.02666,0.30068 1.364,0.506 l -0.616,2.024 c -0.27867,-0.11733 -0.61601,-0.22733 -1.012,-0.33 -0.39601,-0.11733 -0.78467,-0.17599 -1.166,-0.176 -0.71867,10e-6 -1.078,0.30067 -1.078,0.902 0,0.27867 0.0953,0.51334 0.286,0.704 0.20533,0.17601 0.462,0.35201 0.77,0.528 0.30799,0.17601 0.63066,0.35934 0.968,0.55 0.35199,0.19067 0.68199,0.43267 0.99,0.726 0.30799,0.27867 0.55733,0.62334 0.748,1.034 0.20533,0.41067 0.30799,0.91667 0.308,1.518 -10e-6,1.012 -0.30801,1.826 -0.924,2.442 -0.61601,0.616 -1.53267,0.924 -2.75,0.924 -0.60134,0 -1.19534,-0.0733 -1.782,-0.22 -0.572,-0.14667 -1.034,-0.33733 -1.386,-0.572 l 0.726,-2.112 c 0.308,0.176 0.66,0.33 1.056,0.462 0.41066,0.132 0.836,0.198 1.276,0.198 0.33733,0 0.61599,-0.0733 0.836,-0.22 0.21999,-0.16133 0.32999,-0.41067 0.33,-0.748"
           style="font-size:22px;fill:#ffffff"
           id="path6361"
           inkscape:connector-curvature="0" />
        <path
           d="m 130.55533,419.0524 c -1e-5,-1.95066 0.38133,-3.40266 1.144,-4.356 0.76266,-0.95332 1.82599,-1.42999 3.19,-1.43 1.46666,1e-5 2.55932,0.48401 3.278,1.452 0.71865,0.96801 1.07799,2.41267 1.078,4.334 -1e-5,1.96534 -0.38135,3.42467 -1.144,4.378 -0.76268,0.93867 -1.83334,1.408 -3.212,1.408 -2.88934,0 -4.33401,-1.92867 -4.334,-5.786 m 2.706,0 c -10e-6,1.1 0.12466,1.95067 0.374,2.552 0.24932,0.60133 0.66732,0.902 1.254,0.902 0.55732,0 0.96799,-0.25667 1.232,-0.77 0.27866,-0.528 0.41799,-1.42266 0.418,-2.684 -1e-5,-1.12933 -0.12468,-1.98733 -0.374,-2.574 -0.24934,-0.58666 -0.67468,-0.87999 -1.276,-0.88 -0.51334,10e-6 -0.91668,0.26401 -1.21,0.792 -0.27867,0.51334 -0.41801,1.40067 -0.418,2.662"
           style="font-size:22px;fill:#ffffff"
           id="path6363"
           inkscape:connector-curvature="0" />
        <path
           d="m 146.2042,424.5524 0,-6.688 c -10e-6,-0.80666 -0.0953,-1.37133 -0.286,-1.694 -0.19067,-0.32266 -0.51334,-0.48399 -0.968,-0.484 -0.38134,1e-5 -0.71134,0.11734 -0.99,0.352 -0.27867,0.23467 -0.47667,0.52801 -0.594,0.88 l 0,7.634 -2.618,0 0,-11 2.09,0 0.308,1.276 0.066,0 c 0.264,-0.42532 0.62333,-0.78466 1.078,-1.078 0.45466,-0.30799 1.04866,-0.46199 1.782,-0.462 0.43999,10e-6 0.82866,0.066 1.166,0.198 0.35199,0.13201 0.64533,0.35201 0.88,0.66 0.23466,0.29334 0.41066,0.69668 0.528,1.21 0.11732,0.49867 0.17599,1.12201 0.176,1.87 l 0,7.326 -2.618,0"
           style="font-size:22px;fill:#ffffff"
           id="path6365"
           inkscape:connector-curvature="0" />
        <path
           d="m 154.37273,413.5524 1.188,0 0,-0.616 c 0,-1.39332 0.25667,-2.39799 0.77,-3.014 0.528,-0.63065 1.276,-0.94599 2.244,-0.946 0.968,10e-6 1.77466,0.13201 2.42,0.396 l -0.484,2.222 c -0.264,-0.10265 -0.49867,-0.16132 -0.704,-0.176 -0.20534,-0.0293 -0.418,-0.044 -0.638,-0.044 -0.42534,1e-5 -0.69667,0.16868 -0.814,0.506 -0.11734,0.32268 -0.176,0.88001 -0.176,1.672 l 1.87,0 0,2.332 -1.87,0 0,8.668 -2.618,0 0,-8.668 -1.188,0 0,-2.332"
           style="font-size:22px;fill:#ffffff"
           id="path6367"
           inkscape:connector-curvature="0" />
        <path
           d="m 168.46545,423.7384 c -0.36667,0.32267 -0.86534,0.58667 -1.496,0.792 -0.63067,0.20533 -1.29067,0.308 -1.98,0.308 -0.76267,0 -1.42267,-0.132 -1.98,-0.396 -0.54267,-0.264 -0.99,-0.64533 -1.342,-1.144 -0.352,-0.49867 -0.616,-1.1 -0.792,-1.804 -0.16133,-0.71866 -0.242,-1.53266 -0.242,-2.442 0,-1.97999 0.38867,-3.43933 1.166,-4.378 0.792,-0.95332 1.88466,-1.42999 3.278,-1.43 0.46933,1e-5 0.92399,0.0733 1.364,0.22 0.43999,0.13201 0.82866,0.36668 1.166,0.704 0.35199,0.32268 0.63066,0.76267 0.836,1.32 0.21999,0.54267 0.32999,1.23201 0.33,2.068 -1e-5,0.32267 -0.022,0.66734 -0.066,1.034 -0.0293,0.36667 -0.0807,0.76267 -0.154,1.188 l -5.346,0 c 0.0293,0.90934 0.22,1.606 0.572,2.09 0.352,0.484 0.91666,0.726 1.694,0.726 0.46933,0 0.89466,-0.0733 1.276,-0.22 0.39599,-0.14667 0.69666,-0.30067 0.902,-0.462 l 0.814,1.826 m -3.432,-8.25 c -0.55734,10e-6 -0.97534,0.22734 -1.254,0.682 -0.27867,0.44001 -0.44,1.06334 -0.484,1.87 l 3.036,0 c 0.044,-0.83599 -0.044,-1.46666 -0.264,-1.892 -0.22001,-0.43999 -0.56467,-0.65999 -1.034,-0.66"
           style="font-size:22px;fill:#ffffff"
           id="path6369"
           inkscape:connector-curvature="0" />
        <path
           d="m 177.87561,423.7384 c -0.36668,0.32267 -0.86534,0.58667 -1.496,0.792 -0.63068,0.20533 -1.29068,0.308 -1.98,0.308 -0.76267,0 -1.42267,-0.132 -1.98,-0.396 -0.54267,-0.264 -0.99001,-0.64533 -1.342,-1.144 -0.352,-0.49867 -0.616,-1.1 -0.792,-1.804 -0.16134,-0.71866 -0.242,-1.53266 -0.242,-2.442 0,-1.97999 0.38866,-3.43933 1.166,-4.378 0.79199,-0.95332 1.88466,-1.42999 3.278,-1.43 0.46932,1e-5 0.92399,0.0733 1.364,0.22 0.43999,0.13201 0.82866,0.36668 1.166,0.704 0.35199,0.32268 0.63066,0.76267 0.836,1.32 0.21999,0.54267 0.32999,1.23201 0.33,2.068 -10e-6,0.32267 -0.022,0.66734 -0.066,1.034 -0.0294,0.36667 -0.0807,0.76267 -0.154,1.188 l -5.346,0 c 0.0293,0.90934 0.21999,1.606 0.572,2.09 0.35199,0.484 0.91666,0.726 1.694,0.726 0.46932,0 0.89466,-0.0733 1.276,-0.22 0.39599,-0.14667 0.69666,-0.30067 0.902,-0.462 l 0.814,1.826 m -3.432,-8.25 c -0.55734,10e-6 -0.97534,0.22734 -1.254,0.682 -0.27867,0.44001 -0.44001,1.06334 -0.484,1.87 l 3.036,0 c 0.044,-0.83599 -0.044,-1.46666 -0.264,-1.892 -0.22001,-0.43999 -0.56468,-0.65999 -1.034,-0.66"
           style="font-size:22px;fill:#ffffff"
           id="path6371"
           inkscape:connector-curvature="0" />
        <path
           d="m 187.74776,420.6804 c -1e-5,0.616 0.007,1.232 0.022,1.848 0.0147,0.616 0.0733,1.298 0.176,2.046 l -1.848,0 -0.352,-1.276 -0.088,0 c -0.49867,1.02667 -1.37134,1.54 -2.618,1.54 -1.11467,0 -1.99467,-0.44 -2.64,-1.32 -0.63066,-0.88 -0.946,-2.31 -0.946,-4.29 0,-1.93599 0.34467,-3.40266 1.034,-4.4 0.68933,-1.01199 1.716,-1.51799 3.08,-1.518 0.352,10e-6 0.64533,0.022 0.88,0.066 0.23466,0.044 0.462,0.11734 0.682,0.22 l 0,-4.444 2.618,0 0,11.528 m -4.092,1.76 c 0.396,0 0.71133,-0.0953 0.946,-0.286 0.23466,-0.20533 0.41066,-0.49867 0.528,-0.88 l 0,-5.192 c -0.14667,-0.13199 -0.31534,-0.22733 -0.506,-0.286 -0.176,-0.0587 -0.41067,-0.088 -0.704,-0.088 -0.58667,1e-5 -1.02667,0.26401 -1.32,0.792 -0.29333,0.52801 -0.44,1.46667 -0.44,2.816 0,1.012 0.11733,1.78934 0.352,2.332 0.24933,0.528 0.63067,0.792 1.144,0.792"
           style="font-size:22px;fill:#ffffff"
           id="path6373"
           inkscape:connector-curvature="0" />
      </g>
    </g>
  </g>
</svg>
