<?xml version="1.0" encoding="UTF-8" standalone="no"?>
<!-- Created with Inkscape (http://www.inkscape.org/) -->

<svg
   xmlns:dc="http://purl.org/dc/elements/1.1/"
   xmlns:cc="http://creativecommons.org/ns#"
   xmlns:rdf="http://www.w3.org/1999/02/22-rdf-syntax-ns#"
   xmlns:svg="http://www.w3.org/2000/svg"
   xmlns="http://www.w3.org/2000/svg"
   xmlns:sodipodi="http://sodipodi.sourceforge.net/DTD/sodipodi-0.dtd"
   xmlns:inkscape="http://www.inkscape.org/namespaces/inkscape"
   width="900"
   height="600"
   id="svg2"
   version="1.1"
   inkscape:version="0.48.4 r9939"
   sodipodi:docname="SettingsFile_3.svg">
  <defs
     id="defs4" />
  <sodipodi:namedview
     id="base"
     pagecolor="#ffffff"
     bordercolor="#666666"
     borderopacity="1.0"
     inkscape:pageopacity="0.0"
     inkscape:pageshadow="2"
     inkscape:zoom="0.7"
     inkscape:cx="775.61134"
     inkscape:cy="216.90032"
     inkscape:document-units="px"
     inkscape:current-layer="layer1"
     showgrid="false"
     inkscape:object-nodes="false"
     inkscape:snap-nodes="true"
     fit-margin-top="10"
     fit-margin-left="10"
     fit-margin-right="10"
     fit-margin-bottom="10"
     inkscape:window-width="1552"
     inkscape:window-height="866"
     inkscape:window-x="1923"
     inkscape:window-y="249"
     inkscape:window-maximized="0"
     showguides="true"
     inkscape:guide-bbox="true" />
  <metadata
     id="metadata7">
    <rdf:RDF>
      <cc:Work
         rdf:about="">
        <dc:format>image/svg+xml</dc:format>
        <dc:type
           rdf:resource="http://purl.org/dc/dcmitype/StillImage" />
        <dc:title></dc:title>
      </cc:Work>
    </rdf:RDF>
  </metadata>
  <g
     inkscape:groupmode="layer"
     id="layer2"
     inkscape:label="Background"
     transform="translate(9.4104264,127.2883)"
     sodipodi:insensitive="true">
    <rect
       style="fill:#ffffff;fill-opacity:0;stroke:none"
       id="rect3592"
       width="1067.7312"
       height="718.21844"
       x="-35.355339"
       y="-25.34107" />
    <rect
       style="fill:#000000;fill-opacity:1;stroke:#000000;stroke-width:0.84718651;stroke-opacity:1"
       id="rect4362"
       width="900.19873"
       height="603.21393"
       x="-6.1373105"
       y="-130.47334" />
  </g>
  <g
     inkscape:label="Layer 1"
     inkscape:groupmode="layer"
     id="layer1"
     transform="translate(-117.34412,-7.7570816)">
    <path
       style="fill:none;stroke:#ffffff;stroke-width:4.11130428;stroke-miterlimit:4;stroke-opacity:1"
       d="m 129.08219,118.66809 397.78339,0 0,220.96998 -397.78339,0 z"
       id="rect3182-2"
       inkscape:connector-curvature="0" />
    <g
       style="font-size:33.66637802px;font-style:normal;font-variant:normal;font-weight:bold;font-stretch:condensed;line-height:125%;letter-spacing:0px;word-spacing:0px;fill:#ffffff;fill-opacity:1;stroke:none;font-family:PT Sans Narrow;-inkscape-font-specification:PT Sans Narrow Bold Condensed"
       id="text4190">
      <path
         d="m 141.13273,93.70628 c -0.56112,0.448886 -1.23444,0.785549 -2.01998,1.009992 -0.78556,0.224442 -1.57111,0.336663 -2.35665,0.336663 -1.14466,0 -2.10976,-0.201998 -2.89531,-0.605994 -0.76311,-0.426441 -1.39154,-1.021213 -1.88531,-1.784318 -0.49378,-0.785546 -0.85289,-1.716982 -1.07733,-2.79431 -0.202,-1.099762 -0.303,-2.322973 -0.303,-3.669635 0,-2.940186 0.52744,-5.150942 1.58232,-6.632276 1.05488,-1.481305 2.60353,-2.221964 4.64596,-2.221981 1.00999,1.7e-5 1.8292,0.08979 2.45765,0.269331 0.65087,0.17957 1.2232,0.404013 1.71698,0.673327 l -0.94265,3.332972 c -0.40401,-0.201985 -0.79678,-0.347873 -1.17833,-0.437663 -0.35911,-0.112208 -0.79678,-0.168319 -1.31299,-0.168332 -0.94266,1.3e-5 -1.64965,0.415232 -2.12098,1.245656 -0.47133,0.808004 -0.707,2.120992 -0.70699,3.938966 -1e-5,1.526216 0.23566,2.771871 0.70699,3.736968 0.49377,0.965107 1.2681,1.447657 2.32298,1.447654 0.5611,3e-6 1.03243,-0.06733 1.41399,-0.201998 0.40399,-0.157106 0.77432,-0.347882 1.11099,-0.572328 l 0.84166,3.097306"
         style=""
         id="path3960" />
      <path
         d="m 141.90495,86.198678 c 0,-2.985074 0.58355,-5.207053 1.75065,-6.665943 1.1671,-1.45886 2.79431,-2.188297 4.88163,-2.188314 2.24441,1.7e-5 3.91651,0.740676 5.01629,2.221981 1.09975,1.481334 1.64964,3.69209 1.64965,6.632276 -1e-5,3.007535 -0.58356,5.240736 -1.75065,6.699609 -1.16711,1.436433 -2.80554,2.154648 -4.91529,2.154648 -4.42152,0 -6.63228,-2.951416 -6.63228,-8.854257 m 4.14097,0 c -1e-5,1.683326 0.19077,2.985091 0.57233,3.9053 0.38154,0.920218 1.0212,1.380324 1.91898,1.380321 0.85287,3e-6 1.48131,-0.392771 1.88532,-1.178323 0.42643,-0.807988 0.63965,-2.177086 0.63966,-4.107298 -1e-5,-1.728197 -0.19079,-3.041185 -0.57233,-3.938966 -0.38156,-0.897757 -1.03244,-1.346642 -1.95265,-1.346655 -0.78556,1.3e-5 -1.40277,0.40401 -1.85165,1.211989 -0.42645,0.785561 -0.63967,2.143437 -0.63966,4.073632"
         style=""
         id="path3962" />
      <path
         d="m 165.85227,94.615273 0,-10.234579 c -1e-5,-1.234423 -0.1459,-2.098526 -0.43767,-2.592312 -0.29178,-0.49376 -0.78555,-0.740646 -1.48132,-0.74066 -0.58355,1.4e-5 -1.08855,0.179568 -1.51498,0.538662 -0.42645,0.359121 -0.72945,0.808006 -0.909,1.346655 l 0,11.682234 -4.00629,0 0,-16.833189 3.1983,0 0.47133,1.952649 0.101,0 c 0.40399,-0.650867 0.95387,-1.200751 1.64965,-1.649652 0.69577,-0.471312 1.60476,-0.706977 2.72698,-0.706994 0.67332,1.7e-5 1.26809,0.101016 1.78432,0.302997 0.53865,0.202015 0.98753,0.538679 1.34665,1.009992 0.3591,0.4489 0.62843,1.066117 0.808,1.851651 0.17954,0.763117 0.26931,1.716997 0.26933,2.861642 l 0,11.210904 -4.0063,0"
         style=""
         id="path3964" />
      <path
         d="m 185.08313,77.782084 0,16.833189 -4.00629,0 0,-13.264553 -3.77064,0 0,13.264553 -4.0063,0 0,-13.264553 -1.81798,0 0,-3.568636 1.81798,0 0,-0.942659 c 0,-2.132184 0.46011,-3.680836 1.38032,-4.64596 0.94266,-0.987524 2.31176,-1.481297 4.1073,-1.481321 1.30176,2.4e-5 2.46886,0.112245 3.50131,0.336664 1.03242,0.202022 1.87408,0.471352 2.52497,0.807993 l -1.04365,3.299305 c -0.53868,-0.269311 -1.15589,-0.482531 -1.85165,-0.639661 -0.67334,-0.15709 -1.40278,-0.235644 -2.18832,-0.235665 -0.51623,2.1e-5 -0.93144,0.07858 -1.24566,0.235665 -0.31422,0.15713 -0.56111,0.392794 -0.74066,0.706994 -0.17956,0.291794 -0.303,0.662124 -0.37033,1.11099 -0.0449,0.426459 -0.0673,0.90901 -0.0673,1.447655 l 7.77693,0"
         style=""
         id="path3966" />
      <path
         d="m 200.19724,94.615273 c -2e-5,2.446421 -0.56112,4.241959 -1.68332,5.386617 -1.12223,1.1671 -2.6821,1.75065 -4.67963,1.75065 -1.39155,0 -2.48009,-0.11222 -3.26564,-0.33666 -0.78555,-0.202 -1.39154,-0.42645 -1.81798,-0.67333 l 0.84166,-3.400301 c 0.49377,0.201995 1.02121,0.392771 1.58232,0.572329 0.58354,0.17955 1.26809,0.269327 2.05365,0.269331 1.14464,-4e-6 1.93019,-0.314223 2.35664,-0.942659 0.44888,-0.605997 0.67332,-1.537432 0.67333,-2.794309 l 0,-0.908993 -0.101,0 c -0.31423,0.448886 -0.74067,0.78555 -1.27932,1.009992 -0.51623,0.224442 -1.18955,0.336663 -2.01999,0.336664 -1.7731,-10e-7 -3.10853,-0.662105 -4.00629,-1.986317 -0.87533,-1.346652 -1.31299,-3.467632 -1.31299,-6.362945 0,-3.11974 0.60599,-5.420274 1.81798,-6.901608 1.23443,-1.481304 2.98508,-2.221963 5.25196,-2.221981 1.21198,1.8e-5 2.30052,0.101017 3.26564,0.302998 0.96509,0.17957 1.73941,0.404013 2.32298,0.673327 l 0,16.227195 m -6.22828,-3.16464 c 0.60598,3e-6 1.07731,-0.145884 1.41398,-0.437663 0.3591,-0.291771 0.62843,-0.70699 0.808,-1.245656 l 0,-8.416594 c -0.2469,-0.112208 -0.52745,-0.201985 -0.84166,-0.269331 -0.29179,-0.06732 -0.63967,-0.100986 -1.04366,-0.101 -0.83045,1.4e-5 -1.48133,0.40401 -1.95265,1.21199 -0.44889,0.808005 -0.67333,2.199547 -0.67333,4.174631 0,3.389087 0.7631,5.083626 2.28932,5.083623"
         style=""
         id="path3968" />
      <path
         d="m 210.91524,70.644811 3.06364,1.178324 -9.86425,27.50543 -3.0973,-1.178323 9.89791,-27.505431"
         style=""
         id="path3970" />
      <path
         d="m 220.49701,90.137644 c -10e-6,-0.471324 -0.15712,-0.864098 -0.47133,-1.178323 -0.29178,-0.336658 -0.67333,-0.639655 -1.14466,-0.908992 -0.47133,-0.291769 -0.97633,-0.583544 -1.51499,-0.875326 -0.51622,-0.291768 -1.00999,-0.650875 -1.48132,-1.077324 -0.47133,-0.426432 -0.8641,-0.942649 -1.17832,-1.548654 -0.29178,-0.605984 -0.43766,-1.369087 -0.43766,-2.289313 0,-1.571084 0.42644,-2.783072 1.27932,-3.635969 0.85288,-0.852865 2.10976,-1.279305 3.77063,-1.279322 0.98754,1.7e-5 1.91898,0.112238 2.79431,0.336663 0.87532,0.202015 1.57109,0.460124 2.08732,0.774327 l -0.94266,3.097307 c -0.42645,-0.179541 -0.94267,-0.347873 -1.54865,-0.504996 -0.60601,-0.17954 -1.20078,-0.269317 -1.78432,-0.269331 -1.09977,1.4e-5 -1.64966,0.460121 -1.64965,1.380322 -10e-6,0.426452 0.14588,0.78556 0.43766,1.077324 0.31421,0.269342 0.70699,0.538673 1.17832,0.807993 0.47133,0.269341 0.9651,0.549894 1.48132,0.841659 0.53866,0.291785 1.04365,0.662115 1.51499,1.110991 0.47132,0.426449 0.85287,0.953888 1.14466,1.58232 0.31421,0.628445 0.47132,1.402771 0.47133,2.32298 -1e-5,1.548656 -0.47134,2.794311 -1.41399,3.736968 -0.94267,0.942658 -2.34543,1.413987 -4.2083,1.413987 -0.92022,0 -1.82921,-0.112221 -2.72697,-0.336663 -0.87533,-0.224443 -1.58233,-0.516218 -2.12099,-0.875326 l 1.11099,-3.231972 c 0.47133,0.269334 1.00999,0.504999 1.61599,0.706993 0.62843,0.202002 1.27932,0.303001 1.95265,0.302998 0.51621,3e-6 0.94265,-0.112218 1.27932,-0.336664 0.33666,-0.246883 0.50499,-0.628435 0.505,-1.144657"
         style=""
         id="path3972" />
      <path
         d="m 237.99037,93.369617 c -0.56112,0.493774 -1.32422,0.89777 -2.28931,1.211989 -0.96511,0.314219 -1.9751,0.471329 -3.02998,0.471329 -1.1671,0 -2.17709,-0.201998 -3.02997,-0.605994 -0.83044,-0.403996 -1.51499,-0.987546 -2.05365,-1.750652 -0.53866,-0.763102 -0.94266,-1.683315 -1.21199,-2.760643 -0.24689,-1.099763 -0.37033,-2.345417 -0.37033,-3.736968 0,-3.029963 0.59477,-5.263163 1.78432,-6.699609 1.21199,-1.45886 2.88408,-2.188297 5.01629,-2.188315 0.71821,1.8e-5 1.41398,0.112239 2.08732,0.336664 0.67331,0.202015 1.26809,0.561123 1.78431,1.077324 0.53865,0.493789 0.96509,1.167116 1.27933,2.019983 0.33665,0.83045 0.50498,1.885329 0.50499,3.164639 -1e-5,0.493784 -0.0337,1.021223 -0.101,1.58232 -0.0449,0.561115 -0.12345,1.167109 -0.23566,1.817984 l -8.18093,0 c 0.0449,1.39155 0.33666,2.457651 0.87532,3.198306 0.53866,0.740664 1.40276,1.110994 2.59232,1.110991 0.7182,3e-6 1.36909,-0.112218 1.95265,-0.336664 0.60598,-0.224439 1.06609,-0.460103 1.38032,-0.706994 l 1.24565,2.79431 m -5.25195,-12.624892 c -0.85289,1.4e-5 -1.49255,0.347899 -1.91899,1.043657 -0.42644,0.67334 -0.67333,1.62722 -0.74066,2.861643 l 4.64596,0 c 0.0673,-1.279311 -0.0673,-2.244413 -0.40399,-2.895309 -0.33668,-0.673314 -0.86411,-1.009977 -1.58232,-1.009991"
         style=""
         id="path3974" />
      <path
         d="m 239.69842,77.782084 1.85165,0 0,-3.16464 4.0063,-1.245656 0,4.410296 3.26564,0 0,3.568636 -3.26564,0 0,7.33927 c -10e-6,0.965108 0.0898,1.649657 0.26933,2.053649 0.20199,0.404 0.54987,0.605998 1.04366,0.605995 0.33665,3e-6 0.63965,-0.03366 0.90899,-0.100999 0.26932,-0.06733 0.56109,-0.168329 0.87532,-0.302998 l 0.505,3.198306 c -0.49378,0.246887 -1.06611,0.448885 -1.71699,0.605995 -0.65089,0.179554 -1.33544,0.269331 -2.05365,0.269331 -1.27932,0 -2.24442,-0.37033 -2.8953,-1.11099 -0.62845,-0.740659 -0.94266,-1.986314 -0.94266,-3.736968 l 0,-8.820591 -1.85165,0 0,-3.568636"
         style=""
         id="path3976" />
      <path
         d="m 249.29859,77.782084 1.85165,0 0,-3.16464 4.0063,-1.245656 0,4.410296 3.26564,0 0,3.568636 -3.26564,0 0,7.33927 c -1e-5,0.965108 0.0898,1.649657 0.26933,2.053649 0.20199,0.404 0.54988,0.605998 1.04366,0.605995 0.33666,3e-6 0.63965,-0.03366 0.90899,-0.100999 0.26932,-0.06733 0.5611,-0.168329 0.87533,-0.302998 l 0.50499,3.198306 c -0.49378,0.246887 -1.06611,0.448885 -1.71698,0.605995 -0.65089,0.179554 -1.33544,0.269331 -2.05365,0.269331 -1.27933,0 -2.24443,-0.37033 -2.89531,-1.11099 -0.62844,-0.740659 -0.94266,-1.986314 -0.94266,-3.736968 l 0,-8.820591 -1.85165,0 0,-3.568636"
         style=""
         id="path3978" />
      <path
         d="m 260.74568,77.782084 4.0063,0 0,16.833189 -4.0063,0 0,-16.833189 m -0.47133,-4.74696 c 0,-0.673305 0.21322,-1.223189 0.63966,-1.649652 0.42644,-0.448862 1.03244,-0.673304 1.81799,-0.673328 0.78554,2.4e-5 1.41398,0.213244 1.88532,0.639661 0.47132,0.426464 0.70698,0.98757 0.70699,1.683319 -1e-5,0.695793 -0.23567,1.245677 -0.70699,1.649653 -0.47134,0.404016 -1.09978,0.606014 -1.88532,0.605995 -0.78555,1.9e-5 -1.39155,-0.201979 -1.81799,-0.605995 -0.42644,-0.426421 -0.63966,-0.976304 -0.63966,-1.649653"
         style=""
         id="path3980" />
      <path
         d="m 276.32008,94.615273 0,-10.234579 c -1e-5,-1.234423 -0.1459,-2.098526 -0.43766,-2.592312 -0.29179,-0.49376 -0.78556,-0.740646 -1.48132,-0.74066 -0.58356,1.4e-5 -1.08856,0.179568 -1.51499,0.538662 -0.42645,0.359121 -0.72945,0.808006 -0.90899,1.346655 l 0,11.682234 -4.0063,0 0,-16.833189 3.1983,0 0.47133,1.952649 0.101,0 c 0.40399,-0.650867 0.95388,-1.200751 1.64965,-1.649652 0.69577,-0.471312 1.60476,-0.706977 2.72698,-0.706994 0.67332,1.7e-5 1.26809,0.101016 1.78432,0.302997 0.53865,0.202015 0.98753,0.538679 1.34665,1.009992 0.3591,0.4489 0.62843,1.066117 0.808,1.851651 0.17954,0.763117 0.26931,1.716997 0.26933,2.861642 l 0,11.210904 -4.0063,0"
         style=""
         id="path3982" />
      <path
         d="m 295.14695,94.615273 c -2e-5,2.446421 -0.56112,4.241959 -1.68332,5.386617 -1.12223,1.1671 -2.6821,1.75065 -4.67963,1.75065 -1.39155,0 -2.48009,-0.11222 -3.26564,-0.33666 -0.78555,-0.202 -1.39154,-0.42645 -1.81798,-0.67333 l 0.84166,-3.400301 c 0.49377,0.201995 1.02121,0.392771 1.58232,0.572329 0.58354,0.17955 1.26809,0.269327 2.05365,0.269331 1.14465,-4e-6 1.93019,-0.314223 2.35664,-0.942659 0.44888,-0.605997 0.67332,-1.537432 0.67333,-2.794309 l 0,-0.908993 -0.101,0 c -0.31423,0.448886 -0.74067,0.78555 -1.27932,1.009992 -0.51623,0.224442 -1.18955,0.336663 -2.01998,0.336664 -1.7731,-10e-7 -3.10854,-0.662105 -4.0063,-1.986317 -0.87533,-1.346652 -1.31299,-3.467632 -1.31299,-6.362945 0,-3.11974 0.60599,-5.420274 1.81798,-6.901608 1.23443,-1.481304 2.98508,-2.221963 5.25196,-2.221981 1.21198,1.8e-5 2.30052,0.101017 3.26564,0.302998 0.96509,0.17957 1.73941,0.404013 2.32298,0.673327 l 0,16.227195 m -6.22828,-3.16464 c 0.60598,3e-6 1.07731,-0.145884 1.41398,-0.437663 0.3591,-0.291771 0.62843,-0.70699 0.808,-1.245656 l 0,-8.416594 c -0.2469,-0.112208 -0.52745,-0.201985 -0.84166,-0.269331 -0.29179,-0.06732 -0.63967,-0.100986 -1.04366,-0.101 -0.83044,1.4e-5 -1.48133,0.40401 -1.95265,1.21199 -0.44889,0.808005 -0.67333,2.199547 -0.67333,4.174631 0,3.389087 0.7631,5.083626 2.28932,5.083623"
         style=""
         id="path3984" />
      <path
         d="m 303.67663,90.137644 c 0,-0.471324 -0.15711,-0.864098 -0.47132,-1.178323 -0.29179,-0.336658 -0.67334,-0.639655 -1.14466,-0.908992 -0.47134,-0.291769 -0.97633,-0.583544 -1.51499,-0.875326 -0.51622,-0.291768 -1.00999,-0.650875 -1.48132,-1.077324 -0.47133,-0.426432 -0.8641,-0.942649 -1.17832,-1.548654 -0.29178,-0.605984 -0.43767,-1.369087 -0.43767,-2.289313 0,-1.571084 0.42644,-2.783072 1.27933,-3.635969 0.85288,-0.852865 2.10975,-1.279305 3.77063,-1.279322 0.98754,1.7e-5 1.91898,0.112238 2.79431,0.336663 0.87532,0.202015 1.57109,0.460124 2.08732,0.774327 l -0.94266,3.097307 c -0.42645,-0.179541 -0.94267,-0.347873 -1.54866,-0.504996 -0.606,-0.17954 -1.20077,-0.269317 -1.78431,-0.269331 -1.09978,1.4e-5 -1.64966,0.460121 -1.64966,1.380322 0,0.426452 0.14589,0.78556 0.43767,1.077324 0.31421,0.269342 0.70698,0.538673 1.17832,0.807993 0.47132,0.269341 0.96509,0.549894 1.48132,0.841659 0.53865,0.291785 1.04365,0.662115 1.51499,1.110991 0.47132,0.426449 0.85287,0.953888 1.14465,1.58232 0.31421,0.628445 0.47132,1.402771 0.47133,2.32298 -10e-6,1.548656 -0.47134,2.794311 -1.41398,3.736968 -0.94267,0.942658 -2.34544,1.413987 -4.2083,1.413987 -0.92022,0 -1.82921,-0.112221 -2.72698,-0.336663 -0.87533,-0.224443 -1.58232,-0.516218 -2.12098,-0.875326 l 1.11099,-3.231972 c 0.47133,0.269334 1.00999,0.504999 1.61599,0.706993 0.62843,0.202002 1.27931,0.303001 1.95265,0.302998 0.51621,3e-6 0.94265,-0.112218 1.27932,-0.336664 0.33666,-0.246883 0.50499,-0.628435 0.50499,-1.144657"
         style=""
         id="path3986" />
      <path
         d="m 309.48777,92.426958 c -1e-5,-0.830434 0.21322,-1.458873 0.63966,-1.885317 0.44888,-0.426437 1.03243,-0.639657 1.75065,-0.639661 0.78554,4e-6 1.39154,0.213224 1.81798,0.639661 0.42644,0.426444 0.63966,1.054883 0.63966,1.885317 0,0.807994 -0.22444,1.436433 -0.67332,1.885317 -0.42645,0.448885 -1.02122,0.673327 -1.78432,0.673328 -0.74066,-10e-7 -1.32421,-0.224443 -1.75065,-0.673328 -0.42644,-0.448884 -0.63967,-1.077323 -0.63966,-1.885317"
         style=""
         id="path3988" />
      <path
         d="m 321.68709,87.242336 0.43766,2.625977 0.16833,0 0.303,-2.659644 1.95265,-9.426585 4.1073,0 -4.2083,15.183536 c -0.38156,1.324211 -0.74067,2.513755 -1.07732,3.568636 -0.33667,1.054877 -0.69578,1.952646 -1.07733,2.69331 -0.38156,0.740655 -0.81922,1.301764 -1.31299,1.683324 -0.47133,0.40399 -1.04366,0.60598 -1.71698,0.60599 -0.47133,-1e-5 -0.93144,-0.0449 -1.38032,-0.13467 -0.42645,-0.0673 -0.79678,-0.19078 -1.11099,-0.37033 l 0.67332,-3.433966 c 0.29178,0.112218 0.58355,0.157106 0.87533,0.134665 0.31422,-3e-6 0.59477,-0.112224 0.84166,-0.336663 0.26933,-0.202001 0.50499,-0.527443 0.70699,-0.976325 0.202,-0.448887 0.37033,-1.043659 0.505,-1.784318 l -5.85795,-16.833189 4.81429,0 2.35665,9.460252"
         style=""
         id="path3990" />
      <path
         d="m 337.55711,94.615273 0,-9.796916 c -1e-5,-1.413977 -0.11223,-2.390301 -0.33667,-2.928975 -0.22445,-0.561093 -0.66211,-0.841646 -1.31299,-0.84166 -0.53866,1.4e-5 -0.98755,0.179568 -1.34665,0.538662 -0.33667,0.336677 -0.59478,0.751895 -0.77433,1.245656 l 0,11.783233 -4.0063,0 0,-16.833189 3.09731,0 0.505,2.019982 0.101,0 c 0.42643,-0.695756 0.95387,-1.268084 1.58232,-1.716985 0.65087,-0.471312 1.50375,-0.706977 2.55864,-0.706994 0.87532,1.7e-5 1.58231,0.190793 2.12098,0.572328 0.5611,0.381569 0.99876,1.054896 1.31299,2.019983 0.42643,-0.807978 0.98753,-1.436416 1.68332,-1.885317 0.69576,-0.471312 1.51497,-0.706977 2.45764,-0.706994 0.74065,1.7e-5 1.36909,0.101016 1.88532,0.302997 0.53864,0.179571 0.96509,0.505012 1.27932,0.976325 0.33665,0.471345 0.58353,1.122228 0.74066,1.95265 0.15709,0.808007 0.23565,1.840441 0.23567,3.097307 l 0,10.907907 -4.0063,0 0,-10.234579 c -2e-5,-1.144646 -0.10102,-1.986304 -0.303,-2.524979 -0.20201,-0.538648 -0.6509,-0.807979 -1.34665,-0.807993 -0.56112,1.4e-5 -1.02123,0.168345 -1.38032,0.504996 -0.33668,0.314232 -0.58357,0.751895 -0.74066,1.312989 l 0,11.749566 -4.0063,0"
         style=""
         id="path3992" />
      <path
         d="m 356.14464,89.161319 c -10e-6,0.785554 0.0786,1.34666 0.23566,1.683319 0.15711,0.336667 0.41522,0.504999 0.77433,0.504996 0.20199,3e-6 0.40399,-0.02244 0.60599,-0.06733 0.22444,-0.04489 0.47133,-0.12344 0.74066,-0.235665 l 0.37033,3.231973 c -0.26933,0.179554 -0.72944,0.347886 -1.38032,0.504995 -0.65089,0.15711 -1.31299,0.235665 -1.98631,0.235665 -1.12222,0 -1.96388,-0.280553 -2.52498,-0.841659 -0.56111,-0.561106 -0.84166,-1.514985 -0.84166,-2.861643 l 0,-20.267159 4.0063,0 0,18.112511"
         style=""
         id="path3994" />
    </g>
    <g
       style="font-size:40px;font-style:normal;font-variant:normal;font-weight:normal;font-stretch:normal;line-height:125%;letter-spacing:0px;word-spacing:0px;fill:#ffffff;fill-opacity:1;stroke:none;font-family:PT Sans;-inkscape-font-specification:PT Sans"
       id="text3144">
      <path
         d="m 141.73544,134.45488 c -0.82032,1e-5 -1.46485,0.36329 -1.93359,1.08984 -0.46876,0.71876 -0.70313,1.72267 -0.70313,3.01172 0,1.28907 0.23437,2.29688 0.70313,3.02344 0.46874,0.71875 1.11327,1.07813 1.93359,1.07812 0.82812,1e-5 1.47656,-0.35937 1.94532,-1.07812 0.46874,-0.72656 0.70311,-1.73437 0.70312,-3.02344 -1e-5,-1.28905 -0.23438,-2.29296 -0.70312,-3.01172 -0.46876,-0.72655 -1.1172,-1.08983 -1.94532,-1.08984 m -6.07031,4.10156 c 0,-2.11718 0.54687,-3.79296 1.64063,-5.02734 1.10155,-1.24218 2.57812,-1.86327 4.42968,-1.86328 1.85937,1e-5 3.33593,0.6211 4.42969,1.86328 1.10155,1.23438 1.65233,2.91016 1.65234,5.02734 -10e-6,2.11719 -0.55079,3.79688 -1.65234,5.03906 -1.09376,1.23438 -2.57032,1.85157 -4.42969,1.85157 -1.85156,0 -3.32813,-0.61719 -4.42968,-1.85157 -1.09376,-1.24218 -1.64063,-2.92187 -1.64063,-5.03906"
         style="font-size:24px;font-weight:bold;fill:#ffffff;font-family:Monospace;-inkscape-font-specification:Monospace Bold"
         id="path4752" />
      <path
         d="m 162.44247,135.60332 c -0.37501,-0.34374 -0.81641,-0.60156 -1.32421,-0.77344 -0.50002,-0.17186 -1.0508,-0.2578 -1.65235,-0.25781 -0.72657,1e-5 -1.36329,0.12891 -1.91015,0.38672 -0.53907,0.25001 -0.95704,0.61719 -1.25391,1.10156 -0.18751,0.29688 -0.32032,0.65626 -0.39844,1.07812 -0.0703,0.42189 -0.10547,1.06251 -0.10547,1.92188 l 0,6.04687 -3.43359,0 0,-13.125 3.43359,0 0,2.03907 c 0.33593,-0.74999 0.85156,-1.32812 1.54688,-1.73438 0.6953,-0.41405 1.5078,-0.62108 2.4375,-0.62109 0.46874,1e-5 0.92577,0.0586 1.37109,0.17578 0.45311,0.10939 0.8828,0.27345 1.28906,0.49219 l 0,3.26953"
         style="font-size:24px;font-weight:bold;fill:#ffffff;font-family:Monospace;-inkscape-font-specification:Monospace Bold"
         id="path4754" />
      <path
         d="m 165.98154,131.98222 6.79687,0 0,10.48828 4.26563,0 0,2.63672 -11.97657,0 0,-2.63672 4.27735,0 0,-7.85156 -3.36328,0 0,-2.63672 m 3.36328,-6.38672 3.43359,0 0,4.00782 -3.43359,0 0,-4.00782"
         style="font-size:24px;font-weight:bold;fill:#ffffff;font-family:Monospace;-inkscape-font-specification:Monospace Bold"
         id="path4756" />
      <path
         d="m 187.23935,138.33379 c -1e-5,-1.17187 -0.22267,-2.10937 -0.66797,-2.8125 -0.44532,-0.71093 -1.03126,-1.0664 -1.75781,-1.06641 -0.71876,1e-5 -1.30079,0.35157 -1.7461,1.05469 -0.4375,0.70313 -0.65625,1.64454 -0.65625,2.82422 0,1.1875 0.21875,2.13281 0.65625,2.83593 0.44531,0.70313 1.02734,1.05469 1.7461,1.05469 0.72655,0 1.31249,-0.35156 1.75781,-1.05469 0.4453,-0.71093 0.66796,-1.65624 0.66797,-2.83593 m 3.43359,5.78906 c -1e-5,2.10156 -0.47657,3.61718 -1.42968,4.54687 -0.94533,0.9375 -2.48439,1.40625 -4.61719,1.40625 -0.71876,0 -1.42969,-0.0547 -2.13281,-0.16406 -0.70313,-0.10157 -1.41798,-0.26172 -2.14454,-0.48047 l 0,-3.15234 c 0.64844,0.35937 1.30859,0.625 1.98047,0.79687 0.67187,0.17188 1.36328,0.25781 2.07422,0.25782 0.96874,-1e-5 1.68359,-0.23047 2.14453,-0.69141 0.46093,-0.45313 0.6914,-1.16406 0.69141,-2.13281 l 0,-1.41797 c -0.33595,0.625 -0.78126,1.08984 -1.33594,1.39453 -0.55469,0.30469 -1.23047,0.45703 -2.02734,0.45703 -1.50001,0 -2.69141,-0.58594 -3.57422,-1.75781 -0.88281,-1.17187 -1.32422,-2.76172 -1.32422,-4.76953 0,-2.07812 0.44141,-3.72655 1.32422,-4.94532 0.88281,-1.21873 2.0664,-1.82811 3.55078,-1.82812 0.74999,1e-5 1.41796,0.17579 2.00391,0.52734 0.58593,0.35158 1.04686,0.84767 1.38281,1.48828 l 0,-1.67578 3.43359,0 0,12.14063"
         style="font-size:24px;font-weight:bold;fill:#ffffff;font-family:Monospace;-inkscape-font-specification:Monospace Bold"
         id="path4758" />
      <path
         d="m 194.85654,131.98222 6.79687,0 0,10.48828 4.26563,0 0,2.63672 -11.97657,0 0,-2.63672 4.27735,0 0,-7.85156 -3.36328,0 0,-2.63672 m 3.36328,-6.38672 3.43359,0 0,4.00782 -3.43359,0 0,-4.00782"
         style="font-size:24px;font-weight:bold;fill:#ffffff;font-family:Monospace;-inkscape-font-specification:Monospace Bold"
         id="path4760" />
      <path
         d="m 219.25497,136.58769 0,8.51953 -3.41015,0 0,-7.99218 c -1e-5,-0.95312 -0.13673,-1.63281 -0.41016,-2.03907 -0.26563,-0.41405 -0.70313,-0.62108 -1.3125,-0.62109 -0.61719,1e-5 -1.10547,0.27735 -1.46484,0.83203 -0.35157,0.5547 -0.52735,1.32423 -0.52735,2.30859 l 0,7.51172 -3.41015,0 0,-13.125 3.41015,0 0,1.96875 c 0.24219,-0.72655 0.65625,-1.28905 1.24219,-1.6875 0.58593,-0.39842 1.29296,-0.59764 2.1211,-0.59765 1.24217,1e-5 2.17967,0.41407 2.8125,1.24218 0.6328,0.82033 0.9492,2.04689 0.94921,3.67969"
         style="font-size:24px;font-weight:bold;fill:#ffffff;font-family:Monospace;-inkscape-font-specification:Monospace Bold"
         id="path4762" />
      <path
         d="m 232.75497,132.39238 0,3 c -0.63282,-0.40624 -1.29297,-0.71093 -1.98046,-0.91406 -0.6797,-0.21093 -1.36329,-0.3164 -2.05079,-0.31641 -0.76563,1e-5 -1.34375,0.11329 -1.73437,0.33984 -0.39063,0.21877 -0.58594,0.54689 -0.58594,0.98438 0,0.62501 0.83593,1.13282 2.50781,1.52344 l 0.12891,0.0352 0.98438,0.23438 c 1.24999,0.29688 2.16405,0.77735 2.74218,1.4414 0.58593,0.65626 0.8789,1.54688 0.87891,2.67188 -1e-5,1.35156 -0.44533,2.36719 -1.33594,3.04687 -0.88282,0.67188 -2.21485,1.00782 -3.99609,1.00782 -0.78907,0 -1.59766,-0.0703 -2.42578,-0.21094 -0.82813,-0.13281 -1.66797,-0.33594 -2.51953,-0.60938 l 0,-3 c 0.75781,0.4297 1.52734,0.75782 2.30859,0.98438 0.78906,0.22656 1.55077,0.33985 2.28516,0.33984 0.80468,10e-6 1.41405,-0.11718 1.82812,-0.35156 0.41405,-0.23437 0.62109,-0.57421 0.62109,-1.01953 0,-0.4375 -0.14844,-0.77343 -0.44531,-1.00781 -0.28907,-0.23437 -0.98438,-0.48437 -2.08594,-0.75 l -0.94921,-0.21094 c -1.31251,-0.29687 -2.26954,-0.76171 -2.8711,-1.39453 -0.60156,-0.63281 -0.90234,-1.48046 -0.90234,-2.54297 0,-1.26561 0.45703,-2.24999 1.37109,-2.95313 0.91406,-0.70311 2.19922,-1.05467 3.85547,-1.05468 0.74218,1e-5 1.48046,0.0625 2.21484,0.1875 0.74218,0.1172 1.46093,0.29689 2.15625,0.53906"
         style="font-size:24px;font-weight:bold;fill:#ffffff;font-family:Monospace;-inkscape-font-specification:Monospace Bold"
         id="path4764" />
      <path
         d="m 240.84091,132.65019 3.90235,0 0,4.27735 -3.90235,0 0,-4.27735 m 0,8.15625 3.90235,0 0,4.30078 -3.90235,0 0,-4.30078"
         style="font-size:24px;font-weight:bold;fill:#ffffff;font-family:Monospace;-inkscape-font-specification:Monospace Bold"
         id="path4766" />
      <path
         d="m 175.09872,157.61113 0,6.50391 -3,0 0,-6.50391 3,0 m -6,0 0,6.50391 -3,0 0,-6.50391 3,0"
         style="font-size:24px;font-weight:bold;fill:#ffffff;font-family:Monospace;-inkscape-font-specification:Monospace Bold"
         id="path4768" />
      <path
         d="m 178.83701,157.61113 4.125,0 2.08593,7.67578 2.07422,-7.67578 4.14844,0 0,17.49609 -2.97656,0 0,-14.01562 -1.85157,7.65234 -2.7539,0 -1.875,-7.65234 0,14.01562 -2.97656,0 0,-17.49609"
         style="fill:#00ff00"
         id="path4770" />
      <path
         d="m 200.59872,176.52519 c -0.46094,1.23437 -1.01563,2.13281 -1.66406,2.69531 -0.64063,0.57031 -1.42188,0.85547 -2.34375,0.85547 l -2.83594,0 0,-2.61328 1.39454,0 c 0.70312,0 1.21874,-0.12109 1.54687,-0.36328 0.32812,-0.23438 0.66015,-0.78516 0.99609,-1.65234 l 0.25782,-0.70313 -4.99219,-12.76172 3.60937,0 3,8.51953 2.8711,-8.51953 3.60937,0 -5.44922,14.54297"
         style="fill:#00ff00"
         id="path4772" />
      <path
         d="m 213.92294,160.40019 c -0.88282,2e-5 -1.52735,0.47267 -1.93359,1.41797 -0.40626,0.93751 -0.60938,2.45704 -0.60938,4.55859 0,2.09376 0.20312,3.61329 0.60938,4.5586 0.40624,0.9375 1.05077,1.40625 1.93359,1.40625 0.89062,0 1.53906,-0.46875 1.94532,-1.40625 0.40624,-0.94531 0.60936,-2.46484 0.60937,-4.5586 -1e-5,-2.10155 -0.20313,-3.62108 -0.60937,-4.55859 -0.40626,-0.9453 -1.0547,-1.41795 -1.94532,-1.41797 m -6.14062,5.97656 c 0,-2.99217 0.51562,-5.25389 1.54687,-6.78515 1.03906,-1.53123 2.57031,-2.29686 4.59375,-2.29688 2.03124,2e-5 3.56249,0.76565 4.59375,2.29688 1.03905,1.53126 1.55858,3.79298 1.5586,6.78515 -2e-5,2.98439 -0.51955,5.2422 -1.5586,6.77344 -1.03126,1.53125 -2.56251,2.29688 -4.59375,2.29688 -2.02344,0 -3.55469,-0.76563 -4.59375,-2.29688 -1.03125,-1.53124 -1.54687,-3.78905 -1.54687,-6.77344"
         style="fill:#00ff00"
         id="path4774" />
      <path
         d="m 234.62997,165.60332 c -0.37501,-0.34374 -0.81641,-0.60156 -1.32421,-0.77344 -0.50002,-0.17186 -1.0508,-0.2578 -1.65235,-0.25781 -0.72657,1e-5 -1.36329,0.12891 -1.91015,0.38672 -0.53907,0.25001 -0.95704,0.61719 -1.25391,1.10156 -0.18751,0.29688 -0.32032,0.65626 -0.39844,1.07812 -0.0703,0.42189 -0.10547,1.06251 -0.10547,1.92188 l 0,6.04687 -3.43359,0 0,-13.125 3.43359,0 0,2.03907 c 0.33593,-0.74999 0.85156,-1.32812 1.54688,-1.73438 0.6953,-0.41405 1.5078,-0.62108 2.4375,-0.62109 0.46874,1e-5 0.92577,0.0586 1.37109,0.17578 0.45311,0.10939 0.8828,0.27345 1.28906,0.49219 l 0,3.26953"
         style="fill:#00ff00"
         id="path4776" />
      <path
         d="m 238.16904,161.98222 6.79687,0 0,10.48828 4.26563,0 0,2.63672 -11.97657,0 0,-2.63672 4.27735,0 0,-7.85156 -3.36328,0 0,-2.63672 m 3.36328,-6.38672 3.43359,0 0,4.00782 -3.43359,0 0,-4.00782"
         style="fill:#00ff00"
         id="path4778" />
      <path
         d="m 259.42685,168.33379 c -10e-6,-1.17187 -0.22267,-2.10937 -0.66797,-2.8125 -0.44532,-0.71093 -1.03126,-1.0664 -1.75781,-1.06641 -0.71876,1e-5 -1.30079,0.35157 -1.7461,1.05469 -0.4375,0.70313 -0.65625,1.64454 -0.65625,2.82422 0,1.1875 0.21875,2.13281 0.65625,2.83593 0.44531,0.70313 1.02734,1.05469 1.7461,1.05469 0.72655,0 1.31249,-0.35156 1.75781,-1.05469 0.4453,-0.71093 0.66796,-1.65624 0.66797,-2.83593 m 3.43359,5.78906 c -10e-6,2.10156 -0.47657,3.61718 -1.42968,4.54687 -0.94533,0.9375 -2.48439,1.40625 -4.61719,1.40625 -0.71876,0 -1.42969,-0.0547 -2.13281,-0.16406 -0.70313,-0.10157 -1.41798,-0.26172 -2.14454,-0.48047 l 0,-3.15234 c 0.64844,0.35937 1.30859,0.625 1.98047,0.79687 0.67187,0.17188 1.36328,0.25781 2.07422,0.25782 0.96874,-1e-5 1.68359,-0.23047 2.14453,-0.69141 0.46093,-0.45313 0.6914,-1.16406 0.69141,-2.13281 l 0,-1.41797 c -0.33595,0.625 -0.78126,1.08984 -1.33594,1.39453 -0.55469,0.30469 -1.23047,0.45703 -2.02734,0.45703 -1.50001,0 -2.69141,-0.58594 -3.57422,-1.75781 -0.88281,-1.17187 -1.32422,-2.76172 -1.32422,-4.76953 0,-2.07812 0.44141,-3.72655 1.32422,-4.94532 0.88281,-1.21873 2.0664,-1.82811 3.55078,-1.82812 0.74999,1e-5 1.41796,0.17579 2.00391,0.52734 0.58593,0.35158 1.04686,0.84767 1.38281,1.48828 l 0,-1.67578 3.43359,0 0,12.14063"
         style="fill:#00ff00"
         id="path4780" />
      <path
         d="m 267.04404,161.98222 6.79687,0 0,10.48828 4.26563,0 0,2.63672 -11.97657,0 0,-2.63672 4.27735,0 0,-7.85156 -3.36328,0 0,-2.63672 m 3.36328,-6.38672 3.43359,0 0,4.00782 -3.43359,0 0,-4.00782"
         style="fill:#00ff00"
         id="path4782" />
      <path
         d="m 291.44247,166.58769 0,8.51953 -3.41015,0 0,-7.99218 c -1e-5,-0.95312 -0.13673,-1.63281 -0.41016,-2.03907 -0.26563,-0.41405 -0.70313,-0.62108 -1.3125,-0.62109 -0.61719,1e-5 -1.10547,0.27735 -1.46484,0.83203 -0.35157,0.5547 -0.52735,1.32423 -0.52735,2.30859 l 0,7.51172 -3.41015,0 0,-13.125 3.41015,0 0,1.96875 c 0.24219,-0.72655 0.65625,-1.28905 1.24219,-1.6875 0.58593,-0.39842 1.29296,-0.59764 2.1211,-0.59765 1.24217,1e-5 2.17967,0.41407 2.8125,1.24218 0.6328,0.82033 0.9492,2.04689 0.94921,3.67969"
         style="fill:#00ff00"
         id="path4784" />
      <path
         d="m 305.03622,157.61113 0,6.50391 -3,0 0,-6.50391 3,0 m -6,0 0,6.50391 -3,0 0,-6.50391 3,0"
         style="font-size:24px;font-weight:bold;fill:#ffffff;font-family:Monospace;-inkscape-font-specification:Monospace Bold"
         id="path4786" />
      <path
         d="m 327.46591,162.65019 3.90235,0 0,4.27735 -3.90235,0 0,-4.27735 m 0,8.15625 3.90235,0 0,4.30078 -3.90235,0 0,-4.30078"
         style="font-size:24px;font-weight:bold;fill:#ffffff;font-family:Monospace;-inkscape-font-specification:Monospace Bold"
         id="path4788" />
      <path
         d="m 363.41904,176.783 0,2.23829 -1.75782,0 c -1.94532,-1e-5 -3.25,-0.28907 -3.91406,-0.86719 -0.65625,-0.57813 -0.98438,-1.73047 -0.98437,-3.45703 l 0,-2.51953 c -10e-6,-1.17969 -0.21095,-1.99219 -0.63282,-2.4375 -0.41406,-0.45312 -1.16797,-0.67969 -2.26171,-0.67969 l -0.72657,0 0,-2.23828 0.72657,0 c 1.09374,1e-5 1.84765,-0.22265 2.26171,-0.66797 0.42187,-0.4453 0.63281,-1.26171 0.63282,-2.44922 l 0,-2.51953 c -10e-6,-1.72655 0.32812,-2.87498 0.98437,-3.44531 0.66406,-0.57811 1.96874,-0.86717 3.91406,-0.86719 l 1.75782,0 0,2.22656 -1.44141,0 c -0.81251,2e-5 -1.35548,0.16408 -1.62891,0.49219 -0.27344,0.32814 -0.41016,1.05079 -0.41015,2.16797 l 0,2.44922 c -1e-5,1.28907 -0.19142,2.19532 -0.57422,2.71875 -0.38282,0.52344 -1.06641,0.85938 -2.05078,1.00781 0.98437,0.16407 1.66796,0.51172 2.05078,1.04297 0.3828,0.53125 0.57421,1.4375 0.57422,2.71875 l 0,2.40234 c -1e-5,1.125 0.13671,1.85156 0.41015,2.17969 0.27343,0.33593 0.8164,0.5039 1.62891,0.5039 l 1.44141,0"
         style="font-size:24px;font-weight:bold;fill:#ffffff;font-family:Monospace;-inkscape-font-specification:Monospace Bold"
         id="path4790" />
      <path
         d="m 203.87997,192.39238 0,3 c -0.63282,-0.40624 -1.29297,-0.71093 -1.98046,-0.91406 -0.6797,-0.21093 -1.36329,-0.3164 -2.05079,-0.31641 -0.76563,1e-5 -1.34375,0.11329 -1.73437,0.33984 -0.39063,0.21877 -0.58594,0.54689 -0.58594,0.98438 0,0.62501 0.83593,1.13282 2.50781,1.52344 l 0.12891,0.0352 0.98438,0.23438 c 1.24999,0.29688 2.16405,0.77735 2.74218,1.4414 0.58593,0.65626 0.8789,1.54688 0.87891,2.67188 -1e-5,1.35156 -0.44533,2.36719 -1.33594,3.04687 -0.88282,0.67188 -2.21485,1.00782 -3.99609,1.00782 -0.78907,0 -1.59766,-0.0703 -2.42578,-0.21094 -0.82813,-0.13281 -1.66797,-0.33594 -2.51953,-0.60938 l 0,-3 c 0.75781,0.4297 1.52734,0.75782 2.30859,0.98438 0.78906,0.22656 1.55077,0.33985 2.28516,0.33984 0.80468,10e-6 1.41405,-0.11718 1.82812,-0.35156 0.41405,-0.23437 0.62109,-0.57421 0.62109,-1.01953 0,-0.4375 -0.14844,-0.77343 -0.44531,-1.00781 -0.28907,-0.23437 -0.98438,-0.48437 -2.08594,-0.75 l -0.94921,-0.21094 c -1.31251,-0.29687 -2.26954,-0.76171 -2.8711,-1.39453 -0.60156,-0.63281 -0.90234,-1.48046 -0.90234,-2.54297 0,-1.26561 0.45703,-2.24999 1.37109,-2.95313 0.91406,-0.70311 2.19922,-1.05467 3.85547,-1.05468 0.74218,1e-5 1.48046,0.0625 2.21484,0.1875 0.74218,0.1172 1.46093,0.29689 2.15625,0.53906"
         style="font-size:24px;font-weight:bold;fill:#ffffff;font-family:Monospace;-inkscape-font-specification:Monospace Bold"
         id="path4792" />
      <path
         d="m 214.79013,188.25566 0,3.72656 4.48828,0 0,2.63672 -4.48828,0 0,6.21094 c -1e-5,0.58594 0.14062,1.00782 0.42188,1.26562 0.28905,0.25001 0.76561,0.37501 1.42968,0.375 l 2.63672,0 0,2.63672 -2.88281,0 c -1.96876,0 -3.30079,-0.3125 -3.99609,-0.9375 -0.69532,-0.63281 -1.04298,-1.80078 -1.04297,-3.5039 l 0,-6.04688 -3.35157,0 0,-2.63672 3.35157,0 0,-3.72656 3.43359,0"
         style="font-size:24px;font-weight:bold;fill:#ffffff;font-family:Monospace;-inkscape-font-specification:Monospace Bold"
         id="path4794" />
      <path
         d="m 228.36044,194.45488 c -0.82032,1e-5 -1.46485,0.36329 -1.93359,1.08984 -0.46876,0.71876 -0.70313,1.72267 -0.70313,3.01172 0,1.28907 0.23437,2.29688 0.70313,3.02344 0.46874,0.71875 1.11327,1.07813 1.93359,1.07812 0.82812,1e-5 1.47656,-0.35937 1.94532,-1.07812 0.46874,-0.72656 0.70311,-1.73437 0.70312,-3.02344 -1e-5,-1.28905 -0.23438,-2.29296 -0.70312,-3.01172 -0.46876,-0.72655 -1.1172,-1.08983 -1.94532,-1.08984 m -6.07031,4.10156 c 0,-2.11718 0.54687,-3.79296 1.64063,-5.02734 1.10155,-1.24218 2.57812,-1.86327 4.42968,-1.86328 1.85937,1e-5 3.33593,0.6211 4.42969,1.86328 1.10155,1.23438 1.65233,2.91016 1.65234,5.02734 -10e-6,2.11719 -0.55079,3.79688 -1.65234,5.03906 -1.09376,1.23438 -2.57032,1.85157 -4.42969,1.85157 -1.85156,0 -3.32813,-0.61719 -4.42968,-1.85157 -1.09376,-1.24218 -1.64063,-2.92187 -1.64063,-5.03906"
         style="font-size:24px;font-weight:bold;fill:#ffffff;font-family:Monospace;-inkscape-font-specification:Monospace Bold"
         id="path4796" />
      <path
         d="m 249.06747,195.60332 c -0.37501,-0.34374 -0.81641,-0.60156 -1.32421,-0.77344 -0.50002,-0.17186 -1.0508,-0.2578 -1.65235,-0.25781 -0.72657,1e-5 -1.36329,0.12891 -1.91015,0.38672 -0.53907,0.25001 -0.95704,0.61719 -1.25391,1.10156 -0.18751,0.29688 -0.32032,0.65626 -0.39844,1.07812 -0.0703,0.42189 -0.10547,1.06251 -0.10547,1.92188 l 0,6.04687 -3.43359,0 0,-13.125 3.43359,0 0,2.03907 c 0.33593,-0.74999 0.85156,-1.32812 1.54688,-1.73438 0.6953,-0.41405 1.5078,-0.62108 2.4375,-0.62109 0.46874,1e-5 0.92577,0.0586 1.37109,0.17578 0.45311,0.10939 0.8828,0.27345 1.28906,0.49219 l 0,3.26953"
         style="font-size:24px;font-weight:bold;fill:#ffffff;font-family:Monospace;-inkscape-font-specification:Monospace Bold"
         id="path4798" />
      <path
         d="m 262.93076,204.46269 c -0.79689,0.32813 -1.60939,0.57422 -2.4375,0.73828 -0.82814,0.16407 -1.70314,0.2461 -2.625,0.2461 -2.19532,0 -3.87501,-0.58594 -5.03907,-1.75782 -1.15625,-1.17968 -1.73437,-2.87499 -1.73437,-5.08593 0,-2.14062 0.55859,-3.83202 1.67578,-5.07422 1.11718,-1.24218 2.64062,-1.86327 4.57031,-1.86328 1.94531,1e-5 3.45312,0.57814 4.52344,1.73437 1.07811,1.14845 1.61717,2.76954 1.61719,4.86328 l 0,1.39453 -8.89453,0 c 0.008,1.03126 0.31249,1.80079 0.91406,2.3086 0.60155,0.50781 1.49999,0.76172 2.69531,0.76172 0.78905,0 1.5664,-0.11328 2.33203,-0.33985 0.76562,-0.22656 1.5664,-0.58593 2.40235,-1.07812 l 0,3.15234 m -2.90625,-7.38281 c -0.0156,-0.90624 -0.25001,-1.58983 -0.70313,-2.05078 -0.44532,-0.46874 -1.10548,-0.70312 -1.98047,-0.70313 -0.78907,10e-6 -1.41797,0.2422 -1.88672,0.72657 -0.46875,0.47657 -0.7461,1.15625 -0.83203,2.03906 l 5.40235,-0.0117"
         style="font-size:24px;font-weight:bold;fill:#ffffff;font-family:Monospace;-inkscape-font-specification:Monospace Bold"
         id="path4800" />
      <path
         d="m 269.71591,192.65019 3.90235,0 0,4.27735 -3.90235,0 0,-4.27735 m 0,8.15625 3.90235,0 0,4.30078 -3.90235,0 0,-4.30078"
         style="font-size:24px;font-weight:bold;fill:#ffffff;font-family:Monospace;-inkscape-font-specification:Monospace Bold"
         id="path4802" />
      <path
         d="m 319.47372,187.61113 0,6.50391 -3,0 0,-6.50391 3,0 m -6,0 0,6.50391 -3,0 0,-6.50391 3,0"
         style="font-size:24px;font-weight:bold;fill:#ffffff;font-family:Monospace;-inkscape-font-specification:Monospace Bold"
         id="path4804" />
      <path
         d="m 323.21201,187.61113 4.125,0 2.08593,7.67578 2.07422,-7.67578 4.14844,0 0,17.49609 -2.97656,0 0,-14.01562 -1.85157,7.65234 -2.7539,0 -1.875,-7.65234 0,14.01562 -2.97656,0 0,-17.49609"
         style="fill:#ff6600"
         id="path4806" />
      <path
         d="m 344.97372,206.52519 c -0.46094,1.23437 -1.01563,2.13281 -1.66406,2.69531 -0.64063,0.57031 -1.42188,0.85547 -2.34375,0.85547 l -2.83594,0 0,-2.61328 1.39454,0 c 0.70312,0 1.21874,-0.12109 1.54687,-0.36328 0.32812,-0.23438 0.66015,-0.78516 0.99609,-1.65234 l 0.25782,-0.70313 -4.99219,-12.76172 3.60937,0 3,8.51953 2.8711,-8.51953 3.60937,0 -5.44922,14.54297"
         style="fill:#ff6600"
         id="path4808" />
      <path
         d="m 362.69247,192.39238 0,3 c -0.63282,-0.40624 -1.29297,-0.71093 -1.98046,-0.91406 -0.6797,-0.21093 -1.36329,-0.3164 -2.05079,-0.31641 -0.76563,1e-5 -1.34375,0.11329 -1.73437,0.33984 -0.39063,0.21877 -0.58594,0.54689 -0.58594,0.98438 0,0.62501 0.83593,1.13282 2.50781,1.52344 l 0.12891,0.0352 0.98438,0.23438 c 1.24999,0.29688 2.16405,0.77735 2.74218,1.4414 0.58593,0.65626 0.8789,1.54688 0.87891,2.67188 -10e-6,1.35156 -0.44533,2.36719 -1.33594,3.04687 -0.88282,0.67188 -2.21485,1.00782 -3.99609,1.00782 -0.78907,0 -1.59766,-0.0703 -2.42578,-0.21094 -0.82813,-0.13281 -1.66797,-0.33594 -2.51953,-0.60938 l 0,-3 c 0.75781,0.4297 1.52734,0.75782 2.30859,0.98438 0.78906,0.22656 1.55077,0.33985 2.28516,0.33984 0.80468,10e-6 1.41405,-0.11718 1.82812,-0.35156 0.41405,-0.23437 0.62109,-0.57421 0.62109,-1.01953 0,-0.4375 -0.14844,-0.77343 -0.44531,-1.00781 -0.28907,-0.23437 -0.98438,-0.48437 -2.08594,-0.75 l -0.94921,-0.21094 c -1.31251,-0.29687 -2.26954,-0.76171 -2.8711,-1.39453 -0.60156,-0.63281 -0.90234,-1.48046 -0.90234,-2.54297 0,-1.26561 0.45703,-2.24999 1.37109,-2.95313 0.91406,-0.70311 2.19922,-1.05467 3.85547,-1.05468 0.74218,1e-5 1.48046,0.0625 2.21484,0.1875 0.74218,0.1172 1.46093,0.29689 2.15625,0.53906"
         style="fill:#ff6600"
         id="path4810" />
      <path
         d="m 370.00497,198.533 c 0,1.26564 0.21094,2.25782 0.63282,2.97657 0.42187,0.71875 1.0039,1.07812 1.74609,1.07812 0.74218,0 1.32812,-0.35937 1.75781,-1.07812 0.42968,-0.71875 0.64453,-1.71093 0.64453,-2.97657 0,-1.26561 -0.21485,-2.2578 -0.64453,-2.97656 -0.42969,-0.71874 -1.01563,-1.07811 -1.75781,-1.07812 -0.74219,1e-5 -1.32422,0.35938 -1.74609,1.07812 -0.42188,0.71876 -0.63282,1.71095 -0.63282,2.97656 m 4.78125,4.72266 c -0.42188,0.73438 -0.91407,1.28516 -1.47656,1.65234 -0.55469,0.35938 -1.1836,0.53907 -1.88672,0.53907 -1.55469,0 -2.75391,-0.59375 -3.59765,-1.78125 -0.83594,-1.1875 -1.25391,-2.89062 -1.25391,-5.10938 0,-2.18749 0.41406,-3.8828 1.24219,-5.08594 0.82812,-1.20311 1.99218,-1.80467 3.49219,-1.80468 0.78905,1e-5 1.47264,0.19142 2.05078,0.57422 0.58593,0.38282 1.06249,0.95313 1.42968,1.71093 l 0,-1.96875 3.42188,0 0,18.11719 -3.42188,0 0,-6.84375"
         style="fill:#ff6600"
         id="path4812" />
      <path
         d="m 384.48935,199.63457 0,-10.125 -3.48047,0 0,-2.63672 6.91406,0 0,12.76172 c 0,1.03125 0.16015,1.76172 0.48047,2.1914 0.32031,0.42969 0.86327,0.64454 1.62891,0.64453 l 2.74219,0 0,2.63672 -3.70313,0 c -1.63282,0 -2.80469,-0.42187 -3.51562,-1.26562 -0.71095,-0.84375 -1.06642,-2.24609 -1.06641,-4.20703"
         style="fill:#ff6600"
         id="path4814" />
      <path
         d="m 406.09872,187.61113 0,6.50391 -3,0 0,-6.50391 3,0 m -6,0 0,6.50391 -3,0 0,-6.50391 3,0"
         style="font-size:24px;font-weight:bold;fill:#ffffff;font-family:Monospace;-inkscape-font-specification:Monospace Bold"
         id="path4816" />
      <path
         d="m 203.87997,222.39238 0,3 c -0.63282,-0.40624 -1.29297,-0.71093 -1.98046,-0.91406 -0.6797,-0.21093 -1.36329,-0.3164 -2.05079,-0.31641 -0.76563,1e-5 -1.34375,0.11329 -1.73437,0.33984 -0.39063,0.21877 -0.58594,0.54689 -0.58594,0.98438 0,0.62501 0.83593,1.13282 2.50781,1.52344 l 0.12891,0.0352 0.98438,0.23438 c 1.24999,0.29688 2.16405,0.77735 2.74218,1.4414 0.58593,0.65626 0.8789,1.54688 0.87891,2.67188 -1e-5,1.35156 -0.44533,2.36719 -1.33594,3.04687 -0.88282,0.67188 -2.21485,1.00782 -3.99609,1.00782 -0.78907,0 -1.59766,-0.0703 -2.42578,-0.21094 -0.82813,-0.13281 -1.66797,-0.33594 -2.51953,-0.60938 l 0,-3 c 0.75781,0.4297 1.52734,0.75782 2.30859,0.98438 0.78906,0.22656 1.55077,0.33985 2.28516,0.33984 0.80468,10e-6 1.41405,-0.11718 1.82812,-0.35156 0.41405,-0.23437 0.62109,-0.57421 0.62109,-1.01953 0,-0.4375 -0.14844,-0.77343 -0.44531,-1.00781 -0.28907,-0.23437 -0.98438,-0.48437 -2.08594,-0.75 l -0.94921,-0.21094 c -1.31251,-0.29687 -2.26954,-0.76171 -2.8711,-1.39453 -0.60156,-0.63281 -0.90234,-1.48046 -0.90234,-2.54297 0,-1.26561 0.45703,-2.24999 1.37109,-2.95313 0.91406,-0.70311 2.19922,-1.05467 3.85547,-1.05468 0.74218,1e-5 1.48046,0.0625 2.21484,0.1875 0.74218,0.1172 1.46093,0.29689 2.15625,0.53906"
         style="font-size:24px;font-weight:bold;fill:#ffffff;font-family:Monospace;-inkscape-font-specification:Monospace Bold"
         id="path4818" />
      <path
         d="m 213.92294,224.45488 c -0.82032,1e-5 -1.46485,0.36329 -1.93359,1.08984 -0.46876,0.71876 -0.70313,1.72267 -0.70313,3.01172 0,1.28907 0.23437,2.29688 0.70313,3.02344 0.46874,0.71875 1.11327,1.07813 1.93359,1.07812 0.82812,1e-5 1.47656,-0.35937 1.94532,-1.07812 0.46874,-0.72656 0.70311,-1.73437 0.70312,-3.02344 -1e-5,-1.28905 -0.23438,-2.29296 -0.70312,-3.01172 -0.46876,-0.72655 -1.1172,-1.08983 -1.94532,-1.08984 m -6.07031,4.10156 c 0,-2.11718 0.54687,-3.79296 1.64063,-5.02734 1.10155,-1.24218 2.57812,-1.86327 4.42968,-1.86328 1.85937,1e-5 3.33593,0.6211 4.42969,1.86328 1.10155,1.23438 1.65233,2.91016 1.65234,5.02734 -10e-6,2.11719 -0.55079,3.79688 -1.65234,5.03906 -1.09376,1.23438 -2.57032,1.85157 -4.42969,1.85157 -1.85156,0 -3.32813,-0.61719 -4.42968,-1.85157 -1.09376,-1.24218 -1.64063,-2.92187 -1.64063,-5.03906"
         style="font-size:24px;font-weight:bold;fill:#ffffff;font-family:Monospace;-inkscape-font-specification:Monospace Bold"
         id="path4820" />
      <path
         d="m 223.01669,230.52519 0,-8.54297 3.4336,0 0,8.01563 c -1e-5,0.94532 0.1328,1.6211 0.39843,2.02734 0.26562,0.40625 0.70703,0.60938 1.32422,0.60938 0.61718,0 1.09765,-0.27344 1.44141,-0.82032 0.35155,-0.54687 0.52733,-1.31249 0.52734,-2.29687 l 0,-7.53516 3.4336,0 0,13.125 -3.4336,0 0,-1.94531 c -0.24219,0.72656 -0.65626,1.28906 -1.24218,1.6875 -0.57814,0.39844 -1.27735,0.59766 -2.09766,0.59766 -1.25001,0 -2.19532,-0.41407 -2.83594,-1.24219 -0.63281,-0.82812 -0.94922,-2.05468 -0.94922,-3.67969"
         style="font-size:24px;font-weight:bold;fill:#ffffff;font-family:Monospace;-inkscape-font-specification:Monospace Bold"
         id="path4822" />
      <path
         d="m 249.06747,225.60332 c -0.37501,-0.34374 -0.81641,-0.60156 -1.32421,-0.77344 -0.50002,-0.17186 -1.0508,-0.2578 -1.65235,-0.25781 -0.72657,1e-5 -1.36329,0.12891 -1.91015,0.38672 -0.53907,0.25001 -0.95704,0.61719 -1.25391,1.10156 -0.18751,0.29688 -0.32032,0.65626 -0.39844,1.07812 -0.0703,0.42189 -0.10547,1.06251 -0.10547,1.92188 l 0,6.04687 -3.43359,0 0,-13.125 3.43359,0 0,2.03907 c 0.33593,-0.74999 0.85156,-1.32812 1.54688,-1.73438 0.6953,-0.41405 1.5078,-0.62108 2.4375,-0.62109 0.46874,1e-5 0.92577,0.0586 1.37109,0.17578 0.45311,0.10939 0.8828,0.27345 1.28906,0.49219 l 0,3.26953"
         style="font-size:24px;font-weight:bold;fill:#ffffff;font-family:Monospace;-inkscape-font-specification:Monospace Bold"
         id="path4824" />
      <path
         d="m 262.45029,234.43925 c -0.57814,0.33594 -1.19923,0.58594 -1.86328,0.75 -0.66408,0.17188 -1.37892,0.25782 -2.14454,0.25782 -2.02344,0 -3.60547,-0.60938 -4.74609,-1.82813 -1.14063,-1.21875 -1.71094,-2.90624 -1.71094,-5.0625 0,-2.16405 0.57422,-3.85546 1.72266,-5.07422 1.14843,-1.22655 2.73437,-1.83983 4.75781,-1.83984 0.70312,1e-5 1.3789,0.082 2.02735,0.24609 0.65623,0.16408 1.30858,0.41799 1.95703,0.76172 l 0,3.14063 c -0.50002,-0.42968 -1.0508,-0.75781 -1.65235,-0.98438 -0.59376,-0.23436 -1.21094,-0.35155 -1.85156,-0.35156 -1.11719,1e-5 -1.97657,0.35548 -2.57812,1.06641 -0.60157,0.71094 -0.90235,1.72266 -0.90235,3.03515 0,1.31251 0.30078,2.32032 0.90235,3.02344 0.60155,0.70313 1.46093,1.05469 2.57812,1.05469 0.66405,0 1.28515,-0.10938 1.86328,-0.32813 0.57812,-0.22656 1.12499,-0.5664 1.64063,-1.01953 l 0,3.15234"
         style="font-size:24px;font-weight:bold;fill:#ffffff;font-family:Monospace;-inkscape-font-specification:Monospace Bold"
         id="path4826" />
      <path
         d="m 277.36826,234.46269 c -0.79689,0.32813 -1.60939,0.57422 -2.4375,0.73828 -0.82814,0.16407 -1.70314,0.2461 -2.625,0.2461 -2.19532,0 -3.87501,-0.58594 -5.03907,-1.75782 -1.15625,-1.17968 -1.73437,-2.87499 -1.73437,-5.08593 0,-2.14062 0.55859,-3.83202 1.67578,-5.07422 1.11718,-1.24218 2.64062,-1.86327 4.57031,-1.86328 1.94531,1e-5 3.45312,0.57814 4.52344,1.73437 1.07811,1.14845 1.61717,2.76954 1.61719,4.86328 l 0,1.39453 -8.89453,0 c 0.008,1.03126 0.31249,1.80079 0.91406,2.3086 0.60155,0.50781 1.49999,0.76172 2.69531,0.76172 0.78905,0 1.5664,-0.11328 2.33203,-0.33985 0.76562,-0.22656 1.5664,-0.58593 2.40235,-1.07812 l 0,3.15234 m -2.90625,-7.38281 c -0.0156,-0.90624 -0.25001,-1.58983 -0.70313,-2.05078 -0.44532,-0.46874 -1.10548,-0.70312 -1.98047,-0.70313 -0.78907,10e-6 -1.41797,0.2422 -1.88672,0.72657 -0.46875,0.47657 -0.7461,1.15625 -0.83203,2.03906 l 5.40235,-0.0117"
         style="font-size:24px;font-weight:bold;fill:#ffffff;font-family:Monospace;-inkscape-font-specification:Monospace Bold"
         id="path4828" />
      <path
         d="m 284.15341,222.65019 3.90235,0 0,4.27735 -3.90235,0 0,-4.27735 m 0,8.15625 3.90235,0 0,4.30078 -3.90235,0 0,-4.30078"
         style="font-size:24px;font-weight:bold;fill:#ffffff;font-family:Monospace;-inkscape-font-specification:Monospace Bold"
         id="path4830" />
      <path
         d="m 319.47372,217.61113 0,6.50391 -3,0 0,-6.50391 3,0 m -6,0 0,6.50391 -3,0 0,-6.50391 3,0"
         style="font-size:24px;font-weight:bold;fill:#ffffff;font-family:Monospace;-inkscape-font-specification:Monospace Bold"
         id="path4832" />
      <path
         d="m 323.59872,217.61113 3.71485,0 4.875,12.71484 0,-12.71484 3.04687,0 0,17.49609 -3.6914,0 -4.89844,-12.71484 0,12.71484 -3.04688,0 0,-17.49609"
         style="fill:#ff00ff"
         id="path4834" />
      <path
         d="m 344.84482,228.94316 c -1.28126,1e-5 -2.17579,0.16407 -2.6836,0.49219 -0.50781,0.32813 -0.76172,0.89063 -0.76171,1.6875 -1e-5,0.59375 0.17577,1.06641 0.52734,1.41797 0.35156,0.35156 0.82812,0.52734 1.42969,0.52734 0.90624,0 1.60936,-0.33984 2.10937,-1.01953 0.49999,-0.6875 0.74999,-1.64453 0.75,-2.87109 l 0,-0.23438 -1.37109,0 m 4.78125,-1.32422 0,7.48828 -3.41016,0 0,-1.46484 c -0.41407,0.57813 -0.94532,1.02344 -1.59375,1.33594 -0.64844,0.3125 -1.36329,0.46875 -2.14453,0.46875 -1.49219,0 -2.65625,-0.39453 -3.49219,-1.1836 -0.82812,-0.78906 -1.24219,-1.89062 -1.24218,-3.30468 -1e-5,-1.53125 0.49609,-2.66015 1.48828,-3.38672 0.99218,-0.73437 2.52734,-1.10156 4.60547,-1.10157 l 2.3789,0 0,-0.57421 c -1e-5,-0.55468 -0.20313,-0.97265 -0.60937,-1.25391 -0.39845,-0.28905 -0.98829,-0.43358 -1.76953,-0.43359 -0.82032,1e-5 -1.6172,0.10548 -2.39063,0.3164 -0.76563,0.20314 -1.56641,0.53126 -2.40234,0.98438 l 0,-2.92969 c 0.75781,-0.31249 1.52734,-0.54296 2.30859,-0.69141 0.78125,-0.14842 1.60937,-0.22264 2.48438,-0.22265 2.1328,1e-5 3.62889,0.4336 4.48828,1.30078 0.86717,0.8672 1.30077,2.41798 1.30078,4.65234"
         style="fill:#ff00ff"
         id="path4836" />
      <path
         d="m 360.48935,228.33379 c -10e-6,-1.17187 -0.22267,-2.10937 -0.66797,-2.8125 -0.44532,-0.71093 -1.03126,-1.0664 -1.75781,-1.06641 -0.71876,1e-5 -1.30079,0.35157 -1.7461,1.05469 -0.4375,0.70313 -0.65625,1.64454 -0.65625,2.82422 0,1.1875 0.21875,2.13281 0.65625,2.83593 0.44531,0.70313 1.02734,1.05469 1.7461,1.05469 0.72655,0 1.31249,-0.35156 1.75781,-1.05469 0.4453,-0.71093 0.66796,-1.65624 0.66797,-2.83593 m 3.43359,5.78906 c -10e-6,2.10156 -0.47657,3.61718 -1.42968,4.54687 -0.94533,0.9375 -2.48439,1.40625 -4.61719,1.40625 -0.71876,0 -1.42969,-0.0547 -2.13281,-0.16406 -0.70313,-0.10157 -1.41798,-0.26172 -2.14454,-0.48047 l 0,-3.15234 c 0.64844,0.35937 1.30859,0.625 1.98047,0.79687 0.67187,0.17188 1.36328,0.25781 2.07422,0.25782 0.96874,-1e-5 1.68359,-0.23047 2.14453,-0.69141 0.46093,-0.45313 0.6914,-1.16406 0.69141,-2.13281 l 0,-1.41797 c -0.33595,0.625 -0.78126,1.08984 -1.33594,1.39453 -0.55469,0.30469 -1.23047,0.45703 -2.02734,0.45703 -1.50001,0 -2.69141,-0.58594 -3.57422,-1.75781 -0.88281,-1.17187 -1.32422,-2.76172 -1.32422,-4.76953 0,-2.07812 0.44141,-3.72655 1.32422,-4.94532 0.88281,-1.21873 2.0664,-1.82811 3.55078,-1.82812 0.74999,1e-5 1.41796,0.17579 2.00391,0.52734 0.58593,0.35158 1.04686,0.84767 1.38281,1.48828 l 0,-1.67578 3.43359,0 0,12.14063"
         style="fill:#ff00ff"
         id="path4838" />
      <path
         d="m 368.10654,221.98222 6.79687,0 0,10.48828 4.26563,0 0,2.63672 -11.97657,0 0,-2.63672 4.27735,0 0,-7.85156 -3.36328,0 0,-2.63672 m 3.36328,-6.38672 3.43359,0 0,4.00782 -3.43359,0 0,-4.00782"
         style="fill:#ff00ff"
         id="path4840" />
      <path
         d="m 387.17294,224.45488 c -0.82032,1e-5 -1.46485,0.36329 -1.93359,1.08984 -0.46876,0.71876 -0.70313,1.72267 -0.70313,3.01172 0,1.28907 0.23437,2.29688 0.70313,3.02344 0.46874,0.71875 1.11327,1.07813 1.93359,1.07812 0.82812,1e-5 1.47656,-0.35937 1.94532,-1.07812 0.46874,-0.72656 0.70311,-1.73437 0.70312,-3.02344 -10e-6,-1.28905 -0.23438,-2.29296 -0.70312,-3.01172 -0.46876,-0.72655 -1.1172,-1.08983 -1.94532,-1.08984 m -6.07031,4.10156 c 0,-2.11718 0.54687,-3.79296 1.64063,-5.02734 1.10155,-1.24218 2.57812,-1.86327 4.42968,-1.86328 1.85937,1e-5 3.33593,0.6211 4.42969,1.86328 1.10155,1.23438 1.65233,2.91016 1.65234,5.02734 -1e-5,2.11719 -0.55079,3.79688 -1.65234,5.03906 -1.09376,1.23438 -2.57032,1.85157 -4.42969,1.85157 -1.85156,0 -3.32813,-0.61719 -4.42968,-1.85157 -1.09376,-1.24218 -1.64063,-2.92187 -1.64063,-5.03906"
         style="fill:#ff00ff"
         id="path4842" />
      <path
         d="m 406.00497,222.39238 0,3 c -0.63282,-0.40624 -1.29297,-0.71093 -1.98046,-0.91406 -0.6797,-0.21093 -1.36329,-0.3164 -2.05079,-0.31641 -0.76563,1e-5 -1.34375,0.11329 -1.73437,0.33984 -0.39063,0.21877 -0.58594,0.54689 -0.58594,0.98438 0,0.62501 0.83593,1.13282 2.50781,1.52344 l 0.12891,0.0352 0.98438,0.23438 c 1.24999,0.29688 2.16405,0.77735 2.74218,1.4414 0.58593,0.65626 0.8789,1.54688 0.87891,2.67188 -10e-6,1.35156 -0.44533,2.36719 -1.33594,3.04687 -0.88282,0.67188 -2.21485,1.00782 -3.99609,1.00782 -0.78907,0 -1.59766,-0.0703 -2.42578,-0.21094 -0.82813,-0.13281 -1.66797,-0.33594 -2.51953,-0.60938 l 0,-3 c 0.75781,0.4297 1.52734,0.75782 2.30859,0.98438 0.78906,0.22656 1.55077,0.33985 2.28516,0.33984 0.80468,10e-6 1.41405,-0.11718 1.82812,-0.35156 0.41405,-0.23437 0.62109,-0.57421 0.62109,-1.01953 0,-0.4375 -0.14844,-0.77343 -0.44531,-1.00781 -0.28907,-0.23437 -0.98438,-0.48437 -2.08594,-0.75 l -0.94921,-0.21094 c -1.31251,-0.29687 -2.26954,-0.76171 -2.8711,-1.39453 -0.60156,-0.63281 -0.90234,-1.48046 -0.90234,-2.54297 0,-1.26561 0.45703,-2.24999 1.37109,-2.95313 0.91406,-0.70311 2.19922,-1.05467 3.85547,-1.05468 0.74218,1e-5 1.48046,0.0625 2.21484,0.1875 0.74218,0.1172 1.46093,0.29689 2.15625,0.53906"
         style="fill:#ff00ff"
         id="path4844" />
      <path
         d="m 420.53622,217.61113 0,6.50391 -3,0 0,-6.50391 3,0 m -6,0 0,6.50391 -3,0 0,-6.50391 3,0"
         style="font-size:24px;font-weight:bold;fill:#ffffff;font-family:Monospace;-inkscape-font-specification:Monospace Bold"
         id="path4846" />
      <path
         d="m 200.35263,248.25566 0,3.72656 4.48828,0 0,2.63672 -4.48828,0 0,6.21094 c -1e-5,0.58594 0.14062,1.00782 0.42188,1.26562 0.28905,0.25001 0.76561,0.37501 1.42968,0.375 l 2.63672,0 0,2.63672 -2.88281,0 c -1.96876,0 -3.30079,-0.3125 -3.99609,-0.9375 -0.69532,-0.63281 -1.04298,-1.80078 -1.04297,-3.5039 l 0,-6.04688 -3.35157,0 0,-2.63672 3.35157,0 0,-3.72656 3.43359,0"
         style="font-size:24px;font-weight:bold;fill:#ffffff;font-family:Monospace;-inkscape-font-specification:Monospace Bold"
         id="path4848" />
      <path
         d="m 209.29404,251.98222 6.79687,0 0,10.48828 4.26563,0 0,2.63672 -11.97657,0 0,-2.63672 4.27735,0 0,-7.85156 -3.36328,0 0,-2.63672 m 3.36328,-6.38672 3.43359,0 0,4.00782 -3.43359,0 0,-4.00782"
         style="font-size:24px;font-weight:bold;fill:#ffffff;font-family:Monospace;-inkscape-font-specification:Monospace Bold"
         id="path4850" />
      <path
         d="m 229.22763,248.25566 0,3.72656 4.48828,0 0,2.63672 -4.48828,0 0,6.21094 c -1e-5,0.58594 0.14062,1.00782 0.42188,1.26562 0.28905,0.25001 0.76561,0.37501 1.42968,0.375 l 2.63672,0 0,2.63672 -2.88281,0 c -1.96876,0 -3.30079,-0.3125 -3.99609,-0.9375 -0.69532,-0.63281 -1.04298,-1.80078 -1.04297,-3.5039 l 0,-6.04688 -3.35157,0 0,-2.63672 3.35157,0 0,-3.72656 3.43359,0"
         style="font-size:24px;font-weight:bold;fill:#ffffff;font-family:Monospace;-inkscape-font-specification:Monospace Bold"
         id="path4852" />
      <path
         d="m 240.11435,259.63457 0,-10.125 -3.48047,0 0,-2.63672 6.91406,0 0,12.76172 c 0,1.03125 0.16015,1.76172 0.48047,2.1914 0.32031,0.42969 0.86327,0.64454 1.62891,0.64453 l 2.74219,0 0,2.63672 -3.70313,0 c -1.63282,0 -2.80469,-0.42187 -3.51562,-1.26562 -0.71095,-0.84375 -1.06642,-2.24609 -1.06641,-4.20703"
         style="font-size:24px;font-weight:bold;fill:#ffffff;font-family:Monospace;-inkscape-font-specification:Monospace Bold"
         id="path4854" />
      <path
         d="m 262.93076,264.46269 c -0.79689,0.32813 -1.60939,0.57422 -2.4375,0.73828 -0.82814,0.16407 -1.70314,0.2461 -2.625,0.2461 -2.19532,0 -3.87501,-0.58594 -5.03907,-1.75782 -1.15625,-1.17968 -1.73437,-2.87499 -1.73437,-5.08593 0,-2.14062 0.55859,-3.83202 1.67578,-5.07422 1.11718,-1.24218 2.64062,-1.86327 4.57031,-1.86328 1.94531,1e-5 3.45312,0.57814 4.52344,1.73437 1.07811,1.14845 1.61717,2.76954 1.61719,4.86328 l 0,1.39453 -8.89453,0 c 0.008,1.03126 0.31249,1.80079 0.91406,2.3086 0.60155,0.50781 1.49999,0.76172 2.69531,0.76172 0.78905,0 1.5664,-0.11328 2.33203,-0.33985 0.76562,-0.22656 1.5664,-0.58593 2.40235,-1.07812 l 0,3.15234 m -2.90625,-7.38281 c -0.0156,-0.90624 -0.25001,-1.58983 -0.70313,-2.05078 -0.44532,-0.46874 -1.10548,-0.70312 -1.98047,-0.70313 -0.78907,10e-6 -1.41797,0.2422 -1.88672,0.72657 -0.46875,0.47657 -0.7461,1.15625 -0.83203,2.03906 l 5.40235,-0.0117"
         style="font-size:24px;font-weight:bold;fill:#ffffff;font-family:Monospace;-inkscape-font-specification:Monospace Bold"
         id="path4856" />
      <path
         d="m 269.71591,252.65019 3.90235,0 0,4.27735 -3.90235,0 0,-4.27735 m 0,8.15625 3.90235,0 0,4.30078 -3.90235,0 0,-4.30078"
         style="font-size:24px;font-weight:bold;fill:#ffffff;font-family:Monospace;-inkscape-font-specification:Monospace Bold"
         id="path4858" />
      <path
         d="m 319.47372,247.61113 0,6.50391 -3,0 0,-6.50391 3,0 m -6,0 0,6.50391 -3,0 0,-6.50391 3,0"
         style="font-size:24px;font-weight:bold;fill:#ffffff;font-family:Monospace;-inkscape-font-specification:Monospace Bold"
         id="path4860" />
      <path
         d="m 324.84091,265.10722 0,-17.49609 3.45703,0 0,14.44922 7.39453,0 0,3.04687 -10.85156,0"
         style="fill:#00ffff"
         id="path4862" />
      <path
         d="m 343.86044,254.45488 c -0.82032,1e-5 -1.46485,0.36329 -1.93359,1.08984 -0.46876,0.71876 -0.70313,1.72267 -0.70313,3.01172 0,1.28907 0.23437,2.29688 0.70313,3.02344 0.46874,0.71875 1.11327,1.07813 1.93359,1.07812 0.82812,10e-6 1.47656,-0.35937 1.94532,-1.07812 0.46874,-0.72656 0.70311,-1.73437 0.70312,-3.02344 -10e-6,-1.28905 -0.23438,-2.29296 -0.70312,-3.01172 -0.46876,-0.72655 -1.1172,-1.08983 -1.94532,-1.08984 m -6.07031,4.10156 c 0,-2.11718 0.54687,-3.79296 1.64063,-5.02734 1.10155,-1.24218 2.57812,-1.86327 4.42968,-1.86328 1.85937,1e-5 3.33593,0.6211 4.42969,1.86328 1.10155,1.23438 1.65233,2.91016 1.65234,5.02734 -1e-5,2.11719 -0.55079,3.79688 -1.65234,5.03906 -1.09376,1.23438 -2.57032,1.85157 -4.42969,1.85157 -1.85156,0 -3.32813,-0.61719 -4.42968,-1.85157 -1.09376,-1.24218 -1.64063,-2.92187 -1.64063,-5.03906"
         style="fill:#00ffff"
         id="path4864" />
      <path
         d="m 363.51279,264.43925 c -0.57814,0.33594 -1.19923,0.58594 -1.86328,0.75 -0.66408,0.17188 -1.37892,0.25782 -2.14454,0.25782 -2.02344,0 -3.60547,-0.60938 -4.74609,-1.82813 -1.14063,-1.21875 -1.71094,-2.90624 -1.71094,-5.0625 0,-2.16405 0.57422,-3.85546 1.72266,-5.07422 1.14843,-1.22655 2.73437,-1.83983 4.75781,-1.83984 0.70312,1e-5 1.3789,0.082 2.02735,0.24609 0.65623,0.16408 1.30858,0.41799 1.95703,0.76172 l 0,3.14063 c -0.50002,-0.42968 -1.0508,-0.75781 -1.65235,-0.98438 -0.59376,-0.23436 -1.21094,-0.35155 -1.85156,-0.35156 -1.11719,1e-5 -1.97657,0.35548 -2.57812,1.06641 -0.60157,0.71094 -0.90235,1.72266 -0.90235,3.03515 0,1.31251 0.30078,2.32032 0.90235,3.02344 0.60155,0.70313 1.46093,1.05469 2.57812,1.05469 0.66405,0 1.28515,-0.10938 1.86328,-0.32813 0.57812,-0.22656 1.12499,-0.5664 1.64063,-1.01953 l 0,3.15234"
         style="fill:#00ffff"
         id="path4866" />
      <path
         d="m 373.71982,258.94316 c -1.28126,1e-5 -2.17579,0.16407 -2.6836,0.49219 -0.50781,0.32813 -0.76172,0.89063 -0.76171,1.6875 -1e-5,0.59375 0.17577,1.06641 0.52734,1.41797 0.35156,0.35156 0.82812,0.52734 1.42969,0.52734 0.90624,0 1.60936,-0.33984 2.10937,-1.01953 0.49999,-0.6875 0.74999,-1.64453 0.75,-2.87109 l 0,-0.23438 -1.37109,0 m 4.78125,-1.32422 0,7.48828 -3.41016,0 0,-1.46484 c -0.41407,0.57813 -0.94532,1.02344 -1.59375,1.33594 -0.64844,0.3125 -1.36329,0.46875 -2.14453,0.46875 -1.49219,0 -2.65625,-0.39453 -3.49219,-1.1836 -0.82812,-0.78906 -1.24219,-1.89062 -1.24218,-3.30468 -1e-5,-1.53125 0.49609,-2.66015 1.48828,-3.38672 0.99218,-0.73437 2.52734,-1.10156 4.60547,-1.10157 l 2.3789,0 0,-0.57421 c -1e-5,-0.55468 -0.20313,-0.97265 -0.60937,-1.25391 -0.39845,-0.28905 -0.98829,-0.43358 -1.76953,-0.43359 -0.82032,1e-5 -1.6172,0.10548 -2.39063,0.3164 -0.76563,0.20314 -1.56641,0.53126 -2.40234,0.98438 l 0,-2.92969 c 0.75781,-0.31249 1.52734,-0.54296 2.30859,-0.69141 0.78125,-0.14842 1.60937,-0.22264 2.48438,-0.22265 2.1328,1e-5 3.62889,0.4336 4.48828,1.30078 0.86717,0.8672 1.30077,2.41798 1.30078,4.65234"
         style="fill:#00ffff"
         id="path4868" />
      <path
         d="m 384.48935,259.63457 0,-10.125 -3.48047,0 0,-2.63672 6.91406,0 0,12.76172 c 0,1.03125 0.16015,1.76172 0.48047,2.1914 0.32031,0.42969 0.86327,0.64454 1.62891,0.64453 l 2.74219,0 0,2.63672 -3.70313,0 c -1.63282,0 -2.80469,-0.42187 -3.51562,-1.26562 -0.71095,-0.84375 -1.06642,-2.24609 -1.06641,-4.20703"
         style="fill:#00ffff"
         id="path4870" />
      <path
         d="m 410.22372,247.61113 3.71485,0 4.875,12.71484 0,-12.71484 3.04687,0 0,17.49609 -3.6914,0 -4.89844,-12.71484 0,12.71484 -3.04688,0 0,-17.49609"
         style="fill:#00ffff"
         id="path4872" />
      <path
         d="m 431.46982,258.94316 c -1.28126,1e-5 -2.17579,0.16407 -2.6836,0.49219 -0.50781,0.32813 -0.76172,0.89063 -0.76171,1.6875 -1e-5,0.59375 0.17577,1.06641 0.52734,1.41797 0.35156,0.35156 0.82812,0.52734 1.42969,0.52734 0.90624,0 1.60936,-0.33984 2.10937,-1.01953 0.49999,-0.6875 0.74999,-1.64453 0.75,-2.87109 l 0,-0.23438 -1.37109,0 m 4.78125,-1.32422 0,7.48828 -3.41016,0 0,-1.46484 c -0.41407,0.57813 -0.94532,1.02344 -1.59375,1.33594 -0.64844,0.3125 -1.36329,0.46875 -2.14453,0.46875 -1.49219,0 -2.65625,-0.39453 -3.49219,-1.1836 -0.82812,-0.78906 -1.24219,-1.89062 -1.24218,-3.30468 -1e-5,-1.53125 0.49609,-2.66015 1.48828,-3.38672 0.99218,-0.73437 2.52734,-1.10156 4.60547,-1.10157 l 2.3789,0 0,-0.57421 c -1e-5,-0.55468 -0.20313,-0.97265 -0.60937,-1.25391 -0.39845,-0.28905 -0.98829,-0.43358 -1.76953,-0.43359 -0.82032,1e-5 -1.6172,0.10548 -2.39063,0.3164 -0.76563,0.20314 -1.56641,0.53126 -2.40234,0.98438 l 0,-2.92969 c 0.75781,-0.31249 1.52734,-0.54296 2.30859,-0.69141 0.78125,-0.14842 1.60937,-0.22264 2.48438,-0.22265 2.1328,1e-5 3.62889,0.4336 4.48828,1.30078 0.86717,0.8672 1.30077,2.41798 1.30078,4.65234"
         style="fill:#00ffff"
         id="path4874" />
      <path
         d="m 447.11435,258.33379 c -10e-6,-1.17187 -0.22267,-2.10937 -0.66797,-2.8125 -0.44532,-0.71093 -1.03126,-1.0664 -1.75781,-1.06641 -0.71876,1e-5 -1.30079,0.35157 -1.7461,1.05469 -0.4375,0.70313 -0.65625,1.64454 -0.65625,2.82422 0,1.1875 0.21875,2.13281 0.65625,2.83593 0.44531,0.70313 1.02734,1.05469 1.7461,1.05469 0.72655,0 1.31249,-0.35156 1.75781,-1.05469 0.4453,-0.71093 0.66796,-1.65624 0.66797,-2.83593 m 3.43359,5.78906 c -10e-6,2.10156 -0.47657,3.61718 -1.42968,4.54687 -0.94533,0.9375 -2.48439,1.40625 -4.61719,1.40625 -0.71876,0 -1.42969,-0.0547 -2.13281,-0.16406 -0.70313,-0.10157 -1.41798,-0.26172 -2.14454,-0.48047 l 0,-3.15234 c 0.64844,0.35937 1.30859,0.625 1.98047,0.79687 0.67187,0.17188 1.36328,0.25781 2.07422,0.25782 0.96874,-1e-5 1.68359,-0.23047 2.14453,-0.69141 0.46093,-0.45313 0.6914,-1.16406 0.69141,-2.13281 l 0,-1.41797 c -0.33595,0.625 -0.78126,1.08984 -1.33594,1.39453 -0.55469,0.30469 -1.23047,0.45703 -2.02734,0.45703 -1.50001,0 -2.69141,-0.58594 -3.57422,-1.75781 -0.88281,-1.17187 -1.32422,-2.76172 -1.32422,-4.76953 0,-2.07812 0.44141,-3.72655 1.32422,-4.94532 0.88281,-1.21873 2.0664,-1.82811 3.55078,-1.82812 0.74999,1e-5 1.41796,0.17579 2.00391,0.52734 0.58593,0.35158 1.04686,0.84767 1.38281,1.48828 l 0,-1.67578 3.43359,0 0,12.14063"
         style="fill:#00ffff"
         id="path4876" />
      <path
         d="m 454.73154,251.98222 6.79687,0 0,10.48828 4.26563,0 0,2.63672 -11.97657,0 0,-2.63672 4.27735,0 0,-7.85156 -3.36328,0 0,-2.63672 m 3.36328,-6.38672 3.43359,0 0,4.00782 -3.43359,0 0,-4.00782"
         style="fill:#00ffff"
         id="path4878" />
      <path
         d="m 473.79794,254.45488 c -0.82032,1e-5 -1.46485,0.36329 -1.93359,1.08984 -0.46876,0.71876 -0.70313,1.72267 -0.70313,3.01172 0,1.28907 0.23437,2.29688 0.70313,3.02344 0.46874,0.71875 1.11327,1.07813 1.93359,1.07812 0.82812,10e-6 1.47656,-0.35937 1.94532,-1.07812 0.46874,-0.72656 0.70311,-1.73437 0.70312,-3.02344 -10e-6,-1.28905 -0.23438,-2.29296 -0.70312,-3.01172 -0.46876,-0.72655 -1.1172,-1.08983 -1.94532,-1.08984 m -6.07031,4.10156 c 0,-2.11718 0.54687,-3.79296 1.64063,-5.02734 1.10155,-1.24218 2.57812,-1.86327 4.42968,-1.86328 1.85937,1e-5 3.33593,0.6211 4.42969,1.86328 1.10155,1.23438 1.65233,2.91016 1.65234,5.02734 -1e-5,2.11719 -0.55079,3.79688 -1.65234,5.03906 -1.09376,1.23438 -2.57032,1.85157 -4.42969,1.85157 -1.85156,0 -3.32813,-0.61719 -4.42968,-1.85157 -1.09376,-1.24218 -1.64063,-2.92187 -1.64063,-5.03906"
         style="fill:#00ffff"
         id="path4880" />
      <path
         d="m 492.62997,252.39238 0,3 c -0.63282,-0.40624 -1.29297,-0.71093 -1.98046,-0.91406 -0.6797,-0.21093 -1.36329,-0.3164 -2.05079,-0.31641 -0.76563,1e-5 -1.34375,0.11329 -1.73437,0.33984 -0.39063,0.21877 -0.58594,0.54689 -0.58594,0.98438 0,0.62501 0.83593,1.13282 2.50781,1.52344 l 0.12891,0.0351 0.98438,0.23438 c 1.24999,0.29688 2.16405,0.77735 2.74218,1.4414 0.58593,0.65626 0.8789,1.54688 0.87891,2.67188 -10e-6,1.35156 -0.44533,2.36719 -1.33594,3.04687 -0.88282,0.67188 -2.21485,1.00782 -3.99609,1.00782 -0.78907,0 -1.59766,-0.0703 -2.42578,-0.21094 -0.82813,-0.13281 -1.66797,-0.33594 -2.51953,-0.60938 l 0,-3 c 0.75781,0.4297 1.52734,0.75782 2.30859,0.98438 0.78906,0.22656 1.55077,0.33985 2.28516,0.33984 0.80468,1e-5 1.41405,-0.11718 1.82812,-0.35156 0.41405,-0.23437 0.62109,-0.57421 0.62109,-1.01953 0,-0.4375 -0.14844,-0.77343 -0.44531,-1.00781 -0.28907,-0.23437 -0.98438,-0.48437 -2.08594,-0.75 l -0.94921,-0.21094 c -1.31251,-0.29687 -2.26954,-0.76171 -2.8711,-1.39453 -0.60156,-0.63281 -0.90234,-1.48046 -0.90234,-2.54297 0,-1.26561 0.45703,-2.24999 1.37109,-2.95313 0.91406,-0.70311 2.19922,-1.05467 3.85547,-1.05468 0.74218,1e-5 1.48046,0.0625 2.21484,0.1875 0.74218,0.1172 1.46093,0.29689 2.15625,0.53906"
         style="fill:#00ffff"
         id="path4882" />
      <path
         d="m 507.16122,247.61113 0,6.50391 -3,0 0,-6.50391 3,0 m -6,0 0,6.50391 -3,0 0,-6.50391 3,0"
         style="font-size:24px;font-weight:bold;fill:#ffffff;font-family:Monospace;-inkscape-font-specification:Monospace Bold"
         id="path4884" />
      <path
         d="m 203.87997,282.39238 0,3 c -0.63282,-0.40624 -1.29297,-0.71093 -1.98046,-0.91406 -0.6797,-0.21093 -1.36329,-0.3164 -2.05079,-0.31641 -0.76563,1e-5 -1.34375,0.11329 -1.73437,0.33984 -0.39063,0.21877 -0.58594,0.54689 -0.58594,0.98438 0,0.62501 0.83593,1.13282 2.50781,1.52344 l 0.12891,0.0351 0.98438,0.23438 c 1.24999,0.29688 2.16405,0.77735 2.74218,1.4414 0.58593,0.65626 0.8789,1.54688 0.87891,2.67188 -1e-5,1.35156 -0.44533,2.36719 -1.33594,3.04687 -0.88282,0.67188 -2.21485,1.00782 -3.99609,1.00782 -0.78907,0 -1.59766,-0.0703 -2.42578,-0.21094 -0.82813,-0.13281 -1.66797,-0.33594 -2.51953,-0.60938 l 0,-3 c 0.75781,0.4297 1.52734,0.75782 2.30859,0.98438 0.78906,0.22656 1.55077,0.33985 2.28516,0.33984 0.80468,1e-5 1.41405,-0.11718 1.82812,-0.35156 0.41405,-0.23437 0.62109,-0.57421 0.62109,-1.01953 0,-0.4375 -0.14844,-0.77343 -0.44531,-1.00781 -0.28907,-0.23437 -0.98438,-0.48437 -2.08594,-0.75 l -0.94921,-0.21094 c -1.31251,-0.29687 -2.26954,-0.76171 -2.8711,-1.39453 -0.60156,-0.63281 -0.90234,-1.48046 -0.90234,-2.54297 0,-1.26561 0.45703,-2.24999 1.37109,-2.95313 0.91406,-0.70311 2.19922,-1.05467 3.85547,-1.05468 0.74218,1e-5 1.48046,0.0625 2.21484,0.1875 0.74218,0.1172 1.46093,0.29689 2.15625,0.53906"
         style="font-size:24px;font-weight:bold;fill:#ffffff;font-family:Monospace;-inkscape-font-specification:Monospace Bold"
         id="path4886" />
      <path
         d="m 214.79013,278.25566 0,3.72656 4.48828,0 0,2.63672 -4.48828,0 0,6.21094 c -1e-5,0.58594 0.14062,1.00782 0.42188,1.26562 0.28905,0.25001 0.76561,0.37501 1.42968,0.375 l 2.63672,0 0,2.63672 -2.88281,0 c -1.96876,0 -3.30079,-0.3125 -3.99609,-0.9375 -0.69532,-0.63281 -1.04298,-1.80078 -1.04297,-3.5039 l 0,-6.04688 -3.35157,0 0,-2.63672 3.35157,0 0,-3.72656 3.43359,0"
         style="font-size:24px;font-weight:bold;fill:#ffffff;font-family:Monospace;-inkscape-font-specification:Monospace Bold"
         id="path4888" />
      <path
         d="m 228.36044,284.45488 c -0.82032,10e-6 -1.46485,0.36329 -1.93359,1.08984 -0.46876,0.71876 -0.70313,1.72267 -0.70313,3.01172 0,1.28907 0.23437,2.29688 0.70313,3.02344 0.46874,0.71875 1.11327,1.07813 1.93359,1.07812 0.82812,10e-6 1.47656,-0.35937 1.94532,-1.07812 0.46874,-0.72656 0.70311,-1.73437 0.70312,-3.02344 -1e-5,-1.28905 -0.23438,-2.29296 -0.70312,-3.01172 -0.46876,-0.72655 -1.1172,-1.08983 -1.94532,-1.08984 m -6.07031,4.10156 c 0,-2.11718 0.54687,-3.79296 1.64063,-5.02734 1.10155,-1.24218 2.57812,-1.86327 4.42968,-1.86328 1.85937,1e-5 3.33593,0.6211 4.42969,1.86328 1.10155,1.23438 1.65233,2.91016 1.65234,5.02734 -10e-6,2.11719 -0.55079,3.79688 -1.65234,5.03906 -1.09376,1.23438 -2.57032,1.85157 -4.42969,1.85157 -1.85156,0 -3.32813,-0.61719 -4.42968,-1.85157 -1.09376,-1.24218 -1.64063,-2.92187 -1.64063,-5.03906"
         style="font-size:24px;font-weight:bold;fill:#ffffff;font-family:Monospace;-inkscape-font-specification:Monospace Bold"
         id="path4890" />
      <path
         d="m 249.06747,285.60332 c -0.37501,-0.34374 -0.81641,-0.60156 -1.32421,-0.77344 -0.50002,-0.17186 -1.0508,-0.2578 -1.65235,-0.25781 -0.72657,1e-5 -1.36329,0.12891 -1.91015,0.38672 -0.53907,0.25001 -0.95704,0.61719 -1.25391,1.10156 -0.18751,0.29688 -0.32032,0.65626 -0.39844,1.07812 -0.0703,0.42189 -0.10547,1.06251 -0.10547,1.92188 l 0,6.04687 -3.43359,0 0,-13.125 3.43359,0 0,2.03907 c 0.33593,-0.74999 0.85156,-1.32812 1.54688,-1.73438 0.6953,-0.41405 1.5078,-0.62108 2.4375,-0.62109 0.46874,1e-5 0.92577,0.0586 1.37109,0.17578 0.45311,0.10939 0.8828,0.27345 1.28906,0.49219 l 0,3.26953"
         style="font-size:24px;font-weight:bold;fill:#ffffff;font-family:Monospace;-inkscape-font-specification:Monospace Bold"
         id="path4892" />
      <path
         d="m 262.93076,294.46269 c -0.79689,0.32813 -1.60939,0.57422 -2.4375,0.73828 -0.82814,0.16407 -1.70314,0.2461 -2.625,0.2461 -2.19532,0 -3.87501,-0.58594 -5.03907,-1.75782 -1.15625,-1.17968 -1.73437,-2.87499 -1.73437,-5.08593 0,-2.14062 0.55859,-3.83202 1.67578,-5.07422 1.11718,-1.24218 2.64062,-1.86327 4.57031,-1.86328 1.94531,1e-5 3.45312,0.57814 4.52344,1.73437 1.07811,1.14845 1.61717,2.76954 1.61719,4.86328 l 0,1.39453 -8.89453,0 c 0.008,1.03126 0.31249,1.80079 0.91406,2.3086 0.60155,0.50781 1.49999,0.76172 2.69531,0.76172 0.78905,0 1.5664,-0.11328 2.33203,-0.33985 0.76562,-0.22656 1.5664,-0.58593 2.40235,-1.07812 l 0,3.15234 m -2.90625,-7.38281 c -0.0156,-0.90624 -0.25001,-1.58983 -0.70313,-2.05078 -0.44532,-0.46874 -1.10548,-0.70312 -1.98047,-0.70313 -0.78907,1e-5 -1.41797,0.2422 -1.88672,0.72657 -0.46875,0.47657 -0.7461,1.15625 -0.83203,2.03906 l 5.40235,-0.0117"
         style="font-size:24px;font-weight:bold;fill:#ffffff;font-family:Monospace;-inkscape-font-specification:Monospace Bold"
         id="path4894" />
      <path
         d="m 278.90341,298.54082 0,2.22656 -14.44922,0 0,-2.22656 14.44922,0"
         style="font-size:24px;font-weight:bold;fill:#ffffff;font-family:Monospace;-inkscape-font-specification:Monospace Bold"
         id="path4896" />
      <path
         d="m 290.50497,282.39238 0,3 c -0.63282,-0.40624 -1.29297,-0.71093 -1.98046,-0.91406 -0.6797,-0.21093 -1.36329,-0.3164 -2.05079,-0.31641 -0.76563,1e-5 -1.34375,0.11329 -1.73437,0.33984 -0.39063,0.21877 -0.58594,0.54689 -0.58594,0.98438 0,0.62501 0.83593,1.13282 2.50781,1.52344 l 0.12891,0.0351 0.98438,0.23438 c 1.24999,0.29688 2.16405,0.77735 2.74218,1.4414 0.58593,0.65626 0.8789,1.54688 0.87891,2.67188 -10e-6,1.35156 -0.44533,2.36719 -1.33594,3.04687 -0.88282,0.67188 -2.21485,1.00782 -3.99609,1.00782 -0.78907,0 -1.59766,-0.0703 -2.42578,-0.21094 -0.82813,-0.13281 -1.66797,-0.33594 -2.51953,-0.60938 l 0,-3 c 0.75781,0.4297 1.52734,0.75782 2.30859,0.98438 0.78906,0.22656 1.55077,0.33985 2.28516,0.33984 0.80468,1e-5 1.41405,-0.11718 1.82812,-0.35156 0.41405,-0.23437 0.62109,-0.57421 0.62109,-1.01953 0,-0.4375 -0.14844,-0.77343 -0.44531,-1.00781 -0.28907,-0.23437 -0.98438,-0.48437 -2.08594,-0.75 l -0.94921,-0.21094 c -1.31251,-0.29687 -2.26954,-0.76171 -2.8711,-1.39453 -0.60156,-0.63281 -0.90234,-1.48046 -0.90234,-2.54297 0,-1.26561 0.45703,-2.24999 1.37109,-2.95313 0.91406,-0.70311 2.19922,-1.05467 3.85547,-1.05468 0.74218,1e-5 1.48046,0.0625 2.21484,0.1875 0.74218,0.1172 1.46093,0.29689 2.15625,0.53906"
         style="font-size:24px;font-weight:bold;fill:#ffffff;font-family:Monospace;-inkscape-font-specification:Monospace Bold"
         id="path4898" />
      <path
         d="m 306.24326,294.46269 c -0.79689,0.32813 -1.60939,0.57422 -2.4375,0.73828 -0.82814,0.16407 -1.70314,0.2461 -2.625,0.2461 -2.19532,0 -3.87501,-0.58594 -5.03907,-1.75782 -1.15625,-1.17968 -1.73437,-2.87499 -1.73437,-5.08593 0,-2.14062 0.55859,-3.83202 1.67578,-5.07422 1.11718,-1.24218 2.64062,-1.86327 4.57031,-1.86328 1.94531,1e-5 3.45312,0.57814 4.52344,1.73437 1.07811,1.14845 1.61717,2.76954 1.61719,4.86328 l 0,1.39453 -8.89453,0 c 0.008,1.03126 0.31249,1.80079 0.91406,2.3086 0.60155,0.50781 1.49999,0.76172 2.69531,0.76172 0.78905,0 1.5664,-0.11328 2.33203,-0.33985 0.76562,-0.22656 1.5664,-0.58593 2.40235,-1.07812 l 0,3.15234 m -2.90625,-7.38281 c -0.0156,-0.90624 -0.25001,-1.58983 -0.70313,-2.05078 -0.44532,-0.46874 -1.10548,-0.70312 -1.98047,-0.70313 -0.78907,1e-5 -1.41797,0.2422 -1.88672,0.72657 -0.46875,0.47657 -0.7461,1.15625 -0.83203,2.03906 l 5.40235,-0.0117"
         style="font-size:24px;font-weight:bold;fill:#ffffff;font-family:Monospace;-inkscape-font-specification:Monospace Bold"
         id="path4900" />
      <path
         d="m 315.85263,278.25566 0,3.72656 4.48828,0 0,2.63672 -4.48828,0 0,6.21094 c -10e-6,0.58594 0.14062,1.00782 0.42188,1.26562 0.28905,0.25001 0.76561,0.37501 1.42968,0.375 l 2.63672,0 0,2.63672 -2.88281,0 c -1.96876,0 -3.30079,-0.3125 -3.99609,-0.9375 -0.69532,-0.63281 -1.04298,-1.80078 -1.04297,-3.5039 l 0,-6.04688 -3.35157,0 0,-2.63672 3.35157,0 0,-3.72656 3.43359,0"
         style="font-size:24px;font-weight:bold;fill:#ffffff;font-family:Monospace;-inkscape-font-specification:Monospace Bold"
         id="path4902" />
      <path
         d="m 330.29013,278.25566 0,3.72656 4.48828,0 0,2.63672 -4.48828,0 0,6.21094 c -10e-6,0.58594 0.14062,1.00782 0.42188,1.26562 0.28905,0.25001 0.76561,0.37501 1.42968,0.375 l 2.63672,0 0,2.63672 -2.88281,0 c -1.96876,0 -3.30079,-0.3125 -3.99609,-0.9375 -0.69532,-0.63281 -1.04298,-1.80078 -1.04297,-3.5039 l 0,-6.04688 -3.35157,0 0,-2.63672 3.35157,0 0,-3.72656 3.43359,0"
         style="font-size:24px;font-weight:bold;fill:#ffffff;font-family:Monospace;-inkscape-font-specification:Monospace Bold"
         id="path4904" />
      <path
         d="m 339.23154,281.98222 6.79687,0 0,10.48828 4.26563,0 0,2.63672 -11.97657,0 0,-2.63672 4.27735,0 0,-7.85156 -3.36328,0 0,-2.63672 m 3.36328,-6.38672 3.43359,0 0,4.00782 -3.43359,0 0,-4.00782"
         style="font-size:24px;font-weight:bold;fill:#ffffff;font-family:Monospace;-inkscape-font-specification:Monospace Bold"
         id="path4906" />
      <path
         d="m 363.62997,286.58769 0,8.51953 -3.41015,0 0,-7.99218 c -1e-5,-0.95312 -0.13673,-1.63281 -0.41016,-2.03907 -0.26563,-0.41405 -0.70313,-0.62108 -1.3125,-0.62109 -0.61719,10e-6 -1.10547,0.27735 -1.46484,0.83203 -0.35157,0.5547 -0.52735,1.32423 -0.52735,2.30859 l 0,7.51172 -3.41015,0 0,-13.125 3.41015,0 0,1.96875 c 0.24219,-0.72655 0.65625,-1.28905 1.24219,-1.6875 0.58593,-0.39842 1.29296,-0.59764 2.1211,-0.59765 1.24217,1e-5 2.17967,0.41407 2.8125,1.24218 0.6328,0.82033 0.9492,2.04689 0.94921,3.67969"
         style="font-size:24px;font-weight:bold;fill:#ffffff;font-family:Monospace;-inkscape-font-specification:Monospace Bold"
         id="path4908" />
      <path
         d="m 374.92685,288.33379 c -10e-6,-1.17187 -0.22267,-2.10937 -0.66797,-2.8125 -0.44532,-0.71093 -1.03126,-1.0664 -1.75781,-1.06641 -0.71876,10e-6 -1.30079,0.35157 -1.7461,1.05469 -0.4375,0.70313 -0.65625,1.64454 -0.65625,2.82422 0,1.1875 0.21875,2.13281 0.65625,2.83593 0.44531,0.70313 1.02734,1.05469 1.7461,1.05469 0.72655,0 1.31249,-0.35156 1.75781,-1.05469 0.4453,-0.71093 0.66796,-1.65624 0.66797,-2.83593 m 3.43359,5.78906 c -10e-6,2.10156 -0.47657,3.61718 -1.42968,4.54687 -0.94533,0.9375 -2.48439,1.40625 -4.61719,1.40625 -0.71876,0 -1.42969,-0.0547 -2.13281,-0.16406 -0.70313,-0.10157 -1.41798,-0.26172 -2.14454,-0.48047 l 0,-3.15234 c 0.64844,0.35937 1.30859,0.625 1.98047,0.79687 0.67187,0.17188 1.36328,0.25781 2.07422,0.25782 0.96874,-1e-5 1.68359,-0.23047 2.14453,-0.69141 0.46093,-0.45313 0.6914,-1.16406 0.69141,-2.13281 l 0,-1.41797 c -0.33595,0.625 -0.78126,1.08984 -1.33594,1.39453 -0.55469,0.30469 -1.23047,0.45703 -2.02734,0.45703 -1.50001,0 -2.69141,-0.58594 -3.57422,-1.75781 -0.88281,-1.17187 -1.32422,-2.76172 -1.32422,-4.76953 0,-2.07812 0.44141,-3.72655 1.32422,-4.94532 0.88281,-1.21873 2.0664,-1.82811 3.55078,-1.82812 0.74999,10e-6 1.41796,0.17579 2.00391,0.52734 0.58593,0.35158 1.04686,0.84767 1.38281,1.48828 l 0,-1.67578 3.43359,0 0,12.14063"
         style="font-size:24px;font-weight:bold;fill:#ffffff;font-family:Monospace;-inkscape-font-specification:Monospace Bold"
         id="path4910" />
      <path
         d="m 391.56747,282.39238 0,3 c -0.63282,-0.40624 -1.29297,-0.71093 -1.98046,-0.91406 -0.6797,-0.21093 -1.36329,-0.3164 -2.05079,-0.31641 -0.76563,1e-5 -1.34375,0.11329 -1.73437,0.33984 -0.39063,0.21877 -0.58594,0.54689 -0.58594,0.98438 0,0.62501 0.83593,1.13282 2.50781,1.52344 l 0.12891,0.0351 0.98438,0.23438 c 1.24999,0.29688 2.16405,0.77735 2.74218,1.4414 0.58593,0.65626 0.8789,1.54688 0.87891,2.67188 -10e-6,1.35156 -0.44533,2.36719 -1.33594,3.04687 -0.88282,0.67188 -2.21485,1.00782 -3.99609,1.00782 -0.78907,0 -1.59766,-0.0703 -2.42578,-0.21094 -0.82813,-0.13281 -1.66797,-0.33594 -2.51953,-0.60938 l 0,-3 c 0.75781,0.4297 1.52734,0.75782 2.30859,0.98438 0.78906,0.22656 1.55077,0.33985 2.28516,0.33984 0.80468,1e-5 1.41405,-0.11718 1.82812,-0.35156 0.41405,-0.23437 0.62109,-0.57421 0.62109,-1.01953 0,-0.4375 -0.14844,-0.77343 -0.44531,-1.00781 -0.28907,-0.23437 -0.98438,-0.48437 -2.08594,-0.75 l -0.94921,-0.21094 c -1.31251,-0.29687 -2.26954,-0.76171 -2.8711,-1.39453 -0.60156,-0.63281 -0.90234,-1.48046 -0.90234,-2.54297 0,-1.26561 0.45703,-2.24999 1.37109,-2.95313 0.91406,-0.70311 2.19922,-1.05467 3.85547,-1.05468 0.74218,1e-5 1.48046,0.0625 2.21484,0.1875 0.74218,0.1172 1.46093,0.29689 2.15625,0.53906"
         style="font-size:24px;font-weight:bold;fill:#ffffff;font-family:Monospace;-inkscape-font-specification:Monospace Bold"
         id="path4912" />
      <path
         d="m 399.65341,282.65019 3.90235,0 0,4.27735 -3.90235,0 0,-4.27735 m 0,8.15625 3.90235,0 0,4.30078 -3.90235,0 0,-4.30078"
         style="font-size:24px;font-weight:bold;fill:#ffffff;font-family:Monospace;-inkscape-font-specification:Monospace Bold"
         id="path4914" />
      <path
         d="m 435.60654,296.783 0,2.23829 -1.75782,0 c -1.94532,-1e-5 -3.25,-0.28907 -3.91406,-0.86719 -0.65625,-0.57813 -0.98438,-1.73047 -0.98437,-3.45703 l 0,-2.51953 c -10e-6,-1.17969 -0.21095,-1.99219 -0.63282,-2.4375 -0.41406,-0.45312 -1.16797,-0.67969 -2.26171,-0.67969 l -0.72657,0 0,-2.23828 0.72657,0 c 1.09374,1e-5 1.84765,-0.22265 2.26171,-0.66797 0.42187,-0.4453 0.63281,-1.26171 0.63282,-2.44922 l 0,-2.51953 c -10e-6,-1.72655 0.32812,-2.87498 0.98437,-3.44531 0.66406,-0.57811 1.96874,-0.86717 3.91406,-0.86719 l 1.75782,0 0,2.22656 -1.44141,0 c -0.81251,2e-5 -1.35548,0.16408 -1.62891,0.49219 -0.27344,0.32814 -0.41016,1.05079 -0.41015,2.16797 l 0,2.44922 c -1e-5,1.28907 -0.19142,2.19532 -0.57422,2.71875 -0.38282,0.52344 -1.06641,0.85938 -2.05078,1.00781 0.98437,0.16407 1.66796,0.51172 2.05078,1.04297 0.3828,0.53125 0.57421,1.4375 0.57422,2.71875 l 0,2.40234 c -1e-5,1.125 0.13671,1.85156 0.41015,2.17969 0.27343,0.33593 0.8164,0.5039 1.62891,0.5039 l 1.44141,0"
         style="font-size:24px;font-weight:bold;fill:#ffffff;font-family:Monospace;-inkscape-font-specification:Monospace Bold"
         id="path4916" />
      <path
         d="m 457.40341,290.80644 3.90235,0 0,4.30078 -3.90235,0 0,-4.30078"
         style="font-size:24px;font-weight:bold;fill:#ffffff;font-family:Monospace;-inkscape-font-specification:Monospace Bold"
         id="path4918" />
      <path
         d="m 471.84091,290.80644 3.90235,0 0,4.30078 -3.90235,0 0,-4.30078"
         style="font-size:24px;font-weight:bold;fill:#ffffff;font-family:Monospace;-inkscape-font-specification:Monospace Bold"
         id="path4920" />
      <path
         d="m 486.27841,290.80644 3.90235,0 0,4.30078 -3.90235,0 0,-4.30078"
         style="font-size:24px;font-weight:bold;fill:#ffffff;font-family:Monospace;-inkscape-font-specification:Monospace Bold"
         id="path4922" />
      <path
         d="m 512.00107,296.783 1.41797,0 c 0.81249,0 1.35937,-0.16797 1.64062,-0.5039 0.28125,-0.33594 0.42187,-1.0625 0.42188,-2.17969 l 0,-2.40234 c -10e-6,-1.28125 0.1914,-2.1875 0.57422,-2.71875 0.3828,-0.53125 1.06249,-0.8789 2.03906,-1.04297 -0.98438,-0.14843 -1.66798,-0.48437 -2.05078,-1.00781 -0.37501,-0.52343 -0.56251,-1.42968 -0.5625,-2.71875 l 0,-2.44922 c -10e-6,-1.10155 -0.14063,-1.8203 -0.42188,-2.15625 -0.27344,-0.33592 -0.82031,-0.50389 -1.64062,-0.50391 l -1.41797,0 0,-2.22656 1.75781,0 c 1.93749,2e-5 3.23046,0.28908 3.87891,0.86719 0.65624,0.57033 0.98436,1.71876 0.98437,3.44531 l 0,2.51953 c -10e-6,1.1797 0.21093,1.9961 0.63281,2.44922 0.42968,0.44532 1.19531,0.66798 2.29688,0.66797 l 0.72656,0 0,2.23828 -0.72656,0 c -1.10157,0 -1.8672,0.22657 -2.29688,0.67969 -0.42188,0.45313 -0.63282,1.26563 -0.63281,2.4375 l 0,2.51953 c -10e-6,1.72656 -0.32813,2.8789 -0.98437,3.45703 -0.64845,0.57812 -1.94142,0.86718 -3.87891,0.86719 l -1.75781,0 0,-2.23829"
         style="font-size:24px;font-weight:bold;fill:#ffffff;font-family:Monospace;-inkscape-font-specification:Monospace Bold"
         id="path4924" />
      <path
         d="m 136.62607,326.783 1.41797,0 c 0.81249,0 1.35937,-0.16797 1.64062,-0.5039 0.28125,-0.33594 0.42187,-1.0625 0.42188,-2.17969 l 0,-2.40234 c -1e-5,-1.28125 0.1914,-2.1875 0.57422,-2.71875 0.3828,-0.53125 1.06249,-0.8789 2.03906,-1.04297 -0.98438,-0.14843 -1.66798,-0.48437 -2.05078,-1.00781 -0.37501,-0.52343 -0.56251,-1.42968 -0.5625,-2.71875 l 0,-2.44922 c -1e-5,-1.10155 -0.14063,-1.8203 -0.42188,-2.15625 -0.27344,-0.33592 -0.82031,-0.50389 -1.64062,-0.50391 l -1.41797,0 0,-2.22656 1.75781,0 c 1.93749,2e-5 3.23046,0.28908 3.87891,0.86719 0.65624,0.57033 0.98436,1.71876 0.98437,3.44531 l 0,2.51953 c -1e-5,1.1797 0.21093,1.9961 0.63281,2.44922 0.42968,0.44532 1.19531,0.66798 2.29688,0.66797 l 0.72656,0 0,2.23828 -0.72656,0 c -1.10157,0 -1.8672,0.22657 -2.29688,0.67969 -0.42188,0.45313 -0.63282,1.26563 -0.63281,2.4375 l 0,2.51953 c -1e-5,1.72656 -0.32813,2.8789 -0.98437,3.45703 -0.64845,0.57812 -1.94142,0.86718 -3.87891,0.86719 l -1.75781,0 0,-2.23829"
         style="font-size:24px;font-weight:bold;fill:#ffffff;font-family:Monospace;-inkscape-font-specification:Monospace Bold"
         id="path4926" />
    </g>
    <text
       xml:space="preserve"
       style="font-size:40px;font-style:normal;font-variant:normal;font-weight:normal;font-stretch:normal;line-height:125%;letter-spacing:0px;word-spacing:0px;fill:#000000;fill-opacity:1;stroke:none;font-family:PT Mono;-inkscape-font-specification:PT Mono"
       x="37.375645"
       y="187.85776"
       id="text3276"
       sodipodi:linespacing="125%"
       transform="translate(117.34412,7.7570816)"><tspan
         sodipodi:role="line"
         id="tspan3278"
         x="37.375645"
         y="187.85776" /></text>
  </g>
</svg>
