<?xml version="1.0" encoding="UTF-8" standalone="no"?>
<!-- Created with Inkscape (http://www.inkscape.org/) -->

<svg
   xmlns:dc="http://purl.org/dc/elements/1.1/"
   xmlns:cc="http://creativecommons.org/ns#"
   xmlns:rdf="http://www.w3.org/1999/02/22-rdf-syntax-ns#"
   xmlns:svg="http://www.w3.org/2000/svg"
   xmlns="http://www.w3.org/2000/svg"
   xmlns:sodipodi="http://sodipodi.sourceforge.net/DTD/sodipodi-0.dtd"
   xmlns:inkscape="http://www.inkscape.org/namespaces/inkscape"
   version="1.1"
   width="500"
   height="200"
   viewBox="0 0 400 160"
   id="svg2"
   inkscape:version="0.48.4 r9939"
   sodipodi:docname="footer.svg">
  <sodipodi:namedview
     pagecolor="#b2b2b6"
     bordercolor="#666666"
     borderopacity="1"
     objecttolerance="10"
     gridtolerance="10"
     guidetolerance="10"
     inkscape:pageopacity="0.71372549"
     inkscape:pageshadow="2"
     inkscape:window-width="1682"
     inkscape:window-height="842"
     id="namedview40"
     showgrid="false"
     inkscape:zoom="4.768"
     inkscape:cx="380.73554"
     inkscape:cy="14.235718"
     inkscape:window-x="0"
     inkscape:window-y="24"
     inkscape:window-maximized="0"
     inkscape:current-layer="svg2" />
  <metadata
     id="metadata73">
    <rdf:RDF>
      <cc:Work
         rdf:about="">
        <dc:format>image/svg+xml</dc:format>
        <dc:type
           rdf:resource="http://purl.org/dc/dcmitype/StillImage" />
        <dc:title />
      </cc:Work>
    </rdf:RDF>
  </metadata>
  <defs
     id="defs71">
    <clipPath
       id="clipPath3063">
      <rect
         width="160.46516"
         height="187.38884"
         x="124.38743"
         y="-115.83732"
         id="rect3065"
         style="fill:#ffffff;fill-opacity:1;stroke:none" />
    </clipPath>
  </defs>
  <path
     inkscape:connector-curvature="0"
     style="fill:#ffffff;fill-opacity:1;fill-rule:nonzero;stroke:none"
     id="path5"
     d="m 28.326999,75.233116 -1.544198,0 0,11.405397 -6.556068,0 0,-38.566249 6.556068,0 0,22.752732 1.323598,-0.770164 4.570671,-10.964199 7.109499,0 -5.069919,10.906143 -2.368544,1.873166 2.589143,1.873159 5.619488,12.895412 -7.384285,0 -4.845453,-11.405397" />
  <path
     inkscape:connector-curvature="0"
     style="fill:#ffffff;fill-opacity:1;fill-rule:nonzero;stroke:none"
     id="path7"
     d="m 42.987207,60.743202 c 1.102994,-0.661802 2.476905,-1.192004 4.129468,-1.598378 1.656427,-0.402498 3.529599,-0.603753 5.61949,-0.603753 3.123224,0 5.290518,0.804996 6.501881,2.42274 1.250065,1.613849 1.873159,3.912736 1.873159,6.885025 0,1.726089 -0.05418,3.436719 -0.162541,5.124106 -0.07354,1.652563 -0.131587,3.289643 -0.166418,4.90351 -0.03877,1.579024 -0.01932,3.123218 0.05418,4.62871 0.112228,1.466797 0.367661,2.863939 0.770159,4.18753 l -5.340832,0 -1.048816,-3.363187 -0.220597,0 c -0.588269,1.068176 -1.412612,1.94671 -2.476911,2.647207 -1.06817,0.696626 -2.407245,1.044945 -4.024977,1.044945 -2.167293,0 -3.874041,-0.71598 -5.124106,-2.14794 -1.246194,-1.470674 -1.873165,-3.417359 -1.873165,-5.840086 0,-3.305125 1.176533,-5.65432 3.529599,-7.05145 2.349195,-1.397141 5.526603,-1.985405 9.528361,-1.764802 0.18576,-2.128593 0.03865,-3.672792 -0.441199,-4.624858 -0.441199,-0.955924 -1.412612,-1.43196 -2.918111,-1.43196 -1.103,0 -2.240826,0.127729 -3.417359,0.38315 -1.172668,0.259304 -2.221484,0.626965 -3.138707,1.103001 l -1.652568,-4.90351 m 7.875792,20.658965 c 0.994632,0 1.803504,-0.239956 2.426604,-0.715973 0.623094,-0.514738 1.083641,-1.0643 1.377776,-1.652563 l 0,-4.570667 c -0.847562,-0.11224 -1.652557,-0.1316 -2.426592,-0.05809 -0.770171,0.07351 -1.447449,0.23995 -2.035713,0.495377 -0.588269,0.25931 -1.06817,0.642454 -1.431966,1.157185 -0.33283,0.479907 -0.499248,1.102995 -0.499248,1.873166 0,1.141696 0.220602,2.00474 0.661802,2.589145 0.4799,0.588263 1.122342,0.882392 1.927337,0.882392" />
  <path
     inkscape:connector-curvature="0"
     style="fill:#ffffff;fill-opacity:1;fill-rule:nonzero;stroke:none"
     id="path9"
     d="m 63.487496,59.090633 3.030344,0 0,-5.178278 6.556066,-2.039577 0,7.217855 5.344702,0 0,5.840093 -5.344702,0 0,12.009143 c 0,1.579025 0.147064,2.701379 0.441199,3.359304 0.328959,0.661795 0.897875,0.994638 1.706747,0.994638 0.549568,0 1.048816,-0.05809 1.486145,-0.166425 0.441193,-0.108368 0.921099,-0.274787 1.435837,-0.495377 l 0.824342,5.232469 c -0.808872,0.406362 -1.745448,0.735334 -2.809747,0.990761 -1.064294,0.294129 -2.186648,0.441199 -3.359304,0.441199 -2.093768,0 -3.672798,-0.603746 -4.740956,-1.81511 C 67.032571,84.2661 66.51784,82.230381 66.51784,79.36259 l 0,-14.431864 -3.030344,0 0,-5.840093" />
  <path
     inkscape:connector-curvature="0"
     style="fill:#ffffff;fill-opacity:1;fill-rule:nonzero;stroke:none"
     id="path11"
     d="m 82.219117,59.090633 6.556072,0 0,27.54788 -6.556072,0 0,-27.54788 M 81.448953,51.32321 c 0,-1.103 0.348319,-2.000878 1.044945,-2.701377 0.700503,-0.735334 1.691264,-1.102998 2.976166,-1.102998 1.28489,0 2.314364,0.352183 3.084523,1.048816 0.770164,0.696626 1.157179,1.617732 1.157179,2.755559 0,1.137837 -0.387015,2.035712 -1.157179,2.697508 -0.770159,0.661795 -1.799633,0.990761 -3.084523,0.990761 -1.284902,0 -2.275663,-0.328966 -2.976166,-0.990761 -0.696626,-0.696626 -1.044945,-1.598378 -1.044945,-2.697508" />
  <path
     inkscape:connector-curvature="0"
     style="fill:#ffffff;fill-opacity:1;fill-rule:nonzero;stroke:none"
     id="path13"
     d="m 112.66575,84.598924 c -0.92111,0.808872 -2.1673,1.466797 -3.74633,1.981528 -1.57903,0.514737 -3.23159,0.774035 -4.95768,0.774035 -1.91187,0 -3.56444,-0.33283 -4.961563,-0.994632 -1.35844,-0.657924 -2.476906,-1.613861 -3.359316,-2.863932 -0.882386,-1.250059 -1.544194,-2.755551 -1.981528,-4.516477 -0.406356,-1.799633 -0.607611,-3.83921 -0.607611,-6.114867 0,-4.957694 0.971413,-8.615009 2.918105,-10.964192 1.985398,-2.387902 4.721603,-3.579906 8.208633,-3.579906 1.17653,0 2.31437,0.181889 3.41736,0.549562 1.103,0.328965 2.07441,0.917235 2.92198,1.760932 0.87854,0.808866 1.57903,1.911866 2.08989,3.30899 0.55344,1.358427 0.82822,3.084516 0.82822,5.17829 0,0.804995 -0.0542,1.67191 -0.16642,2.589145 -0.0735,0.917223 -0.20124,1.90799 -0.38315,2.972289 l -13.390779,0 c 0.07351,2.279528 0.553429,4.024976 1.435829,5.236328 0.87852,1.211369 2.29501,1.818987 4.24171,1.818987 1.17266,0 2.24082,-0.185766 3.19288,-0.553427 0.99464,-0.367673 1.74545,-0.750823 2.26018,-1.157185 l 2.03959,4.574532 m -8.59566,-20.658959 c -1.39713,0 -2.44207,0.568915 -3.1387,1.706747 -0.7005,1.102994 -1.102999,2.662671 -1.215239,4.682901 l 7.604879,0 c 0.10837,-2.093762 -0.11223,-3.672787 -0.66179,-4.737092 -0.54956,-1.102995 -1.41261,-1.652556 -2.58915,-1.652556" />
  <path
     inkscape:connector-curvature="0"
     style="fill:#ffffff;fill-opacity:1;fill-rule:nonzero;stroke:none"
     id="path15"
     d="m 149.14983,59.973038 3.63796,0 -2.14794,15.039481 c -0.44119,3.339956 0.0928,5.011873 1.59838,5.011873 0.73146,0 1.44745,-0.220603 2.14795,-0.661802 0.73533,-0.437334 1.37778,-1.118484 1.92734,-2.035706 0.58826,-0.917235 1.04495,-2.093768 1.37778,-3.525728 0.36767,-1.43196 0.54957,-3.142578 0.54957,-5.124106 0,-2.534961 -0.36767,-4.702255 -1.09914,-6.501888 -0.70049,-1.834458 -1.69125,-3.324473 -2.97616,-4.462298 -1.28489,-1.176533 -2.80974,-2.03959 -4.57453,-2.589145 -1.76094,-0.549562 -3.68827,-0.828214 -5.78204,-0.828214 -2.35306,0 -4.55519,0.479888 -6.61412,1.435831 -2.02022,0.917235 -3.78116,2.221466 -5.28665,3.908871 -1.47066,1.691265 -2.64333,3.711488 -3.52573,6.060683 -0.84756,2.349195 -1.26941,4.957688 -1.26941,7.825479 0,5.619496 1.39712,9.896028 4.18752,12.833486 2.7904,2.94133 6.70313,4.408133 11.73436,4.408133 0.95593,0 2.00475,-0.127723 3.14258,-0.38315 1.17266,-0.259304 2.22147,-0.626965 3.1387,-1.103001 l 1.59838,4.79127 c -1.17654,0.626971 -2.46142,1.08364 -3.85469,1.377781 -1.39713,0.332837 -2.97616,0.495384 -4.74096,0.495384 -2.89875,0 -5.61948,-0.441199 -8.15445,-1.319733 -2.49626,-0.882404 -4.6829,-2.240826 -6.55606,-4.07916 -1.87317,-1.799627 -3.35931,-4.094638 -4.4623,-6.885032 -1.06431,-2.829095 -1.59451,-6.172922 -1.59451,-10.027609 0,-3.854694 0.60374,-7.310754 1.81511,-10.356581 1.25007,-3.04968 2.90262,-5.619484 4.96155,-7.713239 2.05506,-2.093756 4.42361,-3.69214 7.10563,-4.795146 2.68204,-1.099124 5.49177,-1.652559 8.42924,-1.652559 2.79038,0 5.39889,0.421845 7.82161,1.269415 2.46143,0.808865 4.57454,2.035712 6.33547,3.688268 1.79962,1.617732 3.21611,3.657316 4.2417,6.118738 1.02947,2.422733 1.5442,5.251823 1.5442,8.483416 0,2.422733 -0.36767,4.682913 -1.103,6.776675 -0.69663,2.05506 -1.65256,3.835333 -2.86392,5.344702 -1.21137,1.466797 -2.64333,2.62397 -4.29589,3.467673 -1.61774,0.847573 -3.34383,1.269412 -5.17828,1.269412 -1.5055,0 -2.79427,-0.38702 -3.85857,-1.157185 -1.02947,-0.770164 -1.5055,-2.113103 -1.43196,-4.021111 l -0.16643,0 c -0.84369,1.393271 -1.87315,2.608511 -3.08451,3.634097 -1.17654,1.029468 -2.62398,1.544199 -4.35007,1.544199 -1.58291,0 -2.92199,-0.696638 -4.02498,-2.093761 -1.09913,-1.39713 -1.65257,-3.343827 -1.65257,-5.84008 0,-2.461435 0.29413,-4.775799 0.8824,-6.943093 0.6231,-2.167294 1.45132,-4.055942 2.48078,-5.673668 1.0256,-1.652563 2.22149,-2.956806 3.57991,-3.912749 1.35843,-0.952059 2.80975,-1.431954 4.35394,-1.431954 1.0256,0 1.90799,0.185772 2.64333,0.553427 0.73533,0.367673 1.41261,0.863057 2.03958,1.486145 l 1.3739,-1.706741 m -2.9181,6.335469 c -0.6618,-0.774035 -1.52484,-1.157179 -2.58915,-1.157179 -0.84369,0 -1.61773,0.309612 -2.31436,0.936583 -0.69663,0.588263 -1.30424,1.393258 -1.81897,2.422721 -0.51475,0.990761 -0.91724,2.147946 -1.21137,3.471549 -0.29414,1.284896 -0.4412,2.62397 -0.4412,4.021099 0,1.284902 0.20125,2.27954 0.60762,2.976166 0.4412,0.696633 1.103,1.044946 1.98152,1.044946 0.80887,0 1.61774,-0.441193 2.42661,-1.319727 0.84369,-0.921105 1.54032,-1.931214 2.09375,-3.03035 l 1.26555,-9.365808" />
  <path
     inkscape:connector-curvature="0"
     style="fill:#ffffff;fill-opacity:1;fill-rule:nonzero;stroke:none"
     id="path17"
     d="m 189.03194,86.638513 c 0,4.001752 -0.91723,6.939204 -2.75557,8.812375 -1.83833,1.911867 -4.38877,2.86392 -7.65906,2.86392 -2.27565,0 -4.05594,-0.181895 -5.34471,-0.549555 -1.28489,-0.328966 -2.27565,-0.696639 -2.97229,-1.102995 l 1.37779,-5.561447 c 0.80499,0.328972 1.66804,0.642448 2.58914,0.936589 0.95206,0.290264 2.07442,0.437322 3.35931,0.437322 1.87317,0 3.15806,-0.510854 3.85855,-1.540316 0.73146,-0.990767 1.09913,-2.515626 1.09913,-4.574551 l 0,-1.486138 -0.16254,0 c -0.51474,0.735334 -1.21524,1.28489 -2.09377,1.652556 -0.84756,0.367667 -1.94669,0.549562 -3.30899,0.549562 -2.89876,0 -5.0854,-1.083647 -6.55607,-3.24707 -1.43196,-2.205989 -2.14795,-5.677538 -2.14795,-10.414624 0,-5.104758 0.99464,-8.87043 2.97617,-11.293157 2.02023,-2.426592 4.88416,-3.637956 8.59565,-3.637956 1.98152,0 3.76181,0.166419 5.3447,0.495378 1.57903,0.294135 2.84458,0.661801 3.80051,1.102994 l 0,26.557113 m -10.19403,-5.182155 c 0.99077,0 1.7648,-0.236079 2.31436,-0.715986 0.58827,-0.476036 1.02947,-1.157173 1.32359,-2.035707 l 0,-13.773939 c -0.40635,-0.185766 -0.86304,-0.332831 -1.37777,-0.4412 -0.47603,-0.112233 -1.04882,-0.166418 -1.70674,-0.166418 -1.36231,0 -2.42661,0.661802 -3.19676,1.985399 -0.73534,1.319733 -1.10301,3.599254 -1.10301,6.830853 0,5.545958 1.25008,8.316998 3.74633,8.316998" />
  <path
     inkscape:connector-curvature="0"
     style="fill:#ffffff;fill-opacity:1;fill-rule:nonzero;stroke:none"
     id="path19"
     d="m 200.39863,77.710028 c 0,1.288766 0.13158,2.205989 0.38702,2.755563 0.25542,0.553427 0.68114,0.82822 1.26555,0.82822 0.33283,0 0.66178,-0.03871 0.99462,-0.112234 0.36768,-0.07352 0.77017,-0.201255 1.21137,-0.38315 l 0.60374,5.286641 c -0.43732,0.294141 -1.192,0.568916 -2.25631,0.82822 -1.06429,0.255433 -2.14794,0.38315 -3.25093,0.38315 -1.83834,0 -3.21611,-0.456682 -4.13335,-1.377776 -0.91723,-0.917241 -1.37778,-2.476911 -1.37778,-4.682913 l 0,-33.163485 6.55607,0 0,29.637764" />
  <path
     inkscape:connector-curvature="0"
     style="fill:#ffffff;fill-opacity:1;fill-rule:nonzero;stroke:none"
     id="path21"
     d="m 207.13272,60.743202 c 1.09914,-0.661802 2.47691,-1.192004 4.12948,-1.598378 1.65256,-0.402498 3.52571,-0.603753 5.61949,-0.603753 3.12322,0 5.29051,0.804996 6.50188,2.42274 1.25006,1.613849 1.87316,3.912736 1.87316,6.885025 0,1.726089 -0.0542,3.436719 -0.16642,5.124106 -0.0735,1.652563 -0.12771,3.289643 -0.16254,4.90351 -0.0388,1.579024 -0.0193,3.123218 0.0542,4.62871 0.10835,1.466797 0.36766,2.863939 0.77015,4.18753 l -5.3447,0 -1.04495,-3.363187 -0.22059,0 c -0.58826,1.068176 -1.41262,1.94671 -2.48078,2.647207 -1.0643,0.696626 -2.40338,1.044945 -4.02111,1.044945 -2.16729,0 -3.87404,-0.71598 -5.12411,-2.14794 -1.24619,-1.470674 -1.87316,-3.417359 -1.87316,-5.840086 0,-3.305125 1.17653,-5.65432 3.52573,-7.05145 2.35306,-1.397141 5.53047,-1.985405 9.53222,-1.764802 0.18578,-2.128593 0.0388,-3.672792 -0.44119,-4.624858 -0.4412,-0.955924 -1.41261,-1.43196 -2.91811,-1.43196 -1.10299,0 -2.24083,0.127729 -3.41736,0.38315 -1.17266,0.259304 -2.22148,0.626965 -3.13871,1.103001 l -1.65258,-4.90351 m 7.8758,20.658965 c 0.99463,0 1.79963,-0.239956 2.4266,-0.715973 0.6231,-0.514738 1.08365,-1.0643 1.37778,-1.652563 l 0,-4.570667 c -0.84756,-0.11224 -1.65256,-0.1316 -2.42659,-0.05809 -0.77017,0.07351 -1.45133,0.23995 -2.03571,0.495377 -0.58827,0.25931 -1.06818,0.642454 -1.43583,1.157185 -0.32897,0.479907 -0.49539,1.102995 -0.49539,1.873166 0,1.141696 0.22061,2.00474 0.66181,2.589145 0.47988,0.588263 1.12234,0.882392 1.92733,0.882392" />
  <path
     inkscape:connector-curvature="0"
     style="fill:#ffffff;fill-opacity:1;fill-rule:nonzero;stroke:none"
     id="path23"
     d="m 239.0384,79.308412 c 0,-0.770165 -0.2593,-1.412613 -0.77402,-1.92735 -0.47604,-0.549562 -1.09914,-1.044945 -1.87318,-1.486138 -0.77016,-0.479907 -1.59837,-0.955937 -2.4769,-1.43196 -0.84756,-0.479907 -1.65257,-1.068176 -2.4266,-1.764803 -0.77016,-0.696632 -1.41261,-1.544206 -1.92734,-2.534967 -0.47603,-0.990767 -0.71598,-2.240826 -0.71598,-3.746324 0,-2.569798 0.69663,-4.555184 2.09376,-5.948443 1.39713,-1.397141 3.45219,-2.093761 6.16905,-2.093761 1.61773,0 3.14258,0.181895 4.57455,0.549549 1.43196,0.332843 2.56979,0.754688 3.41349,1.269419 l -1.54034,5.066051 c -0.7005,-0.294129 -1.54419,-0.568898 -2.53496,-0.824343 -0.99076,-0.294129 -1.96604,-0.441199 -2.91811,-0.441199 -1.8035,0 -2.70138,0.750817 -2.70138,2.256309 0,0.700509 0.23996,1.288773 0.71599,1.764796 0.51473,0.441205 1.15718,0.882404 1.92734,1.323597 0.77404,0.441199 1.57903,0.897888 2.4266,1.377788 0.87853,0.47603 1.70675,1.079776 2.47691,1.81511 0.77015,0.700497 1.39713,1.563542 1.87315,2.589145 0.51474,1.029463 0.77017,2.295011 0.77404,3.804368 -0.004,2.531102 -0.77404,4.570667 -2.31435,6.114879 -1.54421,1.540317 -3.83922,2.314352 -6.88892,2.314352 -1.50549,0 -2.99163,-0.185766 -4.46229,-0.553433 -1.43198,-0.36766 -2.58915,-0.843696 -3.47155,-1.431953 l 1.81898,-5.286654 c 0.77017,0.437328 1.65257,0.824343 2.64333,1.153302 1.02946,0.332837 2.09376,0.499255 3.19676,0.499255 0.84369,0 1.54419,-0.185766 2.09376,-0.553427 0.54957,-0.402498 0.82821,-1.025604 0.82821,-1.873165" />
  <path
     inkscape:connector-curvature="0"
     style="fill:#ffffff;fill-opacity:1;fill-rule:nonzero;stroke:none"
     id="path25"
     d="m 262.7045,86.638513 0,-16.7501 c 0,-2.020223 -0.23995,-3.432835 -0.71599,-4.241701 -0.47603,-0.808872 -1.2849,-1.21137 -2.42272,-1.21137 -0.95593,0 -1.78415,0.294135 -2.48079,0.878533 -0.69662,0.588264 -1.192,1.323598 -1.48613,2.205996 l 0,19.118642 -6.55608,0 0,-27.54788 5.23247,0 0.77017,3.196763 0.16642,0 c 0.66179,-1.068164 1.55967,-1.966039 2.70138,-2.701373 1.13783,-0.770158 2.62397,-1.157185 4.46229,-1.157185 1.09914,0 2.07442,0.166418 2.91812,0.495377 0.8824,0.332843 1.61773,0.882404 2.20599,1.652569 0.5844,0.735334 1.02561,1.745449 1.31973,3.03035 0.29414,1.250053 0.4412,2.809736 0.4412,4.682901 l 0,18.348478 -6.55606,0" />
  <path
     inkscape:connector-curvature="0"
     style="fill:#ffffff;fill-opacity:1;fill-rule:nonzero;stroke:none"
     id="path27"
     d="m 271.64072,59.090633 3.03034,0 0,-5.178278 6.55607,-2.039577 0,7.217855 5.3447,0 0,5.840093 -5.3447,0 0,12.009143 c 0,1.579025 0.14707,2.701379 0.44119,3.359304 0.33284,0.661795 0.90176,0.994638 1.70675,0.994638 0.55344,0 1.04882,-0.05809 1.49002,-0.166425 0.4412,-0.108368 0.91723,-0.274787 1.43196,-0.495377 l 0.82435,5.232469 c -0.805,0.406362 -1.74158,0.735334 -2.80975,0.990761 -1.0643,0.294129 -2.18278,0.441199 -3.35931,0.441199 -2.09376,0 -3.67279,-0.603746 -4.73709,-1.81511 -1.02946,-1.215228 -1.54419,-3.250947 -1.54419,-6.118738 l 0,-14.431864 -3.03034,0 0,-5.840093" />
  <path
     inkscape:connector-curvature="0"
     style="fill:#ffffff;fill-opacity:1;fill-rule:nonzero;stroke:none"
     id="path29"
     d="m 292.49706,83.054736 c 0,-1.358428 0.34832,-2.387902 1.04881,-3.084529 0.73534,-0.696626 1.6874,-1.044951 2.86394,-1.044951 1.28489,0 2.27565,0.348325 2.97616,1.044951 0.69663,0.696627 1.04494,1.726101 1.04494,3.084529 0,1.323591 -0.36766,2.35306 -1.10299,3.084523 -0.69665,0.735334 -1.66804,1.102995 -2.91811,1.102995 -1.21137,0 -2.1673,-0.367661 -2.86394,-1.102995 -0.70049,-0.731463 -1.04881,-1.760932 -1.04881,-3.084523" />
  <path
     inkscape:connector-curvature="0"
     style="fill:#ffffff;fill-opacity:1;fill-rule:nonzero;stroke:none"
     id="path31"
     d="m 320.97377,85.148492 c -0.91723,0.735334 -2.02023,1.284902 -3.30512,1.652562 -1.2849,0.367667 -2.56979,0.553433 -3.8547,0.553433 -1.87315,0 -3.45219,-0.33283 -4.73709,-0.994632 -1.25006,-0.696632 -2.27952,-1.668045 -3.08838,-2.918104 -0.80499,-1.284896 -1.39326,-2.809742 -1.76094,-4.574538 -0.33283,-1.799633 -0.49537,-3.800515 -0.49537,-6.002634 0,-4.814494 0.86305,-8.429237 2.58914,-10.855835 1.7261,-2.422721 4.26105,-3.634078 7.60102,-3.634078 1.65256,0 2.99551,0.147052 4.0211,0.441199 1.06817,0.294122 2.00475,0.661795 2.80975,1.099117 l -1.54033,5.456949 c -0.66181,-0.332837 -1.30425,-0.568916 -1.92735,-0.715986 -0.58827,-0.185766 -1.30425,-0.278652 -2.15182,-0.278652 -1.54032,0 -2.6975,0.681149 -3.46767,2.039577 -0.77404,1.323597 -1.15717,3.471543 -1.15717,6.447709 0,2.49626 0.38313,4.535837 1.15717,6.114867 0.80499,1.579025 2.07441,2.368537 3.80051,2.368537 0.91723,0 1.6874,-0.112234 2.31437,-0.328965 0.66179,-0.259305 1.26554,-0.572775 1.8151,-0.936571 l 1.37778,5.066045" />
  <path
     inkscape:connector-curvature="0"
     style="fill:#ffffff;fill-opacity:1;fill-rule:nonzero;stroke:none"
     id="path33"
     d="m 322.23932,72.864579 c 0,-4.884155 0.95593,-8.522117 2.86392,-10.910013 1.91187,-2.387897 4.57455,-3.5799 7.98803,-3.5799 3.6728,0 6.40901,1.211357 8.20863,3.634078 1.79964,2.426598 2.70138,6.041341 2.70138,10.855835 0,4.918981 -0.95593,8.57629 -2.86392,10.964186 -1.91187,2.349189 -4.59389,3.525722 -8.04609,3.525722 -7.23335,0 -10.85195,-4.829977 -10.85195,-14.489908 m 6.77666,0 c 0,2.751687 0.30962,4.88415 0.93659,6.389642 0.62309,1.505492 1.67191,2.26018 3.1387,2.26018 1.39714,0 2.4266,-0.642442 3.08453,-1.931202 0.70051,-1.319739 1.04882,-3.560559 1.04882,-6.71862 0,-2.829095 -0.31349,-4.977041 -0.93658,-6.447709 -0.6231,-1.466797 -1.69126,-2.202118 -3.19677,-2.202118 -1.28489,0 -2.295,0.661795 -3.03033,1.981522 -0.69663,1.284895 -1.04496,3.510251 -1.04496,6.668305" />
  <path
     inkscape:connector-curvature="0"
     style="fill:#ffffff;fill-opacity:1;fill-rule:nonzero;stroke:none"
     id="path35"
     d="m 360.49208,86.638513 0,-16.034113 c 0,-2.314365 -0.18577,-3.912743 -0.55343,-4.79127 -0.36767,-0.921106 -1.08365,-1.377788 -2.14795,-1.377788 -0.88239,0 -1.61386,0.294135 -2.20212,0.878533 -0.55344,0.553433 -0.97528,1.230712 -1.26941,2.039584 l 0,19.285054 -6.55608,0 0,-27.54788 5.06993,0 0.82434,3.305132 0.16642,0 c 0.69662,-1.137832 1.55967,-2.074408 2.58914,-2.809742 1.0643,-0.770158 2.46143,-1.157185 4.18753,-1.157185 1.43196,0 2.58914,0.313488 3.47154,0.936595 0.91723,0.623088 1.6332,1.726082 2.14794,3.305113 0.69663,-1.319727 1.61774,-2.349189 2.75556,-3.084523 1.13783,-0.770158 2.4769,-1.157185 4.02111,-1.157185 1.21136,0 2.24083,0.166418 3.08452,0.495377 0.8824,0.294147 1.57903,0.828226 2.09377,1.598385 0.54957,0.77017 0.95592,1.838334 1.21136,3.196762 0.25931,1.319732 0.38702,3.01099 0.38702,5.066057 l 0,17.853094 -6.55608,0 0,-16.7501 c 0,-1.873165 -0.16641,-3.25094 -0.49537,-4.133345 -0.33283,-0.878521 -1.0643,-1.319726 -2.206,-1.319726 -0.91723,0 -1.66804,0.274787 -2.25631,0.824343 -0.55344,0.514743 -0.95594,1.230717 -1.21137,2.147946 l 0,19.230882 -6.55606,0" />
  <path
     inkscape:connector-curvature="0"
     style="fill:#000000;fill-opacity:1;fill-rule:nonzero;stroke:none"
     id="path37"
     d="m 202.66268,139.67918 c -0.18963,0.0387 -0.27478,0.12772 -0.25157,0.27092 0.0232,0.14707 0.13159,0.19351 0.32509,0.14707 0.19352,-0.0503 0.27866,-0.13546 0.25157,-0.25543 -0.0232,-0.13159 -0.13158,-0.18577 -0.32509,-0.16256 z m 0,0" />
  <path
     inkscape:connector-curvature="0"
     style="fill:#000000;fill-opacity:1;fill-rule:nonzero;stroke:none"
     id="path39"
     d="m 201.63321,139.82625 c -0.18964,0 -0.28639,0.0658 -0.28639,0.19738 0,0.15481 0.10062,0.22447 0.30574,0.19738 0.19351,0 0.29027,-0.0658 0.29027,-0.19738 0,-0.15481 -0.1045,-0.22447 -0.30962,-0.19738 z m 0,0" />
  <path
     inkscape:connector-curvature="0"
     style="fill:#000000;fill-opacity:1;fill-rule:nonzero;stroke:none"
     id="path41"
     d="m 200.22448,139.77207 c -0.0465,0.13159 0.0309,0.2206 0.23608,0.27091 0.18189,0.0696 0.29412,0.0349 0.34443,-0.10836 0.0349,-0.13546 -0.0426,-0.22834 -0.23608,-0.29026 -0.18189,-0.0465 -0.29412,-0.008 -0.34443,0.12771 z m 0,0" />
  <path
     inkscape:connector-curvature="0"
     style="fill:#ffffff;fill-opacity:1;fill-rule:nonzero;stroke:none"
     id="path43"
     d="m 218.87481,118.90025 c -1.01785,-1.01398 -2.24469,-1.52485 -3.67665,-1.52485 l -17.33837,0 c -1.43196,0 -2.65881,0.51087 -3.67665,1.52485 -1.01399,1.01785 -1.52485,2.24469 -1.52485,3.67667 l 0,17.33835 c 0,1.43196 0.51086,2.6588 1.52485,3.67666 1.01784,1.01786 2.24469,1.52485 3.67665,1.52485 l 4.04433,0 c 0.26704,0 0.46443,-0.008 0.59601,-0.027 0.13546,-0.0193 0.26705,-0.0968 0.39862,-0.23607 0.1316,-0.13546 0.19738,-0.3367 0.19738,-0.60374 0,-0.0349 0,-0.44507 -0.008,-1.22686 -0.008,-0.78563 -0.008,-1.40486 -0.008,-1.86154 l -0.41799,0.0735 c -0.26316,0.0465 -0.59599,0.0696 -1.00237,0.0619 -0.4025,-0.008 -0.82047,-0.0465 -1.25393,-0.12772 -0.43346,-0.0774 -0.83596,-0.2593 -1.21137,-0.54181 -0.37154,-0.28253 -0.63857,-0.6502 -0.79338,-1.11075 l -0.18189,-0.41411 c -0.11999,-0.27478 -0.30962,-0.58439 -0.56892,-0.9211 -0.25931,-0.3367 -0.5186,-0.56505 -0.78565,-0.68502 l -0.12384,-0.0928 c -0.0851,-0.0581 -0.16255,-0.13158 -0.23608,-0.21673 -0.0735,-0.0812 -0.12772,-0.16642 -0.16255,-0.25157 -0.0349,-0.0851 -0.008,-0.1548 0.089,-0.20898 0.0968,-0.0542 0.27091,-0.0812 0.52633,-0.0812 l 0.35994,0.0542 c 0.23995,0.0503 0.53795,0.19351 0.89401,0.43347 0.35604,0.24382 0.64631,0.55344 0.87465,0.94044 0.27866,0.49152 0.6115,0.8708 1.00238,1.13011 0.39088,0.25542 0.78565,0.38701 1.18427,0.38701 0.39862,0 0.73919,-0.031 1.02946,-0.089 0.29027,-0.0619 0.56118,-0.15095 0.81273,-0.27092 0.10837,-0.80886 0.4025,-1.4281 0.88628,-1.86156 -0.6889,-0.0735 -1.30425,-0.18189 -1.85382,-0.32508 -0.54568,-0.1432 -1.11073,-0.37928 -1.69513,-0.70438 -0.5844,-0.32509 -1.06816,-0.72758 -1.45519,-1.21136 -0.38701,-0.4799 -0.7005,-1.11462 -0.94819,-1.89638 -0.24769,-0.78178 -0.37153,-1.68353 -0.37153,-2.70912 0,-1.45518 0.47603,-2.69751 1.42809,-3.71924 -0.44506,-1.09526 -0.4025,-2.32597 0.12772,-3.68439 0.34832,-0.10837 0.86692,-0.027 1.55193,0.24381 0.68503,0.27091 1.18815,0.50313 1.50937,0.69664 0.31735,0.18964 0.57279,0.35218 0.7663,0.48764 1.11847,-0.31349 2.27565,-0.47217 3.46767,-0.47217 1.19201,0 2.34919,0.15868 3.46767,0.47217 l 0.68501,-0.43346 c 0.47218,-0.29027 1.02561,-0.55731 1.66419,-0.79726 0.63857,-0.23995 1.12621,-0.30574 1.46292,-0.19737 0.54182,1.35842 0.58826,2.58913 0.14319,3.68439 0.95206,1.02173 1.42809,2.26406 1.42809,3.71924 0,1.02559 -0.12384,1.93121 -0.37153,2.72073 -0.24769,0.78564 -0.56504,1.42035 -0.95593,1.89638 -0.39088,0.47217 -0.87853,0.87466 -1.46293,1.19975 -0.58439,0.3251 -1.14943,0.56118 -1.699,0.70438 -0.54569,0.14319 -1.16492,0.25155 -1.84995,0.32508 0.62698,0.54184 0.9366,1.39715 0.9366,2.56594 l 0,4.31524 c 0,0.20512 0.0309,0.37153 0.0928,0.49537 0.0581,0.12771 0.15481,0.21287 0.28639,0.26317 0.13545,0.0465 0.25155,0.0774 0.35605,0.089 0.10063,0.0116 0.24769,0.0193 0.44121,0.0193 l 4.04433,0 c 1.43196,0 2.6588,-0.50698 3.67665,-1.52484 1.01785,-1.01786 1.52485,-2.2447 1.52485,-3.67666 l 0,-17.33836 c 0,-1.43198 -0.507,-2.65882 -1.52485,-3.67667 z m 0,0" />
  <path
     inkscape:connector-curvature="0"
     style="fill:#000000;fill-opacity:1;fill-rule:nonzero;stroke:none"
     id="path45"
     d="m 198.15006,137.56608 c -0.0851,0.0619 -0.0735,0.15868 0.0349,0.29026 0.11998,0.11997 0.21673,0.13933 0.29026,0.0542 0.0851,-0.0619 0.0696,-0.1548 -0.0387,-0.29026 -0.11997,-0.10837 -0.21672,-0.12385 -0.28639,-0.0542 z m 0,0" />
  <path
     inkscape:connector-curvature="0"
     style="fill:#000000;fill-opacity:1;fill-rule:nonzero;stroke:none"
     id="path47"
     d="m 197.55405,137.11714 c -0.0387,0.0851 0.004,0.15481 0.12384,0.21673 0.0968,0.0581 0.17803,0.0465 0.23608,-0.0387 0.0349,-0.0812 -0.004,-0.1548 -0.12771,-0.21672 -0.11997,-0.0349 -0.19738,-0.0232 -0.23221,0.0387 z m 0,0" />
  <path
     inkscape:connector-curvature="0"
     style="fill:#000000;fill-opacity:1;fill-rule:nonzero;stroke:none"
     id="path49"
     d="m 198.70737,138.27045 c -0.10837,0.0619 -0.10837,0.17028 0,0.32509 0.10836,0.15868 0.21286,0.20125 0.30961,0.12772 0.10836,-0.0851 0.10836,-0.19738 0,-0.34446 -0.0968,-0.1548 -0.20125,-0.18963 -0.30961,-0.10835 z m 0,0" />
  <path
     inkscape:connector-curvature="0"
     style="fill:#000000;fill-opacity:1;fill-rule:nonzero;stroke:none"
     id="path51"
     d="m 199.34207,139.08318 c -0.10836,0.0968 -0.0851,0.21286 0.0735,0.34445 0.14319,0.1432 0.26316,0.16254 0.35992,0.0542 0.0968,-0.0968 0.0696,-0.209 -0.0735,-0.34445 -0.1432,-0.14319 -0.26316,-0.16255 -0.35992,-0.0542 z m 0,0" />
  <path
     inkscape:connector-curvature="0"
     style="fill:#e6e6e6;fill-opacity:1;fill-rule:nonzero;stroke:none"
     id="path53"
     d="m 253.06003,118.90025 c -1.01785,-1.01398 -2.24083,-1.52485 -3.67666,-1.52485 l -17.33837,0 c -1.43196,0 -2.65492,0.51087 -3.67278,1.52485 -1.01786,1.01785 -1.52873,2.24469 -1.52873,3.67667 l 0,17.33835 c 0,1.43196 0.51087,2.6588 1.52873,3.67666 1.01786,1.01786 2.24082,1.52485 3.67278,1.52485 l 17.33837,0 c 1.43583,0 2.65881,-0.50699 3.67666,-1.52485 1.01785,-1.01786 1.52484,-2.2447 1.52484,-3.67666 l 0,-17.33835 c 0,-1.43198 -0.50699,-2.65882 -1.52484,-3.67667 z m -14.72987,15.05496 c -0.74694,0.74694 -1.64869,1.12234 -2.70912,1.12234 -1.05655,0 -1.96217,-0.3754 -2.70912,-1.12234 -0.74693,-0.74695 -1.11847,-1.64869 -1.11847,-2.70911 0,-1.06044 0.37154,-1.96219 1.11847,-2.70913 0.74695,-0.74694 1.65257,-1.11848 2.70912,-1.11848 1.06043,0 1.96218,0.37154 2.70912,1.11848 0.74694,0.74694 1.12236,1.64869 1.12236,2.70913 0,1.06042 -0.37542,1.96216 -1.12236,2.70911 z m 10.18629,0 c -0.74693,0.74694 -1.6487,1.12234 -2.70912,1.12234 -1.05655,0 -1.96217,-0.3754 -2.70912,-1.12234 -0.74693,-0.74695 -1.11847,-1.64869 -1.11847,-2.70911 0,-1.06044 0.37154,-1.96219 1.11847,-2.70913 0.74695,-0.74694 1.6487,-1.11848 2.70912,-1.11848 1.06042,0 1.96219,0.37154 2.70912,1.11848 0.74695,0.74694 1.12235,1.64869 1.12235,2.70913 0,1.06042 -0.3754,1.96216 -1.12235,2.70911 z m 0,0" />
  <path
     inkscape:connector-curvature="0"
     style="fill:#e6e6e6;fill-opacity:1;fill-rule:nonzero;stroke:none"
     id="path55"
     d="m 244.48761,136.15347 c -1.43197,-0.28639 -2.75943,-1.33134 -3.40189,-2.68203 -0.16642,-0.35219 -0.34443,-0.81274 -0.39475,-1.02947 -0.12772,-0.54957 -0.10837,-1.77253 0.0347,-2.32984 0.4412,-1.70675 1.81125,-3.10775 3.46381,-3.53734 1.08365,-0.28251 2.54269,-0.14707 3.44444,0.30962 1.18428,0.60762 2.12086,1.70675 2.52723,2.98003 0.23608,0.72372 0.26704,1.98928 0.0696,2.72073 -0.28639,1.05268 -1.04495,2.12472 -1.98153,2.79813 -1.04107,0.74694 -2.44207,1.03334 -3.76179,0.77017 z m 0,0" />
  <path
     inkscape:connector-curvature="0"
     style="fill:#e6e6e6;fill-opacity:1;fill-rule:nonzero;stroke:none"
     id="path57"
     d="m 235.14114,135.02725 c -0.0619,-0.0154 -0.24382,-0.0542 -0.41024,-0.0851 -0.16254,-0.0309 -0.49537,-0.15481 -0.73533,-0.26704 -0.79338,-0.38315 -1.41648,-0.99463 -1.79962,-1.77641 -0.62698,-1.26942 -0.42185,-2.98777 0.48763,-4.05594 0.82822,-0.96754 1.73384,-1.38551 2.99165,-1.37778 1.29263,0.008 2.3995,0.61923 3.14645,1.72996 0.87078,1.30426 0.78177,3.15421 -0.21287,4.38878 -0.7392,0.9211 -1.67191,1.401 -2.81361,1.44744 -0.298,0.0116 -0.596,0.008 -0.65406,-0.004 z m 0,0" />
  <path
     inkscape:connector-curvature="0"
     style="fill:#e6e6e6;fill-opacity:1;fill-rule:nonzero;stroke:none"
     id="path59"
     d="m 233.75175,135.98705 c -1.43196,-0.28639 -2.75943,-1.33134 -3.40187,-2.68203 -0.16642,-0.34831 -0.34446,-0.81274 -0.39476,-1.0256 -0.12773,-0.54956 -0.10837,-1.77253 0.0347,-2.3337 0.44121,-1.70675 1.81124,-3.10775 3.46767,-3.53735 1.07979,-0.27865 2.53883,-0.14705 3.44059,0.31349 1.18427,0.60374 2.12085,1.70288 2.53109,2.97617 0.2322,0.72371 0.26316,1.99313 0.0658,2.72072 -0.28639,1.05656 -1.04494,2.1286 -1.98153,2.79813 -1.04107,0.74694 -2.44207,1.03721 -3.7618,0.77017 z m 0,0" />
  <path
     inkscape:connector-curvature="0"
     style="fill:#0057d4;fill-opacity:1;fill-rule:nonzero;stroke:none"
     id="path61"
     d="m 239.58023,131.2461 c 0,2.31822 -1.81899,4.19913 -4.06368,4.19913 -2.24471,0 -4.06755,-1.88091 -4.06755,-4.19913 0,-2.31824 1.82284,-4.19915 4.06755,-4.19915 2.24469,0 4.06368,1.88091 4.06368,4.19915 z m 0,0" />
  <path
     inkscape:connector-curvature="0"
     style="fill:#d91491;fill-opacity:1;fill-rule:nonzero;stroke:none"
     id="path63"
     d="m 249.97938,131.19191 c 0,2.28727 -1.86929,4.14494 -4.17978,4.14494 -2.31051,0 -4.18366,-1.85767 -4.18366,-4.14494 0,-2.28728 1.87315,-4.14496 4.18366,-4.14496 2.31049,0 4.17978,1.85768 4.17978,4.14496 z m 0,0" />
  <path
     inkscape:connector-curvature="0"
     style="fill:#00abee;fill-opacity:0.94117599;fill-rule:nonzero;stroke:none"
     id="path65"
     d="m 184.68961,118.90025 c -1.01786,-1.01398 -2.24471,-1.52485 -3.67667,-1.52485 l -17.33836,0 c -1.43196,0 -2.6588,0.51087 -3.67666,1.52485 -1.01785,1.01785 -1.52485,2.24469 -1.52485,3.67667 l 0,17.33835 c 0,1.43196 0.507,2.6588 1.52485,3.67666 1.01786,1.01786 2.2447,1.52485 3.67666,1.52485 l 17.33836,0 c 1.43196,0 2.65881,-0.50699 3.6728,-1.52485 1.01785,-1.01786 1.52871,-2.2447 1.52871,-3.67666 l 0,-17.33835 c 0,-1.43198 -0.51086,-2.65882 -1.52484,-3.67667 z m -4.99639,9.14908 c 0.0116,0.10837 0.0193,0.27091 0.0193,0.48764 0,1.01011 -0.14707,2.02797 -0.4412,3.04195 -0.298,1.01786 -0.74694,1.99314 -1.35456,2.92585 -0.60761,0.93658 -1.33521,1.76093 -2.17891,2.47691 -0.83982,0.71598 -1.8538,1.28877 -3.03421,1.71449 -1.17654,0.42959 -2.44207,0.64244 -3.79276,0.64244 -2.09377,0 -4.03272,-0.5689 -5.813,-1.699 0.28639,0.0349 0.58826,0.0542 0.90175,0.0542 1.74544,0 3.31673,-0.54183 4.71387,-1.62547 -0.8166,-0.0116 -1.54807,-0.26317 -2.19439,-0.75855 -0.64244,-0.49152 -1.09139,-1.11848 -1.34682,-1.87703 0.31349,0.0465 0.54957,0.0696 0.70438,0.0696 0.26704,0 0.57278,-0.0465 0.92108,-0.14319 -0.87851,-0.1703 -1.61772,-0.60376 -2.22146,-1.30812 -0.59988,-0.70437 -0.90175,-1.50937 -0.90175,-2.41113 l 0,-0.0387 c 0.63857,0.30187 1.23845,0.46054 1.80737,0.47216 -1.09526,-0.73534 -1.64483,-1.78803 -1.64483,-3.16194 0,-0.6734 0.17416,-1.31197 0.52248,-1.91573 0.95206,1.16879 2.10924,2.10151 3.46767,2.80201 1.3623,0.69663 2.81749,1.08751 4.37329,1.17266 -0.0619,-0.22835 -0.0928,-0.51861 -0.0928,-0.86692 0,-1.04882 0.37153,-1.94283 1.11073,-2.68203 0.74308,-0.7392 1.63709,-1.11074 2.68203,-1.11074 1.11075,0 2.03184,0.39863 2.76331,1.19201 0.83208,-0.1548 1.64095,-0.46442 2.42272,-0.9211 -0.30188,0.92884 -0.86304,1.63321 -1.67965,2.11312 0.78177,-0.10837 1.50936,-0.31349 2.18277,-0.61536 -0.50312,0.77016 -1.13783,1.42809 -1.89638,1.96991 z m 0,0" />
  <path
     inkscape:connector-curvature="0"
     style="fill:none;stroke:#676767;stroke-width:5.19999932999999981;stroke-linecap:butt;stroke-linejoin:miter;stroke-miterlimit:4;stroke-opacity:1;stroke-dasharray:none"
     id="path67"
     d="m 120.28224,92.829958 0,14.792612 170.14815,0 0,-14.792612" />
</svg>
