<?xml version="1.0" encoding="UTF-8" standalone="no"?>
<!-- Created with Inkscape (http://www.inkscape.org/) -->

<svg
   xmlns:dc="http://purl.org/dc/elements/1.1/"
   xmlns:cc="http://creativecommons.org/ns#"
   xmlns:rdf="http://www.w3.org/1999/02/22-rdf-syntax-ns#"
   xmlns:svg="http://www.w3.org/2000/svg"
   xmlns="http://www.w3.org/2000/svg"
   xmlns:sodipodi="http://sodipodi.sourceforge.net/DTD/sodipodi-0.dtd"
   xmlns:inkscape="http://www.inkscape.org/namespaces/inkscape"
   width="800"
   height="600"
   id="svg3871"
   version="1.1"
   inkscape:version="0.48.4 r9939"
   sodipodi:docname="Solution_1.svg">
  <defs
     id="defs3873" />
  <sodipodi:namedview
     id="base"
     pagecolor="#ffffff"
     bordercolor="#666666"
     borderopacity="1.0"
     inkscape:pageopacity="0.0"
     inkscape:pageshadow="2"
     inkscape:zoom="0.98994949"
     inkscape:cx="221.45474"
     inkscape:cy="321.46589"
     inkscape:document-units="px"
     inkscape:current-layer="layer1"
     showgrid="false"
     fit-margin-top="20"
     fit-margin-left="20"
     fit-margin-right="20"
     fit-margin-bottom="20"
     inkscape:window-width="1490"
     inkscape:window-height="782"
     inkscape:window-x="8"
     inkscape:window-y="269"
     inkscape:window-maximized="0" />
  <metadata
     id="metadata3876">
    <rdf:RDF>
      <cc:Work
         rdf:about="">
        <dc:format>image/svg+xml</dc:format>
        <dc:type
           rdf:resource="http://purl.org/dc/dcmitype/StillImage" />
        <dc:title></dc:title>
      </cc:Work>
    </rdf:RDF>
  </metadata>
  <g
     inkscape:label="Layer 1"
     inkscape:groupmode="layer"
     id="layer1"
     transform="translate(86.877566,-536.65017)">
    <path
       d="m -0.95595333,660.33789 c 0.80957,-34.59824 35.45914933,-65.42492 72.05169833,-61.88427 32.058955,4.38732 56.791315,27.70937 74.763765,51.76265 5.70746,10.81435 -8.98623,16.66411 -16.23188,21.78264 -1.1334,19.97385 -3.07636,39.9092 -4.77646,59.84456 21.65599,20.51263 51.24576,37.86947 82.98089,33.94398 25.21806,-3.27124 44.68826,-20.39718 60.9606,-37.63857 8.90524,-3.30972 13.8436,7.19675 7.40754,12.66165 -18.78203,21.3593 -45.82164,39.3704 -76.18049,38.94707 -32.82805,1.00061 -62.98452,-16.35623 -85.24768,-37.98494 -9.47197,-7.35069 -2.30727,-20.08929 -2.46919,-29.71061 -32.342313,-0.88516 -69.501549,-17.7417 -75.087581,-51.03143 -4.088328,-9.04403 13.76268,-14.47045 14.086508,-4.31035 3.7645,27.43998 35.297229,41.41013 61.689213,41.06376 0.80956,-11.73801 0.40478,-23.62994 3.64306,-35.06005 4.97886,-2.77095 9.87675,-5.77279 14.69369,-8.92858 -15.58422,-16.89503 -32.585184,-35.13703 -56.548446,-40.64042 -29.994548,-6.46552 -59.948627,19.08868 -61.203463,47.37533 -2.104875,29.4797 12.507851,56.80422 27.727759,81.55023 -0.404782,1.92427 -1.254829,5.77279 -1.700094,7.73554 -19.915416,3.1173 -35.1353223,18.16502 -47.7646047,32.13518 -20.3201963,23.47599 -20.6845093,60.15243 1.295305,82.78174 29.8326417,32.59701 80.1473947,36.44553 122.1640737,28.94091 8.41951,-2.73245 6.92181,7.35068 7.24564,12.0074 -29.18499,6.27309 -60.555812,6.88886 -89.497923,-1.07759 -4.978859,-1.73184 -9.957712,-3.57913 -14.815126,-5.50339 -31.654173,-12.70014 -57.438964,-42.87256 -56.143659,-76.62412 -0.364305,-36.02219 28.0111113,-65.9637 59.705761,-82.28145 -11.657796,-25.2848 -25.2990473,-51.33931 -22.74890633,-79.85687 z"
       id="path4268"
       inkscape:connector-curvature="0"
       style="fill:#000000;fill-opacity:1" />
    <path
       d="m 84.008378,651.1784 c 2.226313,0.0385 6.71943,0.11546 8.945743,0.11546 0.323828,2.15517 0.971484,6.46552 1.295313,8.62069 -2.631102,-0.0385 -7.974266,-0.077 -10.60536,-0.11546 0.08095,-2.15517 0.283343,-6.46551 0.364304,-8.62069 z"
       id="path4274"
       inkscape:connector-curvature="0"
       style="fill:#000000;fill-opacity:1" />
    <path
       d="m 290.52958,747.31453 c 4.77648,-4.23337 13.1555,0.19243 12.91261,6.42704 -7.28609,10.77587 -16.55566,20.51264 -27.20148,28.40211 -6.23367,4.77217 -17.28434,-3.96398 -10.76727,-9.85222 8.29809,-8.3513 16.83899,-16.54866 25.05614,-24.97693 z"
       id="path4290"
       inkscape:connector-curvature="0"
       style="fill:#000000;fill-opacity:1" />
    <path
       d="m 219.20651,825.05472 c 36.7949,-4.73368 67.72053,-28.97938 90.22654,-55.8036 8.21715,-3.69458 15.86758,6.35006 9.35051,12.46922 -25.42047,30.36485 -61.6082,53.80237 -102.32959,60.26789 10.9292,4.34883 27.56588,1.19305 34.73053,10.92981 l -2.06442,4.11792 c -22.66789,6.92734 -45.78113,12.73861 -68.77291,18.58837 5.74794,48.10656 4.25024,100.10015 -23.92278,142.20297 3.07636,3.0788 5.54555,7.0043 9.39101,9.4289 15.46277,3.9639 31.16842,7.2352 46.91455,10.3525 1.61915,4.4258 3.84546,11.1222 -2.18583,13.5853 -33.51619,18.3189 -65.61562,39.2934 -100.18424,55.6111 -10.28154,-9.5058 -20.279728,-19.281 -28.90165,-30.2109 -25.501439,7.5431 -51.610057,15.8944 -78.7306363,14.0856 -2.71206303,-8.4283 -2.14536003,-17.2414 -2.10488303,-25.9005 0.283351,-28.5176 -0.323828,-57.0351 0.364304,-85.5527 7.48851703,-1.77031 15.30086733,-2.15513 23.03225833,-2.23215 -7.164695,-25.32328 -8.176655,-51.91658 -5.788422,-77.89412 4.857414,1.92426 9.836267,3.77155 14.815126,5.50339 0.404782,14.93227 -0.971492,29.94152 1.011962,44.79682 7.812344,52.03206 39.426033,97.63706 75.775711,135.89136 3.56211,4.6952 9.06718,0.6542 12.91265,-1.347 21.4131,-11.9304 42.17857,-24.9384 64.15838,-35.9067 -10.64584,-2.8864 -21.37263,-5.3495 -31.85656,-8.5822 -24.40853,-26.8627 -43.6358,-59.03636 -50.19332,-94.21187 -2.18584,-7.69704 11.49589,-9.54433 14.36986,-3.6561 5.62651,22.16751 14.57225,43.60378 27.56585,62.84637 21.93933,-37.60006 23.11321,-82.12747 17.77005,-123.84548 -8.37905,2.00124 -17.1224,4.15642 -25.66336,1.57791 C 92.954121,872.8534 47.253916,862.50086 1.2298897,853.72623 1.1084527,841.0261 17.583195,839.60215 26.326547,833.29057 17.421281,833.02117 8.5564917,832.86723 -0.26782033,832.6748 -6.5015017,824.0926 5.3991717,821.66802 10.539938,818.20435 c 20.805938,-10.89132 41.530923,-21.85961 62.134463,-33.0973 4.209766,-2.23215 8.662399,-4.88763 13.803165,-4.27187 43.311984,0.65425 86.623954,1.61638 129.935924,1.96274 9.35054,0.50032 19.59159,-1.27 27.84917,4.04096 -5.82891,10.16011 -19.1868,12.00739 -28.73969,17.93412 10.52438,1.88577 24.00371,-3.15579 31.8161,5.84976 -7.89332,7.23522 -18.33676,10.39101 -28.13256,14.43196 z"
       id="path4292"
       inkscape:connector-curvature="0"
       style="fill:#000000;fill-opacity:1" />
    <path
       d="m 84.858425,790.91832 c 43.676295,-0.0385 87.433525,2.15517 131.150285,2.46305 -19.51063,9.00555 -38.85934,18.43443 -58.20805,27.78635 -4.61455,2.03971 -9.26958,4.77217 -14.4913,4.38731 -39.46652,-0.0385 -78.933045,-1.19304 -118.359087,-2.46305 19.26776,-11.81498 39.547479,-22.20599 59.908152,-32.17366 z"
       id="path4296"
       inkscape:connector-curvature="0"
       style="fill:#ffffff;fill-opacity:1" />
    <path
       d="m 193.13837,815.89523 c 7.8933,-1.0391 15.86756,-0.73122 23.84183,-1.38546 -15.13896,10.1601 -32.66614,16.31774 -48.77658,24.7845 -8.21713,3.38669 -15.82708,9.58282 -25.21809,8.81311 -37.96882,-1.15455 -75.978114,-1.61638 -113.946928,-2.65548 4.37168,-5.34945 10.807759,-8.69766 17.446228,-10.81435 34.811486,-1.15455 69.74443,2.65548 104.47497,0.80819 14.45081,-5.73431 27.60632,-14.12408 42.17857,-19.55051 z"
       id="path4302"
       inkscape:connector-curvature="0"
       style="fill:#ffffff;fill-opacity:1" />
    <path
       d="m 151.85032,858.03658 c 9.71484,-3.30973 18.17484,-9.27495 27.97063,-12.43074 14.53177,1.61638 28.65876,5.46491 43.02862,8.00493 -23.67991,6.96583 -47.56221,13.31589 -71.44452,19.62748 -28.29445,-2.15518 -55.455515,-13.08498 -83.952368,-14.58591 -0.971484,-0.96213 -2.95493,-2.96337 -3.926414,-3.92549 29.306423,1.84729 58.815242,4.11792 88.324052,3.30973 z"
       id="path4310"
       inkscape:connector-curvature="0"
       style="fill:#ffffff;fill-opacity:1" />
    <path
       d="m 16.125968,992.15762 c 3.319235,0.077 9.99818,0.23095 13.317416,0.30789 9.107664,25.59269 25.137141,48.10649 40.03322,70.73589 -15.503259,8.4667 -35.45915,10.237 -53.310159,12.8155 -0.08095,-27.9787 0,-55.919 -0.04051,-83.85928 z"
       id="path4352"
       inkscape:connector-curvature="0"
       style="fill:#ffffff;fill-opacity:1" />
  </g>
</svg>
