<svg width="140" height="140" xmlns="http://www.w3.org/2000/svg">

 <g>
  <title>background</title>
  <rect fill="none" id="canvas_background" height="142" width="142" y="-1" x="-1"/>
 </g>
 <g>
  <title>Layer 1</title>
  <line stroke="#40c0e7" stroke-linecap="undefined" stroke-linejoin="undefined" id="svg_4" y2="133.000001" x2="52.5" y1="7.000003" x1="10.499999" fill-opacity="null" stroke-opacity="null" stroke-width="17.5" fill="none"/>
  <g stroke="null" id="svg_11">
   <path stroke="null" id="svg_10" d="m128.702934,53.939236l-17.334741,0c-0.872719,0 -1.576525,0.754156 -1.576525,1.689309l0,37.511708c0,0.052791 -0.070381,5.248924 -0.25337,8.318338c-1.112013,7.496308 -4.989984,10.84476 -12.541822,10.84476c-7.551838,0 -11.422771,-3.34091 -12.520708,-10.686387c-0.204104,-3.227787 -0.267446,-8.42392 -0.267446,-8.454086l0,-37.534333c0,-0.935153 -0.710844,-1.689309 -1.576525,-1.689309l-17.341779,0c-0.865681,0 -1.576525,0.754156 -1.576525,1.689309l0,37.526791c0,0.24133 0.014076,5.897498 0.767148,12.639651c1.154242,7.737638 4.926642,14.804078 8.157111,18.378776c2.10438,2.315258 10.064425,9.886982 24.358724,9.886982c14.301337,0 22.254344,-7.571724 24.358724,-9.886982c3.230469,-3.567157 7.002869,-10.633596 8.164149,-18.439109c0.76011,-6.689362 0.767148,-12.34553 0.767148,-12.579318l0,-37.526791c-0.007038,-0.935153 -0.710844,-1.689309 -1.583563,-1.689309z" fill="#40C0E7"/>
  </g>
 </g>
</svg>