<svg width="128" height="128" xmlns="http://www.w3.org/2000/svg">
 <g>
  <title>background</title>
  <rect x="-1" y="-1" width="130" height="130" id="canvas_background" fill="none"/>
 </g>

 <g>
  <title>Layer 1</title>
  <g id="svg_2">
   <g id="svg_3">
    <g id="svg_4">
     <path fill="#FCC21B" d="m119.17,98.95c0,12.09 -24.69,21.9 -55.16,21.9c-30.47,0 -55.17,-9.81 -55.17,-21.9c0,-12.1 1.27,-73.24 55.17,-73.24c53.88,0.01 55.16,61.14 55.16,73.24" id="svg_5"/>
    </g>
   </g>
  </g>
  <g id="svg_6">
   <path fill="#2F2F2F" d="m46.39,71.71c4.17,0 7.57,-4.05 7.57,-9.05c0,-5.01 -3.4,-9.07 -7.57,-9.07c-4.17,0 -7.57,4.05 -7.57,9.07c0.01,5 3.4,9.05 7.57,9.05z" id="svg_7"/>
   <path fill="#2F2F2F" d="m81.6,71.71c4.18,0 7.56,-4.05 7.56,-9.05c0,-5.01 -3.38,-9.07 -7.56,-9.07c-4.17,0 -7.57,4.05 -7.57,9.07c0,5 3.4,9.05 7.57,9.05z" id="svg_8"/>
  </g>
  <path stroke="null" fill="#2F2F2F" d="m84.633246,87.215803c-0.814702,-0.368874 -1.814563,-0.240324 -2.570013,0.150899c-0.977642,0.508596 -2.59575,2.63403 -3.684488,3.416483c-3.399528,2.447962 -9.501895,4.801825 -14.287156,4.846608c-5.510501,-0.089553 -11.381656,-2.488214 -14.78859,-4.936176c-1.088738,-0.782453 -2.383032,-2.81832 -3.360674,-3.326916c-0.762857,-0.396816 -1.755312,-0.519774 -2.57742,-0.150899c-1.185021,0.536537 -0.77767,1.777281 -0.436976,2.637981c0.77767,1.95613 3.755034,4.935043 8.102578,7.114726c3.984632,1.995256 9.909734,2.699463 12.961162,2.699463l0,0c3.058834,0 8.983937,-0.709793 12.968569,-2.699463c4.347544,-2.179682 7.324908,-5.158596 8.102578,-7.114726c0.355506,-0.860699 0.755451,-2.107029 -0.42957,-2.637981z" id="svg_9"/>
 </g>
</svg>