<svg width="128" height="128" xmlns="http://www.w3.org/2000/svg">

 <g>
  <title>background</title>
  <rect fill="none" id="canvas_background" height="402" width="582" y="-1" x="-1"/>
 </g>
 <g>
  <title>Layer 1</title>
  <g id="svg_2">
   <g id="svg_3">
    <g id="svg_4">
     <path id="svg_5" d="m119.17,98.95c0,12.09 -24.69,21.9 -55.16,21.9c-30.47,0 -55.17,-9.81 -55.17,-21.9c0,-12.1 1.27,-73.24 55.17,-73.24c53.88,0.01 55.16,61.14 55.16,73.24" fill="#FCC21B"/>
    </g>
   </g>
  </g>
  <g id="svg_6">
   <path id="svg_7" d="m46.39,71.71c4.17,0 7.57,-4.05 7.57,-9.05c0,-5.01 -3.4,-9.07 -7.57,-9.07c-4.17,0 -7.57,4.05 -7.57,9.07c0.01,5 3.4,9.05 7.57,9.05z" fill="#2F2F2F"/>
   <path id="svg_8" d="m81.6,71.71c4.18,0 7.56,-4.05 7.56,-9.05c0,-5.01 -3.38,-9.07 -7.56,-9.07c-4.17,0 -7.57,4.05 -7.57,9.07c0,5 3.4,9.05 7.57,9.05z" fill="#2F2F2F"/>
  </g>
  <path stroke="null" id="svg_9" d="m86.562192,82.285502c-0.890866,-0.485358 -1.984202,-0.316218 -2.810277,0.198555c-1.069039,0.669205 -2.534919,2.11057 -3.72544,3.140117c-3.717341,3.22101 -9.580859,5.552197 -16.027489,5.552197l0,0c-6.430433,0 -12.293951,-2.331187 -16.01939,-5.552197c-1.190521,-1.029547 -2.6564,-2.470912 -3.72544,-3.140117c-0.834175,-0.522127 -1.919411,-0.683913 -2.818376,-0.198555c-1.295805,0.705975 -0.850372,2.338541 -0.477828,3.471043c0.850372,2.573866 4.106082,6.493497 8.860067,9.361519c4.357145,2.625344 10.83617,3.551935 14.172868,3.551935l0,0c3.344797,0 9.823822,-0.933946 14.180967,-3.551935c4.753985,-2.868022 8.009695,-6.787653 8.860067,-9.361519c0.388742,-1.132501 0.826076,-2.772422 -0.469729,-3.471043z" fill="#2F2F2F"/>
 </g>
</svg>