<svg width="64" height="64" xmlns="http://www.w3.org/2000/svg">
 <g>
  <title>background</title>
  <rect x="-1" y="-1" width="66" height="66" id="canvas_background" fill="none"/>
 </g>

 <g>
  <title>Layer 1</title>
  <path fill="#d0d0d0" d="m62,52c0,5.523 -4.478,10 -10,10l-40,0c-5.522,0 -10,-4.477 -10,-10l0,-40c0,-5.523 4.478,-10 10,-10l40,0c5.522,0 10,4.477 10,10l0,40" id="svg_1"/>
  <path fill="#fff" d="m57,45.666c0,4.604 -3.731,8.334 -8.333,8.334l-33.334,0c-4.602,0 -8.333,-3.73 -8.333,-8.334l0,-33.332c0,-4.604 3.731,-8.334 8.333,-8.334l33.334,0c4.602,0 8.333,3.73 8.333,8.334l0,33.332z" id="svg_2" stroke="null"/>
  <path stroke="null" fill="#9aa0a5" d="m38.745614,28.041926c1.519534,-1.600328 2.458545,-3.750867 2.458545,-6.123264c0,-4.919318 -4.01553,-8.918662 -8.951348,-8.918662l-4.275033,0l-5.8561,0c-0.331733,0 -0.599253,0.29581 -0.599253,0.662612l0,4.446021l0,7.930659l0,4.446021l0,8.596233l0,4.446021c0,0.366801 0.267519,0.662612 0.599253,0.662612l5.8561,0l5.545768,0c4.938491,0 8.954029,-4.002306 8.954029,-8.921624c0,-2.972885 -1.47673,-5.605596 -3.731961,-7.226629zm-6.907464,-2.765817l-3.261119,0l-0.481547,0c-0.056181,0 -0.096304,-0.041419 -0.117706,-0.097619c-0.008025,-0.017752 -0.021402,-0.035496 -0.021402,-0.056209l0,-6.00494c0,-0.020705 0.013377,-0.038448 0.021402,-0.056201c0.021402,-0.053248 0.061525,-0.097619 0.117706,-0.097619l0.481547,0l3.261119,0c1.500804,0 2.723392,1.413975 2.723392,3.153332c0,1.742319 -1.222588,3.159247 -2.723392,3.159247l0,0.000009zm0.227396,13.157617l-3.488515,0l-0.460145,0c-0.010697,0 -0.018721,-0.011838 -0.029427,-0.014791c-0.058853,-0.017752 -0.107009,-0.068038 -0.107009,-0.139038l0,-6.992943c0,-0.070991 0.048156,-0.121277 0.107009,-0.139029c0.010705,-0.002953 0.01873,-0.014791 0.029427,-0.014791l0.460145,0l3.485835,0c0.074911,0 0.149813,0.005914 0.222044,0.014791c1.562346,0.139029 2.798303,1.712738 2.798303,3.635505c0,1.916844 -1.230612,3.490553 -2.79027,3.635505c-0.072239,0.005914 -0.149813,0.014791 -0.227396,0.014791z" id="svg_4"/>
 </g>
</svg>