<svg width="64" height="64" xmlns="http://www.w3.org/2000/svg">

 <g>
  <title>background</title>
  <rect fill="none" id="canvas_background" height="66" width="66" y="-1" x="-1"/>
 </g>
 <g>
  <title>Layer 1</title>
  <path id="svg_1" d="m62,52c0,5.523 -4.478,10 -10,10l-40,0c-5.522,0 -10,-4.477 -10,-10l0,-40c0,-5.523 4.478,-10 10,-10l40,0c5.522,0 10,4.477 10,10l0,40" fill="#d0d0d0"/>
  <path id="svg_2" d="m57,47.165999c0,4.604 -3.731,8.334 -8.333,8.334l-33.334,0c-4.602,0 -8.333,-3.73 -8.333,-8.334l0,-33.332c0,-4.604 3.731,-8.334 8.333,-8.334l33.334,0c4.602,0 8.333,3.73 8.333,8.334l0,33.332z" fill="#fff"/>
  <path id="svg_4" d="m46.300529,45.046228l-3.419872,-7.331083c-0.048466,-0.105531 -0.139339,-0.181381 -0.245358,-0.207763c-0.106019,-0.026383 -0.215067,0.003298 -0.299882,0.07585c-1.914401,1.652214 -5.204021,2.898795 -7.654576,2.898795c-4.734508,0 -8.042303,-3.489108 -8.042303,-8.485325s3.307795,-8.485325 8.042303,-8.485325c2.562632,0 5.191905,0.897011 6.857919,2.344759c0.081786,0.072552 0.193863,0.098935 0.296853,0.079148c0.10299,-0.023085 0.193863,-0.095637 0.245358,-0.19787l3.792453,-7.522358c0.084815,-0.168189 0.045437,-0.379251 -0.093903,-0.497973c-2.868573,-2.473375 -6.50957,-3.677084 -11.132002,-3.677084c-9.844627,0 -16.987283,7.555336 -16.987283,17.96c0,10.407962 7.142656,17.96 16.987283,17.96c4.504296,0 8.39671,-1.490621 11.565165,-4.435586c0.127223,-0.118722 0.163572,-0.316592 0.087844,-0.478186z" fill="#9aa0a5"/>
 </g>
</svg>