<svg width="64" height="64" xmlns="http://www.w3.org/2000/svg">

 <g>
  <title>background</title>
  <rect fill="none" id="canvas_background" height="402" width="582" y="-1" x="-1"/>
 </g>
 <g>
  <title>Layer 1</title>
  <path id="svg_1" d="m62,52c0,5.523 -4.478,10 -10,10l-40,0c-5.522,0 -10,-4.477 -10,-10l0,-40c0,-5.523 4.478,-10 10,-10l40,0c5.522,0 10,4.477 10,10l0,40" fill="#d0d0d0"/>
  <path id="svg_2" d="m57,45.666c0,4.604 -3.731,8.334 -8.333,8.334l-33.334,0c-4.602,0 -8.333,-3.73 -8.333,-8.334l0,-33.332c0,-4.604 3.731,-8.334 8.333,-8.334l33.334,0c4.602,0 8.333,3.73 8.333,8.334l0,33.332z" fill="#fff"/>
  <path stroke="null" id="svg_4" d="m31.327702,15.279999l-2.589375,0l-3.784245,0l-6.426464,0c-0.366975,0 -0.657619,0.317147 -0.657619,0.71041l0,32.019182c0,0.393263 0.29358,0.71041 0.657619,0.71041l6.426464,0l3.781309,0l2.589375,0c8.851434,0 14.805234,-6.720349 14.805234,-16.723172c0,-9.999651 -5.950865,-16.716829 -14.802298,-16.716829zm-0.378718,25.625494c-0.082202,0 -0.158533,-0.0222 -0.231928,-0.050744c-0.017615,0.003171 -0.032294,0.009514 -0.049909,0.009514c-0.023486,0.003171 -0.041101,0.012686 -0.064588,0.012686l-1.209549,0l-0.657619,0l-0.657619,0l-1.790837,0c-0.352296,0 -0.634133,-0.307633 -0.634133,-0.685038l0,-16.386996c0,-0.377405 0.281837,-0.685038 0.634133,-0.685038l1.790837,0l0.657619,0l0.657619,0l1.209549,0c0.023486,0 0.041101,0.009514 0.064588,0.012686c0.014679,0 0.032294,0.006343 0.049909,0.009514c0.073395,-0.028543 0.149726,-0.050744 0.231928,-0.050744c0.126239,0 0.252479,0.012686 0.378718,0.019029c0.220185,0.009514 0.44037,0.028543 0.657619,0.057086c3.848832,0.51695 6.367748,3.929454 6.367748,8.829378c0,4.899924 -2.521851,8.312428 -6.367748,8.829378c-0.217249,0.028543 -0.437434,0.047572 -0.657619,0.057086c-0.126239,0.009514 -0.252479,0.0222 -0.378718,0.0222z" fill="#9aa0a5"/>
 </g>
</svg>