<svg width="64" height="64" xmlns="http://www.w3.org/2000/svg">

 <g>
  <title>background</title>
  <rect fill="none" id="canvas_background" height="402" width="582" y="-1" x="-1"/>
 </g>
 <g>
  <title>Layer 1</title>
  <path id="svg_1" d="m62,52c0,5.523 -4.478,10 -10,10l-40,0c-5.522,0 -10,-4.477 -10,-10l0,-40c0,-5.523 4.478,-10 10,-10l40,0c5.522,0 10,4.477 10,10l0,40" fill="#d0d0d0"/>
  <path id="svg_2" d="m57,45.666c0,4.604 -3.731,8.334 -8.333,8.334l-33.334,0c-4.602,0 -8.333,-3.73 -8.333,-8.334l0,-33.332c0,-4.604 3.731,-8.334 8.333,-8.334l33.334,0c4.602,0 8.333,3.73 8.333,8.334l0,33.332z" fill="#fff"/>
  <path id="svg_4" d="m40.790895,17.274999l-11.776007,0l-1.535655,0l-4.270129,0c-0.326227,0 -0.594105,0.279279 -0.594105,0.625586l0,28.19883c0,0.346306 0.267878,0.625586 0.594105,0.625586l5.805784,0c0.328879,0 0.594105,-0.279279 0.594105,-0.625586l0,-12.288289l9.312063,0c0.328879,0 0.594105,-0.279279 0.594105,-0.625586l0,-4.66955c0,-0.346306 -0.265225,-0.625586 -0.594105,-0.625586l-9.312063,0l0,-4.691892l11.181902,0c0.328879,0 0.594105,-0.279279 0.594105,-0.625586l0,-4.672343c0,-0.346306 -0.265225,-0.625586 -0.594105,-0.625586z" fill="#9aa0a5"/>
 </g>
</svg>