<svg width="64" height="64" xmlns="http://www.w3.org/2000/svg">
 <g>
  <title>background</title>
  <rect x="-1" y="-1" width="66" height="66" id="canvas_background" fill="none"/>
 </g>

 <g>
  <title>Layer 1</title>
  <path fill="#d0d0d0" d="m62,52c0,5.523 -4.478,10 -10,10l-40,0c-5.522,0 -10,-4.477 -10,-10l0,-40c0,-5.523 4.478,-10 10,-10l40,0c5.522,0 10,4.477 10,10l0,40" id="svg_1"/>
  <path fill="#fff" d="m56.875,45.666c0,4.604 -3.731,8.334 -8.333,8.334l-33.334,0c-4.602,0 -8.333,-3.73 -8.333,-8.334l0,-33.332c0,-4.604 3.731,-8.334 8.333,-8.334l33.334,0c4.602,0 8.333,3.73 8.333,8.334l0,33.332z" id="svg_2"/>
  <path stroke="null" fill="#9aa0a5" d="m41.31778,12.875l-12.48181,0l-1.6277,0l-4.52606,0c-0.34577,0 -0.62971,0.30299 -0.62971,0.67869l0,30.59261c0,0.3757 0.28394,0.67869 0.62971,0.67869l6.15376,0c0.34859,0 0.62971,-0.30299 0.62971,-0.67869l0,-13.33143l9.8702,0c0.34859,0 0.6297,-0.30299 0.6297,-0.6787l0,-5.06594c0,-0.37571 -0.28111,-0.6787 -0.6297,-0.6787l-9.8702,0l0,-5.09018l11.8521,0c0.34859,0 0.62972,-0.30299 0.62972,-0.67868l0,-5.06898c0,-0.3757 -0.28113,-0.67869 -0.62972,-0.67869z" id="svg_4"/>
 </g>
</svg>