<svg width="140" height="140" xmlns="http://www.w3.org/2000/svg">
 <metadata id="metadataHiragana">image/svg+xml</metadata>
 <!-- arrow ends -->

 <style type="text/css">path.stroke /* arrow lines */
		{
			fill: none; fill-opacity: 0.75; fill-rule: evenodd;
			stroke: blue; stroke-width: 1px; stroke-linecap: butt; stroke-linejoin: miter; stroke-opacity:1;
			marker-end: url(#Arrow1Mend);
		}
		path.arrow /* heads */
		{
			font-size: 12px;
			fill-rule: evenodd;
			fill: blue;
			stroke: blue; stroke-width: 1pt;/*0.625*/ stroke-linejoin: round;
			marker-start: none;
		}
		text.number
		{
			font-size: 8px;
			fill: blue;
		}
		text.label
		{
			font-size: 22px;
		}
		text.cell
		{
			font-style: italic;
			text-transform: lowercase;
			fill: gray;
/*			display: none;*/
		}
/*		path.old
		{
			fill: gray;
		}
*/		path.rule
		{
			fill: none; fill-opacity: 0.75; fill-rule: evenodd;
			stroke: black; stroke-width: 1px; stroke-linecap: butt; stroke-linejoin: miter; stroke-opacity: 0.1;
		}
		path.rule[id*="V"]
		{
			stroke-opacity: 0;
		}
		path#ruleH1, path#ruleV12
		{
			stroke-opacity: 0.8;
		}
		defs marker
		{
			overflow: visible;
		}</style>
 <!-- table rules -->
 <!-- glyphs -->
 <!-- -A -->
 <!-- -I -->
 <!-- -U -->
 <!-- -E -->
 <!-- -O -->
 <!-- column headers -->
 <!-- row headers -->
 <g>
  <title>background</title>
  <rect fill="none" id="canvas_background" height="142" width="142" y="-1" x="-1"/>
 </g>
 <g>
  <title>Layer 1</title>
  <path stroke="null" id="path2195" d="m49.24005,19.123163c-0.55446,0.175503 -0.720806,0.818919 -0.44354,1.871649c0.591339,0.857939 0.591316,5.225095 -0.073923,13.101543c-6.357429,0.234031 -13.380168,0.156073 -20.994223,-0.155971l-0.44354,0.233956c0.221746,3.11949 0.369569,6.550819 0.44354,10.29407c7.318385,-0.311892 14.119283,-0.623808 20.328913,-1.01381c-0.295717,5.770993 -0.443611,12.321737 -0.369617,19.7303c-4.361523,2.027645 -8.205559,4.60119 -11.605961,7.720552c-3.400496,3.119465 -6.209606,6.940723 -8.353335,11.46385c-2.069877,4.445191 -2.95698,9.35827 -2.735163,14.739236c0.22177,5.303031 1.478419,9.514216 3.770089,12.555646c2.365523,2.963444 5.470278,4.679123 9.388262,5.22502c3.917889,0.623883 7.614031,0.077985 11.014575,-1.715678c3.400425,-1.715678 5.987694,-3.275386 7.761949,-4.601137l1.404543,3.743298c4.878892,-2.807474 8.427164,-4.523152 10.571035,-5.22502l0.073923,-1.325751c-1.108921,-2.105605 -2.143871,-4.133225 -3.104779,-6.160845c4.139635,-5.14701 7.466161,-10.37203 9.979648,-15.675061c2.513322,-5.380966 4.804897,-11.151859 6.800945,-17.312753c2.587245,0.389977 5.618054,1.247816 9.092568,2.573517c3.548248,1.325801 6.505134,3.821333 8.944722,7.486596c2.439375,3.665338 3.548201,7.408633 3.326549,11.30788c-0.221865,3.899269 -1.626431,7.408636 -4.213629,10.528026c-2.587411,3.11944 -6.135754,5.614947 -10.718881,7.408611c-4.509393,1.793664 -9.16661,3.04143 -13.971507,3.743298l0,1.247766c2.365475,3.431332 3.991765,6.784728 4.952862,9.982128c5.396331,-1.247766 10.718763,-3.1974 15.893514,-5.848903c5.248461,-2.651503 9.757736,-6.628732 13.527967,-11.853777c3.843918,-5.302981 5.691954,-10.605986 5.544249,-15.909017c-0.147941,-5.380941 -1.848225,-10.450015 -5.100709,-15.285134c-3.252721,-4.835043 -7.466374,-8.188415 -12.566964,-10.060114c-5.100804,-1.949584 -9.092687,-3.275338 -12.049501,-3.899269l1.404543,-4.991064l1.77416,-1.637693c0.886985,-0.93575 0.739115,-1.637616 -0.44354,-2.02762l-10.275341,-2.183591c-1.330691,-0.155896 -1.922101,0.467987 -1.77416,1.871649c0.443469,0.390002 0.073805,3.041477 -1.10885,8.032494c-7.096686,0.389977 -13.084499,1.325801 -17.889443,2.729488c-0.000047,-4.523102 0.221699,-10.216009 0.66531,-17.078797c1.995882,-0.233881 5.913795,-0.623808 11.753808,-1.169781c5.913795,-0.623808 13.158256,-1.715603 21.733456,-3.275386l-2.735163,-9.748172c-8.796946,2.261651 -18.850541,3.977329 -30.086791,5.069049c0.295646,-3.11934 0.591316,-6.472684 0.88708,-9.982128l1.478466,-1.481722c0.813109,-0.857739 0.591316,-1.48162 -0.591387,-1.793664l-10.201418,-1.247766c-0.277218,-0.038968 -0.48049,-0.0585 -0.66531,0zm23.285846,46.791226c-1.552461,5.069099 -3.178797,9.592226 -4.952862,13.647441c-1.774207,3.977279 -3.696237,7.408633 -5.692096,10.29407c-0.813204,-2.417522 -1.626408,-5.224995 -2.513393,-8.500406c-0.887127,-3.353346 -1.552484,-7.486546 -1.99593,-12.399675c5.987742,-1.793614 11.01448,-2.807424 15.154281,-3.04143zm-24.172926,7.018684c0.369569,4.055265 0.960932,8.110504 1.700236,12.165719c0.813133,4.055265 1.995859,8.656402 3.622243,13.803412c-1.330667,1.169806 -3.030927,2.417572 -5.100709,3.821283c-2.0699,1.325776 -4.43547,2.105605 -7.096639,2.261576c-2.661263,0.155971 -4.509393,-0.545898 -5.618172,-2.105605c-1.03495,-1.559708 -1.552461,-4.055215 -1.55239,-7.486596c0.0739,-3.509317 0.813086,-6.862688 2.2177,-10.060114c1.478443,-3.275361 3.400425,-5.926864 5.839942,-7.954508c2.513346,-2.105555 4.509252,-3.587277 5.987789,-4.445166z"/>
 </g>
</svg>