<?xml version="1.0" encoding="UTF-8" standalone="no"?><!DOCTYPE svg PUBLIC "-//W3C//DTD SVG 1.1//EN" "http://www.w3.org/Graphics/SVG/1.1/DTD/svg11.dtd"><svg width="100%" height="100%" viewBox="0 0 318 189" version="1.1" xmlns="http://www.w3.org/2000/svg" xmlns:xlink="http://www.w3.org/1999/xlink" xml:space="preserve" style="fill-rule:evenodd;clip-rule:evenodd;stroke-linejoin:round;stroke-miterlimit:1.41421;"><path d="M219.223,117.519l0,-6.23l3.151,-3.043c3.369,-3.296 5.289,-4.818 5.289,-6.701c0,-1.304 -0.616,-1.449 -2.825,-1.449c-2.319,0 -5.18,0.543 -5.18,0.543l-0.363,-6.194c0,0 3.768,-1.34 7.861,-1.34c5.433,0 8.802,2.463 8.802,7.244c0,4.166 -1.195,6.194 -5.144,8.947l-2.427,1.703l7.426,0l0,6.52l-16.59,0Z" style="fill:#4e87a0;fill-rule:nonzero;"/><path d="M246.365,105.681c0,4.854 0.254,5.615 1.232,5.615c0.978,0 1.231,-0.761 1.231,-5.615c0,-4.854 -0.217,-5.578 -1.231,-5.578c-1.015,0 -1.232,0.724 -1.232,5.578m10.686,0c0,8.549 -2.21,12.424 -9.454,12.424c-7.245,0 -9.455,-3.875 -9.455,-12.424c0,-8.549 2.391,-12.388 9.455,-12.388c7.28,0 9.454,3.839 9.454,12.388" style="fill:#4e87a0;fill-rule:nonzero;"/><path d="M266.549,93.648l6.919,0l0,23.871l-8.223,0l0,-15.069l-4.999,1.992l-2.173,-5.868l8.476,-4.926Z" style="fill:#4e87a0;fill-rule:nonzero;"/><path d="M285.24,100.553c0,1.123 0.688,1.811 0.688,1.811l0.978,0c0,0 0.689,-0.724 0.689,-1.811c0,-1.05 -0.29,-1.63 -1.232,-1.63c-0.942,0 -1.123,0.616 -1.123,1.63m2.608,9.418c0,-1.304 -0.942,-2.137 -0.942,-2.137l-0.978,0c0,0 -0.978,0.797 -0.978,2.137c0,1.123 0.471,1.594 1.449,1.594c0.978,0 1.449,-0.362 1.449,-1.594m7.679,-10.613c0,3.042 -0.543,4.419 -2.753,5.723c2.5,1.231 3.116,2.427 3.116,5.796c0,5.397 -4.42,6.809 -9.491,6.809c-5.071,0 -9.49,-1.412 -9.49,-6.882c0,-3.296 0.905,-4.419 3.151,-5.759c-2.101,-1.268 -2.717,-2.608 -2.717,-5.724c0,-4.89 3.912,-6.447 9.056,-6.447c5.144,0 9.128,1.231 9.128,6.484" style="fill:#4e87a0;fill-rule:nonzero;"/><path d="M0.178,33.558l0,83.245l33.558,-33.558l0,-83.245l-33.558,33.558Z" style="fill:#5bc2e7;fill-rule:nonzero;"/><path d="M33.736,83.245l-33.558,33.558l83.245,0l33.558,-33.558l-83.245,0Z" style="fill:#4e87a0;fill-rule:nonzero;"/><path d="M151.084,0l-35.134,35.133l-23.729,23.73l47.458,0l58.863,-58.863l-47.458,0Z" style="fill:#5bc2e7;fill-rule:nonzero;"/><path d="M151.084,117.726l-58.863,-58.863l47.458,0l58.863,58.863l-47.458,0Z" style="fill:#4e87a0;fill-rule:nonzero;"/><path d="M257.556,0.4l0,0.155l-0.155,-0.155l0,47.458l0.155,-0.154l0,0.154l58.863,58.863l0,-47.458l-58.863,-58.863Z" style="fill:#5bc2e7;fill-rule:nonzero;"/><path d="M198.693,59.263l58.863,-58.863l0,47.458l-58.863,58.863l0,-47.458Z" style="fill:#4e87a0;fill-rule:nonzero;"/><path d="M0,160.18l0,-34.069l11.797,0l0,24.458l11.085,0l0,9.611l-22.882,0Z" style="fill:#5bc2e7;fill-rule:nonzero;"/><rect x="24.866" y="126.11" width="11.797" height="34.069" style="fill:#5bc2e7;fill-rule:nonzero;"/><path d="M39.713,126.11l11.594,0l7.831,12.916l0.712,0l0,-12.916l11.797,0l0,34.069l-11.645,0l-7.729,-13.882l-0.763,0l0,13.882l-11.797,0l0,-34.069Z" style="fill:#5bc2e7;fill-rule:nonzero;"/><path d="M86.291,148.433c0,1.932 0.864,2.695 3.204,2.695c2.339,0 3.152,-0.763 3.152,-2.695l0,-22.323l11.797,0l0,21.662c0,9.916 -5.034,13.068 -14.949,13.068c-9.916,0 -15.001,-2.949 -15.001,-12.865l0,-21.865l11.797,0l0,22.323Z" style="fill:#5bc2e7;fill-rule:nonzero;"/><path d="M120.461,135.467l3.966,-9.356l11.594,0l-7.373,16.221l6.915,17.848l-12.102,0l-3,-9.051l-3.102,9.051l-12,0l7.271,-16.323l-7.271,-17.746l12,0l3.102,9.356Z" style="fill:#5bc2e7;fill-rule:nonzero;"/><path d="M160.378,159.519c0,0 -5.39,1.322 -10.933,1.322c-11.187,0 -14.543,-3.966 -14.543,-17.797c0,-13.425 3.255,-17.594 15.052,-17.594c3.813,0 10.424,1.372 10.424,1.372l-0.305,9.103c0,0 -4.17,-0.509 -7.78,-0.509c-4.526,0 -5.492,0.915 -5.492,7.628c0,6.864 1.017,7.83 5.492,7.83c3.61,0 7.932,-0.305 7.932,-0.305l0.153,8.95Z" style="fill:#4e87a0;fill-rule:nonzero;"/><path d="M181.989,143.145c0,-5.238 -0.407,-8.136 -4.322,-8.136c-3.763,0 -4.322,2.898 -4.322,8.136c0,5.237 0.559,8.136 4.322,8.136c3.864,0 4.322,-2.949 4.322,-8.136m-20.543,0c0,-12.407 4.881,-17.696 16.221,-17.696c11.339,0 16.221,5.289 16.221,17.696c0,12.407 -4.882,17.696 -16.221,17.696c-11.187,0 -16.221,-5.289 -16.221,-17.696" style="fill:#4e87a0;fill-rule:nonzero;"/><path d="M196.226,126.11l11.594,0l7.831,12.916l0.712,0l0,-12.916l11.797,0l0,34.069l-11.645,0l-7.729,-13.882l-0.763,0l0,13.882l-11.797,0l0,-34.069Z" style="fill:#4e87a0;fill-rule:nonzero;"/><path d="M231.21,126.11l24.56,0l0,9.611l-12.763,0l0,5.491l9.712,0l0,9.611l-9.712,0l0,9.356l-11.797,0l0,-34.069Z" style="fill:#4e87a0;fill-rule:nonzero;"/><path d="M267.059,147.264l5.034,0l-1.83,-11.899l-1.272,0l-1.932,11.899Zm-6.407,-21.154l17.848,0l7.679,34.07l-11.899,0l-0.966,-3.916l-7.78,0l-0.814,3.916l-11.594,0l7.526,-34.07Z" style="fill:#5bc2e7;fill-rule:nonzero;"/><path d="M298.23,148.433c0,1.932 0.864,2.695 3.204,2.695c2.339,0 3.152,-0.763 3.152,-2.695l0,-22.323l11.797,0l0,21.662c0,9.916 -5.034,13.068 -14.949,13.068c-9.916,0 -15.001,-2.949 -15.001,-12.865l0,-21.865l11.797,0l0,22.323Z" style="fill:#5bc2e7;fill-rule:nonzero;"/><path d="M8.501,182.945c0,5.272 -3.139,5.627 -8.263,5.627l0,-5.657c1.274,0 1.392,-0.088 1.392,-4.264l0,-10.307l6.871,0l0,14.601Z" style="fill:#4e87a0;fill-rule:nonzero;"/><path d="M16.942,180.665l2.932,0l-1.066,-6.93l-0.741,0l-1.125,6.93Zm-3.732,-12.32l10.395,0l4.472,19.842l-6.93,0l-0.562,-2.28l-4.531,0l-0.474,2.28l-6.753,0l4.383,-19.842Z" style="fill:#4e87a0;fill-rule:nonzero;"/><path d="M28.788,168.345l6.752,0l4.561,7.522l0.415,0l0,-7.522l6.871,0l0,19.842l-6.782,0l-4.502,-8.085l-0.444,0l0,8.085l-6.871,0l0,-19.842Z" style="fill:#4e87a0;fill-rule:nonzero;"/><path d="M55.916,181.346c0,1.125 0.503,1.57 1.866,1.57c1.362,0 1.836,-0.445 1.836,-1.57l0,-13.001l6.871,0l0,12.616c0,5.775 -2.932,7.611 -8.707,7.611c-5.775,0 -8.737,-1.717 -8.737,-7.493l0,-12.734l6.871,0l0,13.001Z" style="fill:#4e87a0;fill-rule:nonzero;"/><path d="M74.752,180.665l2.932,0l-1.066,-6.93l-0.741,0l-1.125,6.93Zm-3.732,-12.32l10.395,0l4.472,19.842l-6.93,0l-0.562,-2.28l-4.531,0l-0.474,2.28l-6.753,0l4.383,-19.842Z" style="fill:#4e87a0;fill-rule:nonzero;"/><path d="M94.95,173.764l-1.51,0l0,3.88l1.688,0c0.977,0 1.451,-0.741 1.451,-1.985c0,-1.243 -0.504,-1.895 -1.629,-1.895m0.178,9.299l-1.659,0l0,5.124l-6.871,0l0,-19.843l8.352,0c5.775,0 8.559,1.363 8.559,7.315c0,2.784 -0.77,4.621 -2.192,5.775l1.955,6.753l-6.989,0l-1.126,-5.124l-0.029,0Z" style="fill:#4e87a0;fill-rule:nonzero;"/><path d="M115.326,188.187l-6.871,0l0,-6.219l-5.656,-13.623l7.285,0l1.866,5.834l1.925,-5.834l7.256,0l-5.805,13.623l0,6.219Z" style="fill:#4e87a0;fill-rule:nonzero;"/><path d="M128.297,188.187l0,-5.094l2.577,-2.488c2.754,-2.695 4.323,-3.939 4.323,-5.478c0,-1.067 -0.503,-1.185 -2.31,-1.185c-1.895,0 -4.235,0.444 -4.235,0.444l-0.296,-5.064c0,0 3.08,-1.096 6.427,-1.096c4.442,0 7.196,2.014 7.196,5.923c0,3.406 -0.977,5.064 -4.205,7.315l-1.984,1.392l6.071,0l0,5.331l-13.564,0Z" style="fill:#4e87a0;fill-rule:nonzero;"/><path d="M144.586,188.187l0,-5.094l2.577,-2.488c2.754,-2.695 4.323,-3.939 4.323,-5.478c0,-1.067 -0.503,-1.185 -2.31,-1.185c-1.895,0 -4.235,0.444 -4.235,0.444l-0.296,-5.064c0,0 3.08,-1.096 6.427,-1.096c4.442,0 7.196,2.014 7.196,5.923c0,3.406 -0.977,5.064 -4.205,7.315l-1.984,1.392l6.071,0l0,5.331l-13.564,0Z" style="fill:#4e87a0;fill-rule:nonzero;"/><rect x="160.46" y="178.058" width="8.825" height="5.36" style="fill:#4e87a0;fill-rule:nonzero;"/><path d="M171.417,188.187l0,-5.094l2.577,-2.488c2.754,-2.695 4.323,-3.939 4.323,-5.478c0,-1.067 -0.503,-1.185 -2.31,-1.185c-1.895,0 -4.235,0.444 -4.235,0.444l-0.296,-5.064c0,0 3.08,-1.096 6.427,-1.096c4.442,0 7.196,2.014 7.196,5.923c0,3.406 -0.977,5.064 -4.205,7.315l-1.984,1.392l6.071,0l0,5.331l-13.564,0Z" style="fill:#4e87a0;fill-rule:nonzero;"/><path d="M193.214,180.783c0,1.688 0.237,2.517 1.629,2.517c1.036,0 1.392,-0.592 1.392,-1.451c0,-1.036 -0.474,-1.421 -1.333,-1.421c-1.036,0 -1.688,0.355 -1.688,0.355m8.085,-6.575c0,0 -3.317,-0.503 -5.805,-0.503c-1.599,0 -2.132,0.74 -2.25,2.014c0,0.029 1.036,-0.533 2.458,-0.533c4.501,0 6.574,2.043 6.574,6.722c0,4.62 -2.991,6.664 -7.433,6.664c-5.509,0 -7.937,-3.406 -7.937,-9.951c0,-8.203 3.643,-10.336 8.292,-10.336c2.488,0 6.575,1.007 6.575,1.007l-0.474,4.916Z" style="fill:#4e87a0;fill-rule:nonzero;"/><path d="M225.081,174.061c0,0 -4.176,-0.444 -7.078,-0.444c-1.214,0 -1.511,0.118 -1.511,0.533c0,0.414 0.208,0.562 2.103,0.977c5.657,1.274 7.315,2.014 7.315,6.664c0,5.064 -2.784,6.811 -7.848,6.811c-4.235,0 -8.352,-1.066 -8.352,-1.066l0.297,-5.242c0,0 4.531,0.652 7.433,0.652c1.185,0 1.54,-0.208 1.54,-0.682c0,-0.414 -0.207,-0.473 -2.28,-0.799c-5.568,-0.859 -7.138,-2.399 -7.138,-6.545c0,-5.657 2.932,-6.96 7.849,-6.96c3.168,0 7.848,0.77 7.848,0.77l-0.178,5.331Z" style="fill:#5bc2e7;fill-rule:nonzero;"/><path d="M238.082,188.187l-6.871,0l0,-6.219l-5.656,-13.623l7.285,0l1.866,5.834l1.925,-5.834l7.256,0l-5.805,13.623l0,6.219Z" style="fill:#5bc2e7;fill-rule:nonzero;"/><path d="M252.387,173.942l-1.214,0l0,8.648l1.214,0c2.814,0 2.991,-1.718 2.991,-4.62c0,-2.755 -0.326,-4.028 -2.991,-4.028m-8.085,14.245l0,-19.842l8.381,0c6.901,0 9.625,3.02 9.625,9.625c0,6.604 -2.428,10.217 -9.329,10.217l-8.677,0Z" style="fill:#5bc2e7;fill-rule:nonzero;"/><path d="M263.67,168.345l6.752,0l4.561,7.522l0.415,0l0,-7.522l6.871,0l0,19.842l-6.782,0l-4.502,-8.085l-0.444,0l0,8.085l-6.871,0l0,-19.842Z" style="fill:#5bc2e7;fill-rule:nonzero;"/><path d="M284.046,168.345l14.867,0l0,5.479l-7.996,0l0,1.688l6.219,0l0,5.42l-6.219,0l0,1.777l7.996,0l0,5.478l-14.867,0l0,-19.842Z" style="fill:#5bc2e7;fill-rule:nonzero;"/><path d="M311.559,188.187l-6.871,0l0,-6.219l-5.656,-13.623l7.285,0l1.866,5.834l1.925,-5.834l7.256,0l-5.805,13.623l0,6.219Z" style="fill:#5bc2e7;fill-rule:nonzero;"/></svg>