<?xml version="1.0" encoding="UTF-8" standalone="no"?>
<!-- Created with Inkscape (http://www.inkscape.org/) -->

<svg
   xmlns:dc="http://purl.org/dc/elements/1.1/"
   xmlns:cc="http://creativecommons.org/ns#"
   xmlns:rdf="http://www.w3.org/1999/02/22-rdf-syntax-ns#"
   xmlns:svg="http://www.w3.org/2000/svg"
   xmlns="http://www.w3.org/2000/svg"
   xmlns:sodipodi="http://sodipodi.sourceforge.net/DTD/sodipodi-0.dtd"
   xmlns:inkscape="http://www.inkscape.org/namespaces/inkscape"
   width="864"
   height="534.57147"
   id="svg2"
   version="1.1"
   inkscape:version="0.48.4 r9939"
   sodipodi:docname="ReadHorizonGraph.svg">
  <defs
     id="defs4">
    <clipPath
       clipPathUnits="userSpaceOnUse"
       id="clipPath3045">
      <rect
         style="fill:#90ee90;fill-opacity:1;stroke:none"
         id="rect3047"
         width="213.57143"
         height="43.57143"
         x="322.14285"
         y="386.64789" />
    </clipPath>
    <clipPath
       clipPathUnits="userSpaceOnUse"
       id="clipPath3073">
      <rect
         style="fill:#90ee90;fill-opacity:1;stroke:none"
         id="rect3075"
         width="190.91884"
         height="34.092648"
         x="298.24753"
         y="545.01306" />
    </clipPath>
    <clipPath
       clipPathUnits="userSpaceOnUse"
       id="clipPath3095">
      <rect
         style="fill:#90ee90;fill-opacity:1;stroke:none"
         id="rect3097"
         width="218.4455"
         height="34.092648"
         x="316.24207"
         y="388.28671" />
    </clipPath>
    <clipPath
       clipPathUnits="userSpaceOnUse"
       id="clipPath3099">
      <rect
         style="fill:#90ee90;fill-opacity:1;stroke:none"
         id="rect3101"
         width="330.20456"
         height="34.092648"
         x="248.245"
         y="498.16724" />
    </clipPath>
    <clipPath
       clipPathUnits="userSpaceOnUse"
       id="clipPath3073-9">
      <rect
         style="fill:#90ee90;fill-opacity:1;stroke:none"
         id="rect3075-0"
         width="190.91884"
         height="34.092648"
         x="298.24753"
         y="545.01306" />
    </clipPath>
    <clipPath
       clipPathUnits="userSpaceOnUse"
       id="clipPath3095-6">
      <rect
         style="fill:#90ee90;fill-opacity:1;stroke:none"
         id="rect3097-7"
         width="218.4455"
         height="34.092648"
         x="316.24207"
         y="388.28671" />
    </clipPath>
    <clipPath
       clipPathUnits="userSpaceOnUse"
       id="clipPath3099-2">
      <rect
         style="fill:#90ee90;fill-opacity:1;stroke:none"
         id="rect3101-1"
         width="330.20456"
         height="34.092648"
         x="248.245"
         y="498.16724" />
    </clipPath>
    <clipPath
       clipPathUnits="userSpaceOnUse"
       id="clipPath3073-0">
      <rect
         style="fill:#90ee90;fill-opacity:1;stroke:none"
         id="rect3075-6"
         width="190.91884"
         height="34.092648"
         x="298.24753"
         y="545.01306" />
    </clipPath>
    <clipPath
       clipPathUnits="userSpaceOnUse"
       id="clipPath3095-1">
      <rect
         style="fill:#90ee90;fill-opacity:1;stroke:none"
         id="rect3097-3"
         width="218.4455"
         height="34.092648"
         x="316.24207"
         y="388.28671" />
    </clipPath>
    <clipPath
       clipPathUnits="userSpaceOnUse"
       id="clipPath3099-0">
      <rect
         style="fill:#90ee90;fill-opacity:1;stroke:none"
         id="rect3101-4"
         width="330.20456"
         height="34.092648"
         x="248.245"
         y="498.16724" />
    </clipPath>
    <clipPath
       clipPathUnits="userSpaceOnUse"
       id="clipPath3073-0-0">
      <rect
         style="fill:#90ee90;fill-opacity:1;stroke:none"
         id="rect3075-6-6"
         width="190.91884"
         height="34.092648"
         x="298.24753"
         y="545.01306" />
    </clipPath>
    <clipPath
       clipPathUnits="userSpaceOnUse"
       id="clipPath3095-1-6">
      <rect
         style="fill:#90ee90;fill-opacity:1;stroke:none"
         id="rect3097-3-8"
         width="218.4455"
         height="34.092648"
         x="316.24207"
         y="388.28671" />
    </clipPath>
    <clipPath
       clipPathUnits="userSpaceOnUse"
       id="clipPath3099-0-9">
      <rect
         style="fill:#90ee90;fill-opacity:1;stroke:none"
         id="rect3101-4-2"
         width="330.20456"
         height="34.092648"
         x="248.245"
         y="498.16724" />
    </clipPath>
  </defs>
  <sodipodi:namedview
     id="base"
     pagecolor="#ffffff"
     bordercolor="#666666"
     borderopacity="1.0"
     inkscape:pageopacity="0.0"
     inkscape:pageshadow="2"
     inkscape:zoom="0.98994949"
     inkscape:cx="394.94568"
     inkscape:cy="203.05627"
     inkscape:document-units="px"
     inkscape:current-layer="layer1"
     showgrid="false"
     inkscape:window-width="1396"
     inkscape:window-height="848"
     inkscape:window-x="2346"
     inkscape:window-y="213"
     inkscape:window-maximized="0"
     fit-margin-top="0"
     fit-margin-left="0"
     fit-margin-right="0"
     fit-margin-bottom="0"
     inkscape:snap-grids="true"
     inkscape:snap-page="true" />
  <metadata
     id="metadata7">
    <rdf:RDF>
      <cc:Work
         rdf:about="">
        <dc:format>image/svg+xml</dc:format>
        <dc:type
           rdf:resource="http://purl.org/dc/dcmitype/StillImage" />
        <dc:title />
      </cc:Work>
    </rdf:RDF>
  </metadata>
  <g
     inkscape:groupmode="layer"
     id="layer2"
     inkscape:label="Background"
     transform="translate(-5.7143526,-10.285716)">
    <rect
       style="fill:#000000;fill-opacity:1;stroke:none"
       id="rect4129"
       width="864"
       height="534.57147"
       x="5.7143526"
       y="10.285716" />
  </g>
  <g
     inkscape:label="Layer 1"
     inkscape:groupmode="layer"
     id="layer1"
     transform="translate(-5.7143526,-346.6479)">
    <g
       id="g3303">
      <path
         clip-path="url(#clipPath3099-0-9)"
         style="fill:#b41616;fill-opacity:1"
         d="m 284.85715,540.11204 c 0,-1.41643 2.9835,-2.18267 4.82244,-1.23853 2.66358,1.36753 4.06032,0.30044 6.8221,-5.21197 1.4209,-2.83607 3.2614,-5.92686 4.08999,-6.86842 1.4131,-1.60575 1.616,-1.57675 3.27139,0.46757 2.3399,2.88966 4.2945,1.31465 6.02096,-4.85165 1.04171,-3.72061 1.61576,-4.452 3.12464,-3.981 6.39853,1.99732 5.91517,2.28175 8.36615,-4.92299 0.57014,-1.67596 1.1002,-1.1549 3.27152,3.21599 1.42513,2.86879 3.16563,5.43643 3.86777,5.70587 1.82206,0.69919 9.1154,-7.26829 10.45545,-11.42186 0.62106,-1.925 1.49003,-3.8927 1.93106,-4.37267 0.44103,-0.47997 0.30971,-1.95284 -0.29182,-3.27305 -0.89925,-1.97363 -0.72012,-2.90565 1.00757,-5.24247 1.15568,-1.56315 2.78468,-4.47778 3.61999,-6.47695 1.63725,-3.9185 4.12169,-4.78273 5.07893,-1.76674 0.32611,1.02746 1.47205,2.66371 2.54654,3.63612 2.51696,2.27781 2.58955,2.06408 4.41579,-13.00202 1.30368,-10.75495 1.72317,-12.22903 4.0497,-14.23022 1.76122,-1.51494 3.52659,-5.15355 5.49274,-11.32113 1.59355,-4.99877 3.61418,-10.18267 4.49028,-11.51977 1.61444,-2.46395 4.54681,-3.33316 4.54681,-1.34777 0,0.59584 0.56103,0.89633 1.24674,0.66776 0.68571,-0.22857 1.93283,-3.52857 2.77139,-7.33334 1.259,-5.71246 1.86938,-6.91775 3.50325,-6.91775 1.52691,0 2.44039,1.36979 4.00128,6 3.3593,9.96501 4.40069,10.64808 6.86066,4.5 0.88027,-2.2 2.06047,-4 2.62268,-4 0.56221,0 2.33642,1.4625 3.94269,3.25 l 2.92049,3.25 2.12485,-5 c 1.16866,-2.75 2.84144,-6.6875 3.71728,-8.75 0.87584,-2.0625 2.12935,-3.75 2.78558,-3.75 1.53635,0 3.81652,2.62125 5.96174,6.85353 l 1.69981,3.35353 1.95973,-2.10353 c 1.34513,-1.44383 3.18349,-2.10353 5.86177,-2.10353 2.14611,0 4.18014,-0.45 4.52006,-1 1.12074,-1.81339 2.53918,-1.04791 4.6325,2.5 1.4349,2.43196 2.78706,3.5 4.43109,3.5 1.44408,0 2.81703,0.87674 3.52341,2.25 1.63122,3.17118 6.05826,7.75 7.4931,7.75 1.64961,0 2.17015,1.66888 3.59553,11.52726 0.69919,4.83582 1.66889,8.3579 2.24796,8.16488 0.5601,-0.1867 2.15643,-2.55631 3.54739,-5.2658 2.40467,-4.68411 2.75029,-4.94167 7.02902,-5.23802 3.40407,-0.23578 5.27046,-1.05466 7.66359,-3.36242 1.73998,-1.67791 3.59178,-2.78611 4.11511,-2.46267 0.52333,0.32343 1.47991,3.41152 2.12574,6.86242 1.95768,10.46057 4.80591,13.69894 7.27751,8.27435 2.5107,-5.51038 6.10403,-1.02508 7.85009,9.7987 1.48187,9.18604 2.87467,9.79231 6.42057,2.79481 2.86297,-5.6498 4.03258,-6.331 7.69667,-4.48271 1.90959,0.96326 3.20047,2.96855 4.62342,7.18216 2.07387,6.14106 6.66588,14.20704 8.08815,14.20704 0.45968,0 1.54283,-1.8 2.40701,-4 1.65536,-4.21412 2.99556,-4.74836 7.15616,-2.85266 3.86988,1.76323 7.3713,14.27218 4.959,17.71621 -0.75918,1.08388 -0.99815,2.12048 -0.53106,2.30357 0.4671,0.18308 2.5287,5.39538 4.58133,11.58288 2.92464,8.81609 4.12373,11.25 5.5424,11.25 0.99568,0 2.06935,-0.675 2.38594,-1.5 0.97013,-2.52814 2.00134,-1.67975 5.60489,4.61125 1.90658,3.32847 4.60658,6.67207 6,7.43022 2.16308,1.17692 -17.97157,1.38431 -137.71652,1.41849 -81.66129,0.0233 -140.25,-0.33301 -140.25,-0.85297 z"
         id="path3006-9-2"
         inkscape:connector-curvature="0"
         transform="matrix(1.25,0,0,1.25,-280.34829,-76.142432)" />
      <path
         transform="matrix(1.25,0,0,1.25,-264.01375,16.698376)"
         clip-path="url(#clipPath3095-1-6)"
         style="fill:#b41616;fill-opacity:1"
         d="m 332.00203,418.18266 2.57552,-4.6081 2.90477,3.1081 c 2.87657,3.07793 5.18826,3.91244 6.2188,2.24498 0.2934,-0.47472 1.22993,-6.82317 2.08118,-14.10766 1.33213,-11.39945 1.8581,-13.50351 3.77558,-15.1036 2.0964,-1.7494 4.83941,-1.86104 46.49141,-1.89235 33.54533,-0.0252 44.74457,0.26712 46.25,1.20728 1.58107,0.98739 2.39179,0.98739 3.97286,0 1.26383,-0.78928 5.93645,-1.24055 12.84501,-1.24055 9.58859,0 11.07027,0.23391 12.66856,2 2.32226,2.56607 4.19229,2.54487 5.01805,-0.0569 0.38424,-1.21064 1.33642,-1.92522 2.31439,-1.73688 1.24128,0.23905 2.0431,2.46673 3.16989,8.80687 1.49716,8.42407 1.53049,8.48688 4.503,8.48688 2.62802,0 3.30076,-0.64235 5.49467,-5.24644 1.375,-2.88555 2.99276,-5.24805 3.59501,-5.25 1.88047,-0.006 4.08024,3.28818 5.87313,8.79538 1.95237,5.99703 7.25133,13.52335 9.87726,14.02906 1.25634,0.24195 2.20341,-0.81556 3.3543,-3.74543 1.68189,-4.28167 2.88886,-4.90537 5.48157,-2.83257 1.24374,0.99433 3.81873,8.54172 3.81873,11.19282 0,0.30645 -43.84332,0.55718 -97.4296,0.55718 l -97.42961,0 2.57552,-4.6081 z m 21.30264,-35.1419 c 0.0401,-1.5875 4.54103,-14.84967 5.68463,-16.75 1.18784,-1.97383 1.22501,-1.96993 2.8401,0.29767 2.27475,3.19377 3.84419,1.57457 5.36572,-5.53585 2.42025,-11.3103 3.06064,-11.56377 5.67503,-2.24616 2.58031,9.19617 6.0543,10.48656 9.03382,3.35557 l 1.52795,-3.65689 2.94203,3.22112 c 1.61812,1.77161 3.49347,3.03731 4.16744,2.81265 0.67397,-0.22466 2.67156,-3.91429 4.4391,-8.19919 1.76753,-4.28489 3.44842,-8.02544 3.7353,-8.31232 1.04579,-1.04579 3.27545,1.83714 4.44823,5.75152 1.3653,4.55699 3.37761,5.15236 6.09058,1.80198 1.12948,-1.39485 3.03269,-2.27069 5.16029,-2.37473 1.85396,-0.0907 4.06847,-0.45986 4.92114,-0.82046 1.10714,-0.46821 2.03155,0.35355 3.23382,2.87473 1.22043,2.55926 2.32901,3.53036 4.03017,3.53036 1.6358,0 3.32561,1.36317 5.57832,4.5 1.77741,2.475 3.88983,4.5 4.69427,4.5 1.85071,0 3.03133,3.09621 3.93327,10.31507 l 0.71029,5.68493 -44.11523,0 c -24.26337,0 -44.10669,-0.3375 -44.09627,-0.75 z m 96.58177,-0.087 c -0.28452,-0.46037 0.16444,-1.81037 0.99769,-3 1.08104,-1.54341 2.55723,-2.16297 5.15358,-2.16297 2.5883,0 4.45005,-0.77745 6.44988,-2.69341 3.38622,-3.2442 4.38475,-2.50535 5.32941,3.94341 l 0.69581,4.75 -9.05453,0 c -4.97999,0 -9.28732,-0.37667 -9.57184,-0.83703 z"
         id="path3000-5-2"
         inkscape:connector-curvature="0" />
      <path
         transform="matrix(1.25,0,0,1.25,-221.00182,-223.24588)"
         clip-path="url(#clipPath3073-0-0)"
         sodipodi:nodetypes="sssssssscsssssscsssssssscsscss"
         style="fill:#b41616;fill-opacity:1"
         d="m 319.10622,579.36218 c -1.03286,0 4.55772,-15.92569 5.93838,-17.28441 0.77863,-0.76625 1.48562,-0.53693 2.47468,0.8027 2.24517,3.041 4.22151,1.21064 5.46547,-5.06176 1.57899,-7.96167 2.01493,-9.31366 3.00318,-9.31366 0.46924,0 1.16877,1.4625 1.55453,3.25 1.56097,7.23328 3.56212,10.75 6.11715,10.75 1.86212,0 2.80226,-0.86116 3.95683,-3.62443 l 1.51438,-3.62442 2.73931,2.62442 c 4.27905,4.0996 5.63961,3.44345 8.55455,-4.12557 4.2827,-11.12056 5.06148,-11.46072 8.49062,-3.70858 2.25008,5.08669 3.17599,5.42142 5.75129,2.07916 1.3777,-1.78799 3.15468,-2.52389 7.14914,-2.96067 5.19465,-0.56801 5.33924,-0.51381 6.34783,2.37942 1.01492,2.91141 1.72659,3.34646 4.96292,3.03389 0.90712,-0.0876 2.56148,1.42761 3.7405,3.4259 1.16271,1.97065 3.43312,4.34006 5.04535,5.26535 2.55916,1.46875 3.05288,2.51102 3.88858,8.20894 0.52648,3.58963 0.71137,7.88372 0.51915,7.88372 z m 96.89378,0 c 0,-3.1527 2.18115,-5.85713 5.95846,-5.85713 2.7127,0 4.80787,-0.77395 6.93066,-2.56016 l 3.04258,-2.56016 0.57054,2.31016 c 0.3138,1.27059 0.66667,3.66016 0.78415,5.31016 l 0.21361,3.35713 -8.75,0 c -5.89699,0 -8.75,0.74404 -8.75,0 z"
         id="path2998-6-6"
         inkscape:connector-curvature="0" />
      <rect
         y="543.92816"
         x="146.50032"
         height="6.4732199"
         width="244.92188"
         id="rect3229"
         style="fill:#b41616;fill-opacity:1;stroke:none" />
      <path
         inkscape:connector-curvature="0"
         id="path3233"
         d="m 145.27263,537.23173 c 3.1808,6.64063 3.125,6.64063 3.125,6.64063 l -2.00892,3.0692 -4.52009,-4.24108 z"
         style="fill:#000000;fill-opacity:0;stroke:none" />
      <rect
         y="497.94601"
         x="179.70345"
         height="9.1517859"
         width="107.36607"
         id="rect4022"
         style="fill:#b41616;fill-opacity:1;stroke:none" />
      <path
         sodipodi:nodetypes="cccccccccc"
         inkscape:connector-curvature="0"
         id="path4024"
         d="m 286.07065,495.0396 2.70565,7.42255 1.64142,11.10887 4.08324,-10.45045 4.7935,-2.61319 21.25719,-0.77565 3.57143,24.55358 -61.16071,2.23215 18.75,-28.125 z"
         style="fill:#b41616;fill-opacity:1;stroke:none" />
      <path
         sodipodi:nodetypes="ccccc"
         inkscape:connector-curvature="0"
         id="path4026"
         d="m 178.51932,497.63735 -4.06429,5.44536 2.84107,4.02482 11.44312,-7.29992 z"
         style="fill:#b41616;fill-opacity:1;stroke:none" />
    </g>
    <g
       style="font-size:40px;font-style:normal;font-variant:normal;font-weight:bold;font-stretch:condensed;line-height:125%;letter-spacing:0px;word-spacing:0px;fill:#90ee90;fill-opacity:1;stroke:none;font-family:PT Sans Narrow;-inkscape-font-specification:PT Sans Narrow Bold Condensed"
       id="text4110">
      <path
         d="m 78.043148,377.00478 4.56,0 0,-15.72 0.52,-2.72 -1.64,2.36 -2.64,2.04 -2.2,-2.68 7.72,-7.52 2.8,0 0,24.24 4.48,0 0,4.24 -13.6,0 0,-4.24"
         style=""
         id="path3066" />
      <path
         d="m 102.1444,367.48478 8.32,0 0,4.56 -8.32,0 0,-4.56"
         style=""
         id="path3068" />
      <path
         d="m 118.53565,367.24478 c 0,-4.74665 0.81333,-8.35998 2.44,-10.84 1.62666,-2.47997 4.10666,-3.71997 7.44,-3.72 1.73332,3e-5 3.22665,0.3467 4.48,1.04 1.25332,0.6667 2.27998,1.64003 3.08,2.92 0.79998,1.25336 1.38665,2.78669 1.76,4.6 0.39998,1.78669 0.59998,3.78668 0.6,6 -2e-5,4.74668 -0.84002,8.36001 -2.52,10.84 -1.65335,2.48 -4.12002,3.72 -7.4,3.72 -1.76001,0 -3.26668,-0.33333 -4.52,-1 -1.22667,-0.69333 -2.24001,-1.66666 -3.04,-2.92 -0.8,-1.27999 -1.38667,-2.81333 -1.76,-4.6 -0.37334,-1.81332 -0.56,-3.82665 -0.56,-6.04 m 5.28,0 c -1e-5,1.41335 0.08,2.73335 0.24,3.96 0.15999,1.20001 0.42666,2.24001 0.8,3.12 0.37332,0.88001 0.83999,1.57334 1.4,2.08 0.58666,0.50667 1.30665,0.76001 2.16,0.76 1.54665,10e-6 2.70665,-0.78666 3.48,-2.36 0.77332,-1.57332 1.15998,-4.09332 1.16,-7.56 -2e-5,-1.35998 -0.08,-2.63998 -0.24,-3.84 -0.16002,-1.22665 -0.42668,-2.27998 -0.8,-3.16 -0.34668,-0.90664 -0.81335,-1.61331 -1.4,-2.12 -0.58668,-0.53331 -1.32001,-0.79997 -2.2,-0.8 -3.06668,3e-5 -4.60001,3.30669 -4.6,9.92"
         style=""
         id="path3070" />
      <path
         d="m 150.64502,365.96478 c -0.64001,-0.23998 -1.22667,-0.35998 -1.76,-0.36 -0.72001,2e-5 -1.34667,0.20002 -1.88,0.6 -0.50667,0.40002 -0.85334,0.96002 -1.04,1.68 l 0,13.36 -4.76,0 0,-20 3.64,0 0.56,2.4 0.16,0 c 0.34666,-0.87998 0.84,-1.55998 1.48,-2.04 0.66666,-0.50665 1.42666,-0.75998 2.28,-0.76 0.63999,2e-5 1.26666,0.13336 1.88,0.4 l -0.56,4.72"
         style=""
         id="path3072" />
      <path
         d="m 153.32377,361.24478 4.76,0 0,20 -4.76,0 0,-20 m -0.56,-5.64 c 0,-0.79997 0.25334,-1.4533 0.76,-1.96 0.50667,-0.5333 1.22667,-0.79997 2.16,-0.8 0.93333,3e-5 1.68,0.25336 2.24,0.76 0.56,0.5067 0.84,1.17336 0.84,2 0,0.82669 -0.28,1.48003 -0.84,1.96 -0.56,0.48002 -1.30667,0.72002 -2.24,0.72 -0.93333,2e-5 -1.65333,-0.23998 -2.16,-0.72 -0.50666,-0.50664 -0.76,-1.15997 -0.76,-1.96"
         style=""
         id="path3074" />
      <path
         d="m 176.22815,381.24478 c -2e-5,2.90667 -0.66668,5.04 -2,6.4 -1.33335,1.38666 -3.18668,2.07999 -5.56,2.08 -1.65334,-1e-5 -2.94667,-0.13334 -3.88,-0.4 -0.93334,-0.24001 -1.65334,-0.50667 -2.16,-0.8 l 1,-4.04 c 0.58666,0.24 1.21333,0.46666 1.88,0.68 0.69333,0.21333 1.50666,0.32 2.44,0.32 1.35999,0 2.29332,-0.37334 2.8,-1.12 0.53332,-0.72 0.79999,-1.82667 0.8,-3.32 l 0,-1.08 -0.12,0 c -0.37335,0.53334 -0.88001,0.93334 -1.52,1.2 -0.61334,0.26667 -1.41334,0.4 -2.4,0.4 -2.10667,0 -3.69334,-0.78666 -4.76,-2.36 -1.04,-1.59999 -1.56,-4.11999 -1.56,-7.56 0,-3.70665 0.72,-6.43998 2.16,-8.2 1.46666,-1.75998 3.54666,-2.63998 6.24,-2.64 1.43999,2e-5 2.73332,0.12002 3.88,0.36 1.14665,0.21335 2.06665,0.48002 2.76,0.8 l 0,19.28 m -7.4,-3.76 c 0.71999,10e-6 1.27999,-0.17333 1.68,-0.52 0.42665,-0.34666 0.74665,-0.83999 0.96,-1.48 l 0,-10 c -0.29335,-0.13332 -0.62668,-0.23998 -1,-0.32 -0.34668,-0.08 -0.76001,-0.11998 -1.24,-0.12 -0.98668,2e-5 -1.76001,0.48002 -2.32,1.44 -0.53334,0.96002 -0.80001,2.61335 -0.8,4.96 -1e-5,4.02667 0.90666,6.04001 2.72,6.04"
         style=""
         id="path3076" />
      <path
         d="m 180.04252,361.24478 4.76,0 0,20 -4.76,0 0,-20 m -0.56,-5.64 c 0,-0.79997 0.25334,-1.4533 0.76,-1.96 0.50667,-0.5333 1.22667,-0.79997 2.16,-0.8 0.93333,3e-5 1.68,0.25336 2.24,0.76 0.56,0.5067 0.84,1.17336 0.84,2 0,0.82669 -0.28,1.48003 -0.84,1.96 -0.56,0.48002 -1.30667,0.72002 -2.24,0.72 -0.93333,2e-5 -1.65333,-0.23998 -2.16,-0.72 -0.50666,-0.50664 -0.76,-1.15997 -0.76,-1.96"
         style=""
         id="path3078" />
      <path
         d="m 198.5469,381.24478 0,-12.16 c -1e-5,-1.46665 -0.17335,-2.49332 -0.52,-3.08 -0.34668,-0.58665 -0.93335,-0.87998 -1.76,-0.88 -0.69334,2e-5 -1.29334,0.21335 -1.8,0.64 -0.50668,0.42668 -0.86667,0.96002 -1.08,1.6 l 0,13.88 -4.76,0 0,-20 3.8,0 0.56,2.32 0.12,0 c 0.47999,-0.77331 1.13332,-1.42665 1.96,-1.96 0.82666,-0.55998 1.90666,-0.83998 3.24,-0.84 0.79999,2e-5 1.50665,0.12002 2.12,0.36 0.63998,0.24002 1.17332,0.64002 1.6,1.2 0.42665,0.53335 0.74665,1.26669 0.96,2.2 0.21332,0.90668 0.31998,2.04002 0.32,3.4 l 0,13.32 -4.76,0"
         style=""
         id="path3080" />
      <path
         d="m 206.63565,362.44478 c 0.8,-0.47998 1.79999,-0.86665 3,-1.16 1.19999,-0.29331 2.55999,-0.43998 4.08,-0.44 2.26665,2e-5 3.83999,0.58669 4.72,1.76 0.90665,1.17335 1.35998,2.84002 1.36,5 -2e-5,1.25335 -0.04,2.49335 -0.12,3.72 -0.0533,1.20001 -0.0933,2.38668 -0.12,3.56 -0.0267,1.14667 -0.0134,2.26667 0.04,3.36 0.08,1.06667 0.26665,2.08 0.56,3.04 l -3.88,0 -0.76,-2.44 -0.16,0 c -0.42668,0.77334 -1.02668,1.41334 -1.8,1.92 -0.77334,0.50667 -1.74668,0.76 -2.92,0.76 -1.57334,0 -2.81334,-0.52 -3.72,-1.56 -0.90667,-1.06666 -1.36,-2.47999 -1.36,-4.24 0,-2.39999 0.85333,-4.10666 2.56,-5.12 1.70666,-1.01332 4.01332,-1.43999 6.92,-1.28 0.13332,-1.54665 0.0266,-2.66665 -0.32,-3.36 -0.32001,-0.69332 -1.02668,-1.03998 -2.12,-1.04 -0.80001,2e-5 -1.62667,0.0933 -2.48,0.28 -0.85334,0.18668 -1.61334,0.45335 -2.28,0.8 l -1.2,-3.56 m 5.72,15 c 0.71999,1e-5 1.30666,-0.17333 1.76,-0.52 0.45332,-0.37333 0.78666,-0.77333 1,-1.2 l 0,-3.32 c -0.61334,-0.08 -1.20001,-0.0933 -1.76,-0.04 -0.56001,0.0533 -1.05334,0.17334 -1.48,0.36 -0.42667,0.18668 -0.77334,0.46668 -1.04,0.84 -0.24001,0.34668 -0.36001,0.80001 -0.36,1.36 -1e-5,0.82667 0.15999,1.45334 0.48,1.88 0.34666,0.42667 0.81332,0.64001 1.4,0.64"
         style=""
         id="path3082" />
      <path
         d="m 227.92002,374.76478 c 0,0.93334 0.0933,1.60001 0.28,2 0.18666,0.40001 0.49333,0.60001 0.92,0.6 0.24,1e-5 0.48,-0.0267 0.72,-0.08 0.26666,-0.0533 0.55999,-0.14666 0.88,-0.28 l 0.44,3.84 c -0.32001,0.21334 -0.86667,0.41333 -1.64,0.6 -0.77334,0.18667 -1.56,0.28 -2.36,0.28 -1.33333,0 -2.33333,-0.33333 -3,-1 -0.66667,-0.66666 -1,-1.8 -1,-3.4 l 0,-24.08 4.76,0 0,21.52"
         style=""
         id="path3084" />
    </g>
    <g
       id="g3347">
      <path
         clip-path="url(#clipPath3099-0)"
         style="fill:#b41616;fill-opacity:1"
         d="m 284.85715,540.11204 c 0,-1.41643 2.9835,-2.18267 4.82244,-1.23853 2.66358,1.36753 4.06032,0.30044 6.8221,-5.21197 1.4209,-2.83607 3.2614,-5.92686 4.08999,-6.86842 1.4131,-1.60575 1.616,-1.57675 3.27139,0.46757 2.3399,2.88966 4.2945,1.31465 6.02096,-4.85165 1.04171,-3.72061 1.61576,-4.452 3.12464,-3.981 6.39853,1.99732 5.91517,2.28175 8.36615,-4.92299 0.57014,-1.67596 1.1002,-1.1549 3.27152,3.21599 1.42513,2.86879 3.16563,5.43643 3.86777,5.70587 1.82206,0.69919 9.1154,-7.26829 10.45545,-11.42186 0.62106,-1.925 1.49003,-3.8927 1.93106,-4.37267 0.44103,-0.47997 0.30971,-1.95284 -0.29182,-3.27305 -0.89925,-1.97363 -0.72012,-2.90565 1.00757,-5.24247 1.15568,-1.56315 2.78468,-4.47778 3.61999,-6.47695 1.63725,-3.9185 4.12169,-4.78273 5.07893,-1.76674 0.32611,1.02746 1.47205,2.66371 2.54654,3.63612 2.51696,2.27781 2.58955,2.06408 4.41579,-13.00202 1.30368,-10.75495 1.72317,-12.22903 4.0497,-14.23022 1.76122,-1.51494 3.52659,-5.15355 5.49274,-11.32113 1.59355,-4.99877 3.61418,-10.18267 4.49028,-11.51977 1.61444,-2.46395 4.54681,-3.33316 4.54681,-1.34777 0,0.59584 0.56103,0.89633 1.24674,0.66776 0.68571,-0.22857 1.93283,-3.52857 2.77139,-7.33334 1.259,-5.71246 1.86938,-6.91775 3.50325,-6.91775 1.52691,0 2.44039,1.36979 4.00128,6 3.3593,9.96501 4.40069,10.64808 6.86066,4.5 0.88027,-2.2 2.06047,-4 2.62268,-4 0.56221,0 2.33642,1.4625 3.94269,3.25 l 2.92049,3.25 2.12485,-5 c 1.16866,-2.75 2.84144,-6.6875 3.71728,-8.75 0.87584,-2.0625 2.12935,-3.75 2.78558,-3.75 1.53635,0 3.81652,2.62125 5.96174,6.85353 l 1.69981,3.35353 1.95973,-2.10353 c 1.34513,-1.44383 3.18349,-2.10353 5.86177,-2.10353 2.14611,0 4.18014,-0.45 4.52006,-1 1.12074,-1.81339 2.53918,-1.04791 4.6325,2.5 1.4349,2.43196 2.78706,3.5 4.43109,3.5 1.44408,0 2.81703,0.87674 3.52341,2.25 1.63122,3.17118 6.05826,7.75 7.4931,7.75 1.64961,0 2.17015,1.66888 3.59553,11.52726 0.69919,4.83582 1.66889,8.3579 2.24796,8.16488 0.5601,-0.1867 2.15643,-2.55631 3.54739,-5.2658 2.40467,-4.68411 2.75029,-4.94167 7.02902,-5.23802 3.40407,-0.23578 5.27046,-1.05466 7.66359,-3.36242 1.73998,-1.67791 3.59178,-2.78611 4.11511,-2.46267 0.52333,0.32343 1.47991,3.41152 2.12574,6.86242 1.95768,10.46057 4.80591,13.69894 7.27751,8.27435 2.5107,-5.51038 6.10403,-1.02508 7.85009,9.7987 1.48187,9.18604 2.87467,9.79231 6.42057,2.79481 2.86297,-5.6498 4.03258,-6.331 7.69667,-4.48271 1.90959,0.96326 3.20047,2.96855 4.62342,7.18216 2.07387,6.14106 6.66588,14.20704 8.08815,14.20704 0.45968,0 1.54283,-1.8 2.40701,-4 1.65536,-4.21412 2.99556,-4.74836 7.15616,-2.85266 3.86988,1.76323 7.3713,14.27218 4.959,17.71621 -0.75918,1.08388 -0.99815,2.12048 -0.53106,2.30357 0.4671,0.18308 2.5287,5.39538 4.58133,11.58288 2.92464,8.81609 4.12373,11.25 5.5424,11.25 0.99568,0 2.06935,-0.675 2.38594,-1.5 0.97013,-2.52814 2.00134,-1.67975 5.60489,4.61125 1.90658,3.32847 4.60658,6.67207 6,7.43022 2.16308,1.17692 -17.97157,1.38431 -137.71652,1.41849 -81.66129,0.0233 -140.25,-0.33301 -140.25,-0.85297 z"
         id="path3006-9"
         inkscape:connector-curvature="0"
         transform="matrix(1.25,0,0,1.25,93.051843,-76.142431)" />
      <path
         transform="matrix(1.25,0,0,1.25,109.38638,16.935152)"
         clip-path="url(#clipPath3095-1)"
         style="fill:#b41616;fill-opacity:1"
         d="m 332.00203,418.18266 2.57552,-4.6081 2.90477,3.1081 c 2.87657,3.07793 5.18826,3.91244 6.2188,2.24498 0.2934,-0.47472 1.22993,-6.82317 2.08118,-14.10766 1.33213,-11.39945 1.8581,-13.50351 3.77558,-15.1036 2.0964,-1.7494 4.83941,-1.86104 46.49141,-1.89235 33.54533,-0.0252 44.74457,0.26712 46.25,1.20728 1.58107,0.98739 2.39179,0.98739 3.97286,0 1.26383,-0.78928 5.93645,-1.24055 12.84501,-1.24055 9.58859,0 11.07027,0.23391 12.66856,2 2.32226,2.56607 4.19229,2.54487 5.01805,-0.0569 0.38424,-1.21064 1.33642,-1.92522 2.31439,-1.73688 1.24128,0.23905 2.0431,2.46673 3.16989,8.80687 1.49716,8.42407 1.53049,8.48688 4.503,8.48688 2.62802,0 3.30076,-0.64235 5.49467,-5.24644 1.375,-2.88555 2.99276,-5.24805 3.59501,-5.25 1.88047,-0.006 4.08024,3.28818 5.87313,8.79538 1.95237,5.99703 7.25133,13.52335 9.87726,14.02906 1.25634,0.24195 2.20341,-0.81556 3.3543,-3.74543 1.68189,-4.28167 2.88886,-4.90537 5.48157,-2.83257 1.24374,0.99433 3.81873,8.54172 3.81873,11.19282 0,0.30645 -43.84332,0.55718 -97.4296,0.55718 l -97.42961,0 2.57552,-4.6081 z m 21.30264,-35.1419 c 0.0401,-1.5875 4.54103,-14.84967 5.68463,-16.75 1.18784,-1.97383 1.22501,-1.96993 2.8401,0.29767 2.27475,3.19377 3.84419,1.57457 5.36572,-5.53585 2.42025,-11.3103 3.06064,-11.56377 5.67503,-2.24616 2.58031,9.19617 6.0543,10.48656 9.03382,3.35557 l 1.52795,-3.65689 2.94203,3.22112 c 1.61812,1.77161 3.49347,3.03731 4.16744,2.81265 0.67397,-0.22466 2.67156,-3.91429 4.4391,-8.19919 1.76753,-4.28489 3.44842,-8.02544 3.7353,-8.31232 1.04579,-1.04579 3.27545,1.83714 4.44823,5.75152 1.3653,4.55699 3.37761,5.15236 6.09058,1.80198 1.12948,-1.39485 3.03269,-2.27069 5.16029,-2.37473 1.85396,-0.0907 4.06847,-0.45986 4.92114,-0.82046 1.10714,-0.46821 2.03155,0.35355 3.23382,2.87473 1.22043,2.55926 2.32901,3.53036 4.03017,3.53036 1.6358,0 3.32561,1.36317 5.57832,4.5 1.77741,2.475 3.88983,4.5 4.69427,4.5 1.85071,0 3.03133,3.09621 3.93327,10.31507 l 0.71029,5.68493 -44.11523,0 c -24.26337,0 -44.10669,-0.3375 -44.09627,-0.75 z m 96.58177,-0.087 c -0.28452,-0.46037 0.16444,-1.81037 0.99769,-3 1.08104,-1.54341 2.55723,-2.16297 5.15358,-2.16297 2.5883,0 4.45005,-0.77745 6.44988,-2.69341 3.38622,-3.2442 4.38475,-2.50535 5.32941,3.94341 l 0.69581,4.75 -9.05453,0 c -4.97999,0 -9.28732,-0.37667 -9.57184,-0.83703 z"
         id="path3000-5"
         inkscape:connector-curvature="0" />
      <path
         transform="matrix(1.25,0,0,1.25,152.39831,-223.24588)"
         clip-path="url(#clipPath3073-0)"
         sodipodi:nodetypes="sssssssscsssssscsssssssscsscss"
         style="fill:#b41616;fill-opacity:1"
         d="m 319.10622,579.36218 c -1.03286,0 4.55772,-15.92569 5.93838,-17.28441 0.77863,-0.76625 1.48562,-0.53693 2.47468,0.8027 2.24517,3.041 4.22151,1.21064 5.46547,-5.06176 1.57899,-7.96167 2.01493,-9.31366 3.00318,-9.31366 0.46924,0 1.16877,1.4625 1.55453,3.25 1.56097,7.23328 3.56212,10.75 6.11715,10.75 1.86212,0 2.80226,-0.86116 3.95683,-3.62443 l 1.51438,-3.62442 2.73931,2.62442 c 4.27905,4.0996 5.63961,3.44345 8.55455,-4.12557 4.2827,-11.12056 5.06148,-11.46072 8.49062,-3.70858 2.25008,5.08669 3.17599,5.42142 5.75129,2.07916 1.3777,-1.78799 3.15468,-2.52389 7.14914,-2.96067 5.19465,-0.56801 5.33924,-0.51381 6.34783,2.37942 1.01492,2.91141 1.72659,3.34646 4.96292,3.03389 0.90712,-0.0876 2.56148,1.42761 3.7405,3.4259 1.16271,1.97065 3.43312,4.34006 5.04535,5.26535 2.55916,1.46875 3.05288,2.51102 3.88858,8.20894 0.52648,3.58963 0.71137,7.88372 0.51915,7.88372 z m 96.89378,0 c 0,-3.1527 2.18115,-5.85713 5.95846,-5.85713 2.7127,0 4.80787,-0.77395 6.93066,-2.56016 l 3.04258,-2.56016 0.57054,2.31016 c 0.3138,1.27059 0.66667,3.66016 0.78415,5.31016 l 0.21361,3.35713 -8.75,0 c -5.89699,0 -8.75,0.74404 -8.75,0 z"
         id="path2998-6"
         inkscape:connector-curvature="0" />
    </g>
    <g
       style="font-size:40px;font-style:normal;font-variant:normal;font-weight:bold;font-stretch:condensed;line-height:125%;letter-spacing:0px;word-spacing:0px;fill:#90ee90;fill-opacity:1;stroke:none;font-family:PT Sans Narrow;-inkscape-font-specification:PT Sans Narrow Bold Condensed"
       id="text4114">
      <path
         d="m 464.44328,362.94479 c -1e-5,1.38669 -0.20001,2.81335 -0.6,4.28 -0.40001,1.44002 -0.92001,2.85335 -1.56,4.24 -0.61335,1.38668 -1.29334,2.70668 -2.04,3.96 -0.74668,1.25334 -1.48001,2.36001 -2.2,3.32 l -1.76,1.64 0,0.2 2.4,-0.6 6.2,0 0,4.24 -14.04,0 0,-2.76 c 0.56,-0.69333 1.16,-1.47999 1.8,-2.36 0.66666,-0.90666 1.32,-1.85332 1.96,-2.84 0.66666,-1.01332 1.30666,-2.05332 1.92,-3.12 0.61333,-1.09332 1.14666,-2.17332 1.6,-3.24 0.47999,-1.09332 0.85332,-2.15998 1.12,-3.2 0.29332,-1.03998 0.41332,-2.01331 0.36,-2.92 0.0533,-1.11998 -0.18668,-2.02664 -0.72,-2.72 -0.53334,-0.69331 -1.37334,-1.03997 -2.52,-1.04 -0.66667,3e-5 -1.34667,0.16003 -2.04,0.48 -0.69334,0.29336 -1.28,0.65336 -1.76,1.08 l -1.84,-3.48 c 0.88,-0.74664 1.88,-1.3333 3,-1.76 1.11999,-0.4533 2.43999,-0.67997 3.96,-0.68 0.95999,3e-5 1.85332,0.16003 2.68,0.48 0.82666,0.29336 1.53332,0.7467 2.12,1.36 0.61332,0.61336 1.09332,1.37336 1.44,2.28 0.34665,0.90669 0.51999,1.96002 0.52,3.16"
         style=""
         id="path3980" />
      <path
         d="m 475.94453,370.46479 8.32,0 0,4.56 -8.32,0 0,-4.56"
         style=""
         id="path3982" />
      <path
         d="m 503.24453,377.02479 c -10e-6,-0.85332 -0.25334,-1.57332 -0.76,-2.16 -0.50668,-0.61332 -1.14668,-1.18665 -1.92,-1.72 -0.74667,-0.53332 -1.57334,-1.07999 -2.48,-1.64 -0.88,-0.55998 -1.70667,-1.21332 -2.48,-1.96 -0.74667,-0.74665 -1.37333,-1.62665 -1.88,-2.64 -0.50667,-1.01331 -0.76,-2.25331 -0.76,-3.72 0,-1.35998 0.2,-2.50664 0.6,-3.44 0.42667,-0.95997 1,-1.7333 1.72,-2.32 0.72,-0.6133 1.57333,-1.0533 2.56,-1.32 0.98666,-0.2933 2.03999,-0.43997 3.16,-0.44 1.35999,3e-5 2.62666,0.13336 3.8,0.4 1.17332,0.2667 2.14665,0.6267 2.92,1.08 l -1.56,4.44 c -0.45335,-0.31997 -1.13335,-0.61331 -2.04,-0.88 -0.88001,-0.26664 -1.84001,-0.39997 -2.88,-0.4 -1.04001,3e-5 -1.84001,0.21336 -2.4,0.64 -0.56001,0.42669 -0.84001,1.05336 -0.84,1.88 -10e-6,0.74669 0.25333,1.41336 0.76,2 0.50666,0.56002 1.13333,1.10669 1.88,1.64 0.77332,0.53335 1.59999,1.09335 2.48,1.68 0.90666,0.56002 1.73332,1.22668 2.48,2 0.77332,0.74668 1.41332,1.64001 1.92,2.68 0.50665,1.01335 0.75998,2.22668 0.76,3.64 -2e-5,1.41334 -0.21335,2.64001 -0.64,3.68 -0.40001,1.04001 -0.98668,1.90667 -1.76,2.6 -0.74668,0.66667 -1.65334,1.17334 -2.72,1.52 -1.06668,0.34667 -2.25334,0.52 -3.56,0.52 -1.65334,0 -3.10667,-0.16 -4.36,-0.48 -1.22667,-0.32 -2.17333,-0.68 -2.84,-1.08 l 1.64,-4.52 c 0.53333,0.32001 1.26666,0.64001 2.2,0.96 0.93333,0.32001 1.93333,0.48001 3,0.48 2.66666,10e-6 3.99999,-1.03999 4,-3.12"
         style=""
         id="path3984" />
      <path
         d="m 524.46266,382.74479 c -0.66668,0.58667 -1.57335,1.06667 -2.72,1.44 -1.14668,0.37334 -2.34668,0.56 -3.6,0.56 -1.38668,0 -2.58668,-0.24 -3.6,-0.72 -0.98667,-0.48 -1.80001,-1.17333 -2.44,-2.08 -0.64001,-0.90666 -1.12001,-1.99999 -1.44,-3.28 -0.29334,-1.30666 -0.44,-2.78666 -0.44,-4.44 0,-3.59998 0.70666,-6.25331 2.12,-7.96 1.43999,-1.73331 3.42666,-2.59998 5.96,-2.6 0.85332,2e-5 1.67999,0.13336 2.48,0.4 0.79998,0.24002 1.50665,0.66669 2.12,1.28 0.63998,0.58669 1.14665,1.38669 1.52,2.4 0.39998,0.98668 0.59998,2.24002 0.6,3.76 -2e-5,0.58668 -0.04,1.21335 -0.12,1.88 -0.0534,0.66668 -0.14669,1.38668 -0.28,2.16 l -9.72,0 c 0.0533,1.65334 0.39999,2.92001 1.04,3.8 0.63999,0.88001 1.66665,1.32001 3.08,1.32 0.85332,1e-5 1.62665,-0.13333 2.32,-0.4 0.71998,-0.26666 1.26665,-0.54666 1.64,-0.84 l 1.48,3.32 m -6.24,-15 c -1.01335,2e-5 -1.77334,0.41335 -2.28,1.24 -0.50668,0.80002 -0.80001,1.93335 -0.88,3.4 l 5.52,0 c 0.08,-1.51998 -0.08,-2.66665 -0.48,-3.44 -0.40001,-0.79998 -1.02668,-1.19998 -1.88,-1.2"
         style=""
         id="path3986" />
      <path
         d="m 528.05203,364.22479 3.56,0 0.48,2.28 0.12,0 c 0.61333,-0.95998 1.29333,-1.65331 2.04,-2.08 0.77333,-0.45331 1.71999,-0.67998 2.84,-0.68 2.02666,2e-5 3.54665,0.77336 4.56,2.32 1.03998,1.52002 1.55998,4.06668 1.56,7.64 -2e-5,3.57334 -0.64001,6.32001 -1.92,8.24 -1.28001,1.89334 -3.13334,2.84 -5.56,2.84 -0.64001,0 -1.18667,-0.0533 -1.64,-0.16 -0.45334,-0.10666 -0.88001,-0.28 -1.28,-0.52 l 0,8.12 -4.76,0 0,-28 m 4.76,15.52 c 0.26666,0.26667 0.55999,0.46667 0.88,0.6 0.34666,0.13334 0.78666,0.20001 1.32,0.2 1.06666,1e-5 1.87999,-0.51999 2.44,-1.56 0.55999,-1.06666 0.83999,-2.86666 0.84,-5.4 -10e-6,-1.89332 -0.21334,-3.29332 -0.64,-4.2 -0.42668,-0.93332 -1.13334,-1.39998 -2.12,-1.4 -1.33334,2e-5 -2.24001,0.78668 -2.72,2.36 l 0,9.4"
         style=""
         id="path3988" />
      <path
         d="m 545.98266,365.42479 c 0.79999,-0.47998 1.79999,-0.86664 3,-1.16 1.19999,-0.29331 2.55999,-0.43998 4.08,-0.44 2.26665,2e-5 3.83998,0.58669 4.72,1.76 0.90665,1.17335 1.35998,2.84002 1.36,5 -2e-5,1.25335 -0.04,2.49335 -0.12,3.72 -0.0534,1.20001 -0.0933,2.38668 -0.12,3.56 -0.0267,1.14667 -0.0133,2.26667 0.04,3.36 0.08,1.06667 0.26665,2.08 0.56,3.04 l -3.88,0 -0.76,-2.44 -0.16,0 c -0.42668,0.77334 -1.02668,1.41334 -1.8,1.92 -0.77334,0.50667 -1.74668,0.76 -2.92,0.76 -1.57334,0 -2.81334,-0.52 -3.72,-1.56 -0.90667,-1.06666 -1.36,-2.47999 -1.36,-4.24 0,-2.39999 0.85333,-4.10665 2.56,-5.12 1.70666,-1.01332 4.01332,-1.43999 6.92,-1.28 0.13332,-1.54665 0.0267,-2.66665 -0.32,-3.36 -0.32001,-0.69331 -1.02668,-1.03998 -2.12,-1.04 -0.80001,2e-5 -1.62668,0.0933 -2.48,0.28 -0.85334,0.18669 -1.61334,0.45335 -2.28,0.8 l -1.2,-3.56 m 5.72,15 c 0.71999,1e-5 1.30665,-0.17333 1.76,-0.52 0.45332,-0.37333 0.78665,-0.77333 1,-1.2 l 0,-3.32 c -0.61335,-0.08 -1.20001,-0.0933 -1.76,-0.04 -0.56001,0.0533 -1.05334,0.17334 -1.48,0.36 -0.42668,0.18668 -0.77334,0.46668 -1.04,0.84 -0.24001,0.34668 -0.36001,0.80001 -0.36,1.36 -1e-5,0.82667 0.15999,1.45334 0.48,1.88 0.34666,0.42667 0.81332,0.64001 1.4,0.64"
         style=""
         id="path3990" />
      <path
         d="m 571.86703,368.94479 c -0.64001,-0.23998 -1.22668,-0.35998 -1.76,-0.36 -0.72001,2e-5 -1.34667,0.20002 -1.88,0.6 -0.50667,0.40002 -0.85334,0.96002 -1.04,1.68 l 0,13.36 -4.76,0 0,-20 3.64,0 0.56,2.4 0.16,0 c 0.34666,-0.87998 0.83999,-1.55998 1.48,-2.04 0.66666,-0.50664 1.42666,-0.75998 2.28,-0.76 0.63999,2e-5 1.26666,0.13336 1.88,0.4 l -0.56,4.72"
         style=""
         id="path3992" />
      <path
         d="m 574.18578,365.42479 c 0.8,-0.47998 1.8,-0.86664 3,-1.16 1.2,-0.29331 2.55999,-0.43998 4.08,-0.44 2.26666,2e-5 3.83999,0.58669 4.72,1.76 0.90665,1.17335 1.35999,2.84002 1.36,5 -10e-6,1.25335 -0.04,2.49335 -0.12,3.72 -0.0534,1.20001 -0.0933,2.38668 -0.12,3.56 -0.0267,1.14667 -0.0133,2.26667 0.04,3.36 0.08,1.06667 0.26665,2.08 0.56,3.04 l -3.88,0 -0.76,-2.44 -0.16,0 c -0.42668,0.77334 -1.02667,1.41334 -1.8,1.92 -0.77334,0.50667 -1.74667,0.76 -2.92,0.76 -1.57334,0 -2.81334,-0.52 -3.72,-1.56 -0.90667,-1.06666 -1.36,-2.47999 -1.36,-4.24 0,-2.39999 0.85333,-4.10665 2.56,-5.12 1.70666,-1.01332 4.01333,-1.43999 6.92,-1.28 0.13332,-1.54665 0.0267,-2.66665 -0.32,-3.36 -0.32001,-0.69331 -1.02667,-1.03998 -2.12,-1.04 -0.80001,2e-5 -1.62667,0.0933 -2.48,0.28 -0.85334,0.18669 -1.61334,0.45335 -2.28,0.8 l -1.2,-3.56 m 5.72,15 c 0.71999,1e-5 1.30666,-0.17333 1.76,-0.52 0.45332,-0.37333 0.78666,-0.77333 1,-1.2 l 0,-3.32 c -0.61334,-0.08 -1.20001,-0.0933 -1.76,-0.04 -0.56001,0.0533 -1.05334,0.17334 -1.48,0.36 -0.42667,0.18668 -0.77334,0.46668 -1.04,0.84 -0.24,0.34668 -0.36,0.80001 -0.36,1.36 0,0.82667 0.16,1.45334 0.48,1.88 0.34666,0.42667 0.81333,0.64001 1.4,0.64"
         style=""
         id="path3994" />
      <path
         d="m 589.07016,364.22479 2.2,0 0,-3.76 4.76,-1.48 0,5.24 3.88,0 0,4.24 -3.88,0 0,8.72 c -10e-6,1.14668 0.10666,1.96001 0.32,2.44 0.23999,0.48001 0.65332,0.72001 1.24,0.72 0.39999,1e-5 0.75999,-0.04 1.08,-0.12 0.31999,-0.08 0.66665,-0.19999 1.04,-0.36 l 0.6,3.8 c -0.58668,0.29334 -1.26668,0.53334 -2.04,0.72 -0.77335,0.21334 -1.58668,0.32 -2.44,0.32 -1.52001,0 -2.66667,-0.44 -3.44,-1.32 -0.74667,-0.88 -1.12001,-2.35999 -1.12,-4.44 l 0,-10.48 -2.2,0 0,-4.24"
         style=""
         id="path3996" />
      <path
         d="m 615.79078,382.74479 c -0.66668,0.58667 -1.57335,1.06667 -2.72,1.44 -1.14668,0.37334 -2.34668,0.56 -3.6,0.56 -1.38667,0 -2.58667,-0.24 -3.6,-0.72 -0.98667,-0.48 -1.8,-1.17333 -2.44,-2.08 -0.64,-0.90666 -1.12,-1.99999 -1.44,-3.28 -0.29333,-1.30666 -0.44,-2.78666 -0.44,-4.44 0,-3.59998 0.70667,-6.25331 2.12,-7.96 1.44,-1.73331 3.42666,-2.59998 5.96,-2.6 0.85332,2e-5 1.67999,0.13336 2.48,0.4 0.79999,0.24002 1.50665,0.66669 2.12,1.28 0.63999,0.58669 1.14665,1.38669 1.52,2.4 0.39999,0.98668 0.59999,2.24002 0.6,3.76 -10e-6,0.58668 -0.04,1.21335 -0.12,1.88 -0.0534,0.66668 -0.14668,1.38668 -0.28,2.16 l -9.72,0 c 0.0533,1.65334 0.4,2.92001 1.04,3.8 0.63999,0.88001 1.66666,1.32001 3.08,1.32 0.85332,1e-5 1.62666,-0.13333 2.32,-0.4 0.71999,-0.26666 1.26665,-0.54666 1.64,-0.84 l 1.48,3.32 m -6.24,-15 c -1.01334,2e-5 -1.77334,0.41335 -2.28,1.24 -0.50667,0.80002 -0.8,1.93335 -0.88,3.4 l 5.52,0 c 0.08,-1.51998 -0.08,-2.66665 -0.48,-3.44 -0.40001,-0.79998 -1.02668,-1.19998 -1.88,-1.2"
         style=""
         id="path3998" />
    </g>
    <path
       inkscape:connector-curvature="0"
       id="path3006"
       d="m 284.85715,540.11204 c 0,-1.41643 2.9835,-2.18267 4.82244,-1.23853 2.66358,1.36753 4.06032,0.30044 6.8221,-5.21197 1.4209,-2.83607 3.2614,-5.92686 4.08999,-6.86842 1.4131,-1.60575 1.616,-1.57675 3.27139,0.46757 2.3399,2.88966 4.2945,1.31465 6.02096,-4.85165 1.04171,-3.72061 1.61576,-4.452 3.12464,-3.981 6.39853,1.99732 5.91517,2.28175 8.36615,-4.92299 0.57014,-1.67596 1.1002,-1.1549 3.27152,3.21599 1.42513,2.86879 3.16563,5.43643 3.86777,5.70587 1.82206,0.69919 9.1154,-7.26829 10.45545,-11.42186 0.62106,-1.925 1.49003,-3.8927 1.93106,-4.37267 0.44103,-0.47997 0.30971,-1.95284 -0.29182,-3.27305 -0.89925,-1.97363 -0.72012,-2.90565 1.00757,-5.24247 1.15568,-1.56315 2.78468,-4.47778 3.61999,-6.47695 1.63725,-3.9185 4.12169,-4.78273 5.07893,-1.76674 0.32611,1.02746 1.47205,2.66371 2.54654,3.63612 2.51696,2.27781 2.58955,2.06408 4.41579,-13.00202 1.30368,-10.75495 1.72317,-12.22903 4.0497,-14.23022 1.76122,-1.51494 3.52659,-5.15355 5.49274,-11.32113 1.59355,-4.99877 3.61418,-10.18267 4.49028,-11.51977 1.61444,-2.46395 4.54681,-3.33316 4.54681,-1.34777 0,0.59584 0.56103,0.89633 1.24674,0.66776 0.68571,-0.22857 1.93283,-3.52857 2.77139,-7.33334 1.259,-5.71246 1.86938,-6.91775 3.50325,-6.91775 1.52691,0 2.44039,1.36979 4.00128,6 3.3593,9.96501 4.40069,10.64808 6.86066,4.5 0.88027,-2.2 2.06047,-4 2.62268,-4 0.56221,0 2.33642,1.4625 3.94269,3.25 l 2.92049,3.25 2.12485,-5 c 1.16866,-2.75 2.84144,-6.6875 3.71728,-8.75 0.87584,-2.0625 2.12935,-3.75 2.78558,-3.75 1.53635,0 3.81652,2.62125 5.96174,6.85353 l 1.69981,3.35353 1.95973,-2.10353 c 1.34513,-1.44383 3.18349,-2.10353 5.86177,-2.10353 2.14611,0 4.18014,-0.45 4.52006,-1 1.12074,-1.81339 2.53918,-1.04791 4.6325,2.5 1.4349,2.43196 2.78706,3.5 4.43109,3.5 1.44408,0 2.81703,0.87674 3.52341,2.25 1.63122,3.17118 6.05826,7.75 7.4931,7.75 1.64961,0 2.17015,1.66888 3.59553,11.52726 0.69919,4.83582 1.66889,8.3579 2.24796,8.16488 0.5601,-0.1867 2.15643,-2.55631 3.54739,-5.2658 2.40467,-4.68411 2.75029,-4.94167 7.02902,-5.23802 3.40407,-0.23578 5.27046,-1.05466 7.66359,-3.36242 1.73998,-1.67791 3.59178,-2.78611 4.11511,-2.46267 0.52333,0.32343 1.47991,3.41152 2.12574,6.86242 1.95768,10.46057 4.80591,13.69894 7.27751,8.27435 2.5107,-5.51038 6.10403,-1.02508 7.85009,9.7987 1.48187,9.18604 2.87467,9.79231 6.42057,2.79481 2.86297,-5.6498 4.03258,-6.331 7.69667,-4.48271 1.90959,0.96326 3.20047,2.96855 4.62342,7.18216 2.07387,6.14106 6.66588,14.20704 8.08815,14.20704 0.45968,0 1.54283,-1.8 2.40701,-4 1.65536,-4.21412 2.99556,-4.74836 7.15616,-2.85266 3.86988,1.76323 7.3713,14.27218 4.959,17.71621 -0.75918,1.08388 -0.99815,2.12048 -0.53106,2.30357 0.4671,0.18308 2.5287,5.39538 4.58133,11.58288 2.92464,8.81609 4.12373,11.25 5.5424,11.25 0.99568,0 2.06935,-0.675 2.38594,-1.5 0.97013,-2.52814 2.00134,-1.67975 5.60489,4.61125 1.90658,3.32847 4.60658,6.67207 6,7.43022 2.16308,1.17692 -17.97157,1.38431 -137.71652,1.41849 -81.66129,0.0233 -140.25,-0.33301 -140.25,-0.85297 z"
       style="fill:#f5a99a"
       clip-path="url(#clipPath3099)"
       transform="matrix(1.25,0,0,1.25,-280.34828,192.71471)" />
    <path
       inkscape:connector-curvature="0"
       id="path3000"
       d="m 332.00203,418.18266 2.57552,-4.6081 2.90477,3.1081 c 2.87657,3.07793 5.18826,3.91244 6.2188,2.24498 0.2934,-0.47472 1.22993,-6.82317 2.08118,-14.10766 1.33213,-11.39945 1.8581,-13.50351 3.77558,-15.1036 2.0964,-1.7494 4.83941,-1.86104 46.49141,-1.89235 33.54533,-0.0252 44.74457,0.26712 46.25,1.20728 1.58107,0.98739 2.39179,0.98739 3.97286,0 1.26383,-0.78928 5.93645,-1.24055 12.84501,-1.24055 9.58859,0 11.07027,0.23391 12.66856,2 2.32226,2.56607 4.19229,2.54487 5.01805,-0.0569 0.38424,-1.21064 1.33642,-1.92522 2.31439,-1.73688 1.24128,0.23905 2.0431,2.46673 3.16989,8.80687 1.49716,8.42407 1.53049,8.48688 4.503,8.48688 2.62802,0 3.30076,-0.64235 5.49467,-5.24644 1.375,-2.88555 2.99276,-5.24805 3.59501,-5.25 1.88047,-0.006 4.08024,3.28818 5.87313,8.79538 1.95237,5.99703 7.25133,13.52335 9.87726,14.02906 1.25634,0.24195 2.20341,-0.81556 3.3543,-3.74543 1.68189,-4.28167 2.88886,-4.90537 5.48157,-2.83257 1.24374,0.99433 3.81873,8.54172 3.81873,11.19282 0,0.30645 -43.84332,0.55718 -97.4296,0.55718 l -97.42961,0 2.57552,-4.6081 z m 21.30264,-35.1419 c 0.0401,-1.5875 4.54103,-14.84967 5.68463,-16.75 1.18784,-1.97383 1.22501,-1.96993 2.8401,0.29767 2.27475,3.19377 3.84419,1.57457 5.36572,-5.53585 2.42025,-11.3103 3.06064,-11.56377 5.67503,-2.24616 2.58031,9.19617 6.0543,10.48656 9.03382,3.35557 l 1.52795,-3.65689 2.94203,3.22112 c 1.61812,1.77161 3.49347,3.03731 4.16744,2.81265 0.67397,-0.22466 2.67156,-3.91429 4.4391,-8.19919 1.76753,-4.28489 3.44842,-8.02544 3.7353,-8.31232 1.04579,-1.04579 3.27545,1.83714 4.44823,5.75152 1.3653,4.55699 3.37761,5.15236 6.09058,1.80198 1.12948,-1.39485 3.03269,-2.27069 5.16029,-2.37473 1.85396,-0.0907 4.06847,-0.45986 4.92114,-0.82046 1.10714,-0.46821 2.03155,0.35355 3.23382,2.87473 1.22043,2.55926 2.32901,3.53036 4.03017,3.53036 1.6358,0 3.32561,1.36317 5.57832,4.5 1.77741,2.475 3.88983,4.5 4.69427,4.5 1.85071,0 3.03133,3.09621 3.93327,10.31507 l 0.71029,5.68493 -44.11523,0 c -24.26337,0 -44.10669,-0.3375 -44.09627,-0.75 z m 96.58177,-0.087 c -0.28452,-0.46037 0.16444,-1.81037 0.99769,-3 1.08104,-1.54341 2.55723,-2.16297 5.15358,-2.16297 2.5883,0 4.45005,-0.77745 6.44988,-2.69341 3.38622,-3.2442 4.38475,-2.50535 5.32941,3.94341 l 0.69581,4.75 -9.05453,0 c -4.97999,0 -9.28732,-0.37667 -9.57184,-0.83703 z"
       style="fill:#e04957;fill-opacity:1"
       clip-path="url(#clipPath3095)"
       transform="matrix(1.25,0,0,1.25,-264.01375,285.79227)" />
    <path
       inkscape:connector-curvature="0"
       id="path2998"
       d="m 319.10622,579.36218 c -1.03286,0 4.55772,-15.92569 5.93838,-17.28441 0.77863,-0.76625 1.48562,-0.53693 2.47468,0.8027 2.24517,3.041 4.22151,1.21064 5.46547,-5.06176 1.57899,-7.96167 2.01493,-9.31366 3.00318,-9.31366 0.46924,0 1.16877,1.4625 1.55453,3.25 1.56097,7.23328 3.56212,10.75 6.11715,10.75 1.86212,0 2.80226,-0.86116 3.95683,-3.62443 l 1.51438,-3.62442 2.73931,2.62442 c 4.27905,4.0996 5.63961,3.44345 8.55455,-4.12557 4.2827,-11.12056 5.06148,-11.46072 8.49062,-3.70858 2.25008,5.08669 3.17599,5.42142 5.75129,2.07916 1.3777,-1.78799 3.15468,-2.52389 7.14914,-2.96067 5.19465,-0.56801 5.33924,-0.51381 6.34783,2.37942 1.01492,2.91141 1.72659,3.34646 4.96292,3.03389 0.90712,-0.0876 2.56148,1.42761 3.7405,3.4259 1.16271,1.97065 3.43312,4.34006 5.04535,5.26535 2.55916,1.46875 3.05288,2.51102 3.88858,8.20894 0.52648,3.58963 0.71137,7.88372 0.51915,7.88372 z m 96.89378,0 c 0,-3.1527 2.18115,-5.85713 5.95846,-5.85713 2.7127,0 4.80787,-0.77395 6.93066,-2.56016 l 3.04258,-2.56016 0.57054,2.31016 c 0.3138,1.27059 0.66667,3.66016 0.78415,5.31016 l 0.21361,3.35713 -8.75,0 c -5.89699,0 -8.75,0.74404 -8.75,0 z"
       style="fill:#b41616"
       sodipodi:nodetypes="sssssssscsssssscsssssssscsscss"
       clip-path="url(#clipPath3073)"
       transform="matrix(1.25,0,0,1.25,-221.00182,45.611247)" />
    <g
       style="font-size:40px;font-style:normal;font-variant:normal;font-weight:bold;font-stretch:condensed;line-height:125%;letter-spacing:0px;word-spacing:0px;fill:#90ee90;fill-opacity:1;stroke:none;font-family:PT Sans Narrow;-inkscape-font-specification:PT Sans Narrow Bold Condensed"
       id="text4120">
      <path
         d="m 82.563164,654.34191 c 1.306657,10e-6 2.293323,-0.43999 2.96,-1.32 0.693321,-0.87999 1.039988,-1.99999 1.04,-3.36 -1.2e-5,-3.01332 -1.493344,-4.51999 -4.48,-4.52 l -2.36,0 0,-2.72 3.96,-6.72 1.92,-1.8 -2.64,0.36 -5.48,0 0,-4.24 12.8,0 0,2.84 -4.64,7.56 -1.48,1.08 0,0.2 1.48,-0.24 c 0.746655,0.0534 1.466654,0.25335 2.16,0.6 0.693319,0.34668 1.293319,0.84002 1.8,1.48 0.533318,0.64002 0.94665,1.44001 1.24,2.4 0.319983,0.96001 0.479983,2.09334 0.48,3.4 -1.7e-5,1.57334 -0.226683,2.93334 -0.68,4.08 -0.426683,1.14667 -1.026682,2.10667 -1.8,2.88 -0.74668,0.77334 -1.640013,1.34667 -2.68,1.72 -1.013344,0.37333 -2.106676,0.56 -3.28,0.56 -0.986674,0 -2.026673,-0.10667 -3.12,-0.32 -1.093338,-0.21333 -1.960003,-0.52 -2.6,-0.92 l 1.28,-4 c 0.559995,0.29334 1.173328,0.53334 1.84,0.72 0.66666,0.18667 1.426659,0.28001 2.28,0.28"
         style=""
         id="path4016" />
      <path
         d="m 102.14441,644.26191 8.32,0 0,4.56 -8.32,0 0,-4.56"
         style=""
         id="path4018" />
      <path
         d="m 135.05566,656.90191 c -0.69335,0.58667 -1.62668,1.01334 -2.8,1.28 -1.14668,0.26667 -2.29334,0.4 -3.44,0.4 -1.44001,0 -2.78667,-0.24 -4.04,-0.72 -1.22667,-0.50666 -2.30667,-1.33333 -3.24,-2.48 -0.93333,-1.14666 -1.66667,-2.65333 -2.2,-4.52 -0.53333,-1.86666 -0.8,-4.15999 -0.8,-6.88 0,-2.82665 0.29334,-5.17331 0.88,-7.04 0.61333,-1.86664 1.4,-3.34664 2.36,-4.44 0.98667,-1.11997 2.10666,-1.90664 3.36,-2.36 1.25333,-0.4533 2.51999,-0.67997 3.8,-0.68 1.30666,3e-5 2.43999,0.1067 3.4,0.32 0.98665,0.21336 1.78665,0.45336 2.4,0.72 l -1,4.44 c -0.50668,-0.26664 -1.10668,-0.46664 -1.8,-0.6 -0.66668,-0.15997 -1.46668,-0.23997 -2.4,-0.24 -1.84001,3e-5 -3.25334,0.80002 -4.24,2.4 -0.98667,1.60002 -1.48,4.10669 -1.48,7.52 0,1.46668 0.10666,2.81335 0.32,4.04 0.24,1.20001 0.6,2.24001 1.08,3.12 0.50666,0.88001 1.13333,1.56001 1.88,2.04 0.77333,0.48001 1.69333,0.72001 2.76,0.72 0.93332,10e-6 1.73332,-0.11999 2.4,-0.36 0.66665,-0.26666 1.26665,-0.57333 1.8,-0.92 l 1,4.24"
         style=""
         id="path4020" />
      <path
         d="m 135.48504,648.02191 c 0,-3.54665 0.69333,-6.18665 2.08,-7.92 1.38666,-1.73331 3.31999,-2.59998 5.8,-2.6 2.66665,2e-5 4.65332,0.88002 5.96,2.64 1.30665,1.76002 1.95998,4.38668 1.96,7.88 -2e-5,3.57334 -0.69335,6.22667 -2.08,7.96 -1.38668,1.70667 -3.33335,2.56 -5.84,2.56 -5.25334,0 -7.88,-3.50666 -7.88,-10.52 m 4.92,0 c -1e-5,2.00001 0.22666,3.54667 0.68,4.64 0.45333,1.09334 1.21332,1.64001 2.28,1.64 1.01332,10e-6 1.75999,-0.46666 2.24,-1.4 0.50665,-0.95999 0.75999,-2.58666 0.76,-4.88 -1e-5,-2.05332 -0.22668,-3.61332 -0.68,-4.68 -0.45335,-1.06665 -1.22668,-1.59998 -2.32,-1.6 -0.93334,2e-5 -1.66668,0.48002 -2.2,1.44 -0.50667,0.93335 -0.76001,2.54668 -0.76,4.84"
         style=""
         id="path4022" />
      <path
         d="m 158.85754,651.54191 c -1e-5,0.93334 0.0933,1.60001 0.28,2 0.18666,0.40001 0.49332,0.60001 0.92,0.6 0.23999,10e-6 0.47999,-0.0267 0.72,-0.08 0.26666,-0.0533 0.55999,-0.14666 0.88,-0.28 l 0.44,3.84 c -0.32001,0.21334 -0.86668,0.41333 -1.64,0.6 -0.77334,0.18667 -1.56001,0.28 -2.36,0.28 -1.33334,0 -2.33334,-0.33333 -3,-1 -0.66667,-0.66666 -1,-1.8 -1,-3.4 l 0,-24.08 4.76,0 0,21.52"
         style=""
         id="path4025" />
      <path
         d="m 162.98504,648.02191 c 0,-3.54665 0.69333,-6.18665 2.08,-7.92 1.38666,-1.73331 3.31999,-2.59998 5.8,-2.6 2.66665,2e-5 4.65332,0.88002 5.96,2.64 1.30665,1.76002 1.95998,4.38668 1.96,7.88 -2e-5,3.57334 -0.69335,6.22667 -2.08,7.96 -1.38668,1.70667 -3.33335,2.56 -5.84,2.56 -5.25334,0 -7.88,-3.50666 -7.88,-10.52 m 4.92,0 c -1e-5,2.00001 0.22666,3.54667 0.68,4.64 0.45333,1.09334 1.21332,1.64001 2.28,1.64 1.01332,10e-6 1.75999,-0.46666 2.24,-1.4 0.50665,-0.95999 0.75999,-2.58666 0.76,-4.88 -1e-5,-2.05332 -0.22668,-3.61332 -0.68,-4.68 -0.45335,-1.06665 -1.22668,-1.59998 -2.32,-1.6 -0.93334,2e-5 -1.66668,0.48002 -2.2,1.44 -0.50667,0.93335 -0.76001,2.54668 -0.76,4.84"
         style=""
         id="path4027" />
      <path
         d="m 186.11754,638.02191 0,11.96 c -1e-5,1.57334 0.14666,2.66667 0.44,3.28 0.29333,0.61334 0.82666,0.92001 1.6,0.92 0.74666,10e-6 1.37332,-0.26666 1.88,-0.8 0.50665,-0.55999 0.86665,-1.22666 1.08,-2 l 0,-13.36 4.76,0 0,13.92 c -2e-5,1.09334 0.04,2.17334 0.12,3.24 0.08,1.04 0.22665,1.98667 0.44,2.84 l -3.6,0 -0.84,-2.72 -0.12,0 c -0.50668,0.93334 -1.20001,1.70667 -2.08,2.32 -0.85334,0.61333 -1.92001,0.92 -3.2,0.92 -0.82667,0 -1.56001,-0.12 -2.2,-0.36 -0.64001,-0.21333 -1.18667,-0.6 -1.64,-1.16 -0.45334,-0.56 -0.8,-1.32 -1.04,-2.28 -0.24,-0.98666 -0.36,-2.22666 -0.36,-3.72 l 0,-13 4.76,0"
         style=""
         id="path4029" />
      <path
         d="m 208.77004,642.74191 c -0.64001,-0.23998 -1.22668,-0.35998 -1.76,-0.36 -0.72001,2e-5 -1.34668,0.20002 -1.88,0.6 -0.50667,0.40002 -0.85334,0.96002 -1.04,1.68 l 0,13.36 -4.76,0 0,-20 3.64,0 0.56,2.4 0.16,0 c 0.34666,-0.87998 0.83999,-1.55998 1.48,-2.04 0.66666,-0.50664 1.42666,-0.75998 2.28,-0.76 0.63999,2e-5 1.26665,0.13336 1.88,0.4 l -0.56,4.72"
         style=""
         id="path4031" />
      <path
         d="m 211.44879,638.02191 4.76,0 0,20 -4.76,0 0,-20 m -0.56,-5.64 c 0,-0.79997 0.25333,-1.4533 0.76,-1.96 0.50666,-0.5333 1.22666,-0.79997 2.16,-0.8 0.93333,3e-5 1.67999,0.25336 2.24,0.76 0.55999,0.5067 0.83999,1.17336 0.84,2 -1e-5,0.82669 -0.28001,1.48003 -0.84,1.96 -0.56001,0.48002 -1.30667,0.72002 -2.24,0.72 -0.93334,2e-5 -1.65334,-0.23998 -2.16,-0.72 -0.50667,-0.50664 -0.76,-1.15997 -0.76,-1.96"
         style=""
         id="path4033" />
      <path
         d="m 219.27316,653.78191 6.48,-9.8 1.76,-1.72 -8.24,0 0,-4.24 13.24,0 0,4.24 -6.4,9.96 -1.72,1.56 8.12,0 0,4.24 -13.24,0 0,-4.24"
         style=""
         id="path4035" />
      <path
         d="m 248.55316,656.54191 c -0.66668,0.58667 -1.57334,1.06667 -2.72,1.44 -1.14667,0.37333 -2.34667,0.56 -3.6,0.56 -1.38667,0 -2.58667,-0.24 -3.6,-0.72 -0.98667,-0.48 -1.8,-1.17333 -2.44,-2.08 -0.64,-0.90666 -1.12,-1.99999 -1.44,-3.28 -0.29333,-1.30666 -0.44,-2.78666 -0.44,-4.44 0,-3.59998 0.70667,-6.25332 2.12,-7.96 1.44,-1.73331 3.42666,-2.59998 5.96,-2.6 0.85333,2e-5 1.67999,0.13336 2.48,0.4 0.79999,0.24002 1.50666,0.66669 2.12,1.28 0.63999,0.58669 1.14666,1.38669 1.52,2.4 0.39999,0.98668 0.59999,2.24002 0.6,3.76 -1e-5,0.58668 -0.04,1.21335 -0.12,1.88 -0.0533,0.66668 -0.14668,1.38668 -0.28,2.16 l -9.72,0 c 0.0533,1.65334 0.4,2.92001 1.04,3.8 0.64,0.88001 1.66666,1.32001 3.08,1.32 0.85333,10e-6 1.62666,-0.13333 2.32,-0.4 0.71999,-0.26666 1.26666,-0.54666 1.64,-0.84 l 1.48,3.32 m -6.24,-15 c -1.01334,2e-5 -1.77334,0.41335 -2.28,1.24 -0.50667,0.80002 -0.8,1.93335 -0.88,3.4 l 5.52,0 c 0.08,-1.51999 -0.08,-2.66665 -0.48,-3.44 -0.40001,-0.79998 -1.02667,-1.19998 -1.88,-1.2"
         style=""
         id="path4037" />
    </g>
    <path
       transform="matrix(1.25,0,0,1.25,93.131798,192.71472)"
       inkscape:connector-curvature="0"
       id="path3006-1"
       d="m 284.85715,540.11204 c 0,-1.41643 2.9835,-2.18267 4.82244,-1.23853 2.66358,1.36753 4.06032,0.30044 6.8221,-5.21197 1.4209,-2.83607 3.2614,-5.92686 4.08999,-6.86842 1.4131,-1.60575 1.616,-1.57675 3.27139,0.46757 2.3399,2.88966 4.2945,1.31465 6.02096,-4.85165 1.04171,-3.72061 1.61576,-4.452 3.12464,-3.981 6.39853,1.99732 5.91517,2.28175 8.36615,-4.92299 0.57014,-1.67596 1.1002,-1.1549 3.27152,3.21599 1.42513,2.86879 3.16563,5.43643 3.86777,5.70587 1.82206,0.69919 9.1154,-7.26829 10.45545,-11.42186 0.62106,-1.925 1.49003,-3.8927 1.93106,-4.37267 0.44103,-0.47997 0.30971,-1.95284 -0.29182,-3.27305 -0.89925,-1.97363 -0.72012,-2.90565 1.00757,-5.24247 1.15568,-1.56315 2.78468,-4.47778 3.61999,-6.47695 1.63725,-3.9185 4.12169,-4.78273 5.07893,-1.76674 0.32611,1.02746 1.47205,2.66371 2.54654,3.63612 2.51696,2.27781 2.58955,2.06408 4.41579,-13.00202 1.30368,-10.75495 1.72317,-12.22903 4.0497,-14.23022 1.76122,-1.51494 3.52659,-5.15355 5.49274,-11.32113 1.59355,-4.99877 3.61418,-10.18267 4.49028,-11.51977 1.61444,-2.46395 4.54681,-3.33316 4.54681,-1.34777 0,0.59584 0.56103,0.89633 1.24674,0.66776 0.68571,-0.22857 1.93283,-3.52857 2.77139,-7.33334 1.259,-5.71246 1.86938,-6.91775 3.50325,-6.91775 1.52691,0 2.44039,1.36979 4.00128,6 3.3593,9.96501 4.40069,10.64808 6.86066,4.5 0.88027,-2.2 2.06047,-4 2.62268,-4 0.56221,0 2.33642,1.4625 3.94269,3.25 l 2.92049,3.25 2.12485,-5 c 1.16866,-2.75 2.84144,-6.6875 3.71728,-8.75 0.87584,-2.0625 2.12935,-3.75 2.78558,-3.75 1.53635,0 3.81652,2.62125 5.96174,6.85353 l 1.69981,3.35353 1.95973,-2.10353 c 1.34513,-1.44383 3.18349,-2.10353 5.86177,-2.10353 2.14611,0 4.18014,-0.45 4.52006,-1 1.12074,-1.81339 2.53918,-1.04791 4.6325,2.5 1.4349,2.43196 2.78706,3.5 4.43109,3.5 1.44408,0 2.81703,0.87674 3.52341,2.25 1.63122,3.17118 6.05826,7.75 7.4931,7.75 1.64961,0 2.17015,1.66888 3.59553,11.52726 0.69919,4.83582 1.66889,8.3579 2.24796,8.16488 0.5601,-0.1867 2.15643,-2.55631 3.54739,-5.2658 2.40467,-4.68411 2.75029,-4.94167 7.02902,-5.23802 3.40407,-0.23578 5.27046,-1.05466 7.66359,-3.36242 1.73998,-1.67791 3.59178,-2.78611 4.11511,-2.46267 0.52333,0.32343 1.47991,3.41152 2.12574,6.86242 1.95768,10.46057 4.80591,13.69894 7.27751,8.27435 2.5107,-5.51038 6.10403,-1.02508 7.85009,9.7987 1.48187,9.18604 2.87467,9.79231 6.42057,2.79481 2.86297,-5.6498 4.03258,-6.331 7.69667,-4.48271 1.90959,0.96326 3.20047,2.96855 4.62342,7.18216 2.07387,6.14106 6.66588,14.20704 8.08815,14.20704 0.45968,0 1.54283,-1.8 2.40701,-4 1.65536,-4.21412 2.99556,-4.74836 7.15616,-2.85266 3.86988,1.76323 7.3713,14.27218 4.959,17.71621 -0.75918,1.08388 -0.99815,2.12048 -0.53106,2.30357 0.4671,0.18308 2.5287,5.39538 4.58133,11.58288 2.92464,8.81609 4.12373,11.25 5.5424,11.25 0.99568,0 2.06935,-0.675 2.38594,-1.5 0.97013,-2.52814 2.00134,-1.67975 5.60489,4.61125 1.90658,3.32847 4.60658,6.67207 6,7.43022 2.16308,1.17692 -17.97157,1.38431 -137.71652,1.41849 -81.66129,0.0233 -140.25,-0.33301 -140.25,-0.85297 z"
       style="fill:#f5a99a"
       clip-path="url(#clipPath3099-2)" />
    <path
       inkscape:connector-curvature="0"
       id="path3000-6"
       d="m 332.00203,418.18266 2.57552,-4.6081 2.90477,3.1081 c 2.87657,3.07793 5.18826,3.91244 6.2188,2.24498 0.2934,-0.47472 1.22993,-6.82317 2.08118,-14.10766 1.33213,-11.39945 1.8581,-13.50351 3.77558,-15.1036 2.0964,-1.7494 4.83941,-1.86104 46.49141,-1.89235 33.54533,-0.0252 44.74457,0.26712 46.25,1.20728 1.58107,0.98739 2.39179,0.98739 3.97286,0 1.26383,-0.78928 5.93645,-1.24055 12.84501,-1.24055 9.58859,0 11.07027,0.23391 12.66856,2 2.32226,2.56607 4.19229,2.54487 5.01805,-0.0569 0.38424,-1.21064 1.33642,-1.92522 2.31439,-1.73688 1.24128,0.23905 2.0431,2.46673 3.16989,8.80687 1.49716,8.42407 1.53049,8.48688 4.503,8.48688 2.62802,0 3.30076,-0.64235 5.49467,-5.24644 1.375,-2.88555 2.99276,-5.24805 3.59501,-5.25 1.88047,-0.006 4.08024,3.28818 5.87313,8.79538 1.95237,5.99703 7.25133,13.52335 9.87726,14.02906 1.25634,0.24195 2.20341,-0.81556 3.3543,-3.74543 1.68189,-4.28167 2.88886,-4.90537 5.48157,-2.83257 1.24374,0.99433 3.81873,8.54172 3.81873,11.19282 0,0.30645 -43.84332,0.55718 -97.4296,0.55718 l -97.42961,0 2.57552,-4.6081 z m 21.30264,-35.1419 c 0.0401,-1.5875 4.54103,-14.84967 5.68463,-16.75 1.18784,-1.97383 1.22501,-1.96993 2.8401,0.29767 2.27475,3.19377 3.84419,1.57457 5.36572,-5.53585 2.42025,-11.3103 3.06064,-11.56377 5.67503,-2.24616 2.58031,9.19617 6.0543,10.48656 9.03382,3.35557 l 1.52795,-3.65689 2.94203,3.22112 c 1.61812,1.77161 3.49347,3.03731 4.16744,2.81265 0.67397,-0.22466 2.67156,-3.91429 4.4391,-8.19919 1.76753,-4.28489 3.44842,-8.02544 3.7353,-8.31232 1.04579,-1.04579 3.27545,1.83714 4.44823,5.75152 1.3653,4.55699 3.37761,5.15236 6.09058,1.80198 1.12948,-1.39485 3.03269,-2.27069 5.16029,-2.37473 1.85396,-0.0907 4.06847,-0.45986 4.92114,-0.82046 1.10714,-0.46821 2.03155,0.35355 3.23382,2.87473 1.22043,2.55926 2.32901,3.53036 4.03017,3.53036 1.6358,0 3.32561,1.36317 5.57832,4.5 1.77741,2.475 3.88983,4.5 4.69427,4.5 1.85071,0 3.03133,3.09621 3.93327,10.31507 l 0.71029,5.68493 -44.11523,0 c -24.26337,0 -44.10669,-0.3375 -44.09627,-0.75 z m 96.58177,-0.087 c -0.28452,-0.46037 0.16444,-1.81037 0.99769,-3 1.08104,-1.54341 2.55723,-2.16297 5.15358,-2.16297 2.5883,0 4.45005,-0.77745 6.44988,-2.69341 3.38622,-3.2442 4.38475,-2.50535 5.32941,3.94341 l 0.69581,4.75 -9.05453,0 c -4.97999,0 -9.28732,-0.37667 -9.57184,-0.83703 z"
       style="fill:#e04957;fill-opacity:1"
       clip-path="url(#clipPath3095-6)"
       transform="matrix(1.25,0,0,1.25,109.46632,330.06537)" />
    <path
       inkscape:connector-curvature="0"
       id="path2998-8"
       d="m 319.10622,579.36218 c -1.03286,0 4.55772,-15.92569 5.93838,-17.28441 0.77863,-0.76625 1.48562,-0.53693 2.47468,0.8027 2.24517,3.041 4.22151,1.21064 5.46547,-5.06176 1.57899,-7.96167 2.01493,-9.31366 3.00318,-9.31366 0.46924,0 1.16877,1.4625 1.55453,3.25 1.56097,7.23328 3.56212,10.75 6.11715,10.75 1.86212,0 2.80226,-0.86116 3.95683,-3.62443 l 1.51438,-3.62442 2.73931,2.62442 c 4.27905,4.0996 5.63961,3.44345 8.55455,-4.12557 4.2827,-11.12056 5.06148,-11.46072 8.49062,-3.70858 2.25008,5.08669 3.17599,5.42142 5.75129,2.07916 1.3777,-1.78799 3.15468,-2.52389 7.14914,-2.96067 5.19465,-0.56801 5.33924,-0.51381 6.34783,2.37942 1.01492,2.91141 1.72659,3.34646 4.96292,3.03389 0.90712,-0.0876 2.56148,1.42761 3.7405,3.4259 1.16271,1.97065 3.43312,4.34006 5.04535,5.26535 2.55916,1.46875 3.05288,2.51102 3.88858,8.20894 0.52648,3.58963 0.71137,7.88372 0.51915,7.88372 z m 96.89378,0 c 0,-3.1527 2.18115,-5.85713 5.95846,-5.85713 2.7127,0 4.80787,-0.77395 6.93066,-2.56016 l 3.04258,-2.56016 0.57054,2.31016 c 0.3138,1.27059 0.66667,3.66016 0.78415,5.31016 l 0.21361,3.35713 -8.75,0 c -5.89699,0 -8.75,0.74404 -8.75,0 z"
       style="fill:#b41616"
       sodipodi:nodetypes="sssssssscsssssscsssssssscsscss"
       clip-path="url(#clipPath3073-9)"
       transform="matrix(1.25,0,0,1.25,152.47825,134.15743)" />
    <g
       id="text4124"
       style="font-size:40px;font-style:normal;font-variant:normal;font-weight:bold;font-stretch:condensed;line-height:125%;letter-spacing:0px;word-spacing:0px;fill:#90ee90;fill-opacity:1;stroke:none;font-family:PT Sans Narrow;-inkscape-font-specification:PT Sans Narrow Bold Condensed"
       transform="translate(7.5499416,-131.18881)">
      <path
         inkscape:connector-curvature="0"
         id="path4001"
         d="m 459.49334,790.27648 -3.52,0 0,7.8 -4.52,0 0,-7.8 -9.88,0 0,-2.96 10.24,-17.44 4.16,0 0,16.32 3.52,0 0,4.08 m -8.04,-10.28 0.44,-3.6 -0.16,0 -1.2,3.24 -3.16,5.36 -1.6,1.52 2.04,-0.32 3.64,0 0,-6.2" />
      <path
         inkscape:connector-curvature="0"
         id="path4003"
         d="m 468.47459,784.31648 8.32,0 0,4.56 -8.32,0 0,-4.56" />
      <path
         inkscape:connector-curvature="0"
         id="path4005"
         d="m 490.22772,790.87648 c -2e-5,-0.85333 -0.25335,-1.57333 -0.76,-2.16 -0.50668,-0.61333 -1.14668,-1.18666 -1.92,-1.72 -0.74668,-0.53332 -1.57334,-1.07999 -2.48,-1.64 -0.88001,-0.55999 -1.70668,-1.21332 -2.48,-1.96 -0.74667,-0.74665 -1.37334,-1.62665 -1.88,-2.64 -0.50667,-1.01332 -0.76001,-2.25332 -0.76,-3.72 -1e-5,-1.35998 0.19999,-2.50665 0.6,-3.44 0.42666,-0.95998 0.99999,-1.73331 1.72,-2.32 0.71999,-0.61331 1.57332,-1.05331 2.56,-1.32 0.98666,-0.29331 2.03999,-0.43997 3.16,-0.44 1.35999,3e-5 2.62665,0.13336 3.8,0.4 1.17332,0.26669 2.14665,0.62669 2.92,1.08 l -1.56,4.44 c -0.45335,-0.31998 -1.13335,-0.61331 -2.04,-0.88 -0.88002,-0.26665 -1.84001,-0.39998 -2.88,-0.4 -1.04001,2e-5 -1.84001,0.21335 -2.4,0.64 -0.56001,0.42669 -0.84001,1.05335 -0.84,1.88 -1e-5,0.74668 0.25332,1.41335 0.76,2 0.50666,0.56002 1.13332,1.10668 1.88,1.64 0.77332,0.53335 1.59999,1.09335 2.48,1.68 0.90665,0.56001 1.73332,1.22668 2.48,2 0.77331,0.74668 1.41331,1.64001 1.92,2.68 0.50665,1.01334 0.75998,2.22667 0.76,3.64 -2e-5,1.41334 -0.21335,2.64 -0.64,3.68 -0.40002,1.04 -0.98669,1.90667 -1.76,2.6 -0.74668,0.66666 -1.65335,1.17333 -2.72,1.52 -1.06668,0.34666 -2.25335,0.52 -3.56,0.52 -1.65334,0 -3.10668,-0.16 -4.36,-0.48 -1.22667,-0.32 -2.17334,-0.68 -2.84,-1.08 l 1.64,-4.52 c 0.53333,0.32 1.26666,0.64 2.2,0.96 0.93332,0.32 1.93332,0.48 3,0.48 2.66665,0 3.99998,-1.04 4,-3.12" />
      <path
         inkscape:connector-curvature="0"
         id="path4007"
         d="m 496.36584,778.07648 2.2,0 0,-3.76 4.76,-1.48 0,5.24 3.88,0 0,4.24 -3.88,0 0,8.72 c -1e-5,1.14667 0.10666,1.96 0.32,2.44 0.23999,0.48 0.65333,0.72 1.24,0.72 0.39999,0 0.75999,-0.04 1.08,-0.12 0.31999,-0.08 0.66666,-0.2 1.04,-0.36 l 0.6,3.8 c -0.58668,0.29333 -1.26668,0.53333 -2.04,0.72 -0.77334,0.21333 -1.58667,0.32 -2.44,0.32 -1.52,0 -2.66667,-0.44 -3.44,-1.32 -0.74667,-0.88 -1.12,-2.36 -1.12,-4.44 l 0,-10.48 -2.2,0 0,-4.24" />
      <path
         inkscape:connector-curvature="0"
         id="path4009"
         d="m 509.60647,779.27648 c 0.79999,-0.47998 1.79999,-0.86665 3,-1.16 1.19999,-0.29332 2.55999,-0.43998 4.08,-0.44 2.26665,2e-5 3.83998,0.58668 4.72,1.76 0.90665,1.17335 1.35998,2.84001 1.36,5 -2e-5,1.25334 -0.04,2.49334 -0.12,3.72 -0.0534,1.20001 -0.0933,2.38667 -0.12,3.56 -0.0267,1.14667 -0.0134,2.26667 0.04,3.36 0.08,1.06667 0.26665,2.08 0.56,3.04 l -3.88,0 -0.76,-2.44 -0.16,0 c -0.42668,0.77333 -1.02668,1.41333 -1.8,1.92 -0.77335,0.50666 -1.74668,0.76 -2.92,0.76 -1.57334,0 -2.81334,-0.52 -3.72,-1.56 -0.90667,-1.06667 -1.36,-2.48 -1.36,-4.24 0,-2.4 0.85333,-4.10666 2.56,-5.12 1.70666,-1.01332 4.01332,-1.43999 6.92,-1.28 0.13332,-1.54666 0.0267,-2.66666 -0.32,-3.36 -0.32001,-0.69332 -1.02668,-1.03999 -2.12,-1.04 -0.80001,10e-6 -1.62668,0.0933 -2.48,0.28 -0.85334,0.18668 -1.61334,0.45335 -2.28,0.8 l -1.2,-3.56 m 5.72,15 c 0.71999,0 1.30665,-0.17333 1.76,-0.52 0.45332,-0.37333 0.78665,-0.77333 1,-1.2 l 0,-3.32 c -0.61335,-0.08 -1.20001,-0.0933 -1.76,-0.04 -0.56001,0.0533 -1.05334,0.17334 -1.48,0.36 -0.42668,0.18667 -0.77334,0.46667 -1.04,0.84 -0.24001,0.34667 -0.36001,0.8 -0.36,1.36 -10e-6,0.82667 0.15999,1.45334 0.48,1.88 0.34666,0.42667 0.81332,0.64 1.4,0.64" />
      <path
         inkscape:connector-curvature="0"
         id="path4011"
         d="m 537.85084,796.99648 c -0.66668,0.53333 -1.46668,0.93333 -2.4,1.2 -0.93334,0.26666 -1.86667,0.4 -2.8,0.4 -1.36001,0 -2.50667,-0.24 -3.44,-0.72 -0.90667,-0.50667 -1.65334,-1.21333 -2.24,-2.12 -0.58667,-0.93333 -1.01333,-2.04 -1.28,-3.32 -0.24,-1.30666 -0.36,-2.75999 -0.36,-4.36 0,-3.49332 0.62667,-6.11999 1.88,-7.88 1.25333,-1.75998 3.09333,-2.63998 5.52,-2.64 1.19999,2e-5 2.17332,0.10668 2.92,0.32 0.77332,0.21335 1.45332,0.48002 2.04,0.8 l -1.12,3.96 c -0.48001,-0.23999 -0.94668,-0.41332 -1.4,-0.52 -0.42668,-0.13332 -0.94668,-0.19999 -1.56,-0.2 -1.12001,10e-6 -1.96001,0.49335 -2.52,1.48 -0.56001,0.96001 -0.84,2.52001 -0.84,4.68 0,1.81334 0.27999,3.29334 0.84,4.44 0.58666,1.14667 1.50666,1.72 2.76,1.72 0.66666,0 1.22666,-0.08 1.68,-0.24 0.47999,-0.18667 0.91999,-0.41333 1.32,-0.68 l 1,3.68" />
      <path
         inkscape:connector-curvature="0"
         id="path4013"
         d="m 545.91522,789.79648 -1.12,0 0,8.28 -4.76,0 0,-28 4.76,0 0,16.52 0.96,-0.56 3.32,-7.96 5.16,0 -3.68,7.92 -1.72,1.36 1.88,1.36 4.08,9.36 -5.36,0 -3.52,-8.28" />
    </g>
  </g>
</svg>
