<svg width="64" height="64" xmlns="http://www.w3.org/2000/svg">
 <g>
  <title>background</title>
  <rect x="-1" y="-1" width="66" height="66" id="canvas_background" fill="none"/>
 </g>

 <g>
  <title>Layer 1</title>
  <path fill="#d0d0d0" d="m62,52c0,5.523 -4.478,10 -10,10l-40,0c-5.522,0 -10,-4.477 -10,-10l0,-40c0,-5.523 4.478,-10 10,-10l40,0c5.522,0 10,4.477 10,10l0,40" id="svg_1"/>
  <path fill="#fff" d="m57,45.666c0,4.604 -3.731,8.334 -8.333,8.334l-33.334,0c-4.602,0 -8.333,-3.73 -8.333,-8.334l0,-33.332c0,-4.604 3.731,-8.334 8.333,-8.334l33.334,0c4.602,0 8.333,3.73 8.333,8.334l0,33.332z" id="svg_2"/>
  <path stroke="null" fill="#9aa0a5" d="m45.90296,43.89217l-10.1877,-30.45046c-0.08944,-0.26502 -0.31438,-0.44171 -0.56915,-0.44171l-6.33106,0c-0.25476,0 -0.4797,0.17669 -0.56915,0.44171l-10.18769,30.45046c-0.07046,0.2102 -0.04607,0.44477 0.06775,0.62754c0.11384,0.18277 0.29813,0.29549 0.49868,0.29549l6.67797,0c0.26018,0 0.49326,-0.18887 0.57727,-0.46913l1.54483,-5.23348l9.10903,0l1.54753,5.23348c0.08131,0.28026 0.31439,0.46913 0.57728,0.46913l6.67797,0c0.19784,0 0.38485,-0.10967 0.49867,-0.29549c0.11113,-0.18277 0.13823,-0.41734 0.06777,-0.62754zm-16.57025,-11.24072l2.64787,-8.9621l2.64788,8.96515l-5.29575,0l0,-0.00305z" id="svg_4"/>
 </g>
</svg>